<?xml version="1.0" encoding="utf-8"?>
<!-- Generator: Adobe Illustrator 19.2.1, SVG Export Plug-In . SVG Version: 6.00 Build 0)  -->
<svg version="1.1" id="Layer_1" xmlns="http://www.w3.org/2000/svg" xmlns:xlink="http://www.w3.org/1999/xlink" x="0px" y="0px"
	 viewBox="0 0 40 40" style="enable-background:new 0 0 40 40;" xml:space="preserve">
<g>
	<g>
		<path d="M304.9,304.5c-2-3.5-2.6-7.5-2-11.2c0,0-0.2,0-0.3,0.1c-1.4,0.3-2.7,0.9-3.9,1.6c-0.3,0.2-0.7,0.5-0.6,0.4
			c-0.8,4.5,0.2,9.4,3.2,13.3C302.7,307.6,303.9,306.1,304.9,304.5z"/>
		<path d="M296.9,296.4c0,0-0.4,0.4-0.7,0.7c-2,2.2-3.2,5.2-3.2,8.4c0,2.2,0.5,4.2,1.5,6c0.1,0.3,0.4,0.6,0.3,0.5
			c2-0.5,3.9-1.4,5.6-2.6C297.6,305.5,296.4,300.9,296.9,296.4z"/>
		<path d="M318,304.1c-0.1-0.5-0.2-1-0.1-0.8c-3.6-3.4-8.6-5.2-13.9-4.6c0.3,1.8,0.9,3.6,1.9,5.3c4.6,0.1,8.7,1.9,11.8,4.8
			c0,0.1,0.1-0.3,0.1-0.6c0.2-0.9,0.3-1.8,0.3-2.7C318.1,305,318.1,304.5,318,304.1z"/>
		<path d="M317.4,301.5c0,0.1-0.1-0.4-0.3-0.7c-1.8-4.6-6.3-7.8-11.5-7.8c-0.4,0-0.8,0-1.2,0.1c-0.2,0-0.4,0-0.3,0
			c-0.3,1.5-0.3,3.1-0.2,4.6C308.8,297,313.6,298.5,317.4,301.5z"/>
		<path d="M300.3,317c-0.1,0,0.2,0.1,0.3,0.2c1.5,0.6,3.2,1,4.9,1c5.2,0,9.7-3.2,11.5-7.7c0.1-0.2,0.2-0.5,0.2-0.4
			c-1.4-1.4-3.1-2.6-5-3.5C310,311.7,305.5,315.6,300.3,317z"/>
		<path d="M311.3,306c-1.7-0.6-3.6-1-5.5-1c-2.4,4-6.2,6.7-10.4,7.9c0-0.1,0.2,0.2,0.3,0.4c0.7,0.9,1.5,1.7,2.5,2.3
			c0.3,0.2,0.7,0.5,0.7,0.5C304.3,315.2,309,311.4,311.3,306z"/>
	</g>
</g>
<g>
	<g>
		<path d="M18.9,19.5c-2-3.5-2.6-7.5-2-11.2c0,0-0.2,0-0.3,0.1c-1.4,0.3-2.7,0.9-3.9,1.6c-0.3,0.2-0.7,0.5-0.6,0.4
			c-0.8,4.5,0.2,9.4,3.2,13.3C16.7,22.6,17.9,21.1,18.9,19.5z"/>
		<path d="M10.9,11.4c0,0-0.4,0.4-0.7,0.7c-2,2.2-3.2,5.2-3.2,8.4c0,2.2,0.5,4.2,1.5,6c0.1,0.3,0.4,0.6,0.3,0.5
			c2-0.5,3.9-1.4,5.6-2.6C11.6,20.5,10.4,15.9,10.9,11.4z"/>
		<path d="M32,19.1c-0.1-0.5-0.2-1-0.1-0.8c-3.6-3.4-8.6-5.2-13.9-4.6c0.3,1.8,0.9,3.6,1.9,5.3c4.6,0.1,8.7,1.9,11.8,4.8
			c0,0.1,0.1-0.3,0.1-0.6c0.2-0.9,0.3-1.8,0.3-2.7C32.1,20,32.1,19.5,32,19.1z"/>
		<path d="M31.4,16.5c0,0.1-0.1-0.4-0.3-0.7C29.2,11.2,24.7,8,19.5,8c-0.4,0-0.8,0-1.2,0.1c-0.2,0-0.4,0-0.3,0
			c-0.3,1.5-0.3,3.1-0.2,4.6C22.8,12,27.6,13.5,31.4,16.5z"/>
		<path d="M14.3,32c-0.1,0,0.2,0.1,0.3,0.2c1.5,0.6,3.2,1,4.9,1c5.2,0,9.7-3.2,11.5-7.7c0.1-0.2,0.2-0.5,0.2-0.4
			c-1.4-1.4-3.1-2.6-5-3.5C24,26.7,19.5,30.6,14.3,32z"/>
		<path d="M25.3,21c-1.7-0.6-3.6-1-5.5-1c-2.4,4-6.2,6.7-10.4,7.9c0-0.1,0.2,0.2,0.3,0.4c0.7,0.9,1.5,1.7,2.5,2.3
			c0.3,0.2,0.7,0.5,0.7,0.5C18.3,30.2,23,26.4,25.3,21z"/>
	</g>
</g>
</svg>
