<?xml version="1.0" encoding="utf-8"?>
<!-- Generator: Adobe Illustrator 19.2.1, SVG Export Plug-In . SVG Version: 6.00 Build 0)  -->
<svg version="1.1" id="Layer_1" xmlns="http://www.w3.org/2000/svg" xmlns:xlink="http://www.w3.org/1999/xlink" x="0px" y="0px"
	 viewBox="0 0 40 40" style="enable-background:new 0 0 40 40;" xml:space="preserve">
<path d="M19.7,8C12.7,8,7,13.7,7,20.7s5.7,12.7,12.7,12.7s12.7-5.7,12.7-12.7S26.6,8,19.7,8z M23.8,25L23.8,25l1.7-5.1l0.1-0.3
	l1.7-0.6l2.6,3.1l-1.1,3.5l-3.9,1L24.5,26L23.8,25z M20.4,12.8l3.7-1.5l3,2.1l-0.3,4l-2,0.6l-4.3-3.1l-0.1-0.1V12.8z M15.2,11.3
	l3.7,1.5v2.1l-0.1,0.1L14.4,18l-2-0.6l-0.3-4L15.2,11.3z M16.6,26.2l0.1-0.2h5.9l1,1.4l-2.1,3.4l-3.7,0l-2.1-3.4L16.6,26.2z
	 M12,18.9l1.7,0.6l0.1,0.3l1.6,5.1l0,0.1l-1.1,1.5l-3.9-1L9.4,22L12,18.9z"/>
</svg>
