<?xml version="1.0" encoding="utf-8"?>
<!-- Generator: Adobe Illustrator 19.2.1, SVG Export Plug-In . SVG Version: 6.00 Build 0)  -->
<svg version="1.1" id="Layer_1" xmlns="http://www.w3.org/2000/svg" xmlns:xlink="http://www.w3.org/1999/xlink" x="0px" y="0px"
	 viewBox="0 0 40 40" style="enable-background:new 0 0 40 40;" xml:space="preserve">
<g>
	<path d="M12.2,19.5c0.1,0.4-0.1,2-0.3,3.9h3l4.7-9.9l-4.3-4.4c0,0-4.9,1-5.6,1.6c-0.7,0.6-2.9,5-2.9,5s-0.4,0.5,0,1.3
		c0.4,0.7,1.7,3,2.2,3c0.5,0,2.7-1,2.7-1S12.1,18.8,12.2,19.5z"/>
	<path d="M27,24.4H11.5c-0.1,0.9-0.2,1.8-0.3,2.7h4.6l-1.8,1.8c-0.5,0.5-0.5,1.3,0,1.8c0.2,0.2,0.6,0.4,0.9,0.4s0.6-0.1,0.9-0.4
		l3.4-3.4l3.4,3.4c0.2,0.2,0.6,0.4,0.9,0.4s0.6-0.1,0.9-0.4c0.5-0.5,0.5-1.3,0-1.8l-1.8-1.8h4.8C27.2,26.2,27.1,25.3,27,24.4z"/>
	<path d="M31.5,15.7c0,0-2.1-4.5-2.7-5c-0.6-0.5-4.9-1.6-5.5-1.7l-6.8,14.4h10.2c-0.2-1.9-0.4-3.6-0.3-3.9c0.1-0.7,0.6-0.6,0.6-0.6
		s2.1,1,2.5,1c0.5,0,1.7-2.2,2.1-3C31.9,16.2,31.5,15.7,31.5,15.7z"/>
	<polygon points="21.9,8.8 17,8.9 20.2,12.3 	"/>
</g>
</svg>
