<?xml version="1.0" encoding="utf-8"?>
<!-- Generator: Adobe Illustrator 19.2.1, SVG Export Plug-In . SVG Version: 6.00 Build 0)  -->
<svg version="1.1" id="Layer_1" xmlns="http://www.w3.org/2000/svg" xmlns:xlink="http://www.w3.org/1999/xlink" x="0px" y="0px"
	 viewBox="0 0 50 50" style="enable-background:new 0 0 50 50;" xml:space="preserve">
<style type="text/css">
	.st0{fill:none;stroke:#000000;stroke-width:1.5;stroke-linecap:round;stroke-linejoin:round;stroke-miterlimit:10;}
</style>
<ellipse transform="matrix(0.4132 -0.9106 0.9106 0.4132 -1.7272 30.2731)" class="st0" cx="22.6" cy="16.5" rx="3.4" ry="3.4"/>
<path class="st0" d="M27.1,38.3c-4.5-3.3-6.2-7.1-6.7-8.5c0.1-0.1,2.3-4.8,2.3-4.8s1,0.6,1.1,1.4c0.4,2.2,0.3,3.9,0.6,5
	c0.4,1.1,2.8,1.1,2.8-0.3c0-0.3,0.4-1.9-0.1-4.9c-0.9-5.5-3.8-5.8-4.4-5.8c-0.2,0-3-1.4-3.2-1.6c0,0-2.1-2.3-1.6-4.3
	c0.6-2.3,2.8-2.8,2.9-2.9c1.1-0.2,1.8-1.3,1.5-2.4c-0.2-1.1-1.3-1.8-2.4-1.6c-0.2,0-4.7,1-6,5.7c-1.1,4,2,7.5,2.6,8c0,0,0,0,0,0
	l-2.2,4.9c-0.6,0.7-6.7,7.8-4,14.3c0.3,0.8,1.1,1.3,1.9,1.3c0.2,0,0.5,0,0.7-0.1c1-0.4,1.5-1.6,1.1-2.6c-1.1-2.7,0.4-6,1.8-8.2
	c0.1,0,0.7,0.3,0.9,0.4c0.9,2.5,3.4,6.8,8.1,10.2c0.4,0.3,0.8,0.4,1.2,0.4c0.6,0,1.2-0.3,1.6-0.8C28.2,40.2,28,39,27.1,38.3z"/>
<path class="st0" d="M31.6,29"/>
<ellipse transform="matrix(0.4132 -0.9106 0.9106 0.4132 4.1537 39.3993)" class="st0" cx="32.6" cy="16.5" rx="3.4" ry="3.4"/>
<path class="st0" d="M26.9,31.7c0.9,2.5,3.3,6.4,7.9,9.8c0.4,0.3,0.8,0.4,1.2,0.4c0.6,0,1.2-0.3,1.6-0.8c0.7-0.9,0.5-2.1-0.4-2.8
	c-4.5-3.3-6.2-7.1-6.7-8.5c0.1-0.1,2.3-4.8,2.3-4.8s1,0.6,1.1,1.4c0.4,2.2,0.3,3.9,0.6,5c0.4,1.1,2.8,1.1,2.8-0.3
	c0-0.3,0.4-1.9-0.1-4.9c-0.9-5.5-3.8-5.8-4.4-5.8c-0.2,0-3-1.4-3.2-1.6c0,0-2.1-2.3-1.6-4.3c0.6-2.3,2.8-2.8,2.9-2.9
	c1.1-0.2,1.8-1.3,1.5-2.4c-0.2-1.1-1.3-1.8-2.4-1.6c-0.2,0-4.7,1-6,5.7"/>
<path class="st0" d="M26,13.4"/>
<path class="st0" d="M42.6,29"/>
</svg>
