<?xml version="1.0" encoding="utf-8"?>
<!-- Generator: Adobe Illustrator 21.0.2, SVG Export Plug-In . SVG Version: 6.00 Build 0)  -->
<svg version="1.1" id="Layer_1" xmlns="http://www.w3.org/2000/svg" xmlns:xlink="http://www.w3.org/1999/xlink" x="0px" y="0px"
	 viewBox="0 0 50 50" style="enable-background:new 0 0 50 50;" xml:space="preserve">
<g>
	<path fill="#ffffff" class="st0" d="M25.3,7C18,7,12.1,12.9,12.1,20.2c0,4,1.8,7.8,4.9,10.3l1.6,4.8h13.2l1.7-4.8c3.1-2.5,5-6.3,5-10.3
		C38.5,12.9,32.6,7,25.3,7z M31.1,28.1l-0.4,0.3L29.5,32H27v-5.5l3-3c0.7-0.7,0.7-1.7,0-2.4c-0.7-0.7-1.7-0.7-2.4,0l-2.1,2.1
		l-2.4-2.4c-0.7-0.7-1.7-0.7-2.4,0s-0.7,1.7,0,2.4l2.8,2.8V32H21l-1.2-3.5l-0.4-0.3c-2.6-1.9-4-4.8-4-7.9c0-5.4,4.4-9.9,9.9-9.9
		c5.4,0,9.9,4.4,9.9,9.9C35.2,23.4,33.7,26.3,31.1,28.1z"/>
	<path fill="#ffffff" class="st0" d="M25.2,43c4,0,5.6-1.3,6.2-5.2H19.1C19.6,41.7,21.2,43,25.2,43z"/>
</g>
</svg>
