<?xml version="1.0" encoding="UTF-8" standalone="no"?>
<!-- Generator: Adobe Illustrator 21.0.2, SVG Export Plug-In . SVG Version: 6.00 Build 0)  -->

<svg
   xmlns:dc="http://purl.org/dc/elements/1.1/"
   xmlns:cc="http://creativecommons.org/ns#"
   xmlns:rdf="http://www.w3.org/1999/02/22-rdf-syntax-ns#"
   xmlns:svg="http://www.w3.org/2000/svg"
   xmlns="http://www.w3.org/2000/svg"
   xmlns:sodipodi="http://sodipodi.sourceforge.net/DTD/sodipodi-0.dtd"
   xmlns:inkscape="http://www.inkscape.org/namespaces/inkscape"
   version="1.1"
   id="Layer_1"
   x="0px"
   y="0px"
   viewBox="0 0 38 40"
   xml:space="preserve"
   inkscape:version="0.91 r13725"
   sodipodi:docname="icon-hint-modal.svg"
   width="38"
   height="40"><metadata
     id="metadata13"><rdf:RDF><cc:Work
         rdf:about=""><dc:format>image/svg+xml</dc:format><dc:type
           rdf:resource="http://purl.org/dc/dcmitype/StillImage" /><dc:title></dc:title></cc:Work></rdf:RDF></metadata><defs
     id="defs11" /><sodipodi:namedview
     pagecolor="#ffffff"
     bordercolor="#666666"
     borderopacity="1"
     objecttolerance="10"
     gridtolerance="10"
     guidetolerance="10"
     inkscape:pageopacity="0"
     inkscape:pageshadow="2"
     inkscape:window-width="2450"
     inkscape:window-height="1405"
     id="namedview9"
     showgrid="false"
     fit-margin-top="1"
     fit-margin-left="5"
     fit-margin-right="5"
     fit-margin-bottom="1"
     inkscape:zoom="4.72"
     inkscape:cx="17.899999"
     inkscape:cy="19.00001"
     inkscape:window-x="0"
     inkscape:window-y="0"
     inkscape:window-maximized="0"
     inkscape:current-layer="Layer_1" /><g
     id="g3"
     transform="matrix(1.0606061,0,0,1.0555556,-7.8333338,-6.3888892)"><path
       class="st0"
       d="M 25.3,7 C 18,7 12.1,12.9 12.1,20.2 c 0,4 1.8,7.8 4.9,10.3 l 1.6,4.8 13.2,0 1.7,-4.8 c 3.1,-2.5 5,-6.3 5,-10.3 C 38.5,12.9 32.6,7 25.3,7 Z m 5.8,21.1 -0.4,0.3 -1.2,3.6 -2.5,0 0,-5.5 3,-3 c 0.7,-0.7 0.7,-1.7 0,-2.4 -0.7,-0.7 -1.7,-0.7 -2.4,0 l -2.1,2.1 -2.4,-2.4 c -0.7,-0.7 -1.7,-0.7 -2.4,0 -0.7,0.7 -0.7,1.7 0,2.4 l 2.8,2.8 0,6 -2.5,0 -1.2,-3.5 -0.4,-0.3 c -2.6,-1.9 -4,-4.8 -4,-7.9 0,-5.4 4.4,-9.9 9.9,-9.9 5.4,0 9.9,4.4 9.9,9.9 0,3.1 -1.5,6 -4.1,7.8 z"
       id="path5"
       inkscape:connector-curvature="0"
       style="fill:#006b6b" /><path
       class="st0"
       d="m 25.2,43 c 4,0 5.6,-1.3 6.2,-5.2 l -12.3,0 c 0.5,3.9 2.1,5.2 6.1,5.2 z"
       id="path7"
       inkscape:connector-curvature="0"
       style="fill:#006b6b" /></g></svg>