<?xml version="1.0" encoding="utf-8"?>
<!-- Generator: Adobe Illustrator 24.0.1, SVG Export Plug-In . SVG Version: 6.00 Build 0)  -->
<svg version="1.1" id="Layer_1" xmlns="http://www.w3.org/2000/svg" xmlns:xlink="http://www.w3.org/1999/xlink" x="0px" y="0px"
	 viewBox="0 0 75.6 75.6" style="enable-background:new 0 0 75.6 75.6;" xml:space="preserve">
<path d="M0,0v75.6h75.6V0H0z M54,3.6V18H39.6V3.6H54z M18,36H3.6V21.6H18V36z M21.6,21.6H36V36H21.6V21.6z M18,39.6V54H3.6V39.6H18z
	 M21.6,39.6H36V54H21.6V39.6z M39.6,39.6H54V54H39.6V39.6z M57.6,39.6H72V54H57.6V39.6z M57.6,36V21.6H72V36H57.6z M54,36H39.6V21.6
	H54V36z M36,3.6V18H21.6V3.6H36z M18,3.6V18H3.6V3.6H18z M3.6,72V57.6H18V72H3.6z M21.6,72V57.6H36V72H21.6z M39.6,72V57.6H54V72
	H39.6z M57.6,72V57.6H72V72H57.6z M72,18H57.6V3.6H72V18z"/>
</svg>
