<?xml version="1.0" encoding="utf-8"?>
<!-- Generator: Adobe Illustrator 24.0.1, SVG Export Plug-In . SVG Version: 6.00 Build 0)  -->
<svg version="1.1" id="Layer_1" xmlns="http://www.w3.org/2000/svg" xmlns:xlink="http://www.w3.org/1999/xlink" x="0px" y="0px"
	 viewBox="0 0 75.6 75.6" style="enable-background:new 0 0 75.6 75.6;" xml:space="preserve">
<g>
	<rect width="3.6" height="3.6"/>
	<rect x="7.2" width="3.6" height="3.6"/>
	<rect x="14.4" width="3.6" height="3.6"/>
	<rect x="21.6" width="3.6" height="3.6"/>
	<rect x="28.8" width="3.6" height="3.6"/>
	<rect x="36" width="3.6" height="3.6"/>
	<rect x="43.2" width="3.6" height="3.6"/>
	<rect y="72" width="3.6" height="3.6"/>
	<rect x="7.2" y="72" width="3.6" height="3.6"/>
	<rect x="14.4" y="72" width="3.6" height="3.6"/>
	<rect x="21.6" y="72" width="3.6" height="3.6"/>
	<rect x="28.8" y="72" width="3.6" height="3.6"/>
	<rect x="36" y="72" width="3.6" height="3.6"/>
	<rect x="43.2" y="72" width="3.6" height="3.6"/>
	<rect x="50.4" y="72" width="3.6" height="3.6"/>
	<rect x="57.6" y="72" width="3.6" height="3.6"/>
	<rect x="64.8" y="72" width="3.6" height="3.6"/>
	<rect x="72" y="72" width="3.6" height="3.6"/>
	<rect y="7.2" width="3.6" height="3.6"/>
	<rect y="14.4" width="3.6" height="3.6"/>
	<rect y="21.6" width="3.6" height="3.6"/>
	<rect y="28.8" width="3.6" height="3.6"/>
	<rect y="36" width="3.6" height="3.6"/>
	<rect y="43.2" width="3.6" height="3.6"/>
	<rect y="50.4" width="3.6" height="3.6"/>
	<rect y="57.6" width="3.6" height="3.6"/>
	<rect y="64.8" width="3.6" height="3.6"/>
	<rect x="72" y="36" width="3.6" height="3.6"/>
	<rect x="72" y="43.2" width="3.6" height="3.6"/>
	<rect x="72" y="50.4" width="3.6" height="3.6"/>
	<rect x="72" y="57.6" width="3.6" height="3.6"/>
	<rect x="72" y="64.8" width="3.6" height="3.6"/>
	<rect x="50.4" y="36" width="3.6" height="3.6"/>
	<rect x="50.4" y="43.2" width="3.6" height="3.6"/>
	<rect x="50.4" y="50.4" width="3.6" height="3.6"/>
	<rect x="50.4" y="57.6" width="3.6" height="3.6"/>
	<rect x="50.4" y="64.8" width="3.6" height="3.6"/>
	<rect x="57.6" y="7.2" width="10.8" height="10.8"/>
	<rect x="57.6" y="21.6" width="10.8" height="3.6"/>
	<path d="M50.4,0v32.4h25.2V0H50.4z M72,28.8H54V3.6h18V28.8z"/>
</g>
</svg>
