<?xml version="1.0" encoding="utf-8"?>
<!-- Generator: Adobe Illustrator 19.2.1, SVG Export Plug-In . SVG Version: 6.00 Build 0)  -->
<svg version="1.1" id="Layer_1" xmlns="http://www.w3.org/2000/svg" xmlns:xlink="http://www.w3.org/1999/xlink" x="0px" y="0px"
	 viewBox="0 0 50 50" style="enable-background:new 0 0 50 50;" xml:space="preserve">
<style type="text/css">
	.st0{fill:url(#SVGID_1_);}
	.st1{fill:#00A092;}
	.st2{fill:url(#SVGID_2_);}
	.st3{fill:#F59C00;}
	.st4{fill:#009D8B;}
</style>
<g>
	
		<radialGradient id="SVGID_1_" cx="611.0632" cy="-69.3811" r="13.2868" gradientTransform="matrix(1.6005 0 0 1.6005 -954.2447 116.6547)" gradientUnits="userSpaceOnUse">
		<stop  offset="0" style="stop-color:#4BBECF"/>
		<stop  offset="0.5769" style="stop-color:#00A295"/>
		<stop  offset="1" style="stop-color:#00856E"/>
	</radialGradient>
	<path class="st0" d="M40.9,9.6H29.4c-0.9,0-1.5,0.7-1.5,1.5c0,0.3,0.1,0.5,0.2,0.7l5.8,10c0.3,0.5,0.8,0.8,1.3,0.8
		c0.6,0,1.1-0.3,1.3-0.8l5.8-10c0.1-0.2,0.2-0.5,0.2-0.7C42.5,10.3,41.8,9.6,40.9,9.6z"/>
	<path class="st1" d="M43.3,10.5c0-0.5,0.4-0.8,0.8-0.8l0,0c0.5,0,0.8,0.4,0.8,0.8l0,0c0,0.5-0.4,0.8-0.8,0.8l0,0
		C43.7,11.3,43.3,10.9,43.3,10.5L43.3,10.5z M43.5,10.5c0,0.4,0.3,0.7,0.7,0.7l0,0c0.4,0,0.7-0.3,0.7-0.7l0,0c0-0.4-0.3-0.7-0.7-0.7
		l0,0C43.8,9.8,43.5,10.1,43.5,10.5L43.5,10.5z"/>
	<g>
		<path class="st1" d="M44.5,10.9L44.5,10.9c-0.1,0-0.1,0-0.2,0l-0.2-0.3H44v0.3c0,0,0,0,0,0h-0.1c0,0-0.1,0-0.1,0v-0.8
			c0,0,0,0,0.1,0h0.2c0.1,0,0.2,0,0.2,0.1c0,0,0.1,0.1,0.1,0.2c0,0.1-0.1,0.2-0.2,0.2L44.5,10.9C44.5,10.9,44.5,10.9,44.5,10.9z
			 M44.3,10.2c0,0-0.2,0-0.2,0v0.3h0.2c0.1,0,0.1,0,0.1,0c0,0,0,0,0-0.1C44.3,10.2,44.3,10.2,44.3,10.2z"/>
	</g>
	
		<radialGradient id="SVGID_2_" cx="600.8024" cy="-66.8937" r="27.3472" gradientTransform="matrix(1.6005 0 0 1.6005 -954.2447 116.6547)" gradientUnits="userSpaceOnUse">
		<stop  offset="0" style="stop-color:#F9B000"/>
		<stop  offset="0.1906" style="stop-color:#F9AE00"/>
		<stop  offset="0.3539" style="stop-color:#F7A500"/>
		<stop  offset="0.5072" style="stop-color:#F49700"/>
		<stop  offset="0.6536" style="stop-color:#F08300"/>
		<stop  offset="0.7477" style="stop-color:#EE7203"/>
		<stop  offset="0.8205" style="stop-color:#EB6D07"/>
		<stop  offset="0.9087" style="stop-color:#E35F0F"/>
		<stop  offset="0.9835" style="stop-color:#D94D15"/>
	</radialGradient>
	<path class="st2" d="M23,23.8C23,23.9,23,23.9,23,23.8L23,23.8L23,23.8z M33.2,24l-0.1-0.1L26,11.6l-0.1-0.2
		c-0.6-1-1.8-1.7-3.1-1.7h-5.9c-0.7,0-1.2,0.5-1.2,1.2c0,0.2,0,0.4,0.1,0.6L23,23.9c0.3,0.6,0.5,1.2,0.5,1.9c0,0.7-0.2,1.3-0.5,1.9
		l-6.3,10.8c-0.1,0.2-0.1,0.4-0.1,0.6c0,0.7,0.5,1.2,1.2,1.2h6c1.3,0,2.5-0.6,3.1-1.7l0.1-0.2l6-10.4l0.1-0.2
		c0.3-0.5,0.4-1.1,0.4-1.8C33.7,25.2,33.5,24.6,33.2,24z"/>
	<path class="st3" d="M16.6,29.1c-0.1,0-0.2,0-0.3,0.1c-0.3,0.1-0.7,0.1-1.1,0.1c-0.2,0-0.4,0-0.5-0.1c-0.3-0.1-0.3-0.5-0.3-0.9h2.2
		c0.3,0,0.4-0.1,0.4-0.6c0-0.6-0.1-1.2-0.3-1.6c-0.3-0.4-0.7-0.6-1.5-0.6c-0.8,0-1.3,0.2-1.6,0.6c-0.3,0.4-0.4,0.9-0.4,1.7
		c0,0.9,0.1,1.5,0.5,1.9c0.3,0.3,0.8,0.4,1.5,0.4c0.4,0,0.9,0,1.4-0.1c0.3,0,0.3-0.2,0.3-0.4c0-0.1,0-0.2,0-0.3
		C16.8,29.2,16.7,29.1,16.6,29.1z M14.3,27.4c0-0.7,0.1-0.9,0.8-0.9c0.6,0,0.7,0.2,0.7,0.8c0,0,0,0.1,0,0.2L14.3,27.4L14.3,27.4z
		 M11,25.5c-0.5,0-0.9,0.2-1.2,0.3v-1.7c0-0.2-0.1-0.4-0.4-0.4H9c-0.3,0-0.4,0.1-0.4,0.4v5.5c0,0.2,0.1,0.4,0.3,0.4h0.5
		c0.3,0,0.4-0.2,0.4-0.4v-2.1c0-0.7,0.1-0.9,0.8-0.9c0.6,0,0.7,0.2,0.7,0.8c0,0,0,0.1,0,0.2h0c0,0.1,0,0.2,0,0.3v1.7
		c0,0.3,0.1,0.4,0.3,0.4H12c0.3,0,0.4-0.2,0.4-0.4v-2.8C12.4,26.2,12.1,25.5,11,25.5z"/>
	<g>
		<path class="st3" d="M7.6,26.6h-1v1.8c0,0.4,0,0.6,0.1,0.7c0,0,0.1,0.1,0.1,0.1c0.3,0,0.5-0.1,0.8-0.1c0.2,0,0.2,0.2,0.2,0.3v0.3
			c0,0.3-0.1,0.4-0.4,0.5c-0.3,0-0.5,0-0.8,0c-1,0-1.2-0.4-1.2-1.4v-2.1H5.2C5,26.6,5,26.5,5,26.4V26c0-0.2,0.1-0.3,0.2-0.3h0.2
			v-0.7c0-0.3,0.1-0.4,0.4-0.4h0.4c0.3,0,0.4,0.2,0.4,0.4v0.7h0.9c0.2,0,0.3,0,0.3,0.3v0.3C7.9,26.6,7.8,26.6,7.6,26.6z"/>
	</g>
	<path class="st4" d="M29.2,37.3l0.7,1.2l0.7,0.4c0.1,0.1,0.1,0.1,0.1,0.2l-0.1,0.1c-0.1,0.1-0.1,0.1-0.2,0.1l-0.6-0.4l-1.5,0
		c0,0-0.1,0-0.1,0c-0.1,0-0.1-0.1,0-0.2l0.1-0.2c0.1-0.1,0.1-0.1,0.2-0.1l1,0l-0.5-0.9c0-0.1-0.1-0.1,0-0.2l0.1-0.1
		c0-0.1,0.1-0.1,0.2-0.1C29.1,37.2,29.2,37.3,29.2,37.3z"/>
	<path class="st4" d="M32.3,36.2l-0.1,0.1c-0.1,0.1-0.1,0.1-0.2,0.1l-1.3-0.6c0.1,0.1,0.1,0.1,0.2,0.2c0.2,0.3,0.5,0.6,0.6,0.7
		c0.1,0.1,0.1,0.1,0,0.2l0,0.1c-0.1,0.1-0.1,0.1-0.2,0.1c-0.2,0-0.6-0.1-1-0.2c-0.1,0-0.2,0-0.3-0.1l1.2,0.8
		c0.1,0.1,0.1,0.1,0.1,0.2L31.2,38c-0.1,0.1-0.1,0.1-0.2,0.1l-1.7-1.2c-0.1-0.1-0.1-0.1,0-0.2l0.1-0.2c0-0.1,0.1-0.1,0.2-0.1
		c0.4,0,1,0.2,1.4,0.3c-0.3-0.4-0.7-0.8-0.9-1.1c-0.1-0.1-0.1-0.1,0-0.2l0.1-0.2c0-0.1,0.1-0.1,0.2-0.1l1.9,0.9
		C32.4,36,32.3,36.1,32.3,36.2z"/>
	<path class="st4" d="M33.3,34.6c-0.1,0.1-0.1,0.2-0.2,0.4c-0.1,0.1-0.2,0.2-0.2,0.3c-0.4,0.4-0.8,0.3-1.3-0.1
		c-0.9-0.5-0.9-0.9-0.6-1.5c0.1-0.1,0.1-0.2,0.2-0.3c0.1-0.1,0.1-0.1,0.2-0.1l0.1,0.1c0.1,0.1,0.1,0.1,0.1,0.2
		c-0.1,0.1-0.1,0.2-0.2,0.3c-0.1,0.1-0.1,0.3-0.2,0.4c0,0.2,0.2,0.4,0.6,0.6c0.3,0.2,0.6,0.3,0.8,0.1c0-0.1,0.1-0.1,0.2-0.2
		c0.1-0.2,0.1-0.2,0.2-0.3c0.1-0.1,0.1-0.1,0.2,0l0.1,0.1C33.3,34.4,33.3,34.4,33.3,34.6z"/>
	<path class="st4" d="M34.4,32.5l-0.1,0.2c-0.1,0.1-0.1,0.1-0.2,0.1l-0.5-0.1c-0.1,0.1-0.1,0.2-0.2,0.4c-0.1,0.1-0.1,0.2-0.2,0.4
		l0.3,0.3c0.1,0.1,0.1,0.1,0,0.2l-0.1,0.1c-0.1,0.1-0.1,0.1-0.1,0.1c0,0,0,0-0.1-0.1l-1.4-1.7c-0.1-0.1-0.1-0.1,0-0.3l0.1-0.1
		C32,32,32,32,32.1,32l2.2,0.4c0,0,0,0,0.1,0C34.4,32.4,34.4,32.5,34.4,32.5z M32.4,32.5l0.6,0.7c0-0.1,0.1-0.2,0.1-0.2
		c0.1-0.1,0.1-0.2,0.1-0.2L32.4,32.5z"/>
</g>
</svg>
