<?xml version="1.0" encoding="utf-8"?>
<!-- Generator: Adobe Illustrator 19.2.1, SVG Export Plug-In . SVG Version: 6.00 Build 0)  -->
<svg version="1.1" id="Layer_1" xmlns="http://www.w3.org/2000/svg" xmlns:xlink="http://www.w3.org/1999/xlink" x="0px" y="0px"
	 viewBox="0 0 50 50" style="enable-background:new 0 0 50 50;" xml:space="preserve">
<style type="text/css">
	.st0{fill:#008BD2;}
	.st1{fill:url(#SVGID_1_);}
	.st2{fill:#00A696;}
	.st3{fill:url(#SVGID_2_);}
</style>
<g>
	<g>
		<g>
			<path class="st0" d="M43.3,10.6c0-0.5,0.4-0.8,0.8-0.8l0,0c0.5,0,0.8,0.4,0.8,0.8l0,0c0,0.5-0.4,0.8-0.8,0.8l0,0
				C43.7,11.4,43.3,11,43.3,10.6L43.3,10.6z M43.5,10.6c0,0.4,0.3,0.7,0.7,0.7l0,0c0.4,0,0.7-0.3,0.7-0.7l0,0c0-0.4-0.3-0.7-0.7-0.7
				l0,0C43.8,9.9,43.5,10.2,43.5,10.6L43.5,10.6z"/>
			<g>
				<path class="st0" d="M44.5,11L44.5,11c-0.1,0-0.1,0-0.2,0l-0.2-0.3H44v0.3c0,0,0,0,0,0h-0.1c0,0-0.1,0-0.1,0v-0.8c0,0,0,0,0.1,0
					h0.2c0.1,0,0.2,0,0.2,0.1c0,0,0.1,0.1,0.1,0.2c0,0.1-0.1,0.2-0.2,0.2L44.5,11C44.5,10.9,44.5,11,44.5,11z M44.3,10.3
					c0,0-0.2,0-0.2,0v0.3h0.2c0.1,0,0.1,0,0.1,0c0,0,0,0,0-0.1C44.3,10.3,44.3,10.3,44.3,10.3z"/>
			</g>
		</g>
		<g>
			
				<radialGradient id="SVGID_1_" cx="296.5532" cy="-100.2755" r="210.177" gradientTransform="matrix(0.2223 0 0 0.2223 -52.9557 37.7296)" gradientUnits="userSpaceOnUse">
				<stop  offset="0" style="stop-color:#31B7BC"/>
				<stop  offset="0.1899" style="stop-color:#00ACA9"/>
				<stop  offset="0.4417" style="stop-color:#009D8B"/>
				<stop  offset="1" style="stop-color:#005B5B"/>
			</radialGradient>
			<path class="st1" d="M23,23.9C23,23.9,23,23.9,23,23.9L23,23.9L23,23.9z M33.2,24.1L33.1,24L26,11.6l-0.1-0.2
				c-0.6-1-1.8-1.7-3.1-1.7h-5.9c-0.7,0-1.2,0.5-1.2,1.2c0,0.2,0,0.4,0.1,0.6L23,23.9c0.3,0.6,0.5,1.2,0.5,1.9
				c0,0.7-0.2,1.3-0.5,1.9l-6.3,10.8c-0.1,0.2-0.1,0.4-0.1,0.6c0,0.7,0.5,1.2,1.2,1.2h6c1.3,0,2.5-0.6,3.1-1.7l0.1-0.2l6-10.4
				l0.1-0.2c0.3-0.5,0.4-1.1,0.4-1.8C33.7,25.3,33.5,24.7,33.2,24.1z"/>
		</g>
		<g>
			<path class="st2" d="M16.6,29.2c-0.1,0-0.2,0-0.3,0.1c-0.3,0.1-0.7,0.1-1.1,0.1c-0.2,0-0.4,0-0.5-0.1c-0.3-0.1-0.3-0.5-0.3-0.9
				h2.2c0.3,0,0.4-0.1,0.4-0.6c0-0.6-0.1-1.2-0.3-1.6c-0.3-0.4-0.7-0.6-1.5-0.6c-0.8,0-1.3,0.2-1.6,0.6c-0.3,0.4-0.4,0.9-0.4,1.7
				c0,0.9,0.1,1.5,0.5,1.9c0.3,0.3,0.8,0.4,1.5,0.4c0.4,0,0.9,0,1.4-0.1c0.3,0,0.3-0.2,0.3-0.4c0-0.1,0-0.2,0-0.3
				C16.8,29.3,16.7,29.2,16.6,29.2z M14.3,27.4c0-0.7,0.1-0.9,0.8-0.9c0.6,0,0.7,0.2,0.7,0.8c0,0,0,0.1,0,0.2L14.3,27.4L14.3,27.4z
				 M11,25.6c-0.5,0-0.9,0.2-1.2,0.3v-1.7c0-0.2-0.1-0.4-0.4-0.4H9c-0.3,0-0.4,0.1-0.4,0.4v5.5c0,0.2,0.1,0.4,0.3,0.4h0.5
				c0.3,0,0.4-0.2,0.4-0.4v-2.1c0-0.7,0.1-0.9,0.8-0.9c0.6,0,0.7,0.2,0.7,0.8c0,0,0,0.1,0,0.2h0c0,0.1,0,0.2,0,0.3v1.7
				c0,0.3,0.1,0.4,0.3,0.4H12c0.3,0,0.4-0.2,0.4-0.4v-2.8C12.4,26.3,12.1,25.6,11,25.6z"/>
			<g>
				<path class="st2" d="M7.6,26.7h-1v1.8c0,0.4,0,0.6,0.1,0.7c0,0,0.1,0.1,0.1,0.1c0.3,0,0.5-0.1,0.8-0.1c0.2,0,0.2,0.2,0.2,0.3
					v0.3c0,0.3-0.1,0.4-0.4,0.5c-0.3,0-0.5,0-0.8,0c-1,0-1.2-0.4-1.2-1.4v-2.1H5.2C5,26.7,5,26.6,5,26.5v-0.4c0-0.2,0.1-0.3,0.2-0.3
					h0.2V25c0-0.3,0.1-0.4,0.4-0.4h0.4c0.3,0,0.4,0.2,0.4,0.4v0.7h0.9c0.2,0,0.3,0,0.3,0.3v0.3C7.9,26.7,7.8,26.7,7.6,26.7z"/>
			</g>
		</g>
		<g>
			<path class="st0" d="M29.2,37.4l0.7,1.2l0.7,0.4c0.1,0.1,0.1,0.1,0.1,0.2l-0.1,0.1c-0.1,0.1-0.1,0.1-0.2,0.1L29.7,39l-1.5,0
				c0,0-0.1,0-0.1,0c-0.1,0-0.1-0.1,0-0.2l0.1-0.2c0.1-0.1,0.1-0.1,0.2-0.1l1,0l-0.5-0.9c0-0.1-0.1-0.1,0-0.2l0.1-0.1
				c0-0.1,0.1-0.1,0.2-0.1C29.1,37.3,29.2,37.4,29.2,37.4z"/>
			<path class="st0" d="M32.3,36.3l-0.1,0.1c-0.1,0.1-0.1,0.1-0.2,0.1l-1.3-0.6c0.1,0.1,0.1,0.2,0.2,0.2c0.2,0.3,0.5,0.6,0.6,0.7
				c0.1,0.1,0.1,0.1,0,0.2l0,0.1c-0.1,0.1-0.1,0.1-0.2,0.1c-0.2,0-0.6-0.1-1-0.2c-0.1,0-0.2,0-0.3-0.1l1.2,0.8
				c0.1,0.1,0.1,0.1,0.1,0.2l-0.1,0.1c-0.1,0.1-0.1,0.1-0.2,0.1L29.3,37c-0.1-0.1-0.1-0.1,0-0.2l0.1-0.2c0.1-0.1,0.1-0.1,0.2-0.1
				c0.4,0,1,0.2,1.4,0.3c-0.3-0.4-0.7-0.8-0.9-1.1c-0.1-0.1-0.1-0.1,0-0.2l0.1-0.2c0-0.1,0.1-0.1,0.2-0.1l1.9,0.9
				C32.4,36.1,32.3,36.2,32.3,36.3z"/>
			<path class="st0" d="M33.3,34.6c-0.1,0.1-0.1,0.2-0.2,0.4c-0.1,0.1-0.2,0.2-0.2,0.3c-0.4,0.4-0.8,0.3-1.3-0.1
				c-0.9-0.5-0.9-0.9-0.6-1.5c0.1-0.1,0.1-0.2,0.2-0.3c0.1-0.1,0.1-0.1,0.2-0.1l0.1,0.1c0.1,0.1,0.1,0.1,0.1,0.2
				c-0.1,0.1-0.1,0.2-0.2,0.3c-0.1,0.1-0.1,0.3-0.2,0.4c0,0.2,0.2,0.4,0.6,0.6c0.3,0.2,0.6,0.3,0.8,0.1c0-0.1,0.1-0.1,0.2-0.2
				c0.1-0.2,0.1-0.2,0.2-0.3c0.1-0.1,0.1-0.1,0.2,0l0.1,0.1C33.3,34.5,33.3,34.5,33.3,34.6z"/>
			<path class="st0" d="M34.4,32.6l-0.1,0.2c-0.1,0.1-0.1,0.1-0.2,0.1l-0.5-0.1c-0.1,0.1-0.1,0.2-0.2,0.4c-0.1,0.1-0.1,0.2-0.2,0.4
				l0.3,0.3c0.1,0.1,0.1,0.1,0,0.2l-0.1,0.1c-0.1,0.1-0.1,0.1-0.1,0.1c0,0-0.1,0-0.1-0.1l-1.4-1.7c-0.1-0.1-0.1-0.1,0-0.3l0.1-0.1
				c0.1-0.1,0.1-0.1,0.2-0.1l2.2,0.4c0,0,0,0,0.1,0C34.4,32.5,34.4,32.6,34.4,32.6z M32.4,32.6l0.6,0.7c0-0.1,0.1-0.2,0.1-0.2
				c0.1-0.1,0.1-0.2,0.1-0.2L32.4,32.6z"/>
		</g>
	</g>
	
		<radialGradient id="SVGID_2_" cx="345.1201" cy="-144.1279" r="95.6665" gradientTransform="matrix(0.2223 0 0 0.2223 -52.9557 37.7296)" gradientUnits="userSpaceOnUse">
		<stop  offset="0" style="stop-color:#009FE3"/>
		<stop  offset="0.6933" style="stop-color:#008BD2"/>
		<stop  offset="1" style="stop-color:#005CA9"/>
	</radialGradient>
	<path class="st3" d="M40.9,9.7H29.4c-0.9,0-1.5,0.7-1.5,1.5c0,0.3,0.1,0.5,0.2,0.7l5.8,10c0.3,0.5,0.8,0.8,1.3,0.8
		c0.6,0,1.1-0.3,1.3-0.8l5.8-10c0.1-0.2,0.2-0.5,0.2-0.7C42.5,10.4,41.8,9.7,40.9,9.7z"/>
</g>
</svg>
