<?xml version="1.0" encoding="UTF-8" standalone="no"?>
<svg
   xmlns:dc="http://purl.org/dc/elements/1.1/"
   xmlns:cc="http://creativecommons.org/ns#"
   xmlns:rdf="http://www.w3.org/1999/02/22-rdf-syntax-ns#"
   xmlns:svg="http://www.w3.org/2000/svg"
   xmlns="http://www.w3.org/2000/svg"
   xmlns:sodipodi="http://sodipodi.sourceforge.net/DTD/sodipodi-0.dtd"
   xmlns:inkscape="http://www.inkscape.org/namespaces/inkscape"
   width="20"
   height="16"
   viewBox="0 0 20 16"
   id="svg2"
   version="1.1"
   inkscape:version="0.91 r13725"
   sodipodi:docname="icon-twitter.svg">
  <metadata
     id="metadata10">
    <rdf:RDF>
      <cc:Work
         rdf:about="">
        <dc:format>image/svg+xml</dc:format>
        <dc:type
           rdf:resource="http://purl.org/dc/dcmitype/StillImage" />
        <dc:title></dc:title>
      </cc:Work>
    </rdf:RDF>
  </metadata>
  <defs
     id="defs8" />
  <sodipodi:namedview
     pagecolor="#ffffff"
     bordercolor="#666666"
     borderopacity="1"
     objecttolerance="10"
     gridtolerance="10"
     guidetolerance="10"
     inkscape:pageopacity="0"
     inkscape:pageshadow="2"
     inkscape:window-width="1920"
     inkscape:window-height="1031"
     id="namedview6"
     showgrid="false"
     fit-margin-top="0"
     fit-margin-left="0"
     fit-margin-right="0"
     fit-margin-bottom="0"
     inkscape:zoom="11.9198"
     inkscape:cx="47.422306"
     inkscape:cy="13.093606"
     inkscape:window-x="0"
     inkscape:window-y="25"
     inkscape:window-maximized="1"
     inkscape:current-layer="svg2" />
  <path
     d="m 20,1.8998198 q -0.850254,1.224997 -2.055837,2.0875095 0.01269,0.1750635 0.01269,0.5250115 0,1.6250014 -0.482234,3.2438242 -0.482234,1.6187332 -1.465735,3.106281 -0.983503,1.487548 -2.341371,2.631236 -1.357869,1.143778 -3.274112,1.825049 Q 8.4771574,16 6.2944163,16 2.8553299,16 0,14.187489 q 0.44416244,0.05015 0.98984773,0.05015 2.85532987,0 5.08883247,-1.725024 -1.3324873,-0.02508 -2.3857868,-0.806278 -1.0532995,-0.781204 -1.4467005,-1.9937549 0.4187817,0.062686 0.7741116,0.062686 0.5456853,0 1.0786802,-0.137453 Q 2.677665,9.3502729 1.7449238,8.2440146 0.81218275,7.1377564 0.81218275,5.6751924 l 0,-0.050146 Q 1.6751269,6.1000908 2.6649746,6.1375212 1.8274112,5.5875263 1.3324873,4.7000303 0.83756345,3.8125344 0.83756345,2.7750479 q 0,-1.1000795 0.55837565,-2.03754249 1.535533,1.86247899 3.7373096,2.98127369 2.2017767,1.1187948 4.7144668,1.2438018 -0.1015228,-0.4750446 -0.1015228,-0.925016 0,-1.675058 1.1992393,-2.8563562 Q 12.14467,0 13.845177,0 15.621827,0 16.840102,1.2749639 18.22335,1.0125029 19.441625,0.29998093 18.972081,1.7374718 17.639594,2.5250339 18.819797,2.4000269 20,1.8999989 Z"
     id="path4"
     inkscape:connector-curvature="0"
     style="fill:#4f4f4f" />
</svg>
