<?xml version="1.0" encoding="UTF-8" standalone="no"?>
<svg
   xmlns:dc="http://purl.org/dc/elements/1.1/"
   xmlns:cc="http://creativecommons.org/ns#"
   xmlns:rdf="http://www.w3.org/1999/02/22-rdf-syntax-ns#"
   xmlns:svg="http://www.w3.org/2000/svg"
   xmlns="http://www.w3.org/2000/svg"
   xmlns:sodipodi="http://sodipodi.sourceforge.net/DTD/sodipodi-0.dtd"
   xmlns:inkscape="http://www.inkscape.org/namespaces/inkscape"
   width="17.999998"
   height="19.999998"
   viewBox="0 0 17.999999 19.999998"
   id="svg2"
   version="1.1"
   inkscape:version="0.91 r13725"
   sodipodi:docname="icon-youtube.svg">
  <metadata
     id="metadata10">
    <rdf:RDF>
      <cc:Work
         rdf:about="">
        <dc:format>image/svg+xml</dc:format>
        <dc:type
           rdf:resource="http://purl.org/dc/dcmitype/StillImage" />
        <dc:title></dc:title>
      </cc:Work>
    </rdf:RDF>
  </metadata>
  <defs
     id="defs8" />
  <sodipodi:namedview
     pagecolor="#ffffff"
     bordercolor="#666666"
     borderopacity="1"
     objecttolerance="10"
     gridtolerance="10"
     guidetolerance="10"
     inkscape:pageopacity="0"
     inkscape:pageshadow="2"
     inkscape:window-width="1920"
     inkscape:window-height="1031"
     id="namedview6"
     showgrid="false"
     fit-margin-top="0"
     fit-margin-left="0.5"
     fit-margin-right="0.5"
     fit-margin-bottom="0"
     inkscape:zoom="16.857143"
     inkscape:cx="31.394783"
     inkscape:cy="11.3742"
     inkscape:window-x="0"
     inkscape:window-y="25"
     inkscape:window-maximized="1"
     inkscape:current-layer="svg2" />
  <path
     d="m 11.328612,13.884097 0,2.354942 q 0,0.747828 -0.447373,0.747828 -0.263837,0 -0.516189,-0.245549 l 0,-3.359409 q 0.252352,-0.245549 0.516189,-0.245549 0.447373,0 0.447373,0.747737 z m 3.877189,0.01091 0,0.51337 -1.032388,0 0,-0.51337 q 0,-0.75892 0.516189,-0.75892 0.516199,0 0.516199,0.75892 z m -11.0809742,-2.433034 1.2273988,0 0,-1.049196 -3.5789493,0 0,1.049196 1.2044602,0 0,6.350542 1.1470903,0 0,-6.350542 z m 3.3036485,6.350542 1.0209138,0 0,-5.51353 -1.0209138,0 0,4.218785 q -0.3441356,0.468824 -0.6538491,0.468824 -0.2064757,0 -0.2408883,-0.234367 -0.011493,-0.03364 -0.011493,-0.390641 l 0,-4.062601 -1.0209138,0 0,4.363878 q 0,0.546916 0.091755,0.814738 0.1376504,0.413006 0.665323,0.413006 0.5506019,0 1.1700384,-0.680828 l 0,0.602736 z m 4.9210507,-1.651841 0,-2.198666 q 0,-0.814739 -0.103237,-1.104925 -0.195012,-0.625008 -0.814439,-0.625008 -0.57355,0 -1.0668,0.602644 l 0,-2.421942 -1.0209236,0 0,7.399738 1.0209236,0 0,-0.535735 q 0.516189,0.613827 1.0668,0.613827 0.619427,0 0.814439,-0.613827 0.103237,-0.301368 0.103237,-1.116106 z m 3.877189,-0.111638 0,-0.145093 -1.043853,0 q 0,0.56919 -0.02298,0.680828 -0.08026,0.401823 -0.458837,0.401823 -0.527664,0 -0.527664,-0.770101 l 0,-0.971013 2.053302,0 0,-1.149562 q 0,-0.881739 -0.309714,-1.294654 -0.447364,-0.569189 -1.215924,-0.569189 -0.780026,0 -1.2274,0.569189 -0.321187,0.412915 -0.321187,1.294654 l 0,1.930845 q 0,0.881648 0.332661,1.294654 0.447374,0.56919 1.238864,0.56919 0.825912,0 1.238872,-0.591554 0.206477,-0.301368 0.240889,-0.602645 0.02298,-0.100455 0.02298,-0.647372 z M 9.2523626,5.8591698 l 0,-2.3437592 q 0,-0.7701014 -0.4932506,-0.7701014 -0.49326,0 -0.49326,0.7701014 l 0,2.3437592 q 0,0.7812834 0.49326,0.7812834 0.4932506,0 0.4932506,-0.7812834 z M 17.5,14.241011 q 0,2.611581 -0.298248,3.906326 -0.160599,0.658464 -0.665314,1.104925 -0.504725,0.446369 -1.170048,0.51337 -2.110653,0.234367 -6.3663897,0.234367 -4.2557371,0 -6.3663994,-0.234367 -0.6653136,-0.06727 -1.1757753,-0.51337 -0.51046154,-0.446461 -0.65957664,-1.104925 -0.2982489,-1.250017 -0.2982489,-3.906326 0,-2.611672 0.2982489,-3.906326 Q 0.95883805,9.676222 1.4635626,9.229761 1.9682873,8.783301 2.6450749,8.705209 4.7442632,8.482024 9.0000003,8.482024 q 4.2557367,0 6.3663897,0.223185 0.665323,0.07818 1.175775,0.524552 0.510462,0.446461 0.659587,1.104924 Q 17.5,11.584702 17.5,14.241011 Z M 6.051952,-9.5367443e-7 l 1.1700476,0 L 5.8340116,4.4531506 l 0,3.0245867 -1.1470996,0 0,-3.0245867 Q 4.5263135,3.6273212 3.9871763,2.0871184 3.5627509,0.93755725 3.2415634,-9.5367443e-7 l 1.2159249,0 L 5.2719265,2.9353118 Z M 10.296215,3.7165951 l 0,1.9531176 q 0,0.9040123 -0.3211874,1.3170179 -0.4244254,0.5691896 -1.2159156,0.5691896 -0.7685609,0 -1.2044602,-0.5691896 Q 7.2334642,6.5626339 7.2334642,5.6697127 l 0,-1.9531176 q 0,-0.8929212 0.3211876,-1.305836 0.4358993,-0.5691895 1.2044602,-0.5691895 0.7914902,0 1.2159156,0.5691895 0.3211874,0.4129148 0.3211874,1.305836 z m 3.842786,-1.8081155 0,5.5692577 -1.043862,0 0,-0.6138265 q -0.607963,0.6920094 -1.181512,0.6920094 -0.527663,0 -0.676788,-0.4130056 -0.09175,-0.2678218 -0.09175,-0.8370114 l 0,-4.3974236 1.043852,0 0,4.0960558 q 0,0.3682778 0.01149,0.3906417 0.03439,0.2455488 0.240888,0.2455488 0.309722,0 0.653849,-0.4799156 l 0,-4.2523307 1.043862,0 z"
     id="path4"
     inkscape:connector-curvature="0"
     style="fill:#4f4f4f" />
</svg>
