<?xml version="1.0" encoding="UTF-8" standalone="no"?>
<svg
   xmlns:dc="http://purl.org/dc/elements/1.1/"
   xmlns:cc="http://creativecommons.org/ns#"
   xmlns:rdf="http://www.w3.org/1999/02/22-rdf-syntax-ns#"
   xmlns:svg="http://www.w3.org/2000/svg"
   xmlns="http://www.w3.org/2000/svg"
   xmlns:sodipodi="http://sodipodi.sourceforge.net/DTD/sodipodi-0.dtd"
   xmlns:inkscape="http://www.inkscape.org/namespaces/inkscape"
   version="1.1"
   x="0px"
   y="0px"
   viewBox="0 0 50 33.333332"
   xml:space="preserve"
   id="svg2"
   inkscape:version="0.91 r13725"
   sodipodi:docname="noun_99411.svg"
   width="50"
   height="33.333332"><metadata
     id="metadata14"><rdf:RDF><cc:Work
         rdf:about=""><dc:format>image/svg+xml</dc:format><dc:type
           rdf:resource="http://purl.org/dc/dcmitype/StillImage" /><dc:title /></cc:Work></rdf:RDF></metadata><defs
     id="defs12" /><sodipodi:namedview
     pagecolor="#ffffff"
     bordercolor="#666666"
     borderopacity="1"
     objecttolerance="10"
     gridtolerance="10"
     guidetolerance="10"
     inkscape:pageopacity="0"
     inkscape:pageshadow="2"
     inkscape:window-width="1920"
     inkscape:window-height="1031"
     id="namedview10"
     showgrid="false"
     fit-margin-top="0"
     fit-margin-left="0"
     fit-margin-right="0"
     fit-margin-bottom="0"
     inkscape:zoom="3.9333333"
     inkscape:cx="29.51695"
     inkscape:cy="19"
     inkscape:window-x="0"
     inkscape:window-y="25"
     inkscape:window-maximized="1"
     inkscape:current-layer="svg2" /><g
     id="g4"
     transform="matrix(0.87719298,0,0,0.87719298,-1.3157895,-9.6491228)"
     style="fill:#ffffff"><g
       id="g6"
       style="fill:#ffffff"><path
         d="M 50.5,36 C 47.382,36 43.432,30.643 41.072,27.442 40.799,27.072 40.541,26.722 40.3,26.4 38.993,24.657 37.829,21.543 36.803,18.795 35.273,14.703 34.266,12 32.5,12 c -2.151,0 -4.729,2.33 -7.412,4.999 -1.183,-0.011 -3.566,-0.106 -5.141,-0.893 -0.68,-0.34 -1.628,-1.212 -2.546,-2.055 C 15.695,12.482 14.083,11 12.5,11 9.357,11 7.152,16.881 6.551,18.684 6.209,19.709 5.391,20.671 4.525,21.689 3.107,23.356 1.5,25.245 1.5,28 c 0,5.107 8.028,7.395 14.479,9.23 2.178,0.621 4.059,1.155 5.074,1.664 0.633,0.315 1.517,0.783 2.582,1.346 5.791,3.062 16.573,8.76 21.865,8.76 11.732,0 13,-4.896 13,-7 0,-2.718 -3.568,-6 -8,-6 z m -5,11 C 40.704,47 29.806,41.24 24.569,38.473 23.488,37.903 22.59,37.427 21.947,37.106 20.765,36.516 18.801,35.957 16.526,35.309 11.339,33.83 3.5,31.598 3.5,28 c 0,-0.97 0.29,-1.809 0.732,-2.59 2.031,2.567 6.396,3.962 9.986,5.104 1.519,0.484 2.955,0.94 3.834,1.381 1.17,0.584 3.056,1.847 5.239,3.308 6.519,4.362 16.161,10.806 24.538,11.718 C 47.093,46.973 46.316,47 45.5,47 Z m 10.834,-3.977 c -0.148,0.024 -0.293,0.074 -0.422,0.168 C 47.726,49.142 33.127,39.377 24.405,33.54 22.073,31.978 20.231,30.747 18.948,30.105 17.928,29.595 16.49,29.138 14.825,28.608 11.421,27.525 6.788,26.046 5.47,23.675 5.659,23.446 5.853,23.216 6.05,22.985 7.002,21.866 7.986,20.709 8.45,19.316 9.75,15.415 11.565,13 12.501,13 c 0.804,0 2.39,1.458 3.548,2.523 1.066,0.98 2.073,1.905 3.005,2.372 C 21.264,19 24.452,19 25.5,19 l 0.414,0 0.293,-0.293 c 1.615,-1.615 4.595,-4.595 6.204,-4.704 0.538,0.394 1.412,2.564 2.123,4.439 l -2.589,1.726 c -0.459,0.306 -0.584,0.927 -0.277,1.387 0.193,0.289 0.51,0.445 0.833,0.445 0.19,0 0.383,-0.054 0.554,-0.168 l 2.201,-1.467 c 0.391,1.036 0.799,2.092 1.232,3.108 l -2.543,1.695 c -0.459,0.306 -0.582,0.927 -0.276,1.387 0.192,0.289 0.511,0.445 0.833,0.445 0.189,0 0.383,-0.054 0.555,-0.168 l 2.28,-1.521 c 0.431,0.858 0.882,1.646 1.365,2.289 0.118,0.158 0.253,0.341 0.38,0.513 -0.044,0.021 -0.094,0.027 -0.135,0.055 l -3,2 c -0.459,0.306 -0.584,0.927 -0.277,1.387 0.193,0.289 0.51,0.445 0.833,0.445 0.19,0 0.383,-0.055 0.554,-0.168 l 3,-2 c 0.07,-0.047 0.117,-0.112 0.172,-0.172 2.722,3.654 6.507,8.34 10.271,8.34 3.525,0 6,2.595 6,4 0,0.357 -0.061,0.698 -0.166,1.023 z"
         id="path8"
         inkscape:connector-curvature="0"
         style="fill:#ffffff" /></g></g></svg>