<?xml version="1.0" encoding="UTF-8" standalone="no"?>
<svg
   xmlns:dc="http://purl.org/dc/elements/1.1/"
   xmlns:cc="http://creativecommons.org/ns#"
   xmlns:rdf="http://www.w3.org/1999/02/22-rdf-syntax-ns#"
   xmlns:svg="http://www.w3.org/2000/svg"
   xmlns="http://www.w3.org/2000/svg"
   xmlns:sodipodi="http://sodipodi.sourceforge.net/DTD/sodipodi-0.dtd"
   xmlns:inkscape="http://www.inkscape.org/namespaces/inkscape"
   version="1.1"
   x="0px"
   y="0px"
   viewBox="0 0 50 50"
   enable-background="new 0 0 512 512"
   xml:space="preserve"
   id="svg2"
   inkscape:version="0.91 r13725"
   sodipodi:docname="childcare.svg"
   width="50"
   height="50"><metadata
     id="metadata28"><rdf:RDF><cc:Work
         rdf:about=""><dc:format>image/svg+xml</dc:format><dc:type
           rdf:resource="http://purl.org/dc/dcmitype/StillImage" /><dc:title /></cc:Work></rdf:RDF></metadata><defs
     id="defs26" /><sodipodi:namedview
     pagecolor="#ffffff"
     bordercolor="#666666"
     borderopacity="1"
     objecttolerance="10"
     gridtolerance="10"
     guidetolerance="10"
     inkscape:pageopacity="0"
     inkscape:pageshadow="2"
     inkscape:window-width="1920"
     inkscape:window-height="1031"
     id="namedview24"
     showgrid="false"
     fit-margin-top="0"
     fit-margin-left="0"
     fit-margin-right="0"
     fit-margin-bottom="0"
     inkscape:zoom="0.4609375"
     inkscape:cx="262.67796"
     inkscape:cy="254"
     inkscape:window-x="0"
     inkscape:window-y="25"
     inkscape:window-maximized="1"
     inkscape:current-layer="svg2" /><g
     id="g4"
     transform="matrix(0.0984252,0,0,0.0984252,-0.1968504,-0.1968504)"
     style="fill:#ffffff"><path
       d="m 460.8,493.6 0,-295 37.8,0 -41,-81.9 -193.4,0 0,-32.8 81.9,0 0,-81.9 -98.3,0 0,114.7 -193.5,0 -41,81.9 37.8,0 0,295 -49.1,0 0,16.4 508,0 0,-16.4 -49.2,0 z M 264.2,18.4 l 65.5,0 0,49.2 -65.5,0 0,-49.2 z m -224.4,163.9 24.6,-49.2 383.2,0 24.6,49.2 -432.4,0 z m 158.8,311.3 0,-163.9 114.7,0 0,163.9 -114.7,0 z m 245.9,0 -114.8,0 0,-180.2 -147.4,0 0,180.3 -114.8,0 0,-295 376.9,0 0,294.9 z"
       id="path6"
       inkscape:connector-curvature="0"
       style="fill:#ffffff" /><path
       d="m 157.7,370.7 -65.6,0 0,65.5 65.5,0 0,-65.5 z m -16.4,49.2 -32.8,0 0,-32.8 32.8,0 0,32.8 z"
       id="path8"
       inkscape:connector-curvature="0"
       style="fill:#ffffff" /><path
       d="m 419.9,370.7 -65.5,0 0,65.5 65.5,0 0,-65.5 z m -16.4,49.2 -32.8,0 0,-32.8 32.8,0 0,32.8 z"
       id="path10"
       inkscape:connector-curvature="0"
       style="fill:#ffffff" /><path
       d="m 157.7,223.2 -65.6,0 0,65.5 65.5,0 0,-65.5 z m -16.4,49.2 -32.8,0 0,-32.8 32.8,0 0,32.8 z"
       id="path12"
       inkscape:connector-curvature="0"
       style="fill:#ffffff" /><path
       d="m 419.9,223.2 -65.5,0 0,65.5 65.5,0 0,-65.5 z m -16.4,49.2 -32.8,0 0,-32.8 32.8,0 0,32.8 z"
       id="path14"
       inkscape:connector-curvature="0"
       style="fill:#ffffff" /><path
       d="m 288.8,223.2 -65.5,0 0,65.5 65.5,0 0,-65.5 z m -16.4,49.2 -32.8,0 0,-32.8 32.8,0 0,32.8 z"
       id="path16"
       inkscape:connector-curvature="0"
       style="fill:#ffffff" /><rect
       x="247.8"
       y="149.5"
       width="16.4"
       height="16.4"
       id="rect18"
       style="fill:#ffffff" /><rect
       x="280.60001"
       y="149.5"
       width="16.4"
       height="16.4"
       id="rect20"
       style="fill:#ffffff" /><rect
       x="215"
       y="149.5"
       width="16.4"
       height="16.4"
       id="rect22"
       style="fill:#ffffff" /></g></svg>