<?xml version="1.0" encoding="UTF-8" standalone="no"?>
<svg
   xmlns:dc="http://purl.org/dc/elements/1.1/"
   xmlns:cc="http://creativecommons.org/ns#"
   xmlns:rdf="http://www.w3.org/1999/02/22-rdf-syntax-ns#"
   xmlns:svg="http://www.w3.org/2000/svg"
   xmlns="http://www.w3.org/2000/svg"
   xmlns:sodipodi="http://sodipodi.sourceforge.net/DTD/sodipodi-0.dtd"
   xmlns:inkscape="http://www.inkscape.org/namespaces/inkscape"
   version="1.1"
   x="0px"
   y="0px"
   viewBox="0 0 50 44.924934"
   enable-background="new 0 0 100 100"
   xml:space="preserve"
   id="svg2"
   inkscape:version="0.91 r13725"
   sodipodi:docname="noun_130272.svg"
   width="50"
   height="44.924934"><metadata
     id="metadata14"><rdf:RDF><cc:Work
         rdf:about=""><dc:format>image/svg+xml</dc:format><dc:type
           rdf:resource="http://purl.org/dc/dcmitype/StillImage" /><dc:title /></cc:Work></rdf:RDF></metadata><defs
     id="defs12" /><sodipodi:namedview
     pagecolor="#ffffff"
     bordercolor="#666666"
     borderopacity="1"
     objecttolerance="10"
     gridtolerance="10"
     guidetolerance="10"
     inkscape:pageopacity="0"
     inkscape:pageshadow="2"
     inkscape:window-width="1920"
     inkscape:window-height="1031"
     id="namedview10"
     showgrid="false"
     fit-margin-top="0"
     fit-margin-left="0"
     fit-margin-right="0"
     fit-margin-bottom="0"
     inkscape:zoom="2.36"
     inkscape:cx="33.166916"
     inkscape:cy="28.278"
     inkscape:window-x="0"
     inkscape:window-y="25"
     inkscape:window-maximized="1"
     inkscape:current-layer="svg2" /><g
     id="g4"
     transform="matrix(0.79434426,0,0,0.79434426,-14.71761,-17.254746)"
     style="fill:#ffffff"><path
       d="m 63.573,21.722 c -5.27,0 -10.193,2.292 -13.574,6.226 -3.384,-3.931 -8.32,-6.226 -13.573,-6.226 -9.87,0 -17.898,8.029 -17.898,17.9 0,4.689 1.797,9.121 5.065,12.479 l 22.406,24.394 c 1.057,1.15 2.477,1.783 4,1.783 1.525,0 2.944,-0.633 4.001,-1.783 L 76.395,52.112 c 3.275,-3.359 5.078,-7.795 5.078,-12.489 0.002,-9.872 -8.032,-17.901 -17.9,-17.901 z m 10.402,28.059 c -0.014,0.011 -0.024,0.025 -0.04,0.037 L 51.526,74.22 c -0.414,0.45 -0.954,0.698 -1.525,0.698 -0.571,0 -1.111,-0.248 -1.525,-0.698 L 26.089,49.851 c -0.022,-0.023 -0.04,-0.047 -0.062,-0.068 -2.671,-2.732 -4.139,-6.341 -4.139,-10.161 0,-8.018 6.521,-14.54 14.537,-14.54 4.83,0 9.333,2.389 12.045,6.392 l 0.105,0.167 c 0.305,0.482 0.834,0.776 1.408,0.781 0.586,0.016 1.104,-0.28 1.417,-0.759 2.702,-4.121 7.251,-6.581 12.172,-6.581 8.018,0 14.539,6.523 14.539,14.54 10e-4,3.819 -1.467,7.428 -4.136,10.159 z"
       id="path6"
       inkscape:connector-curvature="0"
       style="fill:#ffffff" /><path
       d="m 36.969,29.068 c -6.118,0 -11.096,4.978 -11.096,11.097 0,0.927 0.753,1.68 1.683,1.68 0.924,0 1.678,-0.753 1.678,-1.68 0,-4.267 3.469,-7.734 7.734,-7.734 0.928,0 1.682,-0.753 1.682,-1.683 0.001,-0.927 -0.754,-1.68 -1.681,-1.68 z"
       id="path8"
       inkscape:connector-curvature="0"
       style="fill:#ffffff" /></g></svg>