<?xml version="1.0" encoding="UTF-8" standalone="no"?>
<svg
   xmlns:dc="http://purl.org/dc/elements/1.1/"
   xmlns:cc="http://creativecommons.org/ns#"
   xmlns:rdf="http://www.w3.org/1999/02/22-rdf-syntax-ns#"
   xmlns:svg="http://www.w3.org/2000/svg"
   xmlns="http://www.w3.org/2000/svg"
   xmlns:sodipodi="http://sodipodi.sourceforge.net/DTD/sodipodi-0.dtd"
   xmlns:inkscape="http://www.inkscape.org/namespaces/inkscape"
   width="22"
   height="22"
   viewBox="0 0 22 22"
   id="svg2"
   version="1.1"
   inkscape:version="0.91 r13725"
   sodipodi:docname="icon-search.svg">
  <metadata
     id="metadata10">
    <rdf:RDF>
      <cc:Work
         rdf:about="">
        <dc:format>image/svg+xml</dc:format>
        <dc:type
           rdf:resource="http://purl.org/dc/dcmitype/StillImage" />
        <dc:title></dc:title>
      </cc:Work>
    </rdf:RDF>
  </metadata>
  <defs
     id="defs8" />
  <sodipodi:namedview
     pagecolor="#ffffff"
     bordercolor="#666666"
     borderopacity="1"
     objecttolerance="10"
     gridtolerance="10"
     guidetolerance="10"
     inkscape:pageopacity="0"
     inkscape:pageshadow="2"
     inkscape:window-width="1920"
     inkscape:window-height="1031"
     id="namedview6"
     showgrid="false"
     fit-margin-top="0"
     fit-margin-left="0"
     fit-margin-right="0"
     fit-margin-bottom="0"
     inkscape:zoom="0.13169643"
     inkscape:cx="847.18644"
     inkscape:cy="896"
     inkscape:window-x="0"
     inkscape:window-y="25"
     inkscape:window-maximized="1"
     inkscape:current-layer="svg2" />
  <path
     d="m 15.230769,9.3077 q 0,-2.4459 -1.738582,-4.1845 -1.738581,-1.7386 -4.184495,-1.7386 -2.445913,0 -4.184495,1.7386 -1.738582,1.7386 -1.738582,4.1845 0,2.4459 1.738582,4.1845 1.738582,1.7386 4.184495,1.7386 2.445914,0 4.184495,-1.7386 1.738582,-1.7386 1.738582,-4.1845 z M 22,20.3077 q 0,0.6875 -0.502404,1.1899 Q 20.995192,22 20.307692,22 19.59375,22 19.117788,21.4976 L 14.582933,16.976 q -2.366587,1.6394 -5.275241,1.6394 -1.890625,0 -3.615985,-0.7338 Q 3.966346,17.1478 2.716947,15.8984 1.467548,14.649 0.733774,12.9237 0,11.1983 0,9.3077 0,7.4171 0.733774,5.6917 1.467548,3.9663 2.716947,2.7169 3.966346,1.4675 5.691707,0.7338 7.417067,0 9.307692,0 q 1.890625,0 3.615986,0.7338 1.72536,0.7337 2.974759,1.9831 1.2494,1.2494 1.983174,2.9748 0.733774,1.7254 0.733774,3.616 0,2.9086 -1.639423,5.2752 l 4.534855,4.5349 Q 22,19.607 22,20.3077 Z"
     id="path4"
     inkscape:connector-curvature="0"
     style="fill:#ffffff" />
</svg>
