<?xml version="1.0" encoding="UTF-8" standalone="no"?>
<svg
   xmlns:dc="http://purl.org/dc/elements/1.1/"
   xmlns:cc="http://creativecommons.org/ns#"
   xmlns:rdf="http://www.w3.org/1999/02/22-rdf-syntax-ns#"
   xmlns:svg="http://www.w3.org/2000/svg"
   xmlns="http://www.w3.org/2000/svg"
   xmlns:sodipodi="http://sodipodi.sourceforge.net/DTD/sodipodi-0.dtd"
   xmlns:inkscape="http://www.inkscape.org/namespaces/inkscape"
   version="1.1"
   x="0px"
   y="0px"
   viewBox="0 0 49.999973 49.999783"
   enable-background="new 0 0 512 512"
   xml:space="preserve"
   id="svg2"
   inkscape:version="0.91 r13725"
   sodipodi:docname="camps.svg"
   width="49.999973"
   height="49.999783"><metadata
     id="metadata10"><rdf:RDF><cc:Work
         rdf:about=""><dc:format>image/svg+xml</dc:format><dc:type
           rdf:resource="http://purl.org/dc/dcmitype/StillImage" /><dc:title /></cc:Work></rdf:RDF></metadata><defs
     id="defs8" /><sodipodi:namedview
     pagecolor="#ffffff"
     bordercolor="#666666"
     borderopacity="1"
     objecttolerance="10"
     gridtolerance="10"
     guidetolerance="10"
     inkscape:pageopacity="0"
     inkscape:pageshadow="2"
     inkscape:window-width="1920"
     inkscape:window-height="1031"
     id="namedview6"
     showgrid="false"
     fit-margin-top="0"
     fit-margin-left="0"
     fit-margin-right="0"
     fit-margin-bottom="0"
     inkscape:zoom="0.4609375"
     inkscape:cx="264.67719"
     inkscape:cy="255.99488"
     inkscape:window-x="0"
     inkscape:window-y="25"
     inkscape:window-maximized="1"
     inkscape:current-layer="svg2" /><path
     d="m 49.999973,7.8e-4 -0.003,0 0,-7.8e-4 0,0.002 L 38.769905,4.73433 37.308087,0.47349 31.271848,5.77799 28.726824,2.02515 23.056699,7.33736 20.105913,3.88755 15.507078,9.43776 12.96186,6.83697 8.7902717,13.67575 5.4212238,12.74274 c 0,0 -6.29258738,17.00237 2.9357464,27.4269 l -8.05030471,8.05011 c 0,0 0,0 0,0.002 -0.40888732,0.40742 -0.40888732,1.0666 0,1.47246 0.40585997,0.40743 1.06504061,0.40743 1.47099821,0 l 0,0 0,0 8.0533321,-8.05343 c 4.4096742,3.90626 10.0003072,5.03224 14.9775612,5.03224 6.789951,0 12.447772,-2.09346 12.447772,-2.09346 l -0.930665,-3.36905 6.835752,-4.17169 -2.600004,-2.54512 5.550985,-4.59893 -3.448443,-2.95088 5.309969,-5.67081 -3.753717,-2.54434 5.306942,-6.03546 -4.260163,-1.4625 4.729988,-11.22844 0.003,-6.8e-4 z m -6.655576,10.41994 -0.863673,2.05605 2.108694,0.72403 1.318362,0.45244 -3.250005,3.69932 -1.559378,1.77452 1.953031,1.32519 1.73633,1.17569 -3.646685,3.89092 -1.48926,1.59073 1.657132,1.41592 1.568557,1.34268 -3.643756,3.02129 -1.782229,1.47539 1.654104,1.61739 0.686622,0.67139 -4.553034,2.77861 -1.342775,0.81934 0.421192,1.51514 0.393653,1.42363 c -2.096585,0.58135 -5.785946,1.40079 -9.902749,1.40079 -2.734282,0 -5.251863,-0.36621 -7.485656,-1.0834 -2.2918,-0.73702 -4.312018,-1.86006 -6.014852,-3.34307 l 16.158617,-16.15784 0,0 c 0.40586,-0.40664 0.40586,-1.06651 0,-1.47315 -0.408985,-0.40664 -1.068165,-0.40664 -1.474025,0 L 9.8338985,38.69215 C 8.134189,36.73902 6.9103591,34.37397 6.1902409,31.64887 5.5218805,29.11899 5.2807669,26.26654 5.4730523,23.17288 5.6745174,19.90227 6.3245184,17.04211 6.8096754,15.28889 l 1.42217,0.39365 1.5166038,0.41963 0.8178718,-1.34199 2.777055,-4.55226 0.674415,0.68663 1.617483,1.65244 1.473928,-1.77989 3.021196,-3.6459 1.342775,1.57002 1.41592,1.65635 1.593069,-1.49082 3.887897,-3.64444 1.177931,1.73418 1.324514,1.95528 1.772951,-1.55938 3.701666,-3.25157 0.451661,1.31905 0.723145,2.11026 2.056937,-0.8667 6.512314,-2.74493 -2.746781,6.51222 z"
     id="path4"
     inkscape:connector-curvature="0"
     style="fill:#ffffff" /></svg>