<?xml version="1.0" encoding="UTF-8" standalone="no"?>
<svg
   xmlns:dc="http://purl.org/dc/elements/1.1/"
   xmlns:cc="http://creativecommons.org/ns#"
   xmlns:rdf="http://www.w3.org/1999/02/22-rdf-syntax-ns#"
   xmlns:svg="http://www.w3.org/2000/svg"
   xmlns="http://www.w3.org/2000/svg"
   xmlns:sodipodi="http://sodipodi.sourceforge.net/DTD/sodipodi-0.dtd"
   xmlns:inkscape="http://www.inkscape.org/namespaces/inkscape"
   version="1.1"
   x="0px"
   y="0px"
   viewBox="0 0 50 19.013384"
   enable-background="new 0 0 100 100"
   xml:space="preserve"
   id="svg2"
   inkscape:version="0.91 r13725"
   sodipodi:docname="swimming.svg"
   width="50"
   height="19.013384"><metadata
     id="metadata10"><rdf:RDF><cc:Work
         rdf:about=""><dc:format>image/svg+xml</dc:format><dc:type
           rdf:resource="http://purl.org/dc/dcmitype/StillImage" /><dc:title /></cc:Work></rdf:RDF></metadata><defs
     id="defs8" /><sodipodi:namedview
     pagecolor="#ffffff"
     bordercolor="#666666"
     borderopacity="1"
     objecttolerance="10"
     gridtolerance="10"
     guidetolerance="10"
     inkscape:pageopacity="0"
     inkscape:pageshadow="2"
     inkscape:window-width="1920"
     inkscape:window-height="1031"
     id="namedview6"
     showgrid="false"
     fit-margin-top="0"
     fit-margin-left="0"
     fit-margin-right="0"
     fit-margin-bottom="0"
     inkscape:zoom="2.36"
     inkscape:cx="49.518916"
     inkscape:cy="17.774"
     inkscape:window-x="0"
     inkscape:window-y="25"
     inkscape:window-maximized="1"
     inkscape:current-layer="svg2" /><path fill="#ffffff"
     stroke-miterlimit="10"
     d="m 19.683093,10.91811 c 0,0 5.112024,-4.0902548 10.633285,0 l 0.133942,1.770361 c 0,0 -4.905023,-3.3416628 -10.903816,0 l 0.136589,-1.770361 z m -0.13606,1.770361 c 5.998793,-3.3416628 10.903816,0 10.903816,0 L 30.316907,10.91811 c -5.521261,-4.0902548 -10.633285,0 -10.633285,0 l -0.136589,1.770361 z m 0.954534,-1.191182 c 0,-3.8589008 -4.135255,-6.9866798 -9.236161,-6.9866798 -5.1009065,0 -9.2361613,3.127779 -9.2361613,6.9866798 0,3.8589 4.1352548,6.98668 9.2361613,6.98668 5.100906,0 9.236161,-3.12778 9.236161,-6.98668 m -0.818474,0.137118 c 0,-2.8805428 -3.356487,-5.2147298 -7.497565,-5.2147298 -4.1416081,0 -7.4986237,2.334187 -7.4986237,5.2147298 0,2.878955 3.3570156,5.214201 7.4986237,5.214201 4.141078,0 7.497565,-2.335776 7.497565,-5.214201 M 12.186057,6.4196772 c -4.1416071,0 -7.4986233,2.334187 -7.4986233,5.2147298 0,2.878955 3.3570162,5.214201 7.4986233,5.214201 4.140549,0 7.497565,-2.335246 7.497565,-5.214201 -5.29e-4,-2.8805428 -3.357016,-5.2147298 -7.497565,-5.2147298 z m 17.312905,5.0776118 c 0,3.8589 4.135785,6.98668 9.236161,6.98668 5.101436,0 9.236162,-3.12778 9.236162,-6.98668 0,-3.8589008 -4.135255,-6.9866798 -9.236162,-6.9866798 -5.100906,0 -9.236161,3.128309 -9.236161,6.9866798 M 25.065118,0.52941424 c -13.477828,0 -24.40387966,5.70602696 -24.40387966,9.15727796 0,0.5008258 0.231354,0.9873578 0.66600306,1.4537718 0.2234129,-0.239825 0.5040024,-0.49712 0.8317098,-0.765533 0.7115328,-3.3236628 4.5116683,-5.8643218 9.1059258,-5.8643218 1.019651,0 1.99748,0.129706 2.914425,0.360531 3.277074,-0.861886 6.972915,-1.433654 10.885287,-1.433654 3.885371,0 7.556859,0.564356 10.817521,1.416183 0.898416,-0.220765 1.856126,-0.34359 2.852484,-0.34359 4.536551,0 8.301745,2.476071 9.080513,5.7383218 0.396532,0.314472 0.730063,0.61465 0.987887,0.892063 0.434649,-0.466414 0.665474,-0.952946 0.665474,-1.4537718 5.3e-4,-3.451251 -10.925522,-9.15727796 -24.40335,-9.15727796 z M 2.1589512,10.374931 c -0.078353,0.365825 -0.1302359,0.739062 -0.1302359,1.122358 0,3.8589 4.1352548,6.98668 9.2361617,6.98668 5.100906,0 9.236161,-3.12778 9.236161,-6.98668 0,-3.0875438 -2.650248,-5.7023208 -6.321736,-6.6261488 m 5.29e-4,5.29e-4 c -0.916945,-0.230824 -1.894773,-0.360531 -2.914425,-0.360531 -4.5942571,0 -8.3943926,2.54013 -9.1059253,5.8643218 M 35.882639,4.8541992 c -3.704311,0.909533 -6.384206,3.538605 -6.384206,6.6430898 0,3.8589 4.135784,6.98668 9.236161,6.98668 5.101436,0 9.236161,-3.12778 9.236161,-6.98668 0,-0.427237 -0.05823,-0.842828 -0.155648,-1.248359 m 5.3e-4,0 C 47.036339,6.9866792 43.271674,4.5106092 38.735123,4.5106092 c -0.996357,0 -1.953538,0.122824 -2.852484,0.34359 m -5.566261,6.7802078 c 0,2.878955 3.357545,5.214201 7.498094,5.214201 4.141078,0 7.497565,-2.335246 7.497565,-5.214201 0,-2.8805428 -3.356487,-5.2147298 -7.497565,-5.2147298 -4.140549,0 -7.498094,2.334187 -7.498094,5.2147298 m 0,0 c 0,2.878955 3.357545,5.214201 7.498094,5.214201 4.141078,0 7.497565,-2.335246 7.497565,-5.214201 0,-2.8805428 -3.356487,-5.2147298 -7.497565,-5.2147298 -4.140549,0 -7.498094,2.334187 -7.498094,5.2147298 z M 17.364788,10.77358 C 16.437254,8.6538052 12.461882,8.1233322 11.417877,8.1233322 m 6.288912,4.1082538 c 0,-0.04077 -0.03282,-0.07465 -0.07412,-0.07465 -0.04077,0 -0.07412,0.03335 -0.07412,0.07465 0,0.04129 0.03282,0.07412 0.07412,0.07412 0.04077,0 0.07412,-0.03335 0.07412,-0.07412 M 43.243086,10.77358 C 42.315552,8.6538052 38.34018,8.1233322 37.296176,8.1233322 m 6.289441,4.1082538 c 0,-0.04129 -0.03282,-0.07465 -0.07465,-0.07465 -0.04076,0 -0.07412,0.03282 -0.07412,0.07465 0,0.04076 0.03282,0.07412 0.07412,0.07412 0.0413,0 0.07465,-0.03335 0.07465,-0.07412 M 0.52941424,12.928825 c 0,0.414531 0.3356486,0.749651 0.74965046,0.749651 0.414002,0 0.75018,-0.33512 0.75018,-0.749651 l 0,-2.730189 c 0,-0.4145318 -0.3356486,-0.7501798 -0.75018,-0.7501798 -0.41400186,0 -0.74965046,0.335648 -0.74965046,0.7501798 l 0,2.730189 z m 0,0 c 0,0.414531 0.3356486,0.749651 0.74965046,0.749651 0.414002,0 0.75018,-0.33512 0.75018,-0.749651 l 0,-2.730189 c 0,-0.4145318 -0.3356486,-0.7501798 -0.75018,-0.7501798 -0.41400186,0 -0.74965046,0.335648 -0.74965046,0.7501798 l 0,2.730189 z m 47.44187076,0 c 0,0.414531 0.336178,0.749651 0.74965,0.749651 0.414532,0 0.749651,-0.33512 0.749651,-0.749651 l 0,-2.730189 c 0,-0.4145318 -0.335119,-0.7501798 -0.749651,-0.7501798 -0.413472,0 -0.74965,0.335648 -0.74965,0.7501798 l 0,2.730189 z m 0,0 c 0,0.414531 0.336178,0.749651 0.74965,0.749651 0.414532,0 0.749651,-0.33512 0.749651,-0.749651 l 0,-2.730189 c 0,-0.4145318 -0.335119,-0.7501798 -0.749651,-0.7501798 -0.413472,0 -0.74965,0.335648 -0.74965,0.7501798 l 0,2.730189 z"
     id="path4"
     inkscape:connector-curvature="0"
     style="fill:#ffffff;stroke:#ffffff;stroke-width:1.05882847;stroke-linecap:round;stroke-linejoin:round;stroke-miterlimit:10" /></svg>
