<?xml version="1.0" encoding="UTF-8" standalone="no"?>
<!-- Generator: Adobe Illustrator 17.0.0, SVG Export Plug-In . SVG Version: 6.00 Build 0)  -->

<svg
   xmlns:dc="http://purl.org/dc/elements/1.1/"
   xmlns:cc="http://creativecommons.org/ns#"
   xmlns:rdf="http://www.w3.org/1999/02/22-rdf-syntax-ns#"
   xmlns:svg="http://www.w3.org/2000/svg"
   xmlns="http://www.w3.org/2000/svg"
   xmlns:sodipodi="http://sodipodi.sourceforge.net/DTD/sodipodi-0.dtd"
   xmlns:inkscape="http://www.inkscape.org/namespaces/inkscape"
   version="1.1"
   id="Layer_1"
   x="0px"
   y="0px"
   width="50.000031"
   height="50.000023"
   viewBox="0 0 50.000031 50.000023"
   enable-background="new 0 0 612 792"
   xml:space="preserve"
   inkscape:version="0.91 r13725"
   sodipodi:docname="kidsteensfamilies.svg"><metadata
     id="metadata11"><rdf:RDF><cc:Work
         rdf:about=""><dc:format>image/svg+xml</dc:format><dc:type
           rdf:resource="http://purl.org/dc/dcmitype/StillImage" /><dc:title>bball_icons</dc:title></cc:Work></rdf:RDF></metadata><defs
     id="defs9" /><sodipodi:namedview
     pagecolor="#ffffff"
     bordercolor="#666666"
     borderopacity="1"
     objecttolerance="10"
     gridtolerance="10"
     guidetolerance="10"
     inkscape:pageopacity="0"
     inkscape:pageshadow="2"
     inkscape:window-width="1920"
     inkscape:window-height="1031"
     id="namedview7"
     showgrid="false"
     fit-margin-top="0"
     fit-margin-left="0"
     fit-margin-right="0"
     fit-margin-bottom="0"
     inkscape:zoom="1.1919192"
     inkscape:cx="640.90251"
     inkscape:cy="68.666524"
     inkscape:window-x="0"
     inkscape:window-y="25"
     inkscape:window-maximized="1"
     inkscape:current-layer="Layer_1" /><title
     id="title3">bball_icons</title><path
     d="m 39.339243,4.5236915 c -11.308762,-7.91935 -26.896206,-5.17167 -34.8155534,6.1370905 -7.919346,11.30876 -5.17166996,26.8962 6.1370924,34.81555 11.308762,7.91935 26.896206,5.17167 34.815552,-6.13709 4.54e-4,-6.4e-4 9.08e-4,-10e-4 0.0013,-0.002 7.917804,-11.30867 5.169673,-26.89475 -6.138362,-34.8136405 z m 4.549628,32.1361305 -7.177127,-4.99957 c 2.702202,-3.42872 6.359386,-5.98034 10.510174,-7.33271 0.127622,4.3493 -1.031865,8.63951 -3.333047,12.33228 z M 38.833748,7.6345315 c 5.113033,4.0615605 8.180672,10.1664305 8.38817,16.6930105 -0.0374,-0.95335 -0.135791,-1.90334 -0.294455,-2.84416 -4.948378,1.4858 -9.311112,4.47592 -12.482227,8.55482 L 26.884791,24.738642 38.833748,7.6345315 Z m -19.387226,-4.13291 c -0.422168,0.10557 -0.838799,0.22221 -1.249893,0.35555 0.181629,4.4073 -0.959795,8.7681305 -3.277497,12.5211605 L 7.5753526,11.217652 C 10.579907,7.4141415 14.750755,4.7031415 19.446522,3.5016215 Z m 1.499871,-0.3333 c -0.416631,0.0778 -0.833262,0.17219 -1.249893,0.27222 0.43887,-0.10557 0.861037,-0.19443 1.277668,-0.28883 l -0.02777,0.0166 z M 5.9476786,13.500772 l 7.3882554,5.14398 c -2.720627,3.38951 -6.3803534,5.90146 -10.5213384,7.2216 0,0.45549 0.05001,0.91106 0.100028,1.36654 -0.494693,-4.79099 0.587821,-9.61247 3.083069,-13.73212 l -0.05001,0 z m -3.021982,13.85429 c 0.05001,0.44441 0.105565,0.88881 0.183354,1.33322 -0.07779,-0.44441 -0.13334,-0.88881 -0.183354,-1.33322 z m 8.2215184,14.99872 c -4.2703314,-3.40313 -7.1329224,-8.26391 -8.0381644,-13.6488 4.944021,-1.45076 9.3153784,-4.40122 12.5100034,-8.44372 l 7.393792,5.1773 -11.865631,16.91522 z m 13.459993,-19.20388 -7.382718,-5.17729 c 2.774635,-4.42428 4.086523,-9.6094805 3.749678,-14.8209905 5.380077,-1.00173 10.940511,0.0232 15.609773,2.87756 L 24.607208,23.149902 Z m -11.187948,20.80931 11.871169,-16.92075 7.582683,5.31064 c -2.676241,4.33595 -3.956088,9.38935 -3.666352,14.47651 -5.435809,1.05084 -11.068042,0.0282 -15.7875,-2.8664 z m 15.7875,2.83863 c 0.940188,-0.17918 1.86794,-0.41854 2.777539,-0.71662 -0.909508,0.29808 -1.83726,0.53744 -2.777539,0.71662 z m 2.777539,-0.71653 c -0.136244,-4.27905 0.973501,-8.50545 3.194171,-12.16563 l 7.154978,4.99957 c -2.687042,3.3473 -6.290945,5.83937 -10.371296,7.17159 l 0.02215,-0.006 z"
     id="path5"
     inkscape:connector-curvature="0"
     style="fill:#ffffff" /></svg>