<?xml version="1.0" encoding="utf-8"?>
<!-- Generator: Adobe Illustrator 17.0.0, SVG Export Plug-In . SVG Version: 6.00 Build 0)  -->
<!DOCTYPE svg PUBLIC "-//W3C//DTD SVG 1.1//EN" "http://www.w3.org/Graphics/SVG/1.1/DTD/svg11.dtd">
<svg version="1.1" id="Layer_1" xmlns="http://www.w3.org/2000/svg" xmlns:xlink="http://www.w3.org/1999/xlink" x="0px" y="0px"
	 width="38.023px" height="38.064px" viewBox="0 0 38.023 38.064" enable-background="new 0 0 38.023 38.064" xml:space="preserve">
<g>
	<defs>
		<rect id="SVGID_1_" y="0.001" width="38.023" height="38.063"/>
	</defs>
	<clipPath id="SVGID_2_">
		<use xlink:href="#SVGID_1_"  overflow="visible"/>
	</clipPath>
	<path clip-path="url(#SVGID_2_)" fill="#918f8f" d="M19.102,9.511c-2.547,0-4.934,0.991-6.728,2.784
		c-1.793,1.793-2.784,4.18-2.784,6.727c0,2.546,0.991,4.923,2.784,6.727c1.794,1.793,4.192,2.784,6.728,2.784
		c2.546,0,4.933-0.991,6.727-2.784c1.794-1.794,2.784-4.181,2.784-6.727c0-2.547-0.99-4.924-2.784-6.727
		C24.035,10.502,21.648,9.511,19.102,9.511 M19.102,26.948c-4.391,0-7.927-3.557-7.927-7.926c0-4.37,3.536-7.927,7.927-7.927
		c4.389,0,7.926,3.557,7.926,7.927C27.028,23.391,23.491,26.948,19.102,26.948"/>
	<path clip-path="url(#SVGID_2_)" fill="#918f8f" d="M35.716,15.059H34.21c-1.228,0-2.259-1.03-2.259-2.299
		c0-0.633,0.268-1.198,0.743-1.625l0.97-0.95c0.962-0.952,0.962-2.497,0-3.458l-2.209-2.189c-0.435-0.436-1.08-0.694-1.732-0.694
		c-0.655,0-1.288,0.258-1.736,0.694l-0.931,0.931c-0.445,0.495-1.06,0.763-1.703,0.763c-1.269,0-2.349-1.031-2.349-2.249V2.486
		C23.004,1.149,21.965,0,20.627,0h-3.012c-1.367,0-2.457,1.14-2.457,2.486v1.507c0,1.218-1.05,2.249-2.318,2.249
		c-0.635,0-1.209-0.268-1.645-0.734l-0.961-0.95C9.799,4.112,9.153,3.864,8.5,3.864S7.213,4.122,6.767,4.558L4.558,6.737
		c-0.952,0.951-0.952,2.506,0,3.448l0.93,0.931c0.495,0.446,0.774,1.011,0.774,1.655c0,1.268-1.031,2.298-2.259,2.298H2.497
		C1.14,15.059,0,16.168,0,17.516v1.506v1.506c0,1.337,1.14,2.457,2.497,2.457h1.506c1.228,0,2.259,1.03,2.259,2.298
		c0,0.634-0.279,1.219-0.774,1.665l-0.93,0.911c-0.952,0.952-0.952,2.496,0,3.448l2.209,2.2c0.436,0.445,1.08,0.692,1.733,0.692
		s1.288-0.258,1.734-0.692l0.961-0.951c0.416-0.466,1-0.734,1.635-0.734c1.269,0,2.317,1.031,2.317,2.249v1.506
		c0,1.337,1.09,2.487,2.448,2.487h3.012c1.347,0,2.467-1.14,2.467-2.487v-1.506c0-1.218,1.04-2.249,2.308-2.249
		c0.635,0,1.218,0.278,1.674,0.763l0.931,0.932c0.448,0.435,1.081,0.693,1.735,0.693c0.653,0,1.288-0.258,1.733-0.693l2.209-2.201
		c0.951-0.951,0.951-2.505,0-3.457l-0.97-0.952c-0.475-0.425-0.743-1.029-0.743-1.653c0-1.269,1.031-2.338,2.259-2.338h1.506
		c1.347,0,2.308-1.021,2.308-2.368v-1.526v-1.506C38.024,16.168,37.063,15.059,35.716,15.059 M36.458,19.022v1.496
		c0,0.416-0.227,0.782-0.722,0.782h-1.507c-1.021,0-1.991,0.436-2.724,1.189c-0.724,0.743-1.12,1.724-1.12,2.754
		c0,1.071,0.436,2.061,1.239,2.795l0.941,0.932c0.328,0.337,0.328,0.891,0,1.217l-2.209,2.2c-0.159,0.148-0.387,0.238-0.625,0.238
		c-0.238,0-0.475-0.09-0.623-0.238l-0.903-0.902c-0.762-0.802-1.763-1.249-2.823-1.249c-1.03,0-1.982,0.397-2.724,1.111
		c-0.753,0.733-1.149,1.694-1.149,2.724v1.506c0,0.485-0.427,0.901-0.882,0.901h-3.012c-0.455,0-0.862-0.416-0.862-0.901v-1.506
		c0-1.02-0.405-1.991-1.158-2.724c-0.744-0.714-1.715-1.111-2.736-1.111c-1.049,0-2.06,0.447-2.783,1.229l-0.923,0.922
		c-0.158,0.148-0.384,0.238-0.623,0.238c-0.237,0-0.475-0.08-0.604-0.219l-0.01-0.01l-0.011-0.009l-2.209-2.2
		c-0.327-0.326-0.327-0.872,0-1.209l0.903-0.892c0.812-0.752,1.257-1.752,1.257-2.822c0-1.031-0.396-1.972-1.119-2.715
		c-0.733-0.753-1.705-1.14-2.725-1.14H2.497c-0.495,0-0.912-0.426-0.912-0.871v-1.516v-1.506c0-0.446,0.417-0.872,0.912-0.872h1.506
		c1.019,0,1.991-0.386,2.724-1.139c0.723-0.743,1.12-1.704,1.12-2.725c0-1.07-0.447-2.07-1.259-2.813L5.677,9.065
		C5.459,8.847,5.429,8.599,5.429,8.461c0-0.129,0.03-0.387,0.248-0.604l2.2-2.19C8.035,5.518,8.262,5.429,8.5,5.429
		c0.237,0,0.476,0.079,0.606,0.218l0.008,0.01l0.011,0.01l0.932,0.931c0.732,0.793,1.722,1.229,2.783,1.229
		c1.03,0,1.99-0.396,2.734-1.11c0.754-0.733,1.17-1.694,1.17-2.724V2.486c0-0.485,0.397-0.9,0.841-0.9h3.022
		c0.446,0,0.792,0.415,0.792,0.9v1.507c0,1.02,0.436,1.991,1.189,2.724c0.744,0.714,1.725,1.11,2.755,1.11
		c1.07,0,2.081-0.446,2.834-1.248l0.9-0.902c0.158-0.149,0.388-0.238,0.625-0.238c0.238,0,0.475,0.089,0.624,0.228l2.209,2.19
		c0.159,0.158,0.258,0.375,0.258,0.604c0,0.228-0.089,0.445-0.248,0.604l-0.941,0.932c-0.792,0.733-1.239,1.723-1.239,2.793
		c0,1.031,0.397,1.972,1.12,2.715c0.734,0.753,1.703,1.139,2.725,1.139h1.506c0.534,0,0.732,0.496,0.742,0.892V19.022z"/>
</g>
</svg>
