<?xml version="1.0" encoding="utf-8"?>
<!-- Generator: Adobe Illustrator 15.0.2, SVG Export Plug-In . SVG Version: 6.00 Build 0)  -->
<!DOCTYPE svg PUBLIC "-//W3C//DTD SVG 1.1//EN" "http://www.w3.org/Graphics/SVG/1.1/DTD/svg11.dtd">
<svg version="1.1" id="Layer_1" xmlns="http://www.w3.org/2000/svg" xmlns:xlink="http://www.w3.org/1999/xlink" x="0px" y="0px"
	 width="152px" height="118.5px" viewBox="0 0 152 118.5" enable-background="new 0 0 152 118.5" xml:space="preserve">
<g>
	<rect x="103" y="23" opacity="0.3" width="31" height="1"/>
	<path opacity="0.2" d="M137,113H16c-3.313,0-6-2.687-6-6v1c0,3.313,2.687,6,6,6h121c3.313,0,6-2.687,6-6v-1
		C143,110.313,140.313,113,137,113z"/>
	<path opacity="0.6" d="M76.503,40.833c16.526,0,30.014,13.002,30.796,29.334c0.008-0.166,0.008-0.334,0.013-0.5
		c-0.529-16.565-14.115-29.834-30.809-29.834s-30.28,13.269-30.809,29.834c0.005,0.166,0.004,0.334,0.013,0.5
		C46.489,53.835,59.977,40.833,76.503,40.833z"/>
	<path opacity="0.6" d="M76.503,95.834c-13.732,0-24.887-10.998-25.154-24.667c-0.003,0.167-0.013,0.332-0.013,0.5
		c0,13.9,11.267,25.167,25.167,25.167s25.167-11.267,25.167-25.167c0-0.168-0.01-0.333-0.013-0.5
		C101.39,84.836,90.235,95.834,76.503,95.834z"/>
	<g>
		<path fill="#FFFFFF" d="M134,17c0-3.313-2.687-6-6-6h-19c-3.313,0-6,2.687-6,6v4h31V17z"/>
		<g>
			<path fill="#FFFFFF" d="M137,26H16c-3.313,0-6,2.687-6,6v73c0,3.313,2.687,6,6,6h121c3.313,0,6-2.687,6-6V32
				C143,28.687,140.313,26,137,26z M76.503,99.501c-17.029,0-30.834-13.805-30.834-30.834s13.805-30.834,30.834-30.834
				s30.834,13.805,30.834,30.834S93.532,99.501,76.503,99.501z"/>
		</g>
		<circle fill="#FFFFFF" cx="76.503" cy="68.667" r="25.167"/>
	</g>
	<rect x="103" y="22" opacity="0.4" width="31" height="1"/>
	<path opacity="0.4" d="M76.503,38.833c-16.862,0-30.553,13.536-30.821,30.334c0.002,0.167,0.007,0.334,0.013,0.5
		c0.529-16.565,14.115-29.834,30.809-29.834s30.279,13.269,30.809,29.834c0.006-0.166,0.01-0.333,0.013-0.5
		C107.057,52.369,93.365,38.833,76.503,38.833z"/>
	<path opacity="0.4" d="M137,112H16c-3.313,0-6-2.687-6-6v1c0,3.313,2.687,6,6,6h121c3.313,0,6-2.687,6-6v-1
		C143,109.313,140.313,112,137,112z"/>
	<path d="M51.349,70.167c-0.003,0.167-0.013,0.332-0.013,0.5s0.009,0.333,0.013,0.5c0.003-0.167,0.006-0.334,0.013-0.5
		C51.354,70.501,51.352,70.334,51.349,70.167z"/>
	<path opacity="0.2" d="M101.657,71.167c0.003-0.167,0.013-0.332,0.013-0.5s-0.01-0.333-0.013-0.5
		c-0.003,0.167-0.006,0.334-0.013,0.5C101.651,70.833,101.654,71,101.657,71.167z"/>
	<path opacity="0.4" d="M76.503,94.834c-13.565,0-24.616-10.73-25.142-24.167c-0.007,0.166-0.009,0.333-0.013,0.5
		c0.267,13.669,11.422,24.667,25.154,24.667s24.887-10.998,25.154-24.667c-0.003-0.167-0.006-0.334-0.013-0.5
		C101.119,84.104,90.068,94.834,76.503,94.834z"/>
	<rect x="103" y="21" opacity="0.6" width="31" height="1"/>
	<path opacity="0.2" d="M76.503,37.833c-17.029,0-30.834,13.805-30.834,30.834c0,0.168,0.01,0.333,0.013,0.5
		c0.268-16.798,13.959-30.334,30.821-30.334s30.554,13.536,30.821,30.334c0.003-0.167,0.013-0.332,0.013-0.5
		C107.337,51.638,93.532,37.833,76.503,37.833z"/>
	<path opacity="0.6" d="M137,111H16c-3.313,0-6-2.687-6-6v1c0,3.313,2.687,6,6,6h121c3.313,0,6-2.687,6-6v-1
		C143,108.313,140.313,111,137,111z"/>
	<path opacity="0.2" d="M101.657,70.167c0.003-0.167,0.013-0.332,0.013-0.5s-0.01-0.333-0.013-0.5
		c-0.003,0.167-0.006,0.334-0.013,0.5C101.651,69.833,101.654,70,101.657,70.167z"/>
	<path d="M51.349,69.167c-0.003,0.167-0.013,0.332-0.013,0.5s0.009,0.333,0.013,0.5c0.003-0.167,0.006-0.334,0.013-0.5
		C51.354,69.501,51.352,69.334,51.349,69.167z"/>
	<path opacity="0.2" d="M101.622,70.167c0.01,0.166,0.016,0.333,0.022,0.5c0.007-0.166,0.01-0.333,0.013-0.5
		c-0.003-0.167-0.006-0.334-0.013-0.5C101.638,69.834,101.632,70.001,101.622,70.167z"/>
	<path d="M51.384,70.167c-0.01-0.166-0.017-0.333-0.023-0.5c-0.007,0.166-0.009,0.333-0.013,0.5c0.003,0.167,0.006,0.334,0.013,0.5
		C51.368,70.5,51.375,70.333,51.384,70.167z"/>
	<path opacity="0.2" d="M76.503,93.834c-13.396,0-24.342-10.466-25.119-23.667c-0.01,0.166-0.017,0.333-0.023,0.5
		c0.525,13.437,11.577,24.167,25.142,24.167s24.616-10.73,25.142-24.167c-0.007-0.167-0.013-0.334-0.022-0.5
		C100.846,83.368,89.899,93.834,76.503,93.834z"/>
	<path d="M45.707,70.167c-0.008-0.166-0.007-0.334-0.013-0.5c-0.005,0.166-0.01,0.333-0.013,0.5c0.002,0.167,0.007,0.334,0.013,0.5
		C45.7,70.501,45.699,70.333,45.707,70.167z"/>
	<path opacity="0.2" d="M107.299,70.167c0.008,0.166,0.008,0.334,0.013,0.5c0.006-0.166,0.01-0.333,0.013-0.5
		c-0.003-0.167-0.007-0.334-0.013-0.5C107.307,69.833,107.307,70.001,107.299,70.167z"/>
	<path d="M45.682,69.167c-0.003,0.167-0.013,0.332-0.013,0.5s0.01,0.333,0.013,0.5c0.002-0.167,0.007-0.334,0.013-0.5
		C45.689,69.501,45.684,69.334,45.682,69.167z"/>
	<path opacity="0.2" d="M107.324,70.167c0.003-0.167,0.013-0.332,0.013-0.5s-0.01-0.333-0.013-0.5
		c-0.003,0.167-0.007,0.334-0.013,0.5C107.317,69.833,107.321,70,107.324,70.167z"/>
	<path opacity="0.2" d="M107.324,71.167c0.003-0.167,0.013-0.332,0.013-0.5s-0.01-0.333-0.013-0.5
		c-0.003,0.167-0.007,0.334-0.013,0.5C107.317,70.833,107.321,71,107.324,71.167z"/>
	<path d="M45.682,70.167c-0.003,0.167-0.013,0.332-0.013,0.5s0.01,0.333,0.013,0.5c0.002-0.167,0.007-0.334,0.013-0.5
		C45.689,70.501,45.684,70.334,45.682,70.167z"/>
</g>
<g>
	<path fill="#FFFFFF" d="M134,17c0-3.313-2.687-6-6-6h-19c-3.313,0-6,2.687-6,6v4h31V17z"/>
	<g>
		<path fill="#FFFFFF" d="M137,26H16c-3.313,0-6,2.687-6,6v73c0,3.313,2.687,6,6,6h121c3.313,0,6-2.687,6-6V32
			C143,28.687,140.313,26,137,26z M76.503,99.501c-17.029,0-30.834-13.805-30.834-30.834s13.805-30.834,30.834-30.834
			s30.834,13.805,30.834,30.834S93.532,99.501,76.503,99.501z"/>
	</g>
	<circle fill="#FFFFFF" cx="76.503" cy="68.667" r="25.167"/>
</g>
</svg>
