<?xml version="1.0" encoding="utf-8"?>
<!-- Generator: Adobe Illustrator 15.0.2, SVG Export Plug-In . SVG Version: 6.00 Build 0)  -->
<!DOCTYPE svg PUBLIC "-//W3C//DTD SVG 1.1//EN" "http://www.w3.org/Graphics/SVG/1.1/DTD/svg11.dtd">
<svg version="1.1" id="Layer_1" xmlns="http://www.w3.org/2000/svg" xmlns:xlink="http://www.w3.org/1999/xlink" x="0px" y="0px"
	 width="162.667px" height="123.164px" viewBox="0 0 162.667 123.164" enable-background="new 0 0 162.667 123.164"
	 xml:space="preserve">
<g id="Layer_1_1_">
	<g>
		<path fill="#00A0E2" d="M37.335,71.205c0-2.682,0.555-3.6,3.193-3.6c2.501,0,2.828,0.951,2.828,3.231v0.696h-6.021V71.205
			 M34.178,66.355c-1.143,1.617-1.47,3.781-1.47,7.013c0,3.64,0.514,6.028,2.058,7.462c1.209,1.137,3.196,1.721,5.95,1.721
			c1.579,0,3.743-0.145,5.542-0.479c1.139-0.187,1.317-0.771,1.317-1.616c0-0.401,0-0.847-0.066-1.207
			c-0.111-0.479-0.444-1.14-0.991-1.14c-0.442,0-0.883,0.183-1.286,0.257c-1.359,0.292-2.866,0.589-4.482,0.589
			c-0.879,0-1.688-0.186-2.201-0.404c-1.14-0.516-1.249-1.945-1.211-3.787h8.958c1.281,0,1.542-0.217,1.542-2.238
			c0-2.352-0.218-4.666-1.357-6.314c-1.066-1.505-2.901-2.277-5.951-2.277C37.297,63.934,35.277,64.775,34.178,66.355
			 M16.172,56.807c-1.067,0-1.616,0.332-1.616,1.583v22.215c0,0.883,0.293,1.468,1.323,1.468h1.944c1.137,0,1.43-0.624,1.43-1.653
			v-8.414c0-2.634,0.547-3.533,3.141-3.533c2.453,0,2.777,0.938,2.777,3.172v0.687h-0.013c0.007,0.354,0.013,0.76,0.013,1.209v6.881
			c0,1.104,0.365,1.653,1.32,1.653h1.95c1.128,0,1.428-0.624,1.428-1.653V69.15c0-2.392-1.14-5.217-5.655-5.217
			c-1.989,0-3.746,0.655-4.96,1.246v-6.791c0-0.696-0.293-1.583-1.43-1.583L16.172,56.807"/>
		<path fill="#00A0E2" d="M3.655,59.888c-1.065,0-1.581,0.37-1.581,1.619v2.974H1.157c-0.624,0-0.99,0.295-0.99,1.215v1.578
			c0,0.588,0.187,1.062,0.88,1.062h1.028v8.376c0,4.369,0.844,5.806,4.736,5.806c1.217,0,2.025-0.076,3.201-0.188
			c1.17-0.109,1.539-0.475,1.539-1.835V79.17c0-0.402-0.182-1.025-0.991-1.025c-0.848,0-1.982,0.551-3.013,0.551
			c-0.252,0-0.441-0.104-0.55-0.297c-0.146-0.293-0.22-0.953-0.22-2.679v-7.385h3.966c0.662,0,0.881-0.146,0.881-1.396v-1.282
			c0-1.066-0.441-1.177-1.247-1.177h-3.6v-2.976c0-0.7-0.331-1.619-1.468-1.619L3.655,59.888"/>
	</g>
	<g>
		<path fill="#90278F" d="M96.128,110.973l-0.314,0.539c-0.211,0.37-0.16,0.571-0.014,0.819l2.064,3.471l-4-0.079
			c-0.294-0.007-0.504,0.034-0.717,0.407l-0.387,0.667c-0.111,0.199-0.188,0.536,0.113,0.712l0.431,0.089l5.842,0.066l2.563,1.48
			c0.429,0.248,0.651,0.129,0.889-0.279l0.309-0.532c0.203-0.354,0.129-0.633-0.236-0.849l-2.664-1.53l-2.814-4.767l-0.381-0.447
			c-0.082-0.051-0.169-0.073-0.246-0.073C96.402,110.665,96.251,110.757,96.128,110.973"/>
		<path fill="#90278F" d="M101.029,102.482l-0.395,0.682c-0.194,0.347-0.188,0.582,0.021,0.854c0.875,1.114,2.526,3.006,3.752,4.476
			c-1.887-0.33-4.351-0.81-5.752-1.009c-0.337-0.045-0.551,0.063-0.752,0.408l-0.395,0.678c-0.17,0.3-0.277,0.601,0.15,0.895
			l6.836,4.792c0.439,0.304,0.7,0.107,0.922-0.274l0.303-0.521c0.207-0.368,0.104-0.608-0.23-0.842l-4.851-3.229
			c0.334,0.055,0.771,0.178,1.132,0.24c1.424,0.26,2.93,0.548,3.88,0.686c0.38,0.062,0.636,0.021,0.87-0.389l0.182-0.322
			c0.234-0.405,0.15-0.655-0.088-0.959c-0.6-0.764-1.611-1.896-2.549-2.992c-0.238-0.271-0.551-0.616-0.766-0.869l5.224,2.584
			c0.362,0.174,0.626,0.148,0.841-0.227l0.303-0.516c0.22-0.388,0.258-0.715-0.229-0.938l-7.564-3.529
			c-0.125-0.061-0.231-0.086-0.322-0.086C101.3,102.076,101.158,102.266,101.029,102.482"/>
		<path fill="#90278F" d="M105.152,95.285c-0.345,0.511-0.549,0.811-0.875,1.379c-1.396,2.412-1.379,3.954,2.256,6.055
			c2.145,1.238,3.854,1.717,5.262,0.235c0.379-0.381,0.731-0.913,0.996-1.375c0.33-0.569,0.482-0.89,0.754-1.448
			c0.256-0.525,0.207-0.732-0.061-0.891l-0.41-0.236c-0.447-0.257-0.639-0.271-0.867,0.129c-0.264,0.454-0.326,0.715-0.707,1.375
			c-0.219,0.381-0.451,0.71-0.612,0.915c-0.819,0.963-1.949,0.405-3.351-0.403c-1.422-0.82-2.39-1.408-2.291-2.326
			c0.043-0.387,0.381-1.053,0.608-1.445c0.374-0.655,0.565-0.846,0.835-1.301c0.229-0.396,0.121-0.559-0.32-0.813l-0.408-0.237
			c-0.086-0.052-0.166-0.078-0.246-0.078C105.542,94.814,105.376,94.949,105.152,95.285"/>
		<path fill="#90278F" d="M110.021,91.74l3.49,0.697c-0.205,0.355-0.369,0.61-0.59,1c-0.211,0.354-0.389,0.691-0.553,0.982
			L110.021,91.74 M108.029,90.247l-0.289,0.507c-0.269,0.456-0.173,0.689,0.133,1.053l5.615,6.629l0.326,0.318
			c0.186,0.105,0.332,0.11,0.576-0.312l0.326-0.572c0.244-0.417,0.113-0.622-0.157-0.93l-1.168-1.34
			c0.267-0.435,0.53-0.898,0.833-1.414c0.312-0.545,0.535-0.939,0.835-1.481l1.864,0.347c0.301,0.061,0.547,0.057,0.771-0.33
			l0.389-0.679c0.115-0.2,0.192-0.483-0.11-0.66l-0.216-0.059l-8.764-1.493c-0.113-0.02-0.216-0.032-0.309-0.032
			C108.414,89.797,108.222,89.902,108.029,90.247"/>
	</g>
	<g>
		
			<radialGradient id="SVGID_1_" cx="-1666.439" cy="480.1016" r="54.794" gradientTransform="matrix(1.0034 0 0 1.0034 1774.7837 -488.8407)" gradientUnits="userSpaceOnUse">
			<stop  offset="0.3558" style="stop-color:#A7278D"/>
			<stop  offset="1" style="stop-color:#6C308F"/>
		</radialGradient>
		<path fill="url(#SVGID_1_)" d="M98.196,0.152c-3.3,0-6.019,2.581-6.185,5.86v0.664c0.041,0.93,0.283,1.811,0.742,2.593
			l23.185,40.146c1.077,1.868,3.062,3.111,5.353,3.111c2.301,0,4.285-1.242,5.363-3.111l23.18-40.145
			c0.433-0.723,0.666-1.546,0.733-2.396V5.817c-0.267-3.181-2.935-5.665-6.174-5.665H98.196"/>
		
			<linearGradient id="SVGID_2_" gradientUnits="userSpaceOnUse" x1="-1719.5884" y1="537.3945" x2="-1661.9985" y2="583.2207" gradientTransform="matrix(1 0 0 1 1768 -487.8359)">
			<stop  offset="0" style="stop-color:#1FA7E6"/>
			<stop  offset="1" style="stop-color:#1378BD"/>
		</linearGradient>
		<path fill="url(#SVGID_2_)" d="M47.826,0.152c-2.553,0-4.639,2.006-4.764,4.521V5.18c0.028,0.725,0.225,1.419,0.565,1.996
			l28.865,49.997c1.304,2.25,2.077,4.862,2.077,7.644c0,2.719-0.725,5.24-1.965,7.451L47.5,115.729
			c-0.38,0.647-0.556,1.438-0.556,2.252c0,2.629,2.141,4.773,4.785,4.773h24.258c5.156,0,9.821-2.582,12.267-6.809L113.326,72.5
			c1.145-1.992,1.732-4.262,1.791-6.68v-0.908c-0.068-2.533-0.765-4.933-1.938-6.994l-0.264-0.431L84.253,7.811l-0.496-0.849
			c-2.438-4.229-7.114-6.81-12.27-6.81H47.826"/>
		<path fill="#90278F" d="M154.158,1.807l-0.279,0.267c0,0.234-0.051,0.482,0.279,0.482c0.319,0,0.646-0.009,0.973-0.012v3.343
			c0,0.232,0.092,0.293,0.307,0.293c0.262,0,0.566,0.064,0.566-0.293V2.545c0.318,0.002,0.642,0.012,0.961,0.012
			c0.225,0,0.285-0.104,0.285-0.31c0-0.239,0.029-0.439-0.285-0.439L154.158,1.807"/>
		<path fill="#90278F" d="M160.947,1.805l-0.334,0.204c-0.123,0.277-0.222,0.582-0.324,0.87c-0.199,0.548-0.396,1.1-0.59,1.64
			c-0.197-0.54-0.396-1.092-0.594-1.64c-0.104-0.289-0.201-0.593-0.322-0.87l-0.336-0.204h-0.363l-0.317,0.264l-0.333,3.809v0.048
			l0.322,0.256c0.269,0,0.535,0.063,0.556-0.283l0.171-2.668l0.163,0.509c0.203,0.561,0.39,1.139,0.618,1.694l0.35,0.257
			c0.273,0,0.411,0.024,0.536-0.257c0.22-0.532,0.403-1.149,0.601-1.694l0.168-0.509l0.17,2.668l0.283,0.283
			c0.213,0,0.594,0.068,0.594-0.256V5.878l-0.332-3.809l-0.324-0.264H160.947"/>
	</g>
</g>
<g id="Layer_2">
</g>
</svg>
