<?xml version="1.0" encoding="utf-8"?>
<!-- Generator: Adobe Illustrator 15.0.2, SVG Export Plug-In . SVG Version: 6.00 Build 0)  -->
<!DOCTYPE svg PUBLIC "-//W3C//DTD SVG 1.1//EN" "http://www.w3.org/Graphics/SVG/1.1/DTD/svg11.dtd">
<svg version="1.1" id="Layer_1" xmlns="http://www.w3.org/2000/svg" xmlns:xlink="http://www.w3.org/1999/xlink" x="0px" y="0px"
	 width="75.625px" height="141.25px" viewBox="0 0 75.625 141.25" enable-background="new 0 0 75.625 141.25" xml:space="preserve">
<g>
	<path opacity="0.2" enable-background="new    " d="M2.758,45.617c-0.041,0.696-0.106,1.386-0.106,2.093
		c0,19.386,30.858,50.244,35.1,91.54c4.245-41.296,35.104-72.154,35.104-91.54c0-0.707-0.062-1.396-0.104-2.093
		c-1.133,19.445-30.834,49.883-35,90.395C33.592,95.5,3.889,65.062,2.758,45.617z"/>
	<path opacity="0.2" enable-background="new    " d="M72.751,45.617c0.019-0.376,0.104-0.778,0.104-1.146
		c0-0.707-0.063-1.396-0.104-2.093c-0.028,0.459-0.071,0.924-0.13,1.396C72.688,44.381,72.713,45,72.751,45.617z"/>
	<path opacity="0.2" enable-background="new    " d="M2.758,42.378c-0.041,0.696-0.106,1.386-0.106,2.093
		c0,0.368,0.084,0.771,0.106,1.146c0.037-0.617,0.06-1.236,0.128-1.844C2.83,43.302,2.785,42.837,2.758,42.378z"/>
	<path opacity="0.2" enable-background="new    " d="M37.752,132.771C33.689,93.216,5.281,63.267,2.887,43.773
		C2.818,44.381,2.795,45,2.758,45.617C3.889,65.062,33.592,95.5,37.752,136.012c4.166-40.512,33.867-70.95,34.999-90.395
		c-0.038-0.617-0.063-1.236-0.13-1.844C70.227,63.267,41.816,93.216,37.752,132.771z"/>
	<path opacity="0.2" enable-background="new    " d="M37.752,132.771C33.689,93.216,5.281,63.267,2.887,43.773
		C2.818,44.381,2.795,45,2.758,45.617C3.889,65.062,33.592,95.5,37.752,136.012c4.166-40.512,33.867-70.95,34.999-90.395
		c-0.038-0.617-0.063-1.236-0.13-1.844C70.227,63.267,41.816,93.216,37.752,132.771z"/>
	<path opacity="0.2" enable-background="new    " d="M72.751,39.14c-0.028,0.458-0.071,0.923-0.13,1.395
		c0.066,0.607,0.092,1.228,0.13,1.844c0.019-0.376,0.104-0.777,0.104-1.146C72.855,40.524,72.792,39.835,72.751,39.14z"/>
	<path opacity="0.2" enable-background="new    " d="M2.758,39.14c-0.041,0.695-0.106,1.385-0.106,2.092
		c0,0.369,0.084,0.771,0.106,1.146c0.037-0.616,0.06-1.236,0.128-1.844C2.83,40.062,2.785,39.598,2.758,39.14z"/>
	<path opacity="0.2" enable-background="new    " d="M3.119,42.25c-0.112-0.587-0.163-1.148-0.232-1.716
		c-0.068,0.607-0.092,1.228-0.128,1.844c0.027,0.459,0.071,0.924,0.128,1.396C2.943,43.26,3.04,42.756,3.119,42.25z"/>
	<path opacity="0.2" enable-background="new    " d="M3.119,42.25c-0.112-0.587-0.163-1.148-0.232-1.716
		c-0.068,0.607-0.092,1.228-0.128,1.844c0.027,0.459,0.071,0.924,0.128,1.396C2.943,43.26,3.04,42.756,3.119,42.25z"/>
	<path opacity="0.2" enable-background="new    " d="M72.389,42.25c0.082,0.506,0.176,1.01,0.232,1.523
		c0.059-0.472,0.102-0.937,0.13-1.396c-0.038-0.616-0.063-1.236-0.13-1.844C72.552,41.102,72.501,41.663,72.389,42.25z"/>
	<path opacity="0.2" enable-background="new    " d="M72.389,42.25c0.082,0.506,0.176,1.01,0.232,1.523
		c0.059-0.472,0.102-0.937,0.13-1.396c-0.038-0.616-0.063-1.236-0.13-1.844C72.552,41.102,72.501,41.663,72.389,42.25z"/>
	<path opacity="0.2" enable-background="new    " d="M3.119,42.25c-0.079,0.506-0.176,1.01-0.232,1.523
		c2.394,19.493,30.803,49.442,34.865,88.999c4.064-39.557,32.475-69.504,34.869-88.999c-0.057-0.514-0.15-1.018-0.232-1.523
		C68.63,61.768,41.7,91.132,37.752,129.533C33.809,91.132,6.878,61.768,3.119,42.25z"/>
	<path opacity="0.2" enable-background="new    " d="M3.119,42.25c-0.079,0.506-0.176,1.01-0.232,1.523
		c2.394,19.493,30.803,49.442,34.865,88.999c4.064-39.557,32.475-69.504,34.869-88.999c-0.057-0.514-0.15-1.018-0.232-1.523
		C68.63,61.768,41.7,91.132,37.752,129.533C33.809,91.132,6.878,61.768,3.119,42.25z"/>
	<path opacity="0.2" enable-background="new    " d="M3.119,42.25c-0.079,0.506-0.176,1.01-0.232,1.523
		c2.394,19.493,30.803,49.442,34.865,88.999c4.064-39.557,32.475-69.504,34.869-88.999c-0.057-0.514-0.15-1.018-0.232-1.523
		C68.63,61.768,41.7,91.132,37.752,129.533C33.809,91.132,6.878,61.768,3.119,42.25z"/>
</g>
<g>
	<polygon opacity="0.8" fill="#FFFFFF" enable-background="new    " points="37.636,28.5 34.605,38.5 40.748,38.5 37.713,28.5 	"/>
	<path opacity="0.6" fill="#FFFFFF" enable-background="new    " d="M37.752,2.89c-19.386,0-35.1,15.717-35.1,35.104
		c0,19.386,30.858,50.244,35.1,91.54c4.245-41.296,35.104-72.154,35.104-91.54C72.855,18.606,57.139,2.89,37.752,2.89z M43.934,49.5
		l-1.4-5H32.74l-1.32,5h-8.818l10.45-28h9.404l10.45,28H43.934z"/>
</g>
</svg>
