<?xml version="1.0" encoding="utf-8"?>
<!-- Generator: Adobe Illustrator 19.2.1, SVG Export Plug-In . SVG Version: 6.00 Build 0)  -->
<svg version="1.1" id="Layer_1" xmlns="http://www.w3.org/2000/svg" xmlns:xlink="http://www.w3.org/1999/xlink" x="0px" y="0px"
	 viewBox="0 0 40 40" style="enable-background:new 0 0 40 40;" xml:space="preserve">
<g>
	<path d="M16.6,22.6h5.9c2.1-1,3.1-2,3.1-4.4c0-1.2-1.1-3-2.6-4.2C18.6,10.6,20.4,7,20.4,7s-4.5,1.4-2.9,7.4c0,0-1.1-1.6-2.3-2.1
		c0,0-0.2,2.6-1.3,6C13.2,20.4,14.8,21.6,16.6,22.6z"/>
	<path d="M25.2,23.6H13.8c-1,0-1.9,0.8-1.9,1.9s0.8,1.9,1.9,1.9H15c0,0.1,0,0.2,0,0.3c0,0.8,0.6,1.4,1.4,1.4h0.4h5.5h0.4
		c0.8,0,1.4-0.6,1.4-1.4c0-0.1,0-0.2,0-0.3h1.2c1,0,1.9-0.8,1.9-1.9S26.3,23.6,25.2,23.6z"/>
	<path d="M19,29.9h-2.2v2.2h0c0,0,0,0,0,0c0,1.2,1,2.2,2.2,2.2h1.1c1.2,0,2.2-1,2.2-2.2c0,0,0,0,0,0h0v-2.2h-2.2H19z"/>
</g>
</svg>
