<?xml version="1.0" encoding="utf-8"?>
<!-- Generator: Adobe Illustrator 19.2.1, SVG Export Plug-In . SVG Version: 6.00 Build 0)  -->
<svg version="1.1" id="Layer_1" xmlns="http://www.w3.org/2000/svg" xmlns:xlink="http://www.w3.org/1999/xlink" x="0px" y="0px"
	 viewBox="0 0 40 40" style="enable-background:new 0 0 40 40;" xml:space="preserve">
<style type="text/css">
	.st0{fill:none;stroke:#000000;stroke-width:4;stroke-linecap:round;stroke-miterlimit:10;}
</style>
<g>
	<circle cx="19.6" cy="13.7" r="4.7"/>
	<path d="M33.9,20.9c-0.2-0.2-4.7-4-12.2-1.7l-0.8,0.3c-2.5,0.8-5.4,1.7-7.2,0.7c-1-0.6-1.7-1.8-2.2-3.6c0-0.1-0.1-0.2-0.1-0.3
		c0.8-0.8,1.4-1.9,1.4-3.2c0-2.4-2-4.4-4.4-4.4c-2.4,0-4.4,2-4.4,4.4c0,2.4,1.9,4.3,4.2,4.4c0.7,2.8,2,4.7,3.9,5.8
		c1.1,0.6,2.4,0.9,3.6,0.9c0.3,0,0.6,0,0.9,0l1.1,4.5c0.4,2,1.4,3.8,3,3.8h4.1c1.7,0,3.5-1.6,3-3.8L26.3,22c3.3,0,5.1,1.5,5.2,1.6
		c0.7,0.6,1.8,0.6,2.5-0.2C34.7,22.7,34.6,21.6,33.9,20.9z M5.8,13.1c0-1.3,1.1-2.4,2.4-2.4s2.4,1.1,2.4,2.4s-1.1,2.4-2.4,2.4
		S5.8,14.5,5.8,13.1z"/>
</g>
<path class="st0" d="M21.5,30.1"/>
<g>
	<path class="st0" d="M16.8,28.3"/>
</g>
</svg>
