<?xml version="1.0" encoding="utf-8"?>
<!-- Generator: Adobe Illustrator 19.2.1, SVG Export Plug-In . SVG Version: 6.00 Build 0)  -->
<svg version="1.1" id="Layer_1" xmlns="http://www.w3.org/2000/svg" xmlns:xlink="http://www.w3.org/1999/xlink" x="0px" y="0px"
	 viewBox="0 0 40 40" style="enable-background:new 0 0 40 40;" xml:space="preserve">
<circle cx="23.2" cy="28.2" r="3.9"/>
<polygon points="15.8,12.3 14.8,8.3 8.7,8.3 9.6,12.3 "/>
<path d="M30.9,28l-0.4-2.6c-0.2-1.6-1.6-3.3-3.2-3.8l-9.4-3c-0.3-0.1-0.6-0.5-0.7-0.8l-1.1-4.3H9.9l2.6,10.7c0.2,1,1.1,1.9,2,2.2
	l3.8,1.2c0.3-2.5,2.4-4.5,4.9-4.5c2.8,0,5,2.2,5,5c0,0.9-0.3,1.7-0.7,2.5l0.2,0.1c0.3,0.1,0.6,0.2,0.9,0.2c0.6,0,1.1-0.2,1.5-0.5
	C30.8,29.8,31.1,29,30.9,28z"/>
</svg>
