<?xml version="1.0" encoding="utf-8"?>
<!-- Generator: Adobe Illustrator 19.2.1, SVG Export Plug-In . SVG Version: 6.00 Build 0)  -->
<svg version="1.1" id="Layer_1" xmlns="http://www.w3.org/2000/svg" xmlns:xlink="http://www.w3.org/1999/xlink" x="0px" y="0px"
	 viewBox="0 0 40 40" style="enable-background:new 0 0 40 40;" xml:space="preserve">
<g>
	<path d="M8.3,12.1c-0.8,0.8-1.1,3-0.7,5.7l6.3-6.3C11.3,11.1,9.1,11.4,8.3,12.1z"/>
	<path d="M21.4,31.7c2.7,0.4,4.9,0.1,5.7-0.7c0.8-0.8,1.1-3,0.7-5.7L21.4,31.7z"/>
	<path d="M31.7,8.6H18.2c-0.6,0-1,0.4-1,1v2.8c-0.5-0.2-1-0.4-1.5-0.5L8,19.6c0.7,2.5,2,5.2,4.3,7.4c2.2,2.2,4.9,3.6,7.4,4.3
		l7.7-7.7c-0.4-1.4-1-3-1.9-4.4h6.2l-3-5.3L31.7,8.6z M22,23.9L20,25.8c-0.2,0.2-0.5,0.2-0.7,0c-0.2-0.2-0.2-0.5,0-0.7l0.6-0.6
		l-1.3-1.3l-0.6,0.6c-0.2,0.2-0.5,0.2-0.7,0c-0.2-0.2-0.2-0.5,0-0.7l0.6-0.6l-1.3-1.3l-0.6,0.6c-0.2,0.2-0.5,0.2-0.7,0
		c-0.2-0.2-0.2-0.5,0-0.7l0.6-0.6l-1.3-1.3l-0.6,0.6c-0.2,0.2-0.5,0.2-0.7,0c-0.2-0.2-0.2-0.5,0-0.7l1.9-1.9c0.2-0.2,0.5-0.2,0.7,0
		c0.2,0.2,0.2,0.5,0,0.7l-0.6,0.6l1.3,1.3l0.6-0.6c0.2-0.2,0.5-0.2,0.7,0s0.2,0.5,0,0.7l-0.6,0.6l1.3,1.3l0.6-0.6
		c0.2-0.2,0.5-0.2,0.7,0s0.2,0.5,0,0.7l-0.6,0.6l1.3,1.3l0.6-0.6c0.2-0.2,0.5-0.2,0.7,0S22.2,23.7,22,23.9z M28.2,17.1h-4.1
		c-0.3-0.4-0.6-0.7-0.9-1c-1.2-1.2-2.5-2.1-3.9-2.8v-2.7h9l-1.9,3.3L28.2,17.1z"/>
</g>
</svg>
