<?xml version="1.0" encoding="utf-8"?>
<!-- Generator: Adobe Illustrator 19.2.1, SVG Export Plug-In . SVG Version: 6.00 Build 0)  -->
<svg version="1.1" id="Layer_1" xmlns="http://www.w3.org/2000/svg" xmlns:xlink="http://www.w3.org/1999/xlink" x="0px" y="0px"
	 viewBox="0 0 40 40" style="enable-background:new 0 0 40 40;" xml:space="preserve">
<g>
	<g id="_x31_4_26_">
		<g>
			<path d="M20.5,10c0.3-0.4,0.2-1.2,0.2-1.9c0,0,0-0.1,0-0.1C20.3,8,19.9,8,19.5,8c-1.6,0-3.1,0.3-4.4,0.8c1,0.5,2.5,1.3,4.2,2.5
				C19.9,10.8,20.3,10.3,20.5,10z"/>
			<path d="M26.9,17.2c-0.6,0.1-1.1,0.2-1.6,0.3c2.1,3.7,3,8.4,3.2,11.8c2.1-2.2,3.5-5.1,3.6-8.3C30.6,19.2,28.7,17,26.9,17.2z"/>
			<path d="M14.2,14c1.5-0.3,2.9-1.1,4-1.9c-2.3-1.6-4.3-2.4-4.7-2.6c-2.4,1.3-4.4,3.4-5.5,5.9c1.5-0.6,3.1-0.9,4.6-1.2
				C13.2,14.2,13.7,14.1,14.2,14z"/>
			<path d="M22.9,14.3c0.1,0.1,0.3,0.3,0.4,0.4c0.5,0.5,0.9,1.1,1.3,1.7c0.6-0.2,1.3-0.4,2.1-0.5c2-0.2,3.7,1.3,5.2,3
				c-0.3-2.6-1.4-4.9-3.1-6.8c-0.9,0.1-1.9,0.3-2.9,0.6C25.2,13,24.2,13.5,22.9,14.3z"/>
			<path d="M21.2,20.8c0.5-1.7,1.1-3,2.3-3.8c-0.3-0.5-0.7-1-1.1-1.4c-0.2-0.2-0.4-0.4-0.6-0.6c-4.6,3.2-11,8.9-11.5,14
				c1.9,2.1,4.6,3.5,7.5,4c1.1-2.1,2.1-6.5,2.7-9.1C20.8,22.6,21,21.5,21.2,20.8z"/>
			<path d="M16,18c1.6-1.5,3.3-2.8,4.9-3.9c-0.5-0.5-1-0.9-1.6-1.3c-1.3,1-3,1.9-4.8,2.3c-0.5,0.1-1,0.2-1.6,0.3
				c-2,0.4-3.9,0.7-5.5,1.6C7.2,18.2,7,19.3,7,20.5c0,2.7,0.8,5.1,2.2,7.2C10.2,24.1,13.3,20.5,16,18z"/>
			<path d="M21.9,13.4c1.5-1,2.8-1.6,3.6-1.9c0.7-0.2,1.5-0.4,2.2-0.5c-1.6-1.4-3.6-2.4-5.7-2.8c0,0.9,0.1,1.8-0.5,2.5
				c-0.3,0.3-0.7,0.8-1.2,1.3C20.9,12.5,21.4,12.9,21.9,13.4z"/>
			<path d="M22.4,21.2c-0.2,0.7-0.4,1.7-0.7,3c-0.8,3.6-1.7,6.9-2.6,8.9c0.1,0,0.3,0,0.4,0c2.9,0,5.6-1,7.7-2.7
				c-0.1-3.6-0.9-8.6-3.1-12.3C23.3,18.7,22.9,19.6,22.4,21.2z"/>
		</g>
	</g>
</g>
</svg>
