<?xml version="1.0" encoding="utf-8"?>
<!-- Generator: Adobe Illustrator 19.2.1, SVG Export Plug-In . SVG Version: 6.00 Build 0)  -->
<svg version="1.1" id="Layer_1" xmlns="http://www.w3.org/2000/svg" xmlns:xlink="http://www.w3.org/1999/xlink" x="0px" y="0px"
	 viewBox="0 0 40 40" style="enable-background:new 0 0 40 40;" xml:space="preserve">
<g>
	<path d="M16.5,29.4c1.2-0.1,2.4-0.6,3.4-1.6c0.9-0.9,1.5-2.1,1.6-3.4c-1.3,0-2.5,0.5-3.5,1.5C17,26.9,16.5,28.1,16.5,29.4z"/>
	<path d="M15.6,18.6c-1.2,0.1-2.4,0.6-3.4,1.6c-0.9,0.9-1.5,2.1-1.6,3.4c1.3,0,2.5-0.5,3.5-1.5C15.1,21.1,15.6,19.9,15.6,18.6z"/>
	<path d="M17.4,25.4c1.1-1.1,2.5-1.7,4-1.7c-0.1-1.3-0.6-2.6-1.6-3.5c-1-1-2.3-1.5-3.5-1.6c0,1.4-0.6,2.9-1.7,4
		c-1.1,1.1-2.5,1.7-4,1.7c0.1,1.3,0.6,2.6,1.6,3.5c1,1,2.3,1.5,3.5,1.6C15.8,27.9,16.4,26.5,17.4,25.4z"/>
</g>
<path d="M17.1,10.2c-1.3-1.3-3.8-1.7-5.1-0.5L9,12.8c-1.3,1.3-0.8,3.8,0.5,5.1l2,1.7c1.2-1.2,2.8-2,4.7-2c3.6,0,6.5,2.9,6.5,6.5
	c0,1.6-0.6,3-1.5,4.1l4.3,3.8l6.3-6.3L17.1,10.2z"/>
</svg>
