<?xml version="1.0" encoding="UTF-8" standalone="no"?>
<!-- Generator: Adobe Illustrator 17.0.0, SVG Export Plug-In . SVG Version: 6.00 Build 0)  -->

<svg
   xmlns:dc="http://purl.org/dc/elements/1.1/"
   xmlns:cc="http://creativecommons.org/ns#"
   xmlns:rdf="http://www.w3.org/1999/02/22-rdf-syntax-ns#"
   xmlns:svg="http://www.w3.org/2000/svg"
   xmlns="http://www.w3.org/2000/svg"
   xmlns:xlink="http://www.w3.org/1999/xlink"
   xmlns:sodipodi="http://sodipodi.sourceforge.net/DTD/sodipodi-0.dtd"
   xmlns:inkscape="http://www.inkscape.org/namespaces/inkscape"
   version="1.1"
   id="Layer_1"
   x="0px"
   y="0px"
   width="105.876"
   height="105.876"
   viewBox="0 0 105.876 105.876"
   enable-background="new 0 0 105.876 105.876"
   xml:space="preserve"
   inkscape:version="0.91 r13725"
   sodipodi:docname="Vector Smart Object19.svg"><metadata
     id="metadata21"><rdf:RDF><cc:Work
         rdf:about=""><dc:format>image/svg+xml</dc:format><dc:type
           rdf:resource="http://purl.org/dc/dcmitype/StillImage" /><dc:title></dc:title></cc:Work></rdf:RDF></metadata><defs
     id="defs19" /><sodipodi:namedview
     pagecolor="#ffffff"
     bordercolor="#666666"
     borderopacity="1"
     objecttolerance="10"
     gridtolerance="10"
     guidetolerance="10"
     inkscape:pageopacity="0"
     inkscape:pageshadow="2"
     inkscape:window-width="640"
     inkscape:window-height="480"
     id="namedview17"
     showgrid="false"
     fit-margin-top="0"
     fit-margin-left="0"
     fit-margin-right="0"
     fit-margin-bottom="0"
     inkscape:zoom="2.2290226"
     inkscape:cx="52.937999"
     inkscape:cy="52.937999"
     inkscape:window-x="0"
     inkscape:window-y="25"
     inkscape:window-maximized="0"
     inkscape:current-layer="Layer_1" /><g
     id="g3"><defs
       id="defs5"><rect
         id="SVGID_1_"
         y="0"
         width="105.876"
         height="105.876"
         x="0" /></defs><clipPath
       id="SVGID_2_"><use
         xlink:href="#SVGID_1_"
         overflow="visible"
         id="use9"
         style="overflow:visible"
         x="0"
         y="0"
         width="100%"
         height="100%" /></clipPath><circle
       clip-path="url(#SVGID_2_)"
       stroke-miterlimit="10"
       cx="52.938"
       cy="52.938"
       r="49.438"
       id="circle11"
       style="fill:none;stroke:#ffffff;stroke-width:7;stroke-linecap:round;stroke-miterlimit:10" /><path fill="#ffffff"
       clip-path="url(#SVGID_2_)"
       d="m 70.474,48.948 c -4.198,5.016 -10.499,8.216 -17.536,8.216 -7.037,0 -13.337,-3.2 -17.536,-8.216 -3.004,0.747 -5.251,3.468 -5.251,6.695 l 4.143,23.477 c 0,3.798 3.108,6.905 6.905,6.905 l 23.478,0 c 3.798,0 6.905,-3.107 6.905,-6.905 l 4.143,-23.477 c 0,-3.227 -2.247,-5.948 -5.251,-6.695"
       id="path13"
       inkscape:connector-curvature="0" /><path fill="#ffffff"
       clip-path="url(#SVGID_2_)"
       d="m 52.938,19.85 c -7.977,0 -14.444,6.467 -14.444,14.444 0,7.977 6.467,14.444 14.444,14.444 7.977,0 14.444,-6.467 14.444,-14.444 0,-7.977 -6.467,-14.444 -14.444,-14.444"
       id="path15"
       inkscape:connector-curvature="0" /></g></svg>
