<svg id="Layer_1" data-name="Layer 1" xmlns="http://www.w3.org/2000/svg" viewBox="0 0 64 64"><defs><style>.cls-1{fill:#fff;}</style></defs><title>Artboard 1</title><path class="cls-1" d="M61.14,58.81l-5-3.52a3.24,3.24,0,0,0-2.08-.51H51V35.15a.8.8,0,0,0-.48-.73v-.72l6.53,2c.73.23,1.57-.39,1.88-1.39a1.7,1.7,0,0,0-.75-2.22l-7.66-2.4v-6.5h0a3.4,3.4,0,1,0-2.74,0h0V29c-.72-.15-1.48-.29-2.21-.4l-4.38-.92-.62,2,4.12,1.74c1,.5,2.11,1,3.09,1.36v1.64a.8.8,0,0,0-.48.73V54.78h-3a3.24,3.24,0,0,0-2.08.51l-5,3.52c-1.38,1-.37,1.34-.37,1.34l10.73,3.62a5.86,5.86,0,0,0,3.19,0L61.5,60.16S62.52,59.79,61.14,58.81ZM52.23,20a.11.11,0,1,1,.22,0l-.1.71a.11.11,0,0,1,0,.07.11.11,0,0,1-.08,0,.11.11,0,0,1-.1-.13Zm-.38-.14a.11.11,0,1,1,.21.07l-.21.68a.11.11,0,0,1,0,.05.11.11,0,0,1-.18-.12Zm-.23-.21a.11.11,0,0,1,.05.15l-.31.63,0,0a.11.11,0,0,1-.17-.14l.31-.63A.11.11,0,0,1,51.62,19.66Zm-.36-.21a.11.11,0,0,1,0,.15l-.41.58,0,0a.11.11,0,0,1-.16-.15l.41-.58A.11.11,0,0,1,51.25,19.45Zm-.34-.25a.11.11,0,0,1,0,.16l-.51.53h0a.11.11,0,0,1-.15-.16l.51-.53A.11.11,0,0,1,50.92,19.2Zm-.47-.29a.11.11,0,0,1,.14.17l-.55.45h0a.11.11,0,1,1-.14-.17l.55-.45Zm-.06-.33a.11.11,0,0,1,0,.14h0l-.62.38a.11.11,0,0,1-.15,0,.11.11,0,0,1,0-.15l.62-.38A.11.11,0,0,1,50.39,18.58Zm-.17-.38a.11.11,0,0,1,0,.13l0,0-.65.28a.11.11,0,0,1-.09-.21l.65-.28A.11.11,0,0,1,50.22,18.2Zm-.13-.4a.11.11,0,0,1,0,.11l0,0-.68.17a.11.11,0,0,1-.05-.22l.68-.17A.11.11,0,0,1,50.09,17.8Zm-1.64,4.82.7-.06a.11.11,0,0,1,.12.1.12.12,0,0,1,0,.1l-.06,0-.7.06a.11.11,0,0,1,0-.22Zm-.16-.27a.11.11,0,0,1,.08-.14l.68-.17a.11.11,0,0,1,.1.19l0,0-.68.17A.11.11,0,0,1,48.29,22.35Zm.22.67.72.05a.11.11,0,0,1,.06.2.11.11,0,0,1-.08,0l-.72-.05a.11.11,0,1,1,0-.22ZM50,17.51l-.06,0-.71.07a.11.11,0,0,1-.12-.1.11.11,0,0,1,.1-.12l.71-.06a.11.11,0,0,1,.12.1A.12.12,0,0,1,50,17.51Zm-.82-.65.72.05A.11.11,0,0,1,50,17a.11.11,0,0,1,0,.08.11.11,0,0,1-.08,0l-.72-.05a.11.11,0,0,1-.1-.12A.11.11,0,0,1,49.17,16.85ZM49,21.59a.11.11,0,0,1,0,.13l0,0-.65.28a.11.11,0,0,1-.09-.2l.65-.28A.11.11,0,0,1,49,21.59Zm-.21-.52a.11.11,0,0,1,0,.14h0l-.62.38a.11.11,0,1,1-.12-.19l.62-.38A.11.11,0,0,1,48.81,21.07Zm-2.65-.93a.11.11,0,0,1,0,.07.11.11,0,0,1-.08,0,.11.11,0,0,1-.1-.13l.1-.71a.11.11,0,0,1,.13-.1.11.11,0,0,1,.1.13Zm.35.19a.11.11,0,0,1-.18-.12l.21-.68a.11.11,0,0,1,.21.07l-.21.68A.11.11,0,0,1,46.5,20.33Zm.38.15a.11.11,0,0,1-.12,0,.11.11,0,0,1-.05-.15l.31-.63a.11.11,0,0,1,.15-.05.11.11,0,0,1,.05.15l-.31.63Zm.38.21a.11.11,0,0,1-.16-.15l.41-.58a.11.11,0,0,1,.18.13l-.41.58Zm.35.26a.11.11,0,0,1-.15-.16l.51-.53a.11.11,0,0,1,.16.15l-.51.53Zm.16.27a.11.11,0,0,1,0-.16l.55-.45a.11.11,0,0,1,.14.17l-.56.45A.11.11,0,0,1,47.78,21.22Z"/><path class="cls-1" d="M13.36,57.44a2,2,0,0,0-.16.87.3.3,0,0,1-.59,0,2.61,2.61,0,0,1,.23-1.16A1.83,1.83,0,0,0,12.3,57c-.2.12-.5.44-.5,1.28a.3.3,0,0,1-.59,0,2,2,0,0,1,.6-1.64,1.6,1.6,0,0,1,0-.66l.1-.71c-.53,0-1,0-1.48,0A17.47,17.47,0,0,1,6.68,55l-.5,4.41c-.15,1.12,0,2.66,1.5,2.66h4s2.52,0,2.52-2.37A2.7,2.7,0,0,0,13.36,57.44Z"/><path class="cls-1" d="M23.11,53.87a148.16,148.16,0,0,0-2.85-18.54c-.11-.65-.21-1.44-.29-2.21-1.37.17-3,.33-4.91.45-.93.06-1.82.08-2.64.08-1.36,0-2.53-.06-3.45-.14,0,.39,0,.76,0,1.11l0,.12L6.8,54a19.51,19.51,0,0,0,5.2.29L14.09,39a1.07,1.07,0,0,1,.65-.83c.62-.24.81.59.81.59l1.82,8.18L18,54.27A15.19,15.19,0,0,0,23.11,53.87Z"/><path class="cls-1" d="M25.23,57.19a1.64,1.64,0,0,0-.32,1.12.3.3,0,0,1-.59,0A2.48,2.48,0,0,1,24.6,57h-.27l-.24,0c-.18.08-.59.35-.59,1.32a.3.3,0,0,1-.59,0,2.06,2.06,0,0,1,.59-1.64,1.12,1.12,0,0,1-.29-.5c0-.42,0-.86,0-1.3a15.45,15.45,0,0,1-3.77.45c-.5,0-1,0-1.33-.05l.38,4.5a2.53,2.53,0,0,0,2.36,2.31h3.37a2.53,2.53,0,0,0,1.06-4.88Z"/><path class="cls-1" d="M10.62,12.19a3,3,0,0,0-2.2-2.91h0l0,0a8.7,8.7,0,0,0,5.81-2.59l.2-.21a5.65,5.65,0,0,1,1.61,3.78,3,3,0,0,0-.73-4.53,4.14,4.14,0,0,0,3.32-1.65,13.75,13.75,0,0,0-3.29.07h0s-3.51-7.31-10-2.44c-7.3,5.49,0,12.57,0,12.57h0l.11.12h0a3,3,0,0,0,5.14-2.17Zm-3.77,1a1,1,0,1,1,1-1A1,1,0,0,1,6.84,13.18Z"/><path class="cls-1" d="M38.69,29l.55-1.75L38,26.87l-.51,1.63Z"/><path class="cls-1" d="M33.22,25.57s0,0,0-.06a1.86,1.86,0,0,0-1.44-1.63,71.51,71.51,0,0,1-13.62-9.11,1.85,1.85,0,0,0-1-.47A5.72,5.72,0,0,0,14.77,14,5.68,5.68,0,0,1,9,15.91a15.94,15.94,0,0,0-2,1.26c-2.68,1.93.73,7.7.73,7.7,1,1.79.88,4.08,1.11,6,.07.56.11,1.11.15,1.64a42.79,42.79,0,0,0,6.07.07c1.86-.11,3.52-.28,4.88-.45-.1-1.05-.16-1.87-.16-1.87,0-.67,0-1.4,0-2.18.43.14.86.27,1.29.38a1.83,1.83,0,0,0,.48.06h.06a49.43,49.43,0,0,0,5.39-.46c1.12-.14,2.51-.32,4.64-.53a1.85,1.85,0,0,0,1.25-.67l1.17.4.43-1.37Zm-11.54-.76c-.7-.2-1.4-.43-2.1-.69,0-.58,0-1.16-.06-1.71l1.16,1.13h0l.09.05c.32.13.84-.36,1.3-1.17,1,.66,2.08,1.37,3.29,2.1C24.23,24.65,23.25,24.75,21.68,24.81Z"/><path class="cls-1" d="M37.62,26.79l-1.28-.34-.47,1.49,1.25.45Z"/><path class="cls-1" d="M40.26,29.55l.61-1.94-1.29-.32L39,29.08Z"/><path class="cls-1" d="M34.73,26l-.43,1.39,1.25.44L36,26.35Z"/><path class="cls-1" d="M14.39,7.36l0-.05,0,0C13.13,9.24,9.77,9.58,9.77,9.58a2.53,2.53,0,0,1,1.37,2.48,2.92,2.92,0,0,1-1.41,2.8,3.49,3.49,0,0,0,1.21.09,4.68,4.68,0,0,0,4.55-4.61s0,0,0,0h0A4.66,4.66,0,0,0,14.39,7.36Z"/></svg>