<svg id="Layer_1" data-name="Layer 1" xmlns="http://www.w3.org/2000/svg" viewBox="0 0 64 64"><defs><style>.cls-1{fill:#fff;}</style></defs><title>after-school</title><path class="cls-1" d="M27,19.5c-1.38,0-1.31.77-1.5,1.89a12.41,12.41,0,0,1-1.47,4c-2.18,3.8-6.93,6.42-11.32,5.59A10.47,10.47,0,0,1,10,30.16a8.77,8.77,0,0,1-3-2.41A14.58,14.58,0,0,1,4.84,24a11.16,11.16,0,0,1-.94-3.88s0-4-2-3.67c0,0-1.71,0-1.24,3.72,0,0,0,8.24,5.6,13.15a5.23,5.23,0,0,1,1.88,3.76,23.62,23.62,0,0,0,1.35,7.38c.63,1.75,2.36,4.38,1.33,5.22C9.1,51.12,6.8,46.8,5.65,45.78,4.91,45.12,4.1,44.59,3.1,45c0,0-1.21.53,0,2.71,0,0,3.41,6.92,7.47,7.34A4.42,4.42,0,0,0,15.63,52a17.51,17.51,0,0,0,.49-3.59s0-1.06,1-.9c0,0,2.94-.56,2.94,14.3,0,0-.13,2.18,1.2,2.14,0,0,1.37.47,1.62-2.39.46-5.08.86-10.11-.83-15a18,18,0,0,0-1.82-3.82c-.66-1-1.59-2-1.75-3.28a17.21,17.21,0,0,1,0-4,2,2,0,0,1,1.34-1.56,12.13,12.13,0,0,0,8.33-11.47S28.37,19.5,27,19.5Z"/><path class="cls-1" d="M55.53,32s7.33-1.54,7.81-8.65c0,0,.35-1.92-1.25-2-.64,0-.94.7-1.1,1.19a9.92,9.92,0,0,1-4.63,5.1,9.51,9.51,0,0,1-2,.84,13.32,13.32,0,0,1-8.05-.69l-.55-.22a8.74,8.74,0,0,1-2.17-1.29,8.91,8.91,0,0,1-2.59-4,14.91,14.91,0,0,1-.74-4s.26-3.27-2.24-3.14c0,0-1.45-.13-1.41,3.39,0,0-.51,7.75,5.64,11.66a1.91,1.91,0,0,1,1.06,2.34s-2.46,6-1.83,16.28c0,0-.12,1.17,1,.89,0,0,1.5-.77,1.67.83,0,0,1.11,6.58,4.91,10.38,0,0,1.59,1.56,2.46.79,0,0,.8-.47-.35-2.34,0,0-3.36-6.88-2.66-10.1,0,0,.13-1.05.77-1l.56-.06c.65-.06.89.51,1.16,1.22a8.16,8.16,0,0,0,4,4,6.44,6.44,0,0,0,2.79.68s4.56.06,4.75-1.5c0,0,.13-1.17-1.94-1.1,0,0-4.6.52-5.92-3.75,0,0-.39-1,.64-1.22l1.51-.28s1.47-.26.58-2.08a36.48,36.48,0,0,1-2.47-10.54S54.57,32,55.53,32Z"/><circle class="cls-1" cx="30.48" cy="6.15" r="6.15"/><path class="cls-1" d="M53.22,26.47a4.73,4.73,0,0,0,1.93-4.31l0,.06s-.14-.72.43-.28a1.21,1.21,0,0,1,.11.15c.59,1,.05,2.27.46,3.32a3,3,0,0,0,2.34,2.08,1.91,1.91,0,0,0,.71-.1c.23-.08.93-.39,0-.68h0c-.85-.33-1-1.56-.81-2.63.32-1.71.36-3.83-1.79-4.24a2.34,2.34,0,0,0-1.72.34.48.48,0,0,1-.51,0c-.06-.09-.11-.19-.18-.28a4.72,4.72,0,1,0-1.07,6.6Z"/><path class="cls-1" d="M14.67,29.68a5,5,0,0,0,4.47-5.39,4.59,4.59,0,0,0-.17-.82l1.66-.18a.62.62,0,0,0-.14-1.23l-1.09.12a2.75,2.75,0,0,1-1.87-.94h0A5.11,5.11,0,0,0,13.59,20a4.86,4.86,0,1,0,1.08,9.66Z"/></svg>