<svg id="Layer_1" data-name="Layer 1" xmlns="http://www.w3.org/2000/svg" viewBox="0 0 64 64"><defs><style>.cls-1{fill:#fff;}</style></defs><title>child-watch</title><circle class="cls-1" cx="53.39" cy="18.1" r="10.61"/><path class="cls-1" d="M54.31,47.15,50.15,32.89a7.31,7.31,0,0,0-7-5.25H22.61l-.42,0a7.22,7.22,0,0,0-6.53,3.59,14,14,0,0,0-1.67,7,19.61,19.61,0,0,0,.35,3.6h-7a7.31,7.31,0,0,0,0,14.61H28.18a7.31,7.31,0,0,0,6.81-10l-1.68-4.3h4.36l2.63,9a7.3,7.3,0,1,0,14-4.1ZM23.15,38.41c-1.9,0-4.43.83-5.64,4.79a5.22,5.22,0,0,1-.27.71c-.78-1.34-1.71-6-.48-9.81.91-2.85,2.73-4.29,5.41-4.29a10.37,10.37,0,0,1,2.62.38,77.56,77.56,0,0,0,3.13,9.55A11.23,11.23,0,0,0,23.15,38.41Z"/></svg>