<svg id="Layer_1" data-name="Layer 1" xmlns="http://www.w3.org/2000/svg" viewBox="0 0 64 64"><defs><style>.cls-1{fill:#fff;}</style></defs><title>day-camp</title><path class="cls-1" d="M55,20.18a2.17,2.17,0,0,0,2.76-3.35,1.59,1.59,0,0,1,1-.12l.21.08.33.13a1.48,1.48,0,0,0,.3.06,1.38,1.38,0,0,0,1.27-.58,1.25,1.25,0,0,0,.2-.62c0-.14-.09-.21-.18-.12s-.4.51-1.26.26l-.2-.07-.22-.09-.14,0a1.51,1.51,0,0,0-.28-.06,1.38,1.38,0,0,0-1.27.58,1.19,1.19,0,0,0-.15.34A2.18,2.18,0,0,0,55,20.18Z"/><path class="cls-1" d="M18,24.22A3.37,3.37,0,0,0,20.81,19a1.49,1.49,0,0,0,1.42-1.49v0H18a3.37,3.37,0,0,0,0,6.75Z"/><path class="cls-1" d="M25.62,17.35a.74.74,0,0,0-1.42.41h0v.11a6.6,6.6,0,0,1-.08,2.94,5.83,5.83,0,0,1-4.86,4.53h0a12.71,12.71,0,0,1-7.94-1,5.92,5.92,0,0,1-2.54-4,6.6,6.6,0,0,1,.13-2.94v0l0-.06v0H9a.74.74,0,0,0-1.38-.51h0a7.4,7.4,0,0,0-.69,3.73,8.71,8.71,0,0,0,6.29,8A13.25,13.25,0,0,1,1.76,41.63l-.56.06-.21,0h0a1,1,0,0,0-.29.07,1,1,0,0,0-.1,1.9h0a1,1,0,0,0,.35.1c2.2.49,6.87-1.05,6.87-1.05s.28-.07.76-.24a19.13,19.13,0,0,0,6.42-4,16.5,16.5,0,0,0,2.23-2.6A16.47,16.47,0,0,0,20,28.43l.24-.09.42-.16A8.44,8.44,0,0,0,26,21.12a7.4,7.4,0,0,0-.42-3.77Z"/><path class="cls-1" d="M33.94,13.54c-2.54.46-4.41,1.6-4.31,2.17s2.25.66,4.78.19,4.51-1.3,4.4-1.88S36.48,13.08,33.94,13.54Z"/><path class="cls-1" d="M63.88,40.32h0a18.88,18.88,0,0,1-5.2-10.53l-.11-1.1A13.55,13.55,0,0,1,59.19,23,5.41,5.41,0,0,0,63,18a4.62,4.62,0,0,0-.43-2.33h0a.46.46,0,0,0-.85.31h0l0,0h0a4.08,4.08,0,0,1,.08,1.81,3.69,3.69,0,0,1-1.62,2.55,8,8,0,0,1-4.92.59h0a3.64,3.64,0,0,1-3-2.86,4.09,4.09,0,0,1,0-1.81h0v0h0a.46.46,0,0,0-.87-.25h0a4.62,4.62,0,0,0-.27,2.35,5.25,5.25,0,0,0,3.28,4.37,17.9,17.9,0,0,0,.26,6.51,2,2,0,0,0-2.22,1.32s-.92,2.56,2.29,7.45v0l0,.06h0a.42.42,0,0,0,.4.13.48.48,0,0,0,.38-.55.44.44,0,0,0,0-.07h0s-1.65-3.63-.88-4.93c0,0,.43-.77,1-.76.34,0,.51.36.51.36,1.28,2.6,3.69,6.65,7.13,8.73h0l0,0h0a.47.47,0,0,0,.7-.49A.46.46,0,0,0,63.88,40.32Z"/><path class="cls-1" d="M17.83,36.81c0-.11-.17-.4-.32-.2l-.18.23a13.79,13.79,0,0,1-2,2.26.62.62,0,0,0-.15.58h0A16.27,16.27,0,0,1,13,49a1,1,0,0,0,.3,1.57,1,1,0,0,0,1,0h0a1.05,1.05,0,0,0,.29-.22c1.71-1.47,3.28-6.13,3.28-6.13A11.85,11.85,0,0,0,17.83,36.81Z"/></svg>