<svg id="Layer_1" data-name="Layer 1" xmlns="http://www.w3.org/2000/svg" viewBox="0 0 64 64"><defs><style>.cls-1{fill:#fff;}</style></defs><title>family-pool</title><path class="cls-1" d="M37.83,40.29a30.84,30.84,0,0,1-4.37-4.78,16.09,16.09,0,0,1-1.84-2.71C30.49,30.74,29.34,28,31.3,26c1.24-1.26,2.57-1.27,4.05,0a24.15,24.15,0,0,1,2.67,3c.41.41,1.69,1.66,1.45.51a15.81,15.81,0,0,1-.55-3.27,7,7,0,0,1,.52-3,8.07,8.07,0,0,1,2.32-3l3.48-3.08A33.18,33.18,0,0,0,50.74,11a8.07,8.07,0,0,0,1.64-3.55,3.68,3.68,0,0,0-1.26-3c-1.26-.78-2.59-.14-3.66.66a10.89,10.89,0,0,0-1.19,1.12c-1,1-1.94,2.08-3,3.05a27,27,0,0,1-8.55,5.41c-6,2.37-12.55,2.91-18.86,4.16A115.1,115.1,0,0,1,3.58,20.17C.81,20.28-.36,25,4.78,25.35c6.1.39,11.29.43,15.22.55a1.63,1.63,0,0,1,1.75,1.39,18.76,18.76,0,0,1,.68,5c0,1.58-.32,3.19-.21,4.76.05.69.5.45.87.37a7.45,7.45,0,0,1,6.43,2.27,6.4,6.4,0,0,1,.9,6.2c-.08.19-.58.82-.39,1,.36.31,1.48-.64,1.8-.84a30,30,0,0,0,2.8-1.9c1.45-1.15,2.92-2,4.71-.1a18.57,18.57,0,0,0-.23-2.59Zm-5.41,6.6a12.83,12.83,0,0,1-3.67,1.93c-4.9,1.56-10.07-.32-14.51-2.36a1.72,1.72,0,0,0-1.57-.1c-.52.29-.35.92-.29,1.4a3.16,3.16,0,0,0,.95,1.89A20.33,20.33,0,0,0,19.74,54c1.13.48.77,2.47.77,3.41,0,2.13.06,4.25.13,6.38a37.13,37.13,0,0,0,11-.54c0-2.77.05-5.53,0-8.3a3.11,3.11,0,0,1,1.5-2.78c4-2.95,5.18-5.14,5-7C37.95,42.09,33.29,46.24,32.42,46.89Zm29.74-23c-1.42-.78-1.84-.71-2.64.67S58,27.53,57.13,29c-2,3.38-4.44,6.19-8.57,6.91a10.24,10.24,0,0,1-2.19.09,9,9,0,0,1-2.77-.63c-3.3-1.32-5.35-4.47-7.6-7-.36-.41-.7-.83-1.08-1.21a2,2,0,0,0-2.25-.67,2.23,2.23,0,0,0-1.43,2,5.16,5.16,0,0,0,.51,2.28,17.18,17.18,0,0,0,2.56,4.2q.6.76,1.23,1.48c.77.88,1.57,1.73,2.4,2.56a18,18,0,0,0,2.41,2.26c.44.3,1,.45,1,1.07.13,2.58.29,5.16.39,7.74q.2,4.84.6,9.65a41.86,41.86,0,0,0,6.48-4c0-.08,0-.16,0-.24s0,.12,0,.18a42.85,42.85,0,0,0,6.27-5.84c0-2.4-.12-4.8-.21-7.2a2.9,2.9,0,0,1,.91-2.42,21.86,21.86,0,0,0,5.81-8.62,22.86,22.86,0,0,0,1.08-5.67A3.14,3.14,0,0,0,62.16,23.89ZM46.7,24.3c-2.4,0-5.28,2.28-4.88,5.08S44,34.47,46.7,34.47a5,5,0,0,0,4.88-5.08A4.76,4.76,0,0,0,46.7,24.3Zm-26.54-16c.4,3.53,2.88,6.44,6.44,6.44A6.44,6.44,0,0,0,33,8.27a7.22,7.22,0,0,0-6.95-6.81A6.06,6.06,0,0,0,20.16,8.27Zm4.62,39.55a4.6,4.6,0,0,0,4.42-4.52,4.47,4.47,0,0,0-4.42-4.52c-2.44,0-4.52,1-4.72,4.07A4.48,4.48,0,0,0,24.78,47.83ZM35.46,5.74a2.92,2.92,0,0,0,2.81-2.87A2.84,2.84,0,0,0,35.46,0c-1.55,0-2.87.66-3,2.59A2.85,2.85,0,0,0,35.46,5.74Zm-1.75.81a6.76,6.76,0,0,1,.23,1.72,7.31,7.31,0,0,1-1.2,4c0,.52,0,1.28,0,2.15.55-.19,1.09-.38,1.63-.59a25.7,25.7,0,0,0,5.44-2.93c0-.23,0-.44,0-.61a1.68,1.68,0,0,1,1-1.77c.77-.29,1.1-.91,1.62-1.39A4.12,4.12,0,0,0,44,4c-.15-1.95-3.11.69-3.66,1.11A8.12,8.12,0,0,1,38,6.37,8.79,8.79,0,0,1,33.71,6.56Z"/></svg>