<svg id="Layer_1" data-name="Layer 1" xmlns="http://www.w3.org/2000/svg" viewBox="0 0 64 64"><defs><style>.cls-1{fill:#fff;}</style></defs><title>gardening</title><path class="cls-1" d="M23.88,9.56a.61.61,0,0,0,.61-.61V5.12l4.9,1.73.1,0a.31.31,0,0,0,.31-.31V2.48a.31.31,0,0,0-.41-.29l-5.61,2a.61.61,0,0,0-.23.1h0a.6.6,0,0,0-.27.5V8.95A.61.61,0,0,0,23.88,9.56Z"/><path class="cls-1" d="M24.49,31.22V13.57a.61.61,0,1,0-1.22,0V31.22a.61.61,0,0,0,1.22,0Z"/><path class="cls-1" d="M30.85,34a2.93,2.93,0,0,0,2.73-3.51h1.54a.59.59,0,0,0,0-1.18H33l-.6-1.25a.41.41,0,0,0-.35-.23H29.39a.41.41,0,0,0-.35.23l-.54,1.13-.1.13h-2a.59.59,0,1,0,0,1.18h1.49a3.31,3.31,0,0,0-.09.67A3.61,3.61,0,0,1,27.21,33a.18.18,0,0,0,.15.27h1.38A2.92,2.92,0,0,0,30.85,34Z"/><path class="cls-1" d="M44.94,44.21h0a.6.6,0,0,1,.23-.42l3-2.64a.49.49,0,0,0-.35-.84.48.48,0,0,0-.23.07h0L44.93,42s-.31.18-.42-.14h0a2.3,2.3,0,0,0-3.71-.79.63.63,0,0,0-.19-.21h0L33.36,35.4,33,35.12h0a3,3,0,0,0-4.36,3.76h0a20.56,20.56,0,0,1,1.66,7.28,11.59,11.59,0,0,1-2.42,7.1l-.09.2a.22.22,0,0,0,.18.28,27.91,27.91,0,0,0,3.47.36h0a.45.45,0,0,1,.43.5c0,.09,0,.19,0,.28h0A22.33,22.33,0,0,1,30.29,61l0,0h0a.56.56,0,0,0,.66.72.55.55,0,0,0,.3-.19h0l0,0v0A19.9,19.9,0,0,0,34.44,54a1.61,1.61,0,0,1,2.1.56c1.07,1.29,0,5.38-.1,5.82v0h0a.48.48,0,0,0,0,.09.56.56,0,0,0,.55.57.49.49,0,0,0,.44-.22h0l0-.07v0a16.63,16.63,0,0,0,1.7-6.54h0s0,0,0,0,0-.19,0-.28c0-.62.41-.68.41-.68h0a14.07,14.07,0,0,0,2.12-.77.21.21,0,0,0,.08-.34L41.63,52c-3.5-2-6.39-5.74-6.39-10.07a18.05,18.05,0,0,1,.06-2.14c.05-.2.21-.16.3-.12l4.27,2.29L40,42h0l.17,0a2.3,2.3,0,0,0-.11.7v5a.58.58,0,0,0,.58.58h3.71a.58.58,0,0,0,.58-.58Zm-1.71-2h-1.7c-.32,0-.43-.21-.25-.48a1.3,1.3,0,0,1,2.2,0C43.66,42,43.55,42.22,43.23,42.22Z"/><path class="cls-1" d="M14.73,43.09l-.41.16a1.3,1.3,0,0,1,.41.73.91.91,0,0,0,1,.74,1.29,1.29,0,0,1,.68.1l0-.15a1.16,1.16,0,0,1,1.35-.83.73.73,0,0,0,.6-.14,4,4,0,0,0-1.16-.62l-.35.34a1.32,1.32,0,0,1-1.81,0Z"/><path class="cls-1" d="M17.72,47.13a.91.91,0,0,0,1-.74,1.14,1.14,0,0,1-.66-.3.75.75,0,0,0-1,0,1.16,1.16,0,0,1-1.59,0,.75.75,0,0,0-1,0l-.27.26v0a.91.91,0,0,0,1,.74,1.33,1.33,0,0,1,1.28.61A1.33,1.33,0,0,1,17.72,47.13Z"/><path class="cls-1" d="M15.26,48.94a.92.92,0,0,0,1-.61v0a.92.92,0,0,0-1-.77,1.32,1.32,0,0,1-1.46-1.07.91.91,0,0,0-1-.74l-.24,0-.36,0H12.1a.82.82,0,0,0-.35.15h0a.21.21,0,0,0,0,.31h0a.45.45,0,0,1,.25.44h0s0,.08,0,.13a4,4,0,0,0,1.77,3.31l0-.15A1.32,1.32,0,0,1,15.26,48.94Z"/><path class="cls-1" d="M20,46.86c0-.11,0-.21,0-.31h0a.5.5,0,0,1,.27-.51h0a.22.22,0,0,0,.14-.2.21.21,0,0,0,0-.09.22.22,0,0,0-.2-.12h0a1.56,1.56,0,0,0-.31.1l-.15.08a.9.9,0,0,0-.52.66,1.33,1.33,0,0,1-1.46,1.07.91.91,0,0,0-1,.74,1.33,1.33,0,0,1-1.46,1.07.91.91,0,0,0-1,.74l-.05.3A4,4,0,0,0,20,46.86Z"/><path class="cls-1" d="M13.93,43.46a4,4,0,0,0-1.63,1.91l.4-.05a1.33,1.33,0,0,1,1.28.62l.15-.14a1.17,1.17,0,0,1,1.59,0,.75.75,0,0,0,1,0h0a.91.91,0,0,0-1-.66,1.33,1.33,0,0,1-1.46-1.07A.9.9,0,0,0,13.93,43.46Z"/><path class="cls-1" d="M16.61,43.13l.18-.17a4,4,0,0,0-1.6,0l.18.17A.91.91,0,0,0,16.61,43.13Z"/><path class="cls-1" d="M19.67,45.36A4,4,0,0,0,18.72,44a1.15,1.15,0,0,1-1,.27.75.75,0,0,0-.87.54l-.07.28a1.32,1.32,0,0,1,.35.5,1.17,1.17,0,0,1,1.22.23.73.73,0,0,0,.52.2A1.34,1.34,0,0,1,19.67,45.36Z"/><path class="cls-1" d="M9.46,56a1.33,1.33,0,0,1,1.28.61A1.33,1.33,0,0,1,12,56a.91.91,0,0,0,1-.74,1.13,1.13,0,0,1-.66-.3.75.75,0,0,0-1,0,1.16,1.16,0,0,1-1.59,0,.75.75,0,0,0-1,0l-.27.26v0A.92.92,0,0,0,9.46,56Z"/><path class="cls-1" d="M9,51.92l-.41.16a1.28,1.28,0,0,1,.41.73.92.92,0,0,0,1,.74,1.3,1.3,0,0,1,.68.1l0-.15a1.16,1.16,0,0,1,1.36-.83.74.74,0,0,0,.6-.14,4,4,0,0,0-1.16-.62l-.35.34a1.33,1.33,0,0,1-1.81,0Z"/><path class="cls-1" d="M8.22,52.3A4,4,0,0,0,6.6,54.2l.4-.05a1.33,1.33,0,0,1,1.28.62l.15-.15a1.17,1.17,0,0,1,1.59,0,.75.75,0,0,0,1,0h0a.91.91,0,0,0-1-.66,1.32,1.32,0,0,1-1.46-1.07A.9.9,0,0,0,8.22,52.3Z"/><path class="cls-1" d="M14,54.19A4,4,0,0,0,13,52.81a1.15,1.15,0,0,1-1,.27.75.75,0,0,0-.88.54l-.07.28a1.3,1.3,0,0,1,.35.5,1.17,1.17,0,0,1,1.22.23.74.74,0,0,0,.52.2A1.34,1.34,0,0,1,14,54.19Z"/><path class="cls-1" d="M10.9,52l.18-.17a4,4,0,0,0-1.6,0l.18.17A.91.91,0,0,0,10.9,52Z"/><path class="cls-1" d="M9.56,57.78a.91.91,0,0,0,1-.61v0a.92.92,0,0,0-1-.77A1.32,1.32,0,0,1,8.06,55.3a.91.91,0,0,0-1-.74l-.24,0-.36,0H6.39A.85.85,0,0,0,6,54.8H6A.22.22,0,0,0,6,55a.21.21,0,0,0,.08.17h0a.45.45,0,0,1,.25.44h0s0,.09,0,.13A4,4,0,0,0,8.08,59l0-.15A1.32,1.32,0,0,1,9.56,57.78Z"/><path class="cls-1" d="M14.43,54.46h0a1.66,1.66,0,0,0-.31.1l-.15.08a.91.91,0,0,0-.52.66A1.32,1.32,0,0,1,12,56.37a.91.91,0,0,0-1,.74,1.32,1.32,0,0,1-1.46,1.07.91.91,0,0,0-1,.74l-.05.3a4,4,0,0,0,5.81-3.53c0-.1,0-.21,0-.31h0a.5.5,0,0,1,.26-.51h0a.22.22,0,0,0,.14-.2.21.21,0,0,0,0-.09A.22.22,0,0,0,14.43,54.46Z"/><path class="cls-1" d="M22.32,52l.18-.17a4,4,0,0,0-1.6,0l.18.17A.91.91,0,0,0,22.32,52Z"/><path class="cls-1" d="M20.87,56a1.32,1.32,0,0,1,1.28.61A1.33,1.33,0,0,1,23.43,56a.92.92,0,0,0,1-.74,1.14,1.14,0,0,1-.66-.3.75.75,0,0,0-1,0,1.16,1.16,0,0,1-1.59,0,.75.75,0,0,0-1,0l-.27.26v0A.92.92,0,0,0,20.87,56Z"/><path class="cls-1" d="M20.44,51.92l-.41.16a1.28,1.28,0,0,1,.41.73.92.92,0,0,0,1,.74,1.28,1.28,0,0,1,.68.1l0-.15a1.16,1.16,0,0,1,1.36-.83.74.74,0,0,0,.6-.14A4,4,0,0,0,23,51.92l-.35.34a1.33,1.33,0,0,1-1.81,0Z"/><path class="cls-1" d="M25.37,54.2a4,4,0,0,0-.94-1.38,1.16,1.16,0,0,1-1,.27.75.75,0,0,0-.87.54l-.07.28a1.31,1.31,0,0,1,.35.5,1.17,1.17,0,0,1,1.22.23.73.73,0,0,0,.52.2A1.34,1.34,0,0,1,25.37,54.2Z"/><path class="cls-1" d="M21,57.78a.91.91,0,0,0,1-.61v-.05a.92.92,0,0,0-1-.74,1.33,1.33,0,0,1-1.46-1.07.91.91,0,0,0-1-.74l-.24,0-.36,0h-.06a.86.86,0,0,0-.35.15h0a.22.22,0,0,0-.06.14.21.21,0,0,0,.08.17h0a.45.45,0,0,1,.25.44h0s0,.09,0,.13A4,4,0,0,0,19.49,59l0-.15A1.33,1.33,0,0,1,21,57.78Z"/><path class="cls-1" d="M19.64,52.3A4,4,0,0,0,18,54.2l.4-.05a1.32,1.32,0,0,1,1.28.62l.15-.15a1.17,1.17,0,0,1,1.59,0,.75.75,0,0,0,1,0h0a.91.91,0,0,0-1-.66A1.32,1.32,0,0,1,20,52.89.89.89,0,0,0,19.64,52.3Z"/><path class="cls-1" d="M25.84,54.46h0a1.65,1.65,0,0,0-.31.1l-.16.08,0,0h0a.9.9,0,0,0-.47.63,1.32,1.32,0,0,1-1.46,1.07.92.92,0,0,0-1,.74,1.32,1.32,0,0,1-1.46,1.07.91.91,0,0,0-1,.74l-.05.3a4,4,0,0,0,5.81-3.53c0-.1,0-.21,0-.31h0a.5.5,0,0,1,.27-.51h0a.22.22,0,0,0,.14-.2.21.21,0,0,0,0-.09A.22.22,0,0,0,25.84,54.46Z"/><path class="cls-1" d="M47.89,52.73a2,2,0,0,0-.29.38.22.22,0,0,1-.37,0h0a2,2,0,0,0-.3-.37A2.12,2.12,0,0,0,45,52.15a2.12,2.12,0,0,0,2,2.56h.83a2.12,2.12,0,0,0,2-2.56A2.12,2.12,0,0,0,47.89,52.73Z"/><path class="cls-1" d="M47.41,54.92a1.16,1.16,0,0,0-1.16,1.16,1.12,1.12,0,0,0,0,.13h0l.35,3.93a.81.81,0,0,0,1.62,0l.34-3.93h0a1.11,1.11,0,0,0,0-.13A1.16,1.16,0,0,0,47.41,54.92Z"/><path class="cls-1" d="M55.82,52.73a2,2,0,0,0-.29.38.22.22,0,0,1-.37,0h0a2,2,0,0,0-.3-.37,2.12,2.12,0,0,0-1.94-.58,2.12,2.12,0,0,0,2,2.56h.83a2.12,2.12,0,0,0,2-2.56A2.12,2.12,0,0,0,55.82,52.73Z"/><path class="cls-1" d="M55.34,54.92a1.16,1.16,0,0,0-1.16,1.16,1.11,1.11,0,0,0,0,.13h0l.34,3.93a.81.81,0,0,0,1.62,0l.34-3.93h0a1.11,1.11,0,0,0,0-.13A1.16,1.16,0,0,0,55.34,54.92Z"/><path class="cls-1" d="M51.79,46.81h0a2.12,2.12,0,0,0,2-2.56,2.12,2.12,0,0,0-1.94.58,2,2,0,0,0-.3.38.22.22,0,0,1-.37,0h0a2.2,2.2,0,0,0-.29-.37,2.12,2.12,0,0,0-1.94-.58,2.12,2.12,0,0,0,2,2.56h.83Z"/><path class="cls-1" d="M51.37,47a1.16,1.16,0,0,0-1.16,1.16,1.11,1.11,0,0,0,0,.13h0l.34,3.93a.81.81,0,0,0,1.62,0l.34-3.93h0s0-.08,0-.13A1.16,1.16,0,0,0,51.37,47Z"/><path class="cls-1" d="M7.18,33.62a.77.77,0,0,0,.69-.44h0l4.24-8.7h0l.1-.21c.06-.11.15-.21.25-.21s.21-.06.3.6l1.06,8.26V33h0a.76.76,0,0,0,1.51-.18l.58-10.05V14.53a.77.77,0,0,1,.48-.76l8.19-1.63h0a.71.71,0,0,0-.09-1.42H13a2.65,2.65,0,0,0-2.65,2.65c0,.09,0,.17,0,.26h0a25,25,0,0,1-.69,8.71L6.47,32.56a.77.77,0,0,0,.7,1.06Z"/><path class="cls-1" d="M13.46,9.66a3.08,3.08,0,0,0,3.06-2.84H18A.43.43,0,1,0,18,6H16.49a3.07,3.07,0,0,0-2.66-2.74.44.44,0,0,0-.8,0,3.07,3.07,0,0,0-2.67,3v.41h0A3.07,3.07,0,0,0,13.46,9.66Zm0-5.65a2.26,2.26,0,0,1,2.22,1.84H11.22A2.26,2.26,0,0,1,13.44,4Z"/><path class="cls-1" d="M32,26.88a1.23,1.23,0,0,0,1.23-1.23V4.11a1.23,1.23,0,0,0-2.45,0V25.66A1.23,1.23,0,0,0,32,26.88Z"/><path class="cls-1" d="M11.66,30.42a1.23,1.23,0,0,0-1.58.72L.08,57.93a1.23,1.23,0,1,0,2.3.86L12.38,32A1.23,1.23,0,0,0,11.66,30.42Z"/><path class="cls-1" d="M19.41,9.27A1.22,1.22,0,0,0,21,8.55l1.51-4a1.22,1.22,0,1,0-2.29-.86l-1.51,4A1.23,1.23,0,0,0,19.41,9.27Z"/><path class="cls-1" d="M63.93,57.94,55.82,35.68a1.23,1.23,0,1,0-2.3.84l8.11,22.25a1.22,1.22,0,0,0,1.15.8,1.21,1.21,0,0,0,.42-.07A1.22,1.22,0,0,0,63.93,57.94Z"/><path class="cls-1" d="M43.45,9.4a1.22,1.22,0,1,0,2.28-.91L43.79,3.62a1.23,1.23,0,0,0-2.28.91Z"/><path class="cls-1" d="M49.52,42.86a7.12,7.12,0,0,0-.45-1c-.12-.25-.33-.25-.46,0a7.13,7.13,0,0,0-.45,1,.68.68,0,1,0,1.35,0Z"/><path class="cls-1" d="M42.63,13.57a2.57,2.57,0,0,0,5.13.21,1.87,1.87,0,0,1,.85.88,2.56,2.56,0,0,1,.08.25,2.88,2.88,0,0,0,.11.41,1.72,1.72,0,0,0,.15.33,1.63,1.63,0,0,0,1.45.78,1.48,1.48,0,0,0,.73-.25c.14-.09.14-.23,0-.25-.38-.05-.77,0-1.14-1a2.15,2.15,0,0,1-.08-.24c0-.09,0-.18-.07-.27a1.38,1.38,0,0,0-.05-.17,1.74,1.74,0,0,0-.15-.31,1.63,1.63,0,0,0-1.45-.78,1.43,1.43,0,0,0-.43.1,2.57,2.57,0,0,0-5.12.31Z"/><path class="cls-1" d="M39.38,17.9h.05a21.45,21.45,0,0,1,5.06.46s.48.13.31.87l-2.12,6.38v.05h0a.69.69,0,0,0,1.23.6h0L46.44,22a7.55,7.55,0,0,1,1.25,2.2,3.84,3.84,0,0,1-.81,3.8h0l0,0A8.85,8.85,0,0,0,45,31.39v.09a2.15,2.15,0,0,0,1.57,2.3h8.92a.82.82,0,0,0,.11-1.62h0l-5.9-.62c-.13,0-.19-.09-.18-.16a.4.4,0,0,1,.21-.32h0A7.6,7.6,0,0,0,47.38,16.9h0a27.23,27.23,0,0,0-8-.37h0a.69.69,0,0,0,0,1.38Z"/><path class="cls-1" d="M39.36,23.17c.13.29.33.29.46,0L41,20.39a.54.54,0,0,0-.31-.73l-.51-.19v-.72a.61.61,0,1,0-1.23,0v.72l-.51.19a.54.54,0,0,0-.31.73Z"/><path class="cls-1" d="M39.59,16.19a.61.61,0,0,0,.61-.61v-.4a.61.61,0,0,0-1.23,0v.4A.61.61,0,0,0,39.59,16.19Z"/></svg>