<?xml version="1.0" encoding="utf-8"?>
<!-- Generator: Adobe Illustrator 16.0.0, SVG Export Plug-In . SVG Version: 6.00 Build 0)  -->
<!DOCTYPE svg PUBLIC "-//W3C//DTD SVG 1.1//EN" "http://www.w3.org/Graphics/SVG/1.1/DTD/svg11.dtd">
<svg version="1.1" id="Layer_1" xmlns="http://www.w3.org/2000/svg" xmlns:xlink="http://www.w3.org/1999/xlink" x="0px" y="0px"
	 width="468px" height="468px" viewBox="0 0 468 468" enable-background="new 0 0 468 468" xml:space="preserve">
<path fill="#FFFFFF" d="M442.628,316.865c-3.214-1.174-6.614-0.787-9.379,0.774c-18.173-11.6-70.335-40.952-155.478-57.761
	c-28.451-5.617-99.691-37.344-98.968-39.32c0.707-1.932-0.287-4.065-2.215-4.775c-1.933-0.704-4.071,0.286-4.778,2.218
	c0.707-1.932-0.285-4.067-2.216-4.779c-1.929-0.703-4.063,0.285-4.775,2.208l4.886-13.336l-0.002,0
	c1.416-3.862-0.568-8.14-4.429-9.553l6.992,2.56l0.042-0.113c3.863,1.415,8.141-0.569,9.556-4.434
	c1.416-3.861-0.57-8.14-4.433-9.555l-2.212-0.811c5.842,2.116,12.298-0.887,14.436-6.723c2.143-5.852-0.859-12.331-6.712-14.472
	l-79.03-28.95c-5.85-2.141-12.329,0.864-14.471,6.714c-2.143,5.85,0.861,12.331,6.71,14.473l-2.247-0.823
	c-3.862-1.415-8.137,0.569-9.555,4.428c-1.416,3.865,0.57,8.14,4.432,9.554l-0.041,0.118l6.95,2.545
	c-3.851-1.385-8.103,0.598-9.514,4.449c0,0,0,0.002-0.002,0.006l-17.283,47.184c-1.411,3.851,0.556,8.106,4.39,9.537l-6.951-2.545
	l-0.042,0.116c-3.863-1.415-8.141,0.569-9.556,4.431c-1.413,3.861,0.57,8.141,4.432,9.555l2.249,0.823
	c-5.851-2.145-12.33,0.86-14.471,6.71c-2.144,5.853,0.861,12.33,6.713,14.478l75.71,27.731H40.991c-5.092,0-9.219,4.128-9.219,9.22
	c-5.093,0-9.22,4.126-9.22,9.22v21.084c-2.515,0-4.552,2.038-4.552,4.553c0,2.512,2.038,4.55,4.552,4.55h179.896
	c2.514,0,4.55-2.038,4.55-4.55c0-2.515-2.037-4.553-4.55-4.553v-21.084c0-5.094-4.128-9.22-9.222-9.22
	c0-5.092-4.125-9.22-9.218-9.22h-39.196c1.928-1.283,3.486-3.157,4.344-5.5c2.143-5.852-0.86-12.33-6.711-14.472l2.249,0.823
	c3.861,1.416,8.139-0.567,9.554-4.434c1.415-3.86-0.568-8.137-4.432-9.55l0.042-0.117l-6.99-2.56c3.861,1.415,8.134-0.569,9.55-4.43
	c0-0.001,0-0.003,0.001-0.002l0.002-0.001l4.88-13.322c-0.695,1.926,0.296,4.055,2.222,4.759c1.93,0.705,4.067-0.284,4.776-2.216
	c-0.708,1.932,0.284,4.068,2.215,4.777c1.93,0.705,4.069-0.286,4.778-2.218c0.723-1.973,75.598,19.823,100.95,33.915
	c75.826,42.144,134.617,53.444,156.001,56.334c1.104,2.976,3.449,5.467,6.659,6.643c5.824,2.134,12.277-0.857,14.407-6.684
	C451.447,325.45,448.452,318.999,442.628,316.865z"/>
</svg>
