<?xml version="1.0" encoding="utf-8"?>
<!-- Generator: Adobe Illustrator 16.0.0, SVG Export Plug-In . SVG Version: 6.00 Build 0)  -->
<!DOCTYPE svg PUBLIC "-//W3C//DTD SVG 1.1//EN" "http://www.w3.org/Graphics/SVG/1.1/DTD/svg11.dtd">
<svg version="1.1" id="Layer_1" xmlns="http://www.w3.org/2000/svg" xmlns:xlink="http://www.w3.org/1999/xlink" x="0px" y="0px"
	 width="468px" height="468px" viewBox="0 0 468 468" enable-background="new 0 0 468 468" xml:space="preserve">
<g>
	<path fill="#FFFFFF" d="M308.64,163.287h-0.003c0,0,0.58,0.203,0.7,0.512v-0.009c0.053,0.101,0.118,0.196,0.197,0.279h-0.002
		c0,0,0.006,0.005,0.013,0.011c0,0.001,0.002,0.002,0.002,0.004c0.068,0.072,0.338,0.384,0.271,0.733
		c0,0.616,0.47,1.116,1.067,1.175l-0.008,0.005c0,0,0.512,0.002,0.588,0.422l0.002-0.004c0.07,0.275,0.263,0.503,0.52,0.614h0.002
		c0.009,0.004,0.019,0.009,0.029,0.013c0.107,0.043,0.48,0.229,0.48,0.683c0.004,0.577-0.229,0.789-0.383,0.866
		c-0.047,0.009-0.09,0.024-0.133,0.042l0,0l0,0c-0.219,0.099-0.371,0.318-0.371,0.573c0,0.107,0.027,0.205,0.074,0.294h-0.002
		c0,0,0.115,0.342,0,0.613l0.017-0.012c-0.077,0.233-0.13,0.479-0.13,0.738c0,1.31,1.063,2.371,2.373,2.371
		c0.094,0,0.184-0.017,0.277-0.026l-0.011,0.026c0,0,0.068-0.021,0.172-0.044c0.024-0.004,0.047-0.009,0.069-0.014
		c0.261-0.043,0.696-0.062,1.097,0.184l-0.004-0.006c0.152,0.075,0.318,0.121,0.497,0.138l-0.009,0.013c0,0,0.035-0.004,0.084-0.005
		c0.019,0,0.037,0.005,0.055,0.005c0.02,0,0.037-0.005,0.054-0.007c0.171,0.005,0.418,0.037,0.634,0.167
		c0.043,0.045,0.09,0.083,0.145,0.113l0,0l0,0c0.092,0.052,0.194,0.085,0.308,0.085c0.348,0,0.631-0.281,0.631-0.629
		c0-0.162-0.065-0.311-0.168-0.423l0,0c-0.261-0.272-0.173-0.646-0.173-0.646l-0.006,0.008c0.002-0.036,0.01-0.067,0.01-0.103
		c0-0.567-0.332-1.053-0.812-1.286l0.009-0.002c-0.335-0.143-0.571-0.599-0.665-0.813c-0.009-0.018-0.015-0.037-0.022-0.054
		c-0.355-1.045-1.311-3.075-3.718-5.129h0.009c-0.192-0.167-0.312-0.414-0.312-0.414l0,0c-0.07-0.161-0.179-0.302-0.308-0.418h0.006
		c-0.222-0.26-0.222-0.688-0.222-0.688c0-0.655-0.531-1.188-1.187-1.188c-0.048,0-0.094,0.01-0.14,0.015l0.001-0.005
		c0,0-0.266,0.063-0.475-0.223c-0.21-0.286-0.036-0.695-0.036-0.695l-0.003,0.001c0.021-0.079,0.039-0.159,0.039-0.245
		c0-0.479-0.39-0.868-0.869-0.868c-0.479,0-0.867,0.388-0.867,0.868c0,0.122,0.025,0.239,0.072,0.344
		c0.005,0.02,0.157,0.441,0.017,0.751c-0.008,0.014-0.013,0.028-0.019,0.043c-0.004,0.005-0.004,0.01-0.007,0.014h0.002
		c-0.042,0.106-0.065,0.222-0.065,0.341C308.035,162.801,308.285,163.145,308.64,163.287z"/>
	<path fill="#FFFFFF" d="M304.523,165.4v0.004c0,0,0.196,0.089,0.194,0.257c-0.003,0.013-0.005,0.028-0.008,0.042
		c-0.002,0.012-0.002,0.023-0.006,0.036l0.003-0.003c-0.003,0.03-0.009,0.06-0.009,0.091c0,0.243,0.118,0.458,0.297,0.593
		l-0.002,0.001c0,0,0.276,0.183,0.329,0.566l0.007-0.012c0.02,0.215,0.073,0.417,0.163,0.604l-0.008-0.004c0,0,0.105,0.226,0,0.416
		l0.004-0.001c-0.073,0.155-0.12,0.325-0.12,0.508c0,0.64,0.519,1.158,1.157,1.158c0.214,0,0.412-0.062,0.585-0.163l-0.004,0.007
		c0,0,0.015-0.011,0.036-0.025c0.016-0.01,0.029-0.019,0.044-0.028c0.147-0.085,0.485-0.231,0.885-0.058l-0.007-0.007
		c0.12,0.042,0.247,0.069,0.38,0.069c0.641,0,1.16-0.521,1.16-1.159c0-0.396-0.198-0.743-0.502-0.952l0,0
		c-0.245-0.135-0.2-0.462-0.2-0.462l-0.008,0.01c0.001-0.026,0.008-0.053,0.008-0.08c0-0.322-0.092-0.621-0.24-0.882l0.011,0.004
		c-0.096-0.197-0.096-0.48-0.096-0.48l-0.005,0.002c-0.031-0.611-0.533-1.102-1.154-1.102c-0.049,0-0.094,0.01-0.142,0.016
		l0.011-0.01c-0.344,0.018-0.407-0.142-0.407-0.142v0.014c-0.095-0.173-0.271-0.296-0.482-0.296c-0.308,0-0.554,0.25-0.554,0.556
		c0,0.195,0.107,0.361,0.26,0.459h-0.018c0,0,0.167,0.142,0,0.281c-0.06,0.053-0.176,0.003-0.21-0.013
		c-0.124-0.084-0.27-0.136-0.431-0.136c-0.025,0-0.053,0.006-0.08,0.008l0.003-0.004c-0.28,0.042-0.318-0.126-0.318-0.126
		l-0.002,0.004c-0.051-0.147-0.186-0.255-0.35-0.255c-0.205,0-0.371,0.167-0.371,0.373
		C304.327,165.219,304.406,165.336,304.523,165.4z"/>
	<g>
		
			<ellipse transform="matrix(0.9563 -0.2923 0.2923 0.9563 -5.7206 53.5728)" fill="#FFFFFF" cx="176.394" cy="45.927" rx="9.787" ry="9.499"/>
	</g>
	<path fill="#FFFFFF" d="M208.886,69.578l-19.721-12.709c-0.388-0.245-0.798-0.42-1.216-0.54c-2.48-1.325-5.5-1.702-8.448-0.799
		c-3.262,0.996-5.728,3.332-6.948,6.183c-0.049,0.094-0.104,0.182-0.146,0.28l-9.651,21.858c-1.044,2.389,0.047,5.17,2.435,6.214
		c1.074,0.47,2.227,0.508,3.267,0.19c1.271-0.389,2.372-1.31,2.946-2.624l3.866-8.621l10.609,34.698
		c0.805,2.632,3.657,4.094,6.367,3.265c2.712-0.828,4.257-3.634,3.451-6.267l-7.745-25.334c0.208-0.051,0.414-0.093,0.62-0.156
		c0.213-0.067,0.414-0.147,0.62-0.224l7.745,25.335c0.805,2.634,3.654,4.094,6.366,3.265c2.71-0.828,4.259-3.634,3.452-6.267
		l-10.524-34.426c-0.015-0.048-0.042-0.087-0.058-0.135l-0.103-0.336l7.759,5.118c1.21,0.767,2.639,0.917,3.91,0.528
		c1.039-0.317,1.973-0.995,2.603-1.984C211.739,73.89,211.086,70.974,208.886,69.578z"/>
	<g>
		
			<ellipse transform="matrix(0.0174 -0.9998 0.9998 0.0174 -193.9498 263.9794)" fill="#FFFFFF" cx="37.333" cy="230.668" rx="9.786" ry="9.498"/>
	</g>
	<path fill="#FFFFFF" d="M69.866,207.075l-18.182,14.829c-0.353,0.293-0.645,0.628-0.889,0.988c-2.025,1.952-3.318,4.707-3.372,7.79
		c-0.06,3.41,1.401,6.475,3.735,8.518c0.072,0.076,0.14,0.158,0.221,0.227l17.806,15.934c1.948,1.73,4.934,1.555,6.663-0.396
		c0.777-0.877,1.171-1.961,1.188-3.047c0.023-1.332-0.513-2.66-1.584-3.613l-7.004-6.342l36.278,0.635
		c2.753,0.047,5.023-2.215,5.072-5.049c0.05-2.834-2.14-5.172-4.894-5.218l-26.487-0.463c0.017-0.213,0.04-0.423,0.043-0.639
		c0.004-0.221-0.013-0.437-0.021-0.658l26.487,0.464c2.753,0.047,5.023-2.211,5.073-5.046c0.05-2.834-2.141-5.173-4.894-5.221
		l-35.995-0.629c-0.049,0-0.095,0.012-0.145,0.013l-0.352-0.008l7.265-5.795c1.105-0.913,1.688-2.227,1.711-3.556
		c0.019-1.085-0.336-2.183-1.084-3.087C74.849,205.694,71.873,205.414,69.866,207.075z"/>
	<g>
		<path fill="#FFFFFF" d="M160.806,416.826c1.707-4.961,7.236-7.555,12.348-5.795c5.109,1.758,7.868,7.207,6.159,12.166
			c-1.706,4.959-7.234,7.555-12.345,5.795C161.858,427.232,159.098,421.785,160.806,416.826z"/>
	</g>
	<path fill="#FFFFFF" d="M157.675,381.779l8.484,21.875c0.169,0.426,0.398,0.809,0.665,1.15c1.23,2.529,3.449,4.609,6.366,5.613
		c3.223,1.111,6.591,0.668,9.255-0.918c0.095-0.047,0.192-0.086,0.282-0.143l20.656-12.012c2.248-1.318,3.002-4.209,1.684-6.457
		c-0.593-1.01-1.504-1.721-2.532-2.072c-1.257-0.434-2.688-0.334-3.925,0.389l-8.195,4.703l11.813-34.309
		c0.896-2.602-0.553-5.459-3.232-6.383c-2.682-0.922-5.581,0.438-6.476,3.041l-8.626,25.049c-0.197-0.082-0.389-0.17-0.593-0.238
		c-0.211-0.072-0.422-0.125-0.633-0.184l8.624-25.049c0.896-2.602-0.549-5.461-3.231-6.383c-2.679-0.924-5.58,0.436-6.478,3.039
		l-11.72,34.039c-0.017,0.047-0.018,0.096-0.032,0.143l-0.114,0.332l-3.269-8.701c-0.527-1.332-1.598-2.293-2.854-2.727
		c-1.026-0.354-2.181-0.354-3.271,0.078C157.902,376.615,156.715,379.355,157.675,381.779z"/>
	<g>
		<path fill="#FFFFFF" d="M385.263,360.109c-4.19-3.16-4.949-9.219-1.699-13.535c3.253-4.316,9.287-5.258,13.476-2.1
			c4.188,3.156,4.948,9.215,1.697,13.531C395.482,362.322,389.448,363.264,385.263,360.109z"/>
	</g>
	<path fill="#FFFFFF" d="M350.962,352.256l23.426-1.311c0.457-0.027,0.891-0.131,1.301-0.275c2.784-0.389,5.448-1.857,7.306-4.32
		c2.054-2.721,2.673-6.063,1.983-9.086c-0.012-0.104-0.02-0.211-0.047-0.313l-5.037-23.357c-0.561-2.545-3.078-4.154-5.622-3.596
		c-1.146,0.252-2.102,0.896-2.756,1.768c-0.8,1.061-1.146,2.451-0.842,3.852l1.939,9.248l-28.978-21.834
		c-2.199-1.656-5.363-1.164-7.069,1.1c-1.708,2.266-1.308,5.443,0.889,7.1l21.16,15.943c-0.141,0.16-0.281,0.318-0.41,0.49
		c-0.136,0.178-0.248,0.363-0.371,0.545l-21.157-15.941c-2.2-1.656-5.362-1.166-7.07,1.1c-1.707,2.262-1.311,5.441,0.891,7.102
		l28.75,21.662c0.039,0.029,0.084,0.047,0.127,0.074l0.279,0.213l-9.282,0.42c-1.432,0.09-2.676,0.811-3.478,1.869
		c-0.652,0.869-1.011,1.967-0.938,3.137C346.119,350.443,348.363,352.422,350.962,352.256z"/>
	<g>
		<path fill="#FFFFFF" d="M400.681,129.109c-4.302,3.011-10.297,1.859-13.399-2.566c-3.099-4.428-2.128-10.455,2.169-13.463
			c4.299-3.01,10.293-1.86,13.394,2.566C405.944,120.073,404.975,126.104,400.681,129.109z"/>
	</g>
	<path fill="#FFFFFF" d="M382.613,159.306l5.992-22.686c0.113-0.443,0.152-0.887,0.141-1.321c0.49-2.769-0.084-5.756-1.853-8.285
		c-1.953-2.793-4.941-4.414-8.027-4.692c-0.104-0.021-0.206-0.045-0.312-0.053l-23.771-2.425c-2.595-0.256-4.903,1.642-5.158,4.235
		c-0.116,1.167,0.206,2.274,0.832,3.165c0.759,1.09,1.976,1.85,3.402,1.992l9.394,1.013l-29.72,20.813
		c-2.256,1.58-2.765,4.742-1.138,7.062c1.623,2.325,4.771,2.927,7.026,1.349l21.7-15.196c0.108,0.183,0.217,0.365,0.341,0.541
		c0.126,0.183,0.269,0.348,0.401,0.522l-21.698,15.194c-2.255,1.581-2.766,4.739-1.141,7.063c1.626,2.324,4.772,2.928,7.032,1.35
		l29.488-20.649c0.04-0.029,0.066-0.066,0.109-0.098l0.287-0.2l-2.47,8.958c-0.355,1.39-0.058,2.796,0.707,3.885
		c0.62,0.889,1.556,1.567,2.69,1.861C379.393,163.35,381.967,161.829,382.613,159.306z"/>
	<g>
		<path fill="#FFFFFF" d="M115.398,66.534c-0.593-1.509-1.866-3.947-4.111-4.765c-1.306-0.475-3.043-0.559-4.956,0.726
			c0,0-6.37,5.146-12.941-1.074l-0.404,0.3c1.082,2.777,8.989,8.759,14.793,5.773c0,0,1.271-0.542,2.996,0.224
			c0.594,0.262,1.239,0.668,1.949,1.208c-2.041,2.793-2.217,6.62-0.148,9.514c2.599,3.637,7.742,4.414,11.487,1.738
			c3.746-2.677,4.677-7.796,2.08-11.434C123.713,65.345,119.058,64.446,115.398,66.534z"/>
		<path fill="#FFFFFF" d="M159.998,87.988l-28.181-8.887c-1.227,0.009-1.336-0.145-2.466,0.086c-1.65,0.134-3.299,0.698-4.757,1.74
			c-0.814,0.582-1.508,1.271-2.077,2.027c-0.078,0.077-0.185,0.235-0.298,0.426c-0.395,0.587-0.718,1.213-0.968,1.862
			c-0.289,0.502-0.48,1.071-0.509,1.692l-0.015,0.31c-0.083,0.576-0.108,1.159-0.081,1.736l-1.243,26.628
			c-0.098,2.079,1.509,3.844,3.589,3.942c0.879,0.041,1.703-0.223,2.365-0.697c0.909-0.65,1.521-1.693,1.577-2.895l0.56-11.969
			l7.659,18.276c0.005,0.349,0.11,0.707,0.333,1.02c0.058,0.077,0.12,0.145,0.186,0.213l0.046,0.11l0.038-0.028
			c0.582,0.522,1.434,0.613,2.06,0.166c0.602-0.43,0.798-1.223,0.538-1.922c0.578,0.472,1.39,0.544,1.994,0.113
			c0.603-0.432,0.796-1.221,0.536-1.922c0.119,0.098,0.25,0.164,0.385,0.228l10.525,14.729c1.363,1.908,4.063,2.313,6.027,0.909
			c1.964-1.402,2.452-4.088,1.09-5.993l-10.172-14.235c0.153-0.098,0.309-0.188,0.458-0.296c0.153-0.109,0.295-0.228,0.438-0.346
			l10.173,14.235c1.364,1.908,4.062,2.313,6.026,0.91c1.965-1.404,2.455-4.088,1.092-5.997L156.309,109.3
			c0.551,0.326,1.229,0.354,1.756-0.024c0.604-0.43,0.798-1.223,0.538-1.922c0.578,0.473,1.391,0.543,1.993,0.113
			c0.729-0.522,0.873-1.575,0.319-2.352c-0.271-0.379-0.658-0.62-1.07-0.708l-14.973-13.284l12.857,4.054
			c1.177,0.372,2.399,0.136,3.329-0.53c0.643-0.458,1.146-1.123,1.402-1.932C163.087,90.731,161.985,88.612,159.998,87.988z"/>
	</g>
	<g>
		<path fill="#FFFFFF" d="M38.081,295.047c-1.616,0.098-4.329,0.555-5.802,2.438c-0.854,1.096-1.47,2.723-0.839,4.938
			c0,0,2.923,7.65-5.022,11.977l0.16,0.477c2.976-0.17,11.109-5.844,10.063-12.283c0,0-0.124-1.381,1.138-2.783
			c0.433-0.482,1.019-0.971,1.751-1.479c2.024,2.805,5.61,4.152,9.002,3.082c4.261-1.35,6.59-6,5.201-10.391
			c-1.388-4.389-5.969-6.857-10.229-5.51C39.521,286.77,37.227,290.922,38.081,295.047z"/>
		<path fill="#FFFFFF" d="M72.269,259.26l-17.16,24.055c-0.37,1.17-0.551,1.227-0.681,2.373c-0.384,1.609-0.355,3.35,0.186,5.061
			c0.301,0.953,0.743,1.826,1.284,2.602c0.051,0.1,0.169,0.248,0.314,0.416c0.438,0.557,0.933,1.059,1.473,1.494
			c0.39,0.43,0.87,0.789,1.45,1.008l0.292,0.109c0.521,0.258,1.067,0.461,1.626,0.615l24.939,9.408
			c1.948,0.736,4.123-0.246,4.858-2.195c0.311-0.822,0.314-1.686,0.069-2.463c-0.337-1.066-1.141-1.973-2.265-2.396l-11.211-4.229
			l19.748-1.637c0.332,0.102,0.707,0.113,1.071-0.004c0.094-0.027,0.176-0.068,0.261-0.111l0.118-0.008l-0.016-0.045
			c0.678-0.393,1.026-1.172,0.794-1.906c-0.223-0.707-0.915-1.137-1.661-1.107c0.629-0.404,0.947-1.152,0.723-1.859
			c-0.223-0.707-0.915-1.137-1.661-1.105c0.129-0.082,0.233-0.188,0.336-0.295l17.261-5.459c2.236-0.709,3.456-3.148,2.729-5.451
			c-0.73-2.303-3.13-3.596-5.365-2.889l-16.681,5.277c-0.044-0.18-0.084-0.355-0.141-0.529c-0.055-0.18-0.125-0.35-0.193-0.523
			l16.683-5.275c2.234-0.709,3.455-3.15,2.727-5.451c-0.729-2.303-3.131-3.598-5.366-2.891l-17.41,5.504
			c0.478-0.422,0.713-1.057,0.518-1.676c-0.224-0.707-0.917-1.137-1.662-1.107c0.629-0.402,0.946-1.15,0.723-1.857
			c-0.27-0.855-1.227-1.318-2.137-1.031c-0.442,0.141-0.792,0.436-1.004,0.799l-17.261,10.135l7.829-10.973
			c0.717-1.008,0.871-2.242,0.526-3.332c-0.239-0.75-0.714-1.436-1.405-1.93C75.832,257.17,73.476,257.563,72.269,259.26z"/>
	</g>
	<g>
		<path fill="#FFFFFF" d="M231.52,439.193c-0.408,1.568-0.811,4.289,0.524,6.271c0.777,1.152,2.135,2.24,4.436,2.324
			c0,0,8.181-0.418,9.838,8.479l0.502-0.006c0.76-2.883-2.123-12.371-8.57-13.365c0,0-1.35-0.313-2.293-1.945
			c-0.327-0.559-0.61-1.27-0.871-2.121c3.296-1.061,5.688-4.053,5.716-7.611c0.035-4.467-3.67-8.121-8.272-8.156
			c-4.604-0.035-8.367,3.559-8.402,8.025C224.092,435.268,227.329,438.732,231.52,439.193z"/>
		<path fill="#FFFFFF" d="M208.048,395.621l17.575,23.754c0.998,0.715,0.996,0.902,2.046,1.381c1.411,0.861,3.077,1.373,4.868,1.385
			c1.002,0.01,1.969-0.143,2.87-0.418c0.111-0.014,0.289-0.082,0.494-0.168c0.665-0.244,1.295-0.559,1.877-0.938
			c0.53-0.238,1.02-0.586,1.404-1.07l0.195-0.242c0.407-0.416,0.769-0.875,1.087-1.359l16.657-20.809
			c1.302-1.627,1.04-3.998-0.585-5.297c-0.688-0.551-1.507-0.824-2.323-0.83c-1.118-0.008-2.226,0.479-2.978,1.414l-7.491,9.354
			l4.548-19.287c0.199-0.283,0.328-0.635,0.33-1.02c0.001-0.098-0.013-0.188-0.026-0.281l0.03-0.115l-0.049,0.002
			c-0.161-0.764-0.799-1.342-1.567-1.346c-0.74-0.006-1.363,0.52-1.568,1.238c-0.189-0.723-0.803-1.258-1.547-1.262
			c-0.737-0.006-1.359,0.518-1.562,1.238c-0.037-0.146-0.105-0.281-0.176-0.41l0.142-18.104c0.017-2.346-1.927-4.262-4.342-4.279
			c-2.414-0.018-4.386,1.867-4.405,4.211l-0.137,17.494c-0.181-0.014-0.362-0.029-0.545-0.031c-0.188-0.002-0.372,0.01-0.558,0.023
			l0.137-17.494c0.019-2.346-1.925-4.262-4.341-4.279c-2.414-0.02-4.39,1.865-4.408,4.209l-0.142,18.264
			c-0.254-0.588-0.787-1.01-1.435-1.014c-0.743-0.008-1.367,0.521-1.566,1.238c-0.188-0.721-0.804-1.256-1.546-1.262
			c-0.896-0.01-1.633,0.76-1.642,1.713c-0.003,0.465,0.171,0.889,0.449,1.201l4.309,19.549l-8.021-10.836
			c-0.735-0.994-1.861-1.521-3.005-1.531c-0.789-0.004-1.585,0.236-2.269,0.74C207.161,391.586,206.807,393.949,208.048,395.621z"/>
	</g>
	<g>
		<path fill="#FFFFFF" d="M428.388,299.768c1.362,0.871,3.827,2.096,6.125,1.436c1.336-0.383,2.791-1.334,3.579-3.498
			c0,0,2.135-7.906,11.105-6.734l0.148-0.482c-2.506-1.611-12.423-1.803-15.36,4.021c0,0-0.713,1.189-2.556,1.58
			c-0.634,0.139-1.396,0.189-2.288,0.172c0.012-3.461-2.096-6.66-5.469-7.787c-4.239-1.414-8.861,0.98-10.317,5.35
			c-1.455,4.367,0.798,9.057,5.037,10.467C422.355,305.617,426.653,303.609,428.388,299.768z"/>
		<path fill="#FFFFFF" d="M379.692,308.623l28.021-9.373c0.988-0.727,1.167-0.668,1.947-1.521c1.254-1.074,2.256-2.498,2.823-4.197
			c0.318-0.951,0.475-1.918,0.489-2.863c0.019-0.107,0.011-0.297-0.008-0.52c-0.028-0.709-0.131-1.404-0.313-2.074
			c-0.062-0.578-0.243-1.15-0.583-1.67l-0.171-0.258c-0.269-0.516-0.591-1.004-0.953-1.455L396.3,262.42
			c-1.147-1.738-3.481-2.225-5.221-1.078c-0.736,0.482-1.247,1.178-1.507,1.951c-0.353,1.063-0.232,2.268,0.428,3.27l6.581,10.014
			l-16.939-10.283c-0.209-0.281-0.504-0.51-0.865-0.627c-0.094-0.033-0.183-0.051-0.276-0.064l-0.104-0.063l-0.011,0.045
			c-0.778-0.084-1.521,0.344-1.766,1.074c-0.234,0.703,0.072,1.457,0.691,1.871c-0.743-0.041-1.441,0.377-1.678,1.084
			c-0.231,0.701,0.073,1.453,0.696,1.869c-0.152-0.012-0.299,0.012-0.445,0.041l-17.171-5.73c-2.227-0.74-4.648,0.516-5.413,2.807
			c-0.764,2.289,0.418,4.748,2.643,5.492l16.595,5.535c-0.069,0.166-0.137,0.334-0.197,0.508c-0.062,0.18-0.106,0.357-0.15,0.539
			l-16.595-5.537c-2.225-0.74-4.646,0.516-5.409,2.807c-0.766,2.293,0.415,4.75,2.64,5.492l17.323,5.779
			c-0.635,0.059-1.2,0.438-1.404,1.053c-0.236,0.703,0.072,1.459,0.691,1.873c-0.745-0.045-1.441,0.375-1.676,1.078
			c-0.284,0.852,0.216,1.787,1.122,2.09c0.442,0.146,0.897,0.115,1.282-0.055l19.922,1.945l-12.787,4.277
			c-1.169,0.393-2.021,1.301-2.382,2.383c-0.248,0.75-0.264,1.58,0.003,2.387C375.58,308.221,377.719,309.287,379.692,308.623z"/>
	</g>
	<g>
		<path fill="#FFFFFF" d="M356.621,69.449c1.25-1.025,3.175-2.992,3.259-5.381c0.048-1.389-0.41-3.067-2.223-4.486
			c0,0-6.862-4.472-2.974-12.644l-0.413-0.288c-2.307,1.886-5.555,11.256-0.923,15.851c0,0,0.911,1.043,0.714,2.919
			c-0.064,0.645-0.254,1.385-0.543,2.227c-3.287-1.08-6.98-0.063-9.097,2.797c-2.653,3.595-1.805,8.729,1.899,11.462
			c3.703,2.736,8.861,2.04,11.514-1.553C360.321,76.995,359.739,72.287,356.621,69.449z"/>
		<path fill="#FFFFFF" d="M349.997,118.499l-0.259-29.547c-0.387-1.166-0.275-1.317-0.845-2.321
			c-0.634-1.527-1.68-2.918-3.122-3.982c-0.804-0.596-1.675-1.042-2.569-1.349c-0.098-0.053-0.28-0.104-0.497-0.155
			c-0.683-0.192-1.375-0.308-2.07-0.343c-0.567-0.12-1.169-0.124-1.765,0.039l-0.301,0.082c-0.574,0.097-1.138,0.254-1.679,0.46
			l-25.706,7.045c-2.008,0.551-3.192,2.624-2.641,4.631c0.231,0.85,0.735,1.55,1.391,2.036c0.901,0.664,2.085,0.922,3.241,0.605
			l11.558-3.167l-15.013,12.931c-0.333,0.114-0.641,0.324-0.866,0.632c-0.059,0.079-0.103,0.16-0.146,0.244l-0.092,0.078
			l0.041,0.023c-0.318,0.715-0.142,1.552,0.475,2.009c0.598,0.441,1.409,0.384,1.997-0.08c-0.269,0.697-0.09,1.491,0.511,1.931
			c0.594,0.439,1.404,0.382,1.991-0.084c-0.057,0.142-0.08,0.291-0.098,0.438l-10.758,14.561c-1.392,1.889-0.945,4.581,0.998,6.014
			c1.94,1.434,4.647,1.07,6.04-0.816l10.393-14.071c0.14,0.116,0.277,0.234,0.422,0.344c0.152,0.112,0.31,0.209,0.466,0.308
			l-10.395,14.073c-1.392,1.885-0.946,4.577,0.997,6.011c1.941,1.436,4.647,1.074,6.041-0.813l10.848-14.691
			c-0.138,0.624,0.047,1.278,0.567,1.663c0.598,0.442,1.412,0.384,1.997-0.081c-0.272,0.695-0.09,1.49,0.506,1.929
			c0.723,0.534,1.766,0.346,2.335-0.421c0.274-0.376,0.386-0.819,0.345-1.234l8.005-18.351l0.118,13.485
			c0.01,1.233,0.613,2.321,1.531,3.003c0.637,0.467,1.422,0.738,2.271,0.735C348.34,122.284,350.017,120.58,349.997,118.499z"/>
	</g>
	<path fill="#FFFFFF" d="M256.98,71.266l-14.35-23.907c-0.124-0.203-0.268-0.389-0.418-0.564c-1.772-2.506-4.69-4.145-7.995-4.145
		c-3.567,0-6.689,1.911-8.397,4.767c-0.461,0.655-0.846,1.365-1.139,2.123l-11.516,19.758c-1.183,1.936-0.571,4.462,1.365,5.643
		c0.667,0.407,1.406,0.603,2.135,0.603c1.384,0,2.734-0.701,3.508-1.968l2.82-5.508L219.7,86.835
		c-0.021,0.167,0.031,0.334,0.143,0.462c0.11,0.126,0.272,0.197,0.44,0.197h3.726v17.691c0,2.594,2.103,4.692,4.692,4.692
		c2.591,0,4.693-2.098,4.693-4.692V87.495h1.182v17.691c0,2.594,2.101,4.692,4.693,4.692c2.591,0,4.692-2.098,4.692-4.692V87.495
		h3.513c0.165,0,0.323-0.069,0.437-0.193c0.108-0.125,0.163-0.29,0.146-0.455l-2.804-19.431l4.722,8.127
		c0.772,1.267,2.122,1.967,3.507,1.967c0.729,0,1.467-0.195,2.134-0.603C257.553,75.729,258.162,73.202,256.98,71.266z"/>
	<path fill="#FFFFFF" d="M220.758,39.64l7.058,0.044c1.605,1.529,3.771,2.472,6.162,2.472c2.391,0,4.556-0.943,6.159-2.471
		l7.124-0.045c0.271-0.001,0.506-0.188,0.566-0.453c0.063-0.265-0.066-0.536-0.309-0.657c-2.651-1.33-4.06-4.621-4.719-6.725
		c-0.094-0.599-0.245-1.176-0.453-1.729c-0.017-0.083-0.03-0.144-0.03-0.149c-0.018-0.105-0.068-0.199-0.135-0.277
		c-1.377-3.167-4.532-5.383-8.204-5.383c-4.589,0-8.367,3.459-8.879,7.912c-0.704,2.103-2.103,5.099-4.602,6.351
		c-0.241,0.121-0.37,0.393-0.308,0.657C220.251,39.451,220.485,39.639,220.758,39.64z"/>
	<path fill="#FFFFFF" d="M86.333,161.855l-27.17,6.262c-0.232,0.054-0.454,0.131-0.665,0.222c-2.933,0.911-5.394,3.18-6.414,6.323
		c-1.102,3.392-0.249,6.952,1.939,9.459c0.479,0.64,1.037,1.227,1.668,1.739l15.23,17.057c1.477,1.723,4.068,1.922,5.789,0.448
		c0.595-0.512,1.007-1.153,1.232-1.847c0.428-1.315,0.18-2.816-0.787-3.945l-4.368-4.383l16.833,8.933
		c0.151,0.071,0.328,0.072,0.483,0.008c0.154-0.067,0.271-0.198,0.325-0.357l1.15-3.544l16.825,5.467
		c2.467,0.801,5.111-0.548,5.914-3.013c0.799-2.465-0.548-5.112-3.015-5.912l-16.824-5.467l0.365-1.125l16.823,5.467
		c2.468,0.8,5.113-0.55,5.916-3.014c0.799-2.463-0.548-5.112-3.014-5.914l-16.825-5.465l1.086-3.342
		c0.051-0.155,0.033-0.329-0.051-0.473c-0.083-0.144-0.222-0.248-0.385-0.28l-19.348-3.339l9.188-1.977
		c1.445-0.343,2.528-1.413,2.955-2.729c0.225-0.693,0.27-1.457,0.087-2.215C90.754,162.692,88.539,161.33,86.333,161.855z"/>
	<path fill="#FFFFFF" d="M45.062,186.533l2.223-6.698c1.95-1.055,3.517-2.823,4.256-5.098c0.737-2.272,0.51-4.623-0.447-6.621
		l2.158-6.788c0.083-0.261-0.022-0.54-0.255-0.682c-0.232-0.139-0.53-0.1-0.721,0.093c-2.084,2.108-5.649,2.431-7.854,2.409
		c-0.6-0.096-1.195-0.131-1.785-0.102c-0.083-0.012-0.145-0.018-0.149-0.019c-0.106-0.015-0.21,0.003-0.306,0.042
		c-3.438,0.332-6.52,2.646-7.654,6.14c-1.419,4.365,0.704,9.026,4.779,10.89c1.781,1.318,4.201,3.574,4.619,6.335
		c0.04,0.27,0.26,0.476,0.528,0.498C44.727,186.957,44.977,186.791,45.062,186.533z"/>
	<path fill="#FFFFFF" d="M119.757,352.145l-2.441,27.775c-0.02,0.238-0.016,0.471,0.006,0.701c-0.04,3.07,1.357,6.111,4.031,8.055
		c2.886,2.096,6.536,2.385,9.595,1.078c0.757-0.258,1.489-0.607,2.17-1.049l20.93-9.215c2.094-0.871,3.084-3.277,2.213-5.367
		c-0.301-0.723-0.784-1.313-1.373-1.742c-1.121-0.814-2.626-1.041-3.995-0.471l-5.52,2.801l13.696-13.25
		c0.115-0.121,0.172-0.289,0.157-0.455c-0.016-0.17-0.104-0.322-0.24-0.422l-3.015-2.191l10.398-14.309
		c1.523-2.098,1.059-5.033-1.038-6.557c-2.096-1.523-5.03-1.059-6.555,1.039l-10.396,14.313l-0.958-0.695l10.398-14.313
		c1.524-2.098,1.059-5.031-1.038-6.555s-5.031-1.059-6.555,1.039l-10.398,14.313l-2.842-2.066c-0.135-0.096-0.303-0.135-0.467-0.098
		c-0.162,0.033-0.303,0.135-0.386,0.279l-9.155,17.369l0.961-9.35c0.119-1.48-0.563-2.84-1.683-3.654
		c-0.589-0.428-1.302-0.705-2.08-0.768C121.917,348.199,119.938,349.883,119.757,352.145z"/>
	<path fill="#FFFFFF" d="M130.473,399.021l-5.685-4.184c-0.399-2.18-1.598-4.217-3.532-5.621c-1.934-1.406-4.24-1.916-6.436-1.621
		l-5.789-4.152c-0.222-0.158-0.519-0.143-0.726,0.033c-0.204,0.178-0.26,0.475-0.135,0.715c1.361,2.633,0.567,6.123-0.137,8.213
		c-0.276,0.539-0.492,1.096-0.649,1.664c-0.035,0.078-0.06,0.133-0.063,0.139c-0.048,0.096-0.063,0.201-0.055,0.305
		c-0.746,3.369,0.503,7.018,3.474,9.178c3.715,2.695,8.803,2.119,11.835-1.182c1.805-1.287,4.697-2.893,7.454-2.434
		c0.267,0.043,0.529-0.104,0.636-0.35C130.771,399.471,130.691,399.184,130.473,399.021z"/>
	<path fill="#FFFFFF" d="M311.059,379.16l25.665,10.904c0.218,0.092,0.443,0.16,0.668,0.211c2.907,0.986,6.232,0.6,8.906-1.344
		c2.883-2.1,4.285-5.479,3.988-8.793c-0.011-0.801-0.117-1.604-0.326-2.389l-2.296-22.752c-0.184-2.26-2.163-3.945-4.421-3.764
		c-0.781,0.064-1.491,0.342-2.082,0.77c-1.118,0.813-1.802,2.174-1.683,3.652l0.959,6.115l-8.367-17.121
		c-0.082-0.146-0.221-0.252-0.387-0.289c-0.164-0.037-0.338,0-0.475,0.098l-3.015,2.188l-10.396-14.311
		c-1.526-2.096-4.458-2.561-6.559-1.037c-2.095,1.523-2.56,4.457-1.036,6.557l10.4,14.311l-0.959,0.693l-10.396-14.311
		c-1.525-2.098-4.459-2.563-6.558-1.037c-2.096,1.521-2.561,4.455-1.034,6.553l10.395,14.313l-2.841,2.064
		c-0.133,0.098-0.22,0.246-0.238,0.414c-0.017,0.164,0.034,0.33,0.148,0.453l13.688,14.074l-8.594-3.803
		c-1.371-0.572-2.875-0.342-3.995,0.469c-0.588,0.432-1.074,1.021-1.372,1.744C307.976,375.885,308.966,378.287,311.059,379.16z"/>
	<path fill="#FFFFFF" d="M358.954,383.455l-5.734,4.111c-2.196-0.293-4.506,0.219-6.438,1.621c-1.935,1.406-3.132,3.441-3.532,5.621
		l-5.734,4.223c-0.221,0.164-0.298,0.449-0.194,0.701c0.108,0.248,0.371,0.391,0.639,0.348c2.925-0.48,5.997,1.354,7.769,2.672
		c0.428,0.428,0.891,0.807,1.384,1.129c0.062,0.057,0.108,0.1,0.11,0.102c0.075,0.076,0.173,0.123,0.271,0.146
		c2.977,1.75,6.832,1.691,9.804-0.469c3.713-2.699,4.736-7.715,2.535-11.619c-0.668-2.113-1.299-5.361-0.014-7.84
		c0.125-0.24,0.066-0.537-0.135-0.715C359.474,383.311,359.178,383.295,358.954,383.455z"/>
	<path fill="#FFFFFF" d="M395.869,205.569l18.303-21.039c0.152-0.18,0.289-0.371,0.405-0.57c1.838-2.46,2.496-5.743,1.475-8.886
		c-1.104-3.392-3.888-5.77-7.131-6.512c-0.763-0.235-1.56-0.385-2.373-0.427l-22.346-4.847c-2.207-0.525-4.421,0.838-4.946,3.042
		c-0.182,0.762-0.137,1.522,0.088,2.216c0.428,1.316,1.51,2.387,2.955,2.729l6.111,0.979l-18.868,2.667
		c-0.166,0.033-0.309,0.133-0.396,0.276c-0.088,0.147-0.104,0.323-0.054,0.484l1.152,3.543l-16.824,5.465
		c-2.467,0.801-3.814,3.448-3.016,5.916c0.804,2.461,3.448,3.811,5.917,3.012l16.824-5.47l0.362,1.126l-16.822,5.466
		c-2.465,0.802-3.814,3.449-3.015,5.915c0.799,2.466,3.449,3.814,5.915,3.012l16.824-5.466l1.085,3.342
		c0.05,0.154,0.165,0.284,0.318,0.354c0.153,0.064,0.324,0.066,0.477-0.002l17.615-8.67l-6.271,6.997
		c-0.97,1.13-1.213,2.631-0.788,3.947c0.226,0.692,0.641,1.336,1.234,1.844C391.805,207.489,394.394,207.289,395.869,205.569z"/>
	<path fill="#FFFFFF" d="M414.755,161.344l2.137,6.726c-0.957,2-1.183,4.351-0.447,6.624c0.74,2.274,2.307,4.042,4.253,5.095
		l2.248,6.761c0.086,0.259,0.333,0.421,0.605,0.4c0.268-0.025,0.487-0.231,0.528-0.499c0.445-2.932,3.14-5.287,4.939-6.564
		c0.538-0.274,1.042-0.598,1.505-0.965c0.071-0.042,0.126-0.071,0.128-0.075c0.096-0.05,0.171-0.127,0.225-0.214
		c2.582-2.287,3.719-5.973,2.584-9.467c-1.42-4.365-5.876-6.888-10.27-6.001c-2.216-0.019-5.498-0.422-7.461-2.412
		c-0.189-0.191-0.487-0.229-0.72-0.09C414.775,160.806,414.669,161.083,414.755,161.344z"/>
	<path fill="#FFFFFF" d="M114.882,117.482l-23.618,1.735c-0.459,0.038-0.896,0.146-1.308,0.304
		c-2.803,0.438-5.467,1.971-7.297,4.487c-2.022,2.784-2.592,6.167-1.845,9.207c0.02,0.103,0.028,0.208,0.054,0.313l5.499,23.485
		c0.609,2.559,3.177,4.139,5.736,3.53c1.151-0.274,2.104-0.945,2.748-1.832c0.79-1.087,1.117-2.497,0.781-3.906l-2.118-9.297
		l29.63,21.526c2.248,1.633,5.433,1.079,7.115-1.235c1.682-2.316,1.224-5.517-1.023-7.15l-21.634-15.717
		c0.135-0.168,0.276-0.326,0.405-0.503c0.131-0.182,0.243-0.37,0.363-0.558l21.634,15.719c2.247,1.635,5.433,1.081,7.115-1.234
		c1.682-2.316,1.226-5.518-1.023-7.151l-29.397-21.359c-0.041-0.029-0.086-0.043-0.128-0.072l-0.287-0.21l9.363-0.586
		c1.442-0.115,2.684-0.864,3.472-1.95c0.646-0.888,0.988-2.002,0.894-3.18C119.802,119.226,117.505,117.273,114.882,117.482z"/>
	<path fill="#FFFFFF" d="M64.57,131.249c0.013-0.001,0.024-0.004,0.034-0.007c0.087-0.006,0.172-0.023,0.255-0.051
		c2.045-0.5,3.844-2.788,4.921-4.471c4.163,2.185,9.479,0.955,12.404-3.072c3.208-4.414,2.335-10.516-1.951-13.628
		c-4.282-3.111-10.355-2.055-13.563,2.357c-1.916,2.64-2.374,5.883-1.516,8.733l-0.001-0.002c0.545,4.435-1.613,8.287-1.613,8.287
		c-0.38,0.522-0.264,1.256,0.261,1.635c0.229,0.168,0.502,0.234,0.767,0.214L64.57,131.249z"/>
	<path fill="#FFFFFF" d="M86.378,311.281l-5.65,23c-0.105,0.447-0.138,0.896-0.115,1.336c-0.448,2.803,0.185,5.807,2.016,8.326
		c2.021,2.783,5.063,4.371,8.184,4.6c0.104,0.014,0.207,0.039,0.314,0.047l24.034,2.027c2.624,0.209,4.92-1.744,5.131-4.365
		c0.095-1.18-0.249-2.293-0.893-3.182c-0.79-1.084-2.03-1.834-3.473-1.947l-9.498-0.859l29.629-21.527
		c2.248-1.635,2.705-4.834,1.022-7.15c-1.682-2.314-4.866-2.867-7.114-1.236l-21.634,15.719c-0.118-0.18-0.223-0.363-0.354-0.541
		c-0.132-0.18-0.276-0.346-0.415-0.516l21.634-15.719c2.248-1.633,2.705-4.834,1.022-7.146c-1.68-2.316-4.867-2.873-7.114-1.238
		l-29.399,21.359c-0.041,0.029-0.069,0.066-0.109,0.096l-0.287,0.211l2.336-9.088c0.336-1.406,0.008-2.818-0.782-3.902
		c-0.645-0.889-1.598-1.559-2.747-1.832C89.557,307.143,86.988,308.723,86.378,311.281z"/>
	<path fill="#FFFFFF" d="M83.923,363.383c0.002-0.01,0.003-0.021,0.004-0.033c0.019-0.084,0.03-0.17,0.029-0.258
		c0.156-2.1-1.464-4.518-2.73-6.063c3.364-3.285,3.838-8.719,0.912-12.746c-3.208-4.414-9.281-5.471-13.566-2.354
		c-4.281,3.109-5.154,9.211-1.947,13.625c1.918,2.639,4.861,4.076,7.835,4.141l0,0c4.385,0.852,7.382,4.094,7.382,4.094
		c0.38,0.523,1.111,0.641,1.636,0.26c0.23-0.168,0.377-0.406,0.441-0.664L83.923,363.383z"/>
	<path fill="#FFFFFF" d="M261.881,398.277l20.128,12.48c0.396,0.238,0.812,0.408,1.235,0.523c2.527,1.291,5.583,1.619,8.543,0.656
		c3.271-1.063,5.72-3.467,6.902-6.361c0.047-0.096,0.102-0.186,0.143-0.285l9.354-22.232c1.01-2.43-0.138-5.219-2.567-6.229
		c-1.091-0.453-2.256-0.473-3.299-0.135c-1.278,0.416-2.369,1.367-2.928,2.701l-3.751,8.77l-11.317-34.834
		c-0.86-2.643-3.761-4.064-6.485-3.18c-2.721,0.885-4.229,3.74-3.371,6.383l8.263,25.434c-0.209,0.055-0.418,0.098-0.625,0.168
		c-0.211,0.07-0.413,0.156-0.619,0.236l-8.264-25.432c-0.858-2.643-3.76-4.068-6.482-3.184c-2.722,0.885-4.235,3.742-3.374,6.385
		l11.228,34.561c0.018,0.047,0.043,0.086,0.06,0.135l0.111,0.338l-7.921-5.029c-1.233-0.756-2.679-0.879-3.954-0.461
		c-1.043,0.336-1.977,1.035-2.594,2.045C258.928,393.977,259.638,396.906,261.881,398.277z"/>
	<path fill="#FFFFFF" d="M310.677,416.713c-0.012-0.006-0.021-0.01-0.031-0.014c-0.075-0.043-0.152-0.08-0.238-0.109
		c-1.946-0.795-4.747-0.002-6.606,0.725c-2.084-4.215-7.108-6.344-11.842-4.807c-5.189,1.688-8.069,7.139-6.433,12.174
		c1.638,5.035,7.17,7.748,12.358,6.064c3.103-1.01,5.38-3.363,6.359-6.172l0,0c2.164-3.906,6.175-5.756,6.175-5.756
		c0.615-0.199,0.953-0.857,0.75-1.475c-0.086-0.271-0.268-0.484-0.492-0.627V416.713z"/>
	<path fill="#FFFFFF" d="M398.854,258.246l18.09-15.285c0.349-0.303,0.637-0.645,0.879-1.014c2.01-2.006,3.265-4.809,3.265-7.921
		c0-3.438-1.528-6.511-3.919-8.531c-0.076-0.073-0.145-0.154-0.227-0.224l-18.253-15.764c-2-1.716-5.005-1.483-6.716,0.516
		c-0.769,0.895-1.147,2-1.146,3.095c-0.002,1.343,0.563,2.677,1.661,3.619l7.182,6.277h-36.626c-2.78,0.001-5.029,2.319-5.029,5.182
		c0,2.861,2.251,5.181,5.029,5.182l26.742-0.001c-0.013,0.217-0.037,0.427-0.035,0.646c0.002,0.224,0.021,0.443,0.035,0.662
		l-26.74,0.001c-2.778,0.001-5.031,2.319-5.031,5.181c0,2.863,2.251,5.186,5.031,5.184l36.335,0.002
		c0.051-0.002,0.096-0.016,0.146-0.016h0.357l-7.23,5.979c-1.1,0.939-1.666,2.275-1.662,3.615c-0.002,1.098,0.373,2.201,1.145,3.1
		C393.852,259.727,396.855,259.957,398.854,258.246z"/>
	<path fill="#FFFFFF" d="M431.467,217.538c-0.01,0.008-0.019,0.017-0.024,0.024c-0.065,0.058-0.124,0.119-0.178,0.191
		c-1.356,1.607-1.468,4.517-1.351,6.508c-4.653,0.68-8.23,4.801-8.23,9.777c0,5.457,4.294,9.879,9.59,9.879
		c5.294-0.002,9.585-4.422,9.585-9.879c0-3.262-1.535-6.156-3.905-7.956l0,0c-3.046-3.266-3.563-7.651-3.563-7.651
		c0-0.645-0.523-1.172-1.172-1.171c-0.284-0.001-0.543,0.107-0.747,0.278L431.467,217.538z"/>
	<path fill="#FFFFFF" d="M308.003,84.707l-8.948-21.93c-0.178-0.425-0.416-0.806-0.691-1.148c-1.285-2.531-3.563-4.592-6.523-5.555
		c-3.271-1.061-6.665-0.559-9.324,1.093c-0.094,0.05-0.191,0.09-0.284,0.146l-20.633,12.488c-2.249,1.372-2.957,4.301-1.584,6.545
		c0.613,1.011,1.547,1.711,2.589,2.048c1.278,0.416,2.721,0.29,3.956-0.461l8.188-4.892l-11.314,34.834
		c-0.859,2.643,0.65,5.5,3.374,6.384c2.72,0.882,5.622-0.541,6.482-3.184l8.263-25.433c0.2,0.079,0.394,0.167,0.604,0.232
		c0.212,0.067,0.427,0.118,0.638,0.173l-8.261,25.43c-0.857,2.644,0.652,5.503,3.372,6.388c2.724,0.882,5.629-0.54,6.484-3.185
		l11.229-34.558c0.016-0.049,0.016-0.096,0.03-0.144l0.11-0.339l3.452,8.724c0.554,1.335,1.65,2.289,2.925,2.698
		c1.044,0.343,2.211,0.325,3.302-0.129C307.865,89.92,309.013,87.136,308.003,84.707z"/>
	<path fill="#FFFFFF" d="M279.364,41.111c0.006,0.011,0.012,0.021,0.017,0.029c0.036,0.08,0.075,0.155,0.128,0.228
		c1.109,1.789,3.842,2.792,5.771,3.298c-0.791,4.635,2.021,9.311,6.755,10.847c5.189,1.687,10.724-1.029,12.36-6.066
		c1.634-5.036-1.246-10.484-6.434-12.169c-3.104-1.009-6.329-0.441-8.771,1.255l0,0c-4.049,1.889-8.381,1.023-8.381,1.023
		c-0.613-0.196-1.275,0.138-1.475,0.756c-0.09,0.27-0.066,0.547,0.031,0.795L279.364,41.111z"/>
	<g>
		<path fill="#FFFFFF" d="M315.293,152.707c-21.714-21.714-50.584-33.674-81.293-33.674s-59.579,11.959-81.294,33.674
			c-21.714,21.714-33.673,50.583-33.673,81.293c0,30.709,11.959,59.58,33.673,81.293c21.715,21.713,50.585,33.674,81.294,33.674
			s59.579-11.961,81.293-33.674s33.674-50.584,33.674-81.293C348.967,203.291,337.007,174.421,315.293,152.707z M124.299,234
			c0-19.759,5.254-38.312,14.434-54.341c0.367-0.378,1.53-1.329,2.225,0.815c0.038,0.144,0.08,0.286,0.122,0.428
			c0.006,0.023,0.012,0.045,0.018,0.068v-0.004c0.329,1.096,0.79,2.135,1.368,3.097h-0.002c0,0,0.007,0.01,0.016,0.026
			c0.012,0.018,0.021,0.037,0.034,0.055c0.348,0.587,2.438,4.382,1.272,8.857c-0.338,0.734-0.632,1.494-0.872,2.277
			c0,0.002,0,0.004-0.001,0.005l0.001-0.001c-0.521,1.699-0.802,3.501-0.802,5.369s0.281,3.67,0.802,5.37h-0.001
			c0,0,0.003,0.009,0.003,0.011c0.125,0.409,0.269,0.811,0.421,1.206c0.305,0.961,0.671,2.331,0.727,3.519l0.033-0.014
			c-0.018,0.108-0.033,0.215-0.033,0.327c0,0.987,0.699,1.813,1.63,2.006h-0.001c0,0,2.425,0.675,2.746,2.604
			c0.015,0.117,0.024,0.235,0.024,0.357l0.01-0.02c0.102,3.729,1.439,4.636,1.439,4.636c1.377,1.405,1.326,2.808,1.253,3.31
			c-0.014,0.048-0.021,0.096-0.027,0.146c-0.006,0.029-0.012,0.049-0.012,0.049l0.008-0.004c-0.006,0.045-0.015,0.09-0.015,0.137
			c0,0.523,0.303,0.974,0.74,1.196l-0.006,0.003c0,0,0.012,0.004,0.031,0.01c0.042,0.021,0.084,0.039,0.128,0.054
			c0.494,0.22,2.009,1.08,2.151,3.405l0.013-0.013c0.015,0.096,0.045,0.187,0.091,0.268h-0.002c0,0,0.84,2.009,2.458,3.375
			c0.005,0.005,0.011,0.009,0.016,0.014c0.012,0.009,0.022,0.021,0.034,0.03l0.004-0.004c0.086,0.068,0.189,0.115,0.308,0.115
			c0.279,0,0.506-0.227,0.506-0.506c0-0.167-0.088-0.309-0.213-0.401l0.005-0.006c0,0-1.429-1.352-1.592-2.872l-0.014,0.002
			c0.007-0.044,0.014-0.089,0.014-0.135c0-0.021-0.005-0.04-0.007-0.06l0.007-0.001c-0.313-2.797-2.188-5.2-2.188-5.2l-0.001,0.002
			c-0.102-0.159-0.234-0.295-0.392-0.4h0.001c0,0-1.757-0.893-1.977-4.616c-0.015-0.423,0.028-1.454,0.766-1.454
			c0.571,0,0.854,0.528,0.988,0.934c0.034,0.148,0.067,0.296,0.106,0.442c0.001,0.007,0.002,0.014,0.002,0.014l0.001-0.004
			c0.605,2.286,1.79,4.336,3.387,5.985l-0.006-0.002c0,0,1.127,1.138,1.06,2.048l0.005-0.004c0,0.018-0.005,0.034-0.005,0.051
			c0,0.574,0.337,1.065,0.822,1.299l-0.003,0.002c0,0,4.085,2.655,4.854,7.906l0.02-0.012c0.156,2.27,1.647,4.17,3.699,4.922
			l-0.009,0.006c0,0,6.13,2.33,8.106,3.916c0.527,0.521,1.252,0.842,2.052,0.842c0.217,0,0.428-0.023,0.632-0.068l0,0h0.004
			c0.216-0.049,0.421-0.123,0.615-0.217c0.999-0.281,2.954-0.557,3.936,1.244v-0.004c0.527,1.326,1.701,2.328,3.134,2.611
			c0.458,0.135,1.07,0.293,1.837,0.447h-0.001c0,0,4.191,0.742,5.483,2.344c0.023,0.031,0.046,0.061,0.07,0.09
			c0.001,0.002,0.004,0.004,0.005,0.006l0,0c0.001,0,0.001,0,0.001,0h-0.001c0,0,0.44,0.766,1.048,2.582
			c0,0,0.293,1.719,1.675,2.377l7.419,3.568l0,0c0.468,0.225,0.771,0.586,0.908,0.773c0.022,0.041,0.048,0.08,0.076,0.115
			c0.002,0.004,0.007,0.012,0.007,0.012v-0.002c0.16,0.191,0.396,0.316,0.665,0.316c0.477,0,0.864-0.387,0.864-0.865
			c0-0.049-0.006-0.094-0.014-0.141l0.014,0.002c0,0-0.458-1.545,1.039-1.766c0.104-0.014,0.208-0.027,0.323-0.027
			c0.936,0,1.608,0.264,2.058,0.805c0.069,0.084,0.131,0.172,0.187,0.264c0.169,0.504,0.089,0.916-0.05,1.221
			c-0.244,0.383-0.511,0.529-0.7,0.592c-0.081,0.008-0.163,0.023-0.242,0.037c-0.001,0-0.003,0-0.003,0v0.004
			c-0.486,0.107-0.919,0.355-1.249,0.707v-0.004c-0.334,0.441-0.855,0.398-0.855,0.398c-0.807,0-1.459,0.639-1.498,1.434
			c-0.052,0.18-0.374,1.229-1.023,1.926c-0.063,0.061-0.127,0.121-0.188,0.184c-0.012,0.01-0.021,0.021-0.032,0.029l0.004,0.002
			c-1.158,1.207-1.874,2.842-1.874,4.646c0,0.455,0.046,0.902,0.133,1.33l-0.001-0.002c0.642,3.447-1.078,4.975-1.078,4.975h0.003
			c-0.756,0.607-1.361,1.393-1.746,2.295c-0.099-0.025-0.2-0.045-0.307-0.045c-0.649,0-1.176,0.527-1.176,1.178
			c0,0.111,0.021,0.219,0.05,0.322l-0.002-0.002c0.068,1.502-0.861,2.422-0.861,2.422l0,0c-0.224,0.215-0.364,0.514-0.364,0.848
			c0,0.594,0.443,1.082,1.019,1.16h-0.001c1.034,0.428,0.647,1.045,0.399,1.318c-0.007,0.008-0.014,0.016-0.02,0.021
			c-0.569,0.555-0.853,0.668-0.853,0.668l0.002,0.002c-0.507,0.131-0.884,0.588-0.884,1.137c0,0.381,0.185,0.717,0.468,0.934
			c0.4,0.303,0.221,0.717,0.133,0.871c-0.014,0.021-0.027,0.043-0.039,0.066l0,0l0,0c-0.06,0.104-0.094,0.221-0.094,0.346
			c0,0.287,0.169,0.533,0.414,0.645l0,0c0.027,0.014,0.056,0.021,0.083,0.029c0.187,0.07,0.656,0.254,0.92,0.465l0.001-0.002
			c0.106,0.096,0.218,0.186,0.335,0.27h-0.003c0,0,0.01,0.006,0.014,0.008c0.076,0.053,0.154,0.102,0.234,0.148
			c0.56,0.373,1.933,1.412,2.735,3.049c0.116,0.326,0.242,0.648,0.374,0.965c0.004,0.016,0.01,0.029,0.015,0.047l0.001-0.006
			c2.371,5.701,7.015,10.215,12.798,12.424c1.147,0.748,2.366,2.039,2.366,4.156c0,1.725,0,3.469,0,4.898
			c0,2.545-1.091,4.607-1.091,4.607l0.002,0.002c-0.471,0.848-0.741,1.822-0.741,2.861c0,0.57,0.086,1.121,0.237,1.641h-0.004
			c0,0,0.262,1.9-0.35,3.225c-0.112,0.166-0.217,0.34-0.314,0.516c-0.005,0.006-0.008,0.012-0.012,0.018h0.001
			c-0.568,1.035-0.894,2.223-0.894,3.486c0,0.756,0.116,1.482,0.331,2.166l0,0c0,0,0.003,0.008,0.003,0.01
			c0.031,0.098,0.07,0.189,0.105,0.287c0.244,0.707,0.776,2.529,0.273,3.73c-0.073,0.107-0.135,0.225-0.185,0.348
			c-0.002,0.004-0.003,0.006-0.006,0.01h0.003c-0.086,0.213-0.136,0.447-0.136,0.691c0,0.063,0.012,0.121,0.019,0.182
			C162.858,332.24,124.299,287.543,124.299,234z M234,343.701c-3.247,0-6.458-0.152-9.635-0.43c-0.622-0.908-0.457-1.75-0.444-1.814
			c0.132-0.441,0.416-0.926,0.995-1.34h-0.012c0.339-0.26,0.651-0.549,0.939-0.863l-0.002,0.014
			c0.504-0.488,1.672-0.662,2.118-0.715c0.049-0.002,0.098-0.008,0.146-0.014c0.019-0.002,0.031-0.002,0.031-0.002l-0.003-0.002
			c0.965-0.135,1.773-0.756,2.17-1.609l0.001,0.002c0,0,0.849-1.951,3.906-1.316l-0.001-0.002c0.282,0.084,0.579,0.131,0.889,0.131
			c1.194,0,2.233-0.672,2.765-1.65l0,0c0.613-1.209,1.822-1.799,2.366-2.012c0.088-0.031,0.177-0.061,0.265-0.092
			c0.009-0.004,0.017-0.006,0.017-0.006h-0.002c3.282-1.225,6.089-3.428,8.066-6.252l-0.002,0.01c0.713-0.947,1.84-1.344,1.84-1.344
			l-0.006-0.006c0.732-0.252,1.261-0.939,1.261-1.758c0-0.074-0.013-0.145-0.021-0.217l0.021,0.023
			c-0.18-3.305,3.359-3.928,3.359-3.928l-0.004-0.002c1.245-0.24,2.45-0.604,3.594-1.078l-0.001,0.004
			c0.646-0.246,1.591-0.342,2.208-0.379c0.043,0,0.086,0.006,0.131,0.006c0.157,0,0.313-0.012,0.465-0.031c0.014,0,0.022,0,0.022,0
			l-0.004-0.002c1.565-0.193,2.842-1.309,3.273-2.787v0.008c0.243-1.115,0.901-1.895,0.901-1.895h-0.006
			c2.446-2.848,4.047-6.443,4.409-10.398l0.003,0.004c0,0,0.15-1.68,1.342-2.613h-0.006c0.377-0.305,0.725-0.645,1.032-1.018l0,0
			c0.313-0.344,0.846-0.686,1.146-0.863c0.038-0.021,0.073-0.045,0.11-0.066c0.064-0.039,0.111-0.063,0.111-0.063l-0.006-0.002
			c0.318-0.199,0.604-0.439,0.85-0.717l0.002,0.004c0.01-0.012,0.02-0.025,0.027-0.035c0.203-0.229,0.377-0.484,0.521-0.756
			c1.183-2.119,0.973-5.096,0.973-5.096l-0.022,0.01c-0.096-0.939-0.88-1.676-1.845-1.676c-0.027,0-0.055,0.008-0.082,0.008
			l0.006-0.004c-1.793,0-2.425-0.648-2.425-0.648l0.002,0.014c-1.078-1.014-2.465-1.697-4.006-1.898l0.014-0.004
			c-4.156-0.607-6.314-2.018-6.314-2.018l-0.002,0.004c-2.88-1.828-6.293-2.893-9.959-2.893c-0.261,0-0.521,0.008-0.78,0.02
			l0.01-0.004c-0.875-0.398-0.211-1.188-0.211-1.188h-0.002c0.133-0.186,0.213-0.408,0.213-0.656c0-0.328-0.143-0.623-0.367-0.828
			h0.002c-0.039-0.029-0.07-0.061-0.107-0.086c-0.01-0.008-0.018-0.02-0.027-0.025c-0.699-0.566-0.834-1.322-0.834-1.322
			l-0.004,0.012c-0.76-3.188-3.618-5.561-7.039-5.561c-0.539,0-1.062,0.063-1.565,0.174l0.005-0.004
			c-1.927,0.385-3.729-1.152-3.729-1.152l0.002,0.006c-0.113-0.098-0.226-0.197-0.342-0.295l0.008-0.002
			c-0.81-0.635-1.209-1.463-1.209-1.463l0,0c-0.495-0.916-1.444-1.551-2.546-1.609l0.004-0.004c-0.95-0.027-1.465-0.258-1.465-0.258
			l0.001,0.008c-0.042-0.02-0.084-0.037-0.126-0.059h0.013c-0.473-0.188-0.68-0.666-0.767-0.967
			c-0.012-0.074-0.031-0.146-0.053-0.217c-0.005-0.025-0.007-0.041-0.007-0.041l-0.004,0.006c-0.179-0.527-0.623-0.934-1.18-1.043
			h0.001c-0.775-0.072-1.367-0.383-1.659-0.564c-0.06-0.043-0.12-0.084-0.183-0.123c-0.008-0.006-0.021-0.016-0.021-0.016
			l0.001,0.004c-0.494-0.303-1.074-0.48-1.697-0.48c-0.411,0-0.803,0.08-1.164,0.221l0.002-0.004
			c-1.505,0.576-2.29-0.217-2.29-0.217l0.001,0.004c-0.572-0.502-1.321-0.807-2.143-0.807c-0.45,0-0.879,0.092-1.269,0.254
			c-0.872,0.232-1.43-0.479-1.43-0.479l0,0c-0.503-0.617-1.269-1.016-2.129-1.016c-1.515,0-2.742,1.229-2.742,2.742
			c0,0.221,0.029,0.436,0.078,0.639l-0.003-0.002c0.207,0.949-0.607,0.51-0.607,0.51s0.002,0.008,0.004,0.012
			c-0.196-0.15-0.4-0.289-0.613-0.416l0.013-0.002c-0.53-0.355-0.481-1.174-0.481-1.174c0-0.395-0.095-0.766-0.261-1.096
			c0.087-0.588,0.311-2.795-0.896-4.252c-0.705-0.854-1.74-1.285-3.075-1.285c-0.735,0-1.328,0.199-1.783,0.443l0.001-0.002
			c-1.441,0.773-2.523,0.488-2.981,0.295l0.174,0.088c-0.106-0.045-0.218-0.102-0.334-0.164c0.04,0.021,0.092,0.047,0.16,0.076
			l-0.242-0.123l0,0c-0.305-0.176-0.641-0.414-1.006-0.748c-2.717-2.469-1.611-6.49-1.611-6.49h-0.001
			c0.184-0.443,0.287-0.932,0.287-1.443c0-2.094-1.697-3.789-3.789-3.789c-0.103,0-0.202,0.006-0.303,0.018l0.001-0.004
			c-0.01,0-0.019,0.004-0.029,0.004c-0.029,0.004-0.059,0.004-0.087,0.008c-4.623,0.424-4.798-1.186-4.798-1.186l-0.002,0.002
			v-0.002h0.002c-0.002-0.016-0.002-0.031-0.004-0.049c-0.004-0.035-0.006-0.07-0.01-0.105c-0.583-5.066,1.943-7.625,2.385-8.027
			c0.021-0.02,0.042-0.035,0.062-0.055c0.001-0.002,0.01-0.012,0.01-0.012l-0.005,0.006c0.121-0.131,0.196-0.305,0.196-0.496
			c0-0.404-0.327-0.73-0.729-0.73c0,0-3.367-0.174-4.669,0.693l0.004,0.004c-0.649,0.414-1.084,1.139-1.084,1.967
			c-0.264,2.773-2.198,3.064-2.484,3.092c-1.52,0.129-3.83,0.145-5.403-0.666c-0.125-0.086-0.257-0.162-0.395-0.229l0,0
			c-2.621-2-3.806-5.24-3.806-5.24l-0.043,0.032c-0.004-0.032-0.011-0.065-0.016-0.098l0.059,0.065
			c-1.056-4.013-0.119-5.792,0.361-6.395c0.421-0.398,0.725-0.917,0.85-1.505v0.001c1.491-7.053,8.456-6.644,8.456-6.644
			l-0.003-0.002c0.33,0.035,0.664,0.058,1.004,0.058c1.891,0,3.646-0.577,5.103-1.564l-0.002,0.001
			c2.522-1.601,4.665-0.138,4.665-0.138v-0.001c0.408,0.408,0.973,0.66,1.594,0.66c0.299,0,0.582-0.06,0.844-0.166l-0.003,0.005
			c0,0,0.005-0.004,0.014-0.008c0.038-0.016,0.073-0.037,0.11-0.054c0.298-0.131,1.107-0.368,2.048,0.353l0.004-0.007
			c0.054,0.068,0.11,0.136,0.172,0.197l-0.002,0.001c0,0,0.891,1.099,1.022,3.175h0.01l0,0h-0.01c0,0,0.007,0.04,0.02,0.095
			c0.013,0.081,0.033,0.158,0.055,0.233c0.215,0.848,0.949,3.148,2.803,4.633c0.061,0.065,0.131,0.122,0.209,0.168
			c0.001,0.001,0.003,0.003,0.004,0.004l0.001-0.001c0.148,0.09,0.321,0.145,0.509,0.145c0.548,0,0.993-0.445,0.993-0.994
			c0.063-1.927-0.287-3.572-0.546-4.506v0.001c-0.127-0.566-0.412-1.406-0.718-2.232v0.001c-1.138-2.847-0.526-4.616-0.427-4.867
			c0.802-1.578,2.037-2.182,2.037-2.182l-0.006-0.001c3.987-2.027,6.854-5.934,7.436-10.557l0.003,0.013
			c0.225-2.531,1.411-3.052,1.766-3.153c0.02-0.003,0.037-0.01,0.057-0.015c0.026-0.005,0.045-0.009,0.045-0.009l-0.004-0.004
			c0.738-0.183,1.321-0.739,1.548-1.458l0.008,0.016c0.364-1.508,1.971-2.563,1.971-2.563h-0.005
			c1.856-1.157,3.357-2.827,4.307-4.814h0.001c1.732-2.307,4.352-2.791,5.551-2.89c0.05,0.001,0.098,0.007,0.148,0.007
			c0.163,0,0.322-0.012,0.48-0.03c0.003,0,0.015,0,0.015,0l-0.001-0.002c0.545-0.065,1.057-0.237,1.515-0.496v0.002
			c0,0,0.01-0.007,0.012-0.009c0.203-0.115,0.395-0.244,0.574-0.391c0.301-0.182,0.672-0.371,1.008-0.432l-0.001,0
			c0.299-0.067,0.577-0.185,0.827-0.346l-0.003,0.002c0,0,0.868-0.303,1.457,0c0.709,0.365-0.82,0.995-0.898,1.017l0.066-0.017
			c-1.146,0.418-1.767,0.802-1.767,0.802v0.001c-0.392,0.192-0.664,0.591-0.664,1.057c0,0.653,0.529,1.183,1.183,1.183
			c0.491,0,0.911-0.299,1.089-0.724c1.176-2.029,4.595-2.269,5.445-2.297c0.122-0.001,0.193-0.005,0.193-0.005
			c0.478,0,0.864-0.386,0.864-0.862c0-0.477-0.387-0.863-0.864-0.863c-0.047,0-0.091,0.007-0.136,0.014l0,0
			c-3.683,0.512-4.698-1.628-4.897-2.185c-0.01-0.035-0.022-0.068-0.033-0.104c-0.005-0.015-0.008-0.027-0.008-0.027l-0.002,0.004
			c-0.251-0.71-0.807-1.276-1.511-1.541h0.008c-0.794-0.4-0.001-0.652,0.209-0.709c0.253-0.063,0.486-0.067,0.599-0.064
			c0.008,0,0.016,0.002,0.025,0.002c0.005,0,0.009-0.001,0.014-0.001c0.017,0.001,0.029,0.001,0.029,0.001v-0.004
			c0.632-0.023,1.139-0.54,1.139-1.177c0-0.639-0.507-1.155-1.139-1.178v-0.003c0,0-4.222-0.256-7.104,1.871
			c-0.416,0.278-0.775,0.632-1.064,1.038l-0.002-0.003c0,0-1.607,1.699-1.735,1.051c-0.126-0.635,0.954-1.546,1.644-2.056
			c0.187-0.121,0.369-0.248,0.547-0.38c0-0.001,0.005-0.003,0.005-0.003l-0.001-0.001c0.442-0.333,0.854-0.704,1.232-1.105
			l-0.002,0.005c1.015-1.099,3.563-1.812,3.563-1.812l-0.018-0.006c0.6-0.162,1.173-0.383,1.714-0.658l-0.003,0.008
			c2.321-0.922,4.643-0.602,5.647-0.385c0.582,0.177,1.197,0.274,1.837,0.274c1.372,0,2.637-0.446,3.67-1.195l-0.004,0.01
			c0,0,0.014-0.014,0.034-0.033c0.096-0.07,0.193-0.138,0.285-0.214c0.442-0.285,1.35-0.704,2.799-0.594
			c1.794,0,3.249-1.456,3.249-3.251c0-0.035-0.004-0.069-0.004-0.104l0.004,0.003c-0.053-1.059-0.02-2.262-0.02-2.262l-0.002,0.001
			c0.014-0.147,0.021-0.296,0.021-0.447c0-2.771-2.246-5.017-5.017-5.017c-0.688,0-1.345,0.139-1.942,0.391
			c-3.667,1.121-4.403-1.52-4.403-1.52s-0.004,0.004-0.004,0.005c-0.114-1.545-1.082-2.852-2.435-3.448
			c0.022-0.112,0.037-0.229,0.037-0.349c0-0.932-0.756-1.687-1.688-1.687c-0.746,0-1.372,0.487-1.596,1.16l-0.005-0.009
			c-1.063,1.797-3.425,1.546-3.425,1.546c-3.578-0.281-3.263-2.306-3.263-2.306l-0.004,0.004c0.001-0.027,0.004-0.052,0.004-0.078
			c0-1.01-0.611-1.878-1.482-2.254l0.001-0.001c-0.004-0.001-0.007-0.002-0.009-0.003c-0.013-0.005-0.025-0.01-0.038-0.015
			c-0.929-0.338-1.484-0.862-1.484-0.862l0.001,0.009c-1.087-0.997-2.53-1.608-4.12-1.608c-0.443,0-0.874,0.049-1.291,0.14
			l0.003-0.004c-0.844,0.257-1.831-0.04-1.831-0.04v0.002c-0.22-0.063-0.451-0.098-0.691-0.098c-0.068,0-0.135,0.004-0.201,0.009
			l0.002-0.001c-0.511,0.074-0.972-0.168-0.972-0.168l-0.063-0.036v0.003c-0.15-0.083-0.32-0.134-0.504-0.134
			c-0.582,0-1.053,0.472-1.053,1.054c0,0.144,0.028,0.28,0.08,0.405h-0.001l0.001,0.003c0.002,0.001,0.003,0.004,0.004,0.008
			c0.022,0.047,0.258,0.548,0.223,0.952c-0.002,0.01-0.003,0.02-0.005,0.029c-0.008,0.054-0.017,0.105-0.035,0.153l0.014-0.008
			c-0.009,0.083-0.014,0.167-0.014,0.252c0,0.292,0.054,0.572,0.145,0.833l-0.003-0.001c0,0,0.598,1.685-0.396,2.365
			c-0.029,0.019-0.058,0.037-0.086,0.056c-0.013,0.007-0.021,0.015-0.033,0.021h0.008c-0.413,0.308-0.685,0.796-0.685,1.351
			c0,0.67,0.395,1.246,0.962,1.517l-0.001,0.004c0,0,1.562,0.683,1.562,2.256c0,2.294-3.122,3.689-3.122,3.689l0.002,0.001
			c-0.887,0.437-1.498,1.346-1.498,2.4c0,0.296,0.05,0.582,0.14,0.85c0.169,0.788,0.771,4.202-1.242,5.05
			c-2.867,1.207-3.431-4.326-3.431-4.326l-0.004,0.001c0.001-0.034,0.006-0.067,0.006-0.101c0-2.771-2.247-5.018-5.018-5.018
			c-0.495,0-0.971,0.074-1.422,0.208v-0.001c0,0-0.004,0.001-0.008,0.003c-0.036,0.011-0.073,0.021-0.11,0.034
			c-0.364,0.089-1.685,0.258-5.445-0.449c-0.068-0.014-0.128-0.028-0.193-0.041c-0.181-0.042-0.363-0.083-0.547-0.118
			c-2.377-0.571-3.302-1.46-3.637-1.921c-0.052-0.103-0.11-0.202-0.174-0.298l-0.001-0.003h-0.001
			c-0.073-0.111-0.153-0.217-0.24-0.318c-2.702-3.218-0.008-6.671,0-6.681c0.559-0.622,0.99-1.36,1.241-2.181v0.001
			c0.726-1.416,2.742-1.917,3.544-2.065c0.114-0.014,0.228-0.031,0.338-0.054l0.003-0.001h-0.001h0.001l0,0
			c3.271-0.669,5-2.277,5.212-2.484c0.006-0.006,0.011-0.011,0.016-0.016c0.002-0.002,0.008-0.007,0.008-0.007l-0.001-0.001
			c0.063-0.07,0.104-0.161,0.104-0.263c0-0.218-0.178-0.396-0.396-0.396c-0.08,0-0.151,0.03-0.214,0.071l-0.004-0.005
			c0,0-0.498,0.351-1.199,0.415c-0.072-0.004-0.212-0.033-0.215-0.182c-0.006-0.299,0.35-0.299,0.35-0.299
			c0.839,0,1.578-0.417,2.026-1.052l0,0l0.001-0.002c0.108-0.154,0.199-0.32,0.271-0.496c0.247-0.391,0.676-0.937,1.314-1.361
			c0.535-0.314,1.084-0.085,1.349,0.066c0.043,0.032,0.087,0.059,0.135,0.084c0.016,0.012,0.027,0.021,0.027,0.021l-0.001-0.005
			c0.162,0.084,0.344,0.137,0.539,0.137c0.326,0,0.621-0.134,0.833-0.349c0.415-0.407,1.227-0.315,1.227-0.315l-0.006-0.005
			c0.025,0.001,0.05,0.007,0.075,0.007c0.702,0,1.323-0.323,1.743-0.82c0.002,0.006,0.003,0.012,0.003,0.012
			c0.217-0.294,0.864-0.475,0.864-0.475l-0.001-0.001c0.331-0.128,0.568-0.447,0.568-0.825c0-0.376-0.237-0.696-0.568-0.824
			l0.001-0.001c-0.383-0.122-0.619-0.481-0.689-0.601c-0.009-0.013-0.015-0.028-0.023-0.041l-0.001-0.001l0,0
			c-0.412-0.606-1.107-1.005-1.896-1.005c-0.498,0-0.957,0.164-1.332,0.434l0.002-0.007c-0.212,0.197-0.606,0.26-0.796,0.279
			c-0.005,0.001-0.009,0.001-0.013,0.001c-0.058,0.005-0.094,0.007-0.094,0.007l0.002,0.002c-0.425,0.065-0.75,0.43-0.75,0.872
			c0,0.016,0.003,0.03,0.004,0.046l-0.004-0.004c0,0,0.133,0.706-0.318,0.992c-0.215,0.158-0.449,0.296-0.699,0.397
			c-1.425,0.565-2.265,0.332-2.573,0.198c-0.044-0.025-0.091-0.049-0.137-0.071l0,0c-0.379-0.204-0.069-0.477,0-0.488v-0.001
			c0.395-0.09,0.689-0.44,0.689-0.861c0-0.489-0.396-0.885-0.886-0.885c-0.102,0-0.197,0.021-0.288,0.052
			c-0.714,0.143-1.205,0.463-1.543,0.838l0.002-0.005c-0.41,0.502-0.689,0.278-0.813,0.115c-0.021-0.034-0.042-0.068-0.065-0.101
			c-0.005-0.009-0.008-0.015-0.008-0.015l0.001,0.007c-0.386-0.538-1.013-0.892-1.726-0.892c-0.904,0-1.672,0.568-1.979,1.366
			l-0.002-0.009c0,0-0.002,0.012-0.006,0.03c-0.03,0.082-0.057,0.165-0.077,0.251c-0.107,0.265-0.35,0.668-0.897,1.008l0.004,0.001
			c-0.456,0.263-0.856,0.612-1.179,1.026v-0.003c-0.002,0.003-0.004,0.007-0.006,0.011c-0.194,0.251-0.361,0.526-0.493,0.82
			c-0.785,0.979-1.767,0.946-2.357,0.803c-0.773-0.381-1.641-0.599-2.56-0.599c-0.846,0-1.647,0.184-2.372,0.509l0.001-0.005
			c-0.033,0.019-0.067,0.034-0.101,0.052c-0.117,0.056-0.234,0.11-0.347,0.173c-1.63,0.75-3.363,0.784-3.833,0.777
			c-0.042-0.001-0.083-0.003-0.125-0.003c-1.554,0-3.018,0.375-4.313,1.036l0,0c-0.258,0.131-0.51,0.275-0.755,0.43
			c-1.14,0.579-2.313,0.897-2.778,0.988c-0.57,0.093-1.124,0.235-1.656,0.426c-4.063,1.282-4.725,0.523-4.833,0.242
			c18.021-15.502,41.115-25.258,66.416-26.407c2.581-0.002,11.527,0.288,14.261,4.309c0.011,0.017,0.023,0.032,0.035,0.05
			c0.024,0.037,0.055,0.073,0.077,0.111l0.003-0.005c0.846,1.169,2.149,1.981,3.65,2.171l-0.013,0.003c0,0,1.904,0.234,1.893,0.965
			c-0.077,0.474-1.319,0.304-1.319,0.304l0.007,0.003c-1.516-0.327-2.693-0.172-3.055-0.107c-0.024,0.004-0.051,0.009-0.073,0.015
			c-0.028,0.005-0.043,0.009-0.043,0.009v0.003c-0.54,0.146-0.939,0.634-0.939,1.22c0,0.701,0.568,1.269,1.269,1.269
			c0.154,0,0.301-0.032,0.439-0.083v0.003c0,0,1.739-0.593,3.747-0.439c0.084,0.016,0.304,0.074,0.32,0.25
			c-0.017,0.231-0.684,0.284-0.684,0.284h0.003c-1.773,0.167-3.162,1.658-3.162,3.475c0,1.26,0.67,2.362,1.672,2.976l-0.002,0.001
			c0,0,0.02,0.012,0.049,0.028c0.047,0.027,0.094,0.057,0.143,0.082c0.563,0.333,2.238,1.42,2.788,2.857l-0.002-0.006
			c1.631,3.729,5.35,6.338,9.684,6.338c0.367,0,0.728-0.02,1.085-0.056v0.001l0.004-0.001c0.216-0.022,0.428-0.052,0.642-0.088
			c0.935-0.102,2.63-0.18,3.254,0.496v-0.003c0.024,0.022,0.047,0.044,0.071,0.065v0.002c0,0,0.923,0.98,1.319,1.422l-0.002-0.007
			c0.377,0.398,0.906,0.649,1.498,0.649c0.896,0,1.651-0.575,1.937-1.375l0.006,0.005c0.566-1.694,0.387-2.97,0.143-3.739
			c-0.064-0.237-0.158-0.463-0.277-0.672c-0.057-0.103-0.096-0.159-0.096-0.159v0.001c-0.067-0.104-0.143-0.203-0.221-0.297
			l0.003,0.001c-0.478-0.568,0-0.607,0.165-0.605c0.006,0,0.014,0.002,0.02,0.002c0.005,0,0.011-0.001,0.014-0.001
			c0.012,0,0.02,0.001,0.02,0.001l-0.004-0.003c0.639-0.016,1.154-0.536,1.154-1.178c0-0.252-0.082-0.484-0.217-0.676h0.002
			c-0.535-0.841-0.184-1.814-0.119-1.978c0.656-1.105,1.952-1.24,2.567-1.236c0.114,0.006,0.225,0.018,0.341,0.018
			c1.97,0,3.684-1.075,4.6-2.667v0.004c0.002-0.008,0.006-0.014,0.01-0.021c0.051-0.089,0.098-0.18,0.143-0.271
			c0.596-0.972,1.646-0.88,1.646-0.88c0.699,0,1.313-0.36,1.672-0.904v0.001c0,0,0.438-0.953,1.56-0.658
			c16.313,8.106,30.336,20.148,40.813,34.884c0.232,0.462,0.432,0.985,0.414,1.387c-0.293,0.54-1.167-0.004-1.167-0.004v0.001
			c-0.656-0.417-1.215-0.413-1.217-0.413c-0.043-0.008-0.086-0.014-0.133-0.014c-0.346,0-0.627,0.281-0.627,0.627
			c0,0.242,0.136,0.449,0.336,0.554v0.002c0,0,0.638,0.597,0.133,1.039c-0.219,0.148-0.586,0.109-0.824,0.063
			c-0.064-0.019-0.129-0.035-0.195-0.046c-0.017-0.003-0.027-0.007-0.027-0.007l0.002,0.005c-0.072-0.01-0.143-0.021-0.217-0.021
			c-0.857,0-1.55,0.695-1.55,1.552c0,0.112,0.011,0.221,0.034,0.326c-0.64,0.051-1.211,0.341-1.626,0.784l0.002-0.003
			c-0.961,0.358-2.067-0.075-2.451-0.25c-0.04-0.023-0.081-0.045-0.126-0.062c-0.008-0.004-0.015-0.006-0.015-0.006v0.002
			c-0.083-0.03-0.173-0.048-0.269-0.048c-0.446,0-0.806,0.36-0.806,0.806c0,0.444,0.359,0.806,0.806,0.806
			c0,0,1.269-0.023,2.467,1.65c0.079,0.147,0.171,0.286,0.276,0.414v0.001c0.119,0.146,0.258,0.276,0.406,0.393v0.001
			c0,0,1.276,2.006,1.384,3.63c-0.028,1.963-2.79,1.36-4.263,0.899c0.007-0.039,0.013-0.077,0.013-0.117
			c0-0.483-0.394-0.875-0.875-0.875c-0.313,0-0.584,0.165-0.739,0.41c-0.481-0.182-1.366-0.529-1.366-0.529v0.001
			c-0.178-0.117-0.391-0.187-0.619-0.187c-0.622,0-1.126,0.505-1.126,1.127c0,0.22,0.065,0.424,0.176,0.598h-0.002
			c0,0,0.229,0.395,0.413,0.857c-0.203,0.161-0.334,0.405-0.334,0.683c0,0.176,0.053,0.339,0.141,0.476l0,0
			c0,0,0.004,0.006,0.004,0.008c0.004,0.003,0.006,0.007,0.011,0.011c0.058,0.084,0.411,0.625,0.438,1.401
			c-0.006,0.209-0.017,0.415-0.037,0.606c-0.098,0.709-0.406,1.248-0.613,1.542c-0.08,0.07-0.145,0.153-0.193,0.246
			c0,0.001-0.003,0.005-0.003,0.005h0.002c-0.063,0.121-0.102,0.256-0.102,0.401c0,0.212,0.077,0.404,0.202,0.556v0.001
			c0,0,0.006,0.004,0.008,0.006c0.035,0.043,0.077,0.083,0.12,0.117c0.2,0.199,0.587,0.604,0.815,0.967
			c0.227,0.434,0.131,0.956,0.041,1.26c-0.037,0.081-0.067,0.163-0.088,0.253v0.001v-0.001c-0.014,0.07-0.021,0.143-0.021,0.217
			c0,0.604,0.49,1.094,1.094,1.094c0.016,0,0.031-0.004,0.047-0.004c0.199-0.018,1.036-0.048,2.23,0.483
			c0.216,0.186,0.46,0.422,0.658,0.672v-0.003c0.198,0.215,0.481,0.351,0.796,0.351c0.316,0,0.599-0.136,0.799-0.35l0.002,0.002
			c0,0,0.418-0.507,0.988-0.674l-0.008-0.004c0.004-0.001,0.006-0.002,0.01-0.003l-0.002,0.007c0,0,0.489-0.134,1.35,0.102
			c0.022,0.005,0.045,0.013,0.067,0.018c0.006,0.002,0.01,0.003,0.016,0.004v-0.002c0.127,0.023,0.258,0.039,0.393,0.039
			c1.17,0,2.121-0.949,2.121-2.117c0-0.065-0.014-0.125-0.02-0.188l0.02,0.021c-0.15-0.974,0.133-1.613,0.133-1.613l-0.006,0.001
			c0.118-0.358,0.202-0.733,0.248-1.12c0.001,0.004,0.001,0.012,0.001,0.012c0.066-0.671,0.634-0.952,0.928-1.053
			c0.042-0.012,0.083-0.024,0.121-0.039c0.037-0.009,0.06-0.013,0.06-0.013l-0.004-0.003c0.712-0.273,1.222-0.959,1.222-1.768
			c0-0.091-0.014-0.178-0.027-0.264l0.01,0.012c0,0-0.217-0.98,0.469-0.924c0.041,0.002,0.084,0.01,0.133,0.023
			c0.011,0.002,0.023,0.006,0.033,0.009c0.193,0.063,0.438,0.229,0.65,0.645v-0.005c0.191,0.317,0.534,0.53,0.934,0.53
			c0.424,0,0.788-0.244,0.97-0.596v0.009c0.096-0.188,0.238-0.321,0.383-0.419c0.135-0.082,1.422-0.759,1.877,0.928
			c0.027,0.154,0.059,0.31,0.098,0.472c0.002,0.011,0.004,0.019,0.006,0.03v-0.01c0.277,1.152,0.87,2.466,2.104,3.544
			c1.791,1.563,2.642,3.167,2.642,3.167c0.032,0.061,0.068,0.117,0.117,0.165h-0.002c0,0,0.633,0.749,0.516,1.812
			c0,0.228,0.184,0.412,0.41,0.412c0.229,0,0.412-0.184,0.412-0.412c0,0,0.041-0.417,0.018-0.852
			c-0.051-0.428,0.357-0.339,0.357-0.339l-0.01-0.01c0.016,0.002,0.029,0.01,0.045,0.01c0.229,0,0.412-0.185,0.412-0.412
			c0-0.192-0.135-0.347-0.314-0.392l0.006-0.006c-0.502-0.089-0.732-0.587-0.732-0.587l-0.002,0.001
			c-0.045-0.095-0.111-0.176-0.191-0.242v-0.001c0,0-0.787-1.622-2.444-3.201c-0.816-0.776-1.328-1.674-1.65-2.548
			c-0.047-0.174-0.33-1.259,0.535-0.222v-0.002c0.729,1.002,1.698,2.093,2.932,3.009c0.78,0.579,1.511,1.862,2.021,2.927
			c1.47,3.831,2.739,7.76,3.777,11.782c0.165,1.815-0.64,1.893-0.64,1.893s0.008,0.005,0.008,0.006
			c-0.279,0.076-0.532,0.21-0.754,0.387v-0.01c-0.725,0.376-1.599-0.459-1.599-0.459l0.006,0.013
			c-0.951-0.915-1.996-1.733-3.119-2.44l0.002-0.001c-1.741-1.237-2.36-3.236-2.36-3.236l-0.002,0.004
			c-0.907-2.778-3.519-4.785-6.599-4.785c-1.444,0-2.786,0.441-3.897,1.196v0c-1.567,1.254-2.804,0.284-2.804,0.284l0.002,0.004
			c-0.399-0.283-0.878-0.459-1.398-0.489l0.015-0.007c-0.626-0.044-0.918-0.361-0.988-0.45c-0.002-0.004-0.006-0.007-0.008-0.01
			c-0.009-0.008-0.013-0.016-0.013-0.016v0.001c-0.147-0.2-0.382-0.331-0.649-0.331c-0.445,0-0.807,0.362-0.807,0.807
			c0,0.096,0.021,0.188,0.053,0.275c-0.002,0-0.002-0.001-0.002-0.001s0.193,1.077-0.456,1.525
			c-0.024,0.013-0.045,0.028-0.069,0.042c-0.033,0.019-0.063,0.038-0.102,0.054h0.014c-1.815,1.11-3.031,3.104-3.031,5.387
			c0,0.498,0.063,0.979,0.171,1.443c-1.963,1.683-3.587,3.75-4.753,6.087v-0.005c-1.128,1.965-3.431,4.4-3.431,4.4l0.004,0
			c-1.177,1.245-1.906,2.921-1.906,4.772c0,1.486,0.471,2.862,1.268,3.992l-0.006-0.001c0,0,1.215,1.453,0.785,3.548
			c-0.01,0.047-0.021,0.093-0.029,0.14c-0.008,0.027-0.01,0.054-0.018,0.081l0.002-0.002c-0.047,0.243-0.092,0.487-0.129,0.733l0,0
			c-0.166,0.941-0.596,1.425-0.858,1.642c-0.077,0.045-0.149,0.096-0.216,0.155l0,0l0,0c-0.283,0.246-0.467,0.604-0.467,1.009
			c0,0.527,0.31,0.98,0.75,1.201l-0.01-0.002c0,0,0.605,0.408,0.269,0.932c-0.049,0.059-0.101,0.113-0.143,0.174
			c-0.005,0.004-0.009,0.008-0.011,0.012l0,0c-0.244,0.357-0.389,0.789-0.389,1.254c0,0.625,0.261,1.191,0.676,1.594h-0.002
			c0,0,1.119,0.857,2.178,2.605v-0.006c1.212,2.301,2.93,4.289,5.009,5.822h-0.002c0,0,2.772,2.299,3.398,3.342v-0.008
			c0.253,0.441,0.72,0.742,1.264,0.742c0.09,0,0.176-0.012,0.262-0.027v0.002c0,0,0.01-0.002,0.014-0.004
			c0.039-0.006,0.074-0.02,0.109-0.029c0.559-0.152,2.901-0.748,5.12-0.676c2.269,0,4.435-0.445,6.416-1.246l-0.004,0.004
			c0,0,2.188-0.947,2.995-0.148l0,0c0.408,0.41,0.975,0.666,1.6,0.666c0,0,2.785,1.133,1.346,4.25l0.004-0.002
			c-0.387,0.879-0.605,1.846-0.605,2.867c0,0.967,0.194,1.889,0.545,2.73h-0.002c0,0,0.004,0.008,0.008,0.016
			c0.01,0.023,0.021,0.047,0.031,0.07c0.375,0.855,3.354,8.025,0.199,13.109c-3.435,5.539-3.792,13.117-3.798,15.891
			C309.608,321.838,274.313,343.701,234,343.701z"/>
		<path fill="#FFFFFF" d="M308.638,163.284L308.638,163.284c0,0.001,0.581,0.205,0.699,0.515v-0.009
			c0.053,0.101,0.118,0.196,0.198,0.278h-0.002c0,0,0.006,0.005,0.012,0.011c0,0.002,0.002,0.003,0.004,0.004
			c0.067,0.072,0.335,0.385,0.27,0.735c0,0.614,0.471,1.114,1.067,1.174l-0.008,0.005c0,0,0.512,0.002,0.588,0.422l0.002-0.005
			c0.07,0.276,0.263,0.503,0.521,0.616l0,0c0.01,0.003,0.019,0.007,0.029,0.011c0.107,0.044,0.48,0.229,0.48,0.683
			c0.004,0.578-0.229,0.791-0.383,0.866c-0.047,0.01-0.09,0.024-0.131,0.043h-0.002l0,0c-0.219,0.098-0.371,0.317-0.371,0.573
			c0,0.106,0.029,0.205,0.076,0.294l-0.002-0.001c0,0,0.113,0.342,0,0.613l0.014-0.011c-0.076,0.232-0.129,0.479-0.129,0.738
			c0,1.309,1.063,2.371,2.373,2.371c0.094,0,0.186-0.018,0.277-0.027l-0.011,0.027c0,0,0.068-0.022,0.172-0.045
			c0.024-0.004,0.047-0.008,0.069-0.013c0.261-0.043,0.696-0.061,1.097,0.184l-0.004-0.007c0.152,0.075,0.32,0.122,0.497,0.138
			l-0.007,0.012c0,0,0.033-0.003,0.082-0.004c0.019,0.001,0.037,0.004,0.055,0.004c0.02,0,0.037-0.003,0.056-0.004
			c0.169,0.004,0.418,0.036,0.632,0.167c0.043,0.045,0.092,0.082,0.145,0.112c0,0.001,0,0.001,0,0.001l0,0
			c0.092,0.052,0.196,0.084,0.311,0.084c0.345,0,0.626-0.281,0.626-0.628c0-0.163-0.063-0.311-0.166-0.423l0,0
			c-0.259-0.273-0.173-0.646-0.173-0.646l-0.006,0.008c0.002-0.035,0.01-0.067,0.01-0.103c0-0.567-0.332-1.052-0.812-1.285
			l0.009-0.002c-0.335-0.145-0.571-0.6-0.667-0.813c-0.006-0.019-0.013-0.037-0.021-0.054c-0.354-1.045-1.309-3.076-3.72-5.13h0.01
			c-0.191-0.166-0.311-0.412-0.311-0.412v0.001c-0.07-0.163-0.179-0.304-0.309-0.419h0.006c-0.221-0.261-0.221-0.689-0.221-0.689
			c0-0.655-0.531-1.187-1.186-1.187c-0.049,0-0.094,0.008-0.141,0.014v-0.006c0,0-0.264,0.063-0.474-0.222
			c-0.21-0.285-0.036-0.695-0.036-0.695l-0.003,0.002c0.022-0.078,0.039-0.16,0.039-0.245c0-0.479-0.39-0.868-0.868-0.868
			c-0.479,0-0.868,0.388-0.868,0.868c0,0.123,0.025,0.239,0.072,0.345c0.007,0.02,0.16,0.441,0.017,0.751
			c-0.008,0.014-0.013,0.028-0.019,0.043c-0.002,0.004-0.004,0.009-0.006,0.014h0.002c-0.041,0.107-0.066,0.22-0.066,0.341
			C308.035,162.8,308.285,163.144,308.638,163.284z"/>
		<path fill="#FFFFFF" d="M304.522,165.399v0.004c0,0,0.197,0.089,0.197,0.257c-0.004,0.013-0.006,0.028-0.008,0.043
			c-0.004,0.011-0.004,0.022-0.008,0.036l0.004-0.003c-0.004,0.03-0.011,0.06-0.011,0.091c0,0.243,0.12,0.457,0.298,0.593
			l-0.002,0.001c0,0,0.277,0.182,0.328,0.566l0.008-0.013c0.021,0.215,0.073,0.418,0.163,0.604l-0.008-0.003
			c0,0,0.105,0.226,0,0.416l0.006-0.001c-0.075,0.154-0.122,0.324-0.122,0.507c0,0.64,0.52,1.159,1.157,1.159
			c0.215,0,0.412-0.062,0.584-0.164l-0.002,0.007c0,0,0.016-0.011,0.035-0.024c0.016-0.01,0.031-0.018,0.044-0.028
			c0.147-0.086,0.485-0.231,0.885-0.059l-0.005-0.007c0.119,0.042,0.245,0.069,0.378,0.069c0.642,0,1.16-0.518,1.16-1.158
			c0-0.396-0.198-0.744-0.502-0.953l0,0c-0.244-0.133-0.199-0.462-0.199-0.462l-0.007,0.011c0-0.027,0.007-0.053,0.007-0.08
			c0-0.322-0.092-0.621-0.241-0.883l0.011,0.005c-0.096-0.197-0.096-0.48-0.096-0.48l-0.005,0.003
			c-0.032-0.613-0.533-1.103-1.154-1.103c-0.049,0-0.094,0.009-0.141,0.015l0.01-0.01c-0.344,0.019-0.408-0.142-0.408-0.142v0.015
			c-0.094-0.174-0.27-0.296-0.479-0.296c-0.308,0-0.556,0.25-0.556,0.556c0,0.195,0.107,0.36,0.26,0.459h-0.018
			c0,0,0.165,0.142,0,0.281c-0.06,0.053-0.176,0.003-0.21-0.013c-0.122-0.086-0.27-0.137-0.429-0.137
			c-0.028,0-0.055,0.005-0.081,0.008l0.002-0.004c-0.279,0.042-0.318-0.126-0.318-0.126l-0.002,0.005
			c-0.051-0.147-0.186-0.255-0.351-0.255c-0.204,0-0.37,0.167-0.37,0.372C304.327,165.218,304.406,165.336,304.522,165.399z"/>
		<path fill="#FFFFFF" d="M238.151,142.749c-0.033,0-0.063,0.014-0.096,0.019l0.004-0.019c0,0-0.936,0.276-1.452-0.231
			c-0.067-0.065-0.116-0.099-0.152-0.109c-0.163-0.099-0.353-0.159-0.555-0.159c-0.082,0-0.161,0.011-0.236,0.028v-0.001
			c-0.234,0.026-0.717,0-0.717,0l0.003,0.003c-0.048-0.009-0.099-0.011-0.147-0.014l0.023-0.016
			c-0.778-0.156-1.041-0.539-1.041-0.539l0.002,0.013c-0.298-0.37-0.751-0.611-1.264-0.611c-0.063,0-0.122,0.012-0.184,0.019
			c0.001,0,0.01-0.008,0.01-0.008c-0.233,0.008-0.761-0.11-0.761-0.11s0,0.003,0,0.004c-0.128-0.042-0.264-0.065-0.403-0.069
			l0.007-0.006c-0.527,0.005-0.869-0.324-0.869-0.324v0.009c-0.285-0.245-0.652-0.399-1.058-0.399c-0.149,0-0.291,0.026-0.428,0.063
			l0.017-0.011c-0.539,0.047-0.65-0.197-0.65-0.197v0.007c-0.009-0.015-0.019-0.03-0.026-0.043h0.004
			c-0.208-0.379,0.09-0.806,0.09-0.806l-0.002-0.002c0.127-0.172,0.212-0.378,0.24-0.602l0.004,0.007
			c0.022-0.178,0.073-0.351,0.123-0.488c0.128-0.287,0.389-0.294,0.531-0.275c0.032,0.009,0.063,0.02,0.098,0.02
			c0.205,0,0.373-0.167,0.373-0.373c0-0.101-0.04-0.19-0.105-0.258h0.001c-0.001-0.001-0.001-0.001-0.001-0.001
			c-0.049-0.051-0.114-0.082-0.186-0.098c-0.601-0.292-1.185-0.148-1.294-0.116c-0.008,0.002-0.015,0.003-0.021,0.006
			c-0.001,0-0.004,0.001-0.004,0.001v0.001c-0.028,0.013-0.05,0.035-0.075,0.05l0.004-0.014c-0.161,0.069-0.589,0.078-0.589,0.078
			l0.006,0.007c-0.05-0.006-0.099-0.016-0.148-0.016c-0.271,0-0.521,0.083-0.729,0.224c-0.312-0.016-0.133-0.277-0.133-0.277
			l-0.005-0.004c0.082-0.099,0.139-0.222,0.139-0.361c0-0.317-0.257-0.573-0.573-0.573c-0.16,0-0.304,0.065-0.407,0.171v-0.001
			c-0.188,0.206-0.543,0.059-0.543,0.059l0.002,0.005c-0.288-0.143-0.6-0.241-0.929-0.291l0.006-0.003c0,0-0.013,0-0.033-0.001
			c-0.057-0.008-0.113-0.017-0.171-0.021c-0.24-0.04-0.628-0.158-0.815-0.52l-0.001,0.006c-0.181-0.339-0.534-0.574-0.945-0.574
			c-0.252,0-0.479,0.091-0.663,0.235c-0.356,0.212-0.898,0.149-0.898,0.149l0.002,0.007c-0.076-0.007-0.15-0.011-0.226-0.011
			c-0.222,0-0.436,0.03-0.64,0.083l0.005-0.005c-0.378,0.116-0.869,0-0.869,0l0.002,0.005c-0.139-0.053-0.285-0.083-0.438-0.097
			l0.02-0.014c-0.422,0.006-0.475-0.182-0.473-0.285c0.04-0.279,0.216-0.319,0.343-0.308c0.042,0.012,0.084,0.026,0.13,0.026
			c0.26,0,0.472-0.211,0.472-0.472c0-0.199-0.124-0.367-0.297-0.437l0.001,0c-0.342-0.069-0.603-0.266-0.603-0.266l-0.001,0.001
			c-0.152-0.146-0.358-0.236-0.585-0.236c-0.114,0-0.223,0.023-0.321,0.064v-0.001c-0.001,0-0.002,0.001-0.003,0.001
			c-0.063,0.026-0.12,0.061-0.175,0.1c-0.293,0.128-0.78,0.224-0.78,0.224v0.008c-0.151,0.018-0.3,0.05-0.435,0.106v0
			c-0.002,0-0.005,0-0.005,0.001c-0.005,0.002-0.009,0.004-0.014,0.006c-0.269,0.141-0.84,0.25-0.841,0.251
			c-0.504,0.102-0.936,0.386-1.243,0.773v-0.015c-0.287,0.381-0.576,0.479-0.576,0.479v0.009c-0.004,0-0.007,0-0.012,0.001
			l0.012-0.01c-0.346,0.057-0.546-0.082-0.645-0.188c-0.02-0.032-0.044-0.059-0.067-0.088c-0.008-0.013-0.014-0.021-0.014-0.021
			l-0.001,0.006c-0.201-0.242-0.502-0.399-0.842-0.399c-0.177,0-0.34,0.045-0.487,0.118l0.001-0.005
			c-0.025,0.017-0.054,0.032-0.081,0.048c-0.019,0.01-0.039,0.021-0.058,0.032c-0.3,0.164-0.646,0.29-0.646,0.29v0.001
			c-0.084,0.019-0.165,0.043-0.242,0.076c-0.298,0.138-0.42-0.033-0.451-0.091c-0.003-0.005-0.006-0.012-0.01-0.02
			c-0.163-0.373,0.016-0.875,0.016-0.875l-0.002-0.001c0.056-0.117,0.09-0.246,0.09-0.385c0-0.497-0.403-0.9-0.9-0.9
			c-0.315,0-0.594,0.165-0.754,0.412l-0.001-0.001c-0.367,0.472-0.985,0.199-0.985,0.199l-0.002,0.003
			c-0.223-0.09-0.465-0.142-0.72-0.142c-0.862,0-1.582,0.563-1.836,1.339l-0.006-0.011c-0.166,0.551-0.555,0.734-0.555,0.734l0,0
			c-0.221,0.098-0.373,0.317-0.373,0.573c0,0.255,0.152,0.474,0.374,0.572l-0.001,0.001c0,0,0.157,0.101,0.228,0.245
			c0.078,0.446-0.255,0.595-0.432,0.641c-0.234,0.05-0.406,0.05-0.406,0.05l0.004,0.002c-0.02-0.001-0.037-0.005-0.056-0.005
			c-0.253,0-0.315-0.162-0.316-0.165c-0.049-0.218,0.021-0.42,0.021-0.42L202.815,137c0.011-0.036,0.021-0.07,0.021-0.109
			c0-0.206-0.167-0.373-0.373-0.373c-0.042,0-0.08,0.011-0.117,0.023v-0.002c-0.384,0.068-0.529-0.462-0.529-0.462l-0.008,0.002
			c-0.004-0.047-0.006-0.094-0.014-0.14l0.003,0c-0.003-0.007-0.003-0.013-0.005-0.02c-0.002-0.012-0.006-0.022-0.008-0.034
			c-0.122-0.433-0.021-0.738,0.045-0.874c0.014-0.02,0.023-0.042,0.035-0.064c0.007-0.01,0.011-0.016,0.011-0.016l-0.001-0.001
			c0.039-0.082,0.063-0.173,0.063-0.27c0-0.347-0.281-0.627-0.627-0.627c-0.242,0-0.448,0.14-0.554,0.34l-0.001-0.001
			c-0.16,0.197-0.749,0.246-0.749,0.246l0.007,0.007c-0.295,0.033-0.565,0.143-0.792,0.313l0.001-0.007
			c-0.338,0.194-0.656,0.165-0.656,0.165v0.004c-0.038-0.013-0.076-0.024-0.119-0.024c-0.206,0-0.373,0.167-0.373,0.373
			c-0.062,0.44-0.497,0.558-0.497,0.558l-0.003,0.008c-0.166,0.038-0.293,0.179-0.293,0.356c0,0.012,0.005,0.021,0.006,0.033
			c-0.002,0.006-0.005,0.008-0.006,0.015c-0.043,0.241-0.144,0.367-0.206,0.425c-0.017,0.015-0.033,0.028-0.049,0.043l-0.004,0.002
			l0.001,0.001c-0.106,0.113-0.173,0.263-0.173,0.43c0,0.346,0.28,0.627,0.627,0.627c0.062,0,0.119-0.012,0.176-0.028
			c0.001,0.006-0.001,0.012,0.001,0.017c0,0,0.417-0.214,0.886-0.024l-0.006-0.006c0.133,0.046,0.273,0.076,0.421,0.076
			c0.118,0,0.23-0.021,0.34-0.051l-0.005,0.006c0.021-0.009,0.046-0.018,0.068-0.026c0.022-0.006,0.044-0.012,0.065-0.02
			c0.254-0.065,0.583-0.036,0.583-0.036l-0.006-0.009c0.003,0,0.006,0.001,0.009,0.001l-0.003,0.008c0,0,0.313,0.082,0.101,0.336
			c-0.147,0.144-0.426,0.264-0.953,0.185l0.001,0.001c-0.509-0.089-1.104-0.096-1.104-0.096c-0.317,0-0.573,0.257-0.573,0.573
			s0.256,0.573,0.573,0.573c0.1,0,0.188-0.033,0.271-0.078l0.003,0.006c0,0,0.246-0.213,1.14-0.135c0,0,0.348,0.056,0.682-0.056
			v0.001c0,0,0.003-0.003,0.005-0.004c0.065-0.021,0.128-0.05,0.188-0.086c0.184-0.066,0.476-0.125,0.793,0.011l-0.007-0.006
			c0.142,0.053,0.293,0.085,0.454,0.085c0.121,0,0.236-0.022,0.348-0.053l0.002,0.004c0,0,0.5-0.206,0.95-0.037l-0.001-0.004
			c0.075,0.024,0.153,0.041,0.237,0.041c0.085,0,0.166-0.016,0.243-0.042l0.001,0.002c0,0,0.009-0.005,0.012-0.006
			c0.032-0.011,0.063-0.024,0.091-0.04c0.104-0.04,0.277-0.089,0.527-0.064l-0.003-0.004c0.015,0,0.03,0.004,0.046,0.004
			c0,0,0.419,0.022,0.676,0.082l-0.003-0.005c0.132,0.046,0.271,0.075,0.417,0.075c0.132,0,0.256-0.025,0.376-0.062v0.006
			c0,0,0.014-0.007,0.031-0.016c0.055-0.019,0.107-0.039,0.159-0.064c0.209-0.075,0.564-0.159,0.938-0.068
			c0.171,0.035,0.347,0.054,0.528,0.054c0.744,0,1.412-0.315,1.885-0.816v0.003c0,0,0.006-0.008,0.011-0.014
			c0.022-0.023,0.044-0.047,0.065-0.071c0.14-0.135,0.491-0.368,1.188-0.218l-0.007-0.008c0.043,0.004,0.086,0.014,0.131,0.014
			c0.527,0,0.979-0.302,1.204-0.74l0.006,0.004c0,0,0.182-0.443,0.466-0.109l0.001-0.006c0.175,0.318,0.496,0.537,0.877,0.567
			l-0.005,0.005c0,0,0.02,0,0.049,0c0.015,0,0.029,0.004,0.044,0.004c0.006,0,0.01-0.001,0.016-0.001
			c0.162,0.009,0.479,0.059,0.745,0.286l-0.003-0.014c0.338,0.292,0.766,0.478,1.239,0.513l-0.003,0.01l0.033,0.007
			c0,0,0.582,0.041,0.854,0.129c0,0,0,0,0.001,0c0.043,0.018,0.089,0.027,0.134,0.042c0.143,0.096,0.547,0.371,0.707,0.5v-0.004
			c0.214,0.203,0.48,0.349,0.779,0.412l-0.001,0c0,0,0.901,0.391,1.247,0.658c0.206,0.159,0.178,0.128,0.122,0.076
			c0.317,0.196,0.679,0.327,1.066,0.371l-0.001,0.001c0,0,0.754,0.129,1.035,0.56v-0.006c0.171,0.229,0.369,0.433,0.594,0.608
			l-0.001,0.002c0,0,0.476,0.504-0.033,0.851h0.002c-0.356,0.198-0.671,0.458-0.934,0.767l0.001-0.004
			c-0.436,0.426-1.059,0.44-1.059,0.44l0,0c-0.359,0.051-0.646,0.352-0.662,0.729c-0.016,0.344,0.197,0.642,0.503,0.756
			l-0.001,0.004c0,0,0.402,0.143,0.406,0.326l0.002-0.002c0,0.002,0.001,0.004,0.001,0.004l-0.003-0.002
			c-0.002,0.1-0.176,0.212-0.311,0.285c-0.055,0.021-0.106,0.047-0.156,0.077l-0.002,0.001h0.001h-0.001l0,0
			c-0.154,0.076-0.789,0.068-0.789,0.068l0.003,0.01c-0.03-0.004-0.057-0.018-0.087-0.018c-0.077,0-0.148,0.017-0.216,0.044
			l0.001-0.001c-0.076,0.024-0.662,0.155-0.662,0.155v0.003c-0.815,0.078-1.252,0.39-1.252,0.39l-0.003,0.011
			c-0.012,0.003-0.023,0.003-0.036,0.007l0.002-0.008c-0.511,0.053-0.876-0.165-0.876-0.165v0.001
			c-0.175-0.125-0.387-0.198-0.617-0.198c-0.229,0-0.439,0.072-0.613,0.193c-0.004,0.003-0.008,0.004-0.008,0.004l0.001,0.001
			c-0.006,0.005-0.011,0.01-0.017,0.015c-0.008,0.004-0.011,0.006-0.019,0.011c-0.246,0.143-1.441,0.621-1.441,0.621l0.001,0.003
			c-0.218,0.081-0.377,0.287-0.377,0.533c0,0.317,0.257,0.574,0.574,0.574c0.013,0,0.025-0.007,0.037-0.008l-0.001,0.006
			c0,0,1.021,0.019,1.441,0.104c0.093,0.04,0.192,0.062,0.296,0.074l-0.001,0.004c0,0,0.681,0.137,2.008-0.699
			c0.014-0.006,0.025-0.018,0.041-0.026c0.029-0.018,0.057-0.035,0.086-0.055c0.159-0.062,0.552-0.209,0.591-0.217
			c0.002-0.001,0-0.008,0-0.011c0.016-0.002,0.03-0.004,0.045-0.008l0.004,0.009c0,0,0.011-0.006,0.028-0.016
			c0.056-0.017,0.104-0.042,0.151-0.074c0.186-0.083,0.482-0.188,0.729-0.141l-0.001-0.01c0.003,0,0.005,0.001,0.007,0.001
			l-0.006,0.009c0,0,0.719,0.1,0.945,0.303v-0.002c0.122,0.083,0.265,0.135,0.418,0.15v0.003c0,0,0.732,0.066,1.146,0.399
			l-0.001-0.005c0.337,0.317,0.737,0.566,1.182,0.724l-0.005,0.003c0,0,0.565,0.182,0.567,0.809l0.004-0.001
			c0.02,0.487,0.417,0.875,0.908,0.875c0.049,0,0.095-0.008,0.142-0.015l-0.001,0.003c0,0,0.008-0.002,0.015-0.005
			c0.026-0.003,0.05-0.011,0.075-0.017c0.154-0.032,0.485-0.081,0.853,0.003l-0.005-0.009c0.125,0.021,0.249,0.038,0.38,0.038
			c0.067,0,0.128-0.014,0.192-0.018l-0.01,0.019c0,0,0.691-0.188,0.812,0.437l0.005-0.002c0.137,0.436,0.539,0.753,1.02,0.753
			c0.105,0,0.205-0.02,0.302-0.048l-0.001,0.004c0,0,0.513-0.174,0.927-0.083c0.061,0.026,0.124,0.042,0.188,0.053
			c0.117,0.016,0.532,0.086,0.778,0.317l-0.002-0.002c0.098,0.07,0.21,0.122,0.333,0.143v0.001c0,0,0.008,0,0.012,0
			c0.041,0.007,0.082,0.013,0.124,0.013c0.019,0,0.037-0.004,0.055-0.005c0.168,0.01,0.403,0.039,0.526,0.11l-0.004-0.013
			c0.014,0.009,0.025,0.021,0.04,0.027l-0.004,0.002c0,0,0.213,0.109,0.396,0.275c0.015,0.017,0.029,0.03,0.046,0.045
			c0.012,0.012,0.022,0.021,0.033,0.033c0-0.002,0-0.007,0.001-0.01c0.097,0.073,0.212,0.126,0.343,0.126
			c0.316,0,0.573-0.257,0.573-0.573c0-0.201-0.108-0.368-0.263-0.47l0.009-0.006l-0.569-0.411l-0.005,0.008
			c-0.017-0.011-0.031-0.023-0.05-0.033l0.007-0.004c0,0-0.455-0.372-0.595-0.476c-0.001-0.001-0.001,0.001-0.002,0
			c-0.073-0.067-0.159-0.122-0.254-0.158l0.002-0.001c-0.311-0.094-0.965-0.38-0.965-0.38v0.002
			c-0.112-0.078-0.247-0.121-0.392-0.129l0.003-0.004c-0.539-0.021-0.842-0.196-0.842-0.196l-0.001,0.001
			c-0.113-0.111-0.254-0.195-0.408-0.247l0.005-0.002c-0.214-0.127-0.222-0.258-0.188-0.351c0.001-0.004,0.054-0.135,0.353-0.136
			c0.028,0.001,0.056,0.002,0.084,0.003c0.019,0.001,0.037,0.003,0.057,0.005c0.115,0.011,0.218,0.026,0.289,0.038
			c0.004,0.001,0.007,0.001,0.012,0.002c0.049,0.009,0.084,0.016,0.084,0.016l-0.002-0.007c0.075,0.012,0.154,0.02,0.234,0.023
			v0.004c0,0,0.966,0.1,1.508,0.313v-0.001c0.089,0.039,0.183,0.068,0.279,0.088c0.008,0.002,0.804,0.182,1.036,0.351l-0.004-0.009
			c0.198,0.101,0.42,0.162,0.658,0.162c0,0,0.626,0.036,0.926,0.273v-0.01c0.089,0.054,0.187,0.095,0.3,0.095
			c0.315,0,0.572-0.256,0.572-0.573c0-0.188-0.096-0.346-0.234-0.45l0.009-0.004c-0.183-0.142-0.133-0.261-0.093-0.315
			c0.075-0.074,0.154-0.095,0.223-0.088c0.015,0.004,0.202,0.068,0.275,0.363c0.008,0.047,0.017,0.093,0.02,0.148
			c0,0.206,0.167,0.374,0.373,0.374c0.193,0,0.347-0.149,0.366-0.336h0.004c0-0.006-0.001-0.009-0.001-0.015
			c0.001-0.008,0.005-0.014,0.005-0.022c0-0.015-0.008-0.029-0.009-0.044c-0.022-0.498-0.168-0.732-0.262-0.83
			c-0.006-0.007-0.012-0.013-0.018-0.02c-0.035-0.033-0.06-0.047-0.06-0.047l-0.001,0.007c-0.001,0-0.003-0.001-0.004-0.001
			l0.005-0.005c0,0-0.021-0.011-0.05-0.026c0,0,0,0-0.001,0c-0.115-0.061-0.406-0.222-0.519-0.324l-0.001,0.001
			c-0.01-0.009-0.023-0.015-0.034-0.022l0.006-0.003c0,0-0.791-0.756-1.073-0.878l-0.002,0.006
			c-0.127-0.073-0.266-0.132-0.414-0.164l0.001-0.001c-0.002,0-0.006,0-0.008,0c-0.005-0.002-0.011-0.002-0.017-0.003
			c-0.427-0.057-0.939-0.305-0.939-0.305l-0.002,0.007c-0.079-0.047-0.161-0.085-0.249-0.116l0.001-0.005
			c0,0-0.917-0.428-1.182-0.759v0.002c-0.191-0.196-0.427-0.344-0.688-0.44l0.009-0.004c-0.688-0.183-0.773-0.754-0.782-0.863
			c0.028-0.38,0.264-0.618,0.416-0.732c0.012-0.005,0.022-0.015,0.033-0.021c0.052-0.028,0.143-0.059,0.229,0.031
			c0.022,0.07,0.023,0.192-0.028,0.401h0.001c-0.002,0.016-0.01,0.028-0.01,0.044c0,0.206,0.168,0.373,0.374,0.373
			c0.205,0,0.373-0.167,0.373-0.373c0-0.233,0-0.539,0-0.539h-0.014c0.004-0.022,0.014-0.043,0.014-0.067
			c0,0-0.032-0.583,0.613-0.246l-0.002-0.008c0.16,0.129,0.348,0.223,0.553,0.273l-0.005,0.005c0,0,0.017,0.002,0.039,0.004
			c0.049,0.011,0.098,0.02,0.148,0.025c0.159,0.034,0.39,0.105,0.567,0.262l-0.002-0.008c0.271,0.204,0.606,0.33,0.973,0.33
			c0.069,0,0.136-0.013,0.202-0.02l-0.001,0.007c0,0,0.382-0.029,0.345,0.287h0.001c-0.03,0.068-0.046,0.145-0.046,0.225
			c0,0.316,0.256,0.573,0.572,0.573c0.039,0,0.073-0.014,0.11-0.022v0.012c0,0,0.273-0.073,0.488,0.01v-0.007
			c0.037,0.01,0.073,0.026,0.111,0.034v0.001c0,0,0.343,0.158,0.425,0.363l0.003-0.01c0.099,0.174,0.277,0.296,0.491,0.296
			c0.316,0,0.573-0.256,0.573-0.573c0-0.038-0.015-0.073-0.022-0.108l0.014,0.005c-0.014-0.031-0.021-0.058-0.028-0.086
			c-0.004-0.013-0.006-0.027-0.01-0.039c-0.027-0.146,0.02-0.243,0.061-0.295c0.007-0.008,0.013-0.018,0.021-0.025
			c0.015-0.017,0.026-0.025,0.026-0.025s0.098-0.196,0.5,0.019c0.13,0.056,0.274,0.089,0.426,0.089c0,0,0.081,0.003,0.214-0.021
			c0.002,0,0.002-0.001,0.004-0.001c0.352-0.066,1.066-0.335,1.625-1.417l-0.01-0.003c0.063-0.092,0.107-0.196,0.107-0.316
			C238.726,143.004,238.468,142.749,238.151,142.749z"/>
		<path fill="#FFFFFF" d="M226.436,240.805l-0.002-0.002c-0.003-0.004-0.007-0.006-0.011-0.008
			c-0.057-0.047-0.296-0.256-0.358-0.553l-0.002,0.002c-0.064-0.219-0.243-0.387-0.47-0.43l0,0c0,0-0.216-0.01-0.502-0.139
			l-0.001,0.008c-0.074-0.088-0.165-0.162-0.267-0.213l0.003-0.002c0,0-0.012-0.004-0.026-0.012c-0.017-0.004-0.03-0.014-0.047-0.02
			c-0.121-0.059-0.371-0.193-0.581-0.428v0.002c-0.276-0.41-0.745-0.68-1.277-0.68c-0.044,0-0.085,0.01-0.127,0.012l0.008-0.012
			c-0.613,0.105-0.951-0.123-0.951-0.123l0.003,0.01c-0.236-0.113-0.499-0.188-0.779-0.188c-0.206,0-0.398,0.041-0.582,0.107
			l0.003-0.01c-0.47,0.188-0.773,0.203-0.773,0.203l0.002,0.006c-0.002,0-0.005,0-0.006,0l0.004-0.006
			c-0.421,0.033-0.682-0.123-0.682-0.123l-0.001,0.006c-0.088-0.072-0.199-0.123-0.324-0.123c-0.412,0.02-0.657-0.129-0.657-0.129
			l-0.001,0.002c-0.063-0.031-0.131-0.045-0.204-0.045c-0.281,0-0.508,0.229-0.508,0.508c0,0.281,0.227,0.508,0.508,0.508
			c0.032,0,0.06-0.014,0.09-0.02l-0.003,0.01c0,0,0.348-0.027,0.479,0.084l0.001-0.008c0.002,0,0.004,0.002,0.007,0.004
			l-0.008,0.004c0,0,0.304,0.195,0.296,0.496l0.005-0.002c0.007,0.074,0.021,0.143,0.042,0.213l-0.003,0.006
			c0,0,0.01,0.023,0.021,0.055c0.007,0.018,0.013,0.037,0.021,0.057c0.057,0.16,0.135,0.443,0.014,0.529
			c-0.218,0.176-0.592,0.221-0.592,0.221l-0.815,0.006l0.003,0.008c-0.021-0.004-0.043-0.014-0.066-0.014
			c0,0-0.362,0.012-0.583,0.004c-0.362-0.055-0.445-0.156-0.445-0.156l-0.005,0.008c-0.085-0.059-0.182-0.102-0.293-0.102
			c-0.288,0-0.521,0.234-0.521,0.523c0,0.287,0.233,0.521,0.521,0.521c0,0,0.287-0.029,0.52,0.045
			c0.004,0.002,0.009,0.002,0.013,0.002c0.017,0.006,0.034,0.012,0.052,0.02l-0.004-0.008c0.037,0.01,0.073,0.023,0.115,0.023
			c0.017,0,0.032-0.01,0.051-0.012l-0.003,0.006c0,0,0.219-0.059,0.469-0.01l-0.003-0.01c0.037,0.012,0.075,0.025,0.117,0.025
			c0.039,0,0.075-0.014,0.112-0.023l-0.001,0.008c0,0,0.354-0.092,0.602-0.018l-0.001-0.002c0.052,0.021,0.107,0.035,0.167,0.035
			c0.045,0,0.086-0.014,0.127-0.027l0.01,0.012c0,0,0.354-0.213,0.862-0.012l-0.001-0.002c0.061,0.016,0.123,0.029,0.188,0.029
			c0.137,0,0.264-0.043,0.372-0.109l0,0c0,0,0.291-0.17,0.307,0.168h0.001c-0.046,0.104-0.072,0.219-0.072,0.338
			c0,0.463,0.375,0.838,0.837,0.838c0.431,0,0.782-0.328,0.828-0.746h0.003c0.018-0.402,0.267-0.57,0.268-0.57
			c0.124-0.035,0.374-0.08,0.64-0.01c0.01,0,0.019,0.004,0.027,0.006c0.006,0.002,0.011,0.002,0.017,0.004l-0.002-0.002
			c0.093,0.018,0.188,0.027,0.286,0.027c0.271,0,0.523-0.076,0.745-0.199l0.001,0.008c0.232-0.146,0.65-0.119,0.763-0.109
			c0.01,0,0.02,0.004,0.029,0.004c0.091,0,0.176-0.018,0.256-0.043l0.002,0.004c0,0,0.016-0.008,0.039-0.016
			c0.015-0.006,0.032-0.012,0.05-0.018c0.107-0.035,0.304-0.08,0.524-0.033v-0.002c0,0,0,0,0.001,0l-0.001,0.002
			c0,0,0.006,0,0.008,0c0.029,0.01,0.059,0.014,0.089,0.018c0.084,0.025,0.208,0.09,0.313,0.25c0.007,0.016,0.018,0.027,0.025,0.043
			c0.013,0.021,0.026,0.041,0.038,0.066l0.001-0.008c0.081,0.104,0.201,0.176,0.343,0.176c0.242,0,0.439-0.197,0.439-0.439
			C226.561,240.992,226.513,240.883,226.436,240.805L226.436,240.805z"/>
		<path fill="#FFFFFF" d="M215.79,237.428c0-0.336-0.271-0.607-0.607-0.607c-0.029,0-0.059,0.006-0.087,0.01l0.001-0.002
			c-0.679,0.084-1.064-0.174-1.064-0.174l0,0c-0.124-0.088-0.274-0.141-0.438-0.141c-0.706-0.008-1.025-0.533-1.025-0.533h-0.005
			c-0.234-0.303-0.598-0.5-1.01-0.5c-0.703,0.012-1.022-0.254-1.022-0.254v0.002c-0.034-0.027-0.069-0.049-0.107-0.07l0.004-0.002
			c-0.166-0.102-0.302-0.324-0.376-0.464c-0.008-0.019-0.02-0.036-0.028-0.055c-0.022-0.046-0.035-0.075-0.035-0.075l-0.001,0.009
			c-0.188-0.331-0.536-0.557-0.941-0.568l0.003-0.002c-0.438,0-0.956-0.261-0.956-0.261l-0.001,0.003
			c-0.063-0.036-0.13-0.063-0.201-0.078l0,0c-0.246-0.028-0.616-0.237-0.796-0.344c-0.021-0.016-0.045-0.029-0.067-0.042
			c-0.023-0.015-0.039-0.025-0.039-0.025l-0.001,0.004c-0.046-0.024-0.095-0.043-0.146-0.058c-0.001-0.002,0-0.003,0-0.004
			c0,0-0.488-0.163-0.597-0.217c-0.002-0.001-0.004,0.001-0.007,0.001c-0.065-0.039-0.137-0.069-0.213-0.089
			c0.001-0.002,0.002-0.003,0.002-0.003c0,0-0.771-0.337-0.963-0.47v0.002c-0.146-0.092-0.317-0.146-0.503-0.146
			c-0.046,0-0.089,0.007-0.134,0.012l0.001-0.002c-0.569,0.14-1.242-0.125-1.242-0.125l0,0c-0.051-0.022-0.104-0.042-0.16-0.053
			c-0.013-0.004-0.541-0.192-0.583-0.208c-0.101-0.044-0.212-0.069-0.33-0.069c-0.027,0-0.054,0.006-0.08,0.008l0.001-0.003
			c0,0-0.747,0.103-1.224,0.024v0.005c-0.053-0.019-0.107-0.034-0.168-0.034c-0.058,0-0.112,0.016-0.165,0.034l-0.001-0.006
			c0,0-0.01,0.006-0.018,0.009c-0.01,0.005-0.021,0.01-0.03,0.015c-0.151,0.069-0.667,0.29-1.098,0.278
			c-0.157,0-0.3,0.057-0.413,0.149v-0.004c-0.011,0.011-0.022,0.021-0.033,0.03c-0.01,0.009-0.02,0.018-0.028,0.028
			c-0.233,0.211-0.563,0.323-0.563,0.323s-0.031,0.01-0.073,0.026c-0.012,0.004-0.023,0.008-0.035,0.013
			c-0.247,0.092-0.865,0.39-1.024,1.121l0.005,0.003c-0.017,0.05-0.031,0.101-0.031,0.155c0,0.274,0.223,0.498,0.498,0.498
			c0.149,0,0.279-0.069,0.371-0.174l0.001,0.006c0,0,0.167-0.305,0.529-0.355l-0.001-0.002c0.164-0.02,0.308-0.102,0.411-0.221
			l0.001,0.003c0,0,0.261-0.238,0.568-0.309l-0.003-0.002c0.159-0.046,0.293-0.146,0.379-0.285v0.003c0,0,0.309-0.317,0.754-0.319
			c0.061,0,0.115-0.015,0.169-0.035l-0.001,0.006c0,0,0.402-0.077,0.56,0.235l0.003-0.002c0.135,0.259,0.4,0.441,0.711,0.451
			c0,0.001-0.001,0.002-0.001,0.003c0,0,0.471,0.058,0.583,0.081l-0.002-0.003c0.067,0.019,0.137,0.033,0.211,0.033
			c0.041,0,0.08-0.005,0.12-0.011v0.002c0,0,0.599-0.07,0.885,0.266v-0.001c0.151,0.157,0.355,0.26,0.585,0.283l-0.003,0.005
			c0,0,0.454,0.104,0.655,0.32v-0.002c0.17,0.164,0.399,0.266,0.654,0.266c0,0,0.379-0.023,0.58,0.057l-0.001-0.003
			c0.082,0.027,0.167,0.044,0.258,0.044c0.037,0,0.072-0.006,0.108-0.01l-0.001,0.003c0,0,0.397-0.03,0.7,0.139l-0.002-0.005
			c0.036,0.02,0.073,0.039,0.112,0.052l-0.002,0.002c0,0,0.327,0.232,0.455,0.541c0,0.002,0,0.004,0.001,0.006
			c0.004,0.01,0.011,0.02,0.015,0.029v-0.004c0.157,0.342,0.479,0.59,0.866,0.643c-0.001,0-0.004,0.004-0.004,0.004
			s0.479,0.096,0.734,0.277c0.064,0.045,0.138,0.076,0.215,0.1l-0.003,0.004c0,0,0.316,0.178,0.472,0.416
			c0.071,0.412-0.287,0.523-0.287,0.523l0.001,0.008c-0.201,0.064-0.35,0.246-0.35,0.467c0,0.275,0.223,0.498,0.498,0.498
			c0.169,0,0.312-0.09,0.401-0.219l0.008,0.004c0,0,0.32-0.371,0.738-0.307h-0.001c0.087,0.018,0.178,0.027,0.27,0.027
			c0.097,0,0.189-0.012,0.279-0.029v0.002c0.438-0.117,1.684,0.023,1.684,0.023v-0.004c0.025,0.004,0.051,0.008,0.077,0.008
			c0.114,0,0.221-0.023,0.318-0.07v0.002c0,0,0.575-0.148,1.064,0.033h0.001c0.064,0.02,0.133,0.035,0.205,0.035
			C215.519,238.035,215.79,237.766,215.79,237.428z"/>
		<path fill="#FFFFFF" d="M230.976,240.777c0,0-0.923,0.025-1.235-0.084l0,0c-0.102-0.068-0.224-0.109-0.355-0.109
			c-0.349,0-0.631,0.283-0.631,0.633c0,0.348,0.282,0.631,0.631,0.631c0.023,0,0.046-0.004,0.069-0.006l-0.001,0.002
			c0,0,0.013-0.004,0.018-0.004c0.041-0.006,0.081-0.016,0.119-0.029c0.29-0.066,0.983-0.217,1.283-0.168l0.001-0.008
			c0.034,0.008,0.065,0.021,0.102,0.021c0.242,0,0.439-0.197,0.439-0.439C231.415,240.973,231.218,240.777,230.976,240.777z"/>
	</g>
</g>
</svg>
