<svg id="Layer_1" data-name="Layer 1" xmlns="http://www.w3.org/2000/svg" viewBox="0 0 64 64"><defs><style>.cls-1{fill:#fff;}</style></defs><title>meeting-room</title><path class="cls-1" d="M52.92,0V3.09H51.54V25.67c-.71-.05-1.46-.07-2.21-.08V4.13H14.82V25.59H13.71l-1.1.05V3.09H11V0Z"/><path class="cls-1" d="M63,31.53c-.8-.76-4.52-.92-7-1H54.4c-2,0-2.81,2.08-3,2.89-.2,1.05-.94,3.72-1.44,5.47l-.24-.3-.23-.3c.48-1.72,1.12-4.05,1.29-5s1.16-3.4,3.57-3.4h1.15a3.17,3.17,0,0,0-.63-3c-.34-.32-1.47-.54-3.39-.66-.83-.05-1.82-.07-3-.08h-.76c-1.36,0-2,1.32-2.23,2a2.15,2.15,0,0,0-.06.23c-.14.75-.6,2.25-1,3.4l-.23-.29-.23-.29c.32-1.05.69-2.28.81-2.92a.85.85,0,0,1,0-.12A3.81,3.81,0,0,1,46.4,26a2.5,2.5,0,0,1,1.42-.43h.9a2.65,2.65,0,0,0-.6-2.49c-.7-.67-4.39-1-5.74-1s-2,1.38-2.07,2S40,25.35,39.85,26h-.92a10.82,10.82,0,0,0-1.55-.45V22.43c0-1.5-2.42-2.71-5.41-2.71s-5.42,1.22-5.42,2.71v3.13l-.18,0A10,10,0,0,0,25,26h-.86c-.18-.66-.38-1.43-.47-1.94s-.71-2-2.06-2-5,.35-5.75,1a2.65,2.65,0,0,0-.6,2.49h.91A2.43,2.43,0,0,1,17.6,26a3.25,3.25,0,0,1,.9.94A4.11,4.11,0,0,1,19,28.21l0,.13c.11.61.49,1.86.78,2.81h0l-.22.29-.23.3c-.39-1.25-.8-2.6-.93-3.3,0-.07,0-.15-.05-.24a3.61,3.61,0,0,0-.43-.94,2.13,2.13,0,0,0-1.8-1.08h-.83l-1.63,0-1.11.05c-2.59.15-3.33.47-3.53.66a3.12,3.12,0,0,0-.63,3H9.61c2.39,0,3.38,2.45,3.56,3.4,0,.09,0,.19.07.3s.07.35.13.57l.22.9c0,.12.07.24.1.37s.14.51.21.77.08.29.12.43l.35,1.27.09.3-.23.3-.24.3c-.46-1.61-1.21-4.33-1.41-5.38-.15-.81-1-2.89-3-2.89H8c-5.25.06-6.63.63-7,1-1,1-1.24,2.69-.58,4.81.85,2.74,3.11,15.48,3.2,16,0,0,.94,2,7.14,2.4h0c.23.12.41.23.67.34h.06l.59.25.19.07h0c.87.35,1.8.68,2.8,1l.23.07V64H48.88V56.68l.21-.05c.76-.2,1.51-.43,2.25-.69l.15,0c.46-.16.88-.33,1.28-.49l.77-.35h0c.25-.12.49-.24.71-.36,5.34-.52,6.15-2.36,6.16-2.39.08-.48,2.34-13.22,3.18-16C64.26,34.21,64.05,32.5,63,31.53Zm-7.93,17v0a0,0,0,0,1,0,0,1.43,1.43,0,0,1-.45.68l-.15.14c-2.84,2.49-13,4.56-22.53,4.56-10.74,0-20.63-3-22.54-5.19a1.28,1.28,0,0,1-.32-.59V48a.1.1,0,0,1,0-.05.35.35,0,0,1,0-.07l0-.07.1-.13.41-.54L13.63,42h0L15,40.2,19,34.91l0,0L20.47,33l3.37-4.4a2.6,2.6,0,0,1,.46-.43,3.46,3.46,0,0,1,.54-.35l.07,0a7.75,7.75,0,0,1,1.82-.63A23,23,0,0,1,32,26.7c1.05,0,2,0,2.92.12a11.56,11.56,0,0,1,4.13,1l.12.07a2.87,2.87,0,0,1,.48.32,2.25,2.25,0,0,1,.45.41l3.45,4.5h0l.94,1.23h0L49,40.29l1,1.36,4.6,6,.07.07h0a2.16,2.16,0,0,1,.22.26A.73.73,0,0,1,55.1,48.5Z"/><path class="cls-1" d="M41.6,16.13,40.41,17a10.48,10.48,0,0,0-17.15.34L22,16.51a12,12,0,0,1,19.57-.38Z"/><path class="cls-1" d="M39.77,17.35l-1.18.89a8.29,8.29,0,0,0-13.46.27l-1.21-.84a9.77,9.77,0,0,1,15.85-.32Z"/><path class="cls-1" d="M37.92,18.58l-1.16.91A6,6,0,0,0,32,17.13a6.13,6.13,0,0,0-5,2.54l-1.19-.86A7.59,7.59,0,0,1,32,15.66,7.48,7.48,0,0,1,37.92,18.58Z"/></svg>