<svg id="Layer_1" data-name="Layer 1" xmlns="http://www.w3.org/2000/svg" viewBox="0 0 64 64"><defs><style>.cls-1{fill:#fff;}</style></defs><title>outdoor-pool</title><path class="cls-1" d="M46.07,34.86c-1.34,1.6-2.77,2.41-4.21,2.37-2.73-.06-4.93-2.92-5-2.94a1,1,0,0,0-1.54-.08c-1.72,1.83-3.47,2.73-5.22,2.66a7.13,7.13,0,0,1-4.65-2.52,1,1,0,0,0-.81-.39,1,1,0,0,0-.79.41,4.76,4.76,0,0,1-3.48,2.2c-2.66.18-5.18-2.37-5.22-2.42a1,1,0,0,0-1.45,1.39c.13.13,3.18,3.28,6.79,3a6.26,6.26,0,0,0,4.21-2.1A8.55,8.55,0,0,0,30,38.87a8.3,8.3,0,0,0,6-2.52,8.81,8.81,0,0,0,5.75,2.88h.15c2.05,0,4-1,5.67-3.09a1,1,0,0,0-1.55-1.29Z"/><path class="cls-1" d="M46.77,28.82q-2,2.41-4.22,2.37c-2.73-.06-4.93-2.92-5-2.94a1,1,0,0,0-1.54-.08c-1.71,1.84-3.47,2.73-5.22,2.66a7.12,7.12,0,0,1-4.65-2.52,1,1,0,0,0-.81-.39,1,1,0,0,0-.79.41,4.76,4.76,0,0,1-3.47,2.2c-2.68.18-5.2-2.4-5.22-2.42a1,1,0,0,0-1.45,1.39c.13.13,3.18,3.27,6.79,3a6.25,6.25,0,0,0,4.21-2.1,8.54,8.54,0,0,0,5.29,2.4,8.25,8.25,0,0,0,6-2.52A8.81,8.81,0,0,0,42.5,33.2h.15c2.05,0,4-1,5.67-3.09a1,1,0,0,0-1.55-1.29Z"/><path class="cls-1" d="M53.43,25l-1.75-2.52a1.66,1.66,0,0,0-1.36-.71l-35.88-.08h0a1.66,1.66,0,0,0-1.28.6L.38,37.72a1.66,1.66,0,1,0,2.56,2.12L15.23,25.05l34.23.07,2.1,3a5.9,5.9,0,0,1,1.15-2.38A5.18,5.18,0,0,1,53.43,25Z"/><path class="cls-1" d="M56.74,29.8,54.82,27a2.7,2.7,0,0,0-.34.39,3.83,3.83,0,0,0-.67,2.32l0,1.72L55,33.06a5.94,5.94,0,0,1,1.2-2.65A5.09,5.09,0,0,1,56.74,29.8Z"/><path class="cls-1" d="M58.13,31.81a3.69,3.69,0,0,0-.87,2.56l0,2.08,2.36,3.41A1.66,1.66,0,1,0,62.4,38Z"/><path class="cls-1" d="M54.14,27.18a2.52,2.52,0,0,1,2-1.13h0a3.09,3.09,0,0,1,2.72,2.69,4.13,4.13,0,0,1,.64-.07h.09a4.1,4.1,0,0,1,.9.1c-.39-2.45-2.21-4.32-4.36-4.32h-.08A4.05,4.05,0,0,0,53,26a5.74,5.74,0,0,0-1.23,3.75l.15,7.12a.8.8,0,0,0,.8.78h0a.8.8,0,0,0,.56-.25.79.79,0,0,0,.22-.57l-.15-7.12A4.24,4.24,0,0,1,54.14,27.18Z"/><path class="cls-1" d="M59.64,29h-.08a4,4,0,0,0-3.07,1.59,5.74,5.74,0,0,0-1.23,3.74l.15,7.12a.81.81,0,0,0,.8.78h0a.8.8,0,0,0,.78-.82l-.15-7.12a4.23,4.23,0,0,1,.75-2.57,2.51,2.51,0,0,1,2-1.13h0a3.09,3.09,0,0,1,2.72,2.68,4.26,4.26,0,0,1,.64-.07h.09a4.1,4.1,0,0,1,.9.1C63.61,30.9,61.79,29,59.64,29Z"/></svg>