<svg id="Layer_1" data-name="Layer 1" xmlns="http://www.w3.org/2000/svg" viewBox="0 0 64 64"><defs><style>.cls-1{fill:#fff;}</style></defs><title>playground</title><path class="cls-1" d="M12.87,23.79A2.75,2.75,0,1,0,10.12,21,2.75,2.75,0,0,0,12.87,23.79Zm33.6-2a2.75,2.75,0,1,0-2.56-2.93A2.75,2.75,0,0,0,46.47,21.83ZM3.56,40.42A3.56,3.56,0,1,0,7.13,44,3.56,3.56,0,0,0,3.56,40.42ZM27,43.73,22.1,39.88,20,36.1a2.33,2.33,0,0,0,.26-1.91c-.13-.44-1.55-4.54-2.35-6.88l3.54,1.19L22,32.93a1.16,1.16,0,0,0,1.14,1h.15a1.15,1.15,0,0,0,1-1.3l-.68-5.14a1.16,1.16,0,0,0-.78-.94l-6.48-2.18-.18,0a2.3,2.3,0,0,0-2.22,0,1.13,1.13,0,0,0-.3.14c-.31.21-1.69,1.54-4.08,4L5.29,27.18a1.15,1.15,0,1,0-.66,2.21l5,1.49a1.15,1.15,0,0,0,1.15-.3l2.45-2.46,1.7,5.15-6.25,0a1.65,1.65,0,0,0-1.32,2.63L11.84,42a1.65,1.65,0,0,0,2.66-2l-2.55-3.48,4.55,0,2.87,5.21a1.65,1.65,0,0,0,.42.5l5.14,4.06a1.65,1.65,0,0,0,2-2.59Zm21.24-1.29-6-3.45-1-3.82A1.64,1.64,0,0,0,41,33.84c-.23-.33-2.3-3.05-3.8-5l2.11.41,2.56,2.6a1.15,1.15,0,1,0,1.65-1.62l-2.81-2.86a1.15,1.15,0,0,0-.6-.32l-5.74-1.12a3.33,3.33,0,0,0-2.63.32,2.32,2.32,0,0,0-.88,1.21,1.15,1.15,0,0,0-.21.39l-1.51,4.86-3.44,2.21a1.15,1.15,0,0,0,1.25,1.94l3.79-2.44a1.16,1.16,0,0,0,.48-.63l.92-3,2.77,3.75-5,4.72a1.65,1.65,0,0,0-.06,2.33l5.28,5.55a1.65,1.65,0,1,0,2.39-2.27l-4.14-4.35,4.35-4.14a1.64,1.64,0,0,0,.21-.25l.07,0,0,0,1.14,4.34a1.65,1.65,0,0,0,.78,1l6.63,3.79a1.65,1.65,0,1,0,1.64-2.86Zm15.49-.73-4-5.84-2.29-4.3h0a1.17,1.17,0,0,0,.27,0h.05a1.15,1.15,0,0,0,1.1-1.21l-.28-5.95a1.15,1.15,0,0,0-.84-1.06L51,21.5a1.15,1.15,0,0,0-.41,0,2.41,2.41,0,0,0-3,2.53L47,28.89,44.2,31.7a1.15,1.15,0,0,0,1.65,1.62l3-3.1a1.15,1.15,0,0,0,.32-.68l.23-2,2.35,3.68-2.12,6.39A1.65,1.65,0,0,0,51,39.78l6.85,1,.25,0a1.64,1.64,0,0,0,.84-.23l2.06,3a1.65,1.65,0,0,0,2.72-1.87ZM56.29,25.39l.19,4-3.16-4.83ZM53.43,36.8l1.16-3.51,2.12,4ZM27.74,23.21a2.75,2.75,0,0,0,5.49-.37,2.86,2.86,0,0,0-2.9-2.72,2.36,2.36,0,0,0-2.48,1.6c-1.12.05-2,.35-2,.73S26.67,23.13,27.74,23.21Z"/></svg>