<svg id="Layer_1" data-name="Layer 1" xmlns="http://www.w3.org/2000/svg" viewBox="0 0 64 64"><defs><style>.cls-1{fill:#fff;}</style></defs><title>racquetball</title><circle class="cls-1" cx="2.41" cy="33.71" r="2.41"/><path class="cls-1" d="M41.38,15.7a1.35,1.35,0,0,0,.91-.09,1.26,1.26,0,0,1,.34-.25,6.12,6.12,0,0,1,2.15-.51,8.11,8.11,0,0,1,1.54,0,11.68,11.68,0,0,1,1.64.28,11.56,11.56,0,0,1,4.91,2.8c.95.83,2.39,2.23,3.72,1.29a1.38,1.38,0,0,0,.47-.58,3,3,0,0,0-.33-2.51A6.59,6.59,0,0,0,55.85,15C50.33,9,44.33,8.69,39.91,9.69a1.48,1.48,0,0,0-1.26,1,6,6,0,0,0,.56,3.15A3.6,3.6,0,0,0,41.38,15.7Z"/><path class="cls-1" d="M33.26,12.56a20.09,20.09,0,0,0-2.61,2.38v0l-.13.16a.66.66,0,0,0,.29,1h0a1.85,1.85,0,0,0,.75.16h0a3.21,3.21,0,0,0,2.06-1,5.84,5.84,0,0,0,1.4-2.9c.12-.95-.78-.48-1-.38C33.54,12.36,33.26,12.56,33.26,12.56Z"/><path class="cls-1" d="M35.64,44a4,4,0,0,1,0-1.7,2,2,0,0,1,.78-1c1.46-1.45.21-4,.21-4-2-3.23-3.51-2.54-4-2.16a8.15,8.15,0,0,0-2.49,7.37c.11.68.26,1.35.38,2,.4,2.17.93,4.24,1.42,6.39s.94,4.51,1.43,6.74a7.62,7.62,0,0,0,1.42,3.47c1.08,1.2,2.43.86,2.88-.69a8.26,8.26,0,0,0,0-2.7C37.42,54.36,35.64,44,35.64,44Z"/><path class="cls-1" d="M62.36,56.13c-.25-.34-.49-.68-.73-1-2.07-2.88-4-5.86-5.82-8.92C54.47,44,53.22,41.7,52,39.41l0,.11c-.31-.61-.62-.48-.81-.3l-.18.23v0h0A4.81,4.81,0,0,1,46.35,41c-1-.16-.61.69-.33,1.15s.73,1,1.11,1.51q1.23,1.62,2.5,3.21c2.84,3.56,6,6.9,8.75,10.49a14.61,14.61,0,0,0,2.54,2.42c.76.58,1.93,1,2.76.26C64.86,59,62.36,56.13,62.36,56.13Z"/><path class="cls-1" d="M32.05,26.92a1.29,1.29,0,0,0,.11-1.43c-.3-.26-.62-.55-1-.88a13.31,13.31,0,0,1-1.77-2.16l0,.06c-.61-1-1-.29-1.15,0A15.36,15.36,0,0,1,24,28.7c-.91.83-1.19,1-2.11,1.79a1,1,0,0,1-1.61-.15A16.8,16.8,0,0,1,17,20.59a12.34,12.34,0,0,0-1.3-6.06,12.63,12.63,0,0,0-2.17-2.63,5.56,5.56,0,0,0-6.56-.8c-3.18,1.79-2.73,6.8-1.08,9.49a8.23,8.23,0,0,0,4.56,3.62c5.86,2,9.19,8.75,9.19,8.75,1.27,2.22,2.87,1.13,2.87,1.13A42.33,42.33,0,0,0,32.05,26.92ZM14.53,15.08A8.52,8.52,0,0,1,15.4,17c0,.2-.1.24-.18.24a.61.61,0,0,1-.28-.1l-1.1-.74a.47.47,0,0,1-.13-.66l.47-.71h0S14.36,14.78,14.53,15.08Zm-2.46,3.09.74-1.1a.47.47,0,0,1,.66-.13l1.1.74a.48.48,0,0,1,.13.66L14,19.44a.47.47,0,0,1-.66.13l-1.1-.74A.47.47,0,0,1,12.07,18.17Zm-.55-.37a.47.47,0,0,1-.66.13l-1.1-.74a.48.48,0,0,1-.13-.66l.74-1.1A.47.47,0,0,1,11,15.3l1.1.74a.47.47,0,0,1,.13.66Zm.58-4.9a.43.43,0,0,1,.49,0,7.92,7.92,0,0,1,1.1,1.06c.21.27.12.44.11.46l-.65,1a.47.47,0,0,1-.66.13l-1.1-.74a.47.47,0,0,1-.13-.66L12,13A.44.44,0,0,1,12.1,12.9Zm-3.27-.44.39-.58a.62.62,0,0,1,.57-.24,5.2,5.2,0,0,1,1.5.45.43.43,0,0,1,.17.54l-.74,1.1a.47.47,0,0,1-.66.13L9,13.11A.47.47,0,0,1,8.83,12.46Zm.86,1.95a.47.47,0,0,1,.13.66l-.74,1.1a.47.47,0,0,1-.66.13l-1.1-.74a.48.48,0,0,1-.13-.66l.74-1.1a.47.47,0,0,1,.66-.13ZM7.63,12a3.32,3.32,0,0,1,.74-.28c.08,0,.17,0,.06.17h0l-.15.22a.47.47,0,0,1-.66.13l-.05,0S7.45,12.1,7.63,12ZM5.84,14.34a3.89,3.89,0,0,1,.93-1.72c.05,0,.15-.08.3,0l.19.13a.47.47,0,0,1,.13.66l-.74,1.1a.47.47,0,0,1-.66.13H6A.29.29,0,0,1,5.84,14.34Zm-.09,1.52s-.08.12-.08,0,0-.34,0-.51,0-.07.06-.05A.46.46,0,0,1,5.75,15.86Zm1,2.87-.3-.2A1.23,1.23,0,0,1,6,17.95c-.06-.18-.11-.37-.16-.55a.8.8,0,0,1,.06-.63L6,16.68H6l.31-.45A.47.47,0,0,1,7,16.1l1.1.74a.47.47,0,0,1,.13.66l-.74,1.1A.48.48,0,0,1,6.79,18.73ZM9,21.57l0,0c-.05.07-.24.27-.56,0a8.27,8.27,0,0,1-1.06-1.18c-.15-.21,0-.31,0-.34a.5.5,0,0,1,.43.07l1.1.74A.47.47,0,0,1,9,21.57Zm-.86-1.95A.48.48,0,0,1,8,19l.74-1.1a.47.47,0,0,1,.66-.13l1.1.74a.47.47,0,0,1,.13.66l-.74,1.1a.47.47,0,0,1-.66.13ZM11.49,23s-.08.19-.4.11a5.78,5.78,0,0,1-1.59-.67.26.26,0,0,1-.07-.37l.1-.14a.47.47,0,0,1,.66-.13l1.1.74A.47.47,0,0,1,11.49,23Zm.17-1-1.1-.74a.47.47,0,0,1-.13-.66l.74-1.1a.47.47,0,0,1,.66-.13l1.1.74a.47.47,0,0,1,.13.66l-.74,1.1A.47.47,0,0,1,11.66,22Zm3.27-.11a3.33,3.33,0,0,1-.95.89,3.17,3.17,0,0,1-.35.18A.75.75,0,0,1,13,22.9a.48.48,0,0,1-.13-.66l.74-1.1a.48.48,0,0,1,.66-.13l.55.37h0A.39.39,0,0,1,14.93,21.89Zm.55-1.11a.18.18,0,0,1-.26.08l-.59-.4a.47.47,0,0,1-.13-.66l.74-1.1a.59.59,0,0,1,.23-.2c.06,0,.23,0,.25.24A5.5,5.5,0,0,1,15.49,20.78Z"/><path class="cls-1" d="M25.55,6.65l6-3.08h0l.17-.09c.28-.16.7-.53-.21-.89A5.06,5.06,0,0,0,24.64,6C24.42,7.18,25.44,6.7,25.55,6.65Z"/><path class="cls-1" d="M25.41,8.53c-.07,0-.69.43-.2,1.34a5.06,5.06,0,0,0,9.05-4.46,1.19,1.19,0,0,0-1.73-.55h0Z"/><path class="cls-1" d="M46.52,27h0c-.9-1.91-1.79-3.83-2.6-5.78-.49-1.18-1.06-2.33-1.58-3.49l-.11-.27a1.83,1.83,0,0,0-1-1,4.4,4.4,0,0,1-2.76-2.32,6.69,6.69,0,0,1-.57-3.91q-.56.19-1.06.4a1.73,1.73,0,0,0-.92,1.46A6.54,6.54,0,0,1,34.18,16a4,4,0,0,1-2.65,1.21,2.69,2.69,0,0,1-1.26-.32l0,0c-.61-.32-.89,0-1,.27A7.09,7.09,0,0,0,29,18.57a5,5,0,0,0,.08.9c.43,2.23,2.1,4.09,3.79,5.5a9.92,9.92,0,0,1,1.75,1.38l1.83,2.57a4.3,4.3,0,0,1,.37.62,3.61,3.61,0,0,0,2.43,1.76l-.21,0a9.31,9.31,0,0,0,7.11-1.67A2.24,2.24,0,0,0,46.52,27Z"/></svg>