<svg id="Layer_1" data-name="Layer 1" xmlns="http://www.w3.org/2000/svg" viewBox="0 0 64 64"><defs><style>.cls-1{fill:#fff;}</style></defs><title>sauna</title><path class="cls-1" d="M5.73,46.23H0V57.51C0,61,3.11,63.79,6.92,63.79H57.07C60.89,63.79,64,61,64,57.51V46.23H58.27V56.31a2.43,2.43,0,0,1-2.54,2.29H8.26a2.42,2.42,0,0,1-2.53-2.29V46.23ZM32,.21,0,10.3v5.57L32,5.78,64,15.87V10.3ZM20.13,15.87a39.24,39.24,0,0,0-2.22,3.65,26.59,26.59,0,0,0-1.55,3.42,11.38,11.38,0,0,0-.76,3.72,5.85,5.85,0,0,0,.12,1.2A11.18,11.18,0,0,0,17,31c.85,1.5,1.88,3,2.66,4.52A10,10,0,0,1,21,40.06a6.48,6.48,0,0,1-.12,1.23,13.68,13.68,0,0,1-3.28,6.12,21.41,21.41,0,0,1-1.84,1.85l-.57.48-.15.11,0,0,2,2.73a22.41,22.41,0,0,0,3.13-3,16.94,16.94,0,0,0,4.07-7.71,9.93,9.93,0,0,0,.18-1.87,15.43,15.43,0,0,0-2.63-7.77c-.64-1.08-1.28-2.07-1.77-2.94A8.14,8.14,0,0,1,19,27.16l0-.51a8.15,8.15,0,0,1,.56-2.57,26.42,26.42,0,0,1,2.09-4.28c.35-.6.67-1.11.9-1.45l.27-.4.09-.13-2.78-2m12.3,0a39.39,39.39,0,0,0-2.21,3.65,25.8,25.8,0,0,0-1.55,3.42,11.29,11.29,0,0,0-.76,3.72A6.16,6.16,0,0,0,28,27.86,11.26,11.26,0,0,0,29.33,31c.85,1.5,1.88,3,2.66,4.52a10,10,0,0,1,1.31,4.53,6.43,6.43,0,0,1-.12,1.22,13.68,13.68,0,0,1-3.29,6.12,20.72,20.72,0,0,1-1.84,1.85c-.24.21-.44.38-.57.49l-.15.11,0,0,2,2.73a22.36,22.36,0,0,0,3.12-3,17,17,0,0,0,4.07-7.71,10,10,0,0,0,.18-1.87,15.4,15.4,0,0,0-2.63-7.78c-.64-1.08-1.28-2.07-1.77-2.94a8.25,8.25,0,0,1-.94-2.18l0-.52a8.12,8.12,0,0,1,.56-2.57,26.4,26.4,0,0,1,2.09-4.28c.35-.6.67-1.1.9-1.45l.27-.4.09-.13-2.78-2m12.3,0a38.61,38.61,0,0,0-2.21,3.65A25.37,25.37,0,0,0,41,22.93a11.26,11.26,0,0,0-.76,3.72,6.21,6.21,0,0,0,.12,1.21A11.25,11.25,0,0,0,41.64,31c.85,1.5,1.88,3,2.66,4.52a10,10,0,0,1,1.31,4.52,6.49,6.49,0,0,1-.12,1.23,13.65,13.65,0,0,1-3.29,6.11,21,21,0,0,1-1.84,1.85l-.57.49-.15.11,0,0,2,2.73a22.51,22.51,0,0,0,3.13-3,17,17,0,0,0,4.07-7.71A10,10,0,0,0,49,40.07a15.41,15.41,0,0,0-2.63-7.77c-.64-1.08-1.28-2.07-1.77-2.94a8.2,8.2,0,0,1-.94-2.18l0-.52a8.14,8.14,0,0,1,.56-2.57,26.49,26.49,0,0,1,2.08-4.28c.35-.6.67-1.1.9-1.45l.27-.4.09-.13-2.78-2"/></svg>