<svg id="Layer_1" data-name="Layer 1" xmlns="http://www.w3.org/2000/svg" viewBox="0 0 64 64"><defs><style>.cls-1{fill:#fff;}</style></defs><title>strength-equipment</title><path class="cls-1" d="M33.51,30.12a3,3,0,0,0-3.71,2l-.36,1.18-.31-.12a2.58,2.58,0,0,0-3.23,1.71l-1.42,4.62-1.94-.6a2,2,0,1,0-1.16,3.78l1.94.6-2,6.57A2.58,2.58,0,0,0,23,53.05a2.63,2.63,0,0,0,.39.09,3,3,0,0,0,5.78,1.17l6.29-20.49A3,3,0,0,0,33.51,30.12Z"/><path class="cls-1" d="M49.85,51.84a.33.33,0,0,0,.31-.23l1-3.14a.33.33,0,0,0,0-.25.33.33,0,0,0-.2-.16L33.75,42.78a.32.32,0,0,0-.25,0,.33.33,0,0,0-.16.2l-.94,3.16a.33.33,0,0,0,.22.41l17.14,5.26Z"/><path class="cls-1" d="M61.84,51.53l-1.53-.47,2.12-6.89a2.58,2.58,0,0,0-1.71-3.23,2.22,2.22,0,0,0-.39-.08,3,3,0,0,0-2.07-3.14,3,3,0,0,0-3.71,2L48.26,60.16a3,3,0,1,0,5.67,1.74l.36-1.18.31.12a2.58,2.58,0,0,0,3.23-1.71l1.32-4.29,1.53.47a2,2,0,1,0,1.16-3.78Z"/><path class="cls-1" d="M8,11.78a3,3,0,0,0-5.48,2.28L3,15.19l-.31.1a2.58,2.58,0,0,0-1.39,3.38l2.07,5L2,24.23A2,2,0,1,0,3.5,27.88l1.42-.59,2.43,5.84a2.58,2.58,0,0,0,3.38,1.39,2.25,2.25,0,0,0,.35-.18,3,3,0,0,0,2.46,1.32,3,3,0,0,0,2.74-4.11Z"/><path class="cls-1" d="M34.7,23.89a3,3,0,0,0,5.48-2.28l-.47-1.14.31-.1A2.58,2.58,0,0,0,41.41,17l-1.82-4.37,1.22-.51a2,2,0,1,0-1.52-3.65L38.07,9,35.39,2.53A2.58,2.58,0,0,0,33,.94a2.55,2.55,0,0,0-1,.2,2.34,2.34,0,0,0-.35.19A3,3,0,0,0,29.19,0a2.93,2.93,0,0,0-1.13.23,3,3,0,0,0-1.6,3.88Z"/><path class="cls-1" d="M13.55,23.23a.33.33,0,0,0,.3.2l.13,0,16.55-6.89a.33.33,0,0,0,.18-.43L29.47,13a.33.33,0,0,0-.18-.18.32.32,0,0,0-.25,0l-16.6,6.91a.33.33,0,0,0-.18.43Z"/></svg>