<svg id="Layer_1" data-name="Layer 1" xmlns="http://www.w3.org/2000/svg" viewBox="0 0 64 64"><defs><style>.cls-1{fill:#fff;}</style></defs><title>swim-lessons</title><path class="cls-1" d="M62.31,44.62A5.39,5.39,0,0,1,60,44.11a9,9,0,0,0-7.56,0,5.4,5.4,0,0,1-4.56,0h0a9.7,9.7,0,0,0-1.31-.48l-.07,0-.07,0a8.83,8.83,0,0,0-2.33-.31,9.12,9.12,0,0,0-2.78.45,9.55,9.55,0,0,0-1,.39,5.42,5.42,0,0,1-2.28.5,5.5,5.5,0,0,1-2.29-.51A9.22,9.22,0,0,0,32,43.28h0a9.32,9.32,0,0,0-3.75.84,5.61,5.61,0,0,1-.94.33,5.44,5.44,0,0,1-3.17-.15,4.49,4.49,0,0,1-.46-.19,9.12,9.12,0,0,0-3.77-.83h0a9.16,9.16,0,0,0-3.79.84,5.5,5.5,0,0,1-2.28.5,5.52,5.52,0,0,1-1.38-.18,5.31,5.31,0,0,1-.91-.33h0a9.19,9.19,0,0,0-3.78-.83A9.14,9.14,0,0,0,4,44.11a5.44,5.44,0,0,1-2.29.51,1.68,1.68,0,1,0,0,3.37,8.76,8.76,0,0,0,3.69-.81,5.74,5.74,0,0,1,2.37-.53,5.81,5.81,0,0,1,2.37.52,8.54,8.54,0,0,0,1.62.56,8.75,8.75,0,0,0,2.07.25h0a8.61,8.61,0,0,0,2-.24,8.5,8.5,0,0,0,1.68-.57,5.6,5.6,0,0,1,4.75,0,8.89,8.89,0,0,0,1.73.59l.08,0,.14,0a8.27,8.27,0,0,0,1.26.17h.48a8.78,8.78,0,0,0,3.69-.81A5.76,5.76,0,0,1,32,46.65h0a5.91,5.91,0,0,1,2.37.52,8.76,8.76,0,0,0,7.37,0h0a6,6,0,0,1,.87-.32,5.59,5.59,0,0,1,1.5-.21,5.47,5.47,0,0,1,1.33.17,5.59,5.59,0,0,1,1,.36,8.79,8.79,0,0,0,3.69.81h0a8.76,8.76,0,0,0,3.69-.81,5.6,5.6,0,0,1,4.75,0,8.79,8.79,0,0,0,3.69.81,1.68,1.68,0,1,0,0-3.37Z"/><path class="cls-1" d="M37.13,30.58a7.88,7.88,0,0,0,1.64,5.67A7.59,7.59,0,0,0,44.11,39a7.78,7.78,0,1,0-7-8.45Zm14.18,1.27a6.68,6.68,0,0,1-1.45,3.6L44,24.7a6.41,6.41,0,0,1,1.4,0A6.59,6.59,0,0,1,51.32,31.85Z"/><path class="cls-1" d="M41.39,16H41L23.74,19.21a3.16,3.16,0,0,0-1.91,4.28l.15.36s4,7.27,4.15,7.57a.83.83,0,0,1-.39,1.08C22.55,34.26,10.35,41,10.16,41.16s-.27.32,0,.44.49.23.72.33a7.1,7.1,0,0,0,6,0,7.14,7.14,0,0,1,6.14,0,7.1,7.1,0,0,0,6,0A7.41,7.41,0,0,1,32,41.23a7.51,7.51,0,0,1,3.08.69,7.19,7.19,0,0,0,3,.66,4.29,4.29,0,0,0,1.36-.22c.75-.26.46-.85.19-1.35s-6.12-11.18-8.22-15c-.62-1.12.15-1.46.55-1.56l.2,0h0l9.71-1.79a3.36,3.36,0,0,0,2.83-3.29A3.31,3.31,0,0,0,41.39,16Z"/></svg>