<svg id="Layer_1" data-name="Layer 1" xmlns="http://www.w3.org/2000/svg" viewBox="0 0 64 64"><defs><style>.cls-1{fill:#fff;}</style></defs><title>teen-programs</title><path class="cls-1" d="M40.32,50.24a2.27,2.27,0,0,1,0-.79c.1-.62.29-1.25.37-1.89a29.94,29.94,0,0,0,.29-3.87,4.24,4.24,0,0,0-.87-3.2,4.21,4.21,0,0,0-2.91-1h-.92a4,4,0,0,0-2.81,1,4.38,4.38,0,0,0-1.1,3.2,29.33,29.33,0,0,0,.29,3.88c.09.64.27,1.27.37,1.89a2.34,2.34,0,0,1,0,.79,23,23,0,0,0-.66,4.26c-.06.42.2.48.31.48h.88s.45,0,.4.66c-.19,2.44-.29,4.46-.29,6.67,0,0-.14,1.63.47,1.63a.75.75,0,0,0,.63-.55c.29-1.59.39-3.22.64-4.82a20.84,20.84,0,0,1,.76-3.34.3.3,0,0,1,.26-.25H37a.31.31,0,0,1,.27.25A21.75,21.75,0,0,1,38,58.57c.25,1.6.36,3.23.64,4.82a.75.75,0,0,0,.63.55c.61,0,.47-1.63.47-1.63,0-2.21-.09-4.23-.28-6.67a.71.71,0,0,1,0-.1c0-.55.38-.56.4-.56h.88c.1,0,.37-.06.31-.48A26.68,26.68,0,0,0,40.32,50.24ZM34.58,47l-.05.13c-.15.29-.29.57-.42.84h0s-.07.12-.11.12-.05,0-.06-.11,0,0,0-.08h0c0-.29-.07-.57-.1-.85a30.31,30.31,0,0,1,0-3.51c0-.13.07-.5.26-.5h0c.16,0,.2.44.23.56a21.86,21.86,0,0,1,.33,2.17A2,2,0,0,1,34.58,47Zm5,0c0,.29-.07.57-.1.86h0a.37.37,0,0,1,0,.08c0,.09,0,.11-.06.11S39.31,48,39.3,48c-.14-.28-.28-.57-.43-.86L38.81,47a2,2,0,0,1-.11-1.24c.09-.72.18-1.46.33-2.17,0-.12.08-.52.23-.56h0c.19,0,.24.37.26.5A12.06,12.06,0,0,1,39.58,47.05Z"/><path class="cls-1" d="M30.27,40.29a4.53,4.53,0,0,0-.85-.65,3.34,3.34,0,0,0-1-.48,2.18,2.18,0,0,0-.36-.07l-.3,0h-.12a.69.69,0,0,0-.57.29l-.08.15a1.93,1.93,0,0,0-.14.66.67.67,0,0,0,0,.1l.45,4.12s0,.06,0,.16a2.41,2.41,0,0,1-.09.68L26.68,47c0,.15-.1.2-.14.2s-.14-.16-.15-.2l-.51-1.72a4,4,0,0,1-.08-1l.5-4a1.16,1.16,0,0,0-.11-.68L26,39.21h0a.57.57,0,0,0-.45-.25h0a5.83,5.83,0,0,0-.85.1c-.16,0-.32.07-.47.12a4.73,4.73,0,0,0-3.07,3.35,10.33,10.33,0,0,0-.06,5.11,7,7,0,0,0,1.58,2.63,2.35,2.35,0,0,0,.55.41h0a1.5,1.5,0,0,1,.36,1c0,1.35,0,2.6,0,4,.06,1.65.07,2.2.23,3.84.05.63.11,1.54.15,2.17,0,.11,0,.22,0,.33,0,.26,0,.53.07.79a1.89,1.89,0,0,0,.37,1.08.56.56,0,0,0,.38.13.72.72,0,0,0,.63-.33c.22-.41.29-.51.26-1.67,0-.09,0-.19,0-.29,0-1.73.07-2.74.13-4.47,0-.49,0-1,.06-1.47.05-1,.08-2,.1-3a2,2,0,0,1,.21-.93.36.36,0,0,1,.31-.19.52.52,0,0,1,.47.4,9.29,9.29,0,0,1,.14,1.42c0,.52.07,1,.09,1.58,0,.3,0,.59,0,.89,0,.68,0,.81.05,1.49,0,.52,0,.59,0,1.1,0,1,.07,2.06.07,3.09,0,.29,0,.59,0,.89s-.06,1.09.31,1.41A.57.57,0,0,0,28,64a.63.63,0,0,0,.42-.15,1.89,1.89,0,0,0,.37-1.08c0-.26,0-.52.07-.79,0-.11,0-.22,0-.33.15-2.12.36-3.52.43-5.64.05-1.53,0-3.06-.05-4.59a.61.61,0,0,1,.24-.55h0a3.64,3.64,0,0,0,1.82-2.44,12.6,12.6,0,0,0,.41-3.34,9.14,9.14,0,0,0-.05-1.36A5.44,5.44,0,0,0,30.27,40.29Zm-6.57,8.3h0c0,.21-.07.27-.14.27s-.23-.13-.25-.16A3,3,0,0,1,23,48a7.24,7.24,0,0,1-.32-2.87,1.48,1.48,0,0,1,.25-.74c.08-.09.15-.14.2-.14s.23.37.26.54A18.59,18.59,0,0,1,23.7,48.59Zm6.17-.66a2.45,2.45,0,0,1-.34.77c-.11.15-.2.21-.25.21s-.13-.16-.14-.26a.33.33,0,0,0,0-.06,28.31,28.31,0,0,1,.19-4c0-.14.11-.5.32-.5h0c.18,0,.28.39.31.52A7,7,0,0,1,29.87,47.93Z"/><path class="cls-1" d="M28.6,34.5H26.37a1.92,1.92,0,1,0,1.44.65h0C27.9,35.15,28.6,35.13,28.6,34.5Z"/><path class="cls-1" d="M36.76,34.83a1.89,1.89,0,1,0,1.63,2.84,1.85,1.85,0,0,0,.23-1.23h0s0,0,0,0v0a.32.32,0,0,1,.19-.38h.06a.58.58,0,0,1,.33.1c.5.35.51,1.08.93,1.5a1.84,1.84,0,0,0,1.2.55,1,1,0,0,0,.34-.05c.2-.09.27-.18.27-.27s-.28-.31-.28-.31A1.48,1.48,0,0,1,41,36.48c-.19-.79-.56-1.69-1.43-1.69a1.56,1.56,0,0,0-.34,0,1.27,1.27,0,0,0-.72.47.35.35,0,0,1-.24.14.23.23,0,0,1-.16-.08h0a1.72,1.72,0,0,0-.37-.28A1.9,1.9,0,0,0,36.76,34.83Z"/><path class="cls-1" d="M24.91,22.72c0,.25.13,1,1.21,1H38.2a1.13,1.13,0,0,0,1-1.26v-.86a1.38,1.38,0,0,0,0-.26,1.27,1.27,0,0,0-1.23-.87H26a1.15,1.15,0,0,0-1,.87,1.46,1.46,0,0,0,0,.26Z"/><path class="cls-1" d="M26.78,19.54H37.27a.8.8,0,0,0,.83-.9,6.34,6.34,0,0,0-3.54-5.51s-.62-.24-.62-1.36V10a1.61,1.61,0,0,0-1.27-1.63s-.28.05-.28-.81V6.36s0-.07,0-.16V3.84c1.58.4,3.15-1.53,4.73-.34V.4C35.54-.8,34,1.14,32.38.73h0A1.92,1.92,0,0,1,31.7.4V3.51h0V6.19c0,.1,0,.17,0,.17V7.59c0,.87-.28.81-.28.81A1.61,1.61,0,0,0,30.16,10v1.72c0,1.12-.62,1.36-.62,1.36A6.38,6.38,0,0,0,26,18.76.75.75,0,0,0,26.78,19.54Z"/><path class="cls-1" d="M22.78,30.8h1c.26-.07.59-.29.59-1V26.72a.74.74,0,1,1,1.47,0v3.16c0,.65.35.86.6.92h2c.26-.07.59-.29.59-1V26.72a.74.74,0,1,1,1.47,0v3.17c0,.64.35.85.6.91h2c.26-.07.59-.29.59-1V26.72a.74.74,0,1,1,1.47,0v3.17c0,.64.35.85.6.91h2c.26-.07.59-.29.59-1V26.72a.74.74,0,1,1,1.47,0v3.16c0,.65.35.86.6.92h.95c1.06,0,1-.79,1-.79V25.94s0-1.32-1-1.32H22.81c-1.06,0-1,1.32-1,1.32V30S21.72,30.8,22.78,30.8Z"/><path class="cls-1" d="M53.18,34.54H45.84a1.16,1.16,0,0,1-1.28-1.17v-.25a.88.88,0,0,0-.88-.89H20.46a.89.89,0,0,0-.88.89v.41a.94.94,0,0,1-1,1H10.83a.89.89,0,0,0-.89.89v6.7a.89.89,0,0,0,.89.89h8.74a.89.89,0,0,0,.79-.67h0v0h0s0-.09,0-.14h0a5.5,5.5,0,0,1,3.33-3.65h0c.69-.18.29-.81.29-.81h0a2.69,2.69,0,0,1,2.37-4H28.6a.78.78,0,0,1,.78.78,1.33,1.33,0,0,1-.46,1,2.7,2.7,0,0,1-.18,2.16h0l0,.05c-.09.16-.29.58.13.69h0a4.39,4.39,0,0,1,1,.52,5.38,5.38,0,0,1,1,.75,5,5,0,0,1,1.13,1.67,4.1,4.1,0,0,1,.94-1.47,3.8,3.8,0,0,1,1.41-.87h0c.72-.19.29-.84.29-.84h0a2.68,2.68,0,0,1-.1-2.84,2.66,2.66,0,0,1,3.65-1l.09.05a2.08,2.08,0,0,1,.81-.4,2.32,2.32,0,0,1,.53-.06c1.09,0,1.82.77,2.19,2.29a1,1,0,0,0,.25.51l.14.08a1.13,1.13,0,0,1,.63,1,1.06,1.06,0,0,1-.74,1l-.06,0a2.4,2.4,0,0,1-2.34-.68,2.13,2.13,0,0,1-.35-.46,2.14,2.14,0,0,1-.17.35,2.62,2.62,0,0,1-.2.29l0,0s-.44.56.11.67h0a3.9,3.9,0,0,1,1.63.93,3.59,3.59,0,0,1,.94,1.76,3.67,3.67,0,0,1,.06.42,1.22,1.22,0,0,0,.21.73.86.86,0,0,0,.6.18H53.18a.88.88,0,0,0,.88-.89v-6.7A.88.88,0,0,0,53.18,34.54Z"/></svg>