<svg id="Layer_3" data-name="Layer 3" xmlns="http://www.w3.org/2000/svg" viewBox="0 0 64 64"><defs><style>.cls-1{fill:#fff;}</style></defs><title>youth-enrichment</title><path class="cls-1" d="M27.13,15.76a4.45,4.45,0,0,0,8.66-2,4.33,4.33,0,0,0-3.87-3.29,5.42,5.42,0,0,1,.2-1.21A2.12,2.12,0,0,1,33.1,8c3.24-1.27,3.63-6.55,2.9-8l-.26.05A5.18,5.18,0,0,1,31.6,5.62a2.82,2.82,0,0,0-2,1.73A4.28,4.28,0,0,0,30,10.67,4.37,4.37,0,0,0,27.13,15.76Z"/><path class="cls-1" d="M43.58,37.94a4.72,4.72,0,0,0-1.1.13h0S36,38,35.67,33.72V25c0-1,.93-.63,1-.6,2.08,1.07,4.54,2.78,4.54,4.41,0,2-2.89,3.6-4,4.05a1.48,1.48,0,0,0,1.11,2.75c.24-.1,5.86-2.4,5.86-6.8,0-3.49-4-6-6.43-7.19l-.2-.1a9.57,9.57,0,0,0-1.58-.68h0a15.85,15.85,0,0,0-3.45-.75c-4.49-.48-6.26-2.28-6.27-2.28A8.22,8.22,0,0,1,24,12.64c0-4.4,4.19-7.07,4.23-7.1A1.48,1.48,0,0,0,26.71,3c-.23.14-5.63,3.55-5.63,9.62,0,4.13,2.89,7.42,5.2,9.39h0a3.48,3.48,0,0,1,1.08,2.47v8.87A5.65,5.65,0,0,1,25,38a5.15,5.15,0,0,0-.68,0,3.42,3.42,0,0,0-3.18,1.64c-.17.31-.71.29-.71.29a.83.83,0,0,0,0,1.66,2.83,2.83,0,0,0,2.23-.84A2.35,2.35,0,0,1,24.3,40a2.06,2.06,0,0,1,1.66.64,2.1,2.1,0,0,0,1.74,1l.24,6.27s0,.09,0,.13l1.11,9.52a3.06,3.06,0,0,1-.29,1.74l-1,1.78s-1,1.72.24,2.6c1.49,1,2.6-.71,2.6-.71l1.63-2.26a3.23,3.23,0,0,0,.61-1.56l-.27-2.35,2.83,1.91a1.92,1.92,0,0,0,2.52,0,1.87,1.87,0,0,0,.26-2.44l-2-1.41-.29-.21A2.15,2.15,0,0,1,35.26,53L35.9,41.6l.07-.89a3.39,3.39,0,0,0,2.79,1.15,3.3,3.3,0,0,0,3.17-1.61c0-.06.39-.64,1.66-.64a.83.83,0,0,0,0-1.66ZM31.91,51.3l-.42-3.61,0-6.57a1.46,1.46,0,0,0,.75-.89l0,0,0,1.16Z"/></svg>