<?xml version="1.0" encoding="utf-8"?>
<!-- Generator: Adobe Illustrator 17.0.0, SVG Export Plug-In . SVG Version: 6.00 Build 0)  -->
<!DOCTYPE svg PUBLIC "-//W3C//DTD SVG 1.1//EN" "http://www.w3.org/Graphics/SVG/1.1/DTD/svg11.dtd">
<svg version="1.1" id="svg5358" xmlns:svg="http://www.w3.org/2000/svg"
	 xmlns="http://www.w3.org/2000/svg" xmlns:xlink="http://www.w3.org/1999/xlink" x="0px" y="0px" width="120px" height="25.619px"
	 viewBox="456.873 97.538 120 25.619" enable-background="new 456.873 97.538 120 25.619" xml:space="preserve">
<path id="path5056" fill="#706D6E" d="M576.873,109.128v-2.11h-2.621v-3.281l-0.088,0.027l-2.462,0.753l-0.048,0.015v2.486h-3.885
	v-1.385c0-0.645,0.144-1.138,0.428-1.467c0.282-0.325,0.686-0.49,1.201-0.49c0.37,0,0.753,0.087,1.139,0.259l0.097,0.043v-2.223
	l-0.045-0.017c-0.36-0.129-0.849-0.194-1.456-0.194c-0.764,0-1.459,0.166-2.065,0.496c-0.606,0.33-1.083,0.801-1.417,1.401
	c-0.333,0.599-0.502,1.29-0.502,2.055v1.523h-1.825v2.11h1.825v8.891h2.62v-8.891h3.885v5.65c0,2.327,1.098,3.506,3.262,3.506
	c0.356,0,0.73-0.042,1.112-0.123c0.389-0.084,0.654-0.167,0.81-0.257l0.035-0.02v-2.13l-0.107,0.071
	c-0.142,0.095-0.319,0.172-0.527,0.23c-0.208,0.059-0.383,0.088-0.517,0.088c-0.507,0-0.882-0.137-1.115-0.406
	c-0.235-0.272-0.355-0.748-0.355-1.414v-5.194L576.873,109.128L576.873,109.128z M557.474,116.142c-0.951,0-1.7-0.315-2.229-0.936
	c-0.532-0.624-0.801-1.514-0.801-2.645c0-1.166,0.269-2.079,0.801-2.715c0.529-0.631,1.271-0.951,2.207-0.951
	c0.908,0,1.631,0.306,2.149,0.91c0.521,0.607,0.785,1.513,0.785,2.693c0,1.195-0.248,2.112-0.738,2.726
	C559.162,115.832,558.431,116.142,557.474,116.142 M557.591,106.752c-1.814,0-3.255,0.532-4.282,1.58
	c-1.027,1.049-1.547,2.499-1.547,4.313c0,1.722,0.508,3.108,1.51,4.117c1.002,1.01,2.366,1.521,4.054,1.521
	c1.759,0,3.171-0.539,4.198-1.602c1.027-1.062,1.547-2.499,1.547-4.27c0-1.749-0.488-3.145-1.451-4.148
	C560.655,107.261,559.299,106.752,557.591,106.752 M547.538,106.752c-1.234,0-2.255,0.316-3.034,0.938
	c-0.784,0.626-1.182,1.447-1.182,2.441c0,0.516,0.086,0.975,0.255,1.364c0.17,0.39,0.433,0.734,0.783,1.023
	c0.347,0.286,0.883,0.586,1.592,0.891c0.596,0.246,1.042,0.453,1.324,0.617c0.276,0.16,0.472,0.322,0.583,0.479
	c0.108,0.154,0.162,0.364,0.162,0.624c0,0.739-0.553,1.099-1.692,1.099c-0.422,0-0.904-0.088-1.432-0.262
	c-0.528-0.174-1.022-0.423-1.467-0.744l-0.109-0.078v2.522l0.04,0.019c0.371,0.171,0.838,0.315,1.389,0.429
	c0.55,0.114,1.049,0.172,1.483,0.172c1.339,0,2.417-0.317,3.204-0.943c0.792-0.63,1.193-1.471,1.193-2.499
	c0-0.741-0.216-1.377-0.642-1.89c-0.423-0.509-1.157-0.976-2.181-1.388c-0.816-0.327-1.338-0.599-1.554-0.808
	c-0.208-0.202-0.313-0.487-0.313-0.847c0-0.32,0.13-0.576,0.398-0.784c0.269-0.209,0.644-0.315,1.115-0.315
	c0.436,0,0.883,0.069,1.327,0.204c0.444,0.135,0.834,0.316,1.159,0.537l0.107,0.073v-2.392l-0.041-0.018
	c-0.3-0.129-0.696-0.239-1.177-0.328C548.349,106.797,547.915,106.752,547.538,106.752 M536.491,116.142
	c-0.951,0-1.7-0.315-2.229-0.936c-0.532-0.624-0.801-1.514-0.801-2.645c0-1.166,0.269-2.079,0.801-2.715
	c0.528-0.631,1.271-0.951,2.207-0.951c0.908,0,1.631,0.306,2.149,0.91c0.521,0.607,0.785,1.513,0.785,2.693
	c0,1.195-0.249,2.112-0.738,2.726C538.179,115.832,537.448,116.142,536.491,116.142 M536.608,106.752
	c-1.815,0-3.255,0.532-4.282,1.58c-1.027,1.049-1.547,2.499-1.547,4.313c0,1.723,0.508,3.108,1.511,4.117
	c1.002,1.01,2.366,1.521,4.054,1.521c1.758,0,3.171-0.539,4.198-1.602c1.026-1.062,1.547-2.499,1.547-4.27
	c0-1.749-0.488-3.145-1.452-4.148C539.672,107.261,538.317,106.752,536.608,106.752 M526.802,108.922v-1.905h-2.588v11.001h2.588
	v-5.627c0-0.957,0.217-1.743,0.645-2.337c0.423-0.587,0.986-0.884,1.674-0.884c0.233,0,0.495,0.038,0.778,0.114
	c0.281,0.076,0.484,0.158,0.604,0.244l0.109,0.079v-2.609l-0.042-0.018c-0.241-0.102-0.582-0.154-1.013-0.154
	c-0.65,0-1.232,0.209-1.731,0.62c-0.438,0.362-0.754,0.857-0.996,1.476C526.829,108.922,526.802,108.922,526.802,108.922z
	 M519.58,106.752c-1.187,0-2.246,0.255-3.147,0.756c-0.903,0.503-1.601,1.221-2.075,2.134c-0.473,0.911-0.713,1.975-0.713,3.162
	c0,1.039,0.233,1.993,0.693,2.834c0.46,0.842,1.112,1.501,1.936,1.958c0.823,0.456,1.775,0.688,2.829,0.688
	c1.23,0,2.28-0.246,3.122-0.731l0.034-0.02v-2.371l-0.109,0.079c-0.381,0.278-0.807,0.499-1.266,0.659
	c-0.457,0.16-0.874,0.24-1.24,0.24c-1.015,0-1.831-0.318-2.422-0.944c-0.593-0.627-0.894-1.508-0.894-2.616
	c0-1.115,0.314-2.019,0.932-2.685c0.616-0.665,1.433-1.002,2.427-1.002c0.851,0,1.679,0.288,2.464,0.857l0.108,0.079v-2.498
	l-0.035-0.02c-0.295-0.165-0.698-0.302-1.197-0.405C520.529,106.804,520.043,106.752,519.58,106.752 M511.863,107.017h-2.588v11.001
	h2.588V107.017z M510.595,102.331c-0.426,0-0.797,0.145-1.103,0.432c-0.306,0.288-0.462,0.651-0.462,1.079
	c0,0.421,0.154,0.777,0.457,1.058c0.302,0.28,0.674,0.421,1.107,0.421c0.433,0,0.807-0.142,1.112-0.421
	c0.307-0.281,0.463-0.637,0.463-1.058c0-0.413-0.151-0.772-0.45-1.067C511.422,102.48,511.044,102.331,510.595,102.331
	 M504.139,106.206v11.812h2.641v-15.35h-3.655l-4.646,11.402l-4.508-11.402h-3.804v15.35h2.482v-11.813h0.085l4.761,11.813h1.873
	l4.687-11.812H504.139L504.139,106.206z"/>
<path id="path5058" fill="#F1511B" d="M469.046,109.711h-12.173V97.538h12.173V109.711z"/>
<path id="path5060" fill="#80CC28" d="M482.487,109.711h-12.173V97.538h12.173V109.711z"/>
<path id="path5062" fill="#00ADEF" d="M469.046,123.157h-12.173v-12.173h12.173V123.157z"/>
<path id="path5064" fill="#FBBC09" d="M482.487,123.157h-12.173v-12.173h12.173V123.157z"/>
</svg>
