<?xml version="1.0" encoding="UTF-8" standalone="no"?>
<!-- Generator: Adobe Illustrator 17.0.0, SVG Export Plug-In . SVG Version: 6.00 Build 0)  -->

<svg
   xmlns:dc="http://purl.org/dc/elements/1.1/"
   xmlns:cc="http://creativecommons.org/ns#"
   xmlns:rdf="http://www.w3.org/1999/02/22-rdf-syntax-ns#"
   xmlns:svg="http://www.w3.org/2000/svg"
   xmlns="http://www.w3.org/2000/svg"
   xmlns:sodipodi="http://sodipodi.sourceforge.net/DTD/sodipodi-0.dtd"
   xmlns:inkscape="http://www.inkscape.org/namespaces/inkscape"
   version="1.1"
   id="Layer_1"
   x="0px"
   y="0px"
   width="1066.1826"
   height="454.12851"
   viewBox="0 0 1066.1826 454.12851"
   enable-background="new 0 0 612 792"
   xml:space="preserve"
   inkscape:version="0.91 r13725"
   sodipodi:docname="logo-spirit.svg"><metadata
     id="metadata58"><rdf:RDF><cc:Work
         rdf:about=""><dc:format>image/svg+xml</dc:format><dc:type
           rdf:resource="http://purl.org/dc/dcmitype/StillImage" /><dc:title></dc:title></cc:Work></rdf:RDF></metadata><defs
     id="defs56" /><sodipodi:namedview
     pagecolor="#ffffff"
     bordercolor="#666666"
     borderopacity="1"
     objecttolerance="10"
     gridtolerance="10"
     guidetolerance="10"
     inkscape:pageopacity="0"
     inkscape:pageshadow="2"
     inkscape:window-width="1920"
     inkscape:window-height="1031"
     id="namedview54"
     showgrid="false"
     fit-margin-top="0"
     fit-margin-left="0"
     fit-margin-right="0"
     fit-margin-bottom="0"
     inkscape:zoom="0.2979798"
     inkscape:cx="537.58048"
     inkscape:cy="225.60706"
     inkscape:window-x="0"
     inkscape:window-y="25"
     inkscape:window-maximized="1"
     inkscape:current-layer="Layer_1" /><g
     id="XMLID_4127_"
     transform="translate(224.86861,-167.47854)"><g
       id="XMLID_4170_"
       style="opacity:0.7"><g
         id="XMLID_4198_"><path
           id="XMLID_4200_"
           d="m 161.357,566.61 c 8.984,-4.495 5.02,-17.827 -4.782,-16.059 -44.783,8.083 -91.929,2.617 -134.875,-18.625 -22.257,-11.01 -41.642,-25.394 -57.872,-42.251 -6.737,-6.997 -18.367,1.359 -14.04,10.087 14.234,28.709 37.541,53.013 68.509,68.331 46.144,22.826 98.966,20.58 143.06,-1.483 z"
           inkscape:connector-curvature="0"
           style="fill:#fbb040" /><path
           id="XMLID_4199_"
           d="m 161.357,566.61 c 8.984,-4.495 5.02,-17.827 -4.782,-16.059 -44.783,8.083 -91.929,2.617 -134.875,-18.625 -22.257,-11.01 -41.642,-25.394 -57.872,-42.251 -6.737,-6.997 -18.367,1.359 -14.04,10.087 14.234,28.709 37.541,53.013 68.509,68.331 46.144,22.826 98.966,20.58 143.06,-1.483 z"
           inkscape:connector-curvature="0"
           style="fill:#fbb040" /></g><g
         id="XMLID_4195_"><path
           id="XMLID_4197_"
           d="m 62.022,618.92 c 9.854,0.062 12.341,-13.612 2.989,-16.474 -42.727,-13.075 -81.472,-39.291 -109.506,-77.662 -14.529,-19.887 -25.043,-41.48 -31.697,-63.849 -2.762,-9.284 -16.651,-7.105 -16.766,2.632 -0.379,32.023 9.134,64.232 29.349,91.901 30.123,41.231 77.268,63.146 125.631,63.452 z"
           inkscape:connector-curvature="0"
           style="fill:#fbb040" /><path
           id="XMLID_4196_"
           d="m 62.022,618.92 c 9.854,0.062 12.341,-13.612 2.989,-16.474 -42.727,-13.075 -81.472,-39.291 -109.506,-77.662 -14.529,-19.887 -25.043,-41.48 -31.697,-63.849 -2.762,-9.284 -16.651,-7.105 -16.766,2.632 -0.379,32.023 9.134,64.232 29.349,91.901 30.123,41.231 77.268,63.146 125.631,63.452 z"
           inkscape:connector-curvature="0"
           style="fill:#fbb040" /></g><g
         id="XMLID_4192_"><path
           id="XMLID_4194_"
           d="m -48.096,620.554 c 8.58,4.516 16.855,-6.541 9.963,-13.325 -31.489,-30.995 -53.633,-71.896 -60.997,-118.779 -3.816,-24.297 -3.364,-48.298 0.806,-71.24 1.731,-9.523 -11.374,-13.87 -15.82,-5.247 -14.623,28.362 -20.687,61.367 -15.377,95.173 7.913,50.376 39.315,91.247 81.425,113.418 z"
           inkscape:connector-curvature="0"
           style="fill:#fbb040" /><path
           id="XMLID_4193_"
           d="m -48.096,620.554 c 8.58,4.516 16.855,-6.541 9.963,-13.325 -31.489,-30.995 -53.633,-71.896 -60.997,-118.779 -3.816,-24.297 -3.364,-48.298 0.806,-71.24 1.731,-9.523 -11.374,-13.87 -15.82,-5.247 -14.623,28.362 -20.687,61.367 -15.377,95.173 7.913,50.376 39.315,91.247 81.425,113.418 z"
           inkscape:connector-curvature="0"
           style="fill:#fbb040" /></g><g
         id="XMLID_4189_"><path
           id="XMLID_4191_"
           d="m -145.016,572.151 c 5.479,7.91 17.642,1.804 14.649,-7.362 -13.673,-41.874 -14.764,-88.343 -0.274,-133.449 7.51,-23.378 18.617,-44.557 32.499,-63.111 5.762,-7.701 -3.745,-17.508 -11.478,-11.838 -25.431,18.65 -45.459,45.311 -55.908,77.837 -15.569,48.469 -6.38,99.103 20.512,137.923 z"
           inkscape:connector-curvature="0"
           style="fill:#fbb040" /><path
           id="XMLID_4190_"
           d="m -145.016,572.151 c 5.479,7.91 17.642,1.804 14.649,-7.362 -13.673,-41.874 -14.764,-88.343 -0.274,-133.449 7.51,-23.378 18.617,-44.557 32.499,-63.111 5.762,-7.701 -3.745,-17.508 -11.478,-11.838 -25.431,18.65 -45.459,45.311 -55.908,77.837 -15.569,48.469 -6.38,99.103 20.512,137.923 z"
           inkscape:connector-curvature="0"
           style="fill:#fbb040" /></g><g
         id="XMLID_4186_"><path
           id="XMLID_4188_"
           d="m -208.079,485.142 c 1.256,9.528 14.607,9.596 16.082,0.074 6.744,-43.5 26.53,-85.399 59.319,-119.028 16.994,-17.429 36.148,-31.271 56.555,-41.518 8.47,-4.253 4.542,-17.296 -4.743,-15.744 -30.539,5.103 -59.931,19.791 -83.576,44.041 -35.232,36.134 -49.802,85.411 -43.637,132.175 z"
           inkscape:connector-curvature="0"
           style="fill:#fbb040" /><path
           id="XMLID_4187_"
           d="m -208.079,485.142 c 1.256,9.528 14.607,9.596 16.082,0.074 6.744,-43.5 26.53,-85.399 59.319,-119.028 16.994,-17.429 36.148,-31.271 56.555,-41.518 8.47,-4.253 4.542,-17.296 -4.743,-15.744 -30.539,5.103 -59.931,19.791 -83.576,44.041 -35.232,36.134 -49.802,85.411 -43.637,132.175 z"
           inkscape:connector-curvature="0"
           style="fill:#fbb040" /></g><g
         id="XMLID_4183_"><path
           id="XMLID_4185_"
           d="m -224.335,379.064 c -3.155,9.058 8.477,15.163 14.016,7.347 25.305,-35.706 61.288,-64.079 104.939,-79.198 22.623,-7.835 45.533,-11.497 67.932,-11.387 9.297,0.046 11.686,-13.354 2.883,-16.176 -28.954,-9.28 -61.185,-9.502 -92.661,1.4 -46.904,16.246 -81.623,53.555 -97.109,98.014 z"
           inkscape:connector-curvature="0"
           style="fill:#fbb040" /><path
           id="XMLID_4184_"
           d="m -224.335,379.064 c -3.155,9.058 8.477,15.163 14.016,7.347 25.305,-35.706 61.288,-64.079 104.939,-79.198 22.623,-7.835 45.533,-11.497 67.932,-11.387 9.297,0.046 11.686,-13.354 2.883,-16.176 -28.954,-9.28 -61.185,-9.502 -92.661,1.4 -46.904,16.246 -81.623,53.555 -97.109,98.014 z"
           inkscape:connector-curvature="0"
           style="fill:#fbb040" /></g><g
         id="XMLID_4180_"><path
           id="XMLID_4182_"
           d="m -191.192,277.187 c -6.798,6.642 0.638,17.348 8.964,12.892 38.04,-20.357 82.135,-29.346 127.013,-23.053 23.259,3.261 44.905,10.372 64.423,20.612 8.101,4.25 16.168,-6.607 9.737,-13.107 -21.151,-21.378 -49.207,-36.168 -81.568,-40.706 -48.222,-6.762 -95.201,10.76 -128.569,43.362 z"
           inkscape:connector-curvature="0"
           style="fill:#fbb040" /><path
           id="XMLID_4181_"
           d="m -191.192,277.187 c -6.798,6.642 0.638,17.348 8.964,12.892 38.04,-20.357 82.135,-29.346 127.013,-23.053 23.259,3.261 44.905,10.372 64.423,20.612 8.101,4.25 16.168,-6.607 9.737,-13.107 -21.151,-21.378 -49.207,-36.168 -81.568,-40.706 -48.222,-6.762 -95.201,10.76 -128.569,43.362 z"
           inkscape:connector-curvature="0"
           style="fill:#fbb040" /></g><g
         id="XMLID_4177_"><path
           id="XMLID_4179_"
           d="m -116.775,201.42 c -8.903,2.84 -7.185,15.746 2.077,15.546 42.315,-0.915 84.845,11.041 121.239,36.967 18.862,13.437 34.597,29.573 47.077,47.533 5.18,7.455 17.073,1.433 14.356,-7.27 C 59.039,265.572 41.132,239.691 14.888,220.995 -24.218,193.138 -73.077,187.48 -116.775,201.42 Z"
           inkscape:connector-curvature="0"
           style="fill:#fbb040" /><path
           id="XMLID_4178_"
           d="m -116.775,201.42 c -8.903,2.84 -7.185,15.746 2.077,15.546 42.315,-0.915 84.845,11.041 121.239,36.967 18.862,13.437 34.597,29.573 47.077,47.533 5.18,7.455 17.073,1.433 14.356,-7.27 C 59.039,265.572 41.132,239.691 14.888,220.995 -24.218,193.138 -73.077,187.48 -116.775,201.42 Z"
           inkscape:connector-curvature="0"
           style="fill:#fbb040" /></g><g
         id="XMLID_4174_"><path
           id="XMLID_4176_"
           d="m -17.954,167.605 c -9.045,-1.501 -13.304,10.776 -5.124,14.791 37.372,18.343 69.188,48.252 89.409,87.83 10.48,20.512 17.024,42.014 19.909,63.667 1.198,8.988 14.274,9.007 15.785,0.022 4.969,-29.55 0.877,-60.718 -13.704,-89.258 C 66.593,202.132 26.439,174.969 -17.954,167.605 Z"
           inkscape:connector-curvature="0"
           style="fill:#fbb040" /><path
           id="XMLID_4175_"
           d="m -17.954,167.605 c -9.045,-1.501 -13.304,10.776 -5.124,14.791 37.372,18.343 69.188,48.252 89.409,87.83 10.48,20.512 17.024,42.014 19.909,63.667 1.198,8.988 14.274,9.007 15.785,0.022 4.969,-29.55 0.877,-60.718 -13.704,-89.258 C 66.593,202.132 26.439,174.969 -17.954,167.605 Z"
           inkscape:connector-curvature="0"
           style="fill:#fbb040" /></g><g
         id="XMLID_4171_"><path
           id="XMLID_4173_"
           d="m 83.46,182.218 c -7.232,-5.432 -16.431,3.578 -11.077,10.859 24.459,33.265 38.903,74.319 38.903,118.739 0,23.021 -3.88,45.143 -11.022,65.742 -2.965,8.55 8.449,14.488 13.778,7.167 17.529,-24.079 27.865,-53.703 27.865,-85.733 0,-47.73 -22.954,-90.112 -58.447,-116.774 z"
           inkscape:connector-curvature="0"
           style="fill:#fbb040" /><path
           id="XMLID_4172_"
           d="m 83.46,182.218 c -7.232,-5.432 -16.431,3.578 -11.077,10.859 24.459,33.265 38.903,74.319 38.903,118.739 0,23.021 -3.88,45.143 -11.022,65.742 -2.965,8.55 8.449,14.488 13.778,7.167 17.529,-24.079 27.865,-53.703 27.865,-85.733 0,-47.73 -22.954,-90.112 -58.447,-116.774 z"
           inkscape:connector-curvature="0"
           style="fill:#fbb040" /></g></g><g
       id="XMLID_4128_"><g
         id="XMLID_4147_"><path
           id="XMLID_4168_"
           d="m 412.725,551.475 0,0.443 0,0.395 c 0,2.429 -0.318,4.414 -0.949,5.955 -0.633,1.543 -2.141,2.315 -4.52,2.315 -0.446,0 -2.549,-0.204 -6.307,-0.615 -3.759,-0.411 -6.753,-0.615 -8.986,-0.615 -1.972,0 -3.377,0.188 -4.213,0.565 -0.838,0.379 -1.341,0.928 -1.507,1.65 -0.167,0.722 -0.326,2.035 -0.474,3.939 -0.149,1.674 -0.223,3.987 -0.223,6.942 0,2.724 0.149,5.827 0.446,9.305 0.113,0.984 0.316,1.756 0.615,2.313 0.297,0.559 0.864,0.936 1.702,1.133 0.836,0.196 2.054,0.295 3.654,0.295 2.01,0 4.912,-0.204 8.707,-0.615 3.795,-0.409 5.99,-0.615 6.586,-0.615 1.562,0 2.826,0.477 3.795,1.429 0.259,0.229 0.521,0.73 0.782,1.501 0.259,0.772 0.474,1.666 0.641,2.682 0.167,1.018 0.251,2.037 0.251,3.053 0,1.576 -0.4,2.668 -1.2,3.273 -0.8,0.607 -2.912,1.058 -6.335,1.355 -2.828,0.295 -6.102,0.443 -9.822,0.443 -5.507,0 -9.999,-0.403 -13.479,-1.207 -3.479,-0.804 -6.241,-2.157 -8.287,-4.061 -2.048,-1.904 -3.497,-4.504 -4.353,-7.804 -0.856,-3.299 -1.284,-7.459 -1.284,-12.48 0,-4.989 0.438,-9.148 1.312,-12.48 0.874,-3.331 2.323,-5.941 4.353,-7.828 2.026,-1.888 4.762,-3.241 8.204,-4.063 3.441,-0.82 7.951,-1.231 13.533,-1.231 2.977,0 6.251,0.182 9.822,0.543 3.423,0.263 5.535,0.672 6.335,1.231 0.801,0.557 1.201,1.509 1.201,2.854 z"
           inkscape:connector-curvature="0"
           style="fill:#ffffff" /><path
           id="XMLID_4166_"
           d="m 473.883,591.008 c 0,3.774 -1.936,5.663 -5.805,5.663 l -4.13,0 c -2.492,0 -4.333,-0.387 -5.525,-1.157 -1.19,-0.772 -1.785,-2.273 -1.785,-4.506 l 0,-24.271 c 0,-4.167 -0.223,-6.499 -0.669,-6.992 -0.223,-0.263 -1.099,-0.393 -2.625,-0.393 -3.943,0 -8.128,1.313 -12.556,3.939 l 0,27.716 c 0,3.774 -1.954,5.663 -5.861,5.663 l -4.13,0 c -2.492,0 -4.333,-0.387 -5.525,-1.157 -1.19,-0.772 -1.785,-2.273 -1.785,-4.506 l 0,-58.241 c 0,-1.968 0.531,-3.372 1.59,-4.209 1.061,-0.836 2.633,-1.255 4.715,-1.255 l 5.135,0 c 2.046,0 3.535,0.583 4.466,1.748 0.929,1.165 1.395,2.403 1.395,3.716 l 0,16.591 c 4.538,-1.674 9.246,-2.512 14.12,-2.512 4.651,0 8.408,0.74 11.274,2.217 2.864,1.475 4.864,3.356 6,5.637 1.136,2.281 1.702,4.668 1.702,7.162 l 0,29.147 z"
           inkscape:connector-curvature="0"
           style="fill:#ffffff" /><path
           id="XMLID_4163_"
           d="m 533.366,591.304 c 0,3.578 -1.934,5.366 -5.805,5.366 l -3.572,0 c -1.823,0 -3.274,-0.172 -4.354,-0.517 -1.079,-0.345 -1.879,-1.01 -2.4,-1.995 -5.356,2.56 -10.846,3.841 -16.463,3.841 -5.879,0 -10.297,-1.345 -13.255,-4.037 -2.959,-2.69 -4.438,-6.531 -4.438,-11.52 0,-6.597 2.269,-11.037 6.81,-13.318 4.538,-2.281 10.697,-3.422 18.473,-3.422 2.866,0 5.6,0.098 8.204,0.295 0,-3.051 -0.279,-5.152 -0.836,-6.3 -0.559,-1.149 -1.843,-1.724 -3.851,-1.724 -2.233,0 -4.969,0.196 -8.204,0.591 -3.238,0.393 -6.14,0.87 -8.707,1.427 -0.892,0.132 -1.618,0.196 -2.177,0.196 -1.6,0 -2.8,-0.409 -3.6,-1.231 -0.8,-0.82 -1.2,-1.788 -1.2,-2.904 l 0,-2.117 c 0,-3.019 1.451,-4.775 4.353,-5.268 2.79,-0.459 6.064,-0.878 9.822,-1.255 3.758,-0.377 6.81,-0.567 9.153,-0.567 8.371,0 14.194,1.626 17.468,4.875 1.861,1.74 3.089,3.7 3.684,5.883 0.595,2.183 0.892,5.655 0.892,10.411 l 0,23.29 z m -16.686,-8.026 0,-7.385 c -0.446,0 -1.154,-0.032 -2.12,-0.098 -0.969,-0.066 -1.712,-0.098 -2.233,-0.098 -3.089,0 -5.62,0.164 -7.591,0.493 -1.972,0.327 -3.385,0.894 -4.241,1.698 -0.856,0.804 -1.284,1.994 -1.284,3.57 0,1.574 0.269,2.945 0.81,4.109 0.539,1.167 1.331,1.748 2.372,1.748 2.792,0 5.115,-0.271 6.976,-0.812 1.86,-0.541 4.296,-1.615 7.311,-3.225 z"
           inkscape:connector-curvature="0"
           style="fill:#ffffff" /><path
           id="XMLID_4161_"
           d="m 562.88,591.008 c 0,3.774 -1.954,5.663 -5.861,5.663 l -4.13,0 c -2.492,0 -4.333,-0.387 -5.525,-1.157 -1.19,-0.772 -1.785,-2.273 -1.785,-4.506 l 0,-58.241 c 0,-1.968 0.531,-3.372 1.59,-4.209 1.061,-0.836 2.633,-1.255 4.715,-1.255 l 5.135,0 c 2.046,0 3.535,0.583 4.466,1.748 0.929,1.165 1.395,2.403 1.395,3.716 l 0,58.241 z"
           inkscape:connector-curvature="0"
           style="fill:#ffffff" /><path
           id="XMLID_4159_"
           d="m 592.838,591.008 c 0,3.774 -1.954,5.663 -5.861,5.663 l -4.13,0 c -2.492,0 -4.333,-0.387 -5.525,-1.157 -1.19,-0.772 -1.785,-2.273 -1.785,-4.506 l 0,-58.241 c 0,-1.968 0.531,-3.372 1.59,-4.209 1.061,-0.836 2.633,-1.255 4.715,-1.255 l 5.135,0 c 2.046,0 3.535,0.583 4.466,1.748 0.929,1.165 1.395,2.403 1.395,3.716 l 0,58.241 z"
           inkscape:connector-curvature="0"
           style="fill:#ffffff" /><path
           id="XMLID_4156_"
           d="m 653.773,570.135 c 0,2.165 -0.177,3.732 -0.531,4.701 -0.354,0.968 -0.949,1.592 -1.787,1.87 -0.836,0.281 -2.128,0.419 -3.877,0.419 l -26.846,0 0,1.576 c 0,1.838 0.261,3.339 0.782,4.504 0.521,1.167 1.469,2.019 2.846,2.562 1.377,0.541 3.367,0.812 5.971,0.812 2.269,0 4.512,-0.14 6.725,-0.419 2.215,-0.279 4.958,-0.714 8.233,-1.305 1.564,-0.327 2.549,-0.491 2.959,-0.491 1.972,0 3.246,0.647 3.823,1.944 0.577,1.297 0.864,2.929 0.864,4.899 0,1.542 -0.362,2.772 -1.087,3.692 -0.726,0.918 -2.112,1.509 -4.159,1.772 -6.4,0.886 -12.222,1.329 -17.468,1.329 -6.997,0 -12.399,-0.92 -16.214,-2.758 -3.813,-1.836 -6.446,-4.552 -7.897,-8.146 -1.451,-3.594 -2.177,-8.361 -2.177,-14.302 0,-5.875 0.643,-10.66 1.925,-14.352 1.284,-3.692 3.787,-6.547 7.507,-8.565 3.72,-2.018 9.133,-3.029 16.24,-3.029 6.587,0 11.646,0.97 15.181,2.904 3.535,1.938 5.917,4.572 7.145,7.902 1.227,3.33 1.842,7.492 1.842,12.481 z m -16.353,-3.005 0,-2.411 c 0,-2.395 -0.502,-4.069 -1.507,-5.021 -1.005,-0.952 -3.069,-1.429 -6.195,-1.429 -2.382,0 -4.205,0.305 -5.469,0.912 -1.266,0.607 -2.131,1.533 -2.597,2.78 -0.464,1.249 -0.734,2.973 -0.808,5.17 l 16.576,0 z"
           inkscape:connector-curvature="0"
           style="fill:#ffffff" /><path
           id="XMLID_4154_"
           d="m 715.32,591.206 c 0,3.642 -1.936,5.464 -5.805,5.464 l -4.13,0 c -2.53,0 -4.38,-0.361 -5.553,-1.084 -1.172,-0.722 -1.757,-2.181 -1.757,-4.38 l 0,-24.864 c 0,-2.624 -0.187,-4.462 -0.559,-5.512 -0.372,-1.05 -1.21,-1.576 -2.51,-1.576 -3.871,0 -8.13,1.608 -12.781,4.825 l 0,27.127 c 0,3.642 -1.954,5.464 -5.861,5.464 l -4.13,0 c -2.531,0 -4.38,-0.361 -5.553,-1.084 -1.172,-0.722 -1.757,-2.181 -1.757,-4.38 l 0,-37.466 c 0,-3.578 2.1,-5.366 6.305,-5.366 l 5.135,0 c 2.12,0 3.72,0.738 4.8,2.215 4.836,-2.494 9.897,-3.742 15.181,-3.742 4.725,0 8.502,0.714 11.33,2.143 2.826,1.427 4.808,3.233 5.943,5.414 1.136,2.185 1.702,4.506 1.702,6.968 l 0,29.834 z"
           inkscape:connector-curvature="0"
           style="fill:#ffffff" /><path
           id="XMLID_4151_"
           d="m 777.873,601.002 c 0,2.658 -0.167,4.652 -0.5,5.981 -0.336,1.329 -1.043,2.666 -2.122,4.013 -1.377,1.706 -3.172,3.159 -5.385,4.358 -2.215,1.197 -4.763,2.083 -7.646,2.658 -2.884,0.573 -5.927,0.862 -9.125,0.862 -3.797,0 -7.758,-0.182 -11.889,-0.543 -4.13,-0.361 -7.443,-0.82 -9.935,-1.377 -2.902,-0.657 -4.351,-2.61 -4.351,-5.859 0,-2.035 0.316,-3.7 0.949,-4.997 0.631,-1.297 1.99,-1.944 4.074,-1.944 0.408,0 1.357,0.164 2.846,0.493 6.956,1.409 13.32,2.117 19.086,2.117 3.125,0 5.015,-0.74 5.666,-2.217 0.649,-1.475 1.013,-4.003 1.087,-7.581 -4.948,0.69 -8.984,1.034 -12.11,1.034 -4.02,0 -7.479,-0.485 -10.381,-1.453 -2.902,-0.966 -5.228,-2.419 -6.976,-4.356 -1.749,-1.936 -3.041,-4.406 -3.879,-7.411 -0.838,-3.003 -1.256,-6.571 -1.256,-10.708 0,-9.385 2.159,-16.246 6.474,-20.578 1.787,-1.804 3.712,-3.175 5.776,-4.111 2.066,-0.934 4.512,-1.592 7.34,-1.968 2.826,-0.377 6.379,-0.567 10.659,-0.567 l 0.949,0 c 5.841,0 10.791,0.132 14.847,0.395 2.157,0.13 3.664,0.639 4.52,1.525 0.854,0.886 1.282,2.233 1.282,4.037 l 0,48.197 z m -17.245,-15.952 0,-25.599 c -1.526,-0.066 -4.11,-0.098 -7.756,-0.098 -2.533,0 -4.243,0.18 -5.135,0.541 -0.892,0.361 -1.582,0.952 -2.066,1.772 -0.633,1.183 -1.134,2.84 -1.505,4.973 -0.374,2.133 -0.559,4.448 -0.559,6.942 0,1.968 0.185,4.43 0.559,7.385 0.259,1.608 0.595,2.814 1.005,3.618 0.408,0.806 0.977,1.321 1.7,1.552 0.726,0.23 1.815,0.345 3.266,0.345 3.199,-0.002 6.696,-0.477 10.491,-1.431 z"
           inkscape:connector-curvature="0"
           style="fill:#ffffff" /><path
           id="XMLID_4148_"
           d="m 838.362,570.135 c 0,2.165 -0.177,3.732 -0.531,4.701 -0.354,0.968 -0.949,1.592 -1.787,1.87 -0.836,0.281 -2.128,0.419 -3.877,0.419 l -26.846,0 0,1.576 c 0,1.838 0.261,3.339 0.782,4.504 0.521,1.167 1.469,2.019 2.846,2.562 1.377,0.541 3.367,0.812 5.971,0.812 2.269,0 4.512,-0.14 6.725,-0.419 2.215,-0.279 4.958,-0.714 8.233,-1.305 1.564,-0.327 2.549,-0.491 2.959,-0.491 1.972,0 3.246,0.647 3.823,1.944 0.577,1.297 0.864,2.929 0.864,4.899 0,1.542 -0.362,2.772 -1.087,3.692 -0.726,0.918 -2.112,1.509 -4.159,1.772 -6.4,0.886 -12.222,1.329 -17.468,1.329 -6.997,0 -12.399,-0.92 -16.214,-2.758 -3.813,-1.836 -6.446,-4.552 -7.897,-8.146 -1.451,-3.594 -2.177,-8.361 -2.177,-14.302 0,-5.875 0.643,-10.66 1.925,-14.352 1.284,-3.692 3.787,-6.547 7.507,-8.565 3.72,-2.018 9.133,-3.029 16.24,-3.029 6.587,0 11.646,0.97 15.181,2.904 3.535,1.938 5.917,4.572 7.145,7.902 1.227,3.33 1.842,7.492 1.842,12.481 z m -16.353,-3.005 0,-2.411 c 0,-2.395 -0.503,-4.069 -1.507,-5.021 -1.004,-0.952 -3.069,-1.429 -6.195,-1.429 -2.382,0 -4.205,0.305 -5.469,0.912 -1.266,0.607 -2.13,1.533 -2.597,2.78 -0.464,1.249 -0.734,2.973 -0.808,5.17 l 16.576,0 z"
           inkscape:connector-curvature="0"
           style="fill:#ffffff" /></g><path
         id="XMLID_4145_"
         d="m 266.159,464.99 c 0,9.822 -1.103,17.932 -3.309,24.328 -2.209,6.396 -5.747,11.459 -10.62,15.192 -4.873,3.738 -11.363,6.42 -19.465,8.058 -8.107,1.638 -18.005,2.456 -29.703,2.456 -20.722,0 -35.958,-0.667 -45.704,-1.996 -3.284,-0.408 -5.694,-0.973 -7.234,-1.687 -1.54,-0.714 -2.692,-2.172 -3.464,-4.375 -0.768,-2.197 -1.152,-6.009 -1.152,-11.432 l 0,-5.373 c 0,-5.32 0.821,-9.593 2.463,-12.816 1.639,-3.222 5.025,-4.835 10.155,-4.835 -0.514,0 4.771,0.643 15.852,1.919 11.078,1.282 22.262,1.919 33.548,1.919 3.386,0 5.948,-0.204 7.695,-0.615 1.741,-0.405 2.946,-1.227 3.615,-2.453 0.666,-1.23 1.001,-2.966 1.001,-5.218 0,-4.4 -0.412,-6.908 -1.233,-7.52 -0.923,-1.023 -4.207,-2.326 -9.848,-3.915 -5.641,-1.585 -12.568,-3.454 -20.775,-5.601 -8.21,-2.15 -15.211,-4.347 -21.004,-6.599 -5.799,-2.249 -10.443,-4.913 -13.928,-7.98 -7.386,-6.754 -11.081,-17.138 -11.081,-31.156 0,-11.357 1.899,-20.49 5.694,-27.396 3.795,-6.908 8.95,-11.92 15.468,-15.04 6.512,-3.121 14.028,-5.116 22.544,-5.988 8.513,-0.868 19.084,-1.304 31.702,-1.304 10.465,0 18.312,0.207 23.545,0.615 6.874,0.513 11.797,1.996 14.774,4.449 2.974,2.456 4.464,7.06 4.464,13.814 0,7.675 -0.849,13.329 -2.54,16.959 -1.691,3.633 -5.874,5.45 -12.541,5.45 -1.029,0 -5.926,-0.436 -14.697,-1.307 -8.773,-0.868 -17.878,-1.304 -27.318,-1.304 -4.718,0 -7.977,0.154 -9.771,0.46 -1.797,0.309 -3.079,1.1 -3.848,2.379 -0.768,1.282 -1.152,3.3 -1.152,6.062 0,1.841 0.483,3.25 1.459,4.22 0.976,0.973 2.333,1.743 4.08,2.302 1.744,0.565 7.9,2.432 18.467,5.605 12.618,3.581 21.286,6.114 26.008,7.594 4.718,1.486 9.285,3.711 13.696,6.677 4.408,2.969 7.872,7.316 10.388,13.047 2.512,5.73 3.769,13.198 3.769,22.405 z"
         inkscape:connector-curvature="0"
         style="fill:#ffffff" /><path
         id="XMLID_4142_"
         d="m 441.301,435.063 c 0,12.995 -0.669,22.842 -2.001,29.543 -1.335,6.701 -3.798,13.227 -7.389,19.57 -3.795,6.856 -8.848,12.584 -15.158,17.188 -6.307,4.604 -13.594,8.033 -21.85,10.282 -8.262,2.249 -17.16,3.377 -26.701,3.377 -9.031,0 -17.389,-0.766 -25.084,-2.302 l 0,46.196 c 0,11.765 -5.387,17.651 -16.159,17.651 l -11.388,0 c -6.977,0 -12.079,-1.177 -15.31,-3.531 -3.234,-2.354 -4.848,-7.06 -4.848,-14.12 l 0,-181.562 c 0,-6.139 1.462,-10.514 4.387,-13.122 2.921,-2.611 7.255,-3.915 13.002,-3.915 l 14.158,0 c 6.565,0 11.181,2.713 13.851,8.135 17.643,-8.595 32.879,-12.893 45.704,-12.893 14.876,0 26.367,3.76 34.471,11.28 8.104,7.52 13.516,17.064 16.236,28.625 2.715,11.563 4.079,24.762 4.079,39.598 z m -47.861,1.073 c 0,-6.139 -0.335,-12.686 -1.001,-19.644 -0.669,-6.958 -1.363,-11.867 -2.079,-14.734 -0.923,-4.807 -3.9,-7.214 -8.925,-7.214 -3.182,0 -6.924,0.692 -11.233,2.073 -4.309,1.381 -8.953,3.25 -13.929,5.601 -4.975,2.354 -9.362,4.604 -13.157,6.754 l 0,63.538 c 8.925,2.354 17.491,3.531 25.701,3.531 5.641,0 9.948,-0.664 12.925,-1.996 7.797,-3.068 11.698,-15.704 11.698,-37.909 z"
         inkscape:connector-curvature="0"
         style="fill:#ffffff" /><path
         id="XMLID_4139_"
         d="m 515.794,322.258 c 0,11.561 -5.49,17.342 -16.466,17.342 l -12.005,0 c -6.977,0 -12.079,-1.174 -15.31,-3.531 -3.234,-2.351 -4.848,-6.955 -4.848,-13.811 l 0,-10.591 c 0,-6.139 1.462,-10.514 4.387,-13.122 2.921,-2.611 7.255,-3.915 13.002,-3.915 l 14.774,0 c 5.744,0 9.926,1.792 12.541,5.373 2.618,3.581 3.925,7.471 3.925,11.663 l 0,10.592 z m 0,170.971 c 0,11.768 -5.49,17.651 -16.466,17.651 l -12.005,0 c -6.874,0 -11.952,-1.202 -15.236,-3.606 -3.284,-2.404 -4.923,-7.085 -4.923,-14.045 l 0,-115.568 c 0,-11.561 5.793,-17.342 17.389,-17.342 l 14.774,0 c 5.744,0 9.926,1.817 12.541,5.447 2.618,3.633 3.925,7.597 3.925,11.895 l 0,115.568 z"
         inkscape:connector-curvature="0"
         style="fill:#ffffff" /><path
         id="XMLID_4137_"
         d="m 649.079,379.812 c 0,11.561 -5.13,17.342 -15.391,17.342 -9.027,0 -16.209,0.921 -21.543,2.762 -5.335,1.841 -11.184,4.758 -17.544,8.75 l 0,85.178 c 0,11.357 -5.49,17.036 -16.466,17.036 l -12.005,0 c -6.977,0 -12.079,-1.125 -15.31,-3.377 -3.234,-2.249 -4.848,-6.803 -4.848,-13.659 l 0,-116.794 c 0,-11.154 5.793,-16.73 17.389,-16.73 l 14.774,0 c 6.977,0 11.797,2.713 14.464,8.135 8.619,-4.298 15.645,-7.52 21.085,-9.671 5.437,-2.147 11.336,-3.222 17.696,-3.222 4.619,0 8.721,1.1 12.311,3.3 3.591,2.203 5.387,5.707 5.387,10.514 l 0,10.436 z"
         inkscape:connector-curvature="0"
         style="fill:#ffffff" /><path
         id="XMLID_4134_"
         d="m 713.724,322.258 c 0,11.561 -5.49,17.342 -16.466,17.342 l -12.005,0 c -6.977,0 -12.079,-1.174 -15.31,-3.531 -3.234,-2.351 -4.848,-6.955 -4.848,-13.811 l 0,-10.591 c 0,-6.139 1.462,-10.514 4.387,-13.122 2.921,-2.611 7.255,-3.915 13.002,-3.915 l 14.774,0 c 5.744,0 9.926,1.792 12.541,5.373 2.618,3.581 3.925,7.471 3.925,11.663 l 0,10.592 z m 0,170.971 c 0,11.768 -5.49,17.651 -16.466,17.651 l -12.005,0 c -6.874,0 -11.952,-1.202 -15.236,-3.606 -3.284,-2.404 -4.923,-7.085 -4.923,-14.045 l 0,-115.568 c 0,-11.561 5.793,-17.342 17.389,-17.342 l 14.774,0 c 5.744,0 9.926,1.817 12.541,5.447 2.618,3.633 3.925,7.597 3.925,11.895 l 0,115.568 z"
         inkscape:connector-curvature="0"
         style="fill:#ffffff" /><path
         id="XMLID_4132_"
         d="m 841.314,380.118 c 0,6.754 -1.18,11.691 -3.541,14.812 -2.361,3.121 -7.181,4.681 -14.464,4.681 l -23.854,0 0,63.232 c 0,9.003 1.025,13.505 3.079,13.505 2.872,0 5.793,-0.408 8.77,-1.227 2.974,-0.819 5.926,-1.613 8.851,-2.379 2.924,-0.769 5.666,-1.152 8.231,-1.152 8.207,0 12.311,4.403 12.311,13.199 l 0,11.052 c 0,3.989 -0.514,7.214 -1.537,9.667 -1.029,2.456 -2.618,4.248 -4.771,5.373 -2.156,1.125 -5.49,1.943 -10.003,2.456 -10.979,1.125 -20.366,1.687 -28.164,1.687 -12.002,0 -21.187,-1.662 -27.547,-4.987 -6.36,-3.324 -10.772,-8.62 -13.235,-15.887 -2.46,-7.264 -3.693,-17.391 -3.693,-30.386 l 0,-64.154 c -10.874,-0.309 -16.311,-5.988 -16.311,-17.036 l 0,-6.908 c 0,-5.011 1.716,-8.771 5.155,-11.28 3.436,-2.506 7.156,-3.859 11.156,-4.066 l 0,-22.255 c 0,-11.357 5.796,-17.036 17.389,-17.036 l 14.161,0 c 5.638,0 9.743,1.82 12.311,5.45 2.562,3.633 3.845,7.495 3.845,11.586 l 0,22.255 23.854,0 c 12.005,0 18.005,5.116 18.005,15.346 l 0,4.452 z"
         inkscape:connector-curvature="0"
         style="fill:#ffffff" /><g
         id="XMLID_4129_"><path
           id="XMLID_4130_"
           d="m 96.95,314.118 c 0,3.786 -1.027,7.367 -3.077,10.744 l -61.865,104.671 0,64.306 c 0,11.358 -5.642,17.036 -16.928,17.036 l -13.695,0 c -6.156,0 -10.825,-1.279 -14.005,-3.837 -3.18,-2.558 -4.77,-6.958 -4.77,-13.2 l 0,-61.851 -62.788,-107.127 c -2.259,-4.298 -3.387,-7.878 -3.387,-10.744 0,-4.809 1.666,-8.21 5.003,-10.205 3.332,-1.996 6.898,-2.995 10.695,-2.995 l 17.082,0 c 5.025,0 8.926,0.898 11.696,2.686 2.77,1.792 5.129,4.478 7.079,8.058 l 39.704,68.758 40.781,-69.065 c 2.05,-3.58 4.436,-6.216 7.155,-7.904 2.717,-1.688 6.643,-2.534 11.774,-2.534 l 13.85,0 c 5.127,0 9.027,1.255 11.696,3.76 2.666,2.513 4,5.658 4,9.443 z"
           inkscape:connector-curvature="0"
           style="fill:#ffffff" /></g></g></g></svg>