<?xml version="1.0" encoding="utf-8"?>
<!-- Generator: Adobe Illustrator 20.1.0, SVG Export Plug-In . SVG Version: 6.00 Build 0)  -->
<svg version="1.1" id="Layer_1" xmlns="http://www.w3.org/2000/svg" xmlns:xlink="http://www.w3.org/1999/xlink" x="0px" y="0px"
	 viewBox="0 0 42.3 37.2" style="enable-background:new 0 0 42.3 37.2;" xml:space="preserve">
<g>
	<path class="st0" d="M0,37.2v-16c0-2.9,0.3-5.6,0.9-8.1c0.6-2.5,1.6-4.8,2.9-6.7c1.3-1.9,3-3.5,5-4.6S13.2,0,15.8,0v7.2
		c-1.6,0-3,0.4-4,1.2c-1.1,0.8-1.9,1.9-2.6,3.2c-0.7,1.3-1.1,2.9-1.4,4.5c-0.2,1.7-0.4,3.3-0.4,5H16v16H0z M26.4,37.2v-16
		c0-2.9,0.3-5.6,0.9-8.1c0.6-2.5,1.6-4.8,2.9-6.7c1.3-1.9,3-3.5,5-4.6c2-1.2,4.4-1.7,7.1-1.7v7.2c-1.6,0-3,0.4-4,1.2
		c-1.1,0.8-1.9,1.9-2.6,3.2c-0.7,1.3-1.1,2.9-1.4,4.5c-0.2,1.7-0.4,3.3-0.4,5h8.5v16H26.4z"/>
</g>
</svg>
