<?xml version="1.0" encoding="UTF-8"?>
<svg width="93px" height="26px" viewBox="0 0 93 26" version="1.1" xmlns="http://www.w3.org/2000/svg" xmlns:xlink="http://www.w3.org/1999/xlink">
    <!-- Generator: Sketch 47.1 (45422) - http://www.bohemiancoding.com/sketch -->
    <title>YMCA</title>
    <desc>Created with Sketch.</desc>
    <defs></defs>
    <g id="Page-1" stroke="none" stroke-width="1" fill="none" fill-rule="evenodd">
        <g id="YMCA" fill-rule="nonzero" fill="#FFFFFF">
            <g id="Group">
                <path d="M3.2,1.5 C3.2,1.8 3.1,1.9 2.8,1.9 C2.5,1.9 2.4,1.9 2.3,1.9 C2.2,1.9 2.1,1.9 1.9,1.9 C1.7,1.9 1.5,1.9 1.3,1.9 L1.3,2.9 C1.8,2.9 2.3,2.9 2.7,2.9 C3,2.9 3.1,3 3.1,3.3 L3.1,3.4 C3.1,3.5 3.1,3.6 3,3.7 C2.9,3.8 2.8,3.8 2.7,3.8 C2.5,3.8 2.3,3.8 2.1,3.8 C1.9,3.8 1.6,3.8 1.4,3.8 L1.4,5.6 C1.4,5.9 1.3,6 1,6 L0.7,6 C0.5,6 0.4,6 0.4,5.9 C0.3,5.8 0.3,5.7 0.3,5.6 L0.3,1.2 C0.3,1 0.3,0.9 0.4,0.9 C0.5,0.8 0.6,0.8 0.7,0.8 L3,0.8 C3.3,0.8 3.4,0.9 3.4,1.2 L3.4,1.5 L3.2,1.5 Z" id="Shape"></path>
                <path d="M8,3.5 C8,4 7.9,4.5 7.8,4.9 C7.7,5.3 7.4,5.6 7.1,5.9 C6.8,6.1 6.3,6.3 5.7,6.3 C5.3,6.3 4.9,6.2 4.6,6.1 C4.3,6 4.1,5.8 3.9,5.5 C3.7,5.2 3.6,5 3.5,4.6 C3.4,4.3 3.4,3.9 3.4,3.5 C3.4,3.1 3.4,2.7 3.5,2.4 C3.6,2.1 3.7,1.8 3.9,1.5 C4.1,1.2 4.3,1.1 4.6,0.9 C4.9,0.8 5.3,0.7 5.7,0.7 C6.3,0.7 6.7,0.8 7.1,1.1 C7.4,1.3 7.7,1.7 7.8,2.1 C7.9,2.5 8,3 8,3.5 M6.7,3.5 C6.7,3.2 6.7,3 6.7,2.8 C6.7,2.6 6.6,2.4 6.6,2.3 C6.5,2 6.2,1.9 5.7,1.9 C5.2,1.9 4.9,2 4.8,2.3 C4.7,2.5 4.6,3 4.6,3.6 C4.6,4.2 4.7,4.6 4.8,4.9 C4.9,5.2 5.2,5.3 5.7,5.3 C6.2,5.3 6.5,5.2 6.6,4.9 C6.7,4.6 6.7,4.1 6.7,3.5" id="Shape"></path>
                <path d="M12.5,5.8 C12.5,6 12.4,6.1 12.1,6.1 L11.6,6.1 C11.5,6.1 11.4,6.1 11.3,6.1 C11.2,6.1 11.1,6 11.1,5.9 L9.8,4.3 L9.7,4.3 L9.7,5.7 C9.7,6 9.6,6.1 9.3,6.1 L9,6.1 C8.8,6.1 8.7,6.1 8.7,6 C8.6,5.9 8.6,5.8 8.6,5.7 L8.6,1.3 C8.6,1.1 8.6,1 8.7,1 C8.8,1 8.9,0.9 9,0.9 L10.4,0.9 C10.8,0.9 11.1,0.9 11.3,1 C11.5,1 11.6,1.1 11.8,1.3 C11.9,1.4 12.1,1.6 12.1,1.9 C12.2,2.1 12.2,2.4 12.2,2.8 C12.2,3.6 11.9,4.1 11.2,4.3 L12.3,5.6 C12.5,5.6 12.5,5.7 12.5,5.8 M11,2.7 L11,2.7 C11,2.3 10.9,2 10.8,2 C10.7,2 10.6,2 10.3,2 L10.3,2 C10,2 9.8,2 9.7,2 L9.7,3.3 L10.5,3.3 C10.7,3.3 10.8,3.3 10.8,3.3 C10.9,3.3 10.9,3.2 10.9,3.2 C11,3 11,2.9 11,2.7" id="Shape"></path>
                <path d="M18.6,1.3 C18.6,1.4 18.6,1.5 18.5,1.6 L17,4.2 L17,5.8 C17,6.1 16.9,6.2 16.6,6.2 L16.3,6.2 C16.1,6.2 16,6.2 16,6.1 C15.9,6 15.9,5.9 15.9,5.8 L15.9,4.3 L14.3,1.7 C14.2,1.6 14.2,1.5 14.2,1.4 C14.2,1.3 14.2,1.2 14.3,1.1 C14.4,1.1 14.5,1 14.6,1 L15,1 C15.1,1 15.2,1 15.3,1.1 C15.4,1.1 15.4,1.2 15.5,1.3 L16.5,3 L17.5,1.3 C17.6,1.2 17.6,1.1 17.7,1.1 C17.8,1.1 17.9,1 18,1 L18.3,1 C18.4,1 18.5,1 18.6,1.1 C18.6,1.1 18.6,1.2 18.6,1.3" id="Shape"></path>
                <path d="M23.5,3.5 C23.5,4 23.4,4.5 23.3,4.9 C23.2,5.3 22.9,5.6 22.6,5.9 C22.3,6.1 21.8,6.3 21.2,6.3 C20.8,6.3 20.4,6.2 20.1,6.1 C19.8,6 19.6,5.8 19.4,5.5 C19.2,5.2 19.1,5 19,4.6 C18.9,4.3 18.9,3.9 18.9,3.5 C18.9,3.1 18.9,2.7 19,2.4 C19.1,2.1 19.2,1.8 19.4,1.5 C19.6,1.2 19.8,1.1 20.1,0.9 C20.4,0.8 20.8,0.7 21.2,0.7 C21.8,0.7 22.2,0.8 22.6,1.1 C22.9,1.3 23.2,1.7 23.3,2.1 C23.4,2.5 23.5,3 23.5,3.5 M22.2,3.5 C22.2,3.2 22.2,3 22.2,2.8 C22.2,2.6 22.1,2.4 22.1,2.3 C22,2 21.7,1.9 21.2,1.9 C20.7,1.9 20.4,2 20.3,2.3 C20.2,2.5 20.1,3 20.1,3.6 C20.1,4.2 20.2,4.6 20.3,4.9 C20.4,5.2 20.7,5.3 21.2,5.3 C21.7,5.3 22,5.2 22.1,4.9 C22.1,4.6 22.2,4.1 22.2,3.5" id="Shape"></path>
                <path d="M28.3,2.9 C28.3,3.4 28.3,3.8 28.3,4 C28.3,4.2 28.3,4.5 28.2,4.7 C28.1,5.1 28,5.4 27.8,5.6 C27.6,5.8 27.4,6 27.1,6.1 C26.8,6.2 26.5,6.2 26.1,6.2 C25.7,6.2 25.3,6.2 25.1,6.1 C24.8,6 24.6,5.9 24.4,5.6 C24.2,5.4 24.1,5.1 24,4.7 C24,4.5 24,4.4 23.9,4.2 C23.9,4 23.9,3.9 23.9,3.7 C23.9,3.5 23.9,3.2 23.9,2.8 L23.9,1.2 C23.9,1 23.9,0.9 24,0.9 C24.1,0.8 24.2,0.8 24.3,0.8 L24.6,0.8 C24.8,0.8 24.9,0.8 24.9,0.9 C24.9,1 25,1.1 25,1.2 L25,3.4 C25,3.7 25,3.9 25,4.1 C25,4.3 25,4.4 25.1,4.5 C25.1,4.6 25.2,4.7 25.2,4.8 C25.3,4.9 25.3,5 25.5,5 C25.6,5 25.8,5.1 26.1,5.1 C26.4,5.1 26.6,5.1 26.7,5 C26.8,4.9 26.9,4.9 27,4.8 C27.1,4.7 27.1,4.5 27.1,4.4 C27.1,4.2 27.1,3.9 27.1,3.5 L27.1,1.3 C27.1,1.1 27.1,1 27.2,1 C27.3,0.9 27.4,0.9 27.5,0.9 L27.8,0.9 C28.1,0.9 28.2,1 28.2,1.3 L28.2,2.9 L28.3,2.9 Z" id="Shape"></path>
                <path d="M32.8,1.5 C32.8,1.8 32.7,1.9 32.4,1.9 C32.1,1.9 31.7,1.9 31.3,1.9 L31.3,5.6 C31.3,5.9 31.2,6 30.9,6 L30.6,6 C30.4,6 30.3,6 30.3,5.9 C30.2,5.8 30.2,5.7 30.2,5.6 L30.2,2 C29.8,2 29.4,2 29.1,2 C28.9,2 28.8,2 28.8,1.9 C28.7,1.8 28.7,1.7 28.7,1.6 L28.7,1.4 C28.7,1.1 28.8,1 29.1,1 L32.5,1 C32.8,1 32.9,1.1 32.9,1.4 L32.9,1.5 L32.8,1.5 Z" id="Shape"></path>
                <path d="M37.2,5.7 C37.2,6 37.1,6.1 36.8,6.1 L36.5,6.1 C36.3,6.1 36.2,6.1 36.2,6 C36.1,5.9 36.1,5.8 36.1,5.7 L36.1,3.8 C35.9,3.8 35.6,3.8 35.2,3.8 L34.9,3.8 C34.8,3.8 34.7,3.8 34.6,3.8 C34.5,3.8 34.4,3.8 34.3,3.8 L34.3,5.7 C34.3,6 34.2,6.1 33.9,6.1 L33.6,6.1 C33.4,6.1 33.3,6.1 33.3,6 C33.2,5.9 33.2,5.8 33.2,5.7 L33.2,1.3 C33.2,1.1 33.2,1 33.3,1 C33.4,0.9 33.5,0.9 33.6,0.9 L33.9,0.9 C34.2,0.9 34.3,1 34.3,1.3 L34.3,2.8 C34.5,2.8 34.8,2.8 35.2,2.8 C35.6,2.8 35.9,2.8 36.1,2.8 L36.1,1.3 C36.1,1.1 36.1,1 36.2,1 C36.3,0.9 36.4,0.9 36.5,0.9 L36.8,0.9 C37.1,0.9 37.2,1 37.2,1.3 L37.2,5.7 L37.2,5.7 Z" id="Shape"></path>
                <path d="M44.1,3.6 C44.1,4 44.1,4.4 44,4.7 C43.9,5 43.8,5.3 43.6,5.6 C43.4,5.8 43.1,6 42.7,6.1 C42.5,6.1 42.4,6.2 42.2,6.2 C42,6.2 41.9,6.2 41.8,6.2 L40.4,6.2 C40.2,6.2 40.1,6.2 40.1,6.1 C40,6 40,5.9 40,5.8 L40,1.4 C40,1.2 40,1.1 40.1,1.1 C40.2,1 40.3,1 40.4,1 L41.8,1 C42.2,1 42.6,1 42.9,1.1 C43.2,1.2 43.4,1.3 43.6,1.5 C43.8,1.7 43.9,2 44,2.3 C44,2.6 44.1,3 44.1,3.6 L44.1,3.6 Z M42.8,3.4 C42.8,3 42.8,2.8 42.7,2.5 C42.6,2.3 42.5,2.2 42.3,2.1 C42.1,2 41.9,2 41.5,2 C41.3,2 41.1,2 41,2 L41,5.1 C41.1,5.1 41.2,5.1 41.5,5.1 C41.9,5.1 42.1,5.1 42.3,5 C42.5,4.9 42.6,4.8 42.6,4.6 C42.7,4.4 42.7,4.1 42.7,3.7 L42.7,3.4 L42.8,3.4 Z" id="Shape"></path>
                <path d="M47.9,5.7 C47.9,6 47.8,6.1 47.5,6.1 L45,6.1 C44.8,6.1 44.7,6.1 44.7,6 C44.6,5.9 44.6,5.8 44.6,5.7 L44.6,1.3 C44.6,1.1 44.6,1 44.7,1 C44.8,0.9 44.9,0.9 45,0.9 L47.4,0.9 C47.7,0.9 47.8,1 47.8,1.3 L47.8,1.5 C47.8,1.6 47.8,1.7 47.7,1.8 C47.6,1.9 47.5,1.9 47.4,1.9 C47.2,1.9 47,1.9 46.9,1.9 C46.8,1.9 46.6,1.9 46.5,1.9 C46.3,1.9 46.2,1.9 46.1,1.9 C46,1.9 45.9,1.9 45.8,1.9 L45.8,2.9 C46,2.9 46.2,2.9 46.4,2.9 C46.6,2.9 46.7,2.9 46.8,2.9 C46.9,2.9 47,2.9 47.3,2.9 C47.6,2.9 47.7,3 47.7,3.3 L47.7,3.4 C47.7,3.7 47.6,3.8 47.3,3.8 C47.1,3.8 46.9,3.8 46.6,3.8 C46.4,3.8 46.1,3.8 45.8,3.8 L45.8,5 C46,5 46.2,5 46.5,5 C46.7,5 46.9,5 47,5 C47.1,5 47.3,5 47.5,5 C47.7,5 47.8,5 47.8,5.1 C47.9,5.2 47.9,5.3 47.9,5.4 L47.9,5.7 L47.9,5.7 Z" id="Shape"></path>
                <path d="M52.9,1.2 C52.9,1.3 52.9,1.3 52.8,1.5 L51.2,5.8 C51.1,5.9 51.1,6 51,6.1 C50.9,6.2 50.8,6.2 50.6,6.2 L50.2,6.2 C50,6.2 49.9,6.2 49.9,6.1 C49.8,6 49.8,5.9 49.7,5.8 L48,1.5 C48,1.4 48,1.4 48,1.4 C48,1.3 48,1.2 48.1,1.2 C48.2,1.2 48.3,1.1 48.3,1.1 L48.8,1.1 C49,1.1 49.2,1.2 49.3,1.4 L50.5,4.6 L51.6,1.5 C51.6,1.4 51.7,1.3 51.8,1.2 C51.9,1.1 52,1.1 52.1,1.1 L52.5,1.1 C52.7,1.1 52.8,1.1 52.8,1.2 C52.9,1 52.9,1.1 52.9,1.2" id="Shape"></path>
                <path d="M56.6,5.7 C56.6,6 56.5,6.1 56.2,6.1 L53.8,6.1 C53.6,6.1 53.5,6.1 53.5,6 C53.4,5.9 53.4,5.8 53.4,5.7 L53.4,1.3 C53.4,1.1 53.4,1 53.5,1 C53.6,0.9 53.7,0.9 53.8,0.9 L56.2,0.9 C56.5,0.9 56.6,1 56.6,1.3 L56.6,1.5 C56.6,1.6 56.6,1.7 56.5,1.8 C56.4,1.9 56.3,1.9 56.2,1.9 C56,1.9 55.8,1.9 55.7,1.9 C55.6,1.9 55.4,1.9 55.3,1.9 C55.1,1.9 55,1.9 54.9,1.9 C54.8,1.9 54.7,1.9 54.6,1.9 L54.6,2.9 C54.8,2.9 55,2.9 55.2,2.9 C55.4,2.9 55.5,2.9 55.6,2.9 C55.7,2.9 55.8,2.9 56.1,2.9 C56.4,2.9 56.5,3 56.5,3.3 L56.5,3.4 C56.5,3.7 56.4,3.8 56.1,3.8 C55.9,3.8 55.7,3.8 55.4,3.8 C55.2,3.8 54.9,3.8 54.6,3.8 L54.6,5 C54.8,5 55,5 55.3,5 C55.5,5 55.7,5 55.8,5 C55.9,5 56.1,5 56.3,5 C56.5,5 56.6,5 56.6,5.1 C56.7,5.2 56.7,5.3 56.7,5.4 L56.7,5.7 L56.6,5.7 Z" id="Shape"></path>
                <path d="M60.2,5.7 C60.2,6 60.1,6.1 59.8,6.1 L57.6,6.1 C57.4,6.1 57.3,6.1 57.3,6 C57.2,5.9 57.2,5.8 57.2,5.7 L57.2,1.3 C57.2,1.1 57.2,1 57.3,1 C57.4,0.9 57.5,0.9 57.6,0.9 L57.9,0.9 C58.2,0.9 58.3,1 58.3,1.3 L58.3,5.1 C58.8,5.1 59.3,5.1 59.7,5.1 C60,5.1 60.1,5.2 60.1,5.5 L60.1,5.7 L60.2,5.7 Z" id="Shape"></path>
                <path d="M64.9,3.5 C64.9,4 64.8,4.5 64.7,4.9 C64.6,5.3 64.3,5.6 64,5.9 C63.7,6.1 63.2,6.3 62.6,6.3 C62.2,6.3 61.8,6.2 61.5,6.1 C61.2,6 61,5.8 60.8,5.5 C60.6,5.2 60.5,5 60.4,4.6 C60.3,4.3 60.3,3.9 60.3,3.5 C60.3,3.1 60.3,2.7 60.4,2.4 C60.5,2.1 60.6,1.8 60.8,1.5 C61,1.2 61.2,1.1 61.5,0.9 C61.8,0.8 62.2,0.7 62.6,0.7 C63.2,0.7 63.6,0.8 64,1.1 C64.3,1.3 64.6,1.7 64.7,2.1 C64.8,2.5 64.9,3 64.9,3.5 M63.6,3.5 C63.6,3.2 63.6,3 63.6,2.8 C63.6,2.6 63.5,2.4 63.5,2.3 C63.4,2 63.1,1.9 62.6,1.9 C62.1,1.9 61.8,2 61.7,2.3 C61.6,2.5 61.5,3 61.5,3.6 C61.5,4.2 61.6,4.6 61.7,4.9 C61.8,5.2 62.1,5.3 62.6,5.3 C63.1,5.3 63.4,5.2 63.5,4.9 C63.5,4.6 63.6,4.1 63.6,3.5" id="Shape"></path>
                <path d="M69.1,2.8 C69.1,3.2 69,3.5 68.9,3.8 C68.8,4.1 68.6,4.3 68.3,4.4 C68.1,4.5 68,4.5 67.8,4.5 C67.6,4.5 67.4,4.5 67.1,4.5 L66.5,4.5 L66.5,5.7 C66.5,6 66.4,6.1 66.1,6.1 L65.8,6.1 C65.6,6.1 65.5,6.1 65.5,6 C65.4,5.9 65.4,5.8 65.4,5.7 L65.4,1.3 C65.4,1.1 65.4,1 65.5,1 C65.6,0.9 65.7,0.9 65.8,0.9 L67.2,0.9 C67.6,0.9 67.9,0.9 68.1,1 C68.3,1 68.4,1.1 68.6,1.3 C68.7,1.4 68.9,1.6 68.9,1.9 C69.1,2.1 69.1,2.4 69.1,2.8 M67.9,2.8 L67.9,2.8 C67.9,2.3 67.8,2 67.7,2 C67.6,2 67.5,2 67.2,2 L67.1,2 C66.8,2 66.7,2 66.5,2 L66.5,3.5 L67.3,3.5 L67.3,3.5 C67.5,3.5 67.7,3.5 67.7,3.4 C67.9,3.3 67.9,3.1 67.9,2.8" id="Shape"></path>
                <path d="M75,5.7 C75,6 74.8,6.1 74.5,6.1 L74.2,6.1 C73.9,6.1 73.8,6 73.8,5.7 L73.6,3.1 C73.5,3.3 73.4,3.6 73.2,4.2 C73,4.7 72.9,5.1 72.8,5.2 C72.8,5.3 72.7,5.4 72.6,5.5 C72.5,5.6 72.4,5.6 72.3,5.6 L72.1,5.6 C72,5.6 71.9,5.6 71.9,5.6 C71.9,5.6 71.8,5.5 71.7,5.5 C71.7,5.4 71.6,5.4 71.6,5.3 C71.6,5.2 71.5,5.1 71.4,4.8 C71.3,4.5 71.2,4.2 71.1,3.9 C71,3.6 70.9,3.4 70.8,3.1 L70.6,5.7 C70.6,6 70.4,6.1 70.2,6.1 L69.9,6.1 C69.6,6.1 69.4,6 69.4,5.7 L69.4,5.6 L69.8,1.2 C69.8,1 69.9,0.9 69.9,0.9 C70,0.8 70.1,0.8 70.2,0.8 L70.6,0.8 C70.7,0.8 70.8,0.8 70.9,0.9 C71,0.9 71,1 71.1,1.1 C71.2,1.2 71.2,1.4 71.3,1.6 C71.4,1.8 71.5,2.1 71.6,2.3 C71.7,2.5 71.8,2.8 71.9,3 C72,3.2 72.1,3.5 72.2,3.8 C72.2,3.8 72.3,3.6 72.4,3.3 C72.5,3 72.6,2.8 72.7,2.5 C72.8,2.2 72.9,2 73,1.7 C73.1,1.5 73.2,1.2 73.3,1 C73.3,0.9 73.4,0.8 73.5,0.8 C73.6,0.8 73.7,0.7 73.8,0.7 L74.2,0.7 C74.3,0.7 74.4,0.7 74.5,0.8 C74.6,0.8 74.6,1 74.6,1.1 L75,5.7 L75,5.7 Z" id="Shape"></path>
                <path d="M78.8,5.7 C78.8,6 78.7,6.1 78.4,6.1 L76,6.1 C75.8,6.1 75.7,6.1 75.7,6 C75.6,5.9 75.6,5.8 75.6,5.7 L75.6,1.3 C75.6,1.1 75.6,1 75.7,1 C75.8,0.9 75.9,0.9 76,0.9 L78.4,0.9 C78.7,0.9 78.8,1 78.8,1.3 L78.8,1.5 C78.8,1.6 78.8,1.7 78.7,1.8 C78.6,1.9 78.5,1.9 78.4,1.9 C78.2,1.9 78,1.9 77.9,1.9 C77.8,1.9 77.6,1.9 77.5,1.9 C77.3,1.9 77.2,1.9 77.1,1.9 C77,1.9 76.9,1.9 76.8,1.9 L76.8,2.9 C77,2.9 77.2,2.9 77.4,2.9 C77.6,2.9 77.7,2.9 77.8,2.9 C77.9,2.9 78,2.9 78.3,2.9 C78.6,2.9 78.7,3 78.7,3.3 L78.7,3.4 C78.7,3.7 78.6,3.8 78.3,3.8 C78.1,3.8 77.9,3.8 77.6,3.8 C77.4,3.8 77.1,3.8 76.8,3.8 L76.8,5 C77,5 77.2,5 77.5,5 C77.7,5 77.9,5 78,5 C78.1,5 78.3,5 78.5,5 C78.7,5 78.8,5 78.8,5.1 C78.9,5.2 78.9,5.3 78.9,5.4 L78.9,5.7 L78.8,5.7 Z" id="Shape"></path>
                <path d="M83.7,5.7 C83.7,6 83.6,6.1 83.3,6.1 L83.1,6.1 C83,6.1 82.9,6.1 82.8,6.1 C82.7,6.1 82.7,6 82.6,5.9 C82.1,5.3 81.4,4.3 80.6,3.1 L80.6,5.7 C80.6,6 80.5,6.1 80.2,6.1 L79.9,6.1 C79.7,6.1 79.6,6.1 79.6,6 C79.5,5.9 79.5,5.8 79.5,5.7 L79.5,1.3 C79.5,1.1 79.5,1 79.6,1 C79.7,0.9 79.8,0.9 79.9,0.9 L80.1,0.9 C80.2,0.9 80.2,0.9 80.3,0.9 C80.3,0.9 80.4,0.9 80.4,1 C80.4,1 80.5,1.1 80.5,1.1 C80.8,1.4 81.4,2.4 82.6,3.9 L82.6,1.3 C82.6,1.1 82.6,1 82.7,1 C82.8,0.9 82.9,0.9 83,0.9 L83.3,0.9 C83.6,0.9 83.7,1 83.7,1.3 L83.7,5.7 L83.7,5.7 Z" id="Shape"></path>
                <path d="M88.2,1.5 C88.2,1.8 88.1,1.9 87.8,1.9 C87.5,1.9 87.1,1.9 86.7,1.9 L86.7,5.6 C86.7,5.9 86.6,6 86.3,6 L86,6 C85.8,6 85.7,6 85.7,5.9 C85.6,5.8 85.6,5.7 85.6,5.6 L85.6,2 C85.2,2 84.8,2 84.5,2 C84.3,2 84.2,2 84.2,1.9 C84.1,1.8 84.1,1.7 84.1,1.6 L84.1,1.4 C84.1,1.1 84.2,1 84.5,1 L87.9,1 C88.2,1 88.3,1.1 88.3,1.4 L88.3,1.5 L88.2,1.5 Z" id="Shape"></path>
                <path d="M3.2,11.2 C3.2,11.5 3.1,11.6 2.8,11.6 C2.5,11.6 2.4,11.6 2.3,11.6 C2.2,11.6 2.1,11.6 1.9,11.6 C1.7,11.6 1.5,11.6 1.3,11.6 L1.3,12.6 C1.8,12.6 2.3,12.6 2.7,12.6 C3,12.6 3.1,12.7 3.1,13 L3.1,13.1 C3.1,13.2 3.1,13.3 3,13.4 C2.9,13.5 2.8,13.5 2.7,13.5 C2.5,13.5 2.3,13.5 2.1,13.5 C1.9,13.5 1.6,13.5 1.4,13.5 L1.4,15.3 C1.4,15.6 1.3,15.7 1,15.7 L0.7,15.7 C0.5,15.7 0.4,15.7 0.4,15.6 C0.3,15.5 0.3,15.4 0.3,15.3 L0.3,11 C0.3,10.8 0.3,10.7 0.4,10.7 C0.5,10.6 0.6,10.6 0.7,10.6 L3,10.6 C3.3,10.6 3.4,10.7 3.4,11 L3.4,11.2 L3.2,11.2 Z" id="Shape"></path>
                <path d="M8,13.2 C8,13.7 7.9,14.2 7.8,14.6 C7.7,15 7.4,15.3 7.1,15.6 C6.8,15.8 6.3,16 5.7,16 C5.3,16 4.9,15.9 4.6,15.8 C4.3,15.7 4.1,15.5 3.9,15.2 C3.7,14.9 3.6,14.7 3.5,14.3 C3.4,14 3.4,13.6 3.4,13.2 C3.4,12.8 3.4,12.4 3.5,12.1 C3.6,11.8 3.7,11.5 3.9,11.2 C4.1,10.9 4.3,10.8 4.6,10.6 C4.9,10.5 5.3,10.4 5.7,10.4 C6.3,10.4 6.7,10.5 7.1,10.8 C7.4,11 7.7,11.4 7.8,11.8 C7.9,12.2 8,12.7 8,13.2 M6.7,13.2 C6.7,12.9 6.7,12.7 6.7,12.5 C6.7,12.3 6.6,12.1 6.6,12 C6.5,11.7 6.2,11.6 5.7,11.6 C5.2,11.6 4.9,11.7 4.8,12 C4.7,12.2 4.6,12.7 4.6,13.3 C4.6,13.9 4.7,14.3 4.8,14.6 C4.9,14.9 5.2,15 5.7,15 C6.2,15 6.5,14.9 6.6,14.6 C6.7,14.2 6.7,13.8 6.7,13.2" id="Shape"></path>
                <path d="M12.5,15.5 C12.5,15.7 12.4,15.8 12.1,15.8 L11.6,15.8 C11.5,15.8 11.4,15.8 11.3,15.8 C11.2,15.8 11.1,15.7 11.1,15.6 L9.8,14 L9.7,14 L9.7,15.4 C9.7,15.7 9.6,15.8 9.3,15.8 L9,15.8 C8.8,15.8 8.7,15.8 8.7,15.7 C8.6,15.6 8.6,15.5 8.6,15.4 L8.6,11 C8.6,10.8 8.6,10.7 8.7,10.7 C8.8,10.7 8.9,10.6 9,10.6 L10.4,10.6 C10.8,10.6 11.1,10.6 11.3,10.7 C11.5,10.7 11.6,10.8 11.8,11 C11.9,11.1 12.1,11.3 12.1,11.6 C12.2,11.8 12.2,12.1 12.2,12.5 C12.2,13.3 11.9,13.8 11.2,14 L12.3,15.3 C12.5,15.3 12.5,15.4 12.5,15.5 M11,12.4 L11,12.4 C11,12 10.9,11.7 10.8,11.7 C10.7,11.7 10.6,11.7 10.3,11.7 L10.3,11.7 C10,11.7 9.8,11.7 9.7,11.7 L9.7,13 L10.5,13 C10.7,13 10.8,13 10.8,13 C10.9,13 10.9,12.9 10.9,12.9 C11,12.7 11,12.5 11,12.4" id="Shape"></path>
                <path d="M18.6,15.4 C18.6,15.7 18.5,15.8 18.2,15.8 L17.9,15.8 C17.7,15.8 17.6,15.8 17.6,15.7 C17.5,15.6 17.5,15.5 17.5,15.4 L17.5,13.5 C17.3,13.5 17,13.5 16.6,13.5 L16.3,13.5 C16.2,13.5 16.1,13.5 16,13.5 C15.9,13.5 15.8,13.5 15.7,13.5 L15.7,15.4 C15.7,15.7 15.6,15.8 15.3,15.8 L15,15.8 C14.8,15.8 14.7,15.8 14.7,15.7 C14.6,15.6 14.6,15.5 14.6,15.4 L14.6,11 C14.6,10.8 14.6,10.7 14.7,10.7 C14.8,10.6 14.9,10.6 15,10.6 L15.3,10.6 C15.6,10.6 15.7,10.7 15.7,11 L15.7,12.5 C15.9,12.5 16.2,12.5 16.6,12.5 C17,12.5 17.3,12.5 17.5,12.5 L17.5,11 C17.5,10.8 17.5,10.7 17.6,10.7 C17.7,10.6 17.8,10.6 17.9,10.6 L18.2,10.6 C18.5,10.6 18.6,10.7 18.6,11 L18.6,15.4 L18.6,15.4 Z" id="Shape"></path>
                <path d="M22.6,15.4 C22.6,15.7 22.5,15.8 22.2,15.8 L19.8,15.8 C19.6,15.8 19.5,15.8 19.5,15.7 C19.4,15.6 19.4,15.5 19.4,15.4 L19.4,11 C19.4,10.8 19.4,10.7 19.5,10.7 C19.6,10.6 19.7,10.6 19.8,10.6 L22.2,10.6 C22.5,10.6 22.6,10.7 22.6,11 L22.6,11.2 C22.6,11.3 22.6,11.4 22.5,11.5 C22.4,11.6 22.3,11.6 22.2,11.6 C22,11.6 21.8,11.6 21.7,11.6 C21.6,11.6 21.4,11.6 21.3,11.6 C21.1,11.6 21,11.6 20.9,11.6 C20.8,11.6 20.7,11.6 20.6,11.6 L20.6,12.6 C20.8,12.6 21,12.6 21.2,12.6 C21.4,12.6 21.5,12.6 21.6,12.6 C21.7,12.6 21.8,12.6 22.1,12.6 C22.4,12.6 22.5,12.7 22.5,13 L22.5,13.1 C22.5,13.4 22.4,13.5 22.1,13.5 C21.9,13.5 21.7,13.5 21.4,13.5 C21.2,13.5 20.9,13.5 20.6,13.5 L20.6,14.7 C20.8,14.7 21,14.7 21.3,14.7 C21.5,14.7 21.7,14.7 21.8,14.7 C21.9,14.7 22.1,14.7 22.3,14.7 C22.5,14.7 22.6,14.7 22.6,14.8 C22.7,14.9 22.7,15 22.7,15.1 L22.7,15.4 L22.6,15.4 Z" id="Shape"></path>
                <path d="M27.7,15.5 C27.7,15.7 27.6,15.8 27.3,15.8 L26.9,15.8 C26.8,15.8 26.7,15.8 26.6,15.7 C26.5,15.6 26.5,15.6 26.4,15.5 L26.2,14.9 C26,14.9 25.6,14.9 25.3,14.9 C24.9,14.9 24.6,14.9 24.4,14.9 L24.2,15.5 C24.2,15.6 24.1,15.7 24,15.8 C23.9,15.9 23.8,15.9 23.7,15.9 L23.3,15.9 C23.1,15.9 23,15.9 23,15.8 C22.9,15.8 22.9,15.7 22.9,15.6 C22.9,15.6 22.9,15.5 23,15.3 L24.6,11 C24.6,10.9 24.7,10.8 24.7,10.8 C24.7,10.7 24.8,10.7 24.9,10.7 C25,10.7 25.1,10.7 25.2,10.7 L25.5,10.7 C25.7,10.7 25.8,10.7 25.9,10.8 C26,10.9 26,11 26.1,11.1 L27.8,15.5 C27.7,15.4 27.7,15.4 27.7,15.5 M25.9,13.9 L25.3,12.2 L24.7,13.9 C24.8,13.9 24.9,13.9 25,13.9 C25.1,13.9 25.2,13.9 25.3,13.9 C25.4,13.9 25.5,13.9 25.6,13.9 C25.7,13.9 25.8,13.9 25.9,13.9" id="Shape"></path>
                <path d="M31.2,15.4 C31.2,15.7 31.1,15.8 30.8,15.8 L28.6,15.8 C28.4,15.8 28.3,15.8 28.3,15.7 C28.2,15.6 28.2,15.5 28.2,15.4 L28.2,11 C28.2,10.8 28.2,10.7 28.3,10.7 C28.4,10.6 28.5,10.6 28.6,10.6 L28.9,10.6 C29.2,10.6 29.3,10.7 29.3,11 L29.3,14.8 C29.8,14.8 30.3,14.8 30.7,14.8 C31,14.8 31.1,14.9 31.1,15.2 L31.1,15.4 L31.2,15.4 Z" id="Shape"></path>
                <path d="M34.7,11.2 C34.7,11.5 34.6,11.6 34.3,11.6 C34,11.6 33.6,11.6 33.2,11.6 L33.2,15.3 C33.2,15.6 33.1,15.7 32.8,15.7 L32.5,15.7 C32.3,15.7 32.2,15.7 32.2,15.6 C32.1,15.5 32.1,15.4 32.1,15.3 L32.1,11.6 C31.7,11.6 31.3,11.6 31,11.6 C30.8,11.6 30.7,11.6 30.7,11.5 C30.6,11.4 30.6,11.3 30.6,11.2 L30.6,11 C30.6,10.7 30.7,10.6 31,10.6 L34.4,10.6 C34.7,10.6 34.8,10.7 34.8,11 L34.8,11.2 L34.7,11.2 Z" id="Shape"></path>
                <path d="M39.1,15.4 C39.1,15.7 39,15.8 38.7,15.8 L38.4,15.8 C38.2,15.8 38.1,15.8 38.1,15.7 C38,15.6 38,15.5 38,15.4 L38,13.5 C37.8,13.5 37.5,13.5 37.1,13.5 L36.8,13.5 C36.7,13.5 36.6,13.5 36.5,13.5 C36.4,13.5 36.3,13.5 36.2,13.5 L36.2,15.4 C36.2,15.7 36.1,15.8 35.8,15.8 L35.5,15.8 C35.3,15.8 35.2,15.8 35.2,15.7 C35.1,15.6 35.1,15.5 35.1,15.4 L35.1,11 C35.1,10.8 35.1,10.7 35.2,10.7 C35.3,10.6 35.4,10.6 35.5,10.6 L35.8,10.6 C36.1,10.6 36.2,10.7 36.2,11 L36.2,12.5 C36.4,12.5 36.7,12.5 37.1,12.5 C37.5,12.5 37.8,12.5 38,12.5 L38,11 C38,10.8 38,10.7 38.1,10.7 C38.2,10.6 38.3,10.6 38.4,10.6 L38.7,10.6 C39,10.6 39.1,10.7 39.1,11 L39.1,15.4 L39.1,15.4 Z" id="Shape"></path>
                <path d="M43.9,10.9 C43.9,11 43.9,11.1 43.8,11.2 L42.3,13.8 L42.3,15.4 C42.3,15.7 42.2,15.8 41.9,15.8 L41.6,15.8 C41.4,15.8 41.3,15.8 41.3,15.7 C41.2,15.6 41.2,15.5 41.2,15.4 L41.2,13.9 L39.6,11.3 C39.5,11.2 39.5,11.1 39.5,11 C39.5,10.9 39.5,10.8 39.6,10.7 C39.7,10.7 39.8,10.6 39.9,10.6 L40.3,10.6 C40.4,10.6 40.5,10.6 40.6,10.7 C40.7,10.7 40.7,10.8 40.8,10.9 L41.8,12.6 L42.8,10.9 C42.9,10.8 42.9,10.7 43,10.7 C43.1,10.7 43.2,10.6 43.3,10.6 L43.6,10.6 C43.7,10.6 43.8,10.6 43.9,10.7 C43.9,10.7 43.9,10.8 43.9,10.9" id="Shape"></path>
                <path d="M49.3,15.4 C49.3,15.7 49.2,15.8 48.9,15.8 L46.7,15.8 C46.5,15.8 46.4,15.8 46.4,15.7 C46.3,15.6 46.3,15.5 46.3,15.4 L46.3,11 C46.3,10.8 46.3,10.7 46.4,10.7 C46.5,10.6 46.6,10.6 46.7,10.6 L47,10.6 C47.3,10.6 47.4,10.7 47.4,11 L47.4,14.8 C47.9,14.8 48.4,14.8 48.8,14.8 C49.1,14.8 49.2,14.9 49.2,15.2 L49.2,15.4 L49.3,15.4 Z" id="Shape"></path>
                <path d="M51.1,15.4 C51.1,15.7 51,15.8 50.7,15.8 L50.4,15.8 C50.2,15.8 50.1,15.8 50.1,15.7 C50,15.6 50,15.5 50,15.4 L50,11 C50,10.8 50,10.7 50.1,10.7 C50.2,10.6 50.3,10.6 50.4,10.6 L50.7,10.6 C51,10.6 51.1,10.7 51.1,11 L51.1,15.4 Z" id="Shape"></path>
                <path d="M56.3,10.9 C56.3,11 56.3,11 56.2,11.2 L54.6,15.5 C54.5,15.6 54.5,15.7 54.4,15.8 C54.3,15.9 54.2,15.9 54,15.9 L53.6,15.9 C53.4,15.9 53.3,15.9 53.3,15.8 C53.2,15.7 53.2,15.6 53.1,15.5 L51.4,11.2 C51.4,11.1 51.4,11.1 51.4,11.1 C51.4,11 51.4,10.9 51.5,10.9 C51.6,10.9 51.7,10.8 51.8,10.8 L52.3,10.8 C52.5,10.8 52.7,10.9 52.8,11.1 L54,14.3 L55.1,11.2 C55.1,11.1 55.2,11 55.3,10.9 C55.4,10.8 55.5,10.8 55.6,10.8 L56,10.8 C56.2,10.8 56.3,10.8 56.3,10.9 C56.2,10.7 56.3,10.8 56.3,10.9" id="Shape"></path>
                <path d="M57.8,15.4 C57.8,15.7 57.7,15.8 57.4,15.8 L57.1,15.8 C56.9,15.8 56.8,15.8 56.8,15.7 C56.7,15.6 56.7,15.5 56.7,15.4 L56.7,11 C56.7,10.8 56.7,10.7 56.8,10.7 C56.9,10.6 57,10.6 57.1,10.6 L57.4,10.6 C57.7,10.6 57.8,10.7 57.8,11 L57.8,15.4 Z" id="Shape"></path>
                <path d="M62.9,15.4 C62.9,15.7 62.8,15.8 62.5,15.8 L62.3,15.8 C62.2,15.8 62.1,15.8 62,15.8 C61.9,15.8 61.9,15.7 61.8,15.6 C61.3,15 60.6,14 59.8,12.8 L59.8,15.4 C59.8,15.7 59.7,15.8 59.4,15.8 L59,15.8 C58.8,15.8 58.7,15.8 58.7,15.7 C58.6,15.6 58.6,15.5 58.6,15.4 L58.6,11 C58.6,10.8 58.6,10.7 58.7,10.7 C58.8,10.6 58.9,10.6 59,10.6 L59.2,10.6 C59.3,10.6 59.3,10.6 59.4,10.6 C59.4,10.6 59.5,10.6 59.5,10.7 C59.5,10.7 59.6,10.8 59.6,10.8 C59.9,11.1 60.6,12.1 61.7,13.6 L61.7,11 C61.7,10.8 61.7,10.7 61.8,10.7 C61.9,10.6 62,10.6 62.1,10.6 L62.4,10.6 C62.7,10.6 62.8,10.7 62.8,11 L62.8,15.4 L62.9,15.4 Z" id="Shape"></path>
                <path d="M67.4,15.3 C67.4,15.4 67.4,15.5 67.3,15.6 C67.2,15.7 67.1,15.7 67,15.8 C66.7,15.9 66.2,15.9 65.7,15.9 C65.2,15.9 64.9,15.8 64.5,15.7 C64.2,15.6 64,15.4 63.8,15.2 C63.6,15 63.5,14.7 63.4,14.4 C63.3,14.1 63.3,13.7 63.3,13.2 C63.3,12.5 63.4,11.9 63.6,11.5 C63.8,11.1 64,10.8 64.3,10.7 C64.6,10.6 65.1,10.5 65.6,10.5 C65.8,10.5 66,10.5 66.2,10.5 C66.4,10.5 66.6,10.5 66.8,10.5 C67,10.5 67.1,10.5 67.2,10.6 C67.3,10.7 67.3,10.7 67.3,10.8 L67.3,11.1 C67.3,11.3 67.3,11.4 67.2,11.5 C67.1,11.6 67,11.6 66.9,11.6 C66.8,11.6 66.7,11.6 66.5,11.6 C66.3,11.6 66.1,11.6 65.8,11.6 C65.4,11.6 65.1,11.6 65,11.7 C64.9,11.8 64.8,11.9 64.7,12 C64.6,12.1 64.6,12.3 64.6,12.5 C64.6,12.7 64.6,12.9 64.6,13.2 L64.6,13.3 C64.6,13.6 64.6,13.9 64.6,14.1 C64.6,14.3 64.7,14.5 64.8,14.6 C64.9,14.7 65,14.8 65.2,14.9 C65.3,14.9 65.5,14.9 65.8,14.9 C65.8,14.9 65.9,14.9 66.1,14.9 L66.1,13.7 L65.5,13.7 C65.3,13.7 65.2,13.7 65.2,13.6 C65.1,13.5 65.1,13.4 65.1,13.3 L65.1,13 C65.1,12.9 65.1,12.8 65.2,12.7 C65.3,12.6 65.4,12.6 65.5,12.6 L66.9,12.6 C67.2,12.6 67.3,12.7 67.3,13 L67.3,15.3 L67.4,15.3 Z" id="Shape"></path>
                <path d="M3.2,20.8 C3.2,21.1 3.1,21.2 2.8,21.2 C2.5,21.2 2.4,21.2 2.3,21.2 C2.2,21.2 2.1,21.2 1.9,21.2 C1.7,21.2 1.5,21.2 1.3,21.2 L1.3,22.2 C1.8,22.2 2.3,22.2 2.7,22.2 C3,22.2 3.1,22.3 3.1,22.6 L3.1,22.7 C3.1,22.8 3.1,22.9 3,23 C2.9,23.1 2.8,23.1 2.7,23.1 C2.5,23.1 2.3,23.1 2.1,23.1 C1.9,23.1 1.6,23.1 1.4,23.1 L1.4,24.9 C1.4,25.2 1.3,25.3 1,25.3 L0.7,25.3 C0.5,25.3 0.4,25.3 0.4,25.2 C0.3,25.1 0.3,25 0.3,24.9 L0.3,20.5 C0.3,20.3 0.3,20.2 0.4,20.2 C0.5,20.1 0.6,20.1 0.7,20.1 L3,20.1 C3.3,20.1 3.4,20.2 3.4,20.5 L3.4,20.8 L3.2,20.8 Z" id="Shape"></path>
                <path d="M8,22.8 C8,23.3 7.9,23.8 7.8,24.2 C7.7,24.6 7.4,24.9 7.1,25.2 C6.8,25.4 6.3,25.6 5.7,25.6 C5.3,25.6 4.9,25.5 4.6,25.4 C4.3,25.3 4.1,25.1 3.9,24.8 C3.7,24.5 3.6,24.3 3.5,23.9 C3.4,23.6 3.4,23.2 3.4,22.8 C3.4,22.4 3.4,22 3.5,21.7 C3.6,21.4 3.7,21.1 3.9,20.8 C4.1,20.5 4.3,20.4 4.6,20.2 C4.9,20.1 5.3,20 5.7,20 C6.3,20 6.7,20.1 7.1,20.4 C7.4,20.6 7.7,21 7.8,21.4 C7.9,21.8 8,22.3 8,22.8 M6.7,22.8 C6.7,22.5 6.7,22.3 6.7,22.1 C6.7,21.9 6.6,21.7 6.6,21.6 C6.5,21.3 6.2,21.2 5.7,21.2 C5.2,21.2 4.9,21.3 4.8,21.6 C4.7,21.8 4.6,22.3 4.6,22.9 C4.6,23.5 4.7,23.9 4.8,24.2 C4.9,24.5 5.2,24.6 5.7,24.6 C6.2,24.6 6.5,24.5 6.6,24.2 C6.7,23.9 6.7,23.5 6.7,22.8" id="Shape"></path>
                <path d="M12.5,25.1 C12.5,25.3 12.4,25.4 12.1,25.4 L11.6,25.4 C11.5,25.4 11.4,25.4 11.3,25.4 C11.2,25.4 11.1,25.3 11.1,25.2 L9.8,23.6 L9.7,23.6 L9.7,25 C9.7,25.3 9.6,25.4 9.3,25.4 L9,25.4 C8.8,25.4 8.7,25.4 8.7,25.3 C8.6,25.2 8.6,25.1 8.6,25 L8.6,20.6 C8.6,20.4 8.6,20.3 8.7,20.3 C8.8,20.3 8.9,20.2 9,20.2 L10.4,20.2 C10.8,20.2 11.1,20.2 11.3,20.3 C11.5,20.3 11.6,20.4 11.8,20.6 C11.9,20.7 12.1,20.9 12.1,21.2 C12.2,21.4 12.2,21.7 12.2,22.1 C12.2,22.9 11.9,23.4 11.2,23.6 L12.3,24.9 C12.5,24.9 12.5,25 12.5,25.1 M11,22 L11,22 C11,21.6 10.9,21.3 10.8,21.3 C10.7,21.3 10.6,21.3 10.3,21.3 L10.3,21.3 C10,21.3 9.8,21.3 9.7,21.3 L9.7,22.6 L10.5,22.6 C10.7,22.6 10.8,22.6 10.8,22.6 C10.9,22.6 10.9,22.5 10.9,22.5 C11,22.3 11,22.2 11,22" id="Shape"></path>
                <path d="M17.8,23.8 C17.8,24.3 17.7,24.7 17.6,24.9 C17.5,25.1 17.4,25.2 17.2,25.3 C17,25.4 16.8,25.5 16.6,25.5 C16.4,25.5 16.2,25.5 15.9,25.5 C15.5,25.5 15.1,25.5 14.7,25.4 C14.5,25.4 14.4,25.3 14.3,25.3 C14.2,25.2 14.2,25.2 14.2,25.1 L14.2,24.8 C14.2,24.6 14.2,24.5 14.3,24.4 C14.4,24.3 14.5,24.3 14.6,24.3 C14.7,24.3 14.9,24.3 15.1,24.3 C15.3,24.3 15.6,24.3 16,24.3 C16.2,24.3 16.3,24.3 16.4,24.3 C16.5,24.3 16.5,24.3 16.5,24.2 C16.5,24.1 16.5,24.1 16.5,23.9 L16.5,23.7 C16.5,23.6 16.5,23.5 16.5,23.5 C16.5,23.5 16.4,23.4 16.3,23.4 C16,23.3 15.7,23.2 15.3,23 C15,22.9 14.8,22.8 14.6,22.7 C14.5,22.6 14.4,22.5 14.3,22.3 C14.2,22.1 14.2,21.9 14.2,21.6 C14.2,21.3 14.2,21.1 14.3,20.9 C14.4,20.7 14.5,20.6 14.6,20.4 C14.8,20.3 15,20.2 15.3,20.2 C15.4,20.2 15.7,20.2 16.1,20.2 L16.2,20.2 C16.4,20.2 16.7,20.2 17.1,20.2 C17.3,20.2 17.4,20.2 17.5,20.3 C17.6,20.4 17.6,20.4 17.6,20.5 L17.6,20.8 C17.6,21 17.6,21.1 17.5,21.2 C17.4,21.3 17.3,21.3 17.2,21.3 C17.2,21.3 17,21.3 16.8,21.3 C16.6,21.3 16.4,21.3 16.3,21.3 C16.2,21.3 16.1,21.3 16,21.3 C15.9,21.3 15.8,21.3 15.7,21.3 C15.6,21.3 15.5,21.3 15.4,21.4 C15.3,21.5 15.3,21.5 15.3,21.7 L15.3,21.8 C15.3,21.9 15.3,22 15.3,22 C15.3,22 15.4,22.1 15.5,22.1 C15.6,22.1 15.7,22.2 15.9,22.2 C16.1,22.3 16.1,22.3 16.2,22.3 C16.6,22.5 16.9,22.6 17.1,22.7 C17.3,22.8 17.4,22.9 17.5,23.1 C17.8,23.3 17.8,23.5 17.8,23.8" id="Shape"></path>
                <path d="M22.9,22.8 C22.9,23.3 22.8,23.8 22.7,24.2 C22.6,24.6 22.3,24.9 22,25.2 C21.7,25.4 21.2,25.6 20.6,25.6 C20.2,25.6 19.8,25.5 19.5,25.4 C19.2,25.3 19,25.1 18.8,24.8 C18.6,24.5 18.5,24.3 18.4,23.9 C18.3,23.6 18.3,23.2 18.3,22.8 C18.3,22.4 18.3,22 18.4,21.7 C18.5,21.4 18.6,21.1 18.8,20.8 C19,20.5 19.2,20.4 19.5,20.2 C19.8,20.1 20.2,20 20.6,20 C21.2,20 21.6,20.1 22,20.4 C22.3,20.6 22.6,21 22.7,21.4 C22.8,21.8 22.9,22.3 22.9,22.8 M21.6,22.8 C21.6,22.5 21.6,22.3 21.6,22.1 C21.6,21.9 21.5,21.7 21.5,21.6 C21.4,21.3 21.1,21.2 20.6,21.2 C20.1,21.2 19.8,21.3 19.7,21.6 C19.6,21.8 19.5,22.3 19.5,22.9 C19.5,23.5 19.6,23.9 19.7,24.2 C19.8,24.5 20.1,24.6 20.6,24.6 C21.1,24.6 21.4,24.5 21.5,24.2 C21.5,23.9 21.6,23.5 21.6,22.8" id="Shape"></path>
                <path d="M27,25.1 C27,25.2 27,25.3 26.9,25.3 C26.8,25.4 26.7,25.4 26.5,25.4 C26.2,25.4 25.9,25.4 25.6,25.4 C25.1,25.4 24.8,25.3 24.4,25.2 C24.1,25.1 23.9,24.9 23.7,24.7 C23.5,24.5 23.4,24.2 23.3,23.9 C23.2,23.6 23.2,23.2 23.2,22.7 C23.2,22 23.3,21.4 23.4,21 C23.6,20.6 23.8,20.3 24.1,20.2 C24.4,20.1 24.9,20 25.4,20 C25.6,20 25.9,20 26.3,20 C26.5,20 26.6,20 26.7,20.1 C26.8,20.2 26.8,20.2 26.8,20.3 L26.8,20.6 C26.8,20.8 26.8,20.9 26.7,21 C26.6,21.1 26.5,21.1 26.4,21.1 C26.4,21.1 26.2,21.1 26,21.1 C25.8,21.1 25.6,21.1 25.5,21.1 C25.1,21.1 24.8,21.1 24.7,21.2 C24.6,21.3 24.5,21.4 24.4,21.5 C24.3,21.6 24.3,21.8 24.3,22 C24.3,22.2 24.3,22.4 24.3,22.7 L24.3,22.8 C24.3,23.1 24.3,23.4 24.3,23.6 C24.3,23.8 24.4,24 24.5,24.1 C24.6,24.2 24.7,24.3 24.9,24.4 C25,24.4 25.2,24.4 25.5,24.4 C25.6,24.4 25.7,24.4 25.9,24.4 C26.1,24.4 26.3,24.4 26.4,24.4 C26.6,24.4 26.7,24.4 26.7,24.5 C26.8,24.6 26.8,24.7 26.8,24.9 L26.8,25.1 L27,25.1 Z" id="Shape"></path>
                <path d="M28.6,25 C28.6,25.3 28.5,25.4 28.2,25.4 L27.9,25.4 C27.7,25.4 27.6,25.4 27.6,25.3 C27.5,25.2 27.5,25.1 27.5,25 L27.5,20.6 C27.5,20.4 27.5,20.3 27.6,20.3 C27.7,20.2 27.8,20.2 27.9,20.2 L28.2,20.2 C28.5,20.2 28.6,20.3 28.6,20.6 L28.6,25 Z" id="Shape"></path>
                <path d="M33.9,25.1 C33.9,25.3 33.8,25.4 33.5,25.4 L33.1,25.4 C33,25.4 32.9,25.4 32.8,25.3 C32.7,25.2 32.7,25.2 32.6,25.1 L32.4,24.5 C32.2,24.5 31.8,24.5 31.5,24.5 C31.1,24.5 30.8,24.5 30.6,24.5 L30.4,25.1 C30.4,25.2 30.3,25.3 30.2,25.4 C30.1,25.5 30,25.5 29.9,25.5 L29.5,25.5 C29.3,25.5 29.2,25.5 29.2,25.4 C29.1,25.4 29.1,25.3 29.1,25.2 C29.1,25.2 29.1,25.1 29.2,24.9 L30.8,20.6 C30.8,20.5 30.9,20.4 30.9,20.4 C30.9,20.3 31,20.3 31.1,20.3 C31.2,20.3 31.3,20.3 31.4,20.3 L31.7,20.3 C31.9,20.3 32,20.3 32.1,20.4 C32.2,20.5 32.2,20.6 32.3,20.7 L34,25.1 C33.9,25 33.9,25.1 33.9,25.1 M32.1,23.6 L31.5,21.9 L30.9,23.6 C31,23.6 31.1,23.6 31.2,23.6 C31.3,23.6 31.4,23.6 31.5,23.6 C31.6,23.6 31.7,23.6 31.8,23.6 C31.9,23.6 32,23.6 32.1,23.6" id="Shape"></path>
                <path d="M37.5,25 C37.5,25.3 37.4,25.4 37.1,25.4 L34.9,25.4 C34.7,25.4 34.6,25.4 34.6,25.3 C34.5,25.2 34.5,25.1 34.5,25 L34.5,20.6 C34.5,20.4 34.5,20.3 34.6,20.3 C34.7,20.2 34.8,20.2 34.9,20.2 L35.2,20.2 C35.5,20.2 35.6,20.3 35.6,20.6 L35.6,24.4 C36.1,24.4 36.6,24.4 37,24.4 C37.3,24.4 37.4,24.5 37.4,24.8 L37.4,25 L37.5,25 Z" id="Shape"></path>
                <path d="M43.7,25.1 C43.7,25.3 43.6,25.4 43.3,25.4 L42.8,25.4 C42.7,25.4 42.6,25.4 42.5,25.4 C42.4,25.4 42.3,25.3 42.3,25.2 L41,23.6 L40.9,23.6 L40.9,25 C40.9,25.3 40.8,25.4 40.5,25.4 L40.2,25.4 C40,25.4 39.9,25.4 39.9,25.3 C39.8,25.2 39.8,25.1 39.8,25 L39.8,20.6 C39.8,20.4 39.8,20.3 39.9,20.3 C40,20.3 40.1,20.2 40.2,20.2 L41.6,20.2 C42,20.2 42.3,20.2 42.5,20.3 C42.7,20.3 42.8,20.4 43,20.6 C43.1,20.7 43.3,20.9 43.3,21.2 C43.4,21.4 43.4,21.7 43.4,22.1 C43.4,22.9 43.1,23.4 42.4,23.6 L43.5,24.9 C43.6,24.9 43.7,25 43.7,25.1 M42.2,22 L42.2,22 C42.2,21.6 42.1,21.3 42,21.3 C41.9,21.3 41.8,21.3 41.5,21.3 L41.5,21.3 C41.2,21.3 41,21.3 40.9,21.3 L40.9,22.6 L41.7,22.6 C41.9,22.6 42,22.6 42,22.6 C42.1,22.6 42.1,22.5 42.1,22.5 C42.2,22.3 42.2,22.2 42.2,22" id="Shape"></path>
                <path d="M47.4,25 C47.4,25.3 47.3,25.4 47,25.4 L44.6,25.4 C44.4,25.4 44.3,25.4 44.3,25.3 C44.2,25.2 44.2,25.1 44.2,25 L44.2,20.6 C44.2,20.4 44.2,20.3 44.3,20.3 C44.4,20.2 44.5,20.2 44.6,20.2 L47,20.2 C47.3,20.2 47.4,20.3 47.4,20.6 L47.4,20.8 C47.4,20.9 47.4,21 47.3,21.1 C47.2,21.2 47.1,21.2 47,21.2 C46.8,21.2 46.6,21.2 46.5,21.2 C46.4,21.2 46.2,21.2 46.1,21.2 C45.9,21.2 45.8,21.2 45.7,21.2 C45.6,21.2 45.5,21.2 45.4,21.2 L45.4,22.2 C45.6,22.2 45.8,22.2 46,22.2 C46.2,22.2 46.3,22.2 46.4,22.2 C46.5,22.2 46.6,22.2 46.9,22.2 C47.2,22.2 47.3,22.3 47.3,22.6 L47.3,22.7 C47.3,23 47.2,23.1 46.9,23.1 C46.7,23.1 46.5,23.1 46.2,23.1 C46,23.1 45.7,23.1 45.4,23.1 L45.4,24.3 C45.6,24.3 45.8,24.3 46.1,24.3 C46.3,24.3 46.5,24.3 46.6,24.3 C46.7,24.3 46.9,24.3 47.1,24.3 C47.3,24.3 47.4,24.3 47.4,24.4 C47.5,24.5 47.5,24.6 47.5,24.7 L47.5,25 L47.4,25 Z" id="Shape"></path>
                <path d="M51.3,23.8 C51.3,24.3 51.2,24.7 51.1,24.9 C51,25.1 50.9,25.2 50.7,25.3 C50.5,25.4 50.3,25.5 50.1,25.5 C49.9,25.5 49.7,25.5 49.4,25.5 C49,25.5 48.6,25.5 48.2,25.4 C48,25.4 47.9,25.3 47.8,25.3 C47.7,25.2 47.7,25.2 47.7,25.1 L47.7,24.8 C47.7,24.6 47.7,24.5 47.8,24.4 C47.9,24.3 48,24.3 48.1,24.3 C48.2,24.3 48.4,24.3 48.6,24.3 C48.8,24.3 49.1,24.3 49.5,24.3 C49.7,24.3 49.8,24.3 49.9,24.3 C50,24.3 50,24.3 50,24.2 C50,24.1 50,24.1 50,23.9 L50,23.7 C50,23.6 50,23.5 50,23.5 C50,23.5 49.9,23.4 49.8,23.4 C49.5,23.3 49.2,23.2 48.8,23 C48.5,22.9 48.3,22.8 48.1,22.7 C48,22.6 47.9,22.5 47.8,22.3 C47.7,22.1 47.7,21.9 47.7,21.6 C47.7,21.3 47.7,21.1 47.8,20.9 C47.9,20.7 48,20.6 48.1,20.4 C48.3,20.3 48.5,20.2 48.8,20.2 C48.9,20.2 49.2,20.2 49.6,20.2 L49.7,20.2 C49.9,20.2 50.2,20.2 50.6,20.2 C50.8,20.2 50.9,20.2 51,20.3 C51.1,20.4 51.1,20.4 51.1,20.5 L51.1,20.8 C51.1,21 51.1,21.1 51,21.2 C50.9,21.3 50.8,21.3 50.7,21.3 C50.7,21.3 50.5,21.3 50.3,21.3 C50.1,21.3 49.9,21.3 49.8,21.3 C49.7,21.3 49.6,21.3 49.5,21.3 C49.4,21.3 49.3,21.3 49.2,21.3 C49.1,21.3 49,21.3 48.9,21.4 C48.9,21.5 48.8,21.5 48.8,21.7 L48.8,21.8 C48.8,21.9 48.8,22 48.8,22 C48.8,22 48.9,22.1 49,22.1 C49.1,22.1 49.2,22.2 49.4,22.2 C49.6,22.3 49.6,22.3 49.7,22.3 C50.1,22.5 50.4,22.6 50.6,22.7 C50.8,22.8 50.9,22.9 51,23.1 C51.3,23.3 51.3,23.5 51.3,23.8" id="Shape"></path>
                <path d="M55.6,22.1 C55.6,22.5 55.5,22.8 55.4,23.1 C55.3,23.4 55.1,23.6 54.8,23.7 C54.6,23.8 54.5,23.8 54.3,23.8 C54.1,23.8 53.9,23.8 53.6,23.8 L53,23.8 L53,25 C53,25.3 52.9,25.4 52.6,25.4 L52.3,25.4 C52.1,25.4 52,25.4 52,25.3 C51.9,25.2 51.9,25.1 51.9,25 L51.9,20.6 C51.9,20.4 51.9,20.3 52,20.3 C52.1,20.2 52.2,20.2 52.3,20.2 L53.7,20.2 C54.1,20.2 54.4,20.2 54.6,20.3 C54.8,20.3 54.9,20.4 55.1,20.6 C55.3,20.7 55.4,20.9 55.4,21.2 C55.5,21.5 55.6,21.8 55.6,22.1 M54.4,22.1 L54.4,22.1 C54.4,21.6 54.3,21.3 54.2,21.3 C54.1,21.3 54,21.3 53.7,21.3 L53.6,21.3 C53.3,21.3 53.2,21.3 53,21.3 L53,22.8 L53.8,22.8 L53.8,22.8 C54,22.8 54.2,22.8 54.2,22.7 C54.3,22.6 54.4,22.4 54.4,22.1" id="Shape"></path>
                <path d="M60.5,22.8 C60.5,23.3 60.4,23.8 60.3,24.2 C60.2,24.6 59.9,24.9 59.6,25.2 C59.3,25.4 58.8,25.6 58.2,25.6 C57.8,25.6 57.4,25.5 57.1,25.4 C56.8,25.3 56.6,25.1 56.4,24.8 C56.2,24.5 56.1,24.3 56,23.9 C55.9,23.6 55.9,23.2 55.9,22.8 C55.9,22.4 55.9,22 56,21.7 C56.1,21.4 56.2,21.1 56.4,20.8 C56.6,20.5 56.8,20.4 57.1,20.2 C57.4,20.1 57.8,20 58.2,20 C58.8,20 59.2,20.1 59.6,20.4 C59.9,20.6 60.2,21 60.3,21.4 C60.5,21.8 60.5,22.3 60.5,22.8 M59.3,22.8 C59.3,22.5 59.3,22.3 59.3,22.1 C59.3,21.9 59.2,21.7 59.2,21.6 C59.1,21.3 58.8,21.2 58.3,21.2 C57.8,21.2 57.5,21.3 57.4,21.6 C57.3,21.8 57.2,22.3 57.2,22.9 C57.2,23.5 57.3,23.9 57.4,24.2 C57.5,24.5 57.8,24.6 58.3,24.6 C58.8,24.6 59.1,24.5 59.2,24.2 C59.2,23.9 59.3,23.5 59.3,22.8" id="Shape"></path>
                <path d="M65.5,25 C65.5,25.3 65.4,25.4 65.1,25.4 L64.9,25.4 C64.8,25.4 64.7,25.4 64.6,25.4 C64.5,25.4 64.5,25.3 64.4,25.2 C63.9,24.6 63.2,23.6 62.4,22.4 L62.4,25 C62.4,25.3 62.3,25.4 62,25.4 L61.7,25.4 C61.5,25.4 61.4,25.4 61.4,25.3 C61.3,25.2 61.3,25.1 61.3,25 L61.3,20.6 C61.3,20.4 61.3,20.3 61.4,20.3 C61.5,20.2 61.6,20.2 61.7,20.2 L61.9,20.2 C62,20.2 62,20.2 62.1,20.2 C62.1,20.2 62.2,20.2 62.2,20.3 C62.2,20.3 62.3,20.4 62.3,20.4 C62.6,20.7 63.2,21.7 64.4,23.2 L64.4,20.6 C64.4,20.4 64.4,20.3 64.5,20.3 C64.6,20.2 64.7,20.2 64.8,20.2 L65.1,20.2 C65.4,20.2 65.5,20.3 65.5,20.6 L65.5,25 L65.5,25 Z" id="Shape"></path>
                <path d="M69.5,23.8 C69.5,24.3 69.4,24.7 69.3,24.9 C69.2,25.1 69.1,25.2 68.9,25.3 C68.7,25.4 68.5,25.5 68.3,25.5 C68.1,25.5 67.9,25.5 67.6,25.5 C67.2,25.5 66.8,25.5 66.4,25.4 C66.2,25.4 66.1,25.3 66,25.3 C65.9,25.2 65.9,25.2 65.9,25.1 L65.9,24.8 C65.9,24.6 65.9,24.5 66,24.4 C66.1,24.3 66.2,24.3 66.3,24.3 C66.4,24.3 66.6,24.3 66.8,24.3 C67,24.3 67.3,24.3 67.7,24.3 C67.9,24.3 68,24.3 68.1,24.3 C68.2,24.3 68.2,24.3 68.2,24.2 C68.2,24.1 68.2,24.1 68.2,23.9 L68.2,23.7 C68.2,23.6 68.2,23.5 68.2,23.5 C68.2,23.5 68.1,23.4 68,23.4 C67.7,23.3 67.4,23.2 67,23 C66.7,22.9 66.5,22.8 66.3,22.7 C66.2,22.6 66.1,22.5 66,22.3 C65.9,22.1 65.9,21.9 65.9,21.6 C65.9,21.3 65.9,21.1 66,20.9 C66.1,20.7 66.2,20.6 66.3,20.4 C66.5,20.3 66.7,20.2 67,20.2 C67.1,20.2 67.4,20.2 67.8,20.2 L67.9,20.2 C68.1,20.2 68.4,20.2 68.8,20.2 C69,20.2 69.1,20.2 69.2,20.3 C69.3,20.4 69.3,20.4 69.3,20.5 L69.3,20.8 C69.3,21 69.3,21.1 69.2,21.2 C69.1,21.3 69,21.3 68.9,21.3 C68.9,21.3 68.7,21.3 68.5,21.3 C68.3,21.3 68.1,21.3 68,21.3 C67.9,21.3 67.8,21.3 67.7,21.3 C67.6,21.3 67.5,21.3 67.4,21.3 C67.3,21.3 67.2,21.3 67.1,21.4 C67,21.5 67,21.5 67,21.7 L67,21.8 C67,21.9 67,22 67,22 C67,22 67.1,22.1 67.2,22.1 C67.3,22.1 67.4,22.2 67.6,22.2 C67.7,22.3 67.8,22.3 67.9,22.3 C68.3,22.5 68.6,22.6 68.8,22.7 C69,22.8 69.1,22.9 69.2,23.1 C69.4,23.3 69.5,23.5 69.5,23.8" id="Shape"></path>
                <path d="M71.2,25 C71.2,25.3 71.1,25.4 70.8,25.4 L70.5,25.4 C70.3,25.4 70.2,25.4 70.2,25.3 C70.1,25.2 70.1,25.1 70.1,25 L70.1,20.6 C70.1,20.4 70.1,20.3 70.2,20.3 C70.3,20.2 70.4,20.2 70.5,20.2 L70.8,20.2 C71.1,20.2 71.2,20.3 71.2,20.6 L71.2,25 Z" id="Shape"></path>
                <path d="M75.7,23.8 C75.7,24 75.7,24.3 75.6,24.5 C75.5,24.7 75.4,24.9 75.3,25 C75.2,25.1 75.1,25.2 75,25.2 C74.9,25.3 74.7,25.3 74.6,25.3 C74.4,25.3 74.2,25.3 74,25.3 L72.5,25.3 C72.3,25.3 72.2,25.3 72.1,25.2 C72,25.1 72,25 72,24.9 L72,20.5 C72,20.3 72,20.2 72.1,20.2 C72.2,20.1 72.3,20.1 72.4,20.1 L73.4,20.1 C73.9,20.1 74.2,20.1 74.3,20.1 C74.5,20.1 74.6,20.2 74.7,20.2 C74.9,20.3 75.1,20.5 75.2,20.7 C75.3,20.9 75.4,21.2 75.4,21.5 C75.4,21.7 75.4,21.9 75.3,22.1 C75.2,22.3 75.2,22.4 75,22.5 C75.2,22.6 75.4,22.8 75.5,23 C75.7,23.3 75.7,23.5 75.7,23.8 M74.3,21.7 C74.3,21.5 74.3,21.4 74.2,21.4 C74.2,21.3 74.1,21.3 74.1,21.3 C74.1,21.3 74,21.3 73.9,21.3 L73.7,21.3 C73.5,21.3 73.3,21.3 73.2,21.3 L73.2,22.4 L73.5,22.4 C73.7,22.4 73.8,22.4 73.9,22.4 C74,22.4 74.1,22.3 74.2,22.3 C74.3,22.1 74.3,22 74.3,21.7 M74.5,23.8 C74.5,23.6 74.5,23.5 74.4,23.5 C74.4,23.4 74.3,23.4 74.2,23.4 C74.1,23.4 73.8,23.3 73.5,23.3 L73.1,23.3 L73.1,24.4 C73.2,24.4 73.4,24.4 73.6,24.4 C73.8,24.4 74,24.4 74.1,24.4 C74.2,24.4 74.3,24.3 74.3,24.2 C74.5,24.2 74.5,24 74.5,23.8" id="Shape"></path>
                <path d="M77.5,25 C77.5,25.3 77.4,25.4 77.1,25.4 L76.8,25.4 C76.6,25.4 76.5,25.4 76.5,25.3 C76.4,25.2 76.4,25.1 76.4,25 L76.4,20.6 C76.4,20.4 76.4,20.3 76.5,20.3 C76.6,20.2 76.7,20.2 76.8,20.2 L77.1,20.2 C77.4,20.2 77.5,20.3 77.5,20.6 L77.5,25 Z" id="Shape"></path>
                <path d="M81.3,25 C81.3,25.3 81.2,25.4 80.9,25.4 L78.7,25.4 C78.5,25.4 78.4,25.4 78.4,25.3 C78.3,25.2 78.3,25.1 78.3,25 L78.3,20.6 C78.3,20.4 78.3,20.3 78.4,20.3 C78.5,20.2 78.6,20.2 78.7,20.2 L79,20.2 C79.3,20.2 79.4,20.3 79.4,20.6 L79.4,24.4 C79.9,24.4 80.4,24.4 80.8,24.4 C81.1,24.4 81.2,24.5 81.2,24.8 L81.2,25 L81.3,25 Z" id="Shape"></path>
                <path d="M83,25 C83,25.3 82.9,25.4 82.6,25.4 L82.3,25.4 C82.1,25.4 82,25.4 82,25.3 C81.9,25.2 81.9,25.1 81.9,25 L81.9,20.6 C81.9,20.4 81.9,20.3 82,20.3 C82.1,20.2 82.2,20.2 82.3,20.2 L82.6,20.2 C82.9,20.2 83,20.3 83,20.6 L83,25 Z" id="Shape"></path>
                <path d="M87.6,20.8 C87.6,21.1 87.5,21.2 87.2,21.2 C86.9,21.2 86.5,21.2 86.1,21.2 L86.1,24.9 C86.1,25.2 86,25.3 85.7,25.3 L85.4,25.3 C85.2,25.3 85.1,25.3 85.1,25.2 C85,25.1 85,25 85,24.9 L85,21.2 C84.6,21.2 84.2,21.2 83.9,21.2 C83.7,21.2 83.6,21.2 83.6,21.1 C83.5,21 83.5,20.9 83.5,20.8 L83.5,20.6 C83.5,20.3 83.6,20.2 83.9,20.2 L87.3,20.2 C87.6,20.2 87.7,20.3 87.7,20.6 L87.7,20.8 L87.6,20.8 Z" id="Shape"></path>
                <path d="M92.3,20.6 C92.3,20.7 92.3,20.8 92.2,20.9 L90.7,23.5 L90.7,25.1 C90.7,25.4 90.6,25.5 90.3,25.5 L90,25.5 C89.8,25.5 89.7,25.5 89.7,25.4 C89.6,25.3 89.6,25.2 89.6,25.1 L89.6,23.6 L88,21 C87.9,20.9 87.9,20.8 87.9,20.7 C87.9,20.6 87.9,20.5 88,20.4 C88.1,20.4 88.2,20.3 88.3,20.3 L88.7,20.3 C88.8,20.3 88.9,20.3 89,20.4 C89.1,20.4 89.1,20.5 89.2,20.6 L90.2,22.3 L91.2,20.6 C91.3,20.5 91.3,20.4 91.4,20.4 C91.5,20.4 91.6,20.3 91.7,20.3 L92,20.3 C92.1,20.3 92.2,20.3 92.3,20.4 C92.2,20.4 92.3,20.5 92.3,20.6" id="Shape"></path>
                <path d="M89.3,2.5 C89.3,1.6 90,0.9 90.9,0.9 C91.8,0.9 92.5,1.6 92.5,2.5 C92.5,3.4 91.8,4.1 90.9,4.1 C90,4.1 89.3,3.4 89.3,2.5 M89.6,2.5 C89.6,3.2 90.2,3.8 90.9,3.8 C91.6,3.8 92.2,3.2 92.2,2.5 C92.2,1.8 91.6,1.2 90.9,1.2 C90.2,1.3 89.6,1.8 89.6,2.5" id="Shape"></path>
                <path d="M91.5,3.3 L91.3,3.3 C91.2,3.3 91.2,3.3 91.2,3.2 L90.8,2.7 L90.7,2.7 L90.7,3.2 C90.7,3.3 90.7,3.3 90.6,3.3 L90.5,3.3 C90.4,3.3 90.4,3.3 90.4,3.2 L90.4,1.8 C90.4,1.7 90.4,1.7 90.5,1.7 L91,1.7 C91.3,1.7 91.3,1.7 91.4,1.8 C91.5,1.9 91.5,2 91.5,2.3 C91.5,2.6 91.4,2.7 91.1,2.7 L91.5,3.2 C91.6,3.3 91.6,3.3 91.5,3.3 M91.1,2 C91,2 90.7,2 90.7,2 L90.7,2.5 L91,2.5 C91.1,2.5 91.2,2.5 91.2,2.4 C91.2,2.4 91.2,2.3 91.2,2.2 C91.2,2.1 91.1,2 91.1,2" id="Shape"></path>
            </g>
        </g>
    </g>
</svg>
