<?xml version="1.0" encoding="utf-8"?>
<!-- Generator: Adobe Illustrator 19.2.1, SVG Export Plug-In . SVG Version: 6.00 Build 0)  -->
<svg version="1.1" id="Layer_1" xmlns="http://www.w3.org/2000/svg" xmlns:xlink="http://www.w3.org/1999/xlink" x="0px" y="0px"
	 viewBox="0 0 40 40" style="enable-background:new 0 0 40 40;" xml:space="preserve">
<g>
	<path d="M26.4,29.2c2.9,0.2,5.9,0.1,5.9,0.1c0,0,0,0,0,0c0-0.2,0-0.4,0-0.5c0-1.1-0.8-2-1.5-2.4c-0.7-0.4-2.5-0.3-3.9-1.5
		c-0.2-0.1-0.3-0.3-0.5-0.4l-1.9,0.5c0,0-0.1,0-0.1,0c-0.2,0-0.5-0.2-0.5-0.4c-0.1-0.3,0.1-0.6,0.4-0.7l1.5-0.4
		c-0.3-0.4-0.5-0.9-0.7-1.3l-2.1,0.5c0,0-0.1,0-0.1,0c-0.2,0-0.5-0.2-0.5-0.4c-0.1-0.3,0.1-0.6,0.4-0.7l2-0.5
		c-0.1-0.5-0.3-0.9-0.3-1.4l-2.9,0.7c0,0-0.1,0-0.1,0c-0.2,0-0.5-0.2-0.5-0.4c-0.1-0.3,0.1-0.6,0.4-0.7l3-0.7
		c-0.2-0.8-0.3-1.6-0.6-2c-0.4-0.6-2.9-1.6-6-4c-2-1.6-2.4-3-3-3.7c-0.6-0.7-1.2,0.4-1.2,0.4s-3.5,5.2-5.4,8.2
		C14.5,22.4,24.3,29.1,26.4,29.2z"/>
	<path d="M30.1,30.5c-1.1,0-2.5,0-3.9-0.1c-2.8-0.2-15.4-9.2-18.9-11.8c-0.3,0.5-0.5,0.8-0.6,1c-0.5,1,0.1,1.6,0.1,1.6
		s16.3,11,17.2,11.1c1.4,0.2,4.6,0.2,6.4,0c0.4,0,1.1-0.5,1.3-1c0.1-0.2,0.2-0.5,0.3-0.8C31.7,30.5,31,30.5,30.1,30.5z"/>
</g>
</svg>
