<?xml version="1.0" encoding="utf-8"?>
<!-- Generator: Adobe Illustrator 16.0.4, SVG Export Plug-In . SVG Version: 6.00 Build 0)  -->
<!DOCTYPE svg PUBLIC "-//W3C//DTD SVG 1.1//EN" "http://www.w3.org/Graphics/SVG/1.1/DTD/svg11.dtd">
<svg version="1.1" id="Layer_1" xmlns="http://www.w3.org/2000/svg" xmlns:xlink="http://www.w3.org/1999/xlink" x="0px" y="0px"
	 width="695.5px" height="221px" viewBox="0 0 695.5 221" enable-background="new 0 0 695.5 221" xml:space="preserve">
<path fill="#A31984" d="M258.829,0.94h-82.892c-6.133,0-11.105,4.972-11.105,11.105c0,1.912,0.42,3.702,1.326,5.272l41.607,72.061
	c1.914,3.326,5.506,5.57,9.616,5.57c4.117,0,7.701-2.244,9.619-5.57l41.604-72.061c0.908-1.57,1.328-3.36,1.328-5.272
	C269.934,5.912,264.967,0.94,258.829,0.94"/>
<path fill="#A31984" d="M275.863,6.957c0-3.349,2.715-6.068,6.074-6.068c3.352,0,6.062,2.719,6.062,6.068
	c0,3.352-2.711,6.071-6.062,6.071C278.578,13.028,275.863,10.309,275.863,6.957 M277.115,6.957c0.01,2.659,2.158,4.808,4.822,4.817
	c2.651-0.009,4.803-2.158,4.811-4.817c-0.008-2.657-2.158-4.808-4.811-4.81C279.273,2.149,277.125,4.3,277.115,6.957z"/>
<g>
	<g>
		<defs>
			<rect id="SVGID_1_" width="288" height="221"/>
		</defs>
		<clipPath id="SVGID_2_">
			<use xlink:href="#SVGID_1_"  overflow="visible"/>
		</clipPath>
		<path clip-path="url(#SVGID_2_)" fill="#A31984" d="M284.217,10.003h-0.578c-0.225,0-0.344-0.027-0.51-0.221l-1.645-2.056h-0.438
			v1.948c0,0.248-0.103,0.329-0.313,0.329h-0.4c-0.273,0-0.367-0.053-0.367-0.329V4.221c0-0.296,0.174-0.307,0.367-0.307h1.754
			c1,0,1.209,0.059,1.566,0.413c0.312,0.326,0.463,0.892,0.463,1.703c0,1.025-0.412,1.601-1.344,1.67l1.562,1.866
			C284.514,9.782,284.482,10.003,284.217,10.003 M282.742,4.886c-0.244-0.12-1.385-0.065-1.695-0.065V6.82h1.162
			c0.412,0,0.607-0.067,0.719-0.207c0.064-0.107,0.131-0.218,0.131-0.665C283.059,5.276,282.951,4.999,282.742,4.886z"/>
	</g>
	<g>
		<defs>
			<rect id="SVGID_3_" width="288" height="221"/>
		</defs>
		<clipPath id="SVGID_4_">
			<use xlink:href="#SVGID_3_"  overflow="visible"/>
		</clipPath>
		<path clip-path="url(#SVGID_4_)" fill="#00AEEF" d="M129.777,103.246c0,0.01,0.01,0.017,0.01,0.022v-0.009L129.777,103.246
			 M202.809,104.636l-0.457-0.79l-52.35-90.674C145.639,5.613,137.273,0.94,127.98,0.94H85.549c-4.733,0-8.571,3.84-8.571,8.57
			c0,1.471,0.34,2.881,1.024,4.06l51.785,89.698c2.369,4.031,3.728,8.722,3.728,13.735c0,4.864-1.281,9.424-3.517,13.371
			l-45.029,78.001c-0.683,1.172-1.021,2.584-1.021,4.057c0,4.734,3.836,8.568,8.57,8.568h43.537c9.289,0,17.658-4.67,22.021-12.229
			l0.896-1.56l43.299-74.998l0.807-1.396c2.207-3.826,3.227-8.202,3.227-12.854C206.305,113.119,205.062,108.542,202.809,104.636z"
			/>
	</g>
</g>
<path fill="#00AEEF" d="M83.18,140.865c-0.793,0-1.584,0.326-2.309,0.457c-2.436,0.527-5.139,1.058-8.037,1.058
	c-1.582,0-3.035-0.332-3.957-0.726c-2.041-0.922-2.238-3.493-2.174-6.793h16.079c2.306,0,2.767-0.392,2.767-4.016
	c0-4.223-0.392-8.371-2.435-11.334c-1.911-2.703-5.208-4.089-10.677-4.089c-5.798,0-9.427,1.517-11.4,4.353
	c-2.047,2.896-2.641,6.785-2.641,12.582c0,6.531,0.924,10.817,3.695,13.386c2.173,2.042,5.735,3.09,10.68,3.09
	c2.831,0,6.717-0.261,9.942-0.856c2.047-0.326,2.375-1.377,2.375-2.897c0-0.726,0-1.519-0.127-2.173
	C84.76,142.048,84.166,140.865,83.18,140.865 M66.703,128.47c0-4.807,0.992-6.452,5.734-6.452c4.483,0,5.071,1.709,5.071,5.795
	c0,0,0,0.785,0,1.254H66.703V128.47z M43.155,115.424c-3.562,0-6.722,1.184-8.902,2.239v-12.191c0-1.251-0.524-2.838-2.566-2.838
	h-2.965c-1.91,0-2.899,0.594-2.899,2.838v39.875c0,1.577,0.526,2.629,2.375,2.629h3.489c2.042,0,2.566-1.119,2.566-2.965V129.91
	c0-4.727,0.978-6.338,5.633-6.338c4.406,0,4.988,1.679,4.988,5.688c0,0,0,0.779,0,1.232h-0.018c0.01,0.635,0.016,1.357,0.016,2.168
	v12.352c0,1.98,0.654,2.965,2.368,2.965h3.5c2.035,0,2.566-1.119,2.566-2.965v-20.227C53.306,120.495,51.261,115.424,43.155,115.424
	z"/>
<path fill="#00AEEF" d="M18.977,123.327h-7.115v13.25c0,3.095,0.133,4.282,0.396,4.808c0.198,0.335,0.532,0.529,0.987,0.529
	c1.849,0,3.884-0.987,5.406-0.987c1.451,0,1.783,1.12,1.783,1.841v2.373c0,2.439-0.664,3.104-2.769,3.299
	c-2.11,0.195-3.559,0.328-5.739,0.328c-6.989,0-8.5-2.57-8.5-10.414v-15.025H1.58c-1.248,0-1.58-0.855-1.58-1.908v-2.836
	c0-1.65,0.656-2.174,1.777-2.174h1.649v-5.34c0-2.24,0.922-2.902,2.834-2.902h2.967c2.041,0,2.635,1.648,2.635,2.902v5.34h6.461
	c1.447,0,2.24,0.197,2.24,2.109v2.304C20.563,123.062,20.165,123.327,18.977,123.327"/>
<path fill="#A31984" d="M174.128,200.225l5.054,8.553l4.774,2.756c0.662,0.384,0.797,0.88,0.422,1.517l-0.541,0.961
	c-0.43,0.733-0.823,0.945-1.599,0.496l-4.598-2.653l-10.48-0.123c-0.293,0.006-0.572-0.035-0.773-0.151
	c-0.549-0.317-0.414-0.92-0.205-1.278l0.689-1.195c0.383-0.664,0.756-0.744,1.287-0.736l7.179,0.145l-3.701-6.227
	c-0.268-0.45-0.364-0.807,0.021-1.471l0.566-0.977c0.334-0.582,0.795-0.668,1.219-0.422
	C173.708,199.568,173.98,199.967,174.128,200.225"/>
<path fill="#A31984" d="M196.514,192.042l-0.539,0.931c-0.383,0.663-0.856,0.715-1.508,0.401l-9.376-4.642
	c0.388,0.461,0.945,1.078,1.377,1.562c1.677,1.977,3.5,4.006,4.571,5.369c0.43,0.543,0.584,0.991,0.164,1.715l-0.332,0.582
	c-0.426,0.734-0.876,0.805-1.562,0.701c-1.713-0.25-4.412-0.768-6.963-1.234c-0.646-0.105-1.436-0.326-2.029-0.43l8.705,5.804
	c0.603,0.406,0.793,0.845,0.412,1.503l-0.541,0.937c-0.397,0.687-0.867,1.034-1.651,0.495l-12.277-8.604
	c-0.76-0.525-0.567-1.064-0.258-1.601l0.705-1.222c0.356-0.619,0.739-0.816,1.344-0.734c2.521,0.359,6.938,1.219,10.326,1.811
	c-2.209-2.633-5.166-6.027-6.735-8.031c-0.371-0.481-0.392-0.906-0.031-1.528l0.703-1.222c0.309-0.531,0.682-0.971,1.516-0.578
	l13.585,6.336C196.977,190.764,196.912,191.35,196.514,192.042"/>
<path fill="#A31984" d="M203.475,180.391c-0.485,0.998-0.758,1.569-1.35,2.594c-0.477,0.826-1.117,1.787-1.781,2.469
	c-2.541,2.654-5.602,1.803-9.447-0.416c-6.527-3.771-6.558-6.541-4.058-10.873c0.595-1.023,0.955-1.555,1.574-2.471
	c0.592-0.873,0.948-0.991,1.448-0.702l0.731,0.421c0.796,0.459,0.984,0.75,0.574,1.454c-0.476,0.827-0.817,1.164-1.497,2.341
	c-0.414,0.711-1.012,1.902-1.088,2.602c-0.178,1.643,1.555,2.699,4.107,4.168c2.513,1.453,4.541,2.453,6.011,0.728
	c0.299-0.361,0.704-0.957,1.103-1.646c0.68-1.178,0.803-1.645,1.272-2.469c0.407-0.709,0.752-0.688,1.555-0.224l0.733,0.421
	C203.852,179.068,203.936,179.443,203.475,180.391"/>
<path fill="#A31984" d="M211.623,165.868l-0.705,1.221c-0.398,0.688-0.844,0.697-1.381,0.595l-3.344-0.621
	c-0.529,0.97-0.937,1.679-1.506,2.653c-0.535,0.933-1.011,1.759-1.492,2.539l2.104,2.406c0.486,0.545,0.716,0.916,0.277,1.666
	l-0.589,1.028c-0.438,0.758-0.7,0.75-1.03,0.556c-0.135-0.072-0.365-0.296-0.588-0.576l-10.078-11.888
	c-0.547-0.648-0.719-1.07-0.242-1.889l0.522-0.91c0.474-0.825,0.931-0.892,1.736-0.75l15.719,2.679
	c0.14,0.019,0.273,0.041,0.392,0.106C211.969,165.002,211.828,165.511,211.623,165.868 M197.152,165.331l4.211,4.81
	c0.297-0.517,0.621-1.127,0.992-1.769c0.397-0.692,0.69-1.147,1.062-1.791L197.152,165.331z"/>
<g>
	<g>
		<path fill="#00AEEF" d="M332.408,127.575c0,1.141-0.558,1.711-1.668,1.711c-1.003,0-1.658-0.002-1.97-0.007
			c-0.309-0.005-0.855-0.016-1.644-0.029c-0.787-0.016-1.533-0.033-2.241-0.052v3.834c1.967-0.039,3.727-0.059,5.281-0.059
			c1.09,0,1.635,0.575,1.635,1.725v0.398c0,0.473-0.102,0.875-0.309,1.209c-0.206,0.335-0.649,0.502-1.326,0.502
			c-0.749,0-1.545-0.01-2.391-0.029c-0.847-0.02-1.809-0.04-2.891-0.059v7.063c0,1.092-0.545,1.638-1.638,1.638h-1.298
			c-0.59,0-1.039-0.125-1.349-0.377c-0.31-0.25-0.464-0.671-0.464-1.261v-17.004c0-0.63,0.173-1.043,0.522-1.239
			c0.349-0.196,0.779-0.295,1.29-0.295h8.79c1.11,0,1.668,0.512,1.668,1.534V127.575z"/>
		<path fill="#00AEEF" d="M351.153,135.362c0,2.084-0.276,3.921-0.826,5.509c-0.551,1.588-1.492,2.849-2.825,3.782
			c-1.332,0.934-3.114,1.402-5.346,1.402c-1.681,0-3.103-0.274-4.262-0.819c-1.159-0.546-2.087-1.305-2.781-2.279
			c-0.691-0.973-1.186-2.093-1.48-3.362c-0.295-1.268-0.443-2.68-0.443-4.232c0-1.582,0.146-3.003,0.436-4.263
			c0.29-1.258,0.78-2.374,1.475-3.347c0.693-0.974,1.617-1.73,2.772-2.271s2.584-0.812,4.284-0.812c2.231,0,4.014,0.465,5.346,1.395
			c1.333,0.929,2.274,2.188,2.825,3.775C350.877,131.428,351.153,133.269,351.153,135.362z M346.257,135.362
			c0-1.032-0.045-1.99-0.132-2.875c-0.09-0.885-0.257-1.568-0.503-2.051c-0.51-1.102-1.666-1.651-3.466-1.651
			c-1.78,0-2.93,0.55-3.45,1.651c-0.423,0.914-0.635,2.557-0.635,4.926c0,2.35,0.212,3.982,0.635,4.896
			c0.531,1.121,1.681,1.682,3.45,1.682c1.79,0,2.945-0.561,3.466-1.682C346.046,139.363,346.257,137.732,346.257,135.362z"/>
		<path fill="#00AEEF" d="M368.733,144.3c0,0.747-0.462,1.121-1.386,1.121h-1.814c-0.462,0-0.853-0.062-1.171-0.185
			c-0.32-0.123-0.642-0.371-0.967-0.745l-5.045-6.164h-0.427v5.456c0,1.092-0.546,1.638-1.636,1.638h-1.298
			c-0.59,0-1.042-0.125-1.351-0.377c-0.31-0.25-0.464-0.671-0.464-1.261v-17.004c0-0.63,0.175-1.043,0.522-1.239
			c0.35-0.196,0.779-0.295,1.292-0.295h5.618c1.652,0,2.812,0.089,3.48,0.266c0.668,0.177,1.322,0.58,1.961,1.209
			c0.58,0.561,1.003,1.322,1.268,2.287c0.267,0.963,0.398,2.104,0.398,3.421c0,3.176-1.238,5.068-3.716,5.678l4.247,4.955
			C368.572,143.454,368.733,143.867,368.733,144.3z M362.997,132.192v-0.03c0-1.612-0.212-2.517-0.635-2.714
			c-0.265-0.127-0.928-0.191-1.989-0.191h-0.149c-1.031,0-1.798,0.01-2.3,0.029v5.015h3.083c0.629,0,1.076-0.052,1.341-0.154
			c0.267-0.104,0.441-0.293,0.525-0.569C362.956,133.303,362.997,132.841,362.997,132.192z"/>
		<path fill="#00AEEF" d="M392.475,126.514c0,0.364-0.1,0.708-0.295,1.032l-5.93,10.059v6.179c0,1.092-0.541,1.638-1.621,1.638
			h-1.314c-0.59,0-1.035-0.123-1.341-0.368c-0.305-0.246-0.457-0.67-0.457-1.27v-5.943l-6.018-10.294
			c-0.216-0.413-0.325-0.757-0.325-1.032c0-0.462,0.16-0.789,0.479-0.98c0.32-0.192,0.661-0.288,1.025-0.288h1.638
			c0.482,0,0.854,0.087,1.121,0.259c0.265,0.172,0.49,0.43,0.677,0.773l3.807,6.607l3.908-6.637c0.197-0.344,0.425-0.597,0.686-0.76
			c0.26-0.161,0.637-0.243,1.129-0.243h1.326c0.492,0,0.866,0.12,1.121,0.361C392.347,125.848,392.475,126.149,392.475,126.514z"/>
		<path fill="#00AEEF" d="M411.265,135.362c0,2.084-0.276,3.921-0.826,5.509c-0.551,1.588-1.492,2.849-2.825,3.782
			c-1.332,0.934-3.114,1.402-5.346,1.402c-1.681,0-3.103-0.274-4.262-0.819c-1.159-0.546-2.087-1.305-2.781-2.279
			c-0.691-0.973-1.186-2.093-1.48-3.362c-0.295-1.268-0.443-2.68-0.443-4.232c0-1.582,0.146-3.003,0.436-4.263
			c0.29-1.258,0.78-2.374,1.475-3.347c0.693-0.974,1.617-1.73,2.772-2.271s2.584-0.812,4.284-0.812c2.231,0,4.014,0.465,5.346,1.395
			c1.333,0.929,2.274,2.188,2.825,3.775C410.988,131.428,411.265,133.269,411.265,135.362z M406.368,135.362
			c0-1.032-0.045-1.99-0.132-2.875c-0.09-0.885-0.257-1.568-0.503-2.051c-0.51-1.102-1.666-1.651-3.466-1.651
			c-1.78,0-2.93,0.55-3.45,1.651c-0.423,0.914-0.635,2.557-0.635,4.926c0,2.35,0.212,3.982,0.635,4.896
			c0.531,1.121,1.681,1.682,3.45,1.682c1.79,0,2.945-0.561,3.466-1.682C406.157,139.363,406.368,137.732,406.368,135.362z"/>
		<path fill="#00AEEF" d="M430.203,132.974c0,2.016-0.022,3.502-0.066,4.461c-0.045,0.959-0.141,1.87-0.287,2.735
			c-0.276,1.475-0.763,2.628-1.461,3.459c-0.697,0.83-1.599,1.413-2.699,1.747c-1.101,0.335-2.453,0.502-4.056,0.502
			c-1.604,0-2.962-0.167-4.077-0.502c-1.116-0.334-2.024-0.919-2.722-1.755s-1.18-1.986-1.446-3.451
			c-0.108-0.619-0.186-1.229-0.236-1.828c-0.049-0.601-0.077-1.246-0.087-1.94c-0.011-0.692-0.015-1.835-0.015-3.428v-6.194
			c0-0.63,0.177-1.043,0.531-1.239c0.354-0.196,0.781-0.295,1.283-0.295h1.268c0.59,0,1.015,0.141,1.275,0.42
			c0.261,0.281,0.391,0.652,0.391,1.114v8.612c0,1.121,0.021,1.988,0.059,2.603c0.041,0.615,0.106,1.116,0.2,1.505
			c0.093,0.389,0.209,0.73,0.348,1.025c0.205,0.442,0.539,0.76,1.001,0.951c0.464,0.191,1.206,0.287,2.228,0.287
			c1.043,0,1.794-0.099,2.256-0.295c0.463-0.196,0.787-0.512,0.974-0.943c0.236-0.482,0.397-1.048,0.48-1.696
			c0.083-0.649,0.124-1.795,0.124-3.437v-8.612c0-0.63,0.184-1.043,0.545-1.239c0.364-0.196,0.798-0.295,1.298-0.295h1.298
			c1.062,0,1.595,0.512,1.595,1.534V132.974z"/>
		<path fill="#00AEEF" d="M447.474,127.575c0,1.141-0.541,1.711-1.621,1.711c-1.151,0-2.532-0.02-4.146-0.059v14.556
			c0,1.092-0.545,1.638-1.636,1.638h-1.298c-0.6,0-1.05-0.123-1.351-0.368c-0.299-0.246-0.449-0.67-0.449-1.27v-14.556
			c-1.611,0.039-2.992,0.059-4.144,0.059c-0.688,0-1.134-0.167-1.335-0.501c-0.201-0.335-0.303-0.737-0.303-1.21v-0.796
			c0-1.022,0.547-1.534,1.638-1.534h13.022c1.08,0,1.621,0.512,1.621,1.534V127.575z"/>
		<path fill="#00AEEF" d="M464.789,143.783c0,1.092-0.555,1.638-1.666,1.638h-1.269c-0.591,0-1.036-0.123-1.341-0.368
			c-0.306-0.246-0.458-0.67-0.458-1.27v-7.212c-0.669,0.02-1.78,0.029-3.332,0.029c-0.395,0-0.755,0-1.084,0
			c-0.33,0-0.729-0.002-1.196-0.006c-0.466-0.006-0.813-0.013-1.04-0.023v7.212c0,1.092-0.545,1.638-1.635,1.638h-1.298
			c-0.59,0-1.042-0.125-1.351-0.377c-0.31-0.25-0.464-0.671-0.464-1.261v-17.004c0-0.63,0.175-1.043,0.522-1.239
			c0.35-0.196,0.779-0.295,1.292-0.295h1.298c1.09,0,1.635,0.512,1.635,1.534v5.987c0.67-0.02,1.776-0.029,3.32-0.029
			c1.552,0,2.663,0.01,3.332,0.029v-5.987c0-0.63,0.173-1.043,0.517-1.239s0.771-0.295,1.282-0.295h1.269
			c1.111,0,1.666,0.512,1.666,1.534V143.783z"/>
		<path fill="#00AEEF" d="M491.257,135.539c0,1.604-0.131,3.04-0.391,4.313c-0.261,1.273-0.785,2.375-1.572,3.304
			c-0.785,0.93-1.931,1.562-3.437,1.896c-0.688,0.146-1.349,0.245-1.983,0.295c-0.635,0.049-1.212,0.073-1.732,0.073h-5.293
			c-0.59,0-1.042-0.125-1.352-0.377c-0.309-0.25-0.463-0.671-0.463-1.261v-17.004c0-0.63,0.175-1.043,0.522-1.239
			c0.35-0.196,0.779-0.295,1.292-0.295h5.293c1.672,0,3.055,0.136,4.151,0.406s2.012,0.762,2.744,1.475s1.286,1.758,1.658,3.134
			C491.069,131.636,491.257,133.396,491.257,135.539z M486.405,134.64c0-1.406-0.102-2.507-0.304-3.304
			c-0.201-0.796-0.667-1.347-1.394-1.652c-0.609-0.245-1.657-0.368-3.141-0.368c-0.964,0-1.56,0.011-1.786,0.03v11.96
			c0.227,0.03,0.822,0.044,1.786,0.044c1.444,0,2.502-0.147,3.17-0.442c0.669-0.295,1.114-0.838,1.334-1.629
			c0.222-0.791,0.334-2.019,0.334-3.68V134.64z"/>
		<path fill="#00AEEF" d="M506.123,143.887c0,1.022-0.546,1.534-1.636,1.534h-9.395c-0.59,0-1.041-0.125-1.351-0.377
			c-0.309-0.25-0.464-0.671-0.464-1.261v-17.004c0-0.63,0.176-1.043,0.523-1.239c0.35-0.196,0.779-0.295,1.291-0.295h9.395
			c1.09,0,1.636,0.512,1.636,1.534v0.796c0,0.473-0.102,0.875-0.31,1.21c-0.205,0.334-0.648,0.501-1.326,0.501
			c-0.787,0-1.422-0.005-1.904-0.015c-0.479-0.01-1.041-0.02-1.68-0.029s-1.207-0.02-1.703-0.03
			c-0.496-0.009-0.889-0.014-1.174-0.014v3.863c0.708-0.019,1.448-0.036,2.22-0.052c0.772-0.014,1.308-0.024,1.608-0.029
			c0.3-0.005,0.946-0.007,1.939-0.007c1.11,0,1.666,0.575,1.666,1.725v0.398c0,1.141-0.556,1.711-1.666,1.711
			c-0.826,0-1.707-0.01-2.641-0.029s-1.976-0.04-3.127-0.059v4.748c0.787-0.019,1.636-0.036,2.545-0.052
			c0.909-0.014,1.525-0.024,1.852-0.029c0.323-0.005,1.013-0.007,2.064-0.007c0.678,0,1.121,0.164,1.326,0.494
			c0.208,0.329,0.31,0.734,0.31,1.216V143.887z"/>
		<path fill="#00AEEF" d="M525.651,126.308c0,0.216-0.079,0.545-0.236,0.988l-6.225,16.62c-0.195,0.521-0.438,0.902-0.722,1.144
			c-0.285,0.241-0.747,0.361-1.388,0.361h-1.399c-0.61,0-1.06-0.116-1.351-0.347c-0.289-0.231-0.543-0.617-0.759-1.158l-6.52-16.887
			c-0.077-0.255-0.118-0.446-0.118-0.574c0-0.473,0.148-0.792,0.443-0.96c0.295-0.166,0.618-0.25,0.973-0.25h1.845
			c0.875,0,1.469,0.424,1.784,1.269l4.469,12.255l4.321-12.078c0.167-0.481,0.384-0.843,0.648-1.084s0.684-0.361,1.253-0.361h1.475
			c0.64,0,1.05,0.087,1.233,0.259C525.56,125.676,525.651,125.943,525.651,126.308z"/>
		<path fill="#00AEEF" d="M539.823,143.887c0,1.022-0.545,1.534-1.635,1.534h-9.395c-0.59,0-1.041-0.125-1.351-0.377
			c-0.31-0.25-0.464-0.671-0.464-1.261v-17.004c0-0.63,0.175-1.043,0.523-1.239c0.35-0.196,0.778-0.295,1.291-0.295h9.395
			c1.09,0,1.635,0.512,1.635,1.534v0.796c0,0.473-0.102,0.875-0.309,1.21c-0.205,0.334-0.649,0.501-1.326,0.501
			c-0.787,0-1.422-0.005-1.904-0.015c-0.48-0.01-1.041-0.02-1.681-0.029c-0.639-0.01-1.206-0.02-1.702-0.03
			c-0.496-0.009-0.889-0.014-1.174-0.014v3.863c0.708-0.019,1.448-0.036,2.22-0.052c0.772-0.014,1.308-0.024,1.608-0.029
			c0.299-0.005,0.946-0.007,1.939-0.007c1.11,0,1.666,0.575,1.666,1.725v0.398c0,1.141-0.556,1.711-1.666,1.711
			c-0.826,0-1.707-0.01-2.641-0.029s-1.976-0.04-3.127-0.059v4.748c0.787-0.019,1.636-0.036,2.545-0.052
			c0.909-0.014,1.525-0.024,1.852-0.029c0.323-0.005,1.013-0.007,2.064-0.007c0.677,0,1.121,0.164,1.326,0.494
			c0.207,0.329,0.309,0.734,0.309,1.216V143.887z"/>
		<path fill="#00AEEF" d="M553.797,143.887c0,1.022-0.541,1.534-1.623,1.534h-8.523c-0.59,0-1.042-0.125-1.351-0.377
			c-0.31-0.25-0.464-0.671-0.464-1.261v-17.004c0-0.63,0.175-1.043,0.522-1.239c0.35-0.196,0.779-0.295,1.292-0.295h1.298
			c1.09,0,1.635,0.512,1.635,1.534v14.659c2.047-0.04,3.91-0.059,5.591-0.059c1.082,0,1.623,0.57,1.623,1.71V143.887z"/>
		<path fill="#00AEEF" d="M572.042,135.362c0,2.084-0.277,3.921-0.826,5.509c-0.551,1.588-1.493,2.849-2.825,3.782
			c-1.333,0.934-3.114,1.402-5.347,1.402c-1.68,0-3.102-0.274-4.262-0.819c-1.159-0.546-2.087-1.305-2.78-2.279
			c-0.691-0.973-1.186-2.093-1.481-3.362c-0.295-1.268-0.443-2.68-0.443-4.232c0-1.582,0.146-3.003,0.436-4.263
			c0.291-1.258,0.781-2.374,1.475-3.347c0.694-0.974,1.617-1.73,2.773-2.271c1.155-0.541,2.583-0.812,4.283-0.812
			c2.232,0,4.014,0.465,5.347,1.395c1.332,0.929,2.274,2.188,2.825,3.775C571.765,131.428,572.042,133.269,572.042,135.362z
			 M567.146,135.362c0-1.032-0.045-1.99-0.133-2.875c-0.089-0.885-0.256-1.568-0.502-2.051c-0.511-1.102-1.666-1.651-3.467-1.651
			c-1.779,0-2.929,0.55-3.449,1.651c-0.424,0.914-0.635,2.557-0.635,4.926c0,2.35,0.211,3.982,0.635,4.896
			c0.53,1.121,1.68,1.682,3.449,1.682c1.791,0,2.946-0.561,3.467-1.682C566.934,139.363,567.146,137.732,567.146,135.362z"/>
		<path fill="#00AEEF" d="M588.604,132.428c0,1.534-0.224,2.81-0.672,3.827c-0.447,1.018-1.161,1.757-2.144,2.219
			c-0.61,0.275-1.221,0.456-1.831,0.539c-0.607,0.083-1.488,0.125-2.638,0.125h-2.509v4.646c0,1.092-0.545,1.638-1.636,1.638h-1.298
			c-0.59,0-1.041-0.125-1.351-0.377c-0.309-0.25-0.464-0.671-0.464-1.261v-17.004c0-0.63,0.176-1.043,0.523-1.239
			c0.35-0.196,0.779-0.295,1.291-0.295h5.619c1.651,0,2.811,0.089,3.48,0.266c0.667,0.177,1.322,0.58,1.961,1.209
			c0.58,0.561,1.003,1.322,1.268,2.287C588.472,129.97,588.604,131.11,588.604,132.428z M583.885,132.561v-0.368
			c0-1.633-0.211-2.547-0.635-2.744c-0.254-0.127-0.878-0.191-1.871-0.191h-0.37c-0.982,0-1.715,0.01-2.197,0.029v5.841h3.084h0.028
			c0.905,0,1.461-0.143,1.666-0.429C583.787,134.424,583.885,133.711,583.885,132.561z"/>
		<path fill="#00AEEF" d="M611.495,143.945c0,0.984-0.604,1.476-1.814,1.476h-1.267c-1.042,0-1.597-0.521-1.666-1.563l-0.694-10.28
			c-0.284,0.729-0.793,2.132-1.525,4.211c-0.732,2.08-1.232,3.434-1.497,4.063c-0.188,0.472-0.423,0.824-0.708,1.055
			s-0.704,0.346-1.255,0.346h-0.781c-0.383,0-0.7-0.056-0.95-0.169c-0.252-0.112-0.458-0.282-0.62-0.509
			c-0.163-0.227-0.293-0.468-0.391-0.723c-0.09-0.207-0.338-0.862-0.745-1.969c-0.408-1.106-0.823-2.235-1.246-3.384
			c-0.424-1.151-0.785-2.124-1.091-2.922l-0.665,10.28c-0.067,1.042-0.623,1.563-1.666,1.563h-1.268
			c-1.21,0-1.814-0.491-1.814-1.476v-0.25l1.548-16.976c0.049-0.59,0.232-0.983,0.548-1.18c0.312-0.196,0.736-0.295,1.267-0.295
			h1.683c0.511,0,0.911,0.089,1.2,0.266c0.291,0.177,0.515,0.462,0.671,0.855c0.197,0.462,0.475,1.157,0.834,2.087
			c0.358,0.929,0.7,1.836,1.025,2.721c0.324,0.885,0.653,1.789,0.989,2.714c0.333,0.925,0.697,1.917,1.09,2.979
			c0.06-0.146,0.285-0.752,0.68-1.813c0.393-1.062,0.772-2.104,1.142-3.127c0.37-1.022,0.728-1.998,1.078-2.928
			c0.348-0.928,0.689-1.806,1.022-2.632c0.169-0.402,0.389-0.69,0.665-0.862c0.275-0.172,0.668-0.259,1.181-0.259h1.694
			c0.522,0,0.939,0.099,1.255,0.295c0.313,0.196,0.496,0.59,0.545,1.18l1.548,16.976V143.945z"/>
		<path fill="#00AEEF" d="M626.229,143.887c0,1.022-0.545,1.534-1.636,1.534H615.2c-0.59,0-1.042-0.125-1.352-0.377
			c-0.309-0.25-0.463-0.671-0.463-1.261v-17.004c0-0.63,0.175-1.043,0.522-1.239c0.35-0.196,0.779-0.295,1.292-0.295h9.394
			c1.091,0,1.636,0.512,1.636,1.534v0.796c0,0.473-0.102,0.875-0.31,1.21c-0.205,0.334-0.648,0.501-1.326,0.501
			c-0.787,0-1.422-0.005-1.903-0.015c-0.48-0.01-1.042-0.02-1.681-0.029s-1.206-0.02-1.703-0.03
			c-0.496-0.009-0.889-0.014-1.174-0.014v3.863c0.708-0.019,1.449-0.036,2.22-0.052c0.773-0.014,1.309-0.024,1.609-0.029
			c0.299-0.005,0.945-0.007,1.938-0.007c1.11,0,1.666,0.575,1.666,1.725v0.398c0,1.141-0.556,1.711-1.666,1.711
			c-0.826,0-1.707-0.01-2.641-0.029s-1.976-0.04-3.127-0.059v4.748c0.788-0.019,1.636-0.036,2.545-0.052
			c0.909-0.014,1.526-0.024,1.852-0.029c0.323-0.005,1.013-0.007,2.064-0.007c0.678,0,1.121,0.164,1.326,0.494
			c0.208,0.329,0.31,0.734,0.31,1.216V143.887z"/>
		<path fill="#00AEEF" d="M645.316,143.783c0,1.092-0.545,1.638-1.638,1.638h-0.898c-0.482,0-0.865-0.047-1.149-0.141
			c-0.285-0.094-0.562-0.297-0.826-0.612c-1.888-2.438-4.524-6.086-7.905-10.942v10.058c0,1.092-0.555,1.638-1.666,1.638h-1.18
			c-0.59,0-1.041-0.125-1.351-0.377c-0.31-0.25-0.464-0.671-0.464-1.261v-17.004c0-0.63,0.175-1.043,0.522-1.239
			c0.351-0.196,0.779-0.295,1.292-0.295h0.795c0.306,0,0.552,0.015,0.739,0.045c0.185,0.028,0.368,0.098,0.545,0.205
			c0.177,0.109,0.348,0.276,0.517,0.503c1.021,1.337,3.69,5.015,8.007,11.031v-10.25c0-0.63,0.175-1.043,0.524-1.239
			c0.348-0.196,0.779-0.295,1.29-0.295h1.208c1.093,0,1.638,0.512,1.638,1.534V143.783z"/>
		<path fill="#00AEEF" d="M662.795,127.575c0,1.141-0.541,1.711-1.622,1.711c-1.15,0-2.532-0.02-4.146-0.059v14.556
			c0,1.092-0.545,1.638-1.636,1.638h-1.297c-0.601,0-1.05-0.123-1.352-0.368c-0.299-0.246-0.449-0.67-0.449-1.27v-14.556
			c-1.611,0.039-2.992,0.059-4.144,0.059c-0.688,0-1.133-0.167-1.335-0.501c-0.201-0.335-0.303-0.737-0.303-1.21v-0.796
			c0-1.022,0.547-1.534,1.638-1.534h13.022c1.081,0,1.622,0.512,1.622,1.534V127.575z"/>
		<path fill="#00AEEF" d="M332.408,165.07c0,1.139-0.558,1.711-1.668,1.711c-1.003,0-1.658-0.002-1.97-0.007
			c-0.309-0.006-0.855-0.016-1.644-0.03c-0.787-0.014-1.533-0.032-2.241-0.051v3.833c1.967-0.039,3.727-0.058,5.281-0.058
			c1.09,0,1.635,0.574,1.635,1.726v0.398c0,0.472-0.102,0.875-0.309,1.208c-0.206,0.334-0.649,0.501-1.326,0.501
			c-0.749,0-1.545-0.009-2.391-0.028c-0.847-0.021-1.809-0.041-2.891-0.06v7.065c0,1.09-0.545,1.635-1.638,1.635h-1.298
			c-0.59,0-1.039-0.124-1.349-0.374c-0.31-0.252-0.464-0.671-0.464-1.261v-17.007c0-0.628,0.173-1.041,0.522-1.236
			c0.349-0.197,0.779-0.297,1.29-0.297h8.79c1.11,0,1.668,0.513,1.668,1.533V165.07z"/>
		<path fill="#00AEEF" d="M351.153,172.857c0,2.083-0.276,3.922-0.826,5.509c-0.551,1.586-1.492,2.848-2.825,3.783
			c-1.332,0.932-3.114,1.399-5.346,1.399c-1.681,0-3.103-0.272-4.262-0.817s-2.087-1.306-2.781-2.278
			c-0.691-0.973-1.186-2.096-1.48-3.365c-0.295-1.265-0.443-2.677-0.443-4.23c0-1.583,0.146-3.003,0.436-4.264
			c0.29-1.258,0.78-2.372,1.475-3.347c0.693-0.975,1.617-1.731,2.772-2.272s2.584-0.81,4.284-0.81c2.231,0,4.014,0.464,5.346,1.394
			c1.333,0.93,2.274,2.187,2.825,3.775C350.877,168.923,351.153,170.762,351.153,172.857z M346.257,172.857
			c0-1.033-0.045-1.99-0.132-2.877c-0.09-0.883-0.257-1.566-0.503-2.05c-0.51-1.101-1.666-1.652-3.466-1.652
			c-1.78,0-2.93,0.552-3.45,1.652c-0.423,0.915-0.635,2.557-0.635,4.927c0,2.35,0.212,3.982,0.635,4.896
			c0.531,1.12,1.681,1.682,3.45,1.682c1.79,0,2.945-0.562,3.466-1.682C346.046,176.858,346.257,175.227,346.257,172.857z"/>
		<path fill="#00AEEF" d="M368.733,181.796c0,0.746-0.462,1.118-1.386,1.118h-1.814c-0.462,0-0.853-0.061-1.171-0.183
			c-0.32-0.122-0.642-0.37-0.967-0.745l-5.045-6.163h-0.427v5.456c0,1.09-0.546,1.635-1.636,1.635h-1.298
			c-0.59,0-1.042-0.124-1.351-0.374c-0.31-0.252-0.464-0.671-0.464-1.261v-17.007c0-0.628,0.175-1.041,0.522-1.236
			c0.35-0.197,0.779-0.297,1.292-0.297h5.618c1.652,0,2.812,0.089,3.48,0.267c0.668,0.177,1.322,0.579,1.961,1.21
			c0.58,0.56,1.003,1.322,1.268,2.286c0.267,0.963,0.398,2.104,0.398,3.422c0,3.174-1.238,5.067-3.716,5.676l4.247,4.955
			C368.572,180.949,368.733,181.362,368.733,181.796z M362.997,169.688v-0.032c0-1.611-0.212-2.515-0.635-2.714
			c-0.265-0.126-0.928-0.191-1.989-0.191h-0.149c-1.031,0-1.798,0.013-2.3,0.031v5.014h3.083c0.629,0,1.076-0.053,1.341-0.154
			c0.267-0.104,0.441-0.293,0.525-0.569C362.956,170.799,362.997,170.335,362.997,169.688z"/>
		<path fill="#00AEEF" d="M392.503,181.279c0,1.09-0.555,1.635-1.666,1.635h-1.27c-0.59,0-1.035-0.122-1.34-0.366
			c-0.306-0.248-0.458-0.671-0.458-1.269v-7.214c-0.669,0.021-1.78,0.03-3.332,0.03c-0.395,0-0.755,0-1.084,0
			c-0.33,0-0.729-0.002-1.196-0.006c-0.466-0.006-0.813-0.012-1.039-0.024v7.214c0,1.09-0.546,1.635-1.636,1.635h-1.298
			c-0.59,0-1.042-0.124-1.351-0.374c-0.31-0.252-0.464-0.671-0.464-1.261v-17.007c0-0.628,0.175-1.041,0.522-1.236
			c0.35-0.197,0.779-0.297,1.292-0.297h1.298c1.09,0,1.636,0.513,1.636,1.533v5.989c0.669-0.021,1.775-0.028,3.319-0.028
			c1.552,0,2.663,0.008,3.332,0.028v-5.989c0-0.628,0.173-1.041,0.517-1.236c0.344-0.197,0.771-0.297,1.281-0.297h1.27
			c1.111,0,1.666,0.513,1.666,1.533V181.279z"/>
		<path fill="#00AEEF" d="M407.886,181.381c0,1.022-0.545,1.533-1.635,1.533h-9.395c-0.59,0-1.041-0.124-1.351-0.374
			c-0.31-0.252-0.464-0.671-0.464-1.261v-17.007c0-0.628,0.175-1.041,0.522-1.236c0.351-0.197,0.779-0.297,1.292-0.297h9.395
			c1.09,0,1.635,0.513,1.635,1.533v0.798c0,0.472-0.102,0.875-0.309,1.208c-0.206,0.336-0.649,0.503-1.326,0.503
			c-0.788,0-1.422-0.007-1.904-0.015c-0.48-0.01-1.042-0.021-1.681-0.028c-0.639-0.013-1.206-0.021-1.702-0.032
			c-0.497-0.009-0.89-0.013-1.174-0.013v3.863c0.708-0.019,1.448-0.037,2.219-0.051c0.773-0.017,1.309-0.024,1.609-0.031
			c0.299-0.006,0.946-0.006,1.938-0.006c1.11,0,1.666,0.574,1.666,1.726v0.398c0,1.139-0.556,1.709-1.666,1.709
			c-0.825,0-1.706-0.009-2.641-0.028c-0.934-0.021-1.975-0.041-3.126-0.06v4.75c0.787-0.021,1.635-0.036,2.545-0.053
			c0.909-0.015,1.525-0.024,1.851-0.028c0.323-0.007,1.014-0.009,2.065-0.009c0.677,0,1.12,0.165,1.326,0.495
			c0.207,0.329,0.309,0.734,0.309,1.216V181.381z"/>
		<path fill="#00AEEF" d="M427.838,181.706c0,0.806-0.472,1.208-1.416,1.208h-1.666c-0.521,0-0.905-0.109-1.151-0.329
			c-0.246-0.224-0.441-0.525-0.59-0.907l-0.944-2.478c-0.962,0.018-2.172,0.028-3.627,0.028c-1.651,0-2.855-0.011-3.614-0.028
			l-0.826,2.27c-0.175,0.492-0.387,0.854-0.633,1.091s-0.659,0.354-1.238,0.354h-1.388c-0.629,0-1.042-0.089-1.239-0.272
			c-0.195-0.181-0.295-0.443-0.295-0.789c0-0.167,0.09-0.496,0.267-0.988l6.223-16.71c0.128-0.342,0.271-0.626,0.428-0.846
			c0.158-0.222,0.37-0.391,0.635-0.509c0.267-0.118,0.614-0.179,1.047-0.179h1.239c0.618,0,1.082,0.122,1.388,0.362
			c0.303,0.239,0.549,0.622,0.736,1.143l6.548,17.007C427.799,181.368,427.838,181.56,427.838,181.706z M420.744,175.63
			l-2.331-6.694l-2.314,6.694c0.363-0.011,0.699-0.019,1.011-0.022c0.31-0.004,0.755-0.008,1.334-0.008
			c0.541,0,0.963,0.004,1.268,0.008C420.017,175.611,420.36,175.619,420.744,175.63z"/>
		<path fill="#00AEEF" d="M441.187,181.381c0,1.022-0.541,1.533-1.623,1.533h-8.523c-0.591,0-1.042-0.124-1.352-0.374
			c-0.309-0.252-0.463-0.671-0.463-1.261v-17.007c0-0.628,0.175-1.041,0.522-1.236c0.35-0.197,0.779-0.297,1.292-0.297h1.297
			c1.091,0,1.636,0.513,1.636,1.533v14.661c2.047-0.039,3.91-0.06,5.591-0.06c1.082,0,1.623,0.57,1.623,1.711V181.381z"/>
		<path fill="#00AEEF" d="M454.81,165.07c0,1.139-0.541,1.711-1.621,1.711c-1.151,0-2.533-0.019-4.146-0.06v14.558
			c0,1.09-0.545,1.635-1.635,1.635h-1.298c-0.601,0-1.05-0.122-1.351-0.366c-0.3-0.248-0.45-0.671-0.45-1.269v-14.558
			c-1.61,0.041-2.992,0.06-4.144,0.06c-0.688,0-1.133-0.167-1.334-0.503c-0.202-0.333-0.304-0.736-0.304-1.208v-0.798
			c0-1.021,0.548-1.533,1.638-1.533h13.023c1.08,0,1.621,0.513,1.621,1.533V165.07z"/>
		<path fill="#00AEEF" d="M472.125,181.279c0,1.09-0.556,1.635-1.666,1.635h-1.27c-0.59,0-1.035-0.122-1.341-0.366
			c-0.305-0.248-0.457-0.671-0.457-1.269v-7.214c-0.67,0.021-1.78,0.03-3.332,0.03c-0.396,0-0.755,0-1.085,0
			c-0.329,0-0.728-0.002-1.196-0.006c-0.466-0.006-0.813-0.012-1.039-0.024v7.214c0,1.09-0.545,1.635-1.636,1.635h-1.298
			c-0.59,0-1.041-0.124-1.351-0.374c-0.31-0.252-0.464-0.671-0.464-1.261v-17.007c0-0.628,0.175-1.041,0.523-1.236
			c0.35-0.197,0.778-0.297,1.291-0.297h1.298c1.091,0,1.636,0.513,1.636,1.533v5.989c0.669-0.021,1.775-0.028,3.32-0.028
			c1.552,0,2.662,0.008,3.332,0.028v-5.989c0-0.628,0.173-1.041,0.517-1.236c0.344-0.197,0.771-0.297,1.281-0.297h1.27
			c1.11,0,1.666,0.513,1.666,1.533V181.279z"/>
		<path fill="#00AEEF" d="M490.769,164.008c0,0.364-0.1,0.708-0.295,1.034l-5.93,10.057v6.181c0,1.09-0.541,1.635-1.621,1.635
			h-1.314c-0.59,0-1.035-0.122-1.341-0.366c-0.305-0.248-0.458-0.671-0.458-1.269v-5.944l-6.017-10.293
			c-0.216-0.415-0.325-0.757-0.325-1.034c0-0.461,0.16-0.789,0.479-0.98c0.319-0.19,0.661-0.288,1.025-0.288h1.638
			c0.482,0,0.854,0.087,1.121,0.26c0.264,0.171,0.49,0.43,0.677,0.773l3.807,6.607l3.907-6.636c0.197-0.346,0.426-0.599,0.686-0.761
			c0.261-0.163,0.637-0.244,1.129-0.244h1.326c0.492,0,0.867,0.122,1.121,0.361C490.641,163.341,490.769,163.645,490.769,164.008z"
			/>
		<path fill="#00AEEF" d="M511.764,181.381c0,1.022-0.541,1.533-1.623,1.533h-8.523c-0.59,0-1.042-0.124-1.351-0.374
			c-0.31-0.252-0.464-0.671-0.464-1.261v-17.007c0-0.628,0.175-1.041,0.522-1.236c0.35-0.197,0.779-0.297,1.292-0.297h1.298
			c1.09,0,1.635,0.513,1.635,1.533v14.661c2.047-0.039,3.91-0.06,5.591-0.06c1.082,0,1.623,0.57,1.623,1.711V181.381z"/>
		<path fill="#00AEEF" d="M518.44,181.279c0,1.09-0.541,1.635-1.624,1.635h-1.312c-0.59,0-1.038-0.122-1.343-0.366
			c-0.306-0.248-0.458-0.671-0.458-1.269v-17.007c0-0.628,0.175-1.041,0.525-1.236c0.348-0.197,0.772-0.297,1.275-0.297h1.312
			c1.083,0,1.624,0.513,1.624,1.533V181.279z"/>
		<path fill="#00AEEF" d="M538.617,163.801c0,0.218-0.079,0.545-0.235,0.988l-6.225,16.622c-0.195,0.521-0.438,0.901-0.723,1.144
			s-0.746,0.359-1.388,0.359h-1.399c-0.61,0-1.06-0.113-1.351-0.346c-0.289-0.231-0.543-0.616-0.759-1.157l-6.52-16.886
			c-0.077-0.257-0.118-0.448-0.118-0.576c0-0.472,0.148-0.791,0.443-0.958s0.618-0.252,0.973-0.252h1.845
			c0.875,0,1.469,0.423,1.784,1.269l4.47,12.255l4.32-12.077c0.167-0.482,0.385-0.845,0.648-1.085
			c0.265-0.239,0.684-0.361,1.254-0.361h1.475c0.639,0,1.05,0.087,1.232,0.26C538.526,163.17,538.617,163.438,538.617,163.801z"/>
		<path fill="#00AEEF" d="M544.785,181.279c0,1.09-0.541,1.635-1.623,1.635h-1.312c-0.59,0-1.037-0.122-1.343-0.366
			c-0.305-0.248-0.457-0.671-0.457-1.269v-17.007c0-0.628,0.175-1.041,0.524-1.236c0.348-0.197,0.773-0.297,1.275-0.297h1.312
			c1.082,0,1.623,0.513,1.623,1.533V181.279z"/>
		<path fill="#00AEEF" d="M564.52,181.279c0,1.09-0.546,1.635-1.638,1.635h-0.899c-0.481,0-0.864-0.045-1.149-0.138
			c-0.284-0.094-0.562-0.297-0.826-0.614c-1.888-2.438-4.523-6.085-7.904-10.94v10.058c0,1.09-0.556,1.635-1.666,1.635h-1.18
			c-0.59,0-1.042-0.124-1.352-0.374c-0.309-0.252-0.463-0.671-0.463-1.261v-17.007c0-0.628,0.175-1.041,0.522-1.236
			c0.35-0.197,0.779-0.297,1.292-0.297h0.795c0.305,0,0.552,0.016,0.738,0.044c0.186,0.029,0.368,0.098,0.545,0.208
			c0.178,0.107,0.349,0.274,0.518,0.5c1.021,1.339,3.689,5.017,8.006,11.034v-10.253c0-0.628,0.176-1.041,0.525-1.236
			c0.348-0.197,0.779-0.297,1.289-0.297h1.209c1.092,0,1.638,0.513,1.638,1.533V181.279z"/>
		<path fill="#00AEEF" d="M582.057,180.896c0,0.521-0.116,0.915-0.347,1.186c-0.231,0.271-0.626,0.49-1.188,0.657
			c-1.336,0.383-2.968,0.574-4.896,0.574c-1.798,0-3.293-0.214-4.483-0.642c-1.19-0.429-2.117-1.067-2.787-1.918
			c-0.669-0.851-1.137-1.908-1.407-3.178c-0.271-1.269-0.407-2.772-0.407-4.512c0-2.852,0.325-5.041,0.975-6.562
			c0.649-1.525,1.617-2.566,2.905-3.128c1.287-0.562,3.022-0.841,5.205-0.841c0.826,0,1.599,0.019,2.317,0.051
			c0.716,0.037,1.444,0.086,2.181,0.155c0.718,0.061,1.21,0.19,1.477,0.398c0.265,0.207,0.396,0.526,0.396,0.96v1.001
			c0,0.669-0.1,1.127-0.301,1.371c-0.201,0.248-0.603,0.37-1.202,0.37c-0.246,0-0.753-0.041-1.52-0.118
			c-0.669-0.077-1.583-0.118-2.744-0.118c-1.534,0-2.59,0.122-3.17,0.371c-0.521,0.224-0.903,0.59-1.143,1.098
			c-0.242,0.505-0.389,1.095-0.443,1.771c-0.054,0.671-0.082,1.64-0.082,2.896v0.354c0,1.318,0.045,2.344,0.135,3.084
			c0.087,0.736,0.319,1.375,0.691,1.917c0.374,0.541,0.954,0.878,1.741,1.017c0.462,0.077,1.219,0.118,2.271,0.118
			c0.079,0,0.443-0.041,1.092-0.118v-4.809h-2.418c-0.67,0-1.109-0.167-1.32-0.501c-0.212-0.333-0.317-0.736-0.317-1.208v-0.398
			c0-0.482,0.104-0.892,0.311-1.225c0.206-0.334,0.647-0.501,1.327-0.501h5.5c1.103,0,1.652,0.525,1.652,1.579V180.896z"/>
		<path fill="#00AEEF" d="M332.408,202.564c0,1.14-0.558,1.711-1.668,1.711c-1.003,0-1.658-0.002-1.97-0.006
			c-0.309-0.006-0.855-0.017-1.644-0.03c-0.787-0.015-1.533-0.032-2.241-0.051v3.832c1.967-0.038,3.727-0.057,5.281-0.057
			c1.09,0,1.635,0.573,1.635,1.725v0.399c0,0.472-0.102,0.874-0.309,1.208c-0.206,0.334-0.649,0.5-1.326,0.5
			c-0.749,0-1.545-0.008-2.391-0.028c-0.847-0.021-1.809-0.04-2.891-0.059v7.064c0,1.091-0.545,1.636-1.638,1.636h-1.298
			c-0.59,0-1.039-0.124-1.349-0.374c-0.31-0.253-0.464-0.672-0.464-1.262v-17.006c0-0.629,0.173-1.042,0.522-1.236
			c0.349-0.198,0.779-0.298,1.29-0.298h8.79c1.11,0,1.668,0.513,1.668,1.534V202.564z"/>
		<path fill="#00AEEF" d="M351.153,210.352c0,2.083-0.276,3.923-0.826,5.509c-0.551,1.587-1.492,2.849-2.825,3.784
			c-1.332,0.932-3.114,1.399-5.346,1.399c-1.681,0-3.103-0.272-4.262-0.817c-1.159-0.546-2.087-1.307-2.781-2.279
			c-0.691-0.972-1.186-2.095-1.48-3.364c-0.295-1.265-0.443-2.677-0.443-4.231c0-1.582,0.146-3.002,0.436-4.264
			c0.29-1.257,0.78-2.371,1.475-3.346c0.693-0.975,1.617-1.731,2.772-2.272s2.584-0.81,4.284-0.81c2.231,0,4.014,0.464,5.346,1.394
			c1.333,0.93,2.274,2.187,2.825,3.775C350.877,206.418,351.153,208.257,351.153,210.352z M346.257,210.352
			c0-1.033-0.045-1.989-0.132-2.876c-0.09-0.883-0.257-1.566-0.503-2.051c-0.51-1.101-1.666-1.651-3.466-1.651
			c-1.78,0-2.93,0.551-3.45,1.651c-0.423,0.916-0.635,2.558-0.635,4.927c0,2.35,0.212,3.983,0.635,4.896
			c0.531,1.121,1.681,1.683,3.45,1.683c1.79,0,2.945-0.562,3.466-1.683C346.046,214.354,346.257,212.722,346.257,210.352z"/>
		<path fill="#00AEEF" d="M368.733,219.29c0,0.747-0.462,1.119-1.386,1.119h-1.814c-0.462,0-0.853-0.062-1.171-0.183
			c-0.32-0.122-0.642-0.371-0.967-0.745l-5.045-6.163h-0.427v5.455c0,1.091-0.546,1.636-1.636,1.636h-1.298
			c-0.59,0-1.042-0.124-1.351-0.374c-0.31-0.253-0.464-0.672-0.464-1.262v-17.006c0-0.629,0.175-1.042,0.522-1.236
			c0.35-0.198,0.779-0.298,1.292-0.298h5.618c1.652,0,2.812,0.09,3.48,0.267c0.668,0.177,1.322,0.58,1.961,1.211
			c0.58,0.559,1.003,1.322,1.268,2.286c0.267,0.962,0.398,2.104,0.398,3.422c0,3.173-1.238,5.067-3.716,5.675l4.247,4.956
			C368.572,218.444,368.733,218.857,368.733,219.29z M362.997,207.183v-0.032c0-1.611-0.212-2.515-0.635-2.714
			c-0.265-0.126-0.928-0.191-1.989-0.191h-0.149c-1.031,0-1.798,0.013-2.3,0.03v5.015h3.083c0.629,0,1.076-0.053,1.341-0.154
			c0.267-0.104,0.441-0.293,0.525-0.569C362.956,208.293,362.997,207.829,362.997,207.183z"/>
		<path fill="#00AEEF" d="M389.421,214.068c0,2.075-0.201,3.484-0.604,4.233c-0.375,0.659-0.909,1.163-1.609,1.518
			c-0.697,0.354-1.465,0.586-2.299,0.695c-0.836,0.106-1.727,0.161-2.671,0.161c-1.415,0-2.915-0.069-4.497-0.205
			c-0.708-0.062-1.196-0.198-1.467-0.415c-0.271-0.216-0.407-0.529-0.407-0.944v-1.001c0-0.68,0.104-1.139,0.312-1.379
			c0.205-0.242,0.604-0.362,1.194-0.362c0.402,0,1.026,0.041,1.873,0.118c0.806,0.077,1.951,0.118,3.436,0.118
			c0.736,0,1.231-0.028,1.481-0.082c0.252-0.053,0.417-0.179,0.494-0.374c0.079-0.199,0.118-0.558,0.118-1.078v-0.854
			c0-0.434-0.049-0.736-0.146-0.907c-0.1-0.173-0.336-0.333-0.708-0.479c-1.023-0.413-2.301-0.924-3.835-1.534
			c-1.18-0.501-2.034-0.948-2.559-1.343c-0.527-0.393-0.896-0.909-1.106-1.548c-0.212-0.639-0.317-1.583-0.317-2.832
			c0-1.043,0.107-1.93,0.325-2.662c0.216-0.732,0.629-1.337,1.239-1.814c0.608-0.477,1.479-0.794,2.609-0.95
			c0.56-0.079,1.534-0.118,2.919-0.118h0.458c0.866,0,2.026,0.049,3.48,0.148c0.718,0.039,1.215,0.169,1.489,0.391
			c0.276,0.22,0.415,0.541,0.415,0.964v0.975c0,0.669-0.104,1.125-0.312,1.373c-0.205,0.244-0.608,0.366-1.208,0.366
			c-0.167,0-0.627-0.024-1.38-0.073c-0.752-0.049-1.379-0.073-1.881-0.073c-0.362-0.01-0.708-0.017-1.031-0.022
			c-0.324-0.006-0.719-0.006-1.18-0.006c-0.56,0-0.918,0.1-1.07,0.301s-0.229,0.574-0.229,1.115v0.366
			c0,0.435,0.047,0.736,0.141,0.907c0.094,0.173,0.332,0.342,0.716,0.508c0.345,0.139,0.806,0.324,1.386,0.554
			c0.58,0.232,0.954,0.383,1.121,0.452c1.642,0.679,2.803,1.216,3.48,1.615c0.678,0.398,1.153,0.9,1.424,1.509
			C389.287,212.008,389.421,212.898,389.421,214.068z"/>
		<path fill="#00AEEF" d="M408.905,210.352c0,2.083-0.276,3.923-0.826,5.509c-0.551,1.587-1.493,2.849-2.825,3.784
			c-1.333,0.932-3.114,1.399-5.346,1.399c-1.681,0-3.103-0.272-4.262-0.817c-1.16-0.546-2.088-1.307-2.781-2.279
			c-0.691-0.972-1.186-2.095-1.48-3.364c-0.295-1.265-0.444-2.677-0.444-4.231c0-1.582,0.146-3.002,0.436-4.264
			c0.291-1.257,0.781-2.371,1.475-3.346c0.694-0.975,1.617-1.731,2.773-2.272c1.155-0.541,2.583-0.81,4.284-0.81
			c2.231,0,4.013,0.464,5.346,1.394c1.332,0.93,2.274,2.187,2.825,3.775C408.629,206.418,408.905,208.257,408.905,210.352z
			 M404.009,210.352c0-1.033-0.045-1.989-0.132-2.876c-0.09-0.883-0.257-1.566-0.503-2.051c-0.511-1.101-1.666-1.651-3.466-1.651
			c-1.78,0-2.93,0.551-3.45,1.651c-0.424,0.916-0.635,2.558-0.635,4.927c0,2.35,0.211,3.983,0.635,4.896
			c0.53,1.121,1.68,1.683,3.45,1.683c1.79,0,2.945-0.562,3.466-1.683C403.797,214.354,404.009,212.722,404.009,210.352z"/>
		<path fill="#00AEEF" d="M424.895,219.29c0,0.424-0.139,0.745-0.415,0.965c-0.275,0.222-0.771,0.352-1.489,0.391
			c-1.356,0.109-2.517,0.162-3.48,0.162c-1.799,0-3.294-0.213-4.483-0.641c-1.19-0.429-2.118-1.067-2.787-1.918
			s-1.137-1.908-1.408-3.178c-0.27-1.27-0.406-2.772-0.406-4.512c0-2.853,0.325-5.041,0.975-6.562
			c0.648-1.525,1.617-2.567,2.904-3.129c1.288-0.562,3.023-0.84,5.206-0.84c0.874,0,2.036,0.049,3.48,0.148
			c0.718,0.039,1.214,0.169,1.489,0.391c0.276,0.22,0.415,0.541,0.415,0.964v0.975c0,0.669-0.104,1.125-0.312,1.373
			c-0.205,0.244-0.608,0.366-1.208,0.366c-0.188,0-0.655-0.024-1.402-0.073c-0.746-0.049-1.366-0.073-1.858-0.073
			c-1.534,0-2.59,0.122-3.17,0.37c-0.521,0.224-0.903,0.59-1.144,1.099c-0.241,0.505-0.388,1.095-0.443,1.77
			c-0.053,0.672-0.081,1.64-0.081,2.897v0.354c0,1.318,0.045,2.344,0.135,3.084c0.087,0.736,0.318,1.375,0.691,1.916
			c0.374,0.541,0.954,0.879,1.741,1.018c0.462,0.077,1.218,0.117,2.271,0.117c0.197,0,0.669-0.023,1.415-0.072
			c0.749-0.049,1.363-0.073,1.846-0.073c0.6,0,1.003,0.122,1.208,0.366c0.207,0.248,0.312,0.707,0.312,1.387V219.29z"/>
		<path fill="#00AEEF" d="M431.324,218.773c0,1.091-0.541,1.636-1.623,1.636h-1.312c-0.59,0-1.037-0.122-1.343-0.366
			c-0.305-0.248-0.457-0.671-0.457-1.27v-17.006c0-0.629,0.175-1.042,0.524-1.236c0.349-0.198,0.773-0.298,1.275-0.298h1.312
			c1.082,0,1.623,0.513,1.623,1.534V218.773z"/>
		<path fill="#00AEEF" d="M451.925,219.201c0,0.806-0.472,1.208-1.416,1.208h-1.666c-0.521,0-0.905-0.11-1.151-0.329
			c-0.246-0.225-0.441-0.525-0.59-0.908l-0.943-2.478c-0.963,0.019-2.173,0.028-3.627,0.028c-1.652,0-2.856-0.01-3.615-0.028
			l-0.826,2.271c-0.175,0.492-0.386,0.854-0.632,1.091c-0.246,0.235-0.659,0.354-1.239,0.354h-1.388
			c-0.628,0-1.041-0.09-1.238-0.272c-0.195-0.182-0.295-0.443-0.295-0.789c0-0.167,0.089-0.497,0.267-0.989l6.223-16.709
			c0.128-0.342,0.271-0.626,0.427-0.846c0.158-0.222,0.37-0.391,0.635-0.509c0.267-0.118,0.614-0.179,1.048-0.179h1.238
			c0.618,0,1.083,0.122,1.388,0.361c0.303,0.24,0.549,0.623,0.736,1.144l6.548,17.006
			C451.887,218.863,451.925,219.055,451.925,219.201z M444.832,213.125l-2.332-6.695l-2.314,6.695
			c0.364-0.011,0.7-0.019,1.011-0.022c0.31-0.004,0.755-0.009,1.335-0.009c0.541,0,0.962,0.005,1.267,0.009
			C444.104,213.106,444.447,213.114,444.832,213.125z"/>
		<path fill="#00AEEF" d="M465.728,218.875c0,1.023-0.541,1.534-1.624,1.534h-8.523c-0.59,0-1.041-0.124-1.351-0.374
			c-0.309-0.253-0.464-0.672-0.464-1.262v-17.006c0-0.629,0.175-1.042,0.523-1.236c0.35-0.198,0.778-0.298,1.291-0.298h1.298
			c1.091,0,1.636,0.513,1.636,1.534v14.66c2.047-0.038,3.91-0.059,5.59-0.059c1.083,0,1.624,0.569,1.624,1.711V218.875z"/>
		<path fill="#00AEEF" d="M489.775,219.29c0,0.747-0.462,1.119-1.385,1.119h-1.814c-0.462,0-0.853-0.062-1.172-0.183
			c-0.319-0.122-0.641-0.371-0.966-0.745l-5.045-6.163h-0.428v5.455c0,1.091-0.545,1.636-1.636,1.636h-1.298
			c-0.59,0-1.041-0.124-1.351-0.374c-0.31-0.253-0.464-0.672-0.464-1.262v-17.006c0-0.629,0.175-1.042,0.523-1.236
			c0.35-0.198,0.778-0.298,1.291-0.298h5.619c1.651,0,2.811,0.09,3.48,0.267c0.667,0.177,1.322,0.58,1.961,1.211
			c0.58,0.559,1.003,1.322,1.268,2.286c0.266,0.962,0.398,2.104,0.398,3.422c0,3.173-1.239,5.067-3.717,5.675l4.248,4.956
			C489.615,218.444,489.775,218.857,489.775,219.29z M484.039,207.183v-0.032c0-1.611-0.212-2.515-0.635-2.714
			c-0.265-0.126-0.928-0.191-1.989-0.191h-0.148c-1.031,0-1.798,0.013-2.301,0.03v5.015h3.084c0.629,0,1.076-0.053,1.341-0.154
			c0.267-0.104,0.441-0.293,0.524-0.569C483.999,208.293,484.039,207.829,484.039,207.183z"/>
		<path fill="#00AEEF" d="M504.363,218.875c0,1.023-0.545,1.534-1.636,1.534h-9.394c-0.591,0-1.042-0.124-1.351-0.374
			c-0.31-0.253-0.465-0.672-0.465-1.262v-17.006c0-0.629,0.176-1.042,0.523-1.236c0.35-0.198,0.779-0.298,1.292-0.298h9.394
			c1.091,0,1.636,0.513,1.636,1.534v0.797c0,0.473-0.102,0.875-0.31,1.209c-0.205,0.336-0.648,0.502-1.326,0.502
			c-0.787,0-1.422-0.006-1.904-0.014c-0.479-0.011-1.041-0.021-1.68-0.028c-0.639-0.013-1.207-0.021-1.703-0.033
			c-0.496-0.008-0.889-0.012-1.174-0.012v3.862c0.708-0.018,1.449-0.036,2.22-0.051c0.772-0.016,1.308-0.024,1.609-0.03
			c0.299-0.006,0.945-0.006,1.938-0.006c1.11,0,1.666,0.573,1.666,1.725v0.399c0,1.139-0.556,1.708-1.666,1.708
			c-0.826,0-1.707-0.008-2.641-0.028s-1.976-0.04-3.127-0.059v4.75c0.787-0.021,1.636-0.037,2.545-0.053
			c0.909-0.015,1.525-0.024,1.852-0.029c0.323-0.006,1.013-0.008,2.064-0.008c0.678,0,1.121,0.165,1.326,0.494
			c0.208,0.33,0.31,0.734,0.31,1.217V218.875z"/>
		<path fill="#00AEEF" d="M519.423,214.068c0,2.075-0.201,3.484-0.604,4.233c-0.374,0.659-0.909,1.163-1.609,1.518
			c-0.697,0.354-1.464,0.586-2.298,0.695c-0.837,0.106-1.728,0.161-2.672,0.161c-1.415,0-2.915-0.069-4.497-0.205
			c-0.708-0.062-1.196-0.198-1.467-0.415c-0.271-0.216-0.407-0.529-0.407-0.944v-1.001c0-0.68,0.104-1.139,0.312-1.379
			c0.205-0.242,0.604-0.362,1.194-0.362c0.402,0,1.027,0.041,1.873,0.118c0.806,0.077,1.951,0.118,3.436,0.118
			c0.737,0,1.231-0.028,1.481-0.082c0.252-0.053,0.417-0.179,0.494-0.374c0.079-0.199,0.118-0.558,0.118-1.078v-0.854
			c0-0.434-0.049-0.736-0.146-0.907c-0.1-0.173-0.336-0.333-0.708-0.479c-1.023-0.413-2.301-0.924-3.834-1.534
			c-1.181-0.501-2.034-0.948-2.56-1.343c-0.526-0.393-0.895-0.909-1.106-1.548s-0.317-1.583-0.317-2.832
			c0-1.043,0.107-1.93,0.325-2.662c0.216-0.732,0.629-1.337,1.239-1.814c0.608-0.477,1.479-0.794,2.609-0.95
			c0.56-0.079,1.534-0.118,2.92-0.118h0.457c0.867,0,2.026,0.049,3.48,0.148c0.719,0.039,1.215,0.169,1.489,0.391
			c0.276,0.22,0.415,0.541,0.415,0.964v0.975c0,0.669-0.104,1.125-0.312,1.373c-0.205,0.244-0.608,0.366-1.208,0.366
			c-0.167,0-0.627-0.024-1.379-0.073c-0.753-0.049-1.38-0.073-1.882-0.073c-0.362-0.01-0.708-0.017-1.031-0.022
			s-0.718-0.006-1.18-0.006c-0.56,0-0.918,0.1-1.07,0.301s-0.228,0.574-0.228,1.115v0.366c0,0.435,0.047,0.736,0.14,0.907
			c0.094,0.173,0.332,0.342,0.717,0.508c0.344,0.139,0.806,0.324,1.385,0.554c0.58,0.232,0.954,0.383,1.121,0.452
			c1.642,0.679,2.803,1.216,3.48,1.615c0.678,0.398,1.153,0.9,1.424,1.509C519.288,212.008,519.423,212.898,519.423,214.068z"/>
		<path fill="#00AEEF" d="M535.985,207.419c0,1.533-0.224,2.807-0.672,3.824c-0.447,1.019-1.161,1.758-2.144,2.222
			c-0.61,0.274-1.221,0.455-1.831,0.536c-0.608,0.086-1.489,0.127-2.639,0.127h-2.508v4.646c0,1.091-0.545,1.636-1.636,1.636h-1.298
			c-0.59,0-1.041-0.124-1.351-0.374c-0.31-0.253-0.464-0.672-0.464-1.262v-17.006c0-0.629,0.175-1.042,0.523-1.236
			c0.35-0.198,0.778-0.298,1.291-0.298h5.619c1.651,0,2.811,0.09,3.48,0.267c0.667,0.177,1.322,0.58,1.961,1.211
			c0.58,0.559,1.003,1.322,1.268,2.286C535.853,204.959,535.985,206.101,535.985,207.419z M531.266,207.549v-0.366
			c0-1.634-0.212-2.547-0.635-2.746c-0.254-0.126-0.879-0.191-1.871-0.191h-0.37c-0.982,0-1.715,0.013-2.197,0.03v5.841h3.084h0.028
			c0.905,0,1.461-0.143,1.666-0.428C531.168,209.412,531.266,208.7,531.266,207.549z"/>
		<path fill="#00AEEF" d="M555.309,210.352c0,2.083-0.277,3.923-0.826,5.509c-0.552,1.587-1.493,2.849-2.825,3.784
			c-1.333,0.932-3.115,1.399-5.347,1.399c-1.68,0-3.102-0.272-4.262-0.817c-1.159-0.546-2.087-1.307-2.78-2.279
			c-0.691-0.972-1.186-2.095-1.481-3.364c-0.295-1.265-0.443-2.677-0.443-4.231c0-1.582,0.146-3.002,0.436-4.264
			c0.291-1.257,0.781-2.371,1.475-3.346c0.694-0.975,1.617-1.731,2.772-2.272c1.156-0.541,2.584-0.81,4.284-0.81
			c2.231,0,4.014,0.464,5.347,1.394c1.332,0.93,2.273,2.187,2.825,3.775C555.031,206.418,555.309,208.257,555.309,210.352z
			 M550.412,210.352c0-1.033-0.045-1.989-0.133-2.876c-0.089-0.883-0.256-1.566-0.502-2.051c-0.511-1.101-1.666-1.651-3.467-1.651
			c-1.779,0-2.929,0.551-3.45,1.651c-0.423,0.916-0.634,2.558-0.634,4.927c0,2.35,0.211,3.983,0.634,4.896
			c0.531,1.121,1.681,1.683,3.45,1.683c1.79,0,2.946-0.562,3.467-1.683C550.2,214.354,550.412,212.722,550.412,210.352z"/>
		<path fill="#00AEEF" d="M574.407,218.773c0,1.091-0.545,1.636-1.637,1.636h-0.899c-0.482,0-0.864-0.045-1.149-0.139
			c-0.285-0.093-0.562-0.297-0.826-0.614c-1.888-2.437-4.523-6.084-7.904-10.939v10.057c0,1.091-0.556,1.636-1.666,1.636h-1.181
			c-0.59,0-1.041-0.124-1.351-0.374c-0.309-0.253-0.464-0.672-0.464-1.262v-17.006c0-0.629,0.175-1.042,0.522-1.236
			c0.351-0.198,0.779-0.298,1.292-0.298h0.796c0.305,0,0.551,0.017,0.738,0.045c0.186,0.028,0.368,0.098,0.545,0.208
			c0.177,0.107,0.348,0.274,0.517,0.5c1.021,1.339,3.69,5.017,8.007,11.033v-10.252c0-0.629,0.175-1.042,0.525-1.236
			c0.348-0.198,0.778-0.298,1.289-0.298h1.209c1.092,0,1.637,0.513,1.637,1.534V218.773z"/>
		<path fill="#00AEEF" d="M589.983,214.068c0,2.075-0.201,3.484-0.604,4.233c-0.375,0.659-0.91,1.163-1.609,1.518
			c-0.698,0.354-1.465,0.586-2.299,0.695c-0.836,0.106-1.727,0.161-2.671,0.161c-1.416,0-2.915-0.069-4.498-0.205
			c-0.708-0.062-1.195-0.198-1.466-0.415c-0.271-0.216-0.407-0.529-0.407-0.944v-1.001c0-0.68,0.104-1.139,0.312-1.379
			c0.205-0.242,0.604-0.362,1.193-0.362c0.403,0,1.027,0.041,1.874,0.118c0.806,0.077,1.95,0.118,3.436,0.118
			c0.736,0,1.23-0.028,1.481-0.082c0.252-0.053,0.417-0.179,0.494-0.374c0.079-0.199,0.118-0.558,0.118-1.078v-0.854
			c0-0.434-0.049-0.736-0.146-0.907c-0.101-0.173-0.336-0.333-0.708-0.479c-1.023-0.413-2.301-0.924-3.835-1.534
			c-1.18-0.501-2.034-0.948-2.559-1.343c-0.527-0.393-0.896-0.909-1.106-1.548c-0.212-0.639-0.318-1.583-0.318-2.832
			c0-1.043,0.108-1.93,0.326-2.662c0.216-0.732,0.629-1.337,1.238-1.814c0.608-0.477,1.479-0.794,2.61-0.95
			c0.56-0.079,1.534-0.118,2.919-0.118h0.458c0.866,0,2.026,0.049,3.48,0.148c0.718,0.039,1.214,0.169,1.489,0.391
			c0.276,0.22,0.415,0.541,0.415,0.964v0.975c0,0.669-0.104,1.125-0.312,1.373c-0.205,0.244-0.608,0.366-1.208,0.366
			c-0.167,0-0.627-0.024-1.38-0.073c-0.752-0.049-1.379-0.073-1.881-0.073c-0.362-0.01-0.708-0.017-1.032-0.022
			c-0.323-0.006-0.718-0.006-1.18-0.006c-0.56,0-0.917,0.1-1.069,0.301c-0.153,0.201-0.229,0.574-0.229,1.115v0.366
			c0,0.435,0.047,0.736,0.141,0.907c0.094,0.173,0.332,0.342,0.716,0.508c0.344,0.139,0.806,0.324,1.386,0.554
			c0.579,0.232,0.954,0.383,1.121,0.452c1.641,0.679,2.803,1.216,3.48,1.615c0.677,0.398,1.153,0.9,1.424,1.509
			C589.85,212.008,589.983,212.898,589.983,214.068z"/>
		<path fill="#00AEEF" d="M596.843,218.773c0,1.091-0.541,1.636-1.623,1.636h-1.312c-0.59,0-1.037-0.122-1.342-0.366
			c-0.306-0.248-0.458-0.671-0.458-1.27v-17.006c0-0.629,0.175-1.042,0.524-1.236c0.349-0.198,0.773-0.298,1.275-0.298h1.312
			c1.082,0,1.623,0.513,1.623,1.534V218.773z"/>
		<path fill="#00AEEF" d="M614.248,214.245c0,0.973-0.12,1.835-0.362,2.588c-0.24,0.753-0.627,1.407-1.157,1.969
			c-0.374,0.403-0.815,0.725-1.329,0.961c-0.51,0.235-1.092,0.402-1.747,0.5c-0.652,0.098-1.418,0.146-2.292,0.146h-5.796
			c-0.601,0-1.052-0.122-1.356-0.366c-0.306-0.248-0.458-0.671-0.458-1.27v-17.006c0-0.629,0.175-1.042,0.522-1.236
			c0.351-0.198,0.779-0.298,1.292-0.298h3.922c1.79,0,2.984,0.031,3.585,0.09c0.6,0.059,1.145,0.212,1.637,0.456
			c0.845,0.374,1.475,0.992,1.888,1.851c0.413,0.862,0.619,1.867,0.619,3.019c0,0.834-0.1,1.559-0.302,2.167
			c-0.201,0.608-0.535,1.146-0.996,1.609c0.825,0.421,1.422,1.029,1.786,1.818C614.064,212.036,614.248,213.037,614.248,214.245z
			 M608.658,205.971c0-0.627-0.08-1.081-0.236-1.355c-0.118-0.216-0.261-0.352-0.427-0.406c-0.167-0.054-0.469-0.082-0.899-0.082
			h-0.68c-0.757,0-1.401,0.013-1.933,0.031v4.408h1.27c0.678,0,1.184-0.029,1.518-0.086c0.492-0.069,0.846-0.256,1.062-0.562
			C608.55,207.614,608.658,206.965,608.658,205.971z M609.528,214.245c0-0.648-0.073-1.086-0.222-1.313
			c-0.148-0.224-0.374-0.373-0.677-0.439c-0.572-0.139-1.467-0.208-2.686-0.208h-1.461v4.203c0.385,0.021,0.999,0.028,1.844,0.028
			c0.887,0,1.563-0.049,2.036-0.146c0.384-0.098,0.673-0.301,0.87-0.606C609.429,215.46,609.528,214.953,609.528,214.245z"/>
		<path fill="#00AEEF" d="M621.286,218.773c0,1.091-0.541,1.636-1.623,1.636h-1.312c-0.59,0-1.037-0.122-1.342-0.366
			c-0.306-0.248-0.458-0.671-0.458-1.27v-17.006c0-0.629,0.175-1.042,0.524-1.236c0.348-0.198,0.773-0.298,1.275-0.298h1.312
			c1.082,0,1.623,0.513,1.623,1.534V218.773z"/>
		<path fill="#00AEEF" d="M635.904,218.875c0,1.023-0.541,1.534-1.623,1.534h-8.523c-0.59,0-1.042-0.124-1.351-0.374
			c-0.31-0.253-0.464-0.672-0.464-1.262v-17.006c0-0.629,0.175-1.042,0.522-1.236c0.35-0.198,0.779-0.298,1.292-0.298h1.298
			c1.09,0,1.635,0.513,1.635,1.534v14.66c2.047-0.038,3.91-0.059,5.591-0.059c1.082,0,1.623,0.569,1.623,1.711V218.875z"/>
		<path fill="#00AEEF" d="M642.583,218.773c0,1.091-0.541,1.636-1.624,1.636h-1.312c-0.59,0-1.038-0.122-1.343-0.366
			c-0.306-0.248-0.458-0.671-0.458-1.27v-17.006c0-0.629,0.175-1.042,0.525-1.236c0.348-0.198,0.772-0.298,1.275-0.298h1.312
			c1.083,0,1.624,0.513,1.624,1.534V218.773z"/>
		<path fill="#00AEEF" d="M660.192,202.564c0,1.14-0.541,1.711-1.621,1.711c-1.151,0-2.532-0.018-4.146-0.059v14.557
			c0,1.091-0.545,1.636-1.636,1.636h-1.298c-0.6,0-1.05-0.122-1.351-0.366c-0.299-0.248-0.449-0.671-0.449-1.27v-14.557
			c-1.611,0.041-2.992,0.059-4.144,0.059c-0.688,0-1.134-0.166-1.335-0.502c-0.201-0.334-0.303-0.736-0.303-1.209v-0.797
			c0-1.021,0.547-1.534,1.638-1.534h13.022c1.08,0,1.621,0.513,1.621,1.534V202.564z"/>
		<path fill="#00AEEF" d="M678.535,201.503c0,0.364-0.1,0.708-0.295,1.033l-5.93,10.058v6.18c0,1.091-0.541,1.636-1.621,1.636
			h-1.314c-0.59,0-1.035-0.122-1.34-0.366c-0.306-0.248-0.458-0.671-0.458-1.27v-5.943l-6.018-10.294
			c-0.215-0.415-0.325-0.757-0.325-1.033c0-0.462,0.161-0.789,0.48-0.98s0.661-0.289,1.024-0.289h1.638
			c0.482,0,0.854,0.088,1.121,0.261c0.265,0.171,0.49,0.43,0.678,0.773l3.806,6.606l3.908-6.636
			c0.197-0.346,0.425-0.598,0.686-0.761c0.26-0.162,0.637-0.244,1.129-0.244h1.326c0.492,0,0.866,0.122,1.121,0.362
			C678.407,200.836,678.535,201.139,678.535,201.503z"/>
	</g>
</g>
</svg>
