<?xml version="1.0" encoding="UTF-8" standalone="no"?>
<!-- Generator: Adobe Illustrator 21.0.2, SVG Export Plug-In . SVG Version: 6.00 Build 0)  -->

<svg
   xmlns:dc="http://purl.org/dc/elements/1.1/"
   xmlns:cc="http://creativecommons.org/ns#"
   xmlns:rdf="http://www.w3.org/1999/02/22-rdf-syntax-ns#"
   xmlns:svg="http://www.w3.org/2000/svg"
   xmlns="http://www.w3.org/2000/svg"
   xmlns:xlink="http://www.w3.org/1999/xlink"
   xmlns:sodipodi="http://sodipodi.sourceforge.net/DTD/sodipodi-0.dtd"
   xmlns:inkscape="http://www.inkscape.org/namespaces/inkscape"
   version="1.1"
   id="Layer_1"
   x="0px"
   y="0px"
   viewBox="0 0 100.6 193.7"
   xml:space="preserve"
   inkscape:version="0.91 r13725"
   sodipodi:docname="logo-phoenix.svg"
   width="100.6"
   height="193.7"><metadata
     id="metadata41"><rdf:RDF><cc:Work
         rdf:about=""><dc:format>image/svg+xml</dc:format><dc:type
           rdf:resource="http://purl.org/dc/dcmitype/StillImage" /><dc:title></dc:title></cc:Work></rdf:RDF></metadata><defs
     id="defs39" /><sodipodi:namedview
     pagecolor="#ffffff"
     bordercolor="#666666"
     borderopacity="1"
     objecttolerance="10"
     gridtolerance="10"
     guidetolerance="10"
     inkscape:pageopacity="0"
     inkscape:pageshadow="2"
     inkscape:window-width="1515"
     inkscape:window-height="1417"
     id="namedview37"
     showgrid="false"
     fit-margin-top="0"
     fit-margin-left="0"
     fit-margin-right="0"
     fit-margin-bottom="0"
     inkscape:zoom="1.1028037"
     inkscape:cx="48"
     inkscape:cy="100.8"
     inkscape:window-x="0"
     inkscape:window-y="0"
     inkscape:window-maximized="0"
     inkscape:current-layer="Layer_1" /><style
     type="text/css"
     id="style3">
	.st0{opacity:0.36;}
	.st1{clip-path:url(#SVGID_2_);fill:#46CFC0;}
	.st2{clip-path:url(#SVGID_2_);fill:#62FFF3;}
</style><g
     class="st0"
     id="g5"
     style="opacity:0.36000001"
     transform="translate(-26,-14.1)"><defs
       id="defs7"><rect
         id="SVGID_1_"
         x="15.4"
         y="6"
         class="st0"
         width="121.6"
         height="202.10001"
         style="opacity:0.36000001" /></defs><clipPath
       id="SVGID_2_"><use
         xlink:href="#SVGID_1_"
         style="overflow:visible"
         id="use11"
         x="0"
         y="0"
         width="100%"
         height="100%" /></clipPath><path
       class="st1"
       d="m 82.8,14.1 c 2,3.2 2.3,7.4 1.4,11.1 -0.9,3.7 -2.7,7.1 -4.7,10.4 C 73.9,45.1 67.3,54 62.5,64 58.8,71.7 56.3,80.2 56.4,88.6 55.8,88 55.2,87.3 54.7,86.7 50.9,82.6 47.3,78.3 44.8,73.3 c -1.2,-2.5 -2.1,-5.1 -2.4,-7.8 0.4,2.7 1.2,5.4 2.4,7.9 2.4,5 6.1,9.3 9.9,13.4 0.6,0.6 1.2,1.3 1.7,1.9 l 0,0 c 0.3,0.5 0.6,1 0.9,1.6 4.7,8.8 6.7,19 5.7,28.9 -0.5,-7.6 -4.2,-14.6 -8.4,-21 C 50.5,91.8 45.8,85.7 43,78.6 40.4,71.9 39.7,64 42.9,57.7 c 0,-0.1 0.1,-0.2 0.1,-0.4 -7.1,12 -7.2,27 -3.8,40.5 1.4,5.6 3.5,11.3 7,15.8 -0.3,-0.1 -0.6,-0.1 -1,-0.2 -5.2,-1.2 -10.5,-3.3 -13.6,-7.7 -1.4,11.6 2.3,23.7 9.8,32.7 6.5,7.7 19.7,15.4 27.3,21.8 -1.2,1 -2.2,2.2 -3.4,3.2 -2.1,1.7 -4.8,2.7 -7.5,2.7 -0.1,0 -0.1,0 -0.2,0 2.5,1 5.1,1.9 7.8,1.9 0.1,0 0.2,0 0.3,0 2.7,-0.1 5.3,-1.2 7.6,-2.7 l 0,0 c -1.6,1.4 -3.1,2.9 -4.4,4.7 -3.4,4.7 -5,10.5 -5.5,16.3 3,-6.4 7.4,-12.1 12.4,-17 5,-5 10.3,-9.4 16.5,-13.5 -4.2,1.6 -8.7,3.1 -12.6,5.3 4.6,-5.1 10.6,-9.7 22.5,-12.9 -17.6,14.4 -26,29.1 -29.7,44.1 0.3,-0.6 0.6,-1.2 1,-1.8 -0.3,0.3 -0.5,0.6 -0.8,1 3.8,-14.8 12.2,-29.2 29.5,-43.3 1.8,-0.9 3.7,-1.6 5.4,-2.7 2.5,-1.6 4.7,-4 5,-6.9 -1.2,14.9 -9.4,29.2 -21.7,37.7 -2.9,2 -6.1,3.7 -9,5.9 -0.2,0.2 -0.5,0.4 -0.7,0.6 0.1,-0.1 0.2,-0.1 0.3,-0.1 -6.9,6.1 -10.3,16 -8.6,25.1 0.6,-8.9 6.6,-16.5 13.6,-21.9 7,-5.4 15.1,-9.2 22.5,-14.2 4.9,-3.4 9.6,-7.5 12.3,-12.8 2.3,-4.7 3,-10.1 2.7,-15.4 -0.3,-5.3 -1.5,-10.4 -2.7,-15.5 -0.5,-2.2 -1.1,-4.5 -2.3,-6.4 0.1,0 0.1,0 0.2,0 0.1,0 0.3,0 0.4,0 1.2,0.1 2.4,0.8 3.2,1.7 0.9,0.9 1.5,2 2.2,3 -0.5,-2.9 -0.4,-6 -0.9,-8.9 -0.5,-2.9 -1.7,-6 -4.2,-7.6 0.3,0 0.6,0.1 0.9,0.1 2.2,0 4.4,-1 5.8,-2.7 -0.2,0 -0.4,0 -0.6,0 -3.2,0 -6.4,-0.8 -9.3,-2.4 -0.2,-0.1 -0.4,-0.2 -0.6,-0.3 0.2,-0.3 0.4,-0.6 0.6,-0.9 1,-1.5 1.7,-3.2 1.5,-4.9 -1.7,1.9 -4.2,2.8 -6.6,3.1 -0.6,0.1 -1.3,0.1 -1.9,0.1 -1.7,0 -3.4,-0.2 -5,-0.4 -1.7,-0.2 -3.4,-0.4 -5,-0.4 -1.5,0 -2.9,0.2 -4.4,0.6 -1.6,0.5 -3,1.4 -4.6,1.6 -0.4,0.1 -0.9,0.1 -1.3,0.1 -0.9,0 -1.9,-0.1 -2.8,-0.1 -0.1,0 -0.2,0 -0.4,0 -1.3,0 -2.6,0.2 -3.5,1 0.3,-0.1 0.7,-0.1 1,-0.1 1.4,0 2.7,0.7 3.9,1.5 1.4,1 2.7,2.3 4.4,2.9 0,0 0,0 0,0 0.4,-0.1 3.3,-0.7 5.6,-0.7 0.5,0 0.9,0 1.3,0.1 3.7,0.5 7,3.1 8.6,6.4 1.7,3.3 1.8,7.3 0.6,10.8 -1.2,3.5 -3.7,6.5 -6.8,8.6 -0.2,0.2 -0.5,0.3 -0.8,0.3 0,0 -0.1,0 -0.1,0 -0.1,0 -0.2,-0.1 -0.3,-0.1 0,-0.9 0.5,-1.7 1,-2.5 1.1,-1.9 1.6,-4.2 1.6,-6.4 0,2.2 -0.5,4.4 -1.6,6.4 -0.5,0.9 -1.1,1.8 -1,2.8 -0.5,-0.3 -0.9,-0.9 -1,-1.5 -0.1,-0.7 0,-1.4 -0.1,-2.1 -0.3,-2.7 -3,-4.5 -5.6,-5 -1.5,-0.3 -3,-0.3 -4.5,-0.3 l -0.2,0 c -0.1,0 -0.1,0 -0.2,0 -1.1,0 -2.2,0 -3.2,-0.1 -2.7,-0.3 -5.6,-1.5 -6.5,-4 -0.2,-0.5 -0.4,-0.9 -0.6,-1.4 -1.5,-4 -2.2,-8.3 -2.2,-12.6 0,4.3 0.7,8.6 2.2,12.6 0.2,0.5 0.5,0.9 0.6,1.4 0.2,0.4 0.4,0.8 0.7,1.2 -6.5,-7.9 -8,-18 -8.1,-28.3 -0.1,-10.4 2.7,-20.7 6.9,-30.2 4,-9 9.4,-17.7 10.4,-27.6 0.8,-7.5 -1.3,-15.2 -5.5,-21.4 6.3,5.8 9,18.6 8.7,30.5 C 92.1,32.8 89.3,19.8 82.8,14.1 M 54.1,124.8 c -1.7,-3 -4.4,-5.5 -7.5,-6.9 -2.9,-1.3 -6.1,-1.7 -8.8,-3.2 -3.3,-1.9 -5.7,-5.4 -6.2,-9.1 3.1,4.3 8.4,6.4 13.6,7.6 0.3,0.1 0.6,0.1 0.9,0.2 3.5,3 6,7.2 8,11.4"
       id="path13"
       clip-path="url(#SVGID_2_)"
       inkscape:connector-curvature="0"
       style="fill:#46cfc0" /><path
       class="st2"
       d="m 63.5,26.7 c -0.1,4.4 -2.1,8.5 -4.5,12.2 -2.4,3.7 -5.2,7.1 -7,11.1 -3.1,6.8 -4.3,11.6 -2.8,18.9 0.3,1.6 1.6,5.3 2.9,7.3 -0.7,-2.9 -0.5,-6 0.1,-8.9 0.9,-4.2 2.7,-8.1 4.6,-11.9 1.9,-3.8 3.9,-7.6 5.3,-11.6 1.7,-5.5 2.2,-11.4 1.4,-17.1 l 0,0 c 1.2,3.4 1.7,6.9 1.7,10.4 0,-3.5 -0.5,-7 -1.7,-10.4 M 53,76.4 c 0,0.3 0,0.6 0,0.9 0,0 0,0 0,0 0,-0.3 0,-0.6 0,-0.9"
       id="path15"
       clip-path="url(#SVGID_2_)"
       inkscape:connector-curvature="0"
       style="fill:#62fff3" /><path
       class="st2"
       d="m 26,81.9 c 0,0 0,0 0,0 4.2,3 7.9,7.3 9.8,12.1 1.6,4.1 1.2,9.2 3.1,13.2 0,0 0,0 0,0 -1.9,-4 -1.5,-9.2 -3.1,-13.3 -2,-4.8 -5.6,-9 -9.8,-12 m 0.1,0.2 c 2.5,4.4 1.5,9.9 2.9,14.7 1.4,4.7 5.1,8.7 9.8,10.4 -1.4,-1.6 -2.7,-3.2 -3.7,-5 -1.9,-3.4 -2.7,-7.3 -3.9,-11 -1.1,-3.3 -2.6,-6.7 -5.1,-9.1"
       id="path17"
       clip-path="url(#SVGID_2_)"
       inkscape:connector-curvature="0"
       style="fill:#62fff3" /><path
       class="st2"
       d="m 56.5,157.4 c -0.2,0 -0.3,0 -0.5,0 -2.7,0.1 -5.5,0.9 -7.4,2.9 0.9,-0.3 1.8,-0.4 2.7,-0.4 0.9,0 1.8,0.1 2.7,0.2 1.6,0.3 3.3,0.6 4.9,0.6 0.1,0 0.3,0 0.4,0 1.8,-0.1 3.7,-0.7 4.7,-2.2 -2.4,-0.6 -4.9,-1.1 -7.5,-1.1"
       id="path19"
       clip-path="url(#SVGID_2_)"
       inkscape:connector-curvature="0"
       style="fill:#62fff3" /><path
       class="st2"
       d="m 31.8,142.1 c -1.1,0 -2.1,0.1 -3.2,0.2 1.8,0.1 3.4,1.2 4.6,2.4 1.2,1.3 2.2,2.8 3.4,4.1 2.9,3.2 7,5.2 11.2,6.1 2.4,0.5 4.9,0.7 7.4,0.7 1.8,0 3.7,-0.1 5.5,-0.3 -6.2,-1.7 -10.7,-6.9 -16.3,-10 -3.8,-2.1 -8.2,-3.2 -12.6,-3.2"
       id="path21"
       clip-path="url(#SVGID_2_)"
       inkscape:connector-curvature="0"
       style="fill:#62fff3" /><path
       class="st2"
       d="m 83.1,14.4 c 4.2,6.2 6.3,13.9 5.5,21.4 -1,9.8 -6.4,18.5 -10.4,27.6 -4.2,9.5 -7,19.8 -6.9,30.2 0.1,10.3 1.6,20.3 8.1,28.3 -0.3,-0.4 -0.5,-0.7 -0.7,-1.2 -0.2,-0.5 -0.4,-0.9 -0.6,-1.4 -1.5,-4 -2.2,-8.3 -2.2,-12.6 0,-1.5 0.1,-3 0.2,-4.5 C 77,94 80,86.1 83,78.4 86.1,70.7 89.3,63 90.8,54.8 c 0.6,-3.1 0.9,-6.5 1,-10 C 92,33 89.4,20.2 83.1,14.4"
       id="path23"
       clip-path="url(#SVGID_2_)"
       inkscape:connector-curvature="0"
       style="fill:#62fff3" /><path
       class="st2"
       d="m 63.5,26.7 0,0 c 0.8,5.7 0.3,11.5 -1.5,17 -1.3,4 -3.4,7.8 -5.3,11.6 -1.9,3.8 -3.7,7.7 -4.6,11.9 -0.6,2.9 -0.7,6 -0.1,8.9 0,0 0,0 0,0 0.3,0.5 0.6,0.8 0.9,1.1 0,0 0,0 0,0 0,-0.3 0,-0.6 0,-0.9 0,-3.8 1.9,-7.5 3.6,-10.9 3,-6 5.9,-12.2 7.4,-18.7 0.7,-3.1 1.1,-6.3 1.1,-9.5 0.2,-3.6 -0.3,-7.1 -1.5,-10.5"
       id="path25"
       clip-path="url(#SVGID_2_)"
       inkscape:connector-curvature="0"
       style="fill:#62fff3" /><path
       class="st2"
       d="m 26,81.9 c 0,0.1 0,0.1 0,0.2 0,0 0,0 0,0 2.5,2.4 4,5.7 5,9.1 1.2,3.7 2,7.6 3.9,11 1,1.8 2.3,3.4 3.7,5 0,0 0,0 0,0 0,0 0.1,0 0.1,0.1 0,0 0,0 0,0 -1.9,-4 -1.5,-9.1 -3.1,-13.2 -1.8,-4.9 -5.4,-9.2 -9.6,-12.2 0,0 0,0 0,0"
       id="path27"
       clip-path="url(#SVGID_2_)"
       inkscape:connector-curvature="0"
       style="fill:#62fff3" /><path
       class="st2"
       d="m 97.4,107.5 c -2.3,0 -5.3,0.6 -5.6,0.7 0,0 0,0 0,0 1.2,3 4.5,4.6 6.8,6.8 2.6,2.5 3.9,6.1 3.9,9.6 0,2.2 -0.5,4.4 -1.6,6.4 -0.4,0.8 -1,1.7 -1,2.5 0.1,0.1 0.2,0.1 0.3,0.1 0,0 0.1,0 0.1,0 0.3,0 0.5,-0.2 0.8,-0.3 3.1,-2.1 5.6,-5.1 6.8,-8.6 1.2,-3.5 1.1,-7.5 -0.6,-10.8 -1.7,-3.3 -5,-5.8 -8.6,-6.4 -0.4,0 -0.8,0 -1.3,0"
       id="path29"
       clip-path="url(#SVGID_2_)"
       inkscape:connector-curvature="0"
       style="fill:#62fff3" /><path
       class="st2"
       d="m 112.5,138.4 c -0.3,2.9 -2.5,5.3 -5,6.9 -1.7,1.1 -3.6,1.8 -5.4,2.7 -17.3,14.1 -25.6,28.5 -29.5,43.3 0.2,-0.3 0.5,-0.7 0.8,-1 0,0 0,-0.1 0.1,-0.1 1.9,-3.2 4.3,-6.1 7.6,-7.6 0,0 0.1,0 0.1,-0.1 0.2,-0.2 0.5,-0.4 0.7,-0.6 2.9,-2.1 6,-3.8 9,-5.9 12.2,-8.4 20.4,-22.6 21.6,-37.6"
       id="path31"
       clip-path="url(#SVGID_2_)"
       inkscape:connector-curvature="0"
       style="fill:#62fff3" /><path
       class="st2"
       d="m 42.9,57.4 c 0,0 0,0 0,0 -3.3,6.4 -2.6,14.3 0.1,21 2.8,7.1 7.5,13.2 11.6,19.6 4.1,6.4 7.9,13.4 8.4,21 1,-9.9 -1,-20.1 -5.7,-28.9 -0.3,-0.5 -0.6,-1 -0.9,-1.6 l 0,0 C 55.8,87.9 55.2,87.2 54.7,86.6 50.9,82.5 47.3,78.2 44.8,73.2 43.6,70.7 42.7,68.1 42.4,65.3 42,62.7 42.1,60 42.9,57.4"
       id="path33"
       clip-path="url(#SVGID_2_)"
       inkscape:connector-curvature="0"
       style="fill:#62fff3" /><path
       class="st2"
       d="m 31.6,105.6 c 0.5,3.8 2.9,7.3 6.2,9.1 2.7,1.5 5.9,2 8.8,3.2 3.2,1.4 5.8,3.9 7.5,6.9 -2,-4.2 -4.5,-8.4 -8,-11.4 -0.3,-0.1 -0.6,-0.1 -0.9,-0.2 C 40,112 34.7,109.9 31.6,105.6"
       id="path35"
       clip-path="url(#SVGID_2_)"
       inkscape:connector-curvature="0"
       style="fill:#62fff3" /></g></svg>