<svg id="Layer_1" data-name="Layer 1" xmlns="http://www.w3.org/2000/svg" viewBox="0 0 64 64"><defs><style>.cls-1{fill:#fff;}</style></defs><title>adult-enrichment</title><path class="cls-1" d="M22.19,22.82l-1.26-.71s-.46-.25-.46.31v1c0,.15.11.35.53.11h0Z"/><circle class="cls-1" cx="22.19" cy="17.72" r="3.18"/><path class="cls-1" d="M37,22.29a.83.83,0,0,0-.85.47,3.87,3.87,0,0,0,.4,3.12A38.69,38.69,0,0,0,53,22.1c1.73-.72,1.23-1.74,1.23-1.74-.49-.77-1.89-.26-2.61-.11l-3.2.7a57,57,0,0,1-7.67,1.17,27.56,27.56,0,0,1-3.77.17Z"/><path class="cls-1" d="M63.64,40.52a2.33,2.33,0,0,0-1.42-.35c-.86,0-1.72,0-2.58,0-3.86,0-7.71,0-11.57,0-1.85,0-3.68-.07-5.52,0s-4.3,0-5.85-1.42A5.86,5.86,0,0,1,35,34.42h0c0-.87-.56-.87-.83-.82l-.15,0h0a8.15,8.15,0,0,1-4,.05h0a1.09,1.09,0,0,0-1.41.89h0c-.12,1-.27,1.91-.42,2.83a28.12,28.12,0,0,0,1.74,15.11,13.58,13.58,0,0,0,4.42,5.84A17.82,17.82,0,0,0,39.54,61a16.48,16.48,0,0,0,2.67.64c.25,0,3.13.27,3-2.56h0A13.5,13.5,0,0,1,45.54,56a7.75,7.75,0,0,1,3.17-4.92c1.56-1,3.57-1,5.28-1.57a6.21,6.21,0,0,0,3.63-3.36,4.32,4.32,0,0,1,2-2.31c.56-.24,1.2-.23,1.78-.41a5.6,5.6,0,0,0,1.83-.9C63.76,42,64.43,41.14,63.64,40.52Z"/><path class="cls-1" d="M28.32,26.55v0h0Z"/><path class="cls-1" d="M23.38,23.49s.53.3.53-.23v-.81c0-.54-.43-.35-.56-.28l-1.16.65,1.19.67Z"/><path class="cls-1" d="M29.07,24.21s0,0,0-.07v0a1.64,1.64,0,0,0,0-.43c-.23-1.21-.83-2.28-.8-3.55a2.69,2.69,0,0,1,2.2-2.66h.46c.12,0,.4.07.18.4L31,18h0c-.84,1.3.38,5.1.38,5.1a3.91,3.91,0,0,1,0,1.44A2,2,0,0,1,28.86,26h0L28.69,26a.4.4,0,0,0-.29,0c-.23.11-.09.56-.08.59a3.37,3.37,0,0,0,1.61,1.82,4.28,4.28,0,0,0,2.66.09,2.37,2.37,0,0,0,1.74-1.71c.28-1.28.07-2.57.49-3.83.31-1-.29-1.22-.29-1.22h0l-.4-.22A4.42,4.42,0,0,1,33,20.39s-.45-.77.4-.41h0a3.13,3.13,0,1,0-1.65-3.7h0c-.26.75-.42.27-.46.1a21.47,21.47,0,0,1-.3-2.23,68.62,68.62,0,0,1-.7-10,2.5,2.5,0,0,0-.08-1.11,1.11,1.11,0,0,0-1.7-.54,3,3,0,0,0-.77,1.94s-.93,5.4,0,16.34h0a.88.88,0,0,1-.94,1h0c-.34,0-.74,0-1.17,0a1.3,1.3,0,0,0-1,.81l-2,6.12c-.26.81-.62.62-.62.62-.24,0-.38-.4-.41-.51l-1.79-6.24a1,1,0,0,0-1-.68l-.54,0s-8.87.28-16.05-.25a3.69,3.69,0,0,0-1.13,0c-.58.13-1.28.72-.93,1.36s1.23.71,1.79.81A104.69,104.69,0,0,0,15,25.2h0c1.08,0,1.36.51,1.43.71.53,2.12,1.91,8.45.62,12.51a9.12,9.12,0,0,1-1.41,3,41.48,41.48,0,0,1-5.88,6.31,42.74,42.74,0,0,1-5.1,3.9s-1.26.75-.82,1.53c0,0,.15.44.84.41A7.71,7.71,0,0,0,8.3,52.13a59.39,59.39,0,0,0,6.79-4.76q.91-.74,1.79-1.52c.63-.56,1.25-1.14,1.85-1.74s1.13-1.07,1.66-1.64c0,0,1-1.09,1.24,0A83.72,83.72,0,0,1,23,58.58s-.16,2.78,1.21,2.72c0,0,1,.38,1.35-3a107.39,107.39,0,0,0-.43-21.48,14,14,0,0,1,0-1.46,79,79,0,0,1,1.26-9.59,1,1,0,0,1,.69-.81l.59-.1h.06l.13,0C28.12,24.82,28.92,24.81,29.07,24.21ZM24.8,36.37l-.08,0-.07,0a7.56,7.56,0,0,1-5.93-.08c-.3-.17.08-.22.08-.22h0c.92.06,2.52-.06,3.13-1.45h0s.26-.63.55,0h0a2.55,2.55,0,0,0,2.18,1.43h0S25.15,36.21,24.8,36.37Z"/></svg>