<svg id="Layer_1" data-name="Layer 1" xmlns="http://www.w3.org/2000/svg" viewBox="0 0 64 64"><defs><style>.cls-1{fill:#fff;}</style></defs><title>community-health</title><path class="cls-1" d="M50,37.35H43.84A3.61,3.61,0,0,1,40,34l-.55-3.5c-.77-3.61-1.61,0-1.62,0L35.15,44.78c-.47,2.87-2.14,3.38-2.65,3.47a3.83,3.83,0,0,1-.67.06,4,4,0,0,1-3.55-2.85l0-.18L24.4,23.18c-.83-3.74-2-.1-2-.1-.13.38-3.23,9.3-4.08,11.56a4.9,4.9,0,0,1-4.56,3.11h-.23s-2.28.16-.7,2.18l4.73,5.78,11.4,13.93c.87,1,3.48,3.22,6.42-.38L46.45,45.72l4.6-5.63C53.22,37.45,50,37.35,50,37.35Z"/><path class="cls-1" d="M48,2.76a16,16,0,0,0-14,8.33h0c-1.84,3.41-3.92,0-3.92,0h0A16,16,0,1,0,4.88,30.25l2.71,3.31a4.38,4.38,0,0,0,3.15,1.54h3a2.26,2.26,0,0,0,2.07-1.39c.8-2.14,3.78-10.72,4-11.45C20.14,21.19,21.17,18,23.4,18h.08c.27,0,2.65.28,3.49,4.47l3.7,21.31c.08.37.33,1.14,1,1.14,0,0,.67.15.94-1.26l2.77-14.56c.24-1.32,1.25-3.56,3.53-3.56.25,0,2.41.1,3,3.51l.73,4.73c0,.6.43.91,1.16.91h8.91a6.62,6.62,0,0,0,4.73-2.44l1.64-2A16,16,0,0,0,48,2.76Z"/></svg>