<svg id="Layer_1" data-name="Layer 1" xmlns="http://www.w3.org/2000/svg" viewBox="0 0 64 64"><defs><style>.cls-1{fill:#fff;}</style></defs><title>hot-tub</title><path class="cls-1" d="M29.48,11.06a5.46,5.46,0,0,0,1.5.48,5.36,5.36,0,0,0,1,.09h0a6.19,6.19,0,0,0,1-.09,5.79,5.79,0,1,0-6.82-5.73,6,6,0,0,0,.27,1.75A5.84,5.84,0,0,0,29.48,11.06Z"/><path class="cls-1" d="M32,27.4c8.15,5.16,13.54,0,13.54,0h0V22.11c0-.06,0-.12,0-.18a7.58,7.58,0,0,0-7.47-7.54H25.85a7.41,7.41,0,0,0-7.18,5.82,7.76,7.76,0,0,0-.21,1.72V27.4S23.85,22.24,32,27.4Z"/><path class="cls-1" d="M32,39.17c-16.3,0-29.51-6.61-29.51-14.76V49.24C2.49,57.39,15.7,64,32,64s29.51-6.61,29.51-14.76V24.41C61.51,32.56,48.3,39.17,32,39.17ZM32,56a2,2,0,1,1,2-2A2,2,0,0,1,32,56Zm4.29-6H27.71V44.38h8.59Z"/></svg>