<svg xmlns="http://www.w3.org/2000/svg" xmlns:xlink="http://www.w3.org/1999/xlink" version="1.1" x="0px" y="0px" viewBox="0 0 261.334 296.48" style="enable-background:new 0 0 261.334 237.184;" xml:space="preserve"><g><path d="M139.766,86.683c0.922,0,1.822,0.087,2.71,0.211C125.1,68.902,109.027,56.593,104.47,53.189   c-1.412-1.527-3.426-2.49-5.671-2.49H60.164c-0.157,0-0.311,0.014-0.465,0.023c-1.813,0.035-4.763,0.441-8.115,2.131   c-5.378,2.667-11.177,8.503-15.234,18.84c-4.107,10.381-6.866,25.387-6.878,48.044c0,5.856,0.188,12.224,0.596,19.159   c0.249,4.251,3.774,7.532,7.978,7.532c0.158,0,0.316-0.005,0.475-0.014c4.411-0.259,7.777-4.045,7.519-8.453   c-0.391-6.652-0.569-12.712-0.567-18.225c-0.035-24.215,3.495-37.818,6.962-44.917v33.06v18.939v97.999   c0,6.83,5.537,12.363,12.363,12.363c6.828,0,12.365-5.533,12.365-12.363v-90.271h4.635v90.271c0,6.83,5.537,12.363,12.363,12.363   c6.828,0,12.365-5.533,12.365-12.363V126.82v-18.939V75.264c5.398,4.537,12.08,10.456,19.177,17.444   C129.256,89.003,134.241,86.683,139.766,86.683z"/><path d="M168.938,133.081c3.676-2.451,4.669-7.418,2.218-11.094c-3.759-5.622-7.776-11.02-11.908-16.148   c0.002,0.115,0.018,0.228,0.018,0.344c0,6.385-3.099,12.046-7.857,15.606c1.864,2.481,3.676,5.015,5.425,7.591   c-0.448-0.197-0.89-0.375-1.327-0.521c-0.549-0.167-1.05-0.319-1.702-0.408c-0.487-0.158-0.997-0.266-1.537-0.266h-25   c-0.539,0-1.049,0.107-1.536,0.266c-0.652,0.089-1.152,0.241-1.704,0.409c-2.596,0.894-5.828,2.73-8.872,6.037   c-2.568,2.802-4.83,6.843-5.411,11.837c-0.097,0.828-0.152,1.681-0.149,2.561c0,0.948,0.058,1.936,0.186,2.948h-0.002   c1.005,7.923,5.773,16.866,16.226,27.332c0.977,0.976,2.256,1.464,3.535,1.464c1.28,0,2.56-0.488,3.535-1.464   c1.953-1.952,1.953-5.117,0-7.069c-9.561-9.549-12.814-16.763-13.369-21.487v-0.001c0-0.003,0-0.007,0-0.01   c-0.077-0.601-0.11-1.166-0.11-1.713c0.005-0.882,0.103-1.687,0.26-2.44c0.414-1.987,1.305-3.562,2.411-4.873v11.417   c1.138,3.742,4.201,9.681,12.221,17.693c1.323,1.321,2.054,3.08,2.054,4.948c0,1.869-0.73,3.628-2.054,4.949   c-1.321,1.321-3.078,2.05-4.947,2.05c-1.868,0-3.625-0.729-4.949-2.05c-0.808-0.809-1.575-1.61-2.324-2.409v4.605v46   c0,4.418,3.582,8,8,8c4.418,0,8-3.582,8-8v-41h3v41c0,4.418,3.582,8,8,8c4.418,0,8-3.582,8-8v-46v-4.606   c-0.749,0.799-1.518,1.601-2.326,2.41c-1.323,1.321-3.08,2.05-4.949,2.05c-1.868,0-3.625-0.729-4.946-2.05   c-1.323-1.321-2.054-3.08-2.054-4.949c0-1.868,0.73-3.627,2.054-4.948c8.021-8.013,11.083-13.952,12.222-17.693v-11.423   c1.108,1.326,2.003,2.886,2.417,4.871c0.157,0.753,0.246,1.564,0.25,2.448c0,0.54-0.033,1.116-0.109,1.733   c-0.001,0.003,0,0.005,0,0.008c-0.562,4.725-3.817,11.933-13.369,21.47c-1.951,1.952-1.951,5.117,0,7.069   c0.977,0.976,2.256,1.464,3.535,1.464c1.28,0,2.56-0.488,3.535-1.464c10.453-10.466,15.222-19.409,16.227-27.332h-0.002v-0.001   c0-0.003,0.001-0.005,0.001-0.007c0.12-1,0.182-1.98,0.182-2.94c0.002-0.879-0.048-1.732-0.144-2.558   c-0.614-5.304-3.126-9.489-5.888-12.346c0.201,0.015,0.402,0.036,0.604,0.036C166.033,134.426,167.574,133.99,168.938,133.081z"/><circle cx="79.481" cy="22.5" r="22.5"/><circle cx="139.768" cy="106.184" r="17.5"/><rect y="162.015" width="41.611" height="7.499"/><rect x="179.604" y="162.015" width="81.73" height="7.499"/><path d="M226.412,31.523c-0.362,0.002-0.625,0.026-0.774,0.045c-0.046,0.006-0.087,0.023-0.132,0.03h-15.844   c-0.31-0.05-0.627-0.075-0.954-0.048c-0.002,0-0.08,0.006-0.345,0.018c-0.266,0.012-0.671,0.024-1.19,0.024   c-2.8,0.02-8.884-0.435-13.722-2.992c-2.431-1.272-4.541-2.988-6.088-5.405c-1.538-2.423-2.604-5.621-2.614-10.238   c0-1.161,0.071-2.406,0.225-3.745c0.251-2.194-1.325-4.178-3.519-4.429c-2.194-0.251-4.178,1.325-4.429,3.518   c-0.186,1.621-0.275,3.172-0.275,4.655c-0.01,5.88,1.441,10.758,3.874,14.548c3.662,5.715,9.223,8.715,14.23,10.276   c3.065,0.954,5.982,1.411,8.392,1.627v36.161v6.059v67.23c0,3.629,2.942,6.572,6.571,6.572c3.629,0,6.573-2.943,6.573-6.572V86.71   h2.385v62.15c0,3.629,2.943,6.572,6.572,6.572c3.629,0,6.573-2.943,6.573-6.572V81.63v-6.059V44.418   c2.608,4.594,5.331,13.845,5.312,31.216c0,3.652-0.117,7.658-0.374,12.052c-0.127,2.204,1.555,4.095,3.761,4.225   c0.08,0.005,0.159,0.007,0.238,0.007c2.103,0,3.865-1.642,3.99-3.768c0.263-4.533,0.384-8.695,0.384-12.516   c-0.02-19.706-3.194-30.457-7.306-36.724C233.846,32.587,228.415,31.427,226.412,31.523z"/><path d="M217.584,29.425c6.291,0,11.391-8.592,11.391-16.54c0-7.947-5.1-12.241-11.391-12.241s-11.393,4.294-11.393,12.241   C206.191,20.833,211.293,29.425,217.584,29.425z"/></g><text x="0" y="252.184" fill="#000000" font-size="5px" font-weight="bold" font-family="'Helvetica Neue', Helvetica, Arial-Unicode, Arial, Sans-serif">Created by Gan Khoon Lay</text><text x="0" y="257.18399999999997" fill="#000000" font-size="5px" font-weight="bold" font-family="'Helvetica Neue', Helvetica, Arial-Unicode, Arial, Sans-serif">from the Noun Project</text></svg>