<svg id="_Text" data-name="&gt; Text" xmlns="http://www.w3.org/2000/svg" viewBox="0 0 64 64"><defs><style>.cls-1{fill:#fff;}</style></defs><title>childrens-academy</title><line class="cls-1" x1="14.56" y1="29.28" x2="14.58" y2="29.29"/><path class="cls-1" d="M14.58,29.29h0L2.33,31l-.3.07-.08,0-.27.1h0l-.06,0-.14.08-.07,0-.09.06,0,0L1,31.62H1l0,0-.17.17,0,0,0,0-.16.2,0,0h0l-.16.27,0,0,0,0a2.72,2.72,0,0,0-.15.34h0l0,.11,0,.11,0,.15,0,.1c0,.06,0,.12,0,.17v.07c0,.08,0,.17,0,.25L0,55a2.14,2.14,0,0,0,1.06,1.93l12.79,7c-.4-.21.61.21,1.65.21a3.35,3.35,0,0,0,.45,0l18.37-2.41a3.73,3.73,0,0,0,3.18-3.27s2.92,1.77,3.84,1.77a3.57,3.57,0,0,0,.46,0L60.7,57.7A3.78,3.78,0,0,0,64,54l-.21-20.12c0-1.52-1.07-2.34-2.52-3.07l-12-6.52h0L49.29,9a2.13,2.13,0,0,0-1.06-1.92h0l-.08,0L48.08,7,35.46.14l-.07,0L35.2,0h0L35,0l-.11,0h0l-.27,0h-.06l-.3,0L14.6,2.69l-.3.07-.08,0-.27.1h0l-.06,0L13.73,3l-.07,0-.09.06,0,0-.24.19h0l0,0-.17.17,0,0,0,0-.16.2,0,0h0l-.16.27,0,0,0,0a2.8,2.8,0,0,0-.15.34h0l0,.11,0,.11,0,.15,0,.1c0,.06,0,.12,0,.17v.07c0,.08,0,.17,0,.25l0,21.2a2.14,2.14,0,0,0,1.06,1.93l1.23.67M34.3,59.11,15.93,61.51a.4.4,0,0,1-.48-.42l-.2-19.94a1,1,0,0,1,.8-.93l18.37-2.41h.08a.38.38,0,0,1,.4.43l.21,19.94A1,1,0,0,1,34.3,59.11ZM29.07,13.33l17.8-2.5,0,13.42h0v6.16L29,32.92Zm31.82,42L42.52,57.71a.4.4,0,0,1-.48-.42l-.21-19.94a1,1,0,0,1,.8-.93L61,34h.08a.38.38,0,0,1,.4.43l.2,19.94A1,1,0,0,1,60.89,55.31Z"/><path class="cls-1" d="M45.16,27.29q0,.85-1,1l-1.21.18a1.13,1.13,0,0,1-.83-.11,1.32,1.32,0,0,1-.43-.58L41,26.14l-2.63.41-2.62.37-.6,1.69a2.4,2.4,0,0,1-.46.84,1.49,1.49,0,0,1-.9.38l-1,.15a1.34,1.34,0,0,1-.9-.06.61.61,0,0,1-.21-.52,2.9,2.9,0,0,1,.19-.73l4.49-12.45a3.06,3.06,0,0,1,.31-.64,1.35,1.35,0,0,1,.46-.43,2.14,2.14,0,0,1,.76-.24l.9-.13a1.51,1.51,0,0,1,1,.11,1.43,1.43,0,0,1,.54.73l4.76,11.28A1.19,1.19,0,0,1,45.16,27.29ZM40,23.77,38.32,19.3l-1.67,5,.73-.12,1-.15.92-.13Z"/><path class="cls-1" d="M31.19,52.19A6.2,6.2,0,0,1,30.93,54a4.3,4.3,0,0,1-.84,1.51,3.75,3.75,0,0,1-1,.82,5.45,5.45,0,0,1-1.27.54,12.29,12.29,0,0,1-1.66.35L22,57.9a1.45,1.45,0,0,1-1-.11.93.93,0,0,1-.33-.84l0-12A1.05,1.05,0,0,1,21,44a2.18,2.18,0,0,1,.93-.35l2.84-.42q1.94-.29,2.6-.33a3.16,3.16,0,0,1,1.19.15A2.15,2.15,0,0,1,30,44.18a4.34,4.34,0,0,1,.45,2.06,5.07,5.07,0,0,1-.22,1.56A3.45,3.45,0,0,1,29.49,49a2.2,2.2,0,0,1,1.29,1.09A4.56,4.56,0,0,1,31.19,52.19ZM27.13,47A1.83,1.83,0,0,0,27,46a.46.46,0,0,0-.31-.24,2.49,2.49,0,0,0-.65,0l-.49.07-1.4.23v3.11L25,49.1a7.45,7.45,0,0,0,1.1-.23,1.3,1.3,0,0,0,.77-.51A2.84,2.84,0,0,0,27.13,47Zm.64,5.74a1.68,1.68,0,0,0-.16-.9.63.63,0,0,0-.49-.24,9.27,9.27,0,0,0-1.95.14l-1.06.16v3l1.34-.18a8.46,8.46,0,0,0,1.47-.32,1.25,1.25,0,0,0,.63-.52A2.19,2.19,0,0,0,27.77,52.7Z"/><path class="cls-1" d="M57.53,51.91a1,1,0,0,1-.3.73,2.3,2.3,0,0,1-1.08.44q-1.48.34-2.52.49a9.67,9.67,0,0,1-3.25,0,3.62,3.62,0,0,1-2-1,4.48,4.48,0,0,1-1-2.09,14.42,14.42,0,0,1-.3-3.14,12.77,12.77,0,0,1,.7-4.73,4.93,4.93,0,0,1,2.1-2.52,10.88,10.88,0,0,1,3.77-1.16q1-.14,2.52-.27a1.85,1.85,0,0,1,1.08.11.7.7,0,0,1,.3.64v.69a1.69,1.69,0,0,1-.22,1,1.32,1.32,0,0,1-.88.39l-1,.1q-.81.07-1.35.15a7.45,7.45,0,0,0-2.3.6,1.94,1.94,0,0,0-.83.9,3.86,3.86,0,0,0-.32,1.3q-.06.72-.06,2.05v.25a18.46,18.46,0,0,0,.1,2.16,2.51,2.51,0,0,0,.5,1.28,1.56,1.56,0,0,0,1.26.53,11.47,11.47,0,0,0,1.65-.16l1-.21q.81-.17,1.33-.25c.43-.07.73,0,.88.13a1.39,1.39,0,0,1,.23.94Z"/></svg>