<svg id="Layer_1" data-name="Layer 1" xmlns="http://www.w3.org/2000/svg" viewBox="0 0 64 64"><defs><style>.cls-1{fill:#fff;}</style></defs><title>group-exercise</title><path class="cls-1" d="M45.55,3.77c-.06-.27-.12-.55-.2-.82s-.1-.34-.15-.52A2.47,2.47,0,0,0,43.73.65a2.12,2.12,0,0,0-.9-.08,1.31,1.31,0,0,0-.9,1.09,4.87,4.87,0,0,0,0,1.38c0,.46.14.93.22,1.38h0c0,.23.07.45.1.66A9.52,9.52,0,0,1,42,9.37c-.66,1.87-2.66,3.18-4.47,3.8a11.05,11.05,0,0,1-3.16.45h0a5.11,5.11,0,0,0-.69.07c-.23,0-.51.09-.61.34a1.85,1.85,0,0,0-.07.19,1.59,1.59,0,0,0-.05.28c-.25,4.28,2.58,4.29,2.58,4.29l.8-.08A12.29,12.29,0,0,0,41.55,17a7.88,7.88,0,0,0,3-3A11.74,11.74,0,0,0,46,9.29a19.25,19.25,0,0,0-.41-5.52Z"/><path class="cls-1" d="M19.35,16.82a9.36,9.36,0,0,0,4.47,1.63,1.09,1.09,0,0,0,.55-.1.85.85,0,0,0,.42-.62c.09-.35.14-.7.25-1s.23-.7.37-1,.16-.39.25-.58.34-.45.23-.7-.42-.29-.63-.31h-.16a5.13,5.13,0,0,1-1.17-.18,8.31,8.31,0,0,1-5.62-5.61c-.39-1.29-.26-2.67-.64-4S15.38,2,14.78,3.67a9.29,9.29,0,0,0-.07,4.45c.17.83.31,1.68.53,2.49A11.33,11.33,0,0,0,19.35,16.82Z"/><path class="cls-1" d="M25.66,5.89h7.48c.67,0,.43-.46.43-.46A3.6,3.6,0,0,0,33.31,5a1.63,1.63,0,1,0-2-1.66A4.56,4.56,0,0,0,29.49,3a4.62,4.62,0,0,0-4.08,2.44h0C25.19,5.92,25.66,5.89,25.66,5.89Z"/><path class="cls-1" d="M24.88,7.89v0h0A4.62,4.62,0,0,0,34,8.45a1,1,0,0,0-.93-1.19H25.42a.51.51,0,0,0-.54.59Z"/><path class="cls-1" d="M21.35,48.08c-.07-.35-.45-.25-.45-.25a7.37,7.37,0,0,1-2.26.07c-.19,0-.28.11-.29.28a.88.88,0,0,0,.06.24c1.14,4.68,2.64,4,2.64,4,1.46-.37.42-3.72.42-3.72Z"/><path class="cls-1" d="M36.17,55.81h0a129.23,129.23,0,0,1-1.42-20.64h0a1.23,1.23,0,0,0-1-1.33c-1.55-.21-4.25,0-4.66,3.74l.08,2.32,0,.16v.32A53.61,53.61,0,0,0,30,46c.45,2.25,1,4.47,1.72,6.67.4,1.32.78,2.64,1.18,4a.71.71,0,0,0,.62.55,5.68,5.68,0,0,0,2.28-.5C36.28,56.49,36.17,55.81,36.17,55.81Z"/><path class="cls-1" d="M36.7,61.1h0a5.16,5.16,0,0,1-1.76.41h0a.36.36,0,0,0-.31.54c.43,1.1,1,2.13,2,1.93s1-1.35.75-2.49A.5.5,0,0,0,36.7,61.1Z"/><path class="cls-1" d="M38.11,5.28a1.89,1.89,0,0,0,2,1.54c.2,0,.21-.21.19-.31V6.46l-.2-1.06c-.09-.5.2-.63.33-.66L41,4.61h0a.37.37,0,0,0,.3-.45l-.08-.61c-.06-.36-.45-.31-.5-.3l-.7.13a.32.32,0,0,1-.42-.23l-.23-1.25c-.11-.53-.5-.36-.51-.36A1.89,1.89,0,0,0,37.79,3.6Z"/><path class="cls-1" d="M49.49,3.22l-.31-1.68A1.89,1.89,0,0,0,47.2,0C47,0,47,.28,47,.35h0l.21,1.11c.08.45-.1.56-.2.59H47l-.81.15a.22.22,0,0,0-.2.3c.13.47.19.77.19.77a.35.35,0,0,0,.44.27l.64-.12a.35.35,0,0,1,.43.32L47.9,5h0V5a.35.35,0,0,0,.5.3A1.89,1.89,0,0,0,49.49,3.22Z"/><path class="cls-1" d="M27.3,38.6a12.63,12.63,0,0,1-2.2-3.65,11,11,0,0,1-.54-1.85h0a1.24,1.24,0,0,0-.61-1c-7.12-2.26-7.68,4.13-7,9.57,0,.2.17.89.71,1a8.16,8.16,0,0,0,2.46.12c.75-.14.84-1.14.84-1.14h0C21.6,37.64,24.49,38,26.66,39h0l.36.16a.63.63,0,0,0,.22,0c.12,0,.25-.05.26-.19s-.12-.28-.21-.39Z"/></svg>