<svg id="Layer_1" data-name="Layer 1" xmlns="http://www.w3.org/2000/svg" viewBox="0 0 64 64"><defs><style>.cls-1{fill:#fff;}</style></defs><title>gymnasium</title><path class="cls-1" d="M47.93,37.81H16.63c-.62,0-.91.17-.65.37s.63.45,1.1.84l.29.24c5.77,7,7.3,18.58,7.68,22.86h0l0,.3c.09.53.48,1.57,2.22,1.57H37.9a1.9,1.9,0,0,0,1.66-1.71c.35-4.15,1.85-15.92,7.7-23l1.33-1.08C48.84,38,48.54,37.81,47.93,37.81Zm-5.21.84c.55,0,.78.33.5.73a.57.57,0,0,1-1,0C41.95,39,42.17,38.65,42.72,38.65Zm-3.14,1.24.22-.32.17-.24c.17-.21.71-.73,1.29.08h0l.12.17.22.32a1.75,1.75,0,0,1,0,1.84l-.37.54a.72.72,0,0,1-1.27,0l-.38-.54A1.75,1.75,0,0,1,39.58,39.88Zm-1.12-1.24c.55,0,.78.33.5.73a.57.57,0,0,1-1,0C37.68,39,37.91,38.65,38.46,38.65Zm.63,3.78.37.55a1.75,1.75,0,0,1,0,1.84l-.37.54a.72.72,0,0,1-1.27,0l-.37-.54a1.75,1.75,0,0,1,0-1.84l.37-.55A.72.72,0,0,1,39.09,42.43Zm-3.88,6.73a1.75,1.75,0,0,1,0,1.84l-.37.54a.72.72,0,0,1-1.27,0L33.19,51a1.75,1.75,0,0,1,0-1.84l.37-.54a.72.72,0,0,1,1.27,0Zm.11-3.09.37-.54a.72.72,0,0,1,1.27,0l.37.54a1.75,1.75,0,0,1,0,1.84l-.37.54a.72.72,0,0,1-1.27,0l-.37-.54A1.75,1.75,0,0,1,35.32,46.07Zm-2.24,1.84-.37.54a.72.72,0,0,1-1.27,0l-.37-.54a1.75,1.75,0,0,1,0-1.84l.37-.54a.72.72,0,0,1,1.27,0l.37.54A1.75,1.75,0,0,1,33.08,47.91ZM31,49.16A1.75,1.75,0,0,1,31,51l-.37.54a.72.72,0,0,1-1.27,0L28.93,51a1.75,1.75,0,0,1,0-1.84l.37-.54a.72.72,0,0,1,1.27,0Zm-2.13-1.25-.38.54a.72.72,0,0,1-1.27,0l-.37-.54a1.75,1.75,0,0,1,0-1.84l.38-.54a.72.72,0,0,1,1.27,0l.38.54A1.75,1.75,0,0,1,28.82,47.91Zm-.38,3.8.38.54a1.75,1.75,0,0,1,0,1.84l-.38.54a.72.72,0,0,1-1.27,0l-.38-.54a1.75,1.75,0,0,1,0-1.84l.37-.54A.72.72,0,0,1,28.44,51.71Zm.49,3.63.37-.54a.72.72,0,0,1,1.27,0l.37.54a1.75,1.75,0,0,1,0,1.84l-.37.54a.72.72,0,0,1-1.27,0l-.37-.54A1.75,1.75,0,0,1,28.93,55.34Zm2.13-1.25a1.75,1.75,0,0,1,0-1.84l.37-.55a.72.72,0,0,1,1.27,0l.37.55a1.75,1.75,0,0,1,0,1.84l-.37.54a.72.72,0,0,1-1.27,0Zm2.13,1.25.37-.54a.72.72,0,0,1,1.27,0l.38.54a1.75,1.75,0,0,1,0,1.84l-.37.54a.72.72,0,0,1-1.27,0l-.37-.54A1.75,1.75,0,0,1,33.19,55.34Zm2.13-1.25a1.75,1.75,0,0,1,0-1.84l.37-.54a.72.72,0,0,1,1.27,0l.37.54a1.74,1.74,0,0,1,0,1.84l-.37.54a.72.72,0,0,1-1.27,0ZM37.45,51a1.75,1.75,0,0,1,0-1.84l.37-.54a.72.72,0,0,1,1.27,0l.37.54a1.75,1.75,0,0,1,0,1.84l-.37.54a.72.72,0,0,1-1.27,0ZM35.32,39.88l.22-.32.15-.21a.74.74,0,0,1,1.32.05h0l.12.16.22.32a1.75,1.75,0,0,1,0,1.84l-.37.54a.72.72,0,0,1-1.27,0l-.37-.54A1.75,1.75,0,0,1,35.32,39.88ZM34.2,38.65c.55,0,.78.33.5.73a.57.57,0,0,1-1,0C33.42,39,33.65,38.65,34.2,38.65Zm.63,3.78.38.55a1.75,1.75,0,0,1,0,1.84l-.37.54a.72.72,0,0,1-1.27,0l-.37-.54a1.75,1.75,0,0,1,0-1.84l.37-.55A.72.72,0,0,1,34.84,42.43Zm-3.77-2.55.22-.32.2-.28c.2-.23.71-.64,1.26.12l0-.05.15.21.22.32a1.75,1.75,0,0,1,0,1.84l-.37.54a.72.72,0,0,1-1.27,0l-.37-.54A1.75,1.75,0,0,1,31.06,39.88Zm-1.12-1.24c.55,0,.78.33.5.73a.57.57,0,0,1-1,0C29.17,39,29.39,38.65,29.94,38.65Zm.63,3.78L31,43a1.75,1.75,0,0,1,0,1.84l-.37.54a.72.72,0,0,1-1.27,0l-.37-.54a1.75,1.75,0,0,1,0-1.84l.37-.55A.72.72,0,0,1,30.58,42.43ZM26.8,39.88l.22-.32.16-.22c.16-.2.7-.76,1.31.06h0l.12.16.22.32a1.75,1.75,0,0,1,0,1.84l-.38.54a.72.72,0,0,1-1.27,0l-.38-.54A1.75,1.75,0,0,1,26.8,39.88Zm-1.12-1.24c.55,0,.78.33.5.73a.57.57,0,0,1-1,0C24.9,39,25.13,38.65,25.68,38.65Zm.63,3.78.37.55a1.75,1.75,0,0,1,0,1.84l-.37.54a.72.72,0,0,1-1.27,0l-.38-.54a1.75,1.75,0,0,1,0-1.84l.38-.55A.72.72,0,0,1,26.32,42.43Zm-3.77-2.55.22-.32.11-.16h0l0,0a.74.74,0,0,1,1.32,0l.11.16.22.32a1.75,1.75,0,0,1,0,1.84l-.38.54a.72.72,0,0,1-1.27,0l-.37-.54A1.75,1.75,0,0,1,22.54,39.88Zm-4.46-1.12c0,.06-.11.08-.16,0s-.06-.15,0-.15S18.13,38.7,18.08,38.76Zm2.52,2.52c-.18.26-.6.1-.94-.37s-1-1.62-.82-1.85l.11-.14a.47.47,0,0,1,.72.1h0l.14.18.26.36.22.32C20.65,40.39,20.79,41,20.61,41.29Zm.32-1.91c-.28-.4-.05-.73.5-.73s.78.33.5.73A.57.57,0,0,1,20.92,39.37Zm1.71,5.15c-.24.35-.65.21-.92-.31s-.81-1.94-.63-2.21.63-.08,1,.43l.37.54A1.54,1.54,0,0,1,22.63,44.53ZM23,47a2,2,0,0,1,.08-1.67c.26-.39.77-.29,1.12.22l.38.54a1.75,1.75,0,0,1,0,1.84l-.16.23C24.06,48.64,23.22,47.51,23,47Zm2.09,6.36c-.06.09-.15,0-.18-.16s0-.5.08-.32S25.14,53.24,25.08,53.34Zm0-1.79-.27-.39c-.35-.51-.64-1-.66-1a4.84,4.84,0,0,1,.59-1.07l.33-.48a.72.72,0,0,1,1.27,0l.37.54a1.75,1.75,0,0,1,0,1.84l-.37.54A.72.72,0,0,1,25,51.54Zm.55,5.94-.24-1.77a2.75,2.75,0,0,1,.08-1.47c.14-.2.54.05.88.56l.37.54a1.75,1.75,0,0,1,0,1.84l-.34.49C26,58.18,25.66,58.09,25.59,57.48Zm1.48,5.32a.94.94,0,0,1-.69.36c-.24,0-.47-1.41-.49-1.92s.24-.52.59,0l.2.29C27,62,27.21,62.61,27.08,62.8Zm.73.36h0Zm-.63-2.34-.38-.54a1.75,1.75,0,0,1,0-1.84l.38-.54a.72.72,0,0,1,1.27,0l.38.54a1.75,1.75,0,0,1,0,1.84l-.38.54A.72.72,0,0,1,27.18,60.82Zm4.16,2a2.09,2.09,0,0,1-1.37.36h-.06a2.09,2.09,0,0,1-1.36-.36c-.14-.2,0-.77.39-1.28l.37-.54a.72.72,0,0,1,1.27,0l.37.54C31.3,62,31.47,62.61,31.34,62.8Zm.73.36h0Zm-.63-2.34-.37-.54a1.75,1.75,0,0,1,0-1.84l.37-.54a.72.72,0,0,1,1.27,0l.37.54a1.75,1.75,0,0,1,0,1.84l-.37.54A.72.72,0,0,1,31.44,60.82Zm4.16,2a2.09,2.09,0,0,1-1.37.36h-.06a2.09,2.09,0,0,1-1.37-.36c-.14-.2,0-.77.39-1.28l.37-.54a.72.72,0,0,1,1.27,0l.38.54C35.56,62,35.73,62.61,35.6,62.8Zm.73.36h0Zm-.63-2.34-.37-.54a1.75,1.75,0,0,1,0-1.84l.37-.54a.72.72,0,0,1,1.27,0l.37.54a1.75,1.75,0,0,1,0,1.84l-.37.54A.72.72,0,0,1,35.7,60.82Zm3,.5c0,.5-.34,1.85-.7,1.85a1.22,1.22,0,0,1-.9-.36c-.14-.2,0-.77.39-1.28l.37-.54c.35-.51.69-.84.76-.75A3.09,3.09,0,0,1,38.66,61.31ZM39.15,56a16.5,16.5,0,0,1-.47,2.29c-.12.18-.5-.1-.85-.6l-.37-.54a1.75,1.75,0,0,1,0-1.84l.37-.54c.35-.51.82-.65,1.05-.31A2.52,2.52,0,0,1,39.15,56Zm.71-3.69c-.11.43-.48,1.44-.63,1.22s0-.76.27-1.2S40,51.93,39.86,52.36Zm1.6-5.11c-.2.48-.72,1.91-.77,2S40.3,49,40,48.45l-.38-.54a1.75,1.75,0,0,1,0-1.84l.38-.54a.71.71,0,0,1,1.25,0A2.11,2.11,0,0,1,41.46,47.25Zm1.69-3.58c-.26.46-1.2,1.49-1.51,1A1.65,1.65,0,0,1,41.71,43l.37-.54c.35-.51.84-.63,1.09-.27A1.57,1.57,0,0,1,43.14,43.67Zm2.09-3.21c-.3.38-1.34,1.34-1.59,1a1.55,1.55,0,0,1,.2-1.56l.22-.32.19-.27a.71.71,0,0,1,1.2,0A1.21,1.21,0,0,1,45.23,40.45ZM46.48,39c-.09.1-.24.06-.33-.07s0-.25.23-.25S46.57,38.87,46.48,39Z"/><path class="cls-1" d="M60,21.17a1.79,1.79,0,0,0-.26-.9,11.19,11.19,0,0,0-3.41-1.56.75.75,0,1,1,.4-1.44,13.05,13.05,0,0,1,2.31.88l0,0c.64.29.68-.34.68-.34a1.14,1.14,0,0,0-.54-1,14.76,14.76,0,0,0-6.7-1.64.75.75,0,0,1,0-1.5,16.22,16.22,0,0,1,6.32,1.31l0,0s1.12.49,1.09-.56a13,13,0,0,0-.55-2.27,10.37,10.37,0,0,0-3.14-4.63A36.74,36.74,0,0,0,48.43,3,34,34,0,0,0,36.95.16,30.48,30.48,0,0,0,32,.07a30.49,30.49,0,0,0-4.95.09A34,34,0,0,0,15.57,3,36.74,36.74,0,0,0,7.84,7.43,10.38,10.38,0,0,0,4.7,12.06,15.2,15.2,0,0,0,3.95,17v15s0,3.66,4.63,4.27l4.71,1.17c.18,0,.7.1.56-.67l0,0c0-.1,0-.2,0-.31a3.4,3.4,0,0,1,3.4-3.4h2.45a2,2,0,0,0,2-2.09V31s0,0,0,0V15.87a2,2,0,0,1,2-2h7.11a.5.5,0,1,1,0,1H23.72a1,1,0,0,0-1,1V30.94a1,1,0,0,0,1,1H39.63a1,1,0,0,0,1-1v-6.3a.5.5,0,1,1,1,0v6.3a1.83,1.83,0,0,1,0,.31s0,.07,0,.11A1.65,1.65,0,0,0,43.13,33h3.63a3.4,3.4,0,0,1,3.4,3.4,3.09,3.09,0,0,1,0,.37v0s-.23.8.77.55l4.5-1.12c4.64-.61,4.64-4.27,4.64-4.27V21.17Zm-28-8.34A9.12,9.12,0,0,1,33.54,9.2.92.92,0,0,1,34.91,9,8,8,0,0,1,37,13.88H33.11A.94.94,0,0,1,32.08,12.83Zm1.46,6.71a9.11,9.11,0,0,1-1.52-4,.77.77,0,0,1,.77-.66H37a7.94,7.94,0,0,1-1.89,4.66A1,1,0,0,1,33.54,19.54Zm7.09,3a.89.89,0,0,1-1,.94,9.13,9.13,0,0,1-4.42-2c-.1-.15-.17-.43.27-.86l-.07,0A9,9,0,0,0,38,14.87h2.66Zm0-8.61H38a9,9,0,0,0-2.45-5.67l.08,0c-.5-.55-.28-.94-.15-1.1a9.12,9.12,0,0,1,3.82-1.77c1-.1,1.3.56,1.35.93ZM48.56,9a9.12,9.12,0,0,1,1.61,3.83c0,.81-.58,1-1,1.05H45.26a8,8,0,0,1,2-4.84A.87.87,0,0,1,48.56,9ZM41.62,6.43h0c0-.9.36-1.12.67-1.16a9.1,9.1,0,0,1,4.13,1.61,1.15,1.15,0,0,1,0,1.62l.13-.1a8.93,8.93,0,0,0-2.28,5.48H41.62Zm0,17.11h0Zm4.87-1.72a9.1,9.1,0,0,1-3.79,1.59,1,1,0,0,1-1.08-1h0V14.87h2.66a8.94,8.94,0,0,0,2.26,5.46h0A1.1,1.1,0,0,1,46.48,21.82Zm2.07-2.05a.85.85,0,0,1-1.18,0,8,8,0,0,1-2.11-4.91h4.06a.86.86,0,0,1,.87.87A9.11,9.11,0,0,1,48.55,19.76Zm6.11-2.14a.75.75,0,0,1-.74.62h-.13a11.92,11.92,0,0,0-1.34-.16.75.75,0,0,1-.7-.79.74.74,0,0,1,.79-.7,13.43,13.43,0,0,1,1.51.18A.75.75,0,0,1,54.66,17.62Z"/></svg>