<svg id="Layer_1" data-name="Layer 1" xmlns="http://www.w3.org/2000/svg" viewBox="0 0 64 64"><defs><style>.cls-1{fill:#fff;}</style></defs><title>indoor-track</title><path class="cls-1" d="M40.54,14c-.62-1.22-1.66-2.55-3.17-2.52a1.89,1.89,0,0,0-1.68,1.2s-3.18,5.8-.62,7.93c0,0,1,.85,2.19-.58a.82.82,0,0,1,1.23,0h0a20.25,20.25,0,0,0,1.78,1.54h0c5.75,5.29,12.22-5.14,12.22-5.14,1.18-1.88.15-2.4.15-2.4-1.1-.68-1.9.74-1.9.74A9,9,0,0,1,44.86,19a2.44,2.44,0,0,1-2-.52,9,9,0,0,1-1.31-2C41.15,15.64,40.93,14.78,40.54,14Z"/><path class="cls-1" d="M23.5,36.81c.12-.39-.4-.68-.54-.75a6.35,6.35,0,0,1-3-2,.9.9,0,0,0-1.16,0l-.18.14a16.27,16.27,0,0,1-7.34,3.09c-.67.1-1.34.19-2,.3A40.83,40.83,0,0,1,3,38c-.27,0-.55,0-.81,0a2.06,2.06,0,0,0-1.62.26A1.33,1.33,0,0,0,0,39.62c.12.42.81.78,1.16,1a6.68,6.68,0,0,0,1.84.5S15.18,42.39,23.5,36.81Z"/><path class="cls-1" d="M15.91,23s1.15.32,1.75-2c0,0,2.75-8.71,10.22-6.85h0s.88.3,1.42-.82h0a10.12,10.12,0,0,1,1.77-2.89h0s.7-.89-.41-.94c-2.7-.16-6.92,0-9.82,1.88a12.55,12.55,0,0,0-5.86,10S14.88,22.76,15.91,23Z"/><path class="cls-1" d="M26.49,7.9a2.14,2.14,0,0,0,.64.4,3.41,3.41,0,0,0,3.34-1c.89-.88.92-2.43,2-3.18a1.17,1.17,0,0,1,.84-.21.69.69,0,0,1,.4.82v.08h0a4.06,4.06,0,1,0,1.18-2.27v0c-.43.45-.86-.13-.86-.13v0a2.65,2.65,0,0,0-1.54-1c-2.38-.57-3.31,1.62-3.76,3.51-.28,1.17-1,2.36-2,2.33h0C25.61,7,26.36,7.77,26.49,7.9Z"/><path class="cls-1" d="M38.89,32.91c-1.52-.14-1.27.76-1.08,1.15.65,1,1.25,2,1.74,2.88a4.45,4.45,0,0,0,2.33,1.49h0c6.5,1.68,10.76,4.47,10.76,7.64,0,3-3.62,4.9-9.48,6H43.1l-.32.06a3,3,0,0,0-2.11,2.09h0a19.28,19.28,0,0,1-1.08,3h0a3.29,3.29,0,0,1-2.69,2.16,3.33,3.33,0,0,1-1.4-.17,2.22,2.22,0,0,1-1.06-.75,2.37,2.37,0,0,1-.35-1.16,5.4,5.4,0,0,1,0-.68,4.56,4.56,0,0,1,.08-.53v0c.09-.39.17-.78.25-1.16.3-1.81-1.7-1.65-1.7-1.65h0c-1.61.08-3.21.12-5,.12h-16A7.31,7.31,0,0,0,6.3,55.33l-.08.09h0L2.53,59.58c-.17.2-2.63,3.19,3.68,3.19H34.09C50.61,62.78,64,56,64,47.74,64,40.26,53.13,34.06,38.89,32.91Z"/><path class="cls-1" d="M32.74,36.08a5.71,5.71,0,0,0,2.71-2.18,1,1,0,0,0-.07-1.16,21.72,21.72,0,0,0-2.61-2.29,2.49,2.49,0,0,0-.41-.26,15.45,15.45,0,0,0-3.23-1.88c-2.06-1.13-4.76-2.56-6.29-.27a21.36,21.36,0,0,0-1.47,2.82,10.17,10.17,0,0,1-1,1.51.91.91,0,0,0,0,.74l.19.28,0,0h0a5.88,5.88,0,0,0,3.61,2.1,2.52,2.52,0,0,0,1.85-.77,3.12,3.12,0,0,1,2.75-.21h0a10.94,10.94,0,0,1,2.48,1.37h0A1.64,1.64,0,0,0,32.74,36.08Z"/><path class="cls-1" d="M36.41,58.32s1.4.38,2.25-2c0,0,5.55-12.15-1.75-21.81-.39-.47-.67-.2-.76-.07a6.42,6.42,0,0,1-2.88,2.37c-.17.12-.43.41-.06.89h0c2.51,3,4.29,8.44,2,18.18C35.19,55.87,34.72,58.06,36.41,58.32Z"/></svg>