<svg id="Layer_1" data-name="Layer 1" xmlns="http://www.w3.org/2000/svg" viewBox="0 0 64 64"><defs><style>.cls-1{fill:#fff;}</style></defs><title>indoor-pool</title><polygon class="cls-1" points="32 3.43 0 13.51 0 18.08 32 8 64 18.08 64 13.51 32 3.43"/><path class="cls-1" d="M61.83,49.21a4.25,4.25,0,0,1-2.08-.06C58.85,48.94,58,48,56.54,48s-3.69,1.44-5.78,1.44S46.26,48,44.1,48,40,49.5,37.93,49.54s-4.2-1.41-6.26-1.44-4.07,1.26-6,1.24S22,47.91,20.12,48s-4.1,1.61-6,1.7-3.68-1.42-5.38-1.44S5.08,49.3,3.92,49.54a3.93,3.93,0,0,1-2.17.07v4.06a3.93,3.93,0,0,0,2.17-.07c1.16-.25,3.09-1.34,4.81-1.31s3.45,1.47,5.38,1.44,4.06-1.65,6-1.7,3.61,1.35,5.53,1.38,3.93-1.28,6-1.25,4.15,1.45,6.26,1.44S42,52,44.1,52s4.54,1.47,6.66,1.51S55,52.15,56.54,52.1s2.31.91,3.21,1.11a4.23,4.23,0,0,0,2.08.06Z"/><path class="cls-1" d="M27.47,47.06l16.59-8.95h0c-1.3-2.89-2.23-5.08-2.76-6.63s-.78-1.89-.47-2.63S40.71,28,43.13,27s9.69-4,12.06-4.17,2.23,2.47,1.84,3.34-2.58,1.06-4.22,1.74-3.49,1.36-5.6,2.16h0l7.59,16.88h0a5.23,5.23,0,0,1-4,1c-1.78-.18-4.16-1.89-6.38-1.9S39.67,48,37.64,48,34,46.37,32.31,46.21a8.89,8.89,0,0,0-4.84.85Z"/><path class="cls-1" d="M57.27,32.45a4.9,4.9,0,1,1-4.63,4.89,4.77,4.77,0,0,1,4.63-4.89"/><path class="cls-1" d="M61.83,56a4.43,4.43,0,0,1-2.08-.07c-.9-.2-1.72-1.18-3.21-1.11s-3.69,1.44-5.78,1.44-4.49-1.5-6.66-1.5S40,56.28,37.93,56.33s-4.2-1.41-6.26-1.44-4.07,1.25-6,1.24S22,54.7,20.12,54.76s-4.1,1.61-6,1.7S10.43,55,8.73,55s-3.65,1.06-4.81,1.31a3.8,3.8,0,0,1-2.17.06v4.06a3.79,3.79,0,0,0,2.17-.06C5.08,60.14,7,59,8.73,59.08s3.45,1.47,5.38,1.44,4.06-1.62,6-1.7,3.61,1.33,5.53,1.37,3.93-1.29,6-1.24,4.15,1.45,6.26,1.44,4-1.55,6.17-1.57,4.54,1.45,6.66,1.5,4.25-1.38,5.78-1.44,2.31.91,3.21,1.12a4.25,4.25,0,0,0,2.08.06Z"/></svg>