<svg id="Layer_1" data-name="Layer 1" xmlns="http://www.w3.org/2000/svg" viewBox="0 0 64 64"><defs><style>.cls-1{fill:#fff;}</style></defs><title>personal-training</title><circle class="cls-1" cx="32.04" cy="15.83" r="6.81"/><path class="cls-1" d="M47.36,26.48A1.33,1.33,0,1,0,50,26.06l-.21-1.37h0a.5.5,0,0,1,.38-.64h0l1.19-.19A.61.61,0,0,0,51.9,23c-.1-.3-.22-.64-.34-1a.74.74,0,0,0-.85-.43l-.94.15a.48.48,0,0,1-.51-.35l-.19-1.22a1.33,1.33,0,0,0-2.62.41Z"/><path class="cls-1" d="M58,21.11a9,9,0,0,1,.67,1.11h0v0h0a.7.7,0,0,0,.83.34h0l1-.15h0l.11,0c.19,0,.55,0,.64.58l.13.81A1.33,1.33,0,1,0,64,23.39l-.92-5.84a1.33,1.33,0,1,0-2.62.41l.22,1.41c.09.56-.3.67-.4.69h0l-1.84.3c-.81.14-.39.74-.39.74Z"/><path class="cls-1" d="M12,10a.45.45,0,0,0,.58.35l1.47-.23c.16,0,.65,0,.77.68h0l.11.69a1.33,1.33,0,1,0,2.62-.41l-.92-5.84A1.33,1.33,0,1,0,14,5.64l.19,1.21h0c.11.68-.27.86-.46.91l-.11,0h0L12.18,8c-.43.07-.39.57-.39.58C11.85,9,11.93,9.53,12,10Z"/><path class="cls-1" d="M5.8,10.88c0-.39,0-.8,0-1.22h0a.49.49,0,0,0-.6-.5h0l-1.6.26a.62.62,0,0,1-.78-.53l-.16-1A1.33,1.33,0,1,0,0,8.32l.91,5.83a1.33,1.33,0,0,0,2.62-.41l-.22-1.39a.56.56,0,0,1,.52-.64l1.41-.22h0a.57.57,0,0,0,.54-.61Z"/><path class="cls-1" d="M53.31,40.23c10-.45,4.65-17.09,4.65-17.09l-.12-.29h0l0-.08-.1-.21a7.85,7.85,0,0,0-1.15-1.87h0C54.76,18.51,53,19.27,53,19.27a1.58,1.58,0,0,0-.9.9,2,2,0,0,0,.14,1.21h0l0,0c.06.15.12.3.19.45.14.36.34.86.5,1.29a16.19,16.19,0,0,1,.61,2.35,8.66,8.66,0,0,1-.69,5.19c-.09.21-.19.42-.3.62-.26.53-.62.58-.62.58-.47,0-1-.72-1-.72h0A14.79,14.79,0,0,0,40.8,25.49c-1,0-.41,1.17-.41,1.17h0c.12.26.22.51.32.77.45,1.19,2.33,8.84.65,8.64-.46-.06-.36-.57-.74-.65-.87-.18-.67,1-1.44,1s-.6-.64-1-.85-.35,0-.67.1-1.18.8-1.28-.23c0,0,.91-5.4,0-8.83a2,2,0,0,0-1.78-1.17H29.86a2.09,2.09,0,0,0-2.23,1.39c-.81,3.43.06,8.61.06,8.61-.1,1-.84.38-1.28.23s-.24-.31-.67-.1-.39.91-1,.85-.56-1.22-1.44-1c-.38.08-.28.59-.74.65-1.68.2.2-7.45.65-8.64l.19-.47v0c.34-1-.06-1.34-.38-1.45-2.37-.35-9.77-2.43-11.89-14.89h0c-.12-.79-.25-1.78-.32-2.32h0c-.05-.52-.1-1-.14-1.59,0,0-.15-3.63-2.3-3.45,0,0-2.17.09-1.83,4.76,0,0,0,1,.05,2.51,0,.26,0,.53,0,.8h0C7,17.67,9.17,31.41,19.56,34.92a4.12,4.12,0,0,1,1.52,3.37V57.86a3,3,0,0,0,3,3H40a3,3,0,0,0,3-3V38.24c0-.24,0-1.15.36-1.22,0,0,.22-.18,1.2.51l.15.11h0C49.64,40.95,53.31,40.23,53.31,40.23Z"/></svg>