<svg id="Layer_1" data-name="Layer 1" xmlns="http://www.w3.org/2000/svg" viewBox="0 0 64 64"><defs><style>.cls-1{fill:#fff;}</style></defs><title>steam-room</title><circle class="cls-1" cx="18.93" cy="15.18" r="5.84"/><path class="cls-1" d="M34.47,50.1H3.68A2.25,2.25,0,0,0,1.4,52.38,2.22,2.22,0,0,0,3,54.52v7.2A2.25,2.25,0,0,0,5.25,64a2.25,2.25,0,0,0,2.28-2.28V54.66H30.34v7.06a2.28,2.28,0,0,0,4.56,0V54.59a2.26,2.26,0,0,0-.43-4.49Z"/><path class="cls-1" d="M39.17,24.94c.71,2.49-.43,5.13-1.92,7.2a12.19,12.19,0,0,0,4.13-7.06,4.11,4.11,0,0,0,.07-1.85c-.29-1.71-1.71-2.92-2.71-4.28a9.89,9.89,0,0,1-1.35-8.69,8.74,8.74,0,0,0-1.28,9.41C37.11,21.52,38.6,23,39.17,24.94Z"/><path class="cls-1" d="M43.81,16.89A11.64,11.64,0,0,1,43.09,26a18,18,0,0,0,5.13-5.49,8.71,8.71,0,0,0,.71-7.27c-.78-1.92-2.42-3.42-3.35-5.35A8.84,8.84,0,0,1,45.73,0a10.18,10.18,0,0,0-4.35,11.33C42,13.26,43.09,15,43.81,16.89Z"/><path class="cls-1" d="M62.48,22.31a11.83,11.83,0,0,0-2.92-5.7c-.5-.57-1.14-1.28-.93-2.07A2.8,2.8,0,0,0,58.7,17c.29.78.78,1.57,1,2.35a7.23,7.23,0,0,1-.93,5.27,40.17,40.17,0,0,0-2.57,4.92c-.57,1.71-.64,3.85.57,5.27-.5-1.28.21-2.78,1.14-3.78s2.14-1.71,3.06-2.78A7.15,7.15,0,0,0,62.48,22.31Z"/><path class="cls-1" d="M44.23,42.83a4,4,0,0,0-3.14-2.21l-4.49-.57a1,1,0,0,0-.43-.78,38,38,0,0,1-3.71-4.42,1.05,1.05,0,0,0-1.21-.43h-.07l-3.35-10.9a3.16,3.16,0,0,0-3.92-2.07l-5.13,1.5a4,4,0,0,0-1.21.64h0c-4.35,2.92-8,8.62-8,8.62a2.52,2.52,0,0,0-.85,2.14c0,.14-.07.36-.07.5V45.33a3.06,3.06,0,1,0,6.13,0V34.5l2.35-2.57,2.78,9a14.87,14.87,0,0,0-3.14,5.2,1.09,1.09,0,0,0,.14.93.88.88,0,0,0,.78.5l10,1.92h.21A1.18,1.18,0,0,0,29,48.82,17.31,17.31,0,0,1,31,46l8.34,1,8.2,16a2.07,2.07,0,0,0,2.78.64l.71-.43a2.1,2.1,0,0,0,.86-2.78Zm-17,4.28-7.77-1.5c1.07-2.14,4.2-6.77,11.69-8.91A37.93,37.93,0,0,0,33.83,40C32.19,41.55,28.84,44.62,27.27,47.11Z"/></svg>