<?xml version="1.0" encoding="UTF-8"?>
<svg width="34px" height="35px" viewBox="0 0 34 35" version="1.1" xmlns="http://www.w3.org/2000/svg" xmlns:xlink="http://www.w3.org/1999/xlink">
    <!-- Generator: Sketch 41.2 (35397) - http://www.bohemiancoding.com/sketch -->
    <title>Page 1</title>
    <desc>Created with Sketch.</desc>
    <defs>
        <polygon id="path-1" points="31.873725 0.248625 0.000141666667 0.248625 0.000141666667 22.8626059 31.873725 22.8626059 31.873725 0.248625"></polygon>
        <polygon id="path-3" points="4.99941667 4.58625288 4.99941667 0.192651923 0.640616667 0.192651923 0.640616667 4.58625288"></polygon>
    </defs>
    <g id="Symbols" stroke="none" stroke-width="1" fill="none" fill-rule="evenodd">
        <g id="Footer-Desktop" transform="translate(-941.000000, -292.000000)">
            <g id="Group-6" transform="translate(340.000000, 28.000000)">
                <g id="Page-1" transform="translate(601.000000, 264.000000)">
                    <path d="M7.16365833,19.6727106 C7.335075,19.5898933 7.73174167,19.4128356 7.908825,19.3243067 C8.11140833,19.2257827 8.08590833,19.1315423 8.02215833,18.9644798 C7.760075,18.1505856 7.624075,17.2810038 7.624075,16.3785808 C7.624075,11.759374 11.3527417,7.99404231 15.9384917,7.99404231 C20.518575,7.99404231 24.2529083,11.759374 24.2529083,16.3785808 C24.2529083,17.5665808 24.0021583,18.6974654 23.561575,19.7212587 C23.5332417,19.791225 23.523325,19.9368692 23.6451583,19.9954125 C23.7769083,20.0539558 24.279825,20.2795615 24.4271583,20.3452442 C24.577325,20.4009317 24.6722417,20.3638067 24.747325,20.2067394 C25.2502417,19.0344462 25.529325,17.7393548 25.529325,16.3785808 C25.529325,11.0482875 21.228325,6.70894615 15.9384917,6.70894615 C10.6472417,6.70894615 6.349075,11.0482875 6.349075,16.3785808 C6.349075,17.4751962 6.53040833,18.5232635 6.863325,19.5099317 C6.91290833,19.6584317 6.99365833,19.7526721 7.16365833,19.6727106" id="Fill-1" fill="#FFFFFF"></path>
                    <path d="M4.72316667,20.8091639 C4.92716667,20.7120678 5.60858333,20.3965053 5.79275,20.3094043 C5.97691667,20.2237313 5.93441667,20.0695197 5.9075,19.9952697 C5.50091667,18.8629572 5.28416667,17.6535389 5.28416667,16.3855774 C5.28416667,10.4598563 10.064,5.64217356 15.94175,5.64217356 C21.8095833,5.64217356 26.5936667,10.4598563 26.5936667,16.3855774 C26.5936667,17.9034188 26.2763333,19.348438 25.7110833,20.6549524 C25.6785,20.722063 25.63175,20.8805582 25.80175,20.9490966 C25.97175,21.0219188 26.7339167,21.3674668 26.8826667,21.4302938 C27.0314167,21.4931207 27.1263333,21.4702745 27.1985833,21.2917889 C27.8573333,19.7910822 28.2129167,18.1275966 28.2129167,16.3855774 C28.2129167,9.56028894 22.7035,4.00296202 15.94175,4.00296202 C9.16866667,4.00296202 3.66633333,9.56028894 3.66633333,16.3855774 C3.66633333,17.8891399 3.93408333,19.3213082 4.42708333,20.6635197 C4.45541667,20.7449091 4.52058333,20.9019764 4.72316667,20.8091639" id="Fill-3" fill="#FFFFFF"></path>
                    <g id="Group-7" transform="translate(0.000000, 0.054402)">
                        <mask id="mask-2" fill="white">
                            <use xlink:href="#path-1"></use>
                        </mask>
                        <g id="Clip-6"></g>
                        <path d="M1.41114167,22.2900231 C1.64914167,22.1772202 3.09555833,21.5046865 3.34630833,21.3904558 C3.60555833,21.2747971 3.49364167,21.0763212 3.453975,20.9749413 C2.922725,19.5242106 2.629475,17.9606769 2.629475,16.3243212 C2.629475,8.92216731 8.596475,2.90220577 15.9390583,2.90220577 C23.275975,2.90220577 29.247225,8.92216731 29.247225,16.3243212 C29.247225,18.2019894 28.860475,19.9825615 28.1733917,21.6032106 C28.1266417,21.7003067 28.078475,21.9030663 28.320725,22.0101577 C28.5573083,22.1158212 29.9583917,22.7340952 30.152475,22.8154846 C30.3408917,22.9040135 30.4853917,22.8868788 30.6128917,22.5970183 C31.4260583,20.6679462 31.873725,18.5489654 31.873725,16.3243212 C31.873725,7.46144135 24.725225,0.247768269 15.9390583,0.247768269 C7.15005833,0.247768269 0.000141666667,7.46144135 0.000141666667,16.3243212 C0.000141666667,18.3647683 0.381225,20.3138308 1.065475,22.1086817 C1.107975,22.20435 1.175975,22.402826 1.41114167,22.2900231" id="Fill-5" fill="#FFFFFF" mask="url(#mask-2)"></path>
                    </g>
                    <path d="M15.9458583,12.8931144 C16.886525,12.8931144 17.655775,12.1234846 17.655775,11.1710856 C17.655775,10.2144029 16.886525,9.44762885 15.9458583,9.44762885 C14.9966917,9.44762885 14.2373583,10.2144029 14.2373583,11.1710856 C14.2373583,12.1234846 14.9966917,12.8931144 15.9458583,12.8931144" id="Fill-8" fill="#FFFFFF"></path>
                    <path d="M16.5725917,21.909349 C16.9040917,21.909349 17.1775083,21.6337673 17.1775083,21.2982144 L17.1775083,17.5257433 C17.1902583,17.0502577 17.5260083,16.4334115 17.8532583,16.0778683 L21.382175,12.5210077 C21.6215917,12.2811231 21.6215917,11.8913106 21.382175,11.6571375 L20.7418417,11.0060221 C20.502425,10.7675654 20.1227583,10.7675654 19.886175,11.0060221 L16.6972583,14.2273298 C16.486175,14.4300894 16.3402583,14.5614548 15.946425,14.5614548 C15.551175,14.5614548 15.4010083,14.4300894 15.194175,14.2273298 L12.0010083,11.0060221 C11.7658417,10.7675654 11.3833417,10.7675654 11.1467583,11.0060221 L10.506425,11.6571375 C10.2712583,11.8913106 10.2712583,12.2811231 10.506425,12.5210077 L14.0325083,16.0778683 C14.3682583,16.4334115 14.6997583,17.0502577 14.713925,17.5257433 L14.713925,21.2982144 C14.713925,21.6337673 14.9845083,21.909349 15.3202583,21.909349 L16.5725917,21.909349 Z" id="Fill-10" fill="#FFFFFF"></path>
                    <path d="M27.701075,23.246563 C27.1004083,23.4621736 25.988325,24.5716399 25.478325,25.0214236 L25.3451583,25.052837 C25.5222417,24.8457937 26.2914917,23.8691207 26.494075,23.530712 C27.1004083,22.5169139 25.9514917,21.5559476 24.687825,22.2870245 C24.2132417,22.5597505 23.417075,23.4093418 23.0289083,23.7149091 L22.902825,23.7434668 C23.0742417,23.5735486 23.7854083,22.6311447 23.9851583,22.3298611 C24.5319917,21.5031159 23.3759917,20.7277745 22.3772417,21.3331976 C21.6731583,21.7572793 21.096575,22.3412841 20.5029917,22.8067745 L20.403825,22.8281928 C20.565325,22.6739812 20.9591583,22.2056351 21.1107417,22.0357168 C21.6972417,21.3746062 20.8571583,20.6049764 19.9689083,21.0690389 C19.1189083,21.5088274 17.887825,22.7382361 16.549075,23.6078178 C17.1724083,23.9462264 18.2689083,23.9904909 20.004325,24.7429861 C21.7439917,25.4940534 22.299325,27.2360726 21.1702417,28.6111255 C20.1219083,29.8862264 18.525325,29.4564332 17.1454917,29.025212 C15.5531583,28.5283082 14.989325,27.998563 13.0669083,27.3260293 C11.8074917,26.8876687 11.296075,26.8990918 11.3201583,26.5335534 C11.3414083,26.1194668 12.422325,26.3664909 13.438075,26.736313 C16.255825,27.762962 19.9972417,30.1046928 20.9152417,27.5830486 C21.640575,25.5997168 18.3949917,24.7329909 17.1554083,24.4988178 C15.4214083,24.1661207 14.228575,22.8867361 12.728325,22.0699861 C10.4659083,20.8391495 8.724825,20.8105918 7.42999167,21.0461928 C6.04165833,21.2975005 4.05690833,22.4440918 2.855575,23.1637457 C2.02399167,23.6649332 2.08065833,24.4202841 2.89949167,25.5940053 C5.78240833,29.7263034 10.5494917,32.4292889 15.937075,32.4292889 C21.6589917,32.4292889 26.6754083,29.3736159 29.486075,24.8158082 C30.1051583,23.8091495 29.1276583,22.7310966 27.701075,23.246563" id="Fill-12" fill="#FFFFFF"></path>
                    <g id="Group-16" transform="translate(28.333333, 30.039979)">
                        <mask id="mask-4" fill="white">
                            <use xlink:href="#path-3"></use>
                        </mask>
                        <g id="Clip-15"></g>
                        <path d="M2.82228333,0.192651923 C3.18778333,0.192651923 3.5462,0.286892308 3.8947,0.475373077 C4.24178333,0.665281731 4.51378333,0.935151923 4.70786667,1.28926731 C4.90336667,1.64052692 4.9997,2.00749327 4.9997,2.39016635 C4.9997,2.76855577 4.90478333,3.13409423 4.71211667,3.48249808 C4.52086667,3.83232981 4.25311667,4.10362788 3.90745,4.29639231 C3.56036667,4.49058462 3.20053333,4.58625288 2.82228333,4.58625288 C2.44403333,4.58625288 2.08278333,4.49058462 1.73711667,4.29639231 C1.39145,4.10362788 1.12228333,3.83232981 0.929616667,3.48249808 C0.73695,3.13409423 0.640616667,2.76855577 0.640616667,2.39016635 C0.640616667,2.00749327 0.738366667,1.64052692 0.933866667,1.28926731 C1.12936667,0.935151923 1.40136667,0.665281731 1.74986667,0.475373077 C2.09836667,0.286892308 2.45536667,0.192651923 2.82228333,0.192651923 L2.82228333,0.192651923 Z M2.82228333,0.5567625 C2.51628333,0.5567625 2.21736667,0.635296154 1.92836667,0.793791346 C1.63795,0.950858654 1.41128333,1.17789231 1.24695,1.47060865 C1.08261667,1.76618077 1.00186667,2.07174808 1.00186667,2.39016635 C1.00186667,2.70715673 1.0812,3.01129615 1.24411667,3.30115673 C1.4042,3.59101731 1.62803333,3.81662308 1.91703333,3.97940192 C2.20603333,4.14218077 2.50778333,4.22214231 2.82228333,4.22214231 C3.13536667,4.22214231 3.43853333,4.14218077 3.72611667,3.97940192 C4.01511667,3.81662308 4.23895,3.59101731 4.39903333,3.30115673 C4.56053333,3.01129615 4.63845,2.70715673 4.63845,2.39016635 C4.63845,2.07174808 4.55911667,1.76618077 4.39478333,1.47060865 C4.23186667,1.17789231 4.0052,0.950858654 3.71478333,0.793791346 C3.42436667,0.635296154 3.12686667,0.5567625 2.82228333,0.5567625 L2.82228333,0.5567625 Z M1.86461667,3.60529615 L1.86461667,1.23929135 L2.67211667,1.23929135 C2.94695,1.23929135 3.1467,1.2621375 3.26853333,1.30497404 C3.3932,1.35066635 3.49236667,1.42491635 3.56461667,1.53343558 C3.63686667,1.64338269 3.67511667,1.75904135 3.67511667,1.88183942 C3.67511667,2.05461346 3.6142,2.20454135 3.49095,2.33305096 C3.36911667,2.46013269 3.20478333,2.53295481 3.00503333,2.54723365 C3.0872,2.58293077 3.15236667,2.62433942 3.20478333,2.6728875 C3.29828333,2.76712788 3.41303333,2.92276731 3.55045,3.14123365 L3.83661667,3.60529615 L3.37478333,3.60529615 L3.16511667,3.23261827 C3.0022,2.93990192 2.87045,2.75570481 2.76986667,2.68145481 C2.70045,2.62719519 2.59986667,2.60006538 2.4667,2.60006538 L2.24428333,2.60006538 L2.24428333,3.60529615 L1.86461667,3.60529615 Z M2.24428333,2.27450769 L2.70328333,2.27450769 C2.92286667,2.27450769 3.07303333,2.24166635 3.15236667,2.17598365 C3.23311667,2.10887308 3.27136667,2.02177212 3.27136667,1.91325288 C3.27136667,1.84328654 3.25436667,1.78045962 3.2147,1.72477212 C3.17645,1.66908462 3.12261667,1.62910385 3.05461667,1.60054615 C2.9852,1.57484423 2.85911667,1.56056538 2.67495,1.56056538 L2.24428333,1.56056538 L2.24428333,2.27450769 Z" id="Fill-14" fill="#FFFFFF" mask="url(#mask-4)"></path>
                    </g>
                </g>
            </g>
        </g>
    </g>
</svg>