<?xml version="1.0" encoding="utf-8"?><svg width="588" height="543" viewBox="0 0 588 543" xmlns="http://www.w3.org/2000/svg" xmlns:xlink="http://www.w3.org/1999/xlink"><svg version="1" viewBox="-5 -5 58 58" width="58" height="58" id="icon-arrow-left"><path fill="#2196F3" d="M17.1 5L14 8.1 29.9 24 14 39.9l3.1 3.1L36 24z"/></svg><svg version="1" viewBox="-5 -5 58 58" width="58" height="58" id="icon-arrow-right" x="58" y="58"><path fill="#2196F3" d="M17.1 5L14 8.1 29.9 24 14 39.9l3.1 3.1L36 24z"/></svg><svg viewBox="-5 -5 60 60" width="60" height="60" id="icon-camps" x="116" y="116"><path d="M50 0h-.003v.002L38.77 4.734 37.308.474l-6.036 5.304-2.545-3.753-5.67 5.312-2.951-3.45-4.599 5.55-2.545-2.6-4.172 6.839-3.369-.933S-.87 29.745 8.357 40.17l-8.05 8.05v.002a1.037 1.037 0 0 0 0 1.472 1.038 1.038 0 0 0 1.47 0l8.054-8.053c4.41 3.906 10 5.032 14.978 5.032 6.79 0 12.447-2.093 12.447-2.093l-.93-3.37 6.835-4.171-2.6-2.545 5.551-4.6-3.448-2.95 5.31-5.67-3.754-2.545 5.307-6.036-4.26-1.462L49.997.002H50zm-6.656 10.42l-.863 2.057 2.108.724 1.319.452-3.25 3.7-1.56 1.774 1.953 1.325 1.737 1.176-3.647 3.89-1.49 1.592 1.658 1.416 1.569 1.342-3.644 3.022-1.782 1.475 1.654 1.617.686.672-4.553 2.778-1.343.82.422 1.515.393 1.423c-2.096.582-5.786 1.401-9.902 1.401-2.735 0-5.252-.366-7.486-1.083-2.292-.737-4.312-1.86-6.015-3.343l16.159-16.158a1.043 1.043 0 0 0-1.474-1.473L9.833 38.692C8.135 36.74 6.91 34.374 6.19 31.65c-.668-2.53-.91-5.382-.717-8.476.202-3.27.852-6.13 1.337-7.884l1.422.394 1.516.42.818-1.343 2.777-4.552.675.687 1.617 1.652 1.474-1.78 3.021-3.646 1.343 1.57 1.416 1.657 1.593-1.491 3.888-3.645 1.178 1.734 1.325 1.956 1.772-1.56 3.702-3.251.452 1.319.723 2.11 2.057-.867L46.09 3.91l-2.747 6.512z" fill="#fff"/></svg><svg viewBox="-5 -5 60 60" width="60" height="60" id="icon-childcare" x="176" y="176"><g fill="#fff"><path d="M45.157 48.386V19.35h3.721l-4.035-8.06H25.807V8.06h8.061V0h-9.675v11.29H5.148l-4.036 8.06h3.72v29.036H0V50h50v-1.614h-4.843zM25.807 1.614h6.447v4.843h-6.447V1.614zM3.72 17.746l2.422-4.842h37.716l2.422 4.842H3.72zm15.63 30.64V32.254h11.29v16.132H19.35zm24.203 0h-11.3V30.65H17.747v17.746h-11.3V19.36h37.097v29.026z"/><path d="M15.325 36.29H8.868v6.446h6.447V36.29zm-1.614 4.842h-3.229v-3.228h3.229v3.228zm27.421-4.842h-6.447v6.446h6.447V36.29zm-1.614 4.842h-3.229v-3.228h3.229v3.228zm-24.193-19.36H8.868v6.447h6.447v-6.447zm-1.614 4.842h-3.229v-3.228h3.229v3.228zm27.421-4.842h-6.447v6.447h6.447v-6.447zm-1.614 4.842h-3.229v-3.228h3.229v3.228zm-11.29-4.842h-6.447v6.447h6.447v-6.447zm-1.614 4.842h-3.228v-3.228h3.228v3.228zm-2.421-12.096h1.614v1.614h-1.614zm3.228 0h1.614v1.614h-1.614zm-6.456 0h1.614v1.614h-1.614z"/></g></svg><svg width="22" height="30" viewBox="-5 -5 22 30" id="icon-facebook-f" x="236" y="236"><path d="M11.5.144v3.173H9.501q-1.095 0-1.477.433-.382.433-.382 1.298V7.32h3.73l-.496 3.557H7.642V20H3.747v-9.123H.5V7.32h3.247V4.7q0-2.236 1.324-3.468Q6.395 0 8.597 0 10.47 0 11.5.144z" fill="#4f4f4f"/></svg><svg width="60" height="60" viewBox="-5 -5 60 60" id="icon-kidsteensfamilies" x="258" y="266"><title>bball_icons</title><path d="M39.34 4.524C28.03-3.396 12.442-.648 4.523 10.66-3.396 21.97-.648 37.557 10.66 45.476c11.309 7.92 26.896 5.172 34.815-6.137l.002-.002c7.917-11.308 5.17-26.895-6.139-34.813zm4.549 32.136l-7.177-5a22.098 22.098 0 0 1 10.51-7.332 22.093 22.093 0 0 1-3.333 12.332zM38.834 7.635a22.22 22.22 0 0 1 8.388 16.693 22.378 22.378 0 0 0-.295-2.845 24.87 24.87 0 0 0-12.482 8.555l-7.56-5.3L38.834 7.636zM19.447 3.502c-.423.105-.84.222-1.25.355a22.098 22.098 0 0 1-3.278 12.521l-7.344-5.16a22.114 22.114 0 0 1 11.872-7.716zm1.5-.334c-.417.078-.834.173-1.25.273.438-.106.86-.195 1.277-.29l-.028.017zm-15 10.333l7.389 5.144a22.098 22.098 0 0 1-10.521 7.221c0 .456.05.911.1 1.367A22.12 22.12 0 0 1 5.998 13.5h-.05zm-3.02 13.854zm8.221 14.999A22.148 22.148 0 0 1 3.11 28.705a24.87 24.87 0 0 0 12.51-8.444l7.394 5.178-11.866 16.915zm13.46-19.204l-7.383-5.177a24.876 24.876 0 0 0 3.75-14.821 22.153 22.153 0 0 1 15.61 2.877L24.607 23.15zM13.42 43.96l11.87-16.923 7.583 5.311a24.87 24.87 0 0 0-3.666 14.477 22.154 22.154 0 0 1-15.788-2.867zm15.788 2.838zm2.777-.717a22.098 22.098 0 0 1 3.194-12.165l7.155 5a22.093 22.093 0 0 1-10.37 7.17l.021-.005z" fill="#fff"/></svg><svg viewBox="-5 -5 60 54.92" width="60" height="54.93" id="icon-noun_130272" x="318" y="326"><g fill="#fff"><path d="M35.781 0C31.595 0 27.684 1.82 25 4.946A14.214 14.214 0 0 0 14.217 0C6.377 0 0 6.378 0 14.219c0 3.724 1.427 7.245 4.023 9.912L21.821 43.51c.84.913 1.968 1.416 3.178 1.416 1.211 0 2.338-.503 3.178-1.416l17.79-19.369A14.135 14.135 0 0 0 50 14.22C50.002 6.378 43.62 0 35.781 0zm8.263 22.289c-.011.008-.02.02-.032.029L26.212 41.7a1.64 1.64 0 0 1-1.212.555 1.64 1.64 0 0 1-1.211-.555L6.006 22.344c-.017-.018-.032-.037-.05-.054a11.481 11.481 0 0 1-3.286-8.07c0-6.37 5.18-11.55 11.547-11.55 3.837 0 7.414 1.898 9.568 5.077l.084.133a1.33 1.33 0 0 0 1.118.62c.466.013.877-.222 1.126-.602a11.529 11.529 0 0 1 9.668-5.228c6.37 0 11.55 5.182 11.55 11.55 0 3.033-1.166 5.9-3.286 8.07z"/><path d="M14.649 5.835c-4.86 0-8.815 3.954-8.815 8.815a1.336 1.336 0 0 0 2.67 0 6.149 6.149 0 0 1 6.144-6.143 1.337 1.337 0 0 0 0-2.672z"/></g></svg><svg viewBox="-5 -5 60 43.33" width="60" height="43.33" id="icon-noun_99411" x="378" y="381"><path d="M42.982 21.93c-2.735 0-6.2-4.7-8.27-7.507-.24-.325-.466-.632-.677-.914-1.146-1.53-2.167-4.26-3.067-6.671-1.343-3.59-2.226-5.96-3.775-5.96-1.887 0-4.148 2.043-6.502 4.384-1.037-.01-3.128-.093-4.51-.783-.596-.298-1.427-1.063-2.233-1.803C12.452 1.3 11.038 0 9.65 0 6.892 0 4.958 5.159 4.431 6.74c-.3.9-1.018 1.743-1.777 2.636C1.41 10.84 0 12.496 0 14.912c0 4.48 7.042 6.487 12.7 8.097 1.911.545 3.561 1.013 4.452 1.46.555.276 1.33.686 2.265 1.18 5.08 2.686 14.537 7.684 19.18 7.684 10.29 0 11.403-4.294 11.403-6.14 0-2.384-3.13-5.263-7.018-5.263zm-4.386 9.649c-4.207 0-13.766-5.053-18.36-7.48-.948-.5-1.736-.917-2.3-1.199-1.037-.518-2.76-1.008-4.755-1.576-4.55-1.298-11.427-3.256-11.427-6.412 0-.85.255-1.587.642-2.272 1.782 2.252 5.611 3.476 8.76 4.478 1.333.424 2.592.824 3.363 1.21 1.027.513 2.681 1.621 4.596 2.903 5.718 3.826 14.176 9.479 21.524 10.279-.645.045-1.327.069-2.043.069zM48.1 28.09a.849.849 0 0 0-.37.148c-7.18 5.22-19.987-3.346-27.638-8.466-2.046-1.37-3.661-2.45-4.787-3.013-.894-.448-2.156-.848-3.616-1.313-2.986-.95-7.05-2.248-8.207-4.328.166-.2.336-.402.51-.605.834-.981 1.697-1.996 2.104-3.218 1.14-3.422 2.733-5.54 3.554-5.54.705 0 2.096 1.278 3.112 2.213.935.86 1.819 1.67 2.636 2.08 1.939.97 4.735.97 5.655.97h.363l.257-.257c1.416-1.417 4.03-4.031 5.442-4.127.472.346 1.239 2.25 1.862 3.894l-2.27 1.514a.877.877 0 1 0 .973 1.46l1.93-1.287c.344.909.701 1.835 1.081 2.726l-2.23 1.487a.878.878 0 0 0 .975 1.46l2-1.334c.378.752.774 1.443 1.197 2.007l.334.45c-.039.019-.083.024-.119.049l-2.631 1.754a.877.877 0 1 0 .973 1.46l2.632-1.755c.061-.04.103-.098.15-.15 2.389 3.205 5.709 7.315 9.01 7.315 3.093 0 5.264 2.277 5.264 3.509 0 .313-.054.612-.146.897z" fill="#fff"/></svg><svg width="32" height="32" viewBox="-5 -5 32 32" id="icon-search" x="438" y="425"><path d="M15.23 9.308q0-2.446-1.738-4.185-1.738-1.738-4.184-1.738T5.123 5.123Q3.385 6.862 3.385 9.308q0 2.446 1.738 4.184 1.739 1.739 4.185 1.739 2.446 0 4.184-1.739 1.739-1.738 1.739-4.184zm6.77 11q0 .687-.502 1.19-.503.502-1.19.502-.714 0-1.19-.502l-4.535-4.522q-2.367 1.64-5.275 1.64-1.89 0-3.616-.734-1.726-.734-2.975-1.984-1.25-1.249-1.983-2.974Q0 11.198 0 9.308q0-1.89.734-3.616.734-1.726 1.983-2.975 1.25-1.25 2.975-1.983Q7.417 0 9.308 0q1.89 0 3.616.734 1.725.734 2.974 1.983 1.25 1.25 1.984 2.975.733 1.725.733 3.616 0 2.908-1.639 5.275l4.535 4.535q.489.489.489 1.19z" fill="#fff"/></svg><svg viewBox="-5 -5 60 29.01" width="60" height="29.01" id="icon-swimming" x="470" y="457"><path fill="#fff" stroke-miterlimit="10" d="M19.683 10.918s5.112-4.09 10.633 0l.134 1.77s-4.905-3.341-10.903 0l.136-1.77zm-.136 1.77c5.999-3.341 10.904 0 10.904 0l-.134-1.77c-5.521-4.09-10.633 0-10.633 0l-.137 1.77zm.955-1.19c0-3.86-4.136-6.987-9.237-6.987-5.1 0-9.236 3.127-9.236 6.986 0 3.86 4.135 6.987 9.236 6.987 5.101 0 9.237-3.128 9.237-6.987m-.819.137c0-2.88-3.356-5.214-7.497-5.214-4.142 0-7.5 2.334-7.5 5.214 0 2.88 3.358 5.215 7.5 5.215 4.14 0 7.497-2.336 7.497-5.215M12.186 6.42c-4.142 0-7.499 2.334-7.499 5.214 0 2.88 3.357 5.215 7.5 5.215 4.14 0 7.497-2.336 7.497-5.215 0-2.88-3.357-5.214-7.498-5.214zM29.5 11.497c0 3.86 4.136 6.987 9.236 6.987 5.102 0 9.236-3.128 9.236-6.987s-4.135-6.986-9.236-6.986c-5.1 0-9.236 3.128-9.236 6.986M25.065.53C11.587.53.661 6.235.661 9.687c0 .5.232.987.666 1.453.224-.24.504-.497.832-.765C2.87 7.05 6.671 4.51 11.265 4.51c1.02 0 1.997.13 2.914.36 3.277-.862 6.973-1.434 10.886-1.434 3.885 0 7.556.565 10.817 1.417a11.948 11.948 0 0 1 2.853-.344c4.536 0 8.301 2.476 9.08 5.738.397.315.73.615.988.892.435-.466.665-.952.665-1.453C49.47 6.235 38.543.529 25.065.529zM2.16 10.375c-.078.366-.13.739-.13 1.122 0 3.86 4.135 6.987 9.236 6.987 5.1 0 9.236-3.128 9.236-6.987 0-3.087-2.65-5.702-6.322-6.626m0 0c-.916-.23-1.894-.36-2.914-.36-4.594 0-8.394 2.54-9.106 5.864m33.724-5.52c-3.705.909-6.385 3.538-6.385 6.642 0 3.86 4.136 6.987 9.237 6.987s9.236-3.128 9.236-6.987c0-.427-.058-.843-.156-1.248m0 0c-.779-3.262-4.543-5.738-9.08-5.738-.996 0-1.953.122-2.852.343m-5.567 6.78c0 2.88 3.358 5.215 7.498 5.215 4.142 0 7.498-2.336 7.498-5.215 0-2.88-3.356-5.214-7.498-5.214-4.14 0-7.498 2.334-7.498 5.214m0 0c0 2.88 3.358 5.215 7.498 5.215 4.142 0 7.498-2.336 7.498-5.215 0-2.88-3.356-5.214-7.498-5.214-4.14 0-7.498 2.334-7.498 5.214zm-12.951-.86c-.928-2.12-4.903-2.65-5.947-2.65m6.289 4.108a.074.074 0 0 0-.074-.075.074.074 0 0 0 0 .149c.04 0 .074-.034.074-.074m25.536-1.458c-.927-2.12-4.903-2.65-5.947-2.65m6.29 4.108a.074.074 0 1 0-.15 0c0 .04.034.074.075.074a.074.074 0 0 0 .075-.074M.53 12.929a.75.75 0 1 0 1.5 0v-2.73a.75.75 0 1 0-1.5 0v2.73zm0 0a.75.75 0 1 0 1.5 0v-2.73a.75.75 0 1 0-1.5 0v2.73zm47.442 0a.75.75 0 0 0 1.5 0v-2.73a.75.75 0 1 0-1.5 0v2.73zm0 0a.75.75 0 0 0 1.5 0v-2.73a.75.75 0 1 0-1.5 0v2.73z" stroke="#fff" stroke-width="1.059" stroke-linecap="round" stroke-linejoin="round"/></svg><svg width="30" height="26" viewBox="-5 -5 30 26" id="icon-twitter" x="530" y="487"><path d="M20 1.9q-.85 1.225-2.056 2.087.013.175.013.525 0 1.625-.482 3.244-.483 1.619-1.466 3.106-.984 1.488-2.341 2.632-1.358 1.143-3.275 1.825Q8.477 16 6.294 16 2.855 16 0 14.187q.444.05.99.05 2.855 0 5.089-1.724-1.333-.025-2.386-.807-1.053-.78-1.447-1.993.419.062.774.062.546 0 1.079-.137-1.421-.288-2.354-1.394Q.812 7.138.812 5.675v-.05q.863.475 1.853.513-.838-.55-1.333-1.438-.494-.887-.494-1.925 0-1.1.558-2.037Q2.93 2.6 5.133 3.718q2.202 1.12 4.715 1.245-.102-.475-.102-.925 0-1.675 1.2-2.857Q12.144 0 13.845 0q1.776 0 2.994 1.275 1.383-.262 2.602-.975-.47 1.437-1.802 2.225Q18.82 2.4 20 1.9z" fill="#4f4f4f"/></svg><svg width="28" height="30" viewBox="-5 -5 28 30" id="icon-youtube" x="560" y="513"><path d="M11.329 13.884v2.355q0 .748-.448.748-.264 0-.516-.246v-3.36q.252-.245.516-.245.448 0 .448.748zm3.877.011v.513h-1.033v-.513q0-.759.517-.759.516 0 .516.759zM4.125 11.462h1.227v-1.05H1.773v1.05h1.205v6.35h1.147v-6.35zm3.303 6.35H8.45V12.3H7.43v4.219q-.345.469-.654.469-.207 0-.241-.235-.012-.033-.012-.39V12.3h-1.02v4.364q0 .547.091.815.138.413.665.413.551 0 1.17-.681v.603zm4.922-1.651v-2.199q0-.815-.104-1.105-.195-.625-.814-.625-.574 0-1.067.603v-2.422h-1.02v7.4h1.02v-.536q.516.614 1.067.614.62 0 .814-.614.104-.302.104-1.116zm3.877-.112v-.145h-1.044q0 .57-.023.68-.08.403-.459.403-.528 0-.528-.77v-.972h2.054v-1.15q0-.88-.31-1.294-.447-.569-1.216-.569-.78 0-1.227.57-.322.412-.322 1.294v1.93q0 .882.333 1.295.447.57 1.239.57.826 0 1.239-.592.206-.301.24-.603.024-.1.024-.647zM9.252 5.859V3.515q0-.77-.493-.77t-.493.77V5.86q0 .781.493.781t.493-.78zm8.248 8.382q0 2.612-.298 3.906-.16.659-.666 1.105-.504.447-1.17.514Q13.256 20 9 20t-6.366-.234q-.666-.068-1.176-.514-.51-.446-.66-1.105Q.5 16.897.5 14.241q0-2.612.298-3.906.16-.659.666-1.105.504-.447 1.181-.525 2.1-.223 6.355-.223 4.256 0 6.366.223.666.078 1.176.525.51.446.66 1.105.298 1.25.298 3.906zM6.052 0h1.17L5.834 4.453v3.025H4.687V4.453q-.16-.826-.7-2.366Q3.563.937 3.242 0h1.215l.815 2.935zm4.244 3.717V5.67q0 .904-.321 1.317-.424.569-1.216.569-.768 0-1.204-.57-.322-.423-.322-1.316V3.717q0-.893.322-1.306.436-.57 1.204-.57.792 0 1.216.57.321.413.321 1.306zm3.843-1.809v5.57h-1.044v-.614q-.608.692-1.181.692-.528 0-.677-.413-.092-.268-.092-.837V1.908h1.044v4.097q0 .368.011.39.035.246.241.246.31 0 .654-.48V1.908h1.044z" fill="#4f4f4f"/></svg></svg>