<?xml version="1.0" encoding="utf-8"?><svg width="80" height="86" viewBox="0 0 80 86" xmlns="http://www.w3.org/2000/svg" xmlns:xlink="http://www.w3.org/1999/xlink"><svg width="22" height="30" viewBox="-5 -5 22 30" id="icon-facebook-f"><path d="M11.5.144v3.173H9.501q-1.095 0-1.477.433-.382.433-.382 1.298V7.32h3.73l-.496 3.557H7.642V20H3.747v-9.123H.5V7.32h3.247V4.7q0-2.236 1.324-3.468Q6.395 0 8.597 0 10.47 0 11.5.144z" fill="#4f4f4f"/></svg><svg width="30" height="26" viewBox="-5 -5 30 26" id="icon-twitter" x="22" y="30"><path d="M20 1.9q-.85 1.225-2.056 2.087.013.175.013.525 0 1.625-.482 3.244-.483 1.619-1.466 3.106-.984 1.488-2.341 2.632-1.358 1.143-3.275 1.825Q8.477 16 6.294 16 2.855 16 0 14.187q.444.05.99.05 2.855 0 5.089-1.724-1.333-.025-2.386-.807-1.053-.78-1.447-1.993.419.062.774.062.546 0 1.079-.137-1.421-.288-2.354-1.394Q.812 7.138.812 5.675v-.05q.863.475 1.853.513-.838-.55-1.333-1.438-.494-.887-.494-1.925 0-1.1.558-2.037Q2.93 2.6 5.133 3.718q2.202 1.12 4.715 1.245-.102-.475-.102-.925 0-1.675 1.2-2.857Q12.144 0 13.845 0q1.776 0 2.994 1.275 1.383-.262 2.602-.975-.47 1.437-1.802 2.225Q18.82 2.4 20 1.9z" fill="#4f4f4f"/></svg><svg width="28" height="30" viewBox="-5 -5 28 30" id="icon-youtube" x="52" y="56"><path d="M11.329 13.884v2.355q0 .748-.448.748-.264 0-.516-.246v-3.36q.252-.245.516-.245.448 0 .448.748zm3.877.011v.513h-1.033v-.513q0-.759.517-.759.516 0 .516.759zM4.125 11.462h1.227v-1.05H1.773v1.05h1.205v6.35h1.147v-6.35zm3.303 6.35H8.45V12.3H7.43v4.219q-.345.469-.654.469-.207 0-.241-.235-.012-.033-.012-.39V12.3h-1.02v4.364q0 .547.091.815.138.413.665.413.551 0 1.17-.681v.603zm4.922-1.651v-2.199q0-.815-.104-1.105-.195-.625-.814-.625-.574 0-1.067.603v-2.422h-1.02v7.4h1.02v-.536q.516.614 1.067.614.62 0 .814-.614.104-.302.104-1.116zm3.877-.112v-.145h-1.044q0 .57-.023.68-.08.403-.459.403-.528 0-.528-.77v-.972h2.054v-1.15q0-.88-.31-1.294-.447-.569-1.216-.569-.78 0-1.227.57-.322.412-.322 1.294v1.93q0 .882.333 1.295.447.57 1.239.57.826 0 1.239-.592.206-.301.24-.603.024-.1.024-.647zM9.252 5.859V3.515q0-.77-.493-.77t-.493.77V5.86q0 .781.493.781t.493-.78zm8.248 8.382q0 2.612-.298 3.906-.16.659-.666 1.105-.504.447-1.17.514Q13.256 20 9 20t-6.366-.234q-.666-.068-1.176-.514-.51-.446-.66-1.105Q.5 16.897.5 14.241q0-2.612.298-3.906.16-.659.666-1.105.504-.447 1.181-.525 2.1-.223 6.355-.223 4.256 0 6.366.223.666.078 1.176.525.51.446.66 1.105.298 1.25.298 3.906zM6.052 0h1.17L5.834 4.453v3.025H4.687V4.453q-.16-.826-.7-2.366Q3.563.937 3.242 0h1.215l.815 2.935zm4.244 3.717V5.67q0 .904-.321 1.317-.424.569-1.216.569-.768 0-1.204-.57-.322-.423-.322-1.316V3.717q0-.893.322-1.306.436-.57 1.204-.57.792 0 1.216.57.321.413.321 1.306zm3.843-1.809v5.57h-1.044v-.614q-.608.692-1.181.692-.528 0-.677-.413-.092-.268-.092-.837V1.908h1.044v4.097q0 .368.011.39.035.246.241.246.31 0 .654-.48V1.908h1.044z" fill="#4f4f4f"/></svg></svg>