<?xml version="1.0" encoding="UTF-8" standalone="no"?>
<!-- Generator: Adobe Illustrator 17.0.0, SVG Export Plug-In . SVG Version: 6.00 Build 0)  -->

<svg
   xmlns:dc="http://purl.org/dc/elements/1.1/"
   xmlns:cc="http://creativecommons.org/ns#"
   xmlns:rdf="http://www.w3.org/1999/02/22-rdf-syntax-ns#"
   xmlns:svg="http://www.w3.org/2000/svg"
   xmlns="http://www.w3.org/2000/svg"
   xmlns:xlink="http://www.w3.org/1999/xlink"
   xmlns:sodipodi="http://sodipodi.sourceforge.net/DTD/sodipodi-0.dtd"
   xmlns:inkscape="http://www.inkscape.org/namespaces/inkscape"
   version="1.1"
   id="Layer_1"
   x="0px"
   y="0px"
   width="755"
   height="755"
   viewBox="0 0 755 755"
   enable-background="new 0 0 755 755"
   xml:space="preserve"
   inkscape:version="0.91 r13725"
   sodipodi:docname="circle.svg"><metadata
     id="metadata125"><rdf:RDF><cc:Work
         rdf:about=""><dc:format>image/svg+xml</dc:format><dc:type
           rdf:resource="http://purl.org/dc/dcmitype/StillImage" /><dc:title></dc:title></cc:Work></rdf:RDF></metadata><defs
     id="defs123" /><sodipodi:namedview
     pagecolor="#ffffff"
     bordercolor="#666666"
     borderopacity="1"
     objecttolerance="10"
     gridtolerance="10"
     guidetolerance="10"
     inkscape:pageopacity="0"
     inkscape:pageshadow="2"
     inkscape:window-width="1920"
     inkscape:window-height="1031"
     id="namedview121"
     showgrid="false"
     fit-margin-top="0"
     fit-margin-left="0"
     fit-margin-right="0"
     fit-margin-bottom="0"
     inkscape:zoom="0.31258278"
     inkscape:cx="383.89831"
     inkscape:cy="377.5"
     inkscape:window-x="0"
     inkscape:window-y="25"
     inkscape:window-maximized="1"
     inkscape:current-layer="Layer_1" /><g
     id="g3"><defs
       id="defs5"><rect
         id="SVGID_1_"
         width="755"
         height="755"
         x="0"
         y="0" /></defs><clipPath
       id="SVGID_2_"><use
         xlink:href="#SVGID_1_"
         overflow="visible"
         id="use9"
         style="overflow:visible"
         x="0"
         y="0"
         width="100%"
         height="100%" /></clipPath><circle
       clip-path="url(#SVGID_2_)"
       stroke-miterlimit="10"
       cx="376.83301"
       cy="53.5"
       r="17.334"
       id="circle11"
       style="fill:none;stroke:rgba(255,255,255,0.3);stroke-width:5;stroke-miterlimit:10" /><path
       clip-path="url(#SVGID_2_)"
       stroke-miterlimit="10"
       d="m 371.363,346.855 c 2.345,-0.395 4.75,-0.611 7.206,-0.611 2.457,0 4.862,0.216 7.207,0.611 L 416.249,121.26 c 1.473,-10.901 -6.322,-19.82 -17.322,-19.82 l -40.715,0 c -11,0 -18.795,8.919 -17.323,19.82 l 30.474,225.595 z"
       id="path13"
       inkscape:connector-curvature="0"
       style="fill:none;stroke:rgba(255,255,255,0.3);stroke-width:5;stroke-miterlimit:10" /><circle
       clip-path="url(#SVGID_2_)"
       stroke-miterlimit="10"
       cx="266.05899"
       cy="73.267998"
       r="17.333"
       id="circle15"
       style="fill:none;stroke:rgba(255,255,255,0.3);stroke-width:5;stroke-miterlimit:10" /><path
       clip-path="url(#SVGID_2_)"
       stroke-miterlimit="10"
       d="m 361.252,350.802 c 2.068,-1.173 4.254,-2.199 6.563,-3.039 2.308,-0.84 4.643,-1.459 6.981,-1.891 L 326.273,123.46 c -2.344,-10.747 -12.72,-16.462 -23.056,-12.7 l -38.26,13.925 c -10.336,3.762 -14.611,14.81 -9.499,24.55 l 105.794,201.567 z"
       id="path17"
       inkscape:connector-curvature="0"
       style="fill:none;stroke:rgba(255,255,255,0.3);stroke-width:5;stroke-miterlimit:10" /><circle
       clip-path="url(#SVGID_2_)"
       stroke-miterlimit="10"
       cx="168.726"
       cy="129.73"
       r="17.333"
       id="circle19"
       style="fill:none;stroke:rgba(255,255,255,0.3);stroke-width:5;stroke-miterlimit:10" /><path
       clip-path="url(#SVGID_2_)"
       stroke-miterlimit="10"
       d="m 353.101,357.969 c 1.542,-1.809 3.246,-3.521 5.128,-5.1 1.882,-1.58 3.863,-2.96 5.913,-4.164 L 242.476,156.301 c -5.879,-9.297 -17.583,-11.119 -26.01,-4.048 l -31.189,26.17 c -8.426,7.071 -8.665,18.914 -0.53,26.318 l 168.354,153.228 z"
       id="path21"
       inkscape:connector-curvature="0"
       style="fill:none;stroke:rgba(255,255,255,0.3);stroke-width:5;stroke-miterlimit:10" /><circle
       clip-path="url(#SVGID_2_)"
       stroke-miterlimit="10"
       cx="96.574997"
       cy="216.077"
       r="17.333"
       id="circle23"
       style="fill:none;stroke:rgba(255,255,255,0.3);stroke-width:5;stroke-miterlimit:10" /><path
       clip-path="url(#SVGID_2_)"
       stroke-miterlimit="10"
       d="m 347.892,367.492 c 0.831,-2.228 1.846,-4.419 3.074,-6.547 1.228,-2.127 2.618,-4.102 4.132,-5.935 L 174.964,215.822 c -8.704,-6.726 -20.326,-4.435 -25.826,5.092 l -20.357,35.259 c -5.5,9.527 -1.674,20.737 8.503,24.912 l 210.608,86.407 z"
       id="path25"
       inkscape:connector-curvature="0"
       style="fill:none;stroke:rgba(255,255,255,0.3);stroke-width:5;stroke-miterlimit:10" /><circle
       clip-path="url(#SVGID_2_)"
       stroke-miterlimit="10"
       cx="58.306"
       cy="321.89499"
       r="17.333"
       id="circle27"
       style="fill:none;stroke:rgba(255,255,255,0.3);stroke-width:5;stroke-miterlimit:10" /><path
       clip-path="url(#SVGID_2_)"
       stroke-miterlimit="10"
       d="m 346.255,378.222 c 0.018,-2.378 0.223,-4.784 0.65,-7.203 0.426,-2.42 1.057,-4.751 1.853,-6.991 L 131.882,294.843 c -10.48,-3.343 -20.617,2.785 -22.527,13.618 l -7.07,40.096 c -1.91,10.833 5.519,20.059 16.511,20.501 l 227.459,9.164 z"
       id="path29"
       inkscape:connector-curvature="0"
       style="fill:none;stroke:rgba(255,255,255,0.3);stroke-width:5;stroke-miterlimit:10" /><circle
       clip-path="url(#SVGID_2_)"
       stroke-miterlimit="10"
       cx="58.537998"
       cy="434.41901"
       r="17.333"
       id="circle31"
       style="fill:none;stroke:rgba(255,255,255,0.3);stroke-width:5;stroke-miterlimit:10" /><path
       clip-path="url(#SVGID_2_)"
       stroke-miterlimit="10"
       d="m 348.386,388.865 c -0.796,-2.24 -1.427,-4.571 -1.853,-6.991 -0.427,-2.419 -0.631,-4.825 -0.65,-7.203 l -227.459,9.164 c -10.991,0.442 -18.421,9.668 -16.511,20.501 l 7.07,40.096 c 1.91,10.833 12.047,16.961 22.527,13.618 l 216.876,-69.185 z"
       id="path33"
       inkscape:connector-curvature="0"
       style="fill:none;stroke:rgba(255,255,255,0.3);stroke-width:5;stroke-miterlimit:10" /><circle
       clip-path="url(#SVGID_2_)"
       stroke-miterlimit="10"
       cx="97.240997"
       cy="540.07703"
       r="17.333"
       id="circle35"
       style="fill:none;stroke:rgba(255,255,255,0.3);stroke-width:5;stroke-miterlimit:10" /><path
       clip-path="url(#SVGID_2_)"
       stroke-miterlimit="10"
       d="m 354.029,398.137 c -1.514,-1.833 -2.904,-3.808 -4.132,-5.935 -1.229,-2.128 -2.244,-4.319 -3.074,-6.547 l -210.608,86.407 c -10.177,4.175 -14.003,15.385 -8.503,24.912 l 20.357,35.259 c 5.5,9.527 17.121,11.818 25.826,5.092 L 354.029,398.137 Z"
       id="path37"
       inkscape:connector-curvature="0"
       style="fill:none;stroke:rgba(255,255,255,0.3);stroke-width:5;stroke-miterlimit:10" /><circle
       clip-path="url(#SVGID_2_)"
       stroke-miterlimit="10"
       cx="169.74699"
       cy="626.12701"
       r="17.333"
       id="circle39"
       style="fill:none;stroke:rgba(255,255,255,0.3);stroke-width:5;stroke-miterlimit:10" /><path
       clip-path="url(#SVGID_2_)"
       stroke-miterlimit="10"
       d="m 362.503,404.92 c -2.05,-1.205 -4.031,-2.585 -5.913,-4.164 -1.882,-1.579 -3.586,-3.291 -5.128,-5.1 L 183.108,548.883 c -8.135,7.405 -7.896,19.247 0.53,26.318 l 31.189,26.171 c 8.427,7.071 20.131,5.249 26.01,-4.048 L 362.503,404.92 Z"
       id="path41"
       inkscape:connector-curvature="0"
       style="fill:none;stroke:rgba(255,255,255,0.3);stroke-width:5;stroke-miterlimit:10" /><circle
       clip-path="url(#SVGID_2_)"
       stroke-miterlimit="10"
       cx="267.31201"
       cy="682.18903"
       r="17.333"
       id="circle43"
       style="fill:none;stroke:rgba(255,255,255,0.3);stroke-width:5;stroke-miterlimit:10" /><path
       clip-path="url(#SVGID_2_)"
       stroke-miterlimit="10"
       d="m 372.785,408.396 c -2.338,-0.431 -4.672,-1.05 -6.981,-1.891 -2.308,-0.84 -4.495,-1.866 -6.563,-3.039 L 253.448,605.034 c -5.113,9.74 -0.838,20.787 9.499,24.549 l 38.259,13.925 c 10.336,3.763 20.712,-1.952 23.057,-12.699 l 48.522,-222.413 z"
       id="path45"
       inkscape:connector-curvature="0"
       style="fill:none;stroke:rgba(255,255,255,0.3);stroke-width:5;stroke-miterlimit:10" /><circle
       clip-path="url(#SVGID_2_)"
       stroke-miterlimit="10"
       cx="378.16699"
       cy="701.5"
       r="17.333"
       id="circle47"
       style="fill:none;stroke:rgba(255,255,255,0.3);stroke-width:5;stroke-miterlimit:10" /><path
       clip-path="url(#SVGID_2_)"
       stroke-miterlimit="10"
       d="m 383.637,408.145 c -2.345,0.395 -4.75,0.611 -7.206,0.611 -2.457,0 -4.862,-0.216 -7.207,-0.611 L 338.751,633.74 c -1.473,10.901 6.322,19.82 17.322,19.82 l 40.715,0 c 11,0 18.795,-8.919 17.323,-19.82 L 383.637,408.145 Z"
       id="path49"
       inkscape:connector-curvature="0"
       style="fill:none;stroke:rgba(255,255,255,0.3);stroke-width:5;stroke-miterlimit:10" /><circle
       clip-path="url(#SVGID_2_)"
       stroke-miterlimit="10"
       cx="488.94101"
       cy="681.73199"
       r="17.333"
       id="circle51"
       style="fill:none;stroke:rgba(255,255,255,0.3);stroke-width:5;stroke-miterlimit:10" /><path
       clip-path="url(#SVGID_2_)"
       stroke-miterlimit="10"
       d="m 393.748,404.198 c -2.068,1.173 -4.254,2.199 -6.563,3.039 -2.308,0.84 -4.643,1.459 -6.981,1.891 l 48.523,222.412 c 2.344,10.747 12.72,16.462 23.056,12.7 l 38.26,-13.925 c 10.336,-3.762 14.611,-14.81 9.499,-24.55 L 393.748,404.198 Z"
       id="path53"
       inkscape:connector-curvature="0"
       style="fill:none;stroke:rgba(255,255,255,0.3);stroke-width:5;stroke-miterlimit:10" /><circle
       clip-path="url(#SVGID_2_)"
       stroke-miterlimit="10"
       cx="586.27399"
       cy="625.27002"
       r="17.333"
       id="circle55"
       style="fill:none;stroke:rgba(255,255,255,0.3);stroke-width:5;stroke-miterlimit:10" /><path
       clip-path="url(#SVGID_2_)"
       stroke-miterlimit="10"
       d="m 401.899,397.031 c -1.542,1.809 -3.246,3.521 -5.128,5.1 -1.882,1.58 -3.863,2.96 -5.913,4.164 l 121.666,192.404 c 5.879,9.297 17.583,11.119 26.01,4.048 l 31.189,-26.17 c 8.426,-7.071 8.665,-18.914 0.53,-26.318 L 401.899,397.031 Z"
       id="path57"
       inkscape:connector-curvature="0"
       style="fill:none;stroke:rgba(255,255,255,0.3);stroke-width:5;stroke-miterlimit:10" /><circle
       clip-path="url(#SVGID_2_)"
       stroke-miterlimit="10"
       cx="658.42499"
       cy="538.92297"
       r="17.333"
       id="circle59"
       style="fill:none;stroke:rgba(255,255,255,0.3);stroke-width:5;stroke-miterlimit:10" /><path
       clip-path="url(#SVGID_2_)"
       stroke-miterlimit="10"
       d="m 407.108,387.508 c -0.831,2.228 -1.846,4.419 -3.074,6.547 -1.228,2.127 -2.618,4.102 -4.132,5.935 l 180.134,139.188 c 8.704,6.726 20.326,4.435 25.826,-5.092 l 20.357,-35.259 c 5.5,-9.527 1.674,-20.737 -8.503,-24.912 L 407.108,387.508 Z"
       id="path61"
       inkscape:connector-curvature="0"
       style="fill:none;stroke:rgba(255,255,255,0.3);stroke-width:5;stroke-miterlimit:10" /><circle
       clip-path="url(#SVGID_2_)"
       stroke-miterlimit="10"
       cx="696.69397"
       cy="433.10599"
       r="17.333"
       id="circle63"
       style="fill:none;stroke:rgba(255,255,255,0.3);stroke-width:5;stroke-miterlimit:10" /><path
       clip-path="url(#SVGID_2_)"
       stroke-miterlimit="10"
       d="m 408.745,376.778 c -0.018,2.378 -0.223,4.784 -0.65,7.203 -0.426,2.42 -1.057,4.751 -1.853,6.991 l 216.876,69.185 c 10.48,3.343 20.617,-2.785 22.527,-13.618 l 7.07,-40.096 c 1.91,-10.833 -5.519,-20.059 -16.511,-20.501 l -227.459,-9.164 z"
       id="path65"
       inkscape:connector-curvature="0"
       style="fill:none;stroke:rgba(255,255,255,0.3);stroke-width:5;stroke-miterlimit:10" /><circle
       clip-path="url(#SVGID_2_)"
       stroke-miterlimit="10"
       cx="696.46198"
       cy="320.58099"
       r="17.333"
       id="circle67"
       style="fill:none;stroke:rgba(255,255,255,0.3);stroke-width:5;stroke-miterlimit:10" /><path
       clip-path="url(#SVGID_2_)"
       stroke-miterlimit="10"
       d="m 406.614,366.135 c 0.796,2.24 1.427,4.571 1.853,6.991 0.427,2.419 0.631,4.825 0.65,7.203 l 227.459,-9.164 c 10.991,-0.442 18.421,-9.668 16.511,-20.501 l -7.07,-40.096 C 644.107,299.735 633.97,293.607 623.49,296.95 l -216.876,69.185 z"
       id="path69"
       inkscape:connector-curvature="0"
       style="fill:none;stroke:rgba(255,255,255,0.3);stroke-width:5;stroke-miterlimit:10" /><circle
       clip-path="url(#SVGID_2_)"
       stroke-miterlimit="10"
       cx="657.75897"
       cy="214.923"
       r="17.333"
       id="circle71"
       style="fill:none;stroke:rgba(255,255,255,0.3);stroke-width:5;stroke-miterlimit:10" /><path
       clip-path="url(#SVGID_2_)"
       stroke-miterlimit="10"
       d="m 400.971,356.863 c 1.514,1.833 2.904,3.808 4.132,5.935 1.229,2.128 2.244,4.319 3.074,6.547 l 210.608,-86.407 c 10.177,-4.175 14.003,-15.385 8.503,-24.912 l -20.357,-35.259 c -5.5,-9.527 -17.121,-11.818 -25.826,-5.092 L 400.971,356.863 Z"
       id="path73"
       inkscape:connector-curvature="0"
       style="fill:none;stroke:rgba(255,255,255,0.3);stroke-width:5;stroke-miterlimit:10" /><circle
       clip-path="url(#SVGID_2_)"
       stroke-miterlimit="10"
       cx="585.25299"
       cy="128.873"
       r="17.333"
       id="circle75"
       style="fill:none;stroke:rgba(255,255,255,0.3);stroke-width:5;stroke-miterlimit:10" /><path
       clip-path="url(#SVGID_2_)"
       stroke-miterlimit="10"
       d="m 392.497,350.08 c 2.05,1.205 4.031,2.585 5.913,4.164 1.882,1.579 3.586,3.291 5.128,5.1 L 571.892,206.117 c 8.135,-7.405 7.896,-19.247 -0.53,-26.318 l -31.189,-26.171 c -8.427,-7.071 -20.131,-5.249 -26.01,4.048 L 392.497,350.08 Z"
       id="path77"
       inkscape:connector-curvature="0"
       style="fill:none;stroke:rgba(255,255,255,0.3);stroke-width:5;stroke-miterlimit:10" /><circle
       clip-path="url(#SVGID_2_)"
       stroke-miterlimit="10"
       cx="487.68799"
       cy="72.810997"
       r="17.333"
       id="circle79"
       style="fill:none;stroke:rgba(255,255,255,0.3);stroke-width:5;stroke-miterlimit:10" /><path
       clip-path="url(#SVGID_2_)"
       stroke-miterlimit="10"
       d="m 382.215,346.604 c 2.338,0.431 4.672,1.05 6.981,1.891 2.308,0.84 4.495,1.866 6.563,3.039 L 501.552,149.966 c 5.113,-9.74 0.838,-20.787 -9.499,-24.549 l -38.259,-13.925 c -10.336,-3.763 -20.712,1.952 -23.057,12.699 l -48.522,222.413 z"
       id="path81"
       inkscape:connector-curvature="0"
       style="fill:none;stroke:rgba(255,255,255,0.3);stroke-width:5;stroke-miterlimit:10" /><circle
       clip-path="url(#SVGID_2_)"
       stroke-miterlimit="10"
       cx="377.5"
       cy="377.5"
       r="375"
       id="circle83"
       style="fill:none;stroke:rgba(255,255,255,0.3);stroke-width:5;stroke-miterlimit:10" /><path fill="rgba(255,255,255,0.3)"
       clip-path="url(#SVGID_2_)"
       d="m 249.77,79.196 c -0.371,-1.021 -0.628,-2.054 -0.801,-3.088 -24.505,10.455 -47.726,23.944 -69.201,40.277 0.794,0.658 1.548,1.385 2.235,2.204 0.45,0.536 0.85,1.096 1.224,1.667 20.66,-15.641 43.251,-28.853 67.351,-39.211 -0.299,-0.595 -0.575,-1.208 -0.808,-1.849"
       id="path85"
       inkscape:connector-curvature="0" /><path fill="rgba(255,255,255,0.3)"
       clip-path="url(#SVGID_2_)"
       d="m 504.791,75.577 c -0.172,1.059 -0.435,2.117 -0.816,3.163 -0.223,0.613 -0.483,1.202 -0.766,1.774 24.145,10.259 46.79,23.38 67.51,38.934 0.383,-0.588 0.792,-1.165 1.254,-1.717 0.673,-0.802 1.412,-1.513 2.188,-2.161 -21.539,-16.242 -44.816,-29.638 -69.37,-39.993"
       id="path87"
       inkscape:connector-curvature="0" /><path fill="rgba(255,255,255,0.3)"
       clip-path="url(#SVGID_2_)"
       d="m 505.228,675.804 c 0.372,1.021 0.628,2.054 0.801,3.088 24.505,-10.455 47.726,-23.944 69.201,-40.277 -0.794,-0.658 -1.548,-1.385 -2.235,-2.204 -0.45,-0.535 -0.85,-1.095 -1.224,-1.666 -20.659,15.64 -43.251,28.852 -67.351,39.21 0.299,0.595 0.575,1.208 0.808,1.849"
       id="path89"
       inkscape:connector-curvature="0" /><path fill="rgba(255,255,255,0.3)"
       clip-path="url(#SVGID_2_)"
       d="m 394.166,53.5 c 0,0.65 -0.042,1.289 -0.112,1.92 26.563,1.349 52.28,5.948 76.781,13.37 0.153,-0.639 0.335,-1.275 0.564,-1.907 0.372,-1.021 0.84,-1.977 1.372,-2.881 C 447.38,56.321 420.928,51.723 393.874,50.4 c 0.182,1.007 0.292,2.04 0.292,3.1"
       id="path91"
       inkscape:connector-curvature="0" /><path fill="rgba(255,255,255,0.3)"
       clip-path="url(#SVGID_2_)"
       d="m 691.535,303.971 c 0.624,-0.184 1.261,-0.343 1.917,-0.459 1.052,-0.185 2.096,-0.257 3.127,-0.251 -6.039,-26.183 -15.276,-51.409 -27.51,-75.214 -0.809,0.696 -1.686,1.334 -2.644,1.887 -0.575,0.332 -1.163,0.619 -1.757,0.878 11.765,22.938 20.852,47.464 26.867,73.159"
       id="path93"
       inkscape:connector-curvature="0" /><path fill="rgba(255,255,255,0.3)"
       clip-path="url(#SVGID_2_)"
       d="m 598.53,140.015 c -0.457,0.544 -0.947,1.042 -1.453,1.516 19.039,17.729 35.935,37.725 50.258,59.558 0.558,-0.419 1.137,-0.819 1.757,-1.177 0.919,-0.531 1.87,-0.953 2.835,-1.299 -12.297,-18.783 -26.605,-36.445 -42.85,-52.69 -2.882,-2.883 -5.824,-5.685 -8.793,-8.446 -0.505,0.88 -1.079,1.734 -1.754,2.538"
       id="path95"
       inkscape:connector-curvature="0" /><path fill="rgba(255,255,255,0.3)"
       clip-path="url(#SVGID_2_)"
       d="m 693.683,450.176 c -0.631,-0.111 -1.245,-0.26 -1.846,-0.435 -5.91,25.724 -14.911,50.28 -26.579,73.263 0.62,0.267 1.234,0.562 1.834,0.908 0.94,0.543 1.799,1.169 2.596,1.849 12.134,-23.851 21.27,-49.117 27.202,-75.332 -1.057,0.011 -2.128,-0.063 -3.207,-0.253"
       id="path97"
       inkscape:connector-curvature="0" /><path fill="rgba(255,255,255,0.3)"
       clip-path="url(#SVGID_2_)"
       d="m 280.945,64.404 c 0.546,0.919 1.023,1.894 1.401,2.935 0.221,0.606 0.399,1.217 0.549,1.829 24.474,-7.525 50.178,-12.207 76.729,-13.665 -0.076,-0.658 -0.125,-1.325 -0.125,-2.003 0,-1.032 0.107,-2.036 0.28,-3.018 -27.041,1.432 -53.471,6.135 -78.834,13.922"
       id="path99"
       inkscape:connector-curvature="0" /><path fill="rgba(255,255,255,0.3)"
       clip-path="url(#SVGID_2_)"
       d="m 702.512,336.813 c -0.972,0.361 -1.983,0.653 -3.041,0.839 -0.639,0.113 -1.275,0.182 -1.907,0.223 1.598,12.989 2.436,26.211 2.436,39.626 0,12.963 -0.791,25.743 -2.286,38.31 0.66,0.04 1.322,0.108 1.989,0.225 1.028,0.181 2.012,0.465 2.96,0.812 1.542,-12.961 2.337,-26.093 2.337,-39.347 0,-13.711 -0.838,-27.293 -2.488,-40.688"
       id="path101"
       inkscape:connector-curvature="0" /><path fill="rgba(255,255,255,0.3)"
       clip-path="url(#SVGID_2_)"
       d="m 61.316,304.825 c 0.631,0.111 1.245,0.261 1.847,0.435 5.909,-25.724 14.91,-50.279 26.579,-73.263 -0.621,-0.267 -1.235,-0.562 -1.835,-0.908 -0.94,-0.543 -1.799,-1.169 -2.596,-1.849 -12.134,23.852 -21.269,49.118 -27.201,75.332 1.056,-0.011 2.127,0.063 3.206,0.253"
       id="path103"
       inkscape:connector-curvature="0" /><path fill="rgba(255,255,255,0.3)"
       clip-path="url(#SVGID_2_)"
       d="m 63.465,451.029 c -0.624,0.184 -1.261,0.344 -1.917,0.459 -1.052,0.186 -2.096,0.257 -3.127,0.252 6.039,26.183 15.275,51.409 27.51,75.213 0.809,-0.696 1.685,-1.334 2.643,-1.887 0.575,-0.332 1.163,-0.619 1.758,-0.878 C 78.567,501.25 69.48,476.724 63.465,451.029"
       id="path105"
       inkscape:connector-curvature="0" /><path fill="rgba(255,255,255,0.3)"
       clip-path="url(#SVGID_2_)"
       d="m 156.469,614.985 c 0.457,-0.545 0.948,-1.043 1.454,-1.517 -19.039,-17.729 -35.936,-37.724 -50.258,-59.558 -0.559,0.42 -1.138,0.82 -1.758,1.178 -0.919,0.531 -1.87,0.953 -2.835,1.299 12.298,18.783 26.605,36.445 42.85,52.69 2.882,2.883 5.824,5.684 8.793,8.446 0.505,-0.88 1.079,-1.734 1.754,-2.538"
       id="path107"
       inkscape:connector-curvature="0" /><path fill="rgba(255,255,255,0.3)"
       clip-path="url(#SVGID_2_)"
       d="M 57.436,417.126 C 55.837,404.137 55,390.915 55,377.5 c 0,-12.963 0.791,-25.743 2.285,-38.31 -0.66,-0.04 -1.323,-0.107 -1.989,-0.225 -1.029,-0.181 -2.012,-0.465 -2.96,-0.812 C 50.794,351.115 50,364.246 50,377.5 c 0,13.711 0.838,27.293 2.488,40.688 0.971,-0.361 1.982,-0.653 3.039,-0.839 0.639,-0.113 1.276,-0.182 1.909,-0.223"
       id="path109"
       inkscape:connector-curvature="0" /><path fill="rgba(255,255,255,0.3)"
       clip-path="url(#SVGID_2_)"
       d="m 649.758,553.934 c -0.596,-0.344 -1.156,-0.726 -1.695,-1.128 -14.235,21.894 -31.052,41.956 -50.017,59.761 0.524,0.487 1.033,0.999 1.505,1.561 0.66,0.787 1.221,1.621 1.718,2.479 2.633,-2.468 5.244,-4.965 7.808,-7.529 16.569,-16.57 31.124,-34.614 43.585,-53.818 -0.989,-0.35 -1.963,-0.783 -2.904,-1.326"
       id="path111"
       inkscape:connector-curvature="0" /><path fill="rgba(255,255,255,0.3)"
       clip-path="url(#SVGID_2_)"
       d="m 105.241,201.066 c 0.597,0.344 1.156,0.727 1.696,1.128 14.234,-21.893 31.051,-41.956 50.017,-59.76 -0.525,-0.488 -1.034,-1 -1.506,-1.562 -0.66,-0.787 -1.221,-1.621 -1.718,-2.479 -2.633,2.468 -5.244,4.965 -7.808,7.529 -16.57,16.57 -31.124,34.614 -43.585,53.818 0.989,0.35 1.963,0.783 2.904,1.326"
       id="path113"
       inkscape:connector-curvature="0" /><path fill="rgba(255,255,255,0.3)"
       clip-path="url(#SVGID_2_)"
       d="m 360.833,701.5 c 0,-0.65 0.042,-1.289 0.112,-1.92 -26.563,-1.35 -52.28,-5.948 -76.781,-13.37 -0.153,0.638 -0.334,1.275 -0.564,1.907 -0.372,1.021 -0.84,1.977 -1.372,2.881 25.391,7.681 51.843,12.279 78.897,13.602 -0.182,-1.007 -0.292,-2.04 -0.292,-3.1"
       id="path115"
       inkscape:connector-curvature="0" /><path fill="rgba(255,255,255,0.3)"
       clip-path="url(#SVGID_2_)"
       d="m 474.054,690.596 c -0.546,-0.919 -1.022,-1.894 -1.401,-2.935 -0.221,-0.606 -0.399,-1.217 -0.549,-1.829 -24.474,7.524 -50.178,12.207 -76.729,13.665 0.076,0.658 0.125,1.324 0.125,2.003 0,1.031 -0.107,2.036 -0.28,3.018 27.041,-1.432 53.471,-6.135 78.834,-13.922"
       id="path117"
       inkscape:connector-curvature="0" /><path fill="rgba(255,255,255,0.3)"
       clip-path="url(#SVGID_2_)"
       d="m 250.208,679.422 c 0.172,-1.059 0.435,-2.117 0.816,-3.162 0.223,-0.614 0.483,-1.203 0.766,-1.775 -24.144,-10.259 -46.79,-23.38 -67.51,-38.934 -0.383,0.588 -0.792,1.166 -1.255,1.717 -0.672,0.802 -1.411,1.513 -2.187,2.162 21.539,16.242 44.816,29.638 69.37,39.992"
       id="path119"
       inkscape:connector-curvature="0" /></g></svg>
