<?xml version="1.0" encoding="UTF-8" standalone="no"?>
<!-- Generator: Adobe Illustrator 17.0.0, SVG Export Plug-In . SVG Version: 6.00 Build 0)  -->

<svg
   xmlns:dc="http://purl.org/dc/elements/1.1/"
   xmlns:cc="http://creativecommons.org/ns#"
   xmlns:rdf="http://www.w3.org/1999/02/22-rdf-syntax-ns#"
   xmlns:svg="http://www.w3.org/2000/svg"
   xmlns="http://www.w3.org/2000/svg"
   xmlns:xlink="http://www.w3.org/1999/xlink"
   xmlns:sodipodi="http://sodipodi.sourceforge.net/DTD/sodipodi-0.dtd"
   xmlns:inkscape="http://www.inkscape.org/namespaces/inkscape"
   version="1.1"
   id="Layer_1"
   x="0px"
   y="0px"
   width="90"
   height="98"
   viewBox="0 0 90 98"
   enable-background="new 0 0 90 98"
   xml:space="preserve"
   inkscape:version="0.91 r13725"
   sodipodi:docname="Vector Smart Object6.svg"><metadata
     id="metadata35"><rdf:RDF><cc:Work
         rdf:about=""><dc:format>image/svg+xml</dc:format><dc:type
           rdf:resource="http://purl.org/dc/dcmitype/StillImage" /><dc:title></dc:title></cc:Work></rdf:RDF></metadata><defs
     id="defs33" /><sodipodi:namedview
     pagecolor="#ffffff"
     bordercolor="#666666"
     borderopacity="1"
     objecttolerance="10"
     gridtolerance="10"
     guidetolerance="10"
     inkscape:pageopacity="0"
     inkscape:pageshadow="2"
     inkscape:window-width="640"
     inkscape:window-height="480"
     id="namedview31"
     showgrid="false"
     fit-margin-top="0"
     fit-margin-left="0"
     fit-margin-right="0"
     fit-margin-bottom="0"
     inkscape:zoom="2.4081633"
     inkscape:cx="45"
     inkscape:cy="49"
     inkscape:window-x="0"
     inkscape:window-y="25"
     inkscape:window-maximized="0"
     inkscape:current-layer="Layer_1" /><g
     id="g3"><defs
       id="defs5"><rect
         id="SVGID_1_"
         width="90"
         height="98"
         x="0"
         y="0" /></defs><clipPath
       id="SVGID_2_"><use
         xlink:href="#SVGID_1_"
         overflow="visible"
         id="use9"
         style="overflow:visible"
         x="0"
         y="0"
         width="100%"
         height="100%" /></clipPath><path
       clip-path="url(#SVGID_2_)"
       stroke-miterlimit="10"
       d="M 81,94 9,94 C 6.25,94 4,91.75 4,89 L 4,17 c 0,-2.75 2.25,-5 5,-5 l 72,0 c 2.75,0 5,2.25 5,5 l 0,72 c 0,2.75 -2.25,5 -5,5 z"
       id="path11"
       inkscape:connector-curvature="0"
       style="fill:none;stroke:#a7a7a7;stroke-width:8;stroke-linecap:round;stroke-miterlimit:10" /><line
       clip-path="url(#SVGID_2_)"
       stroke-miterlimit="10"
       x1="4"
       y1="35"
       x2="86"
       y2="35"
       id="line13"
       style="fill:none;stroke:#a7a7a7;stroke-width:8;stroke-linecap:round;stroke-miterlimit:10" /><line
       clip-path="url(#SVGID_2_)"
       stroke-miterlimit="10"
       x1="27"
       y1="4"
       x2="27"
       y2="20"
       id="line15"
       style="fill:none;stroke:#a7a7a7;stroke-width:8;stroke-linecap:round;stroke-miterlimit:10" /><line
       clip-path="url(#SVGID_2_)"
       stroke-miterlimit="10"
       x1="63"
       y1="4"
       x2="63"
       y2="20"
       id="line17"
       style="fill:none;stroke:#a7a7a7;stroke-width:8;stroke-linecap:round;stroke-miterlimit:10" /><path
       clip-path="url(#SVGID_2_)"
       d="m 68.5,59.42 -3.42,0 c -2.75,0 -5,-2.25 -5,-5 l 0,-3.42 c 0,-2.75 2.25,-5 5,-5 l 3.42,0 c 2.75,0 5,2.25 5,5 l 0,3.42 c 0,2.75 -2.25,5 -5,5"
       id="path19"
       inkscape:connector-curvature="0"
       style="fill:#a7a7a7" /><path
       clip-path="url(#SVGID_2_)"
       d="m 24.92,59.42 -3.42,0 c -2.75,0 -5,-2.25 -5,-5 l 0,-3.42 c 0,-2.75 2.25,-5 5,-5 l 3.42,0 c 2.75,0 5,2.25 5,5 l 0,3.42 c 0,2.75 -2.25,5 -5,5"
       id="path21"
       inkscape:connector-curvature="0"
       style="fill:#a7a7a7" /><path
       clip-path="url(#SVGID_2_)"
       d="m 46.71,59.42 -3.42,0 c -2.75,0 -5,-2.25 -5,-5 l 0,-3.42 c 0,-2.75 2.25,-5 5,-5 l 3.42,0 c 2.75,0 5,2.25 5,5 l 0,3.42 c 0,2.75 -2.25,5 -5,5"
       id="path23"
       inkscape:connector-curvature="0"
       style="fill:#a7a7a7" /><path
       clip-path="url(#SVGID_2_)"
       d="m 68.5,81.21 -3.42,0 c -2.75,0 -5,-2.25 -5,-5 l 0,-3.42 c 0,-2.75 2.25,-5 5,-5 l 3.42,0 c 2.75,0 5,2.25 5,5 l 0,3.42 c 0,2.75 -2.25,5 -5,5"
       id="path25"
       inkscape:connector-curvature="0"
       style="fill:#a7a7a7" /><path
       clip-path="url(#SVGID_2_)"
       d="m 24.92,81.21 -3.42,0 c -2.75,0 -5,-2.25 -5,-5 l 0,-3.42 c 0,-2.75 2.25,-5 5,-5 l 3.42,0 c 2.75,0 5,2.25 5,5 l 0,3.42 c 0,2.75 -2.25,5 -5,5"
       id="path27"
       inkscape:connector-curvature="0"
       style="fill:#a7a7a7" /><path
       clip-path="url(#SVGID_2_)"
       d="m 46.71,81.21 -3.42,0 c -2.75,0 -5,-2.25 -5,-5 l 0,-3.42 c 0,-2.75 2.25,-5 5,-5 l 3.42,0 c 2.75,0 5,2.25 5,5 l 0,3.42 c 0,2.75 -2.25,5 -5,5"
       id="path29"
       inkscape:connector-curvature="0"
       style="fill:#a7a7a7" /></g></svg>