<?xml version="1.0" encoding="UTF-8" standalone="no"?>
<!-- Generator: Adobe Illustrator 17.0.0, SVG Export Plug-In . SVG Version: 6.00 Build 0)  -->

<svg
   xmlns:dc="http://purl.org/dc/elements/1.1/"
   xmlns:cc="http://creativecommons.org/ns#"
   xmlns:rdf="http://www.w3.org/1999/02/22-rdf-syntax-ns#"
   xmlns:svg="http://www.w3.org/2000/svg"
   xmlns="http://www.w3.org/2000/svg"
   xmlns:xlink="http://www.w3.org/1999/xlink"
   xmlns:sodipodi="http://sodipodi.sourceforge.net/DTD/sodipodi-0.dtd"
   xmlns:inkscape="http://www.inkscape.org/namespaces/inkscape"
   version="1.1"
   id="Layer_1"
   x="0px"
   y="0px"
   width="56.267502"
   height="56.267502"
   viewBox="0 0 56.2675 56.2675"
   enable-background="new 0 0 56.268 56.268"
   xml:space="preserve"
   inkscape:version="0.91 r13725"
   sodipodi:docname="icon-star.svg"><metadata
     id="metadata17"><rdf:RDF><cc:Work
         rdf:about=""><dc:format>image/svg+xml</dc:format><dc:type
           rdf:resource="http://purl.org/dc/dcmitype/StillImage" /><dc:title></dc:title></cc:Work></rdf:RDF></metadata><defs
     id="defs15" /><sodipodi:namedview
     pagecolor="#ffffff"
     bordercolor="#666666"
     borderopacity="1"
     objecttolerance="10"
     gridtolerance="10"
     guidetolerance="10"
     inkscape:pageopacity="0"
     inkscape:pageshadow="2"
     inkscape:window-width="640"
     inkscape:window-height="480"
     id="namedview13"
     showgrid="false"
     fit-margin-top="0"
     fit-margin-left="0"
     fit-margin-right="0"
     fit-margin-bottom="0"
     inkscape:zoom="4.1942133"
     inkscape:cx="28.134001"
     inkscape:cy="28.133499"
     inkscape:window-x="0"
     inkscape:window-y="25"
     inkscape:window-maximized="0"
     inkscape:current-layer="Layer_1" /><g
     id="g3"><defs
       id="defs5"><rect
         id="SVGID_1_"
         y="0"
         width="56.268002"
         height="56.268002"
         x="0" /></defs><clipPath
       id="SVGID_2_"><use
         xlink:href="#SVGID_1_"
         overflow="visible"
         id="use9"
         style="overflow:visible"
         x="0"
         y="0"
         width="100%"
         height="100%" /></clipPath><path
       clip-path="url(#SVGID_2_)"
       d="m 12.622,5.998 4.074,-0.659 c 1.23,-0.199 2.396,-0.682 3.406,-1.411 l 3.347,-2.415 c 2.797,-2.018 6.572,-2.018 9.368,0 l 3.347,2.415 c 1.01,0.729 2.177,1.212 3.406,1.411 l 4.075,0.659 c 3.404,0.551 6.073,3.22 6.624,6.624 l 0.659,4.075 c 0.199,1.229 0.682,2.395 1.411,3.405 l 2.415,3.348 c 2.018,2.796 2.018,6.571 0,9.367 l -2.415,3.348 c -0.729,1.01 -1.212,2.176 -1.411,3.405 l -0.659,4.075 c -0.551,3.404 -3.22,6.073 -6.624,6.624 l -4.075,0.659 c -1.229,0.199 -2.396,0.682 -3.406,1.411 l -3.347,2.415 c -2.796,2.018 -6.571,2.018 -9.368,0 L 20.102,52.339 C 19.092,51.61 17.926,51.127 16.696,50.928 L 12.622,50.269 C 9.218,49.718 6.549,47.049 5.998,43.645 L 5.339,39.57 C 5.14,38.341 4.657,37.175 3.928,36.165 L 1.513,32.817 c -2.018,-2.796 -2.018,-6.571 0,-9.367 L 3.928,20.102 C 4.657,19.092 5.14,17.926 5.339,16.697 L 5.998,12.622 C 6.549,9.218 9.218,6.549 12.622,5.998"
       id="path11"
       inkscape:connector-curvature="0"
       style="fill:#fcaf17" /></g></svg>