<?xml version="1.0" standalone="no"?>
<!DOCTYPE svg PUBLIC "-//W3C//DTD SVG 1.1//EN" "http://www.w3.org/Graphics/SVG/1.1/DTD/svg11.dtd" >
<svg xmlns="http://www.w3.org/2000/svg">
<metadata>
This is a custom SVG webfont generated by Font Squirrel.
Copyright   : Digitized data copyright Monotype Imaging Inc All rights reserved
Foundry URL : httpwwwmonotypeimagingcom
</metadata>
<defs>
<font id="CachetStdMedium" horiz-adv-x="1132" >
<font-face units-per-em="2048" ascent="1409" descent="-639" />
<missing-glyph horiz-adv-x="460" />
<glyph unicode=" "  horiz-adv-x="460" />
<glyph unicode="&#x09;" horiz-adv-x="460" />
<glyph unicode="&#xa0;" horiz-adv-x="460" />
<glyph unicode="!" horiz-adv-x="616" d="M125 131q0 20 14 35l142 141q14 14 30 15q18 0 33 -15l141 -141q14 -14 15 -35q0 -18 -15 -33l-141 -139q-14 -14 -33 -14h2q-18 0 -32 14l-142 139q-14 15 -14 33zM178 1280v4q0 84 90 84h90q39 0 61.5 -24.5t20.5 -63.5l-16 -768q-4 -92 -82 -92h-55q-57 0 -73.5 17.5 t-18.5 74.5z" />
<glyph unicode="&#x22;" horiz-adv-x="765" d="M90 1477v12q-2 37 22.5 51t67.5 14h72q35 0 59.5 -19t22.5 -52v-6l-21 -230q-4 -43 -21.5 -60.5t-60.5 -17.5h-30q-45 0 -65.5 17.5t-24.5 60.5zM430 1477v12q-2 37 22.5 51t67.5 14h70q35 0 60.5 -19t23.5 -52v-6l-21 -230q-4 -43 -21.5 -60.5t-60.5 -17.5h-32 q-43 0 -63.5 17.5t-24.5 60.5z" />
<glyph unicode="#" horiz-adv-x="1214" d="M66 387l45 184h137l51 215h-137l45 185h135l78 321h211l-74 -321h250l74 321h211l-78 -321h137l-45 -185h-137l-49 -215h133l-45 -184h-134l-75 -324h-211l78 324h-248l-78 -324h-215l80 324h-139zM463 571h248l49 215h-248z" />
<glyph unicode="$" horiz-adv-x="1204" d="M141 68v69q0 53 14.5 76t63.5 23q51 0 148.5 -8.5t140.5 -8.5v371l-111 49q-158 70 -207 139.5t-49 237.5q0 260 203 334q86 31 164 32v129v19q0 8 3 13t4 9t6 7.5t7 4.5t10.5 2t10.5 1h14h17q45 0 45 -56v-129q137 0 235 -10q2 0 14.5 -2t15.5 -2t14 -2t15.5 -3t13.5 -5 t12 -7t9.5 -8.5t8.5 -11.5t4 -13t2 -18v-67q0 -55 -14.5 -76.5t-65.5 -21.5q-37 0 -110.5 6t-110.5 6h-43v-338q2 0 48 -19l60 -26q14 -6 56 -25.5t63 -33.5l49 -35q29 -20 46.5 -42t27.5 -46q20 -55 20 -160q0 -211 -39 -287q-70 -133 -331 -151v-127q0 -31 -8.5 -45.5 t-36.5 -14.5h-33q-10 0 -16.5 1t-10.5 4t-7 5.5t-4 10.5t-1 10v13v16v125q-174 4 -260 14q-37 4 -52.5 7t-35 19.5t-19.5 45.5zM395 997q0 -68 20.5 -90t92.5 -51v291q-68 0 -90.5 -23.5t-22.5 -89.5v-37zM625 221q70 2 93 28.5t23 98.5v39q0 78 -18 99.5t-98 54.5v-320z " />
<glyph unicode="%" horiz-adv-x="1736" d="M45 1034q0 360 303 361q309 0 309 -361q0 -362 -311 -362q-301 0 -301 362zM236 1034q0 -119 24 -168q16 -33 90 -32q72 0 90 32q27 49 27 166q0 121 -27 170q-20 33 -90 33q-74 0 -90 -33q-24 -49 -24 -168zM403 12q0 16 7 29l747 1376q20 35 55 35q14 0 32 -8 t41.5 -24.5t29.5 -18.5q20 -12 20 -43q0 -12 -8 -29l-745 -1376q-18 -35 -58 -35q-16 0 -22 4l-80 47q-19 10 -19 43zM1061 334q0 362 305 362q309 0 309 -360q0 -362 -311 -363q-303 1 -303 361zM1253 334q0 -125 23 -168q18 -33 92 -33q72 0 90 33q25 49 25 168 q0 125 -25 168q-20 33 -90 33q-74 0 -92 -33q-23 -43 -23 -168z" />
<glyph unicode="&#x26;" horiz-adv-x="1439" d="M141 338q0 156 54.5 245t191.5 160q-156 170 -156 340q0 309 381 310q205 0 309.5 -63.5t104.5 -252.5q0 -70 -21.5 -126t-71.5 -104t-89 -76t-113 -75q121 -147 248 -262q16 55 33 170q6 57 6 60q6 33 20.5 45t48.5 12h72q41 0 52.5 -18.5t11.5 -63.5q0 -199 -80 -354 q6 -6 31 -26l47 -39l47 -42q25 -23 39 -41t14 -28q0 -23 -18 -43q-78 -92 -107 -93q-39 0 -166 127q-117 -133 -385 -133q-113 0 -193.5 13.5t-156.5 50.5t-115 113.5t-39 193.5zM399 352q0 -61 12.5 -97t47.5 -51.5t62.5 -17.5t92.5 -2h31q162 0 217 66q-115 102 -321 330 q-92 -53 -117 -90.5t-25 -137.5zM483 1065q0 -109 113 -217q94 45 139 93t45 136q0 31 -11 52.5t-21.5 31.5t-40 15.5t-42.5 5.5h-53q-74 0 -101.5 -22.5t-27.5 -94.5z" />
<glyph unicode="'" horiz-adv-x="425" d="M90 1477v10q-2 39 23.5 53t68.5 14h70q35 0 59.5 -19t22.5 -52v-6l-21 -230q-4 -41 -21.5 -59.5t-58.5 -18.5h-32q-45 0 -65.5 17.5t-24.5 60.5z" />
<glyph unicode="(" horiz-adv-x="641" d="M135 682q0 563 113 772q61 111 159.5 149.5t247.5 43.5v-240q-113 0 -161 -42t-74 -153q-41 -172 -41 -528t41 -528q27 -111 75 -153t160 -42v-240q-150 4 -249 41t-158 148q-113 209 -113 772z" />
<glyph unicode=")" horiz-adv-x="643" d="M-14 -39q111 0 161 42t76 153q41 172 41 528t-41 528q-27 111 -77 153t-160 42v240q150 -4 248 -43t159 -150q115 -213 115 -772t-115 -772q-59 -111 -158.5 -147.5t-248.5 -41.5v240z" />
<glyph unicode="*" horiz-adv-x="780" d="M115 1196q0 18 8 47q2 4 5 14.5t5 15.5l6 15q4 10 7.5 16.5t8.5 13.5t11 10t14 6t17 3q25 0 106 -55q-10 72 -10 90q0 37 20.5 55.5t42 21.5t60.5 3q74 0 73 -76l-6 -86q84 45 103 45q8 0 16 -3t14.5 -6t11.5 -10t8 -12.5t7 -15.5t6 -14t6 -16.5t4 -14.5q8 -33 9 -49 q0 -20 -7.5 -34.5t-25 -25t-28.5 -15.5t-37.5 -13t-32.5 -10l67 -68q23 -23 23 -55q0 -35 -42 -74t-77 -39q-37 0 -66 49l-51 95l-51 -95q-29 -49 -66 -49q-35 0 -76.5 39t-41.5 76q0 29 20 53l66 72q-6 2 -26.5 7t-31 9t-26 11.5t-23.5 15.5t-14 22.5t-6 30.5z" />
<glyph unicode="+" horiz-adv-x="1136" d="M96 426v211h359v344h225v-344h358v-211h-358v-346h-225v346h-359z" />
<glyph unicode="," horiz-adv-x="610" d="M59 -305q0 14 131 188q45 66 66 107l-123 114q-14 12 -14 33q0 18 14 37l137 154q12 14 33 14q16 0 35 -14l151 -144q14 -12 15 -41q0 -86 -279 -489q-27 -41 -55 -41q-18 0 -39 14q-4 2 -16.5 9.5t-19.5 12.5t-16 13t-14.5 16.5t-5.5 16.5z" />
<glyph unicode="-" horiz-adv-x="952" d="M98 508v94q0 55 90 55h572q94 0 94 -55v-80q0 -49 -20.5 -62.5t-73.5 -13.5h-572q-29 0 -45 3.5t-30.5 17.5t-14.5 41z" />
<glyph unicode="." horiz-adv-x="616" d="M125 131q0 20 14 35l142 141q14 14 30 15q18 0 33 -15l141 -141q14 -14 15 -35q0 -18 -15 -33l-141 -139q-14 -14 -31 -14q-18 0 -32 14l-142 139q-14 15 -14 33z" />
<glyph unicode="/" horiz-adv-x="747" d="M31 31q0 23 18 59l559 1321q18 49 60 49q27 0 110 -45q41 -18 41 -53q0 -18 -12 -51l-557 -1321q-20 -51 -62 -51q-14 0 -32.5 7t-40.5 18l-31 16q-53 24 -53 51z" />
<glyph unicode="0" horiz-adv-x="1271" d="M133 684q0 117 10.5 211t43 191.5t87 162t146.5 105.5t217 41q123 0 215 -41t146.5 -106.5t87 -162t44 -190.5t11.5 -211t-11.5 -211t-44 -190.5t-87 -162t-146.5 -106.5t-215 -41q-125 0 -217 41t-146.5 105.5t-87 162t-43 191.5t-10.5 211zM401 684q0 -272 50 -383 q43 -96 186 -96t184 96q51 113 51 383t-51 383q-41 96 -184 96t-186 -96q-50 -111 -50 -383z" />
<glyph unicode="1" horiz-adv-x="1253" d="M340 1192q0 43 63 72q229 104 332 104q39 0 60.5 -23.5t21.5 -62.5v-1192q0 -90 -82 -90h-71q-59 0 -84 17.5t-25 72.5v1018q-115 -57 -145 -57q-47 0 -54 34q-16 89 -16 107z" />
<glyph unicode="2" horiz-adv-x="1267" d="M146 79q-1 9 0 37.5t1 37.5q0 27 14.5 56.5t27 43.5t45 47t36.5 39l195 203l143 157q51 63 77 98.5t55.5 99t29.5 118.5q0 90 -30.5 119.5t-118.5 29.5q-109 0 -213 -18q-98 -18 -103 -19q-55 0 -65 56q-16 92 -17 108q0 66 84 78q154 25 314 25q422 0 421 -344 q0 -172 -100 -336q-25 -41 -63.5 -90.5t-67.5 -82t-88 -90.5l-79 -77l-92 -84q-73 -66 -77 -70q283 14 486 15q18 0 32.5 -4.5t24.5 -8.5t16 -16l9 -19q3 -6 5.5 -24.5t2.5 -24.5v-27v-28q0 -84 -90 -84h-730q-25 0 -42 7t-25 14.5t-12.5 28t-5.5 29.5z" />
<glyph unicode="3" horiz-adv-x="1267" d="M152 109q0 16 5 36.5t15 48t12 35.5q14 53 64 54q10 0 31 -4q16 -4 56 -18l56 -18q16 -5 50 -13.5t56.5 -12.5t53.5 -7t61 -3q104 0 144.5 47t40.5 156q0 80 -32 116.5t-112 48.5q-68 10 -245 11q-117 0 -117 61v96q0 63 74 64h131q150 0 199.5 36t49.5 173 q0 96 -43 125.5t-145 29.5q-82 0 -166 -12q-76 -16 -94 -16q-41 0 -45 24q-29 135 -29 150q0 23 31 45q20 16 126.5 24.5t170.5 8.5q104 0 181 -16.5t141.5 -55.5t98.5 -111.5t34 -179.5q0 -193 -119 -293q100 -47 137 -124.5t37 -200.5q0 -440 -457 -441q-113 0 -282.5 35 t-169.5 101z" />
<glyph unicode="4" horiz-adv-x="1247" d="M109 514q0 29 26 64l561 747q31 43 68 43h113q39 0 60 -23.5t21 -62.5v-711q94 0 113 -14q29 -18 29 -82q0 -100 -21.5 -119.5t-120.5 -19.5v-246q0 -18 -3 -32.5t-7 -24.5t-14 -17l-15 -9q-5 -3 -22.5 -5t-24.5 -2h-28h-29q-59 0 -82.5 17.5t-23.5 72.5v246h-502 q-47 0 -57 31l-35 110q-6 19 -6 37zM381 551q104 6 328 14v430z" />
<glyph unicode="5" horiz-adv-x="1267" d="M197 94q0 8 18 107q12 74 68 73q10 0 36.5 -7t58.5 -18t40 -13q113 -33 196 -33q190 0 191 231q0 100 -33 164q-27 51 -184 51q-59 0 -135 -10q-117 -12 -119 -12q-35 0 -57.5 19.5t-20.5 53.5v9l45 567q4 51 21.5 71.5t66.5 20.5h567q16 0 28.5 -2t22.5 -7l16 -9 q7 -4 11 -15.5t6 -16.5t3 -20.5t1 -20.5v-24v-24q0 -51 -18 -73.5t-70 -22.5q-139 0 -421 4l-27 -267q39 4 117 4q117 0 186 -14q94 -20 153.5 -93t81 -157t21.5 -182q0 -217 -116.5 -336t-334.5 -119q-76 0 -202.5 19.5t-175.5 46.5q-41 22 -41 55z" />
<glyph unicode="6" horiz-adv-x="1269" d="M152 500q0 399 57 606q45 160 158.5 224.5t291.5 64.5q133 0 263 -13q57 -4 77.5 -20t20.5 -72v-65q0 -74 -72 -74q-20 0 -62 6t-59 6q-88 8 -196 8q-117 0 -152 -77q-33 -74 -49 -252q150 33 256 32q221 0 315.5 -109.5t94.5 -336.5q0 -236 -121 -345.5t-361 -109.5 q-186 0 -297 72q-74 47 -112.5 129t-45.5 149.5t-7 176.5zM416 446q0 -137 44 -190t179 -53q121 0 158 55t37 186q0 100 -32 151.5t-126 51.5q-125 0 -254 -41q0 -18 -2 -50t-3 -58.5t-1 -51.5z" />
<glyph unicode="7" horiz-adv-x="1267" d="M222 1210.5q-1 8.5 0 38t1 35.5q0 84 86 84h678q33 0 48.5 -2t29.5 -9t18 -23.5t4 -47.5q0 -29 -8 -45l-469 -1112l-27 -60q-9 -19 -35 -44t-56 -25h-105q-76 0 -76 59q0 8 33 91l420 993q-252 -10 -455 -10q-25 0 -42 7t-26.5 14t-13.5 27.5t-5 29z" />
<glyph unicode="8" horiz-adv-x="1269" d="M164 367q0 129 48 188t179 133q-117 78 -157.5 145.5t-40.5 200.5q0 217 105 289t337 72q115 0 189.5 -13.5t136 -50.5t90 -109.5t28.5 -187.5q0 -119 -51 -195.5t-160 -146.5q125 -70 181.5 -136.5t56.5 -188.5q0 -229 -117 -311.5t-354 -82.5q-236 0 -353.5 84.5 t-117.5 309.5zM426 360q0 -100 38 -133.5t138 -33.5h66q100 0 138 33.5t38 133.5q0 25 -6.5 45.5t-20.5 40t-25.5 31.5t-37 28.5t-36.5 22.5l-43 23q-32 16 -38 20q-12 -8 -51 -29.5t-59.5 -34.5t-48 -37t-40 -51.5t-12.5 -58.5zM455 1030q0 -29 3 -51.5t14 -42.5l17 -32 q6 -11 29 -28.5t30 -23.5t38.5 -25.5t40.5 -25.5q12 6 48 27.5t47 29.5t35.5 28.5t34 38t17.5 45t8 60.5q0 106 -24.5 127t-135.5 21h-45q-111 0 -134 -21t-23 -127z" />
<glyph unicode="9" horiz-adv-x="1269" d="M180 98q0 41 35 121q18 45 55 45q6 0 117 -37q94 -29 234 -28q41 0 72.5 5t54.5 20l39 28q17 12 27.5 38.5t18 43t10.5 53.5t4 54.5t2 61.5t1 60q-133 -39 -254 -39q-414 0 -414 412q0 233 114 346t347 113q125 0 214 -34t140.5 -86t80 -140t36.5 -174.5t8 -210.5 q0 -86 -1 -138.5t-6 -128t-15 -122t-28.5 -106.5t-45.5 -97t-67.5 -76t-93 -60.5t-123 -35t-156.5 -13.5q-78 0 -190.5 16.5t-166.5 41.5q-49 22 -49 67zM444 940q0 -104 31 -144t131 -40q123 0 246 45q0 106 -10 180q-12 104 -57.5 148.5t-149.5 44.5q-119 0 -155 -53.5 t-36 -180.5z" />
<glyph unicode=":" horiz-adv-x="593" d="M113 131q0 20 14 35l141 141q14 14 31 15q18 0 33 -15l141 -141q14 -14 14 -35q0 -18 -14 -33l-141 -139q-14 -14 -31 -14q-18 0 -33 14l-141 139q-14 15 -14 33zM113 690q0 18 14 33l141 141q14 14 31 15q18 0 33 -15l141 -141q14 -14 14 -33q0 -20 -14 -35l-141 -141 q-14 -14 -31 -14q-18 0 -33 14l-141 141q-14 15 -14 35z" />
<glyph unicode=";" horiz-adv-x="610" d="M59 -305q0 14 131 188q45 66 66 107l-123 114q-14 12 -14 33q0 18 14 37l137 154q12 14 33 14q16 0 35 -14l151 -144q14 -12 15 -41q0 -86 -279 -489q-27 -41 -55 -41q-18 0 -39 14q-4 2 -16.5 9.5t-19.5 12.5t-16 13t-14.5 16.5t-5.5 16.5zM123 686q0 18 14 33l142 141 q14 14 30 14q18 0 33 -14l141 -141q14 -14 15 -33q0 -20 -15 -35l-141 -141q-14 -14 -31 -14q-18 0 -32 14l-142 141q-14 15 -14 35z" />
<glyph unicode="&#x3c;" horiz-adv-x="1429" d="M102 575v164l1192 467v-241l-800 -308l800 -307v-241z" />
<glyph unicode="=" horiz-adv-x="1028" d="M96 264v185h834v-185h-834zM96 616v187h834v-187h-834z" />
<glyph unicode="&#x3e;" horiz-adv-x="1427" d="M135 109v241l801 307l-801 308v241l1190 -467v-164z" />
<glyph unicode="?" horiz-adv-x="1030" d="M121 1311q0 49 72 61q154 25 311 25q188 0 292.5 -75t104.5 -255q0 -74 -32.5 -141.5t-68.5 -105.5t-106.5 -101.5l-99.5 -91.5q-39 -41 -52.5 -69t-13.5 -81q0 -37 -16 -47t-57 -10h-74q-29 0 -46.5 5t-23.5 22.5t-8 25.5t-1 41t1 41q0 57 34 112.5t83 98.5l97 86 q48 43 82 95t34 108q0 70 -34 95.5t-105 25.5q-88 0 -256 -33q-43 -6 -45 -6q-43 0 -50 34q0 4 -11 60.5t-11 79.5zM246 131q0 20 14 35l141 141q14 14 31 15q18 0 33 -15l141 -141q14 -14 15 -35q0 -18 -15 -33l-141 -139q-14 -14 -33 -14h2q-18 0 -33 14l-141 139 q-14 15 -14 33z" />
<glyph unicode="@" horiz-adv-x="2156" d="M168 479q0 475 234.5 704.5t711.5 229.5q461 0 668 -240.5t207 -709.5q0 -225 -96.5 -365.5t-309.5 -140.5q-84 0 -168 41t-133 108q-90 -70 -172 -101.5t-186 -31.5q-293 0 -293 297q0 156 85 224.5t249 87.5q137 16 260 16v12q0 33 -1 50.5t-6.5 46t-15.5 43 t-30.5 26.5t-51.5 12q-94 0 -301 -43q-37 -6 -39 -6q-18 0 -30.5 6.5t-19.5 12.5t-10 23.5t-3 23.5v29v26q0 37 11 53.5t48 30.5q33 12 157 25.5t177 13.5q207 0 295 -92q37 -39 54.5 -102.5t19.5 -100.5t2 -119v-145v-36v-43q0 -13 2 -42t6 -43t12 -35.5t20.5 -32t31 -18.5 t42.5 -8q39 0 66 18.5t40 41t19 64.5t7.5 64.5t1.5 67.5q0 109 -5.5 189.5t-20.5 167.5t-42 148.5t-72 118t-108.5 90t-153.5 54t-205 20.5q-213 0 -348 -42t-211 -140t-103.5 -232t-27.5 -345q0 -336 136.5 -512.5t461.5 -176.5q170 0 395 74q20 8 33 8q33 0 45 -30 q41 -88 41 -117q0 -39 -63 -64q-90 -35 -229.5 -56t-250.5 -21q-426 0 -629.5 244.5t-203.5 678.5zM877 293q0 -133 75 -133q135 0 283 100q-10 49 -10 160q-66 4 -101 4q-80 0 -120 -6q-68 -6 -97.5 -32.5t-29.5 -92.5z" />
<glyph unicode="A" horiz-adv-x="1286" d="M37 49q0 20 16 64l420 1171q10 29 23.5 46.5t22.5 27.5t31.5 14t33.5 5q5 1 16 1t29 -1q35 -1 49 -1q51 0 76.5 -19.5t44.5 -70.5l442 -1194q8 -20 8 -31q0 -61 -73 -61h-113q-70 0 -96 72l-90 256q-120 -3 -240 -3l-240 3l-82 -242q-10 -33 -22 -51.5t-34.5 -26.5 t-34.5 -10q-6 -1 -18.5 -1t-32.5 1q-40 2 -56 2q-80 0 -80 49zM471 539h328l-164 483z" />
<glyph unicode="B" horiz-adv-x="1224" d="M172 90v1194q0 49 23.5 66.5t74.5 17.5h267q8 0 62 1q27 1 46.5 1t31.5 -1q24 -1 67.5 -4t75.5 -11t59 -23q158 -78 157 -319q0 -178 -112 -271q102 -43 141 -126t39 -207q0 -197 -96 -304q-59 -66 -144.5 -85t-199.5 -19h-394q-53 0 -75.5 19.5t-22.5 70.5zM446 229 q98 -4 148 -4q88 0 141 13q96 20 96 170q0 61 -14 98t-63 49q-59 14 -187 14h-121v-340zM446 782h109q131 0 175 38t44 169q0 100 -34.5 127t-139.5 27q-51 0 -154 -4v-357z" />
<glyph unicode="C" horiz-adv-x="1157" d="M129 668q0 86 3 150.5t18.5 152.5t43 151.5t80 123t123.5 89.5q113 47 322 47q137 0 233 -10q27 -2 40.5 -4t31.5 -9t26.5 -21.5t8.5 -37.5v-67q0 -53 -14.5 -75.5t-63.5 -22.5q-37 0 -110.5 5t-110.5 5q-158 0 -223 -29q-29 -12 -51.5 -34.5t-35.5 -61.5l-23 -66 q-9 -27 -12 -80t-4 -72q-1 -10 -1 -29t1 -48q1 -57 1 -59q0 -207 24 -285q41 -135 166 -160q51 -10 158 -10q37 0 110.5 5t110.5 5q29 0 46 -8t24.5 -29.5t9.5 -33.5q1 -6 1 -18.5t-1 -30.5q-2 -36 -2 -46q0 -29 -18.5 -45t-36 -20t-52.5 -6q-96 -10 -233 -11 q-182 0 -300 43t-180.5 136.5t-86 213.5t-23.5 302z" />
<glyph unicode="D" horiz-adv-x="1333" d="M160 90v1194q0 49 25.5 66.5t74.5 17.5h356q213 0 322 -43q74 -29 126 -86t79.5 -118.5t43 -149.5t18.5 -151.5t3 -149.5q0 -178 -24.5 -295t-88 -206t-181 -129t-298.5 -40h-356q-53 0 -76.5 19.5t-23.5 70.5zM434 244q70 -6 144 -6q86 0 147 10q98 18 140 73.5 t55 161.5q8 59 8 183v46v55q0 17 -1 55t-5 59.5t-9.5 54.5t-15.5 54.5t-23.5 45t-32 40t-42.5 26.5q-66 29 -221 28q-74 0 -144 -6v-880z" />
<glyph unicode="E" horiz-adv-x="1101" d="M160 90v1194q0 49 24.5 66.5t75.5 17.5h633q16 0 28.5 -2t21.5 -7l16 -9q7 -4 12 -15l6 -15q2 -5 3 -20.5t1 -21.5v-25v-24q0 -51 -19.5 -73.5t-68.5 -22.5q-229 0 -459 6v-320q412 6 414 6q27 0 44 -7t25.5 -15t13.5 -28.5t5 -33.5v-41q0 -51 -19.5 -73.5t-68.5 -22.5 q-2 0 -414 6v-381q229 6 459 7q20 0 36.5 -4.5t25.5 -14.5l16 -17q6 -7 8 -25.5l3 -27.5q1 -4 1 -12t-1 -20q-1 -25 -1 -31q0 -84 -88 -84h-633q-53 0 -76.5 19.5t-23.5 70.5z" />
<glyph unicode="F" horiz-adv-x="1024" d="M160 90v1194q0 49 24.5 66.5t75.5 17.5h594q16 0 28.5 -2t21.5 -7l17 -9q7 -4 11 -15.5t6 -16.5t3 -20.5t1 -20.5v-24v-24q0 -96 -88 -96q-211 0 -420 6v-318q254 4 381 4q27 0 44.5 -8t25.5 -15t12 -29.5t4 -32.5v-40q0 -51 -18.5 -73.5t-67.5 -22.5l-381 6v-520 q0 -90 -86 -90h-88q-53 0 -76.5 19.5t-23.5 70.5z" />
<glyph unicode="G" horiz-adv-x="1267" d="M129 668q0 86 3 150.5t18.5 152.5t43 151.5t80 123t123.5 89.5q113 47 322 47q205 0 303 -14q29 -4 39 -6t29.5 -9t27.5 -20.5t8 -36.5v-69q0 -53 -14 -76t-63.5 -23t-145.5 8.5t-143 8.5q-158 0 -223 -29q-29 -12 -51.5 -34.5t-35.5 -61.5l-23 -66q-9 -27 -12 -80 t-4 -72q-1 -10 -1 -29t1 -48q1 -57 1 -59q0 -207 24 -285q41 -135 166 -160q51 -10 158 -10q35 0 96 12v381h-192q-27 0 -44.5 7t-25.5 15.5t-13.5 29t-5.5 32.5v41q0 51 19.5 73.5t69.5 22.5h378q88 0 88 -86v-620q0 -47 -20 -69.5t-68 -37.5q-119 -39 -323 -39 q-182 0 -300 43t-180.5 136.5t-86 213.5t-23.5 302z" />
<glyph unicode="H" horiz-adv-x="1363" d="M160 90v1194q0 49 24.5 66.5t75.5 17.5h88q86 0 86 -84v-444q124 3 248 3l248 -3v444q0 49 23.5 66.5t74.5 17.5h86q88 0 88 -84v-1194q0 -27 -8 -45t-17.5 -27.5t-32 -13.5t-34.5 -5q-6 -1 -16.5 -1t-25.5 1q-30 1 -40 1q-53 0 -75.5 19.5t-22.5 70.5v531 q-124 -3 -248 -4l-248 4v-531q0 -27 -8 -45t-17.5 -27.5t-32 -13.5t-33.5 -5q-6 -1 -16.5 -1t-25.5 1q-31 1 -41 1q-53 0 -76.5 19.5t-23.5 70.5z" />
<glyph unicode="I" horiz-adv-x="612" d="M170 90v1194q0 49 23.5 66.5t74.5 17.5h88q88 0 88 -84v-1194q0 -90 -88 -90h-88q-53 0 -75.5 19.5t-22.5 70.5z" />
<glyph unicode="J" horiz-adv-x="733" d="M-28 88q-1 7 -0.5 18t0.5 25q1 29 1 33q0 29 20.5 49t49.5 20q18 0 57 -4t60 -4q117 0 143 60q27 57 27 325v527q-102 -4 -152 -4q-20 0 -36.5 4t-25.5 14l-16 17q-6 7 -8 25.5t-3 27t0 33t1 30.5q0 84 88 84h340q86 0 86 -84v-635q0 -190 -6 -282q-14 -207 -129 -294 t-330 -87q-121 0 -147 34q-10 12 -14.5 33t-5.5 35z" />
<glyph unicode="K" horiz-adv-x="1239" d="M160 90v1194q0 49 24.5 66.5t75.5 17.5q10 0 39 1t42 1t34.5 -4t32 -12t18.5 -25.5t8 -44.5v-467l422 496q47 55 115 55h104q76 0 76 -57q0 -27 -23 -54l-510 -573l545 -555q33 -33 33 -70q0 -59 -76 -59h-141q-74 0 -121 53l-424 455v-418q0 -27 -8 -45t-17.5 -27.5 t-32 -13.5t-33.5 -5q-6 -1 -16.5 -1t-25.5 1q-31 1 -41 1q-53 0 -76.5 19.5t-23.5 70.5z" />
<glyph unicode="L" horiz-adv-x="958" d="M160 90v1194q0 49 24.5 66.5t75.5 17.5h88q86 0 86 -84v-1053q266 4 400 5q20 0 36.5 -4.5t25.5 -14.5l15 -17q6 -7 8.5 -25.5t3.5 -27.5q1 -4 0.5 -12t-0.5 -20q-1 -25 -1 -31q0 -84 -88 -84h-574q-53 0 -76.5 19.5t-23.5 70.5z" />
<glyph unicode="M" horiz-adv-x="1662" d="M123 80v14l104 1192q4 47 29 64.5t72 17.5h112q78 0 105 -63q18 -43 102 -273l184 -514l185 514q84 229 102 273q27 63 105 63h112q47 0 72 -17.5t29 -64.5l104 -1192v-14q0 -29 -11 -47.5t-37 -25.5t-41 -9q-8 -1 -21 -1t-32 1q-38 2 -44 2q-82 0 -88 88l-54 834 l-27.5 -83.5t-25.5 -74.5q-158 -459 -188 -531l-13 -23q-6 -11 -11 -18.5t-13 -13.5t-12 -10t-15.5 -7t-16.5 -4t-19.5 -2t-18.5 -1h-23h-24q-45 0 -68.5 18t-42.5 61q-33 78 -64 165l-70 199l-58 167q-10 27 -26.5 80l-24.5 78l-54 -834q-2 -27 -10 -44t-17.5 -26.5 t-31 -13.5t-33.5 -5t-42 0t-40 1q-100 0 -100 80z" />
<glyph unicode="N" horiz-adv-x="1417" d="M154 90v1194q0 20 4 35.5t15 25t18.5 14.5t27 7t27.5 3t31.5 0t29.5 -1q43 0 62.5 -7t42.5 -36l63 -86l139 -203l379 -549v797q0 25 9.5 43.5t21.5 26.5t34.5 12t37 4t43 -1t39.5 -1q86 0 86 -84v-1194q0 -23 -3.5 -38t-13.5 -25.5t-17 -16.5t-25.5 -8t-25.5 -3 q-4 -1 -12 -1t-21 1q-26 1 -32 1q-45 0 -67.5 7t-47.5 36l-61 86l-143 203l-371 542v-784q0 -27 -8 -44t-17.5 -27.5t-33 -14.5t-33.5 -5q-5 -1 -15.5 -1t-26.5 1q-32 1 -38 1q-53 0 -75.5 19.5t-22.5 70.5z" />
<glyph unicode="O" horiz-adv-x="1423" d="M129 682q0 725 583.5 725t583.5 -725t-583.5 -725t-583.5 725zM414 682q0 -258 45 -352q61 -133 253.5 -133t254.5 133q45 94 45 352q0 260 -45 354q-63 131 -254 131t-254 -131q-45 -94 -45 -354z" />
<glyph unicode="P" horiz-adv-x="1196" d="M160 90v1194q0 49 24.5 66.5t75.5 17.5h379q166 0 225 -18q70 -20 125 -78q106 -109 107 -383q0 -96 -14.5 -168t-41 -120t-64.5 -80t-87 -48t-107.5 -24.5t-125.5 -8.5h-142h-80v-350q0 -27 -8 -45t-18.5 -27.5t-32 -14.5t-33.5 -5t-42 1t-40 1q-53 0 -76.5 19.5 t-23.5 70.5zM434 676h232q102 0 133 39q25 33 24 190q0 182 -55 213q-33 16 -162 17q-57 0 -172 -5v-454z" />
<glyph unicode="Q" horiz-adv-x="1423" d="M129 676q0 162 27.5 286.5t91 228t180.5 160t285 56.5q584 0 583 -731q0 -174 -27.5 -305t-113.5 -238q-117 -145 -305 -176q8 -29 28.5 -46t56.5 -22.5t59 -7.5q12 -1 29 -1t39 1q44 2 52 2q20 0 33.5 -7t21 -15t10.5 -27.5t4 -29t0 -34t-1 -30.5q0 -29 -11.5 -48.5 t-23.5 -28.5t-42 -14t-42 -5h-49q-190 0 -306 68.5t-145 244.5q-182 35 -295 176q-84 106 -111.5 236.5t-27.5 306.5zM414 676q0 -258 45 -354q61 -135 253.5 -135.5t254.5 135.5q45 96 45 354q0 260 -45 356q-61 135 -254 135t-254 -135q-45 -96 -45 -356z" />
<glyph unicode="R" horiz-adv-x="1259" d="M160 90v1194q0 49 24.5 66.5t75.5 17.5h379q166 0 225 -18q70 -20 125 -78q106 -109 107 -383q0 -344 -273 -381l314 -381q29 -37 28 -72q0 -55 -71 -55h-123q-80 0 -125 55l-348 443h-64v-408q0 -27 -8 -45t-17.5 -27.5t-32 -13.5t-33.5 -5q-6 -1 -16.5 -1t-25.5 1 q-31 1 -41 1q-53 0 -76.5 19.5t-23.5 70.5zM434 731h232q100 0 128.5 36t28.5 138q0 182 -55 213q-33 16 -158 17q-57 0 -176 -5v-399z" />
<glyph unicode="S" horiz-adv-x="1107" d="M117 68v69q0 53 14 76t64 23q59 0 180 -8.5t180 -8.5q102 0 133 19.5t31 113.5q0 127 -23 150q-6 6 -49 28l-258 109q-166 72 -211 135.5t-45 241.5q0 137 42 215t161 119q100 33 285 32q104 0 231 -10q27 -2 39 -4t31.5 -9t29 -21.5t9.5 -37.5v-67q0 -55 -14.5 -76.5 t-65.5 -21.5q-27 0 -74 4t-59 4q-80 4 -236 4q-41 0 -64.5 -7t-32.5 -28.5t-11.5 -40t-2.5 -59.5v-15q0 -57 10.5 -76.5t61.5 -43.5l168 -72q156 -68 195 -90q94 -51 122.5 -112.5t28.5 -180.5q0 -211 -39 -287q-27 -51 -75 -85t-114.5 -47t-115.5 -17t-119 -4 q-186 0 -301 14q-37 4 -52 7t-34.5 19.5t-19.5 45.5z" />
<glyph unicode="T" horiz-adv-x="1169" d="M58 1210q-1 4 -0.5 13.5t0.5 24.5q1 30 1 36q0 84 86 84h879q16 0 28.5 -2t21.5 -7l17 -9q7 -4 11 -15.5t6 -16.5t3 -20.5t1 -20.5v-24v-24q0 -51 -19.5 -73.5t-68.5 -22.5q-100 0 -301 4v-1047q0 -27 -8 -45t-18.5 -27.5t-33 -13.5t-34.5 -5q-6 -1 -17 -1t-26 1 q-31 1 -39 1q-53 0 -75.5 19.5t-22.5 70.5v1047q-201 -4 -304 -4q-25 0 -42 7t-26 14t-13.5 27.5t-5.5 28.5z" />
<glyph unicode="U" horiz-adv-x="1392" d="M141 624v86v72v502q0 49 23.5 66.5t75.5 17.5h86q90 0 90 -84v-604v-47v-58q0 -12 1 -53t4 -61l8 -52q5 -32 12.5 -55.5t17.5 -44.5q23 -45 63.5 -68.5t76.5 -27.5t97 -4q59 0 96 4t79 27.5t65 68.5q10 20 17.5 44t12.5 56l8 52q3 20 4 61t1 53v58v47v604q0 49 25.5 66.5 t76.5 17.5h88q84 0 84 -84v-469v-75v-88q0 -26 -1 -87t-6 -95t-11 -89t-18 -91l-28 -79q-15 -43 -38 -76t-51 -57q-119 -109 -404 -109q-283 0 -401 109q-27 25 -49.5 56.5t-39 73.5t-27.5 73.5t-18 87t-11.5 83t-6.5 90.5t-2 82z" />
<glyph unicode="V" horiz-adv-x="1363" d="M72 1307q0 61 73 61h125q41 0 62.5 -16.5t36.5 -55.5l323 -931l316 917q16 49 37.5 67.5t68.5 18.5h100q27 0 40.5 -2t25.5 -13.5t12 -33.5q0 -20 -14 -64l-420 -1167q-12 -33 -25.5 -53.5t-41 -28.5t-36.5 -10q-6 -1 -29 -1h-28q-47 1 -57 1q-51 0 -76.5 20.5 t-44.5 71.5l-440 1188q-8 21 -8 31z" />
<glyph unicode="W" horiz-adv-x="1759" d="M80 1296q0 72 102 72h103q43 0 61.5 -20.5t26.5 -63.5l176 -917l123 442q51 186 67 227q10 25 23.5 40.5t37 20.5t37 6t47.5 0t44 -1q72 0 96 -66q12 -33 23.5 -69.5t23.5 -82.5t21 -71l122 -438l177 909q8 45 25.5 64.5t60.5 19.5h102q102 0 102 -68q0 -10 -4 -30 l-270 -1196q-10 -45 -32.5 -61.5t-67.5 -16.5h-133q-43 0 -63.5 17.5t-35.5 60.5q-31 86 -194 643l-58 -202l-70 -243q-32 -104 -65 -198q-27 -78 -102 -78h-131q-45 0 -66.5 16.5t-32.5 61.5l-272 1196q-4 16 -4 26z" />
<glyph unicode="X" horiz-adv-x="1335" d="M109 57q0 35 30 78l379 539l-379 565q-25 37 -24 64q0 66 82 65h112q74 0 109 -55l262 -408l278 410q14 20 30 32.5t38.5 16.5t35.5 5q7 1 18 1t27 -1q32 -1 44 -1q76 0 76 -59q0 -41 -39 -92l-367 -523l375 -559q31 -49 31 -78q0 -57 -68 -57h-127q-45 0 -69.5 13.5 t-49.5 52.5l-254 395l-270 -395q-27 -39 -47 -52.5t-63 -13.5h-103q-67 0 -67 57z" />
<glyph unicode="Y" horiz-adv-x="1259" d="M68 1303q0 33 23.5 49t55.5 16h111q70 0 102 -59l277 -502l283 504q12 23 27.5 36t38 18t36.5 6h11q13 0 35 -1q32 -2 44 -2q78 0 78 -68q0 -27 -29 -79l-389 -691v-440q0 -27 -8 -45t-18.5 -27.5t-33 -13.5t-33.5 -5q-6 -1 -16.5 -1t-25.5 1q-31 1 -41 1 q-53 0 -75.5 19.5t-22.5 70.5v424l-410 729q-20 37 -20 60z" />
<glyph unicode="Z" horiz-adv-x="1179" d="M86 78q0 45 35 98l586 965q-324 -8 -488 -8q-20 0 -36.5 4t-25.5 14l-16 17q-6 7 -8 25.5t-3 27t0 33t1 30.5q0 84 88 84h807q66 0 66 -53q0 -35 -31 -88l-615 -1010q410 18 545 19q25 0 42.5 -7.5t26.5 -14.5t13 -27.5t5 -28.5t0 -38t-1 -36q0 -84 -86 -84h-823 q-37 0 -59.5 20.5t-22.5 57.5z" />
<glyph unicode="[" horiz-adv-x="661" d="M135 -188v1749q0 49 20.5 68.5t69.5 19.5h430q33 0 51.5 -8.5t26.5 -30t9 -36.5t1 -52q0 -49 -19 -73t-68.5 -24t-284.5 11v-1504q236 10 284 11q14 0 25.5 -2t21 -5.5t15.5 -10.5t11 -10t8 -14.5l4 -15.5t2 -19.5t1 -18.5v-20v-22q0 -86 -88 -86h-411q-59 0 -84 18 t-25 75z" />
<glyph unicode="\" horiz-adv-x="806" d="M-41 1356q0 16 6 29.5t19.5 23.5t23.5 15.5t30.5 13.5t27.5 12q20 10 40 10q43 0 64 -49l557 -1321q12 -29 12 -51q0 -37 -61 -68q-76 -35 -86 -34q-39 0 -64 53l-561 1327q-8 16 -8 39z" />
<glyph unicode="]" horiz-adv-x="661" d="M-80 -154q0 49 19.5 73t68.5 24t285 -11v1504q-236 -10 -285 -11q-14 0 -25.5 2.5t-20.5 5.5t-15 10t-11.5 10t-8.5 14.5l-4 15.5t-2 19.5t-1 18.5v20v22q0 86 88 86h428q49 0 69.5 -19.5t20.5 -68.5v-1749q0 -57 -24.5 -75t-83.5 -18h-410q-33 0 -51 8.5t-26.5 30 t-9.5 36.5t-1 52z" />
<glyph unicode="^" horiz-adv-x="1028" d="M59 741l369 670h174l367 -670h-277l-178 336l-178 -336h-277z" />
<glyph unicode="_" horiz-adv-x="755" d="M0 -322q0 55 90 56h572q94 0 94 -56v-67q0 -49 -20.5 -62.5t-73.5 -13.5h-572q-29 0 -45 3t-30.5 17.5t-14.5 41.5v81z" />
<glyph unicode="`" horiz-adv-x="475" d="M0 1464.5q0 12.5 6 20.5t19.5 13t25.5 8t31.5 4t30.5 1h27h20q76 0 94 -12q25 -16 123 -149t98 -154q0 -41 -80 -41h-84q-29 0 -51 10q-18 8 -40.5 28.5t-35 33t-39.5 47.5l-26 35q-4 4 -28 30l-41 46q-17 19 -33.5 43t-16.5 36.5z" />
<glyph unicode="a" horiz-adv-x="1085" d="M98 279q0 158 85 230.5t249 90.5q142 17 239 17q11 0 21 -1v28v31q0 9 -1 28.5t-4 28.5t-7 25.5t-12 23.5l-19 17q-10 9 -25.5 12t-33.5 3q-115 0 -295 -43q-25 -6 -49 -6q-16 0 -28.5 6t-18.5 13.5t-9.5 23.5t-3.5 24v30v26q0 68 58 86q137 39 336 39q209 0 292 -94 q39 -41 56.5 -107t19.5 -102.5t2 -122.5v-498q0 -45 -18.5 -66.5t-63.5 -21.5h-114q-59 0 -60 74q-162 -100 -303 -101q-293 1 -293 306zM344 301q0 -137 76 -137q133 0 274 102v166q-66 4 -100 4q-86 0 -129 -6q-66 -10 -93.5 -38t-27.5 -91z" />
<glyph unicode="b" horiz-adv-x="1138" d="M141 90v1231q0 49 20.5 68.5t69.5 19.5h93q80 0 79 -88v-330q139 20 252 21q94 0 162 -28t108 -71t62.5 -111.5t29.5 -136t7 -159.5q0 -272 -98.5 -402.5t-358.5 -130.5q-186 0 -327 25q-49 8 -74 27.5t-25 64.5zM403 207q125 -18 168 -19q137 0 164 86q23 76 23 236 q0 129 -19 203q-12 53 -37.5 67.5t-87.5 14.5q-86 0 -211 -27v-561z" />
<glyph unicode="c" horiz-adv-x="978" d="M115 491.5q0 153.5 16 243.5t67.5 158t142.5 93.5t241 25.5q78 0 174 -11q6 0 21.5 -2t21.5 -2t18 -2t18 -5l13 -8q8 -5 11 -11t6 -16.5t3 -22.5v-4q0 -160 -73 -160q-29 0 -82 8q-127 16 -193 17q-63 0 -84.5 -17.5t-36.5 -79.5q-16 -76 -16 -204q0 -109 8 -197 q6 -66 33 -84t96 -18q63 0 195 16q53 8 80 8q29 0 49 -20q25 -25 24 -140q0 -14 -2 -25.5t-9 -19.5t-12 -12t-18.5 -7t-19.5 -5t-25.5 -4t-25.5 -2q-76 -8 -174 -9q-150 0 -241 26t-142.5 92.5t-67.5 156.5t-16 243.5z" />
<glyph unicode="d" horiz-adv-x="1142" d="M115 469q0 541 438 541q90 0 192 -17v328q0 49 20.5 68.5t70.5 19.5h90q39 0 60.5 -24.5t21.5 -63.5v-1229q0 -92 -82 -92h-95q-55 0 -75 47q-147 -74 -271 -74q-102 0 -178 42t-115.5 115t-58 157t-18.5 182zM379 444q0 -256 149 -256q106 0 217 95v483q-106 27 -200 27 q-55 0 -82 -17q-84 -49 -84 -332z" />
<glyph unicode="e" horiz-adv-x="1073" d="M115 485q0 135 16 223.5t62.5 162t134.5 107.5t223 34q240 0 323.5 -116t83.5 -364q0 -84 -14 -102q-18 -23 -72 -22h-499v-29v-11q0 -106 37 -149q39 -45 153 -45q104 0 250 33q57 14 72 14q59 0 59 -131q0 -43 -15.5 -62.5t-58.5 -27.5q-127 -27 -309 -27 q-262 0 -354 120t-92 392zM373 588h336v39q0 102 -30 141t-128 39q-117 0 -147.5 -47t-30.5 -172z" />
<glyph unicode="f" horiz-adv-x="782" d="M70 836v88q0 20 5 33.5t20.5 17.5t21.5 6t32.5 1t30.5 -1v82q0 168 53 242q57 78 141.5 99t211.5 21q145 0 170 -39q10 -14 10 -43v-14q0 -141 -61 -141q-14 0 -43 6t-33 6q-49 6 -99 6q-61 0 -73 -20q-14 -23 -15 -205h205q37 0 52.5 -11.5t15.5 -45.5v-82 q0 -45 -15.5 -61.5t-58.5 -16.5h-199v-672q0 -47 -14 -69.5t-57 -22.5h-129q-39 0 -50.5 19.5t-11.5 60.5v684h-61q-49 0 -49 72z" />
<glyph unicode="g" horiz-adv-x="1126" d="M113 465q0 287 110 418q51 59 123 88.5t127 35t156 5.5q188 0 280 -8q49 -4 65.5 -23.5t16.5 -69.5v-1005q0 -131 -43 -197q-104 -154 -377 -153q-260 0 -383 38q-61 18 -61 95q0 133 68 133q10 0 51 -10q170 -41 340 -41q51 0 82.5 13t44 46t14.5 57.5t2 79.5v23v10 q-145 -27 -237 -27q-219 0 -299 128t-80 364zM379 475q0 -82 12 -162q10 -78 32.5 -106.5t94.5 -28.5q96 0 211 35v578q-106 4 -162 4q-41 0 -62.5 -2t-47 -16.5t-39.5 -45.5q-39 -80 -39 -256z" />
<glyph unicode="h" horiz-adv-x="1075" d="M113 82v1239q0 49 20.5 68.5t69.5 19.5h92q80 0 80 -88v-379q145 70 276 70q147 0 231.5 -74t84.5 -217v-629q0 -92 -80 -92h-109q-74 0 -73 92v524q0 145 -14.5 162t-65.5 17q-115 0 -250 -95v-608q0 -92 -80 -92h-109q-73 0 -73 82z" />
<glyph unicode="i" horiz-adv-x="565" d="M147 92v799q0 49 21.5 69.5t69.5 20.5h96q39 0 60.5 -25.5t21.5 -64.5v-799q0 -92 -82 -92h-78q-59 0 -84 17.5t-25 74.5zM147 1219v71q0 49 21.5 69.5t69.5 20.5h96q39 0 60.5 -25.5t21.5 -64.5v-71q0 -92 -82 -93h-78q-59 0 -84 18t-25 75z" />
<glyph unicode="j" horiz-adv-x="561" d="M-45 -276q0 35 17.5 59t47.5 24q16 0 49 -6t52 -6q10 0 17 4t11.5 11.5t6.5 14.5t3 19.5t1 19.5v18v16v993q0 49 20.5 69.5t69.5 20.5h96q39 0 60.5 -25.5t21.5 -64.5v-920q0 -143 -16 -209q-27 -96 -118 -146t-200 -50q-102 0 -120.5 24.5t-18.5 133.5zM160 1217v71 q0 49 20.5 70.5t69.5 21.5h96q39 0 60.5 -25.5t21.5 -66.5v-71q0 -47 -18.5 -69t-63.5 -22h-80q-61 0 -83.5 17t-22.5 74z" />
<glyph unicode="k" horiz-adv-x="1050" d="M141 92v1229q0 49 20.5 68.5t69.5 19.5h93q80 0 79 -88v-659l267 282q35 37 102 37h111q76 0 75 -55q0 -31 -49 -74l-311 -285l422 -473q18 -23 18 -39q0 -27 -23.5 -41t-51.5 -14h-134q-51 0 -92 51l-334 402v-361q0 -92 -69 -92h-131q-62 0 -62 92z" />
<glyph unicode="l" horiz-adv-x="550" d="M143 92v1229q0 49 20.5 68.5t69.5 19.5h93q80 0 80 -88v-1229q0 -92 -80 -92h-74q-59 0 -84 17.5t-25 74.5z" />
<glyph unicode="m" horiz-adv-x="1566" d="M143 90v803q0 47 21.5 67.5t68.5 20.5h93q33 0 45 -13.5t24 -49.5q162 94 287 94q137 0 197 -111q174 111 315 111q123 0 179.5 -80t56.5 -207v-635q0 -27 -7.5 -44t-13.5 -27.5t-26.5 -14.5t-28.5 -5q-4 -1 -14 -1t-25 1q-31 1 -39 1q-59 0 -84 16.5t-25 73.5v531v19v30 q0 12 -1 32.5t-3 35t-7 28.5t-13 21.5t-21 7.5q-66 0 -204 -111v-594q0 -27 -7.5 -44t-13.5 -27.5t-26.5 -14.5t-28.5 -5q-4 -1 -14 -1t-25 1q-31 1 -39 1q-59 0 -84 16.5t-25 73.5v531v19v30q0 12 -1 32.5t-3 35t-7 28.5t-13 21.5t-21 7.5q-66 0 -204 -111v-594 q0 -45 -17.5 -67.5t-62.5 -22.5h-105q-47 0 -62.5 20.5t-15.5 69.5z" />
<glyph unicode="n" d="M143 90v803q0 47 21.5 67.5t68.5 20.5h93q33 0 47 -15.5t22 -47.5q143 94 287 94q145 0 230 -72t85 -213v-637q0 -27 -7 -44t-13 -26.5t-27.5 -14.5t-27.5 -6q-3 -1 -13 -1t-27 1q-34 1 -38 1q-59 0 -84 16.5t-25 73.5v531q0 121 -14 145q-18 31 -64 31q-109 0 -251 -113 v-594q0 -27 -7.5 -44t-13.5 -27.5t-26.5 -14.5t-28.5 -5q-4 -1 -14 -1t-25 1q-31 1 -39 1q-59 0 -84 16.5t-25 73.5z" />
<glyph unicode="o" horiz-adv-x="1169" d="M115 492q0 254 111.5 387t359.5 133q250 0 359.5 -133.5t109.5 -387t-110.5 -386t-358.5 -132.5t-359.5 133.5t-111.5 385.5zM379 492q0 -166 39 -238q12 -23 29.5 -37t44 -19t42 -6.5t52.5 -1.5t52 1.5t42 6.5t44 19t30 37q37 68 37 238t-37 237q-12 25 -29.5 39 t-44.5 19.5t-42 6.5t-52 1t-52.5 -1t-42 -6.5t-44 -19.5t-29.5 -39q-39 -73 -39 -237z" />
<glyph unicode="p" horiz-adv-x="1159" d="M143 -336v1229q0 49 20.5 68.5t69.5 19.5h93q35 0 49 -15.5t22 -52.5q178 98 314 99q86 0 148.5 -32t97 -80t54 -120.5t25.5 -136t6 -143.5q0 -223 -57 -330q-104 -197 -393 -197q-98 0 -186 21v-330q0 -27 -7.5 -45t-13.5 -27.5t-26.5 -14.5t-28.5 -6q-4 -1 -14 -1 t-25 1q-31 1 -39 1q-59 0 -84 17.5t-25 74.5zM406 217q88 -27 190 -27q39 0 69.5 11.5t49 23t32 42t19.5 47t9 59.5t3 57v64q0 160 -20 233q-20 68 -80 68q-104 0 -272 -107v-471z" />
<glyph unicode="q" horiz-adv-x="1130" d="M115 467q0 270 108 410q66 86 142.5 110.5t207.5 24.5q209 0 340 -15q41 -4 59.5 -19t18.5 -54v-1260q0 -23 -3 -39t-13 -26.5t-17.5 -16.5t-26 -8t-26.5 -3q-4 -1 -12.5 -1t-21.5 1q-26 1 -33 1q-59 0 -84 17.5t-25 74.5v365q-94 -55 -223 -56q-219 0 -305 130.5 t-86 363.5zM379 379q0 -16 4 -54t12 -54.5t23.5 -39t42 -32t61.5 -9.5q98 0 207 89v497q-92 12 -184 12t-123 -53q-43 -78 -43 -299v-57z" />
<glyph unicode="r" horiz-adv-x="817" d="M143 90v803q0 47 21.5 67.5t68.5 20.5h97q59 0 76 -72q158 94 268 95q16 0 29.5 -2.5t22.5 -7.5l16 -9q7 -4 12 -14l6 -16q2 -5 3 -20t1 -21v-24v-26q0 -47 -15.5 -70.5t-60.5 -23.5q-88 0 -145.5 -16.5t-130.5 -63.5v-600q0 -90 -82 -90h-78q-59 0 -84 16.5t-25 73.5z " />
<glyph unicode="s" horiz-adv-x="1021" d="M133 696q0 57 8.5 102.5t28.5 78t40.5 55t58.5 37t64.5 22.5t80 11.5t83 4.5t91.5 1h10q100 0 152 -4q59 -4 80.5 -23.5t21.5 -77.5q0 -35 -1 -47t-7 -36.5t-22.5 -34t-45.5 -9.5q-20 0 -58 4t-48 4q-72 8 -164 9h-27h-24q-4 0 -19.5 -1t-18.5 -5.5t-12.5 -9.5t-11.5 -14 t-4 -21.5t-2 -28.5q0 -27 10 -41q8 -12 59.5 -31.5t125.5 -42.5l73 -20q129 -43 182.5 -101.5t53.5 -185.5q0 -197 -88 -256.5t-297 -59.5q-197 0 -293 15q-18 2 -29.5 8t-17.5 10t-8 21.5t-2 21.5v33v37q0 6 -1 11q0 83 60 83q2 0 107 -12q117 -10 213 -10q41 0 58 3 t30.5 19t13.5 53q0 53 -12 68q-8 8 -56.5 25.5t-107 35t-66.5 21.5q-86 31 -116 47q-80 41 -113 92t-33 139z" />
<glyph unicode="t" horiz-adv-x="833" d="M90 825v88q0 16 2 28.5t9.5 20t10.5 11.5t17 6t18 2h25h25v166q0 47 20.5 68.5t67.5 21.5h92q39 0 60.5 -25.5t21.5 -64.5v-166h200q27 0 42.5 -5t21.5 -22.5t7 -26.5q1 -5 1 -15t-1 -26q-1 -32 -1 -42q0 -29 -1 -41t-12 -24.5t-36 -12.5h-221v-412q0 -131 12 -149 q10 -16 31 -17q29 0 84 15.5t84 15.5q20 0 32.5 -8t17.5 -25.5t6 -29t0 -38t-1 -30.5q0 -53 -16.5 -74.5t-69.5 -27.5q-98 -10 -178 -11q-166 0 -215 73t-49 251v467h-58q-49 0 -49 59z" />
<glyph unicode="u" d="M135 258v633q0 27 7.5 44t14.5 27.5t27.5 14.5t28.5 5q4 1 14 1t25 -1q31 -1 39 -1q59 0 82.5 -17.5t23.5 -72.5v-529q0 -6 -1 -28.5t0 -33.5l3 -31.5t7.5 -32t13.5 -23.5t22.5 -18.5t32.5 -6.5q47 0 95 18.5t76 36t81 58.5v590q0 27 7 44t14.5 27.5t28 14.5t28.5 5 q4 1 13.5 1t25.5 -1q31 -1 39 -1q59 0 82.5 -17.5t23.5 -72.5v-803q0 -47 -20.5 -67.5t-67.5 -20.5h-92q-55 0 -70 68q-145 -96 -288 -97q-145 0 -230.5 73t-85.5 214z" />
<glyph unicode="v" horiz-adv-x="1050" d="M72 928q0 53 69 53h111q45 0 66.5 -14.5t33.5 -55.5l176 -583l177 581q12 41 34.5 56.5t67.5 15.5h104q70 0 70 -53q0 -18 -6 -33l-303 -821q-10 -27 -22.5 -43.5t-35 -23.5t-33.5 -8q-6 -1 -18 -1t-29 1q-36 1 -49 1q-49 0 -69.5 14.5t-36.5 59.5l-301 823q-6 17 -6 31z " />
<glyph unicode="w" horiz-adv-x="1492" d="M92 918q0 25 12.5 39t36 19t40.5 7q9 1 21.5 1t27.5 -1q32 -2 36 -2q45 0 67.5 -16.5t33.5 -59.5l127 -559l122 416q6 18 16.5 31.5t20 19.5t27.5 9t27.5 4t34 0t32.5 -1q45 0 67.5 -12t35.5 -51l122 -416l127 559q10 43 33 59.5t68 16.5h90q82 0 82 -63q0 -23 -4 -35 l-254 -832q-10 -31 -28.5 -41t-53.5 -10h-80q-49 0 -65.5 17.5t-34.5 70.5l-134 389l-131 -389q-8 -27 -19 -44t-18.5 -26.5t-27 -13.5t-27.5 -5q-4 -1 -14 -1t-26 1q-32 1 -48 1q-68 0 -84 51l-254 832q-4 12 -4 35z" />
<glyph unicode="x" horiz-adv-x="1126" d="M96 55q0 29 62 105l258 334l-238 321q-61 84 -61 111q0 55 71 55h99q51 0 72.5 -15.5t54.5 -64.5l149 -227l148 227q33 51 55 65.5t78 14.5h94q70 0 70 -55q0 -27 -62 -111l-235 -321l276 -359q43 -57 43 -80q0 -55 -72 -55h-127q-57 0 -81 39l-187 283l-190 -289 q-23 -33 -80 -33h-127q-70 0 -70 55z" />
<glyph unicode="y" horiz-adv-x="1079" d="M78 926q0 25 22.5 40t49.5 15h92q37 0 52 -1t34.5 -14.5t27.5 -41.5l185 -580l174 557q10 29 22.5 47.5t37 25.5t37.5 9q7 1 20 1t32 -1q39 -2 51 -2q70 0 70 -59q0 -18 -12 -48l-445 -1234q-14 -39 -34.5 -50.5t-65.5 -11.5h-102q-72 0 -72 53q0 10 14 50l154 362 l-336 850q-8 25 -8 33z" />
<glyph unicode="z" horiz-adv-x="1011" d="M106 109q0 39 35 90l422 577q-254 -18 -340 -18q-14 0 -25.5 2t-20.5 5t-15 10t-11.5 10t-8.5 14.5l-4 15.5t-2 19.5t-1 18.5v20v22q0 86 88 86h598q16 0 29.5 -3t21 -12.5t11.5 -15.5t6 -21.5t2 -22.5v-26v-26q0 -35 -25 -70l-426 -577q250 16 377 16q14 0 25.5 -2 t20.5 -5t15.5 -10t11.5 -10t8 -14.5l4 -15.5t2 -19.5t1 -18.5v-20v-22q0 -86 -88 -86h-631q-35 0 -53 16.5t-22.5 37t-4.5 55.5z" />
<glyph unicode="{" horiz-adv-x="794" d="M102 680q117 102 150 158.5t41 197.5q0 16 3 88t6 105t11.5 89t24.5 99t39 78q98 150 389 150q18 0 31.5 -5.5t20.5 -10.5t10 -21.5t3 -21.5v-27v-27q0 -35 -52 -50.5t-118.5 -31.5t-89.5 -53q-31 -49 -41 -355q-2 -137 -31.5 -201.5t-129.5 -160.5q100 -96 129.5 -160.5 t31.5 -202.5q10 -305 41 -354q23 -37 89.5 -53t118.5 -31.5t52 -50.5v-57q0 -55 -65 -56q-291 0 -389 150q-23 35 -39 78t-24.5 99t-11.5 89t-6 104.5t-3 88.5q-8 141 -41 197.5t-150 158.5z" />
<glyph unicode="|" horiz-adv-x="397" d="M53 -193v1749q0 49 20.5 69t69.5 20h66q39 0 60.5 -25t21.5 -64v-1749q0 -92 -82 -92h-47q-59 0 -84 17.5t-25 74.5z" />
<glyph unicode="}" horiz-adv-x="794" d="M-37 -172q0 35 52.5 50.5t119 31.5t88.5 53q31 49 41 354q2 137 32 202t130 161q-100 96 -130 160.5t-32 201.5q-10 301 -41 355q-23 37 -89 53t-118.5 31.5t-52.5 50.5v57q0 55 66 56q291 0 389 -150q23 -35 39 -78t24 -99t11.5 -89t6.5 -104.5t3 -88.5 q8 -141 40.5 -197.5t149.5 -158.5q-117 -102 -149.5 -158.5t-40.5 -197.5q0 -16 -3 -88t-6.5 -105t-11.5 -89t-24.5 -99t-38.5 -78q-98 -150 -389 -150q-18 0 -31.5 5.5t-21 10.5t-10.5 21.5t-3 21.5v27v27z" />
<glyph unicode="~" horiz-adv-x="712" d="M0 821q0 29 27 74q82 150 200 149q51 0 139.5 -30.5t118.5 -30.5q14 0 42 32t57 32h73q55 0 56 -48q0 -23 -19 -63q-72 -154 -202 -154q-53 0 -136.5 32t-115.5 32q-25 0 -56.5 -36t-60.5 -36h-70q-53 0 -53 47z" />
<glyph unicode="&#xa1;" horiz-adv-x="616" d="M117 1194q0 18 14 33l141 141q14 14 31 14q18 0 33 -14l141 -141q14 -14 15 -33q0 -20 -15 -35l-141 -141q-14 -14 -31 -14q-18 0 -33 14l-141 141q-14 15 -14 35zM178 47l17 768q4 92 81 92h56q57 0 73.5 -17.5t18.5 -74.5l16 -768v-4q0 -84 -90 -84h-90 q-39 0 -61.5 24.5t-20.5 63.5z" />
<glyph unicode="&#xa2;" horiz-adv-x="976" d="M115 686q0 109 8 178.5t31.5 135t67.5 103.5t117 61.5t179 27.5v100q0 10 1 18.5t3 13.5t3 9t7.5 7t7.5 4.5t10 2.5t11 1h14h17q47 0 47 -56v-100q35 -2 115 -10q94 -8 108 -33q4 -10 4 -33v-4q0 -33 -1 -49t-7 -47t-22.5 -45.5t-42.5 -14.5q-29 0 -83 8l-71 9v-570 l71 10q54 7 82.5 7t49.5 -19q10 -10 17 -60t7 -77q0 -12 -1 -21.5t-6 -15.5t-7 -11t-11.5 -9t-13.5 -6t-17 -4t-16 -2t-19.5 -2.5t-20.5 -2.5q-2 0 -115 -6v-104q0 -29 -8 -42t-18.5 -15.5t-39.5 -2.5h-12q-20 0 -29.5 8.5t-11.5 17.5t-2 34v104q-131 6 -213 37t-123 98.5 t-54 149.5t-13 217zM381 686q0 -106 8 -190q6 -66 31.5 -81.5t97.5 -17.5v582q-66 0 -86 -16.5t-35 -77.5q-16 -72 -16 -199z" />
<glyph unicode="&#xa3;" horiz-adv-x="1243" d="M115 131q0 43 26.5 69.5t51 34t75.5 17.5q29 139 29 270q0 47 -2 70q-94 0 -112.5 20.5t-18.5 114.5q0 39 19.5 57.5t39 20.5t62.5 2q-16 147 -17 219q0 154 86 258q92 111 324 111q160 0 313 -25q92 -14 82 -86q4 -6 4 -20q0 -35 -14 -56q-4 -27 -9 -42t-19.5 -26.5 t-39.5 -11.5q-18 0 -57 9l-49 10q-84 16 -195 16q-96 0 -124.5 -38t-28.5 -140q0 -74 14 -178h229q61 0 78 -23.5t17 -87.5q0 -59 -18.5 -81.5t-76.5 -22.5h-219q0 -72 -21.5 -188.5t-47.5 -180.5q164 -41 206 -41q84 0 172 33q8 4 40 18.5t59.5 25.5t36.5 11q20 0 33.5 -8 t18.5 -26.5t6 -29.5t0 -38t-1 -31q0 -47 -15.5 -68.5t-58.5 -45.5q-119 -66 -258 -66q-72 0 -193.5 31.5t-179.5 31.5q-33 0 -92 -17t-90 -17q-37 0 -43 28l-20 95q-2 8 -2 22z" />
<glyph unicode="&#xa4;" horiz-adv-x="1271" d="M127 313l139 138q-68 109 -67.5 233.5t67.5 233.5l-139 139l131 137l141 -141q104 68 235.5 67.5t235.5 -67.5l142 141l131 -137l-139 -139q68 -109 67.5 -234t-67.5 -233l139 -138l-131 -137l-142 141q-104 -68 -235 -67.5t-236 67.5l-141 -141zM387 686 q0 -102 72.5 -175t175 -73t175.5 73t73 175q0 100 -74 173t-174 73q-102 0 -175 -72t-73 -174z" />
<glyph unicode="&#xa5;" horiz-adv-x="1259" d="M68 1303q0 33 23.5 49t55.5 16h111q70 0 102 -59l277 -502l283 504q12 23 27.5 36t38 17t36.5 5t46 0t44 -1q78 0 78 -68q0 -27 -29 -79l-336 -594h154q49 0 68.5 -26t19.5 -77q0 -47 -19.5 -67.5t-68.5 -20.5h-207v-108h207q49 0 68.5 -26t19.5 -77q0 -47 -19.5 -67.5 t-68.5 -20.5h-207v-47q0 -27 -8 -45t-18.5 -27.5t-33 -13.5t-33.5 -5t-42 0t-41 1q-47 0 -69.5 16.5t-25.5 37t-3 69.5v14h-207q-57 0 -72.5 24.5t-15.5 86.5q0 39 24.5 59.5t63.5 20.5h207v108h-207q-57 0 -72.5 24.5t-15.5 86.5q0 39 24.5 59.5t63.5 20.5h143l-346 616 q-20 37 -20 60z" />
<glyph unicode="&#xa6;" horiz-adv-x="399" d="M104 -68v662h191v-662h-191zM104 770v662h191v-662h-191z" />
<glyph unicode="&#xa7;" horiz-adv-x="1206" d="M125 -327.5q0 14.5 76 165.5q12 33 28 33q6 0 47 -21q139 -78 263 -77q70 0 130 13t112.5 56t52.5 113q0 68 -73 116t-176.5 85t-207 83t-176 137t-72.5 220q0 125 82 219q-82 88 -82 215q0 129 80 218t189.5 124t236.5 35q78 0 202 -18.5t187 -40.5q18 -4 18 -17 q0 -14 -29.5 -96t-39.5 -96q-8 -12 -21 -13q-14 0 -57 15q-156 49 -258 49q-94 0 -168 -35t-74 -119q0 -49 52.5 -88t130 -64.5t168 -64.5t168 -84t130 -129t52.5 -192q0 -129 -68 -234q68 -82 68 -203q0 -113 -47.5 -197.5t-127 -131.5t-174 -69.5t-200.5 -22.5 q-211 0 -381 82q-41 20 -41 34.5zM395 602q0 -96 187 -178q207 -90 239 -107q12 35 13 70q0 43 -24 82t-50.5 64.5t-81.5 54t-85 40.5l-93 35q-63 24 -74 27q-31 -37 -31 -88z" />
<glyph unicode="&#xa8;" horiz-adv-x="636" d="M0 1198v137q0 25 17.5 44.5t41.5 19.5h134q25 0 42 -19.5t17 -44.5v-137q0 -25 -17.5 -43t-41.5 -18h-134q-25 0 -42 18t-17 43zM385 1198v137q0 25 17.5 44.5t41.5 19.5h134q25 0 42 -19.5t17 -44.5v-137q0 -25 -17.5 -43t-41.5 -18h-134q-25 0 -42 18t-17 43z" />
<glyph unicode="&#xa9;" horiz-adv-x="1964" d="M123 489.5q0 215.5 47 382t172 302.5q211 229 625 229q874 0 874 -903q0 -455 -213 -689.5t-663 -234.5q-410 0 -623 229q-125 135 -172 302t-47 382.5zM385 489.5q0 -301.5 115 -507.5q109 -197 489 -197q367 0 475 199q119 225 119 497q0 291 -119 514 q-104 199 -477 199q-379 0 -487 -197q-115 -206 -115 -507.5zM610 461q0 260 88 367.5t338 107.5q82 0 164 -6q27 -2 40 -5t27.5 -16.5t14.5 -36.5v-43q0 -41 -12.5 -58t-50.5 -17q-27 0 -78 3t-78 3q-113 0 -152 -17q-37 -14 -56 -60t-21.5 -75.5t-4.5 -89.5q0 -14 -1 -45 t-1 -45q0 -223 127 -246q23 -4 109 -4q27 0 78 3t78 3q18 0 30.5 -6t19.5 -11t10 -21.5t3 -22.5v-30v-27q0 -23 -14.5 -36.5t-27.5 -16.5t-40 -5q-82 -6 -164 -6q-244 0 -335 104.5t-91 354.5z" />
<glyph unicode="&#xaa;" horiz-adv-x="780" d="M90 944q0 61 24.5 104.5t57.5 64t89 31.5t97 13t103 2h35q0 31 -3.5 49.5t-18.5 35t-44 16.5q-94 0 -213 -29q-12 -4 -18 -4q-10 0 -18.5 2t-13.5 5t-8 9t-5 9t-3 13.5t-1 13.5v15v15q0 45 45 57q92 25 227 25q145 0 205 -60q27 -27 39 -64.5t13 -61t1 -77.5v-299 q0 -59 -59 -59h-76q-35 0 -45 41q-111 -57 -205 -57q-205 0 -205 190zM268 956q0 -74 45 -73q84 0 183 59v90q-10 0 -31 1t-31 1h-21h-26q-8 0 -23.5 -1t-24.5 -3l-23 -5q-13 -3 -20 -9t-14.5 -14.5t-10.5 -20t-3 -25.5z" />
<glyph unicode="&#xab;" horiz-adv-x="1075" d="M111 477q0 23 204 324q20 29 41 36t62 7q135 0 135 -51q0 -16 -10 -33l-170 -283l170 -282q10 -16 10 -33q0 -51 -135 -51q-41 0 -61.5 7t-41.5 36q-204 286 -204 323zM541 477q0 23 204 324q20 29 41 36t62 7q137 0 137 -51q0 -12 -39 -79l-90 -149q-51 -82 -53 -88 q2 -6 53 -88l90 -148q39 -67 39 -79q0 -51 -137 -51q-41 0 -61.5 7t-41.5 36q-204 286 -204 323z" />
<glyph unicode="&#xac;" horiz-adv-x="1028" d="M96 616v187h834v-539h-187v352h-647z" />
<glyph unicode="&#xad;" horiz-adv-x="952" d="M98 508v94q0 55 90 55h572q94 0 94 -55v-80q0 -49 -20.5 -62.5t-73.5 -13.5h-572q-29 0 -45 3.5t-30.5 17.5t-14.5 41z" />
<glyph unicode="&#xae;" horiz-adv-x="1964" d="M123 489.5q0 215.5 47 382t172 302.5q211 229 625 229q874 0 874 -903q0 -455 -213 -689.5t-663 -234.5q-410 0 -623 229q-125 135 -172 302t-47 382.5zM385 489.5q0 -301.5 115 -507.5q109 -197 491 -197q365 0 473 199q119 225 119 497q0 291 -119 514 q-104 199 -477 199q-379 0 -487 -197q-115 -206 -115 -507.5zM655 102v777q0 66 78 65h266h28h29q5 0 25.5 -1t27.5 -2t24.5 -3t25.5 -5l23 -8q14 -5 24.5 -11.5t22.5 -15.5t22 -19q78 -78 78 -258q0 -217 -182 -254l207 -234q23 -27 22 -53q0 -45 -59 -45h-86q-66 0 -96 39 l-238 284h-31v-256q0 -20 -7 -33.5t-14 -20.5t-24.5 -10t-26 -4t-32 0t-29.5 1q-41 0 -59.5 14t-18.5 53zM866 530h152q63 0 81.5 18.5t18.5 82.5q0 115 -33 131q-16 8 -96 8h-41h-15h-17q-5 0 -14 -1t-14 -3t-11.5 -6t-8.5 -11.5t-2 -17.5v-201z" />
<glyph unicode="&#xaf;" horiz-adv-x="595" d="M0 1223v30q0 37 23.5 58.5t60.5 21.5h426q49 0 67.5 -21.5t18.5 -70.5q0 -59 -15.5 -81.5t-70.5 -22.5h-426q-47 0 -65.5 19.5t-18.5 66.5z" />
<glyph unicode="&#xb0;" horiz-adv-x="819" d="M147 1178q0 113 75 192.5t188 79.5q111 0 186.5 -81t75.5 -191q0 -113 -76 -193t-186.5 -80t-186.5 81t-76 192zM293 1177.5q0 -49.5 33.5 -86t83.5 -36.5q51 0 85.5 35.5t34.5 87t-34.5 87t-85.5 35.5q-49 0 -83 -36.5t-34 -86z" />
<glyph unicode="&#xb1;" horiz-adv-x="1124" d="M111 70h903v-176h-903v176zM111 571v179h358v348h186v-348h359v-179h-359v-348h-186v348h-358z" />
<glyph unicode="&#xb2;" horiz-adv-x="704" d="M96 768q0 41 70 106q6 6 50 47.5l70 67.5l61 67q36 40 54.5 73.5t18.5 58.5q0 31 -10.5 40t-42.5 9q-61 0 -105 -8q-51 -10 -59 -10q-68 0 -68 104q0 47 66 59q82 12 166 13q244 0 243 -191q0 -76 -45 -152.5t-86 -116.5t-123 -110q123 4 187 4q45 0 58 -23.5t13 -72.5 q0 -63 -71 -63h-379q-33 0 -48.5 15t-17.5 30.5t-2 52.5z" />
<glyph unicode="&#xb3;" horiz-adv-x="704" d="M94 745q0 37 20.5 73t53.5 36q6 0 22 -4q111 -33 168 -33q43 0 56.5 15.5t13.5 60.5q0 31 -10 42t-43 15q-27 4 -123 4q-33 0 -50.5 4.5t-25.5 19.5t-9 27.5t-1 49.5q0 20 8 32.5t26.5 16.5t29 6t38 1t29.5 -1q39 0 50 1t28.5 7t21.5 22.5t4 47.5q0 37 -14 45t-57 8 q-31 0 -97 -8q-37 -6 -40 -6q-16 0 -26.5 5t-17 16.5t-8.5 20.5t-4 26.5t-4 23.5t-2 16.5t5 19.5t15.5 15t20.5 10t26.5 7.5t29 5.5t29.5 2h27h24h18q260 0 260 -199q0 -86 -45 -137q74 -49 73 -164q0 -238 -262 -238q-76 0 -167 20.5t-91 67.5z" />
<glyph unicode="&#xb4;" horiz-adv-x="475" d="M0 1196q0 20 97.5 151.5t123.5 151.5q18 12 92 12h19h28q10 0 30 -1t32 -4t25.5 -8t20.5 -13t7 -21q0 -16 -22 -43q-186 -236 -234 -254q-31 -12 -57 -12h-78q-84 0 -84 41z" />
<glyph unicode="&#xb5;" d="M135 -332v1223q0 23 3 39t14 25l17 16q7 6 26 8l27 3q9 1 34 0t35 -1q59 0 82.5 -17.5t23.5 -72.5v-676q37 -27 78 -27q47 0 95 18.5t76 36t81 58.5v590q0 23 3 39t13 25l18 16q7 6 25 8l28 3q9 1 33.5 0t35.5 -1q59 0 82.5 -17.5t23.5 -72.5v-803q0 -47 -20.5 -67.5 t-67.5 -20.5h-92q-55 0 -70 68q-78 -53 -134 -75t-142 -22q-39 0 -66 9v-316q0 -49 -17.5 -70.5t-66.5 -21.5h-88q-51 0 -70.5 22.5t-19.5 73.5z" />
<glyph unicode="&#xb6;" horiz-adv-x="1558" d="M127 1081q0 123 33 242t104 188q20 20 43 36t49 27l47 19q20 8 54.5 13.5l52.5 8.5t57 4t53 1h57h54h604q59 0 78 -23.5t19 -85.5q0 -23 -3.5 -40t-7.5 -28t-15 -19.5t-17.5 -12.5t-24.5 -5t-27 -1h-32h-35v-1591q6 0 29.5 1t32.5 0l29 -3q19 -2 28.5 -7.5t20.5 -14.5 t16.5 -23.5t5.5 -34.5v-27q0 -59 -19.5 -82.5t-77.5 -23.5h-280v1835h-189v-1835h-282q-29 0 -47.5 8t-27.5 14t-13 31.5t-4 33.5v46q0 14 3 26.5t10 20.5t13 14t20 10l20 7q7 2 23.5 3t23.5 1h25h21v786q-201 0 -321 68q-96 55 -149.5 173.5t-53.5 239.5z" />
<glyph unicode="&#xb7;" horiz-adv-x="593" d="M109 684q0 18 14 33l141 141q14 14 31 14q18 0 33 -14l141 -141q14 -14 14 -33q0 -20 -14 -35l-141 -141q-14 -14 -31 -14q-18 0 -33 14l-141 141q-14 15 -14 35z" />
<glyph unicode="&#xb8;" horiz-adv-x="385" d="M0 -258q0 14 8 22q6 16 37 52.5t74 80.5l51 52q43 51 74 51h102q39 0 39 -43q0 -16 -16 -39l-129 -170q-41 -53 -95 -53h-79q-23 0 -35.5 3t-21.5 13.5t-9 30.5z" />
<glyph unicode="&#xb9;" horiz-adv-x="704" d="M147 1286q0 35 50 55q121 53 182 54q29 0 48 -18.5t19 -47.5v-579q0 -66 -67 -66h-37q-82 0 -82 66v460q-49 -16 -51 -16q-62 0 -62 92z" />
<glyph unicode="&#xba;" horiz-adv-x="831" d="M90 1067q0 319 324 319q326 0 325 -319q0 -315 -325 -315q-324 0 -324 315zM281 1067q0 -102 22 -139q20 -37 111 -37q92 0 112 37q25 41 25 139q0 100 -27 143q-12 18 -33.5 26.5t-31.5 8.5h-45h-14h-14h-13q-10 0 -15 -1l-12 -3q-8 -2 -13 -4t-11.5 -6t-10.5 -9t-8 -12 q-22 -37 -22 -143z" />
<glyph unicode="&#xbb;" horiz-adv-x="1075" d="M88 162q0 12 39 79l90 148q51 82 53 88q-2 6 -53 88l-90 149q-39 67 -39 79q0 51 137 51q41 0 61.5 -7.5t41.5 -35.5q205 -301 204 -324q0 -37 -204 -323q-20 -29 -41 -36t-62 -7q-137 0 -137 51zM520 162q0 16 10 33l170 282l-170 283q-10 16 -10 33q0 51 135 51 q41 0 61.5 -7.5t41.5 -35.5q205 -301 205 -324q0 -37 -205 -323q-20 -29 -41 -36t-62 -7q-135 0 -135 51z" />
<glyph unicode="&#xbc;" horiz-adv-x="1736" d="M147 1286q0 35 50 55q121 53 182 54q29 0 48 -18.5t19 -47.5v-579q0 -66 -67 -66h-37q-82 0 -82 66v460q-49 -16 -51 -16q-62 0 -62 92zM383 12q0 16 6 29l748 1376q20 35 55 35q14 0 31.5 -8t41 -24.5t29.5 -18.5q20 -12 21 -43q0 -12 -8 -29l-746 -1376 q-18 -35 -57 -35q-16 0 -23 4l-80 47q-18 10 -18 43zM1049 272q0 23 18 45l291 363q27 31 55 31h60q31 0 48 -18.5t17 -47.5v-332q47 0 68.5 -13t21.5 -56q0 -51 -19.5 -66.5t-70.5 -15.5v-96q0 -66 -65 -66h-23q-80 0 -80 66v96h-246q-14 0 -24 4t-16.5 8t-11.5 15.5 t-7 16.5t-6 21.5t-6 20.5q-4 16 -4 24zM1239 305q23 2 66 2t65 2v158z" />
<glyph unicode="&#xbd;" horiz-adv-x="1736" d="M147 1286q0 35 50 55q121 53 182 54q29 0 48 -18.5t19 -47.5v-579q0 -66 -67 -66h-37q-82 0 -82 66v460q-49 -16 -51 -16q-62 0 -62 92zM383 12q0 16 6 29l748 1376q20 35 55 35q14 0 31.5 -8t41 -24.5t29.5 -18.5q20 -12 21 -43q0 -12 -8 -29l-746 -1376 q-18 -35 -57 -35q-16 0 -23 4l-80 47q-18 10 -18 43zM1114 98q0 41 70 107q6 6 50 47l70 67l61 67q36 40 54.5 74t18.5 58q0 31 -10.5 40t-43.5 9q-57 0 -104 -8q-51 -10 -59 -10q-68 0 -68 104q0 47 66 60q84 12 165 12q244 0 244 -190q0 -76 -45 -153t-86 -117t-123 -109 q123 4 187 4q45 0 58 -23.5t13 -73.5q0 -63 -71 -63h-379q-33 0 -48.5 15.5t-17.5 30.5t-2 52z" />
<glyph unicode="&#xbe;" horiz-adv-x="1736" d="M94 745q0 37 20.5 73t53.5 36q6 0 22 -4q111 -33 168 -33q43 0 56.5 15.5t13.5 60.5q0 31 -10 42t-43 15q-27 4 -123 4q-33 0 -50.5 4.5t-25.5 19.5t-9 27.5t-1 49.5q0 20 8 32.5t26.5 16.5t29 6t38 1t29.5 -1q39 0 50 1t28.5 7t21.5 22.5t4 47.5q0 37 -14 45t-57 8 q-31 0 -97 -8q-37 -6 -40 -6q-16 0 -26.5 5t-17 16.5t-8.5 20.5t-4 26.5t-4 23.5t-2 16.5t5 19.5t15.5 15t20.5 10t26.5 7.5t29 5.5t29.5 2h27h24h18q260 0 260 -199q0 -86 -45 -137q74 -49 73 -164q0 -238 -262 -238q-76 0 -167 20.5t-91 67.5zM424 12q0 16 6 29l748 1376 q20 35 55 35q14 0 31.5 -8t41 -24.5t29.5 -18.5q20 -12 21 -43q0 -12 -8 -29l-746 -1376q-18 -35 -57 -35q-16 0 -23 4l-80 47q-18 10 -18 43zM1049 272q0 23 18 45l291 363q27 31 55 31h60q31 0 48 -18.5t17 -47.5v-332q47 0 68.5 -13t21.5 -56q0 -51 -19.5 -66.5 t-70.5 -15.5v-96q0 -66 -65 -66h-23q-80 0 -80 66v96h-246q-14 0 -24 4t-16.5 8t-11.5 15.5t-7 16.5t-6 21.5t-6 20.5q-4 16 -4 24zM1239 305q23 2 66 2t65 2v158z" />
<glyph unicode="&#xbf;" horiz-adv-x="1030" d="M111 289q0 74 32.5 141.5t68.5 105t106.5 101t99.5 92.5q39 41 52 68.5t13 81.5q0 37 16.5 47t57.5 10h74q29 0 46 -5t23.5 -22.5t8.5 -26t1 -41t-1 -40.5q0 -57 -34 -112.5t-82 -98.5l-97 -86q-49 -43 -83 -95.5t-34 -107.5q0 -70 33.5 -95.5t105.5 -25.5q88 0 256 33 q43 6 45 6q43 0 49 -35q0 -4 11.5 -60t11.5 -79q0 -49 -72 -61q-154 -25 -311 -25q-188 0 -292.5 75t-104.5 255zM391 1223q0 18 15 32l141 142q14 14 31 14q18 0 32 -14l142 -142q14 -14 14 -32q0 -20 -14 -35l-142 -141q-14 -14 -30 -15q-18 0 -33 15l-141 141 q-15 15 -15 35z" />
<glyph unicode="&#xc0;" horiz-adv-x="1286" d="M35 49q0 20 16 64l420 1171q10 29 23.5 46.5t22.5 27.5t31.5 14t33 5t45.5 0t49 -1q51 0 76.5 -19.5t44.5 -70.5l442 -1194q8 -20 8 -31q0 -61 -73 -61h-113q-72 0 -96 72l-91 256q-240 -6 -479 0l-82 -242q-10 -33 -22 -51.5t-35 -26.5t-34 -10t-51 0t-56 2 q-80 0 -80 49zM383 1829q0 12 6 20.5t19.5 13.5t25.5 8t31.5 4t30.5 1h27h20q76 0 94 -12q25 -16 123 -149.5t98 -153.5q0 -41 -80 -41h-84q-20 0 -51 10q-45 18 -141 143q-4 4 -28 31l-41 46q-17 19 -33.5 43t-16.5 36zM469 539h328l-164 483z" />
<glyph unicode="&#xc1;" horiz-adv-x="1286" d="M35 49q0 20 16 64l420 1171q10 29 23.5 46.5t22.5 27.5t31.5 14t33 5t45.5 0t49 -1q51 0 76.5 -19.5t44.5 -70.5l442 -1194q8 -20 8 -31q0 -61 -73 -61h-113q-72 0 -96 72l-91 256q-240 -6 -479 0l-82 -242q-10 -33 -22 -51.5t-35 -26.5t-34 -10t-51 0t-56 2 q-80 0 -80 49zM453 1559q0 23 96 151.5t125 151.5q14 12 92 12h18h29q10 0 29.5 -1t32 -4t25.5 -8.5t20.5 -13.5t7.5 -20q0 -16 -23 -43q-8 -8 -37 -43l-52 -65q-24 -30 -53.5 -62.5t-54 -55t-36.5 -28.5q-31 -12 -58 -12h-67q-94 0 -94 41zM469 539h328l-164 483z" />
<glyph unicode="&#xc2;" horiz-adv-x="1286" d="M35 49q0 20 16 64l420 1171q10 29 23.5 46.5t22.5 27.5t31.5 14t33 5t45.5 0t49 -1q51 0 76.5 -19.5t44.5 -70.5l442 -1194q8 -20 8 -31q0 -61 -73 -61h-113q-72 0 -96 72l-91 256q-240 -6 -479 0l-82 -242q-10 -33 -22 -51.5t-35 -26.5t-34 -10t-51 0t-56 2 q-80 0 -80 49zM319 1566.5q0 18.5 15 37.5l145 200q45 63 65.5 74.5t96.5 11.5t96.5 -11t65.5 -75l145 -200q14 -18 15 -37q0 -25 -49.5 -35t-88.5 -10q-33 0 -47 6q-10 4 -22.5 15t-19.5 23l-17 27l-14 23q-23 35 -64 86q-41 -51 -63 -86q-51 -80 -74 -88q-14 -6 -47 -6 q-18 0 -46 3t-60 13t-32 28.5zM469 539h328l-164 483z" />
<glyph unicode="&#xc3;" horiz-adv-x="1286" d="M35 49q0 20 16 64l420 1171q10 29 23.5 46.5t22.5 27.5t31.5 14t33 5t45.5 0t49 -1q51 0 76.5 -19.5t44.5 -70.5l442 -1194q8 -20 8 -31q0 -61 -73 -61h-113q-72 0 -96 72l-91 256q-240 -6 -479 0l-82 -242q-10 -33 -22 -51.5t-35 -26.5t-34 -10t-51 0t-56 2 q-80 0 -80 49zM293 1579q0 37 29 84q82 150 198 149q51 0 139.5 -30.5t118.5 -30.5q16 0 29.5 9t27 24.5t21.5 21.5q12 8 94 9q57 0 58 -48q0 -18 -21 -63q-74 -152 -203 -152q-51 0 -134 32t-118 32q-23 0 -55.5 -36t-81.5 -36h-67q-35 0 -35 35zM469 539h328l-164 483z " />
<glyph unicode="&#xc4;" horiz-adv-x="1286" d="M35 49q0 20 16 64l420 1171q10 29 23.5 46.5t22.5 27.5t31.5 14t33 5t45.5 0t49 -1q51 0 76.5 -19.5t44.5 -70.5l442 -1194q8 -20 8 -31q0 -61 -73 -61h-113q-72 0 -96 72l-91 256q-240 -6 -479 0l-82 -242q-10 -33 -22 -51.5t-35 -26.5t-34 -10t-51 0t-56 2 q-80 0 -80 49zM328 1610v137q0 25 17 44t42 19h133q25 0 42.5 -19t17.5 -44v-137q0 -25 -17.5 -43.5t-42.5 -18.5h-133q-25 0 -42 18.5t-17 43.5zM469 539h328l-164 483zM713 1610v137q0 25 17.5 44t41.5 19h133q25 0 42.5 -19t17.5 -44v-137q0 -25 -17.5 -43.5t-42.5 -18.5 h-133q-25 0 -42 18.5t-17 43.5z" />
<glyph unicode="&#xc5;" horiz-adv-x="1286" d="M35 49q0 20 16 64l420 1171q10 29 23.5 46.5t22.5 27.5t31.5 14t33 5t45.5 0t49 -1q51 0 76.5 -19.5t44.5 -70.5l442 -1194q8 -20 8 -31q0 -61 -73 -61h-113q-72 0 -96 72l-91 256q-240 -6 -479 0l-82 -242q-10 -33 -22 -51.5t-35 -26.5t-34 -10t-51 0t-56 2 q-80 0 -80 49zM459 1757q0 78 52 133.5t130 55.5q76 0 129 -56.5t53 -132.5q0 -78 -52 -133t-130 -55q-76 0 -129 56t-53 132zM469 539h328l-164 483zM563 1757q0 -35 22.5 -57.5t55.5 -22.5t56.5 24.5t23.5 55.5q0 33 -23.5 57.5t-56.5 24.5t-55.5 -23.5t-22.5 -58.5z" />
<glyph unicode="&#xc6;" horiz-adv-x="1863" d="M37 68q0 23 22 67l494 1012q4 6 18.5 36.5l18.5 38.5l18 32q14 26 21.5 33t23 25.5t28.5 24.5t30.5 15.5t38 12.5t45.5 3h862q18 0 32 -4l22 -7q9 -3 15.5 -14.5t9.5 -15.5t5 -22.5t2 -22.5v-28v-25q0 -51 -18.5 -73.5t-67.5 -22.5q-231 0 -461 6v-320q205 6 414 6 q27 0 44 -7t25.5 -15t13.5 -28.5t5 -33.5v-41q0 -51 -19.5 -73.5t-68.5 -22.5q-139 0 -414 8v-383q229 6 461 7q25 0 42 -7.5t26.5 -14.5t13.5 -27.5t5 -28.5t0 -38t-1 -36q0 -84 -86 -84h-633q-53 0 -76.5 19.5t-23.5 70.5v365h-426l-179 -373q-12 -25 -25 -41t-22.5 -25.5 t-29 -13.5t-30.5 -4t-41 1t-46 1q-35 0 -61.5 16.5t-26.5 51.5zM602 668h322v471h-62q-23 0 -31 -7.5t-20 -31.5z" />
<glyph unicode="&#xc7;" horiz-adv-x="1157" d="M129 668q0 86 3 150.5t18.5 152.5t43 151.5t80 123t123.5 89.5q113 47 322 47q104 0 233 -10q27 -2 40.5 -4t31.5 -9t26.5 -21.5t8.5 -37.5v-67q0 -53 -14.5 -75.5t-63.5 -22.5q-37 0 -110.5 5t-110.5 5q-158 0 -223 -29q-29 -12 -51.5 -34.5t-35.5 -61.5l-23 -66 q-9 -27 -12 -80t-4 -72.5t0 -76.5t1 -59q0 -207 24 -285q41 -133 166 -158q41 -8 158 -8q37 0 110.5 5t110.5 5q49 0 63.5 -22.5t14.5 -75.5v-70q0 -23 -8.5 -37t-29 -20t-30.5 -8t-39 -4q-115 -8 -172 -11q-4 -16 -12 -28l-133 -178q-16 -20 -30.5 -32.5t-35 -17t-31 -5.5 t-41 0t-42.5 1q-23 0 -36 2t-22.5 13.5t-9.5 31.5q0 29 27 56l155 166q-72 10 -125 26q-84 27 -144 80t-93 113.5t-51.5 146.5t-22.5 154t-4 162z" />
<glyph unicode="&#xc8;" horiz-adv-x="1101" d="M154 90v1194q0 49 24.5 66.5t75.5 17.5h633q16 0 28.5 -2t21.5 -7l16 -9q7 -4 12 -15l6 -15q2 -5 3 -20.5t1 -21.5v-25v-24q0 -51 -19.5 -73.5t-68.5 -22.5q-227 0 -459 6v-320q412 6 414 6q27 0 44 -7t25.5 -15t13.5 -28.5t5 -33.5v-41q0 -51 -19.5 -73.5t-68.5 -22.5 q-2 0 -414 6v-381q231 6 459 7q20 0 36.5 -4.5t25.5 -14.5l16 -17q6 -7 8 -25.5t3 -27t0 -33t-1 -30.5q0 -84 -88 -84h-633q-53 0 -76.5 19.5t-23.5 70.5zM266 1829q0 12 6.5 20.5t19.5 13.5t25.5 8t32 4t29.5 1h28h19q76 0 94 -12q25 -16 123 -150.5t98 -152.5 q0 -41 -79 -41h-84q-29 0 -52 10q-14 6 -29.5 17.5t-33 29.5t-28.5 31.5l-28.5 36t-21.5 28.5q-4 4 -28 31l-41 46q-17 19 -33.5 43t-16.5 36z" />
<glyph unicode="&#xc9;" horiz-adv-x="1101" d="M154 90v1194q0 49 24.5 66.5t75.5 17.5h633q16 0 28.5 -2t21.5 -7l16 -9q7 -4 12 -15l6 -15q2 -5 3 -20.5t1 -21.5v-25v-24q0 -51 -19.5 -73.5t-68.5 -22.5q-227 0 -459 6v-320q412 6 414 6q27 0 44 -7t25.5 -15t13.5 -28.5t5 -33.5v-41q0 -51 -19.5 -73.5t-68.5 -22.5 q-2 0 -414 6v-381q231 6 459 7q20 0 36.5 -4.5t25.5 -14.5l16 -17q6 -7 8 -25.5t3 -27t0 -33t-1 -30.5q0 -84 -88 -84h-633q-53 0 -76.5 19.5t-23.5 70.5zM389 1559q0 18 98.5 151t122.5 152q18 12 92 12h19h29q10 0 29.5 -1t31.5 -4t25.5 -8.5t20.5 -13.5t7 -20 q0 -16 -22 -43q-6 -6 -64.5 -78t-103.5 -120t-66 -56q-31 -12 -57 -12h-68q-94 0 -94 41z" />
<glyph unicode="&#xca;" horiz-adv-x="1101" d="M154 90v1194q0 49 24.5 66.5t75.5 17.5h633q16 0 28.5 -2t21.5 -7l16 -9q7 -4 12 -15l6 -15q2 -5 3 -20.5t1 -21.5v-25v-24q0 -51 -19.5 -73.5t-68.5 -22.5q-227 0 -459 6v-320q412 6 414 6q27 0 44 -7t25.5 -15t13.5 -28.5t5 -33.5v-41q0 -51 -19.5 -73.5t-68.5 -22.5 q-2 0 -414 6v-381q231 6 459 7q20 0 36.5 -4.5t25.5 -14.5l16 -17q6 -7 8 -25.5t3 -27t0 -33t-1 -30.5q0 -84 -88 -84h-633q-53 0 -76.5 19.5t-23.5 70.5zM256 1566.5q0 18.5 14 37.5l146 200q45 63 65.5 74.5t96 11.5t96 -11t65.5 -75l146 -200q14 -18 14 -37 q0 -25 -49 -35t-88 -10q-33 0 -47 6q-20 6 -74 88q-23 35 -63 86q-41 -51 -64 -86l-14 -23l-18 -27q-7 -11 -19 -22.5t-23 -15.5q-14 -6 -47 -6q-18 0 -46 3t-59.5 13t-31.5 28.5z" />
<glyph unicode="&#xcb;" horiz-adv-x="1101" d="M154 90v1194q0 49 24.5 66.5t75.5 17.5h633q16 0 28.5 -2t21.5 -7l16 -9q7 -4 12 -15l6 -15q2 -5 3 -20.5t1 -21.5v-25v-24q0 -51 -19.5 -73.5t-68.5 -22.5q-227 0 -459 6v-320q412 6 414 6q27 0 44 -7t25.5 -15t13.5 -28.5t5 -33.5v-41q0 -51 -19.5 -73.5t-68.5 -22.5 q-2 0 -414 6v-381q231 6 459 7q20 0 36.5 -4.5t25.5 -14.5l16 -17q6 -7 8 -25.5t3 -27t0 -33t-1 -30.5q0 -84 -88 -84h-633q-53 0 -76.5 19.5t-23.5 70.5zM256 1610v137q0 25 17.5 44t41.5 19h134q25 0 42 -19t17 -44v-137q0 -25 -17.5 -43.5t-41.5 -18.5h-134 q-25 0 -42 18.5t-17 43.5zM641 1610v137q0 25 17.5 44t41.5 19h134q25 0 42 -19t17 -44v-137q0 -25 -17.5 -43.5t-41.5 -18.5h-134q-25 0 -42 18.5t-17 43.5z" />
<glyph unicode="&#xcc;" horiz-adv-x="612" d="M68 1829q0 12 6 20.5t19 13.5t25.5 8t32 4t29.5 1h28h19q76 0 95 -12q23 -14 123 -150.5t100 -152.5q0 -41 -80 -41h-84q-29 0 -51 10q-14 6 -29.5 17.5t-33 29.5t-29 31.5t-28.5 36t-22 28.5q-4 4 -27 31l-42 47q-18 20 -34.5 44t-16.5 34zM195 90v1194q0 49 23.5 66.5 t74.5 17.5h88q88 0 88 -84v-1194h2q0 -90 -88 -90h-88q-53 0 -76.5 18.5t-23.5 71.5z" />
<glyph unicode="&#xcd;" horiz-adv-x="612" d="M68 1559q0 16 100 151t121 152q18 12 92 12h18h29q10 0 30.5 -1t33 -4t25.5 -8.5t20.5 -13.5t7.5 -20q0 -16 -23 -43q-8 -8 -65.5 -79t-101.5 -119t-66 -56q-31 -12 -58 -12h-67q-96 0 -96 41zM174 90v1194q0 49 23.5 66.5t74.5 17.5h88q88 0 89 -84v-1194h2 q0 -90 -89 -90h-88q-53 0 -76.5 19.5t-23.5 70.5z" />
<glyph unicode="&#xce;" horiz-adv-x="612" d="M-16 1566.5q0 18.5 14 37.5l145 200q45 63 65.5 74.5t96.5 11.5t96.5 -11t65.5 -75l145 -200q16 -20 17 -37q0 -25 -49.5 -35t-87.5 -10q-33 0 -48 6q-27 10 -73 88q-23 35 -64 86q-41 -51 -63 -86q-53 -80 -74 -88q-14 -6 -47 -6q-20 0 -48 3t-59.5 13t-31.5 28.5z M158 90v1194q0 49 23.5 66.5t74.5 17.5h88q88 0 88 -84v-1194h2q0 -90 -88 -90h-88q-53 0 -76.5 19.5t-23.5 70.5z" />
<glyph unicode="&#xcf;" horiz-adv-x="612" d="M-12 1610v137q0 25 17.5 44t41.5 19h133q27 0 43.5 -18t16.5 -45v-137q0 -25 -17.5 -43.5t-42.5 -18.5h-133q-25 0 -42 18.5t-17 43.5zM152 90v1194q0 84 98 84h88q88 0 88 -84v-1194q0 -90 -88 -90h-88q-53 0 -75.5 19.5t-22.5 70.5zM373 1610v137q0 25 17.5 44t41.5 19 h133q27 0 43.5 -18t16.5 -45v-137q0 -25 -17.5 -43.5t-42.5 -18.5h-133q-25 0 -42 18.5t-17 43.5z" />
<glyph unicode="&#xd0;" horiz-adv-x="1382" d="M80 752q0 29 11 46t35 24t39 8t46 1v453q0 49 23.5 66.5t74.5 17.5h359q213 0 321 -43q74 -29 126 -86t80 -118.5t43 -149.5t18.5 -151.5t3.5 -149.5q0 -178 -25 -295t-88.5 -206t-181 -129t-297.5 -40h-359q-53 0 -75.5 19.5t-22.5 70.5v520q-96 0 -113.5 22t-17.5 120z M485 244q72 -6 142 -6q86 0 147 10q98 18 140 75.5t55 163.5q8 59 8 179v18v45v53q0 14 -1 52t-5 56.5t-10.5 51.5t-15.5 52.5t-22.5 43t-32 39t-40.5 25.5q-61 29 -223 28q-70 0 -142 -6v-293h179q33 0 52 -6t27.5 -24.5t10.5 -34.5t2 -51q0 -59 -17.5 -82t-74.5 -23h-179 v-366z" />
<glyph unicode="&#xd1;" horiz-adv-x="1417" d="M147 90v1194q0 20 4.5 35.5t15.5 25t18.5 14.5t26.5 7t27.5 3t32 0t29.5 -1q41 0 61.5 -7t43.5 -36l61 -86l141 -203l379 -549v797q0 25 9.5 43.5t21.5 26.5t34.5 12t37 4t43 -1t38.5 -1q86 0 86 -84v-1194q0 -23 -3 -38t-13 -25.5t-17 -16.5t-25.5 -8t-26 -3t-33 0 t-31.5 1q-45 0 -67.5 7t-47.5 36l-61 86l-144 203l-370 542v-784q0 -27 -8.5 -44t-17.5 -27.5t-32.5 -14.5t-34 -5t-42 0t-37.5 1q-53 0 -76 19.5t-23 70.5zM319 1573q0 37 29 84q80 150 199 149q51 0 139 -30.5t119 -30.5q16 0 28.5 9t26.5 24.5t23 21.5q12 8 94 8 q57 0 57 -47q0 -16 -20 -63q-74 -152 -203 -152q-53 0 -135 32t-117 32q-23 0 -55.5 -36t-81.5 -36h-68q-35 0 -35 35z" />
<glyph unicode="&#xd2;" horiz-adv-x="1423" d="M125 682q0 725 583.5 725t583.5 -725t-583.5 -725t-583.5 725zM410 682q0 -258 45 -352q61 -133 253.5 -133t254.5 133q45 94 45 352q0 260 -45 354q-59 131 -254 131q-190 0 -254 -131q-45 -94 -45 -354zM451 1829q0 12 6 20.5t19 13.5t25.5 8t32 4t29.5 1h28h19 q76 0 95 -12q25 -16 123 -149.5t98 -153.5q0 -41 -80 -41h-84q-29 0 -51 10q-18 8 -41 28.5t-35 33t-39 46.5l-27 35q-4 4 -27 31l-41 46q-17 19 -33.5 43t-16.5 36z" />
<glyph unicode="&#xd3;" horiz-adv-x="1423" d="M125 682q0 725 583.5 725t583.5 -725t-583.5 -725t-583.5 725zM410 682q0 -258 45 -352q61 -133 253.5 -133t254.5 133q45 94 45 352q0 260 -45 354q-59 131 -254 131q-190 0 -254 -131q-45 -94 -45 -354zM528 1559q0 18 98.5 151t123.5 152q18 12 92 12h18h29 q10 0 29.5 -1t32 -4t25.5 -8.5t20.5 -13.5t7.5 -20q0 -16 -23 -43q-8 -8 -65.5 -79t-101.5 -119t-66 -56q-31 -12 -58 -12h-67q-95 0 -95 41z" />
<glyph unicode="&#xd4;" horiz-adv-x="1423" d="M125 682q0 725 583.5 725t583.5 -725t-583.5 -725t-583.5 725zM385 1566.5q0 18.5 14 37.5l146 200q45 63 65.5 74.5t96 11.5t96 -11t65.5 -75l146 -200q14 -18 14 -37q0 -25 -49 -35t-88 -10q-33 0 -47 6q-23 8 -74 88q-23 35 -63 86q-41 -51 -64 -86l-14 -23l-18 -27 q-7 -11 -19 -22.5t-23 -15.5q-14 -6 -47 -6q-18 0 -45.5 3t-59.5 13t-32 28.5zM410 682q0 -258 45 -352q61 -133 253.5 -133t254.5 133q45 94 45 352q0 260 -45 354q-59 131 -254 131q-190 0 -254 -131q-45 -94 -45 -354z" />
<glyph unicode="&#xd5;" horiz-adv-x="1423" d="M125 682q0 725 583.5 725t583.5 -725t-583.5 -725t-583.5 725zM369 1573q0 37 28 84q80 150 199 149q51 0 139 -30.5t119 -30.5q14 0 27.5 9t28 24.5t22.5 21.5q12 8 94 8q57 0 57 -47q0 -16 -20 -63q-74 -152 -203 -152q-53 0 -135 32t-117 32q-23 0 -56.5 -36 t-80.5 -36h-68q-34 0 -34 35zM410 682q0 -258 45 -352q61 -133 253.5 -133t254.5 133q45 94 45 352q0 260 -45 354q-59 131 -254 131q-190 0 -254 -131q-45 -94 -45 -354z" />
<glyph unicode="&#xd6;" horiz-adv-x="1423" d="M125 682q0 725 583.5 725t583.5 -725t-583.5 -725t-583.5 725zM391 1610v137q0 25 17.5 44t42.5 19h133q25 0 42 -19t17 -44v-137q0 -25 -17.5 -43.5t-41.5 -18.5h-133q-25 0 -42.5 18.5t-17.5 43.5zM410 682q0 -258 45 -352q61 -133 253.5 -133t254.5 133q45 94 45 352 q0 260 -45 354q-59 131 -254 131q-190 0 -254 -131q-45 -94 -45 -354zM776 1610v137q0 25 17.5 44t42.5 19h133q25 0 42 -19t17 -44v-137q0 -25 -17.5 -43.5t-41.5 -18.5h-133q-25 0 -42.5 18.5t-17.5 43.5z" />
<glyph unicode="&#xd7;" horiz-adv-x="1048" d="M92 215l281 274l-281 277l150 149l282 -276l283 276l149 -149l-280 -277l280 -274l-149 -149l-283 276l-282 -276z" />
<glyph unicode="&#xd8;" horiz-adv-x="1499" d="M98 30.5q0 22.5 25 51.5l133 158q-80 160 -80 442q0 725 582 725q242 0 381 -121l98 119q31 37 53 37q20 0 92 -64q20 -20 21 -45q0 -33 -143 -198q84 -164 83 -453q0 -174 -27.5 -303t-113.5 -236q-145 -186 -444 -186q-248 0 -385 127l-105 -125q-27 -37 -53 -37 q-20 0 -68.5 43t-48.5 65.5zM459 682q0 -127 10 -190l504 602q-70 74 -215 73q-193 0 -252 -131q-47 -98 -47 -354zM539 279q72 -82 219 -82q195 0 256 133q45 94 45 352q0 125 -12 207z" />
<glyph unicode="&#xd9;" horiz-adv-x="1392" d="M137 625v85v72v502q0 49 23.5 66.5t75.5 17.5h86q90 0 90 -84v-604q0 -279 43 -371q20 -45 63 -68.5t79 -27.5t95.5 -4t96 4t79.5 27.5t64 68.5q43 92 43 371v604q0 49 25.5 66.5t76.5 17.5h88q84 0 84 -84v-469v-75v-88q0 -26 -1 -87t-6 -95t-11 -89t-19 -91l-27 -79 q-15 -43 -38 -76t-51 -57q-119 -109 -404 -109q-281 0 -401 109q-27 25 -49.5 56.5t-39 72.5t-27.5 73.5t-18 88t-11.5 83t-6.5 91.5t-2 82zM387 1829q0 12 6 20.5t19.5 13.5t26 8t31.5 4t30 1h27h20q76 0 94 -12q25 -16 123 -149.5t98 -153.5q0 -41 -80 -41h-84 q-29 0 -51 10q-18 8 -40.5 28.5t-35 33t-39.5 46.5l-26 35q-4 4 -28 31l-41 46q-17 19 -33.5 43t-16.5 36z" />
<glyph unicode="&#xda;" horiz-adv-x="1392" d="M137 625v85v72v502q0 49 23.5 66.5t75.5 17.5h86q90 0 90 -84v-604q0 -279 43 -371q20 -45 63 -68.5t79 -27.5t95.5 -4t96 4t79.5 27.5t64 68.5q43 92 43 371v604q0 49 25.5 66.5t76.5 17.5h88q84 0 84 -84v-469v-75v-88q0 -26 -1 -87t-6 -95t-11 -89t-19 -91l-27 -79 q-15 -43 -38 -76t-51 -57q-119 -109 -404 -109q-281 0 -401 109q-27 25 -49.5 56.5t-39 72.5t-27.5 73.5t-18 88t-11.5 83t-6.5 91.5t-2 82zM541 1559q0 18 98 151t123 152q18 12 92 12h18h29q10 0 29.5 -1t32 -4t25.5 -8.5t20.5 -13.5t7.5 -20q0 -16 -23 -43 q-8 -8 -64.5 -78t-101.5 -118t-67 -58q-31 -12 -58 -12h-67q-94 0 -94 41z" />
<glyph unicode="&#xdb;" horiz-adv-x="1392" d="M137 625v85v72v502q0 49 23.5 66.5t75.5 17.5h86q90 0 90 -84v-604q0 -279 43 -371q20 -45 63 -68.5t79 -27.5t95.5 -4t96 4t79.5 27.5t64 68.5q43 92 43 371v604q0 49 25.5 66.5t76.5 17.5h88q84 0 84 -84v-469v-75v-88q0 -26 -1 -87t-6 -95t-11 -89t-19 -91l-27 -79 q-15 -43 -38 -76t-51 -57q-119 -109 -404 -109q-281 0 -401 109q-27 25 -49.5 56.5t-39 72.5t-27.5 73.5t-18 88t-11.5 83t-6.5 91.5t-2 82zM379 1566.5q0 18.5 14 37.5l146 200q45 63 65.5 74.5t96 11.5t96 -11t65.5 -75l146 -200q14 -18 14 -37q0 -25 -49 -35t-88 -10 q-33 0 -47 6q-20 6 -74 88q-23 35 -64 86q-41 -51 -63 -86l-14 -23l-18 -27q-7 -11 -19.5 -22.5t-22.5 -15.5q-14 -6 -47 -6q-18 0 -46 3t-59.5 13t-31.5 28.5z" />
<glyph unicode="&#xdc;" horiz-adv-x="1392" d="M137 625v85v72v502q0 49 23.5 66.5t75.5 17.5h86q90 0 90 -84v-604q0 -279 43 -371q20 -45 63 -68.5t79 -27.5t95.5 -4t96 4t79.5 27.5t64 68.5q43 92 43 371v604q0 49 25.5 66.5t76.5 17.5h88q84 0 84 -84v-469v-75v-88q0 -26 -1 -87t-6 -95t-11 -89t-19 -91l-27 -79 q-15 -43 -38 -76t-51 -57q-119 -109 -404 -109q-281 0 -401 109q-27 25 -49.5 56.5t-39 72.5t-27.5 73.5t-18 88t-11.5 83t-6.5 91.5t-2 82zM379 1610v137q0 25 17.5 44t41.5 19h133q25 0 42.5 -19t17.5 -44v-137q0 -25 -17.5 -43.5t-42.5 -18.5h-133q-25 0 -42 18.5 t-17 43.5zM764 1610v137q0 25 17.5 44t41.5 19h133q25 0 42.5 -19t17.5 -44v-137q0 -25 -17.5 -43.5t-42.5 -18.5h-133q-25 0 -42 18.5t-17 43.5z" />
<glyph unicode="&#xdd;" horiz-adv-x="1259" d="M100 1303q0 33 23.5 49t56.5 16h111q70 0 102 -59l277 -502l282 504q12 23 27.5 36t38 17t37 5t46.5 0t44 -1q78 0 78 -68q0 -27 -29 -79l-389 -691v-440q0 -27 -8.5 -45t-17.5 -27.5t-31.5 -14.5t-35 -5t-42 1t-41.5 1q-53 0 -76 19.5t-23 70.5v424l-409 729 q-21 37 -21 60zM500 1559q0 18 98 151t123 152q18 12 92 12h18h29q10 0 29.5 -1t32 -4t26 -8.5t20.5 -13.5t7 -20q0 -16 -23 -43q-8 -8 -64.5 -78t-101.5 -118t-67 -58q-31 -12 -57 -12h-68q-94 0 -94 41z" />
<glyph unicode="&#xde;" horiz-adv-x="1122" d="M137 90v1194q0 27 9.5 44.5t21.5 25.5t35.5 12t39 4t43 -1t38.5 -1q88 0 88 -90v-107h204q166 0 226 -18q70 -20 125 -78q106 -109 106 -383q0 -94 -14.5 -166.5t-41 -120t-65.5 -79t-88 -48t-107.5 -24.5t-124.5 -8h-140h-80v-156q0 -90 -88 -90h-86q-53 0 -77 19.5 t-24 70.5zM412 479h231q102 0 133 39q25 33 25 189q0 186 -56 215q-27 14 -163 14h-90q-43 0 -61.5 -13.5t-18.5 -54.5v-389z" />
<glyph unicode="&#xdf;" horiz-adv-x="1212" d="M143 92v934q0 125 31 205t98.5 122t148.5 56t204 14q88 0 142 -4t114.5 -22.5t93.5 -52t54.5 -94t21.5 -148.5q0 -86 -17.5 -145.5t-77.5 -92.5q45 -20 75 -60t42 -93.5t16.5 -96.5t4.5 -100q0 -113 -21.5 -206t-69 -169t-133.5 -119t-204 -43q-131 0 -150 54l-24 73 q-6 14 -7 35q0 33 21.5 54.5t54.5 21.5q20 0 61.5 -4t61.5 -4q45 0 76 22q70 55 69 310q0 61 -11 100t-25.5 60.5t-54.5 31.5t-67.5 11t-97.5 1q-49 0 -64 26t-15 79q0 59 19 83.5t77 24.5h16q37 0 55.5 1t48 6.5t44 17.5t27 34.5t12.5 57.5q0 88 -41 110.5t-140 22.5 q-45 0 -73.5 -3t-62.5 -14t-51 -39t-17 -71v-987q0 -23 -3.5 -39t-13.5 -26.5t-18 -16.5t-26.5 -8t-27 -3t-34 0t-33.5 1q-59 0 -84 17.5t-25 74.5z" />
<glyph unicode="&#xe0;" horiz-adv-x="1085" d="M94 279q0 158 85 230.5t249 90.5q158 18 260 16v28v31q0 9 -1 28.5t-4 28.5t-7 25.5t-12 23.5l-19 17q-10 9 -25.5 12t-33.5 3q-115 0 -295 -43q-25 -6 -49 -6q-16 0 -28.5 6t-19 13.5t-9.5 23.5t-3 24v30v26q0 68 58 86q135 39 335 39q209 0 293 -94q39 -41 56.5 -107 t19.5 -102.5t2 -122.5v-498q0 -45 -18.5 -66.5t-63.5 -21.5h-114q-55 0 -60 74q-162 -100 -303 -101q-293 1 -293 306zM270 1507q0 47 131 47q104 0 123 -12q25 -16 123 -150.5t98 -152.5q0 -41 -79 -41h-84q-25 0 -52 10q-16 6 -31.5 17.5t-32.5 31l-26.5 30.5t-28 36 t-22.5 29q-4 6 -38 43t-57.5 67.5t-23.5 44.5zM340 301q0 -137 76 -137q129 0 274 102v166q-66 4 -100 4q-86 0 -129 -6q-66 -10 -93.5 -38t-27.5 -91z" />
<glyph unicode="&#xe1;" horiz-adv-x="1085" d="M94 279q0 158 85 230.5t249 90.5q158 18 260 16v28v31q0 9 -1 28.5t-4 28.5t-7 25.5t-12 23.5l-19 17q-10 9 -25.5 12t-33.5 3q-115 0 -295 -43q-25 -6 -49 -6q-16 0 -28.5 6t-19 13.5t-9.5 23.5t-3 24v30v26q0 68 58 86q135 39 335 39q209 0 293 -94q39 -41 56.5 -107 t19.5 -102.5t2 -122.5v-498q0 -45 -18.5 -66.5t-63.5 -21.5h-114q-55 0 -60 74q-162 -100 -303 -101q-293 1 -293 306zM340 301q0 -137 76 -137q129 0 274 102v166q-66 4 -100 4q-86 0 -129 -6q-66 -10 -93.5 -38t-27.5 -91zM393 1241q0 18 98.5 151.5t122.5 151.5 q18 12 93 12h18h29q10 0 29.5 -1t31.5 -4t25.5 -8t20.5 -13t7 -21q0 -16 -22 -43q-6 -6 -64.5 -77.5t-103.5 -119.5t-66 -57q-31 -12 -57 -12h-68q-94 0 -94 41z" />
<glyph unicode="&#xe2;" horiz-adv-x="1085" d="M94 279q0 160 85 231.5t249 89.5q158 18 260 16v28v31q0 9 -1 28.5t-4 28.5t-7 25.5t-12 23.5l-19 17q-10 9 -25.5 12t-33.5 3q-76 0 -295 -43q-6 0 -15.5 -2t-17.5 -3t-16 -1q-16 0 -28.5 6t-19 13.5t-9.5 23.5t-3 24v30v26q0 37 11.5 56.5t46.5 29.5q135 39 335 39 q209 0 293 -94q37 -41 55.5 -105.5t20.5 -104.5t2 -122v-498q0 -88 -82 -88h-114q-59 0 -60 74q-160 -100 -303 -101q-293 1 -293 306zM215 1228.5q0 18.5 14 37.5l146 200q45 63 65.5 74.5t96 11.5t96 -11t65.5 -75l146 -200q14 -20 14 -37q0 -25 -49 -35t-88 -10 q-33 0 -47 6q-20 6 -74 88l-63 86q-23 -29 -64 -86q-47 -78 -74 -88q-14 -6 -47 -6q-18 0 -45.5 3t-59.5 13t-32 28.5zM340 301q0 -137 76 -137q125 0 274 102v166q-66 4 -100 4q-86 0 -129 -6q-66 -10 -93.5 -38t-27.5 -91z" />
<glyph unicode="&#xe3;" horiz-adv-x="1085" d="M94 279q0 160 85 231.5t249 89.5q158 18 260 16v28v31q0 9 -1 28.5t-4 28.5t-7 25.5t-12 23.5l-19 17q-10 9 -25.5 12t-33.5 3q-115 0 -295 -43q-25 -6 -49 -6q-16 0 -28.5 6t-19 13.5t-9.5 23.5t-3 24v30v26q0 37 11.5 56.5t46.5 29.5q135 39 335 39q209 0 293 -94 q37 -41 55.5 -105.5t20.5 -104.5t2 -122v-498q0 -88 -82 -88h-114q-59 0 -60 74q-160 -100 -303 -101q-293 1 -293 306zM205 1217q0 37 28 83q80 150 199 150q51 0 138 -30.5t118 -30.5q16 0 29.5 10t26 24.5t22.5 20.5q12 8 94 8q57 0 58 -47q0 -16 -21 -64 q-74 -152 -201 -151q-53 0 -135 31.5t-117 31.5q-16 0 -29.5 -10t-27.5 -25.5t-22 -21.5q-10 -8 -29 -12t-32 -4t-35.5 1t-28.5 1q-35 0 -35 35zM340 301q0 -137 76 -137q125 0 274 102v166q-66 4 -100 4q-86 0 -129 -6q-66 -10 -93.5 -38t-27.5 -91z" />
<glyph unicode="&#xe4;" horiz-adv-x="1085" d="M94 279q0 160 85 231.5t249 89.5q158 18 260 16v28v31q0 9 -1 28.5t-4 28.5t-7 25.5t-12 23.5l-19 17q-10 9 -25.5 12t-33.5 3q-76 0 -295 -43q-6 0 -15.5 -2t-17.5 -3t-16 -1q-16 0 -28.5 6t-19 13.5t-9.5 23.5t-3 24v30v26q0 37 11.5 56.5t46.5 29.5q135 39 335 39 q209 0 293 -94q37 -41 55.5 -105.5t20.5 -104.5t2 -122v-498q0 -88 -82 -88h-114q-59 0 -60 74q-160 -100 -303 -101q-293 1 -293 306zM252 1260v137q0 27 16.5 45t42.5 18h133q25 0 42.5 -19.5t17.5 -43.5v-137q0 -25 -17.5 -43.5t-42.5 -18.5h-133q-25 0 -42 18.5 t-17 43.5zM340 301q0 -137 76 -137q125 0 274 102v166q-66 4 -100 4q-86 0 -129 -6q-66 -10 -93.5 -38t-27.5 -91zM637 1260v137q0 27 16.5 45t42.5 18h133q25 0 42.5 -19.5t17.5 -43.5v-137q0 -25 -17.5 -43.5t-42.5 -18.5h-133q-25 0 -42 18.5t-17 43.5z" />
<glyph unicode="&#xe5;" horiz-adv-x="1085" d="M94 279q0 160 85 231.5t249 89.5q158 18 260 16v28v31q0 9 -1 28.5t-4 28.5t-7 25.5t-12 23.5l-19 17q-10 9 -25.5 12t-33.5 3q-76 0 -295 -43q-6 0 -15.5 -2t-17.5 -3t-16 -1q-16 0 -28.5 6t-19 13.5t-9.5 23.5t-3 24v30v26q0 37 11.5 56.5t46.5 29.5q135 39 335 39 q209 0 293 -94q37 -41 55.5 -105.5t20.5 -104.5t2 -122v-498q0 -88 -82 -88h-114q-59 0 -60 74q-160 -100 -303 -101q-293 1 -293 306zM340 301q0 -137 76 -137q125 0 274 102v166q-66 4 -100 4q-86 0 -129 -6q-66 -10 -93.5 -38t-27.5 -91zM387 1358q0 76 53.5 132 t128.5 56q78 0 130.5 -55t52.5 -133t-52.5 -133.5t-130.5 -55.5q-74 0 -128 57.5t-54 131.5zM492 1358q0 -33 22.5 -56.5t55 -23.5t56 24.5t23.5 55.5q0 35 -23.5 58.5t-56 23.5t-55 -24.5t-22.5 -57.5z" />
<glyph unicode="&#xe6;" horiz-adv-x="1656" d="M98 279q0 158 85 230.5t249 90.5q158 18 260 16v28v31q0 9 -1 28.5t-4 28.5t-7 25.5t-12 23.5l-19 17q-10 9 -25.5 12t-33.5 3q-115 0 -295 -43q-25 -6 -49 -6q-16 0 -28.5 6t-18.5 13.5t-9.5 23.5t-3.5 24v30v26q0 70 58 86q131 39 336 39q178 0 266 -68q100 68 287 68 q240 0 323.5 -115t83.5 -365q0 -84 -14 -102q-18 -23 -72 -22h-500v-29q-2 -115 37 -160t154 -45q104 0 250 33q57 14 71 14q59 0 60 -131q0 -43 -15.5 -62.5t-58.5 -27.5q-131 -27 -309 -27q-279 0 -373 144q-193 -143 -379 -144q-293 1 -293 306zM344 301q0 -137 76 -137 q139 0 293 108q-14 76 -19 160q-66 4 -100 4q-84 0 -125 -6q-68 -8 -96.5 -35.5t-28.5 -93.5zM954 588h336v39q0 102 -29.5 141t-127.5 39q-117 0 -148 -47t-31 -172z" />
<glyph unicode="&#xe7;" horiz-adv-x="978" d="M113 492q0 154 16 243.5t67.5 157.5t142.5 93.5t241 25.5q78 0 174 -11q94 -8 108 -34q4 -10 4 -35v-4q0 -160 -73 -160q-16 0 -48 4t-40 4q-123 16 -186.5 16.5t-85 -17t-36.5 -79.5q-16 -76 -16 -204q0 -109 8 -197q6 -66 33 -84t96 -18q61 0 189 16q10 0 39.5 4 t46.5 4q31 0 49 -20q25 -29 24 -140q0 -14 -2 -25.5t-9 -19.5t-11 -12t-18.5 -7t-19.5 -5t-25.5 -4t-26.5 -2l-84 -7q0 -16 -11 -30l-129 -174q-39 -55 -94 -56h-80q-35 0 -50 9.5t-15 39.5q0 14 8 23q10 31 162 190q-94 8 -159.5 39t-102.5 72t-56.5 110.5t-24.5 132.5 t-5 161z" />
<glyph unicode="&#xe8;" horiz-adv-x="1073" d="M115 485q0 135 16 223.5t62.5 162t134.5 107.5t223 34q240 0 323.5 -116t83.5 -364q0 -84 -14 -102q-18 -23 -72 -22h-499v-29q-2 -115 37 -160t153 -45q104 0 250 33q57 14 72 14q59 0 59 -131q0 -43 -15.5 -62.5t-58.5 -27.5q-127 -27 -309 -27q-262 0 -354 120 t-92 392zM254 1511q0 47 131 48q104 0 123 -13q25 -16 123 -150t98 -153q0 -41 -80 -41h-84q-25 0 -51 10q-18 6 -40.5 27t-35 35t-37 46t-28.5 36t-28 30l-41 47q-17 19 -33.5 42.5t-16.5 35.5zM373 588h336v39q0 102 -30 141t-128 39q-117 0 -147.5 -47t-30.5 -172z" />
<glyph unicode="&#xe9;" horiz-adv-x="1073" d="M115 485q0 135 16 223.5t62.5 162t134.5 107.5t223 34q240 0 323.5 -116t83.5 -364q0 -84 -14 -102q-18 -23 -72 -22h-499v-29q-2 -115 37 -160t153 -45q104 0 250 33q57 14 72 14q59 0 59 -131q0 -43 -15.5 -62.5t-58.5 -27.5q-127 -27 -309 -27q-262 0 -354 120 t-92 392zM373 588h336v39q0 102 -30 141t-128 39q-117 0 -147.5 -47t-30.5 -172zM418 1243q0 18 98 151.5t123 151.5q18 12 92 13h19h28q10 0 29.5 -1.5t32 -4.5t26 -8t20.5 -13t7 -21q0 -16 -23 -43q-199 -240 -233 -254q-31 -12 -57 -12h-68q-94 0 -94 41z" />
<glyph unicode="&#xea;" horiz-adv-x="1073" d="M115 485q0 135 16 223.5t62.5 162t134.5 107.5t223 34q240 0 323.5 -116t83.5 -364q0 -84 -14 -102q-18 -23 -72 -22h-499v-29q-2 -115 37 -160t153 -45q104 0 250 33q57 14 72 14q59 0 59 -131q0 -43 -15.5 -62.5t-58.5 -27.5q-127 -27 -309 -27q-262 0 -354 120 t-92 392zM240 1228.5q0 18.5 14 37.5l145 200q45 63 65.5 74.5t96.5 11.5t96.5 -11t65.5 -75l145 -200q14 -18 15 -37q0 -25 -49.5 -35t-88.5 -10q-33 0 -47 6q-27 10 -73 88q-41 57 -64 86q-23 -29 -63 -86q-53 -82 -74 -88q-14 -6 -47 -6q-18 0 -46 3t-59.5 13t-31.5 28.5 zM373 588h336v39q0 102 -30 141t-128 39q-117 0 -147.5 -47t-30.5 -172z" />
<glyph unicode="&#xeb;" horiz-adv-x="1073" d="M115 485q0 135 16 223.5t62.5 162t134.5 107.5t223 34q240 0 323.5 -116t83.5 -364q0 -84 -14 -102q-18 -23 -72 -22h-499v-29q-2 -115 37 -160t153 -45q104 0 250 33q57 14 72 14q59 0 59 -131q0 -43 -15.5 -62.5t-58.5 -27.5q-127 -27 -309 -27q-262 0 -354 120 t-92 392zM250 1260v137q0 25 17.5 44t41.5 19h133q25 0 42.5 -19.5t17.5 -43.5v-137q0 -25 -17.5 -43.5t-42.5 -18.5h-133q-25 0 -42 18.5t-17 43.5zM373 588h336v39q0 102 -30 141t-128 39q-117 0 -147.5 -47t-30.5 -172zM635 1260v137q0 25 17.5 44t41.5 19h133 q25 0 42.5 -19.5t17.5 -43.5v-137q0 -25 -17.5 -43.5t-42.5 -18.5h-133q-25 0 -42 18.5t-17 43.5z" />
<glyph unicode="&#xec;" horiz-adv-x="565" d="M16 1511q0 47 131 48q104 0 123 -13q25 -16 123.5 -150t98.5 -153q0 -41 -80 -41h-84q-25 0 -52 10q-16 6 -31.5 17.5t-32.5 31l-26.5 31t-28 36t-22.5 28.5t-27 30l-41 47q-17 19 -34 42.5t-17 35.5zM147 88v780q0 47 21.5 65.5t69.5 18.5h96q39 0 60.5 -22.5 t21.5 -61.5v-780q0 -88 -82 -88h-78q-59 0 -84 16.5t-25 71.5z" />
<glyph unicode="&#xed;" horiz-adv-x="565" d="M113 1239q0 18 98 152.5t123 150.5q18 12 92 12h18h29q10 0 29.5 -1t32 -4t25.5 -8t20.5 -13t7.5 -21q0 -16 -23 -43q-6 -6 -35 -42l-53 -64l-54 -63q-30 -34 -54.5 -56t-36.5 -29q-31 -12 -58 -12h-67q-94 0 -94 41zM147 88v780q0 47 21.5 65.5t69.5 18.5h96 q39 0 60.5 -22.5t21.5 -61.5v-780q0 -88 -82 -88h-78q-59 0 -84 16.5t-25 71.5z" />
<glyph unicode="&#xee;" horiz-adv-x="565" d="M-41 1228.5q0 18.5 14 37.5l146 200q45 63 65.5 74.5t96 11.5t96 -11t65.5 -75l146 -200q14 -20 14 -37q0 -25 -49 -35t-88 -10q-33 0 -47 6q-20 6 -74 88l-63 86q-23 -29 -64 -86q-47 -78 -74 -88q-14 -6 -47 -6q-18 0 -45.5 3t-59.5 13t-32 28.5zM147 88v780 q0 47 21.5 65.5t69.5 18.5h96q39 0 60.5 -22.5t21.5 -61.5v-780q0 -88 -82 -88h-78q-59 0 -84 16.5t-25 71.5z" />
<glyph unicode="&#xef;" horiz-adv-x="565" d="M-35 1260v137q0 25 17.5 44t42.5 19h133q25 0 42 -19.5t17 -43.5v-137q0 -25 -17.5 -43.5t-41.5 -18.5h-133q-25 0 -42.5 18.5t-17.5 43.5zM147 88v780q0 47 21.5 65.5t69.5 18.5h96q39 0 60.5 -22.5t21.5 -61.5v-780q0 -88 -82 -88h-78q-59 0 -84 16.5t-25 71.5z M350 1260v137q0 25 17.5 44t42.5 19h133q25 0 42 -19.5t17 -43.5v-137q0 -25 -17.5 -43.5t-41.5 -18.5h-133q-25 0 -42.5 18.5t-17.5 43.5z" />
<glyph unicode="&#xf0;" horiz-adv-x="1167" d="M115 467q0 233 109.5 365.5t338.5 132.5q111 0 203 -64q-35 147 -145 223q-2 -2 -15 -16l-18 -22l-19 -20q-12 -13 -22 -20l-22 -16q-11 -8 -22 -12t-22 -4q-27 0 -65.5 33.5t-38.5 60.5q0 29 55 84h-26q-96 0 -111.5 13.5t-13.5 94.5v62q0 18 4 24q14 20 118 21 q106 0 201 -27q49 59 78 59.5t70 -30.5t41 -57q0 -25 -21 -49q281 -162 281 -836q0 -240 -117 -367t-352 -127q-469 0 -469 494zM379 467q0 -156 41 -223q33 -55 143 -56h41q109 0 139 48q45 70 45 231q0 147 -36 217q-37 66 -146 66h-49q-53 0 -86 -12.5t-55 -53.5 q-37 -67 -37 -217z" />
<glyph unicode="&#xf1;" d="M139 90v803q0 47 21.5 67.5t68.5 20.5h93q33 0 47 -15.5t22 -47.5q143 94 287 94q145 0 230 -72t85 -213v-637q0 -27 -7 -44t-13 -26.5t-27.5 -14.5t-28 -6t-40 0t-37.5 1q-59 0 -84 16.5t-25 73.5v531q0 121 -14 145q-18 31 -64 31q-113 0 -252 -113v-594q0 -27 -7 -44 t-13 -27.5t-26.5 -14.5t-29 -5t-39 0t-38.5 1q-59 0 -84 16.5t-25 73.5zM203 1217q0 27 28 83q78 150 199 150q49 0 137 -30.5t121 -30.5q16 0 29.5 10t26 24.5t22.5 20.5q12 8 94 8q57 0 58 -47q0 -16 -21 -64q-70 -152 -203 -151q-53 0 -136 31.5t-116 31.5 q-16 0 -29.5 -9t-27.5 -25.5t-23 -22.5q-20 -14 -124 -14q-35 0 -35 35z" />
<glyph unicode="&#xf2;" horiz-adv-x="1169" d="M115 492q0 254 111.5 387t359.5 133q250 0 359.5 -133.5t109.5 -387t-110.5 -386t-358.5 -132.5t-359.5 133.5t-111.5 385.5zM246 1511.5q0 12.5 6 20.5t19.5 13t25.5 8t31.5 4.5t29.5 1.5h28h20q76 0 94 -13q25 -16 123 -150t98 -153q0 -41 -80 -41h-84q-29 0 -51 10 q-18 8 -41 28t-36 35t-35.5 45t-28.5 36q-4 4 -28 30l-41 47q-17 19 -33.5 42.5t-16.5 36zM379 492q0 -166 39 -238q12 -23 29.5 -37t44 -19t42 -6.5t52.5 -1.5t52 1.5t42 6.5t44 19t30 37q37 68 37 238t-37 237q-12 25 -29.5 39t-44.5 19.5t-42 6.5t-52 1t-52.5 -1 t-42 -6.5t-44 -19.5t-29.5 -39q-39 -73 -39 -237z" />
<glyph unicode="&#xf3;" horiz-adv-x="1169" d="M115 492q0 254 111.5 387t359.5 133q250 0 359.5 -133.5t109.5 -387t-110.5 -386t-358.5 -132.5t-359.5 133.5t-111.5 385.5zM379 492q0 -166 39 -238q12 -23 29.5 -37t44 -19t42 -6.5t52.5 -1.5t52 1.5t42 6.5t44 19t30 37q37 68 37 238t-37 237q-12 25 -29.5 39 t-44.5 19.5t-42 6.5t-52 1t-52.5 -1t-42 -6.5t-44 -19.5t-29.5 -39q-39 -73 -39 -237zM379 1239q0 18 98 151.5t123 151.5q18 12 92 12h19h28q10 0 29.5 -1t32 -4t26 -8t20.5 -13t7 -21q0 -8 -23 -43q-43 -57 -125.5 -150t-107.5 -104q-29 -12 -57 -12h-68q-94 0 -94 41z " />
<glyph unicode="&#xf4;" horiz-adv-x="1169" d="M115 492q0 254 111.5 387t359.5 133q250 0 359.5 -133.5t109.5 -387t-110.5 -386t-358.5 -132.5t-359.5 133.5t-111.5 385.5zM254 1228.5q0 18.5 14 37.5l146 200q45 63 65.5 74.5t96 11.5t96 -11t65.5 -75l146 -200q14 -18 14 -37q0 -25 -49 -35t-88 -10q-33 0 -47 6 q-20 6 -74 88q-41 57 -64 86q-23 -29 -63 -86q-47 -78 -74 -88q-14 -6 -47 -6q-18 0 -46 3t-59.5 13t-31.5 28.5zM379 492q0 -166 39 -238q12 -23 29.5 -37t44 -19t42 -6.5t52.5 -1.5t52 1.5t42 6.5t44 19t30 37q37 68 37 238t-37 237q-12 25 -29.5 39t-44.5 19.5t-42 6.5 t-52 1t-52.5 -1t-42 -6.5t-44 -19.5t-29.5 -39q-39 -73 -39 -237z" />
<glyph unicode="&#xf5;" horiz-adv-x="1169" d="M115 492q0 254 111.5 387t359.5 133q250 0 359.5 -133.5t109.5 -387t-110.5 -386t-358.5 -132.5t-359.5 133.5t-111.5 385.5zM209 1217q0 37 29 83q82 150 198 150q51 0 139.5 -30.5t118.5 -30.5q16 0 29.5 9t27 24.5t21.5 21.5q12 8 94 8q57 0 58 -47q0 -16 -21 -64 q-74 -152 -203 -151q-53 0 -135 31.5t-116 31.5q-16 0 -29.5 -9t-28 -25.5t-22.5 -22.5q-20 -14 -125 -14q-35 0 -35 35zM379 492q0 -166 39 -238q12 -23 29.5 -37t44 -19t42 -6.5t52.5 -1.5t52 1.5t42 6.5t44 19t30 37q37 68 37 238t-37 237q-12 25 -29.5 39t-44.5 19.5 t-42 6.5t-52 1t-52.5 -1t-42 -6.5t-44 -19.5t-29.5 -39q-39 -73 -39 -237z" />
<glyph unicode="&#xf6;" horiz-adv-x="1169" d="M115 492q0 254 111.5 387t359.5 133q250 0 359.5 -133.5t109.5 -387t-110.5 -386t-358.5 -132.5t-359.5 133.5t-111.5 385.5zM258 1260v137q0 27 16.5 45t42.5 18h134q25 0 42 -19.5t17 -43.5v-137q0 -25 -17.5 -43.5t-41.5 -18.5h-134q-25 0 -42 18.5t-17 43.5zM379 492 q0 -166 39 -238q12 -23 29.5 -37t44 -19t42 -6.5t52.5 -1.5t52 1.5t42 6.5t44 19t30 37q37 68 37 238t-37 237q-12 25 -29.5 39t-44.5 19.5t-42 6.5t-52 1t-52.5 -1t-42 -6.5t-44 -19.5t-29.5 -39q-39 -73 -39 -237zM643 1260v137q0 27 16.5 45t42.5 18h134q25 0 42 -19.5 t17 -43.5v-137q0 -25 -17.5 -43.5t-41.5 -18.5h-134q-25 0 -42 18.5t-17 43.5z" />
<glyph unicode="&#xf7;" horiz-adv-x="1124" d="M117 401v179h891v-179h-891zM418 143q0 55 35.5 94t91.5 39q53 0 91 -39.5t38 -93t-38 -93.5t-91 -40t-90 40t-37 93zM418 838q0 55 35.5 94t91.5 39q53 0 91 -40t38 -93.5t-38 -93t-91 -39.5t-90 40t-37 93z" />
<glyph unicode="&#xf8;" horiz-adv-x="1173" d="M82 -2q0 31 113 154q-78 127 -78 340q0 254 111.5 387t359.5 133q170 0 276 -64l94 111q27 31 56 31q27 0 57.5 -32t30.5 -59q0 -12 -9.5 -29.5t-26.5 -39.5l-31 -39q-13 -16 -32.5 -38t-21.5 -24q76 -123 76 -337q0 -254 -110.5 -386.5t-358.5 -132.5q-168 0 -275 64 l-77 -92q-29 -33 -58 -33q-23 0 -59.5 31.5t-36.5 54.5zM381 492q0 -76 4 -113l334 395q-35 20 -131 21q-37 0 -52.5 -1t-42 -6.5t-44 -19.5t-29.5 -39q-39 -73 -39 -237zM459 209q33 -18 129 -19q37 0 52 1.5t42 6.5t44 19t30 37q37 68 37 238q0 16 -1 34.5t-3.5 40 t-2.5 33.5z" />
<glyph unicode="&#xf9;" d="M131 258v633q0 27 7 44t14.5 27.5t28 14.5t28.5 5t39 0t39 -1q59 0 82.5 -17.5t23.5 -72.5v-529q0 -6 -1 -28.5t0 -33.5l3 -31.5t7.5 -32t13.5 -23.5t22.5 -18.5t32.5 -6.5q47 0 95 17.5t78 37t79 58.5v590q0 27 7 44t14.5 27.5t28 14.5t28.5 5t38.5 0t39.5 -1 q59 0 82.5 -17.5t23.5 -72.5v-803q0 -47 -20.5 -67.5t-67.5 -20.5h-92q-55 0 -70 68q-150 -96 -289 -97q-147 0 -231 72t-84 215zM254 1507q0 47 131 47q104 0 123 -12q25 -16 123 -150.5t98 -152.5q0 -41 -80 -41h-84q-20 0 -51 10q-18 8 -40.5 27.5t-36 35t-36 45.5 t-28.5 36q-4 4 -28 30l-41 46q-17 19 -33.5 43t-16.5 36z" />
<glyph unicode="&#xfa;" d="M131 258v633q0 27 7 44t14.5 27.5t28 14.5t28.5 5t39 0t39 -1q59 0 82.5 -17.5t23.5 -72.5v-529q0 -6 -1 -28.5t0 -33.5l3 -31.5t7.5 -32t13.5 -23.5t22.5 -18.5t32.5 -6.5q47 0 95 17.5t78 37t79 58.5v590q0 27 7 44t14.5 27.5t28 14.5t28.5 5t38.5 0t39.5 -1 q59 0 82.5 -17.5t23.5 -72.5v-803q0 -47 -20.5 -67.5t-67.5 -20.5h-92q-55 0 -70 68q-150 -96 -289 -97q-147 0 -231 72t-84 215zM401 1233q0 20 97.5 152.5t124.5 150.5q18 12 92 12h18h29q10 0 29.5 -1t32 -4t25.5 -8t20.5 -13.5t7.5 -20.5q0 -16 -23 -43q-8 -8 -36 -43 l-52 -63l-54 -63q-30 -34 -53.5 -56.5t-37.5 -28.5q-25 -12 -58 -12h-80q-82 0 -82 41z" />
<glyph unicode="&#xfb;" d="M131 258v633q0 27 7 44t14.5 27.5t28 14.5t28.5 5t39 0t39 -1q59 0 82.5 -17.5t23.5 -72.5v-529q0 -6 -1 -28.5t0 -33.5l3 -31.5t7.5 -32t13.5 -23.5t22.5 -18.5t32.5 -6.5q47 0 95 17.5t78 37t79 58.5v590q0 27 7 44t14.5 27.5t28 14.5t28.5 5t38.5 0t39.5 -1 q59 0 82.5 -17.5t23.5 -72.5v-803q0 -47 -20.5 -67.5t-67.5 -20.5h-92q-55 0 -70 68q-150 -96 -289 -97q-147 0 -231 72t-84 215zM229 1228.5q0 18.5 15 37.5l145 200q45 63 65.5 74.5t96.5 11.5t96.5 -11t65.5 -75l145 -200q14 -18 14 -37q0 -25 -49 -35t-88 -10 q-33 0 -47 6q-27 10 -74 88l-63 86l-64 -86q-53 -82 -73 -88q-14 -6 -47 -6q-18 0 -46 3t-60 13t-32 28.5z" />
<glyph unicode="&#xfc;" d="M131 258v633q0 27 7 44t14.5 27.5t28 14.5t28.5 5t39 0t39 -1q59 0 82.5 -17.5t23.5 -72.5v-529q0 -6 -1 -28.5t0 -33.5l3 -31.5t7.5 -32t13.5 -23.5t22.5 -18.5t32.5 -6.5q47 0 95 17.5t78 37t79 58.5v590q0 27 7 44t14.5 27.5t28 14.5t28.5 5t38.5 0t39.5 -1 q59 0 82.5 -17.5t23.5 -72.5v-803q0 -47 -20.5 -67.5t-67.5 -20.5h-92q-55 0 -70 68q-150 -96 -289 -97q-147 0 -231 72t-84 215zM242 1260v137q0 27 16 45t43 18h133q25 0 42.5 -19.5t17.5 -43.5v-137q0 -25 -17.5 -43.5t-42.5 -18.5h-133q-25 0 -42 18.5t-17 43.5z M627 1260v137q0 27 16 45t43 18h133q25 0 42.5 -19.5t17.5 -43.5v-137q0 -25 -17.5 -43.5t-42.5 -18.5h-133q-25 0 -42 18.5t-17 43.5z" />
<glyph unicode="&#xfd;" horiz-adv-x="1079" d="M111 926q0 25 22.5 40t48.5 15h92q37 0 52.5 -1t35 -14.5t27.5 -41.5l184 -580l175 557q10 29 22 47.5t36.5 25.5t38 9t52.5 0t51 -2q70 0 70 -59q0 -18 -12 -48l-445 -1234q-14 -39 -34.5 -50.5t-65.5 -11.5h-103q-72 0 -71 53q0 10 14 50l154 362l-336 850q-8 21 -8 33 zM416 1247q0 20 97 152.5t124 150.5q18 12 92 13h19h28q10 0 29.5 -1t32 -4.5t26 -8.5t20.5 -13t7 -20q0 -16 -23 -43q-8 -8 -35 -43l-53 -64l-54 -62q-30 -34 -53.5 -56.5t-37.5 -28.5q-25 -12 -57 -13h-80q-82 0 -82 41z" />
<glyph unicode="&#xfe;" horiz-adv-x="1159" d="M143 -334v1653q0 49 20.5 69.5t69.5 20.5h93q80 0 80 -90v-404q176 96 305 97q86 0 147.5 -31t96 -78t55 -117.5t26.5 -134t6 -143.5q0 -229 -57 -336q-104 -199 -393 -199q-98 0 -186 21v-328q0 -23 -3.5 -40t-13.5 -27l-16 -17q-6 -6 -24.5 -8t-27 -3t-35 0t-34.5 1 q-59 0 -84 18.5t-25 75.5zM406 219q96 -29 190 -29q59 0 94 15q88 37 88 299q0 147 -20 223q-16 68 -80 68q-102 0 -272 -109v-467z" />
<glyph unicode="&#xff;" horiz-adv-x="1079" d="M76 926q0 25 22.5 40t48.5 15h93q37 0 52 -1t34.5 -14.5t27.5 -41.5l185 -580l174 557q10 29 22.5 47.5t37 25.5t37.5 9t52 0t51 -2q70 0 70 -59q0 -18 -12 -48l-445 -1234q-14 -39 -34.5 -50.5t-65.5 -11.5h-102q-72 0 -72 53q0 10 14 50l154 362l-336 850q-8 25 -8 33z M231 1260v137q0 25 17.5 44t42.5 19h133q25 0 42 -19.5t17 -43.5v-137q0 -25 -17 -43.5t-42 -18.5h-133q-25 0 -42.5 18.5t-17.5 43.5zM616 1260v137q0 25 17.5 44t42.5 19h133q25 0 42 -19.5t17 -43.5v-137q0 -25 -17 -43.5t-42 -18.5h-133q-25 0 -42.5 18.5t-17.5 43.5z " />
<glyph unicode="&#x152;" horiz-adv-x="1816" d="M129 670q0 86 3 149.5t18.5 150.5t42 149.5t79 119.5t125.5 86q109 43 322 43h891q18 0 31 -4l23 -7q9 -3 15.5 -14.5t9.5 -15.5t5 -22.5t2 -22.5v-28v-25q0 -49 -18.5 -72.5t-67.5 -23.5q-229 0 -461 6v-320q47 0 131 2t153.5 3t131.5 1q27 0 44 -8t25 -15t12.5 -29.5 t4.5 -32.5v-40q0 -49 -18.5 -72.5t-67.5 -23.5q-61 0 -131 1t-154 3t-131 2v-381q231 6 461 7q25 0 42 -7.5t26.5 -14.5t13.5 -28.5t5 -28.5t0 -38t-1 -35q0 -84 -86 -84h-891q-180 0 -296 40t-180.5 128t-89 206t-24.5 296zM411 745.5q1 -55.5 1 -61.5v-18q0 -119 8 -179 q12 -106 54 -163.5t140 -75.5q59 -10 146 -10q76 0 114 4v884q-39 4 -114 4q-145 0 -213 -26q-33 -12 -56.5 -32.5t-37.5 -55.5l-24 -59q-9 -24 -13 -72.5t-5 -66t0 -73z" />
<glyph unicode="&#x153;" horiz-adv-x="1751" d="M115 491.5q0 253.5 111.5 387t359.5 133.5q207 0 319 -94q96 94 322 94q240 0 323.5 -115t83.5 -365q0 -84 -14 -102q-18 -23 -72 -22h-499v-29q-2 -115 36.5 -160t153.5 -45q104 0 250 33q57 14 72 14q59 0 59 -131q0 -43 -15.5 -62.5t-58.5 -27.5q-127 -27 -309 -27 q-225 0 -332 97q-115 -96 -319 -97q-248 0 -359.5 132.5t-111.5 386zM379 492q0 -166 39 -238q12 -23 29.5 -37t44 -19t42 -6.5t52.5 -1.5t52 1.5t42 6.5t44 19t30 37q37 68 37 238t-37 237q-12 25 -29.5 39t-44.5 19.5t-42 6.5t-52 1t-52.5 -1t-42 -6.5t-44 -19.5 t-29.5 -39q-39 -73 -39 -237zM1049 588h335v39q0 102 -29.5 141t-127.5 39q-117 0 -147.5 -47t-30.5 -172z" />
<glyph unicode="&#x178;" horiz-adv-x="1259" d="M66 1303q0 33 23.5 49t55.5 16h111q70 0 102 -59l277 -502l283 504q12 23 27.5 36t38 18t36.5 6t46 -1t44 -2q78 0 78 -68q0 -27 -29 -79l-389 -691v-440q0 -27 -8 -45t-18.5 -27.5t-33 -13.5t-33.5 -5t-42 0t-41 1q-53 0 -75.5 19.5t-22.5 70.5v424l-410 729 q-20 37 -20 60zM313 1614v137q0 25 17.5 44.5t42.5 19.5h133q25 0 42 -19.5t17 -44.5v-137q0 -25 -17.5 -43.5t-41.5 -18.5h-133q-25 0 -42.5 18.5t-17.5 43.5zM698 1614v137q0 25 17.5 44.5t42.5 19.5h133q25 0 42 -19.5t17 -44.5v-137q0 -25 -17.5 -43.5t-41.5 -18.5h-133 q-25 0 -42.5 18.5t-17.5 43.5z" />
<glyph unicode="&#x2c6;" horiz-adv-x="643" d="M0 1159q0 18 14 37l146 201q45 63 65.5 74.5t96 11.5t96 -11.5t65.5 -74.5l146 -201q14 -18 14 -37q0 -45 -137 -45q-33 0 -47 6q-20 6 -74 88l-63 86q-23 -29 -64 -86q-53 -82 -74 -88q-14 -6 -47 -6q-137 0 -137 45z" />
<glyph unicode="&#x2dc;" horiz-adv-x="714" d="M0 1165q0 31 29 84q78 150 198 150q51 0 139.5 -31t118.5 -31q16 0 29.5 9.5t27 24.5t21.5 22q12 8 94 8q57 0 58 -47q0 -18 -21 -64q-72 -152 -202 -151q-53 0 -135.5 31.5t-116.5 31.5q-16 0 -29.5 -9t-28 -25.5t-22.5 -22.5q-20 -14 -125 -15q-35 0 -35 35z" />
<glyph unicode="&#x2013;" horiz-adv-x="1089" d="M20 459v59q0 37 24 57.5t60 20.5h879q88 0 88 -78v-41q0 -59 -16.5 -81.5t-71.5 -22.5h-879q-47 0 -65.5 19.5t-18.5 66.5z" />
<glyph unicode="&#x2014;" horiz-adv-x="2078" d="M20 459v59q0 37 24 57.5t60 20.5h1868q88 0 88 -78v-41q0 -59 -16 -81.5t-72 -22.5h-1868q-47 0 -65.5 19.5t-18.5 66.5z" />
<glyph unicode="&#x2018;" horiz-adv-x="532" d="M68 1366q0 29 25.5 44t58.5 15h77q39 0 57.5 -14t39.5 -53l104 -195q23 -41 23 -67q0 -29 -52.5 -57.5t-85.5 -28.5q-49 0 -82 51q-165 260 -165 305z" />
<glyph unicode="&#x2019;" horiz-adv-x="532" d="M82 1096q0 27 22 67l105 195q20 39 38.5 53t57.5 14h78q33 0 57.5 -15t24.5 -44q0 -39 -164 -305q-33 -51 -82 -51q-33 0 -85 28.5t-52 57.5z" />
<glyph unicode="&#x201a;" horiz-adv-x="534" d="M82 -156q0 27 22 68l105 194q20 39 38.5 54.5t57.5 15.5h78q33 0 58.5 -16.5t25.5 -44.5q0 -31 -166 -303q-33 -51 -80 -52q-33 0 -86 27.5t-53 56.5z" />
<glyph unicode="&#x201c;" horiz-adv-x="942" d="M68 1366q0 29 25.5 44t58.5 15h77q39 0 57.5 -14t39.5 -53l104 -195q23 -41 23 -67q0 -29 -52.5 -57.5t-85.5 -28.5q-49 0 -82 51q-165 260 -165 305zM477 1366q0 29 25.5 44t58.5 15h78q39 0 57.5 -14t38.5 -53l103 -195q25 -45 24 -67q0 -29 -53 -57.5t-86 -28.5 q-47 0 -80 51q-166 266 -166 305z" />
<glyph unicode="&#x201d;" horiz-adv-x="942" d="M82 1096q0 27 22 67l105 195q20 39 38.5 53t57.5 14h78q33 0 57.5 -15t24.5 -44q0 -39 -164 -305q-33 -51 -82 -51q-33 0 -85 28.5t-52 57.5zM489 1096q0 27 23 67l104 195q20 39 40 53t59 14h76q33 0 58 -15t25 -44q0 -10 -14 -40t-37 -71l-43 -75l-44 -73 q-24 -38 -27 -46q-33 -51 -80 -51q-33 0 -86.5 28.5t-53.5 57.5z" />
<glyph unicode="&#x201e;" horiz-adv-x="952" d="M82 -156q0 27 22 68l105 194q20 39 38.5 54.5t57.5 15.5h78q33 0 58.5 -16.5t25.5 -44.5q0 -31 -166 -303q-33 -51 -80 -52q-33 0 -86 27.5t-53 56.5zM502 -156q0 27 22 68l105 194q20 39 38.5 54.5t57.5 15.5h78q33 0 58.5 -16.5t25.5 -44.5q0 -31 -166 -303 q-33 -51 -82 -52q-33 0 -85 27.5t-52 56.5z" />
<glyph unicode="&#x2022;" horiz-adv-x="868" d="M119 643q0 135 91 230.5t224 95.5t224.5 -96.5t91.5 -229.5q0 -131 -93.5 -228.5t-222.5 -97.5q-133 0 -224 95.5t-91 230.5z" />
<glyph unicode="&#x2026;" horiz-adv-x="1767" d="M125 131q0 20 14 35l142 141q14 14 30 15q18 0 33 -15l141 -141q14 -14 15 -35q0 -18 -15 -33l-141 -139q-14 -14 -33 -14h2q-18 0 -32 14l-142 139q-14 15 -14 33zM719 131q0 20 14 35l141 141q14 14 31 15q18 0 33 -15l141 -141q14 -14 15 -35q0 -18 -15 -33l-141 -139 q-14 -14 -33 -14h2q-18 0 -33 14l-141 139q-14 15 -14 33zM1313 131q0 20 14 35l141 141q14 14 31 15q18 0 33 -15l141 -141q14 -14 15 -35q0 -18 -15 -33l-141 -139q-14 -14 -31 -14q-18 0 -33 14l-141 139q-14 15 -14 33z" />
<glyph unicode="&#x2039;" horiz-adv-x="643" d="M111 477q0 23 204 324q20 29 41 36t62 7q135 0 135 -51q0 -16 -10 -33l-170 -283l170 -282q10 -16 10 -33q0 -51 -135 -51q-41 0 -61.5 7t-41.5 36q-204 286 -204 323z" />
<glyph unicode="&#x203a;" horiz-adv-x="692" d="M90 162q0 16 10 33l170 282l-170 283q-10 16 -10 33q0 51 135 51q41 0 61.5 -7.5t41.5 -35.5q205 -301 204 -324q0 -37 -204 -323q-20 -29 -41 -36t-62 -7q-135 0 -135 51z" />
<glyph unicode="&#x20ac;" horiz-adv-x="1157" d="M2 506v31q0 14 3 26t9 20.5t12.5 14.5t17.5 10t18.5 6t22.5 3t23 1h24h22v109q-6 0 -33 -1t-37 0t-29.5 5t-28 12.5t-16.5 23.5t-8 38v31q0 20 5 34.5t16.5 23.5t21.5 14t30 7l29 4q10 1 34 0t30 -1q35 268 167 366t408 98q104 0 234 -10q27 -2 40 -4t31.5 -9t26.5 -21.5 t8 -37.5v-67q0 -53 -14 -75.5t-63 -22.5q-37 0 -111 5t-111 5q-176 0 -237 -29q-94 -41 -115 -198h316q55 0 70.5 -29t15.5 -86q0 -76 -82 -76h-330v-61v-48h285q55 0 70.5 -28.5t15.5 -85.5q0 -76 -82 -76h-275q10 -61 34 -103t50.5 -64.5t74.5 -34t84 -13.5t105 -2 q37 0 111 5t111 5q49 0 63 -22.5t14 -75.5v-68q0 -29 -18 -45t-35.5 -20t-52.5 -6q-129 -10 -234 -11q-266 0 -403 98.5t-172 356.5q-10 0 -36 -1t-39 -1t-33.5 4t-31 12.5t-18.5 23.5t-8 40z" />
<glyph unicode="&#x2122;" horiz-adv-x="1933" d="M90 1298q0 70 78 70h553q49 0 63.5 -24.5t14.5 -75.5q0 -78 -78 -78q-29 0 -84 2t-84 2v-571q0 -14 -4 -26.5t-8 -21t-15 -13.5l-16 -8q-6 -3 -21.5 -4t-21.5 -1h-25h-22q-84 0 -84 74v571q-29 0 -84 -2t-84 -2q-37 0 -54.5 16.5t-20.5 34.5t-3 57zM891 614v13l67 676 q2 25 12.5 39t31 20t33 7t43 0t36.5 -1q61 0 86 -49q27 -55 53 -120l58 -144l49 -123q145 354 162 387q8 18 20 29.5t31.5 15.5t32 5t38 0t35.5 -1q78 0 84 -65l66 -676v-13q0 -16 -3 -28.5t-14 -18.5l-19 -11q-9 -5 -25.5 -6t-25.5 -1h-28h-24q-72 0 -78 72l-27 354 q-61 -160 -129 -277q-14 -27 -20 -36t-21.5 -17t-40.5 -8h-51q-35 0 -46 11t-28 46l-114 281l-27 -344q0 -14 -3 -24.5t-6 -18.5t-9.5 -14.5t-9.5 -10.5t-13 -7t-14 -4t-17.5 -2t-18.5 -1h-22h-20q-39 0 -62.5 15t-21.5 50z" />
<glyph unicode="&#xe000;" horiz-adv-x="980" d="M0 980h980v-980h-980v980z" />
<glyph unicode="&#xfb01;" horiz-adv-x="1353" d="M70 836v88q0 20 5 33.5t20.5 17.5t21.5 6t32.5 1t30.5 -1v82q0 168 53 242q57 78 141.5 99t211.5 21q145 0 170 -39q10 -14 10 -43v-14q0 -141 -61 -141q-14 0 -43 6t-33 6q-49 6 -99 6q-61 0 -73 -20q-14 -23 -15 -205h205q37 0 52.5 -11.5t15.5 -45.5v-82 q0 -45 -15.5 -61.5t-58.5 -16.5h-199v-672q0 -47 -14 -69.5t-57 -22.5h-129q-39 0 -50.5 19.5t-11.5 60.5v684h-61q-49 0 -49 72zM938 92v799q0 49 21.5 69.5t68.5 20.5h96q39 0 60.5 -25.5t21.5 -64.5v-799q0 -92 -82 -92h-77q-59 0 -84 17.5t-25 74.5zM938 1219v71 q0 49 21.5 69.5t68.5 20.5h96q39 0 60.5 -25.5t21.5 -64.5v-71q0 -92 -82 -93h-77q-59 0 -84 18t-25 75z" />
<glyph unicode="&#xfb02;" horiz-adv-x="1366" d="M70 836v88q0 20 5 33.5t20.5 17.5t21.5 6t32.5 1t30.5 -1v82q0 168 53 242q57 78 141.5 99t211.5 21q145 0 170 -39q10 -14 10 -43v-14q0 -141 -61 -141q-14 0 -43 6t-33 6q-49 6 -99 6q-61 0 -73 -20q-14 -23 -15 -205h205q37 0 52.5 -11.5t15.5 -45.5v-82 q0 -45 -15.5 -61.5t-58.5 -16.5h-199v-672q0 -47 -14 -69.5t-57 -22.5h-129q-39 0 -50.5 19.5t-11.5 60.5v684h-61q-49 0 -49 72zM961 92v1227q0 49 21.5 69.5t68.5 20.5h90q39 0 60.5 -25.5t21.5 -64.5v-1227q0 -92 -82 -92h-74q-59 0 -82.5 17.5t-23.5 74.5z" />
<glyph unicode="&#xfb03;" horiz-adv-x="2129" d="M1712 92v799q0 49 21.5 69.5t69.5 20.5h96q39 0 60.5 -25.5t21.5 -64.5v-799q0 -92 -82 -92h-78q-59 0 -84 17.5t-25 74.5zM1712 1219v71q0 49 21.5 69.5t69.5 20.5h96q39 0 60.5 -25.5t21.5 -64.5v-71q0 -92 -82 -93h-78q-59 0 -84 18t-25 75zM852 836v88q0 20 5 33.5 t20.5 17.5t21.5 6t32.5 1t30.5 -1v82q0 168 53 242q57 78 141.5 99t211.5 21q145 0 170 -39q10 -14 10 -43v-14q0 -141 -61 -141q-14 0 -43 6t-33 6q-49 6 -99 6q-61 0 -73 -20q-14 -23 -15 -205h205q37 0 52.5 -11.5t15.5 -45.5v-82q0 -45 -15.5 -61.5t-58.5 -16.5h-199 v-672q0 -47 -14 -69.5t-57 -22.5h-129q-39 0 -50.5 19.5t-11.5 60.5v684h-61q-49 0 -49 72zM70 836v88q0 20 5 33.5t20.5 17.5t21.5 6t32.5 1t30.5 -1v82q0 168 53 242q57 78 141.5 99t211.5 21q145 0 170 -39q10 -14 10 -43v-14q0 -141 -61 -141q-14 0 -43 6t-33 6 q-49 6 -99 6q-61 0 -73 -20q-14 -23 -15 -205h205q37 0 52.5 -11.5t15.5 -45.5v-82q0 -45 -15.5 -61.5t-58.5 -16.5h-199v-672q0 -47 -14 -69.5t-57 -22.5h-129q-39 0 -50.5 19.5t-11.5 60.5v684h-61q-49 0 -49 72z" />
<glyph unicode="&#xfb04;" horiz-adv-x="2115" d="M1708 92v1229q0 49 20.5 68.5t69.5 19.5h93q80 0 80 -88v-1229q0 -92 -80 -92h-74q-59 0 -84 17.5t-25 74.5zM852 836v88q0 20 5 33.5t20.5 17.5t21.5 6t32.5 1t30.5 -1v82q0 168 53 242q57 78 141.5 99t211.5 21q145 0 170 -39q10 -14 10 -43v-14q0 -141 -61 -141 q-14 0 -43 6t-33 6q-49 6 -99 6q-61 0 -73 -20q-14 -23 -15 -205h205q37 0 52.5 -11.5t15.5 -45.5v-82q0 -45 -15.5 -61.5t-58.5 -16.5h-199v-672q0 -47 -14 -69.5t-57 -22.5h-129q-39 0 -50.5 19.5t-11.5 60.5v684h-61q-49 0 -49 72zM70 836v88q0 20 5 33.5t20.5 17.5 t21.5 6t32.5 1t30.5 -1v82q0 168 53 242q57 78 141.5 99t211.5 21q145 0 170 -39q10 -14 10 -43v-14q0 -141 -61 -141q-14 0 -43 6t-33 6q-49 6 -99 6q-61 0 -73 -20q-14 -23 -15 -205h205q37 0 52.5 -11.5t15.5 -45.5v-82q0 -45 -15.5 -61.5t-58.5 -16.5h-199v-672 q0 -47 -14 -69.5t-57 -22.5h-129q-39 0 -50.5 19.5t-11.5 60.5v684h-61q-49 0 -49 72z" />
</font>
</defs>
</svg>
