<?xml version="1.0" encoding="UTF-8" standalone="no"?>
<!-- Generator: Adobe Illustrator 21.0.2, SVG Export Plug-In . SVG Version: 6.00 Build 0)  -->

<svg
   xmlns:dc="http://purl.org/dc/elements/1.1/"
   xmlns:cc="http://creativecommons.org/ns#"
   xmlns:rdf="http://www.w3.org/1999/02/22-rdf-syntax-ns#"
   xmlns:svg="http://www.w3.org/2000/svg"
   xmlns="http://www.w3.org/2000/svg"
   xmlns:sodipodi="http://sodipodi.sourceforge.net/DTD/sodipodi-0.dtd"
   xmlns:inkscape="http://www.inkscape.org/namespaces/inkscape"
   version="1.1"
   id="Layer_1"
   x="0px"
   y="0px"
   viewBox="0 0 88 72"
   xml:space="preserve"
   inkscape:version="0.91 r13725"
   sodipodi:docname="icon-winners.svg"
   width="88"
   height="72"><metadata
     id="metadata29"><rdf:RDF><cc:Work
         rdf:about=""><dc:format>image/svg+xml</dc:format><dc:type
           rdf:resource="http://purl.org/dc/dcmitype/StillImage" /><dc:title></dc:title></cc:Work></rdf:RDF></metadata><defs
     id="defs27" /><sodipodi:namedview
     pagecolor="#ffffff"
     bordercolor="#666666"
     borderopacity="1"
     objecttolerance="10"
     gridtolerance="10"
     guidetolerance="10"
     inkscape:pageopacity="0"
     inkscape:pageshadow="2"
     inkscape:window-width="1467"
     inkscape:window-height="990"
     id="namedview25"
     showgrid="false"
     fit-margin-top="2"
     fit-margin-left="2"
     fit-margin-right="2"
     fit-margin-bottom="2"
     inkscape:zoom="4.72"
     inkscape:cx="22.003844"
     inkscape:cy="16.899996"
     inkscape:window-x="911"
     inkscape:window-y="626"
     inkscape:window-maximized="0"
     inkscape:current-layer="Layer_1" /><path
     d="m 44.000149,19.053292 c 4.619128,0 8.398416,-3.836991 8.398416,-8.526646 0,-1.278997 -0.209961,-2.344828 -0.629882,-3.410659 C 50.928843,4.984326 49.249159,3.492163 47.359516,2.639498 46.309713,2.213166 45.259912,2 44.000149,2 42.740388,2 41.690585,2.213166 40.640783,2.639498 38.54118,3.492163 37.071457,5.197492 36.231616,7.115987 c -0.419921,1.065831 -0.629882,2.131662 -0.629882,3.410659 0,4.689655 3.779287,8.526646 8.398415,8.526646 z"
     id="path3"
     inkscape:connector-curvature="0"
     style="fill:#01a490" /><path
     d="m 24.893755,28.858934 c 4.619128,0 8.398415,-3.83699 8.398415,-8.526646 0,-1.278996 -0.20996,-2.344827 -0.629881,-3.410658 -0.839842,-2.131661 -2.519525,-3.623824 -4.409168,-4.476489 -1.049802,-0.426332 -2.099605,-0.639498 -3.359366,-0.639498 -1.259763,0 -2.309564,0.213166 -3.359367,0.639498 -2.099603,0.852665 -3.569327,2.557994 -4.409167,4.476489 -0.419921,1.065831 -0.629882,2.131662 -0.629882,3.410658 0,4.689656 3.569327,8.526646 8.398416,8.526646 z"
     id="path5"
     inkscape:connector-curvature="0"
     style="fill:#01a490" /><path
     d="m 63.106544,23.956113 c 4.619129,0 8.398416,-3.836991 8.398416,-8.526646 0,-1.278997 -0.209961,-2.344828 -0.629881,-3.410658 C 70.035237,9.887147 68.355554,8.394984 66.465911,7.54232 65.416108,7.115987 64.366307,6.902821 63.106544,6.902821 c -1.259761,0 -2.309564,0.213166 -3.359366,0.639499 -2.099604,0.852664 -3.569326,2.557993 -4.409168,4.476489 -0.419921,1.06583 -0.629881,2.131661 -0.629881,3.410658 0,4.689655 3.779287,8.526646 8.398415,8.526646 z"
     id="path7"
     inkscape:connector-curvature="0"
     style="fill:#01a490" /><g
     id="g9"
     transform="matrix(2.0996038,0,0,2.1316614,-8.4899465,-15.053292)"
     style="fill:#01a490"><path
       d="m 33.6,21.8 c 0.2,-0.1 0.4,-0.1 0.6,-0.1 0.2,0 0.4,0 0.6,0.1 l 1.6,-2.4 c -0.1,0 -0.3,0 -0.4,0 l -3.4,0 c -0.2,0 -0.3,0 -0.4,0 l 1.4,2.4 z"
       id="path11"
       inkscape:connector-curvature="0"
       style="fill:#01a490" /><path
       d="m 24.4,19.5 c 0.2,-0.1 0.4,-0.1 0.6,-0.1 0.2,0 0.4,0 0.6,0.1 l 1.6,-2.4 c -0.1,0 -0.3,0 -0.4,0 l -3.4,0 c -0.2,0 -0.3,0 -0.4,0 l 1.4,2.4 z"
       id="path13"
       inkscape:connector-curvature="0"
       style="fill:#01a490" /><path
       d="m 45,15.3 c -0.1,-0.9 -0.9,-1.6 -1.8,-1.6 -0.9,0.1 -1.7,0.9 -1.6,1.8 0,0.1 0.1,2.8 -2.5,4.1 -0.4,0.2 -0.8,0.4 -1.2,0.5 -0.2,-0.2 -0.5,-0.3 -0.8,-0.4 l -1.7,2.6 c 0.3,0.3 0.5,0.7 0.5,1.2 0,0.9 -0.8,1.7 -1.7,1.7 -0.9,0 -1.7,-0.8 -1.7,-1.7 0,-0.4 0.2,-0.9 0.5,-1.2 l -1.7,-2.6 c -0.4,0.2 -0.7,0.4 -1,0.7 -0.1,-1.3 -0.9,-2.5 -2.1,-3 L 26.3,20 c 0.3,0.3 0.5,0.7 0.5,1.2 0,0.9 -0.8,1.7 -1.7,1.7 -0.9,0 -1.7,-0.8 -1.7,-1.7 0,-0.4 0.2,-0.9 0.5,-1.2 L 22,17.4 c -1.3,0.5 -2.2,1.7 -2.2,3.2 l 0,2 c -0.3,-0.3 -0.6,-0.5 -1,-0.6 l -1.7,2.6 c 0.3,0.3 0.5,0.7 0.5,1.2 0,0.9 -0.8,1.7 -1.7,1.7 -0.9,0 -1.7,-0.8 -1.7,-1.7 0,-0.4 0.2,-0.9 0.5,-1.2 L 12.9,22 c -0.3,0.1 -0.6,0.3 -0.8,0.4 C 11.8,22.3 11.4,22.1 10.9,21.9 8.3,20.6 8.4,18 8.4,17.8 8.5,16.9 7.7,16.1 6.8,16 5.8,15.9 5,16.7 5,17.6 c 0,0.2 -0.3,5 4.4,7.4 0.5,0.2 0.9,0.4 1.3,0.6 l 0,4.2 c 0,1.9 1.5,3.4 3.4,3.4 l 3.4,0 18.3,0 c 1.9,0 3.4,-1.5 3.4,-3.4 l 0,-6.4 C 39.6,23.2 40,23 40.5,22.8 45.3,20.3 45,15.5 45,15.3 Z"
       id="path15"
       inkscape:connector-curvature="0"
       style="fill:#01a490" /><path
       d="M 15.3,24.1 C 15.5,24 15.7,24 15.9,24 c 0.2,0 0.4,0 0.6,0.1 l 1.6,-2.4 c -0.1,0 -0.3,0 -0.4,0 l -3.4,0 c -0.2,0 -0.3,0 -0.4,0 l 1.4,2.4 z"
       id="path17"
       inkscape:connector-curvature="0"
       style="fill:#01a490" /></g><g
     id="g19"
     transform="matrix(2.0996038,0,0,2.1316614,-8.4899465,-15.053292)"
     style="fill:#01a490"><path
       d="m 7.6,39.4 c -0.8,0 -1.5,-0.7 -1.5,-1.5 l 0,-0.6 c 0,-0.8 0.7,-1.5 1.5,-1.5 l 34.9,0 c 0.8,0 1.5,0.7 1.5,1.5 l 0,0.6 c 0,0.8 -0.7,1.5 -1.5,1.5 l -34.9,0 z"
       id="path21"
       inkscape:connector-curvature="0"
       style="fill:#01a490" /><path
       d="m 42.4,36.3 c 0.6,0 1,0.4 1,1 l 0,0.6 c 0,0.6 -0.4,1 -1,1 l -34.8,0 c -0.6,0 -1,-0.4 -1,-1 l 0,-0.6 c 0,-0.6 0.4,-1 1,-1 l 34.8,0 m 0,-1 -34.8,0 c -1.1,0 -2,0.9 -2,2 l 0,0.6 c 0,1.1 0.9,2 2,2 l 34.9,0 c 1.1,0 2,-0.9 2,-2 l 0,-0.6 c -0.1,-1.1 -1,-2 -2.1,-2 l 0,0 z"
       id="path23"
       inkscape:connector-curvature="0"
       style="fill:#01a490" /></g></svg>
