<?xml version="1.0" encoding="UTF-8" standalone="no"?>
<!-- Generator: Adobe Illustrator 21.0.0, SVG Export Plug-In . SVG Version: 6.00 Build 0)  -->

<svg
   xmlns:dc="http://purl.org/dc/elements/1.1/"
   xmlns:cc="http://creativecommons.org/ns#"
   xmlns:rdf="http://www.w3.org/1999/02/22-rdf-syntax-ns#"
   xmlns:svg="http://www.w3.org/2000/svg"
   xmlns="http://www.w3.org/2000/svg"
   xmlns:sodipodi="http://sodipodi.sourceforge.net/DTD/sodipodi-0.dtd"
   xmlns:inkscape="http://www.inkscape.org/namespaces/inkscape"
   version="1.1"
   id="Layer_1"
   x="0px"
   y="0px"
   viewBox="0 0 20 16"
   xml:space="preserve"
   inkscape:version="0.91 r13725"
   sodipodi:docname="icon-mail.svg"
   width="20"
   height="16"><metadata
     id="metadata19"><rdf:RDF><cc:Work
         rdf:about=""><dc:format>image/svg+xml</dc:format><dc:type
           rdf:resource="http://purl.org/dc/dcmitype/StillImage" /><dc:title></dc:title></cc:Work></rdf:RDF></metadata><defs
     id="defs17" /><sodipodi:namedview
     pagecolor="#ffffff"
     bordercolor="#666666"
     borderopacity="1"
     objecttolerance="10"
     gridtolerance="10"
     guidetolerance="10"
     inkscape:pageopacity="0"
     inkscape:pageshadow="2"
     inkscape:window-width="1717"
     inkscape:window-height="1264"
     id="namedview15"
     showgrid="false"
     fit-margin-top="0"
     fit-margin-left="0"
     fit-margin-right="0"
     fit-margin-bottom="0"
     inkscape:zoom="4.72"
     inkscape:cx="19.6"
     inkscape:cy="16"
     inkscape:window-x="0"
     inkscape:window-y="0"
     inkscape:window-maximized="0"
     inkscape:current-layer="Layer_1" /><style
     type="text/css"
     id="style3">
	.st0{fill:#231F20;}
</style><g
     id="g5"
     transform="matrix(0.51020408,0,0,0.52631579,-2.755102,-5.5789474)"><path
       class="st0"
       d="m 37.8,10.6 -25.6,0 c -3.7,0 -6.8,3 -6.8,6.8 l 0,16.8 c 0,3.7 3,6.8 6.8,6.8 l 25.6,0 c 3.7,0 6.8,-3 6.8,-6.8 l 0,-16.8 c 0,-3.8 -3.1,-6.8 -6.8,-6.8 z m 3.5,23.6 c 0,1.9 -1.6,3.5 -3.5,3.5 l -25.6,0 c -1.9,0 -3.5,-1.6 -3.5,-3.5 l 0,-16.8 c 0,-1.9 1.6,-3.5 3.5,-3.5 l 25.6,0 c 1.9,0 3.5,1.6 3.5,3.5 l 0,16.8 z"
       id="path7"
       inkscape:connector-curvature="0"
       style="fill:#16a5a5" /><path
       class="st0"
       d="m 38,16.4 c -0.6,-0.6 -1.7,-0.6 -2.3,0 l -9.3,9.3 c -0.7,0.7 -1.9,0.7 -2.6,0 l -9.3,-9.3 c -0.6,-0.6 -1.7,-0.6 -2.3,0 -0.6,0.6 -0.6,1.7 0,2.3 l 9.3,9.3 c 1,1 2.2,1.5 3.6,1.5 1.4,0 2.7,-0.5 3.6,-1.5 L 38,18.7 c 0.6,-0.6 0.6,-1.7 0,-2.3 z"
       id="path9"
       inkscape:connector-curvature="0"
       style="fill:#16a5a5" /><path
       class="st0"
       d="m 16.1,28.3 -4.2,4.2 c -0.6,0.6 -0.6,1.7 0,2.3 0.3,0.3 0.7,0.5 1.2,0.5 0.5,0 0.8,-0.2 1.2,-0.5 l 4.2,-4.2 c 0.6,-0.6 0.6,-1.7 0,-2.3 -0.8,-0.7 -1.8,-0.7 -2.4,0 z"
       id="path11"
       inkscape:connector-curvature="0"
       style="fill:#16a5a5" /><path
       class="st0"
       d="m 34,28.3 c -0.6,-0.6 -1.7,-0.6 -2.3,0 -0.6,0.6 -0.6,1.7 0,2.3 l 4.2,4.2 c 0.3,0.3 0.7,0.5 1.2,0.5 0.4,0 0.8,-0.2 1.2,-0.5 0.6,-0.6 0.6,-1.7 0,-2.3 L 34,28.3 Z"
       id="path13"
       inkscape:connector-curvature="0"
       style="fill:#16a5a5" /></g></svg>
