<?xml version="1.0" encoding="UTF-8" standalone="no"?>
<svg
   xmlns:dc="http://purl.org/dc/elements/1.1/"
   xmlns:cc="http://creativecommons.org/ns#"
   xmlns:rdf="http://www.w3.org/1999/02/22-rdf-syntax-ns#"
   xmlns:svg="http://www.w3.org/2000/svg"
   xmlns="http://www.w3.org/2000/svg"
   xmlns:sodipodi="http://sodipodi.sourceforge.net/DTD/sodipodi-0.dtd"
   xmlns:inkscape="http://www.inkscape.org/namespaces/inkscape"
   width="42"
   height="42"
   viewBox="0 0 42 42"
   id="svg2"
   version="1.1"
   inkscape:version="0.91 r13725"
   sodipodi:docname="icon-flickr.svg">
  <metadata
     id="metadata10">
    <rdf:RDF>
      <cc:Work
         rdf:about="">
        <dc:format>image/svg+xml</dc:format>
        <dc:type
           rdf:resource="http://purl.org/dc/dcmitype/StillImage" />
        <dc:title></dc:title>
      </cc:Work>
    </rdf:RDF>
  </metadata>
  <defs
     id="defs8" />
  <sodipodi:namedview
     pagecolor="#ffffff"
     bordercolor="#666666"
     borderopacity="1"
     objecttolerance="10"
     gridtolerance="10"
     guidetolerance="10"
     inkscape:pageopacity="0"
     inkscape:pageshadow="2"
     inkscape:window-width="1998"
     inkscape:window-height="1400"
     id="namedview6"
     showgrid="false"
     fit-margin-top="9"
     fit-margin-left="9"
     fit-margin-right="9"
     fit-margin-bottom="9"
     inkscape:zoom="23.8396"
     inkscape:cx="20.843722"
     inkscape:cy="20.972109"
     inkscape:window-x="0"
     inkscape:window-y="0"
     inkscape:window-maximized="0"
     inkscape:current-layer="svg2" />
  <path
     d="m 28.5,9 q 1.85937,0 3.17969,1.3203 Q 33,11.6406 33,13.5 l 0,15 q 0,1.8594 -1.32031,3.1797 Q 30.35937,33 28.5,33 l -15,0 Q 11.64062,33 10.32031,31.6797 9,30.3594 9,28.5 l 0,-15 Q 9,11.6406 10.32031,10.3203 11.64062,9 13.5,9 l 15,0 z m -8.59375,12 q 0,-1.375 -0.96875,-2.3437 -0.96875,-0.9688 -2.34375,-0.9688 -1.375,0 -2.34375,0.9688 -0.96875,0.9687 -0.96875,2.3437 0,1.375 0.96875,2.3438 0.96875,0.9687 2.34375,0.9687 1.375,0 2.34375,-0.9687 Q 19.90625,22.375 19.90625,21 Z m 8.8125,0 q 0,-1.375 -0.96875,-2.3437 -0.96875,-0.9688 -2.34375,-0.9688 -1.375,0 -2.34375,0.9688 -0.96875,0.9687 -0.96875,2.3437 0,1.375 0.96875,2.3438 0.96875,0.9687 2.34375,0.9687 1.375,0 2.34375,-0.9687 Q 28.71875,22.375 28.71875,21 Z"
     id="path4"
     inkscape:connector-curvature="0"
     style="fill:#20bdbe" />
</svg>
