<?xml version="1.0" encoding="UTF-8" standalone="no"?>
<svg
   xmlns:dc="http://purl.org/dc/elements/1.1/"
   xmlns:cc="http://creativecommons.org/ns#"
   xmlns:rdf="http://www.w3.org/1999/02/22-rdf-syntax-ns#"
   xmlns:svg="http://www.w3.org/2000/svg"
   xmlns="http://www.w3.org/2000/svg"
   xmlns:sodipodi="http://sodipodi.sourceforge.net/DTD/sodipodi-0.dtd"
   xmlns:inkscape="http://www.inkscape.org/namespaces/inkscape"
   version="1"
   width="42"
   height="42"
   viewBox="0 0 42 42"
   id="svg2"
   inkscape:version="0.91 r13725"
   sodipodi:docname="icon-twitter.svg">
  <metadata
     id="metadata10">
    <rdf:RDF>
      <cc:Work
         rdf:about="">
        <dc:format>image/svg+xml</dc:format>
        <dc:type
           rdf:resource="http://purl.org/dc/dcmitype/StillImage" />
        <dc:title></dc:title>
      </cc:Work>
    </rdf:RDF>
  </metadata>
  <defs
     id="defs8" />
  <sodipodi:namedview
     pagecolor="#ffffff"
     bordercolor="#666666"
     borderopacity="1"
     objecttolerance="10"
     gridtolerance="10"
     guidetolerance="10"
     inkscape:pageopacity="0"
     inkscape:pageshadow="2"
     inkscape:window-width="1446"
     inkscape:window-height="975"
     id="namedview6"
     showgrid="false"
     fit-margin-top="11"
     fit-margin-left="9"
     fit-margin-right="9"
     fit-margin-bottom="11"
     inkscape:zoom="9.8333333"
     inkscape:cx="21"
     inkscape:cy="20.5"
     inkscape:window-x="804"
     inkscape:window-y="564"
     inkscape:window-maximized="0"
     inkscape:current-layer="svg2" />
  <path
     d="m 33,13.358974 c -0.9,0.410257 -1.8,0.717949 -2.8,0.820513 1,-0.615384 1.8,-1.641025 2.2,-2.769231 -1,0.615385 -1.999999,1.025641 -3.1,1.23077 C 28.3,11.615385 27,11 25.6,11 c -2.7,0 -4.9,2.25641 -4.9,5.025641 0,0.410256 0,0.820513 0.100001,1.128205 C 16.7,16.948718 13.1,15 10.7,11.923077 10.2,12.641026 10,13.564103 10,14.487179 c 0,1.74359 0.9,3.282052 2.2,4.205129 -0.8,-0.102565 -1.6,-0.307693 -2.2,-0.615385 0,0 0,0 0,0.102564 0,2.461539 1.7,4.51282 3.9,4.923078 -0.4,0.102563 -0.8,0.205128 -1.3,0.205128 -0.3,0 -0.6,0 -0.9,-0.102565 0.6,2.051282 2.4,3.487179 4.6,3.487179 -1.7,1.333334 -3.8,2.153847 -6.1,2.153847 -0.4,0 -0.8,0 -1.2,-0.102564 C 11.2,30.179487 13.8,31 16.5,31 c 9.1,0 13.999999,-7.692307 13.999999,-14.358974 0,-0.205129 0,-0.410257 0,-0.615385 C 31.5,15.307692 32.299999,14.384615 33,13.358974"
     id="path4"
     inkscape:connector-curvature="0"
     style="fill:#20bdbe" />
</svg>
