<?xml version="1.0" encoding="UTF-8" standalone="no"?>
<!-- Generator: Adobe Illustrator 21.0.2, SVG Export Plug-In . SVG Version: 6.00 Build 0)  -->

<svg
   xmlns:dc="http://purl.org/dc/elements/1.1/"
   xmlns:cc="http://creativecommons.org/ns#"
   xmlns:rdf="http://www.w3.org/1999/02/22-rdf-syntax-ns#"
   xmlns:svg="http://www.w3.org/2000/svg"
   xmlns="http://www.w3.org/2000/svg"
   xmlns:sodipodi="http://sodipodi.sourceforge.net/DTD/sodipodi-0.dtd"
   xmlns:inkscape="http://www.inkscape.org/namespaces/inkscape"
   version="1.1"
   id="Layer_1"
   x="0px"
   y="0px"
   viewBox="0 0 35 35"
   xml:space="preserve"
   inkscape:version="0.91 r13725"
   sodipodi:docname="icon-clock.svg"
   width="35"
   height="35"><metadata
     id="metadata17"><rdf:RDF><cc:Work
         rdf:about=""><dc:format>image/svg+xml</dc:format><dc:type
           rdf:resource="http://purl.org/dc/dcmitype/StillImage" /><dc:title></dc:title></cc:Work></rdf:RDF></metadata><defs
     id="defs15" /><sodipodi:namedview
     pagecolor="#ffffff"
     bordercolor="#666666"
     borderopacity="1"
     objecttolerance="10"
     gridtolerance="10"
     guidetolerance="10"
     inkscape:pageopacity="0"
     inkscape:pageshadow="2"
     inkscape:window-width="1409"
     inkscape:window-height="846"
     id="namedview13"
     showgrid="false"
     fit-margin-top="1"
     fit-margin-left="1"
     fit-margin-right="1"
     fit-margin-bottom="1"
     inkscape:zoom="4.72"
     inkscape:cx="16.9"
     inkscape:cy="18"
     inkscape:window-x="1188"
     inkscape:window-y="567"
     inkscape:window-maximized="0"
     inkscape:current-layer="Layer_1" /><style
     type="text/css"
     id="style3">
	.st0{fill:#1A1818;}
</style><g
     id="g5"
     transform="translate(-8.1,-8)"
     style="fill:#01a490"><path
       class="st0"
       d="M 25.6,42 C 16.5,42 9.1,34.6 9.1,25.5 9.1,16.4 16.5,9 25.6,9 34.7,9 42.1,16.4 42.1,25.5 42.1,34.6 34.7,42 25.6,42 Z m 0,-28.7 c -6.7,0 -12.2,5.5 -12.2,12.2 0,6.7 5.5,12.2 12.2,12.2 6.7,0 12.2,-5.5 12.2,-12.2 0,-6.7 -5.5,-12.2 -12.2,-12.2 z"
       id="path7"
       inkscape:connector-curvature="0"
       style="fill:#01a490" /></g><g
     id="g9"
     transform="translate(-8.1,-8)"
     style="fill:#01a490"><path
       class="st0"
       d="m 31,29.3 -5.4,0 c -1.2,0 -2.1,-1 -2.1,-2.1 l 0,-7.2 c 0,-1.2 1,-2.1 2.1,-2.1 1.1,0 2.1,1 2.1,2.1 l 0,5 3.3,0 c 1.2,0 2.1,1 2.1,2.1 0,1.2 -0.9,2.2 -2.1,2.2 z"
       id="path11"
       inkscape:connector-curvature="0"
       style="fill:#01a490" /></g></svg>
