<?xml version="1.0" encoding="UTF-8" standalone="no"?>
<!-- Generator: Adobe Illustrator 21.0.2, SVG Export Plug-In . SVG Version: 6.00 Build 0)  -->

<svg
   xmlns:dc="http://purl.org/dc/elements/1.1/"
   xmlns:cc="http://creativecommons.org/ns#"
   xmlns:rdf="http://www.w3.org/1999/02/22-rdf-syntax-ns#"
   xmlns:svg="http://www.w3.org/2000/svg"
   xmlns="http://www.w3.org/2000/svg"
   xmlns:sodipodi="http://sodipodi.sourceforge.net/DTD/sodipodi-0.dtd"
   xmlns:inkscape="http://www.inkscape.org/namespaces/inkscape"
   version="1.1"
   id="Layer_1"
   x="0px"
   y="0px"
   viewBox="0 0 38 38"
   xml:space="preserve"
   inkscape:version="0.91 r13725"
   sodipodi:docname="icon-signedin-user.svg"
   width="38"
   height="38"><metadata
     id="metadata17"><rdf:RDF><cc:Work
         rdf:about=""><dc:format>image/svg+xml</dc:format><dc:type
           rdf:resource="http://purl.org/dc/dcmitype/StillImage" /><dc:title></dc:title></cc:Work></rdf:RDF></metadata><defs
     id="defs15" /><sodipodi:namedview
     pagecolor="#ffffff"
     bordercolor="#666666"
     borderopacity="1"
     objecttolerance="10"
     gridtolerance="10"
     guidetolerance="10"
     inkscape:pageopacity="0"
     inkscape:pageshadow="2"
     inkscape:window-width="1546"
     inkscape:window-height="992"
     id="namedview13"
     showgrid="false"
     fit-margin-top="0"
     fit-margin-left="0"
     fit-margin-right="0"
     fit-margin-bottom="0"
     inkscape:zoom="4.72"
     inkscape:cx="20.3"
     inkscape:cy="19.70209"
     inkscape:window-x="1021"
     inkscape:window-y="685"
     inkscape:window-maximized="0"
     inkscape:current-layer="Layer_1" /><style
     type="text/css"
     id="style3">
	.st0{fill:#FFFFFF;}
	.st1{fill:#2EB0B0;}
</style><g
     id="g5"
     transform="matrix(0.94527363,0,0,0.94995041,-4.4427861,-4.4647669)"><path
       class="st0"
       d="M 21.6,30.6 C 20.4,29.6 19.1,27.7 18.4,26.4 16,22 16,21.2 13.9,16.7 13.1,15 13.6,13.4 15,12.8 c 1.5,-0.7 2.9,-0.1 3.7,1.6 2,4.2 2,4.5 3.9,8.8 0.8,1.8 2,2.7 4.1,2.6 2.9,-0.1 5.8,-0.1 8.7,0.2 3.2,0.4 4.8,2.1 5.3,5.2 0.4,2.3 0.6,3.6 0.8,4.8 2.2,-3.2 3.4,-7.1 3.4,-11.2 0,-11.1 -9,-20.1 -20.1,-20.1 -11.1,0 -20.1,9 -20.1,20.1 0,10.3 7.7,18.7 17.7,19.9 0,-3.9 0,-7.8 0,-12.1 0.2,-0.9 -0.1,-1.4 -0.8,-2 z m 8.9,-19.1 c 3.3,0.1 6.1,3 6.1,6.2 -0.1,3.4 -2.8,6.1 -6.2,6.1 -3.3,0 -6.1,-2.8 -6.1,-6.1 0,-3.4 2.9,-6.3 6.2,-6.2 z"
       id="path7"
       inkscape:connector-curvature="0"
       style="fill:#ffffff" /><path
       class="st1"
       d="m 30.4,23.8 c 3.3,0 6.1,-2.7 6.2,-6.1 0.1,-3.2 -2.7,-6.1 -6.1,-6.2 -3.3,-0.1 -6.3,2.8 -6.3,6.2 0.1,3.3 2.9,6.1 6.2,6.1 z"
       id="path9"
       inkscape:connector-curvature="0"
       style="fill:#2eb0b0" /><path
       class="st1"
       d="M 41.5,36 C 41.3,34.8 41.1,33.5 40.7,31.2 40.1,28 38.5,26.3 35.4,26 32.5,25.7 29.6,25.7 26.7,25.8 24.6,25.9 23.5,25 22.6,23.2 20.7,19 20.7,18.6 18.7,14.4 17.9,12.7 16.5,12.1 15,12.8 c -1.4,0.7 -1.9,2.3 -1.1,3.9 2.1,4.5 2.1,5.3 4.4,9.7 0.7,1.4 2,3.3 3.2,4.2 0.7,0.6 1,1 1,1.9 0,4.3 0,8.3 0,12.1 0.8,0.1 1.5,0.1 2.3,0.1 7,0.1 13.1,-3.4 16.7,-8.7 z"
       id="path11"
       inkscape:connector-curvature="0"
       style="fill:#2eb0b0" /></g></svg>