<?xml version="1.0" encoding="UTF-8" standalone="no"?>
<svg
   xmlns:dc="http://purl.org/dc/elements/1.1/"
   xmlns:cc="http://creativecommons.org/ns#"
   xmlns:rdf="http://www.w3.org/1999/02/22-rdf-syntax-ns#"
   xmlns:svg="http://www.w3.org/2000/svg"
   xmlns="http://www.w3.org/2000/svg"
   xmlns:sodipodi="http://sodipodi.sourceforge.net/DTD/sodipodi-0.dtd"
   xmlns:inkscape="http://www.inkscape.org/namespaces/inkscape"
   width="42"
   height="42"
   viewBox="0 0 42 42"
   id="svg2"
   version="1.1"
   inkscape:version="0.91 r13725"
   sodipodi:docname="icon-youtube.svg">
  <metadata
     id="metadata10">
    <rdf:RDF>
      <cc:Work
         rdf:about="">
        <dc:format>image/svg+xml</dc:format>
        <dc:type
           rdf:resource="http://purl.org/dc/dcmitype/StillImage" />
        <dc:title></dc:title>
      </cc:Work>
    </rdf:RDF>
  </metadata>
  <defs
     id="defs8" />
  <sodipodi:namedview
     pagecolor="#ffffff"
     bordercolor="#666666"
     borderopacity="1"
     objecttolerance="10"
     gridtolerance="10"
     guidetolerance="10"
     inkscape:pageopacity="0"
     inkscape:pageshadow="2"
     inkscape:window-width="1581"
     inkscape:window-height="1133"
     id="namedview6"
     showgrid="false"
     fit-margin-top="11"
     fit-margin-left="7"
     fit-margin-right="7"
     fit-margin-bottom="11"
     inkscape:zoom="11.9198"
     inkscape:cx="52.792038"
     inkscape:cy="29.67001"
     inkscape:window-x="874"
     inkscape:window-y="544"
     inkscape:window-maximized="0"
     inkscape:current-layer="svg2" />
  <path
     d="m 27,21 q 0,-0.5781 -0.46875,-0.8437 l -8,-5 Q 18.046875,14.8438 17.515625,15.1253 17,15.4063 17,16 l 0,10 q 0,0.5938 0.515625,0.875 Q 17.765625,27 18,27 q 0.3125,0 0.53125,-0.1562 l 8,-5 Q 27,21.5781 27,21 Z m 8,0 q 0,1.5 -0.01563,2.3438 -0.01563,0.8437 -0.132813,2.1328 -0.117187,1.289 -0.351562,2.3047 -0.25,1.1406 -1.078125,1.9218 -0.828125,0.7813 -1.9375,0.9063 Q 28.015625,31 21,31 13.984375,31 10.515625,30.6094 9.40625,30.4844 8.570313,29.7031 7.734375,28.9219 7.484375,27.7813 7.265625,26.7656 7.148438,25.4766 7.03125,24.1875 7.015625,23.3438 7,22.5 7,21 q 0,-1.5 0.01563,-2.3437 0.01563,-0.8438 0.132813,-2.1329 0.117187,-1.289 0.351562,-2.3046 0.25,-1.1407 1.078125,-1.9219 0.828125,-0.7813 1.9375,-0.9063 Q 13.984375,11 21,11 q 7.015625,0 10.484375,0.3906 1.109375,0.125 1.945312,0.9063 0.835938,0.7812 1.085938,1.9219 0.21875,1.0156 0.335937,2.3046 0.117188,1.2891 0.132813,2.1329 Q 35,19.5 35,21 Z"
     id="path4"
     inkscape:connector-curvature="0"
     style="fill:#20bdbe" />
</svg>
