<?xml version="1.0" encoding="UTF-8" standalone="no"?>
<!-- Generator: Adobe Illustrator 21.0.0, SVG Export Plug-In . SVG Version: 6.00 Build 0)  -->

<svg
   xmlns:dc="http://purl.org/dc/elements/1.1/"
   xmlns:cc="http://creativecommons.org/ns#"
   xmlns:rdf="http://www.w3.org/1999/02/22-rdf-syntax-ns#"
   xmlns:svg="http://www.w3.org/2000/svg"
   xmlns="http://www.w3.org/2000/svg"
   xmlns:sodipodi="http://sodipodi.sourceforge.net/DTD/sodipodi-0.dtd"
   xmlns:inkscape="http://www.inkscape.org/namespaces/inkscape"
   version="1.1"
   id="Layer_1"
   x="0px"
   y="0px"
   viewBox="0 0 50 50"
   xml:space="preserve"
   inkscape:version="0.91 r13725"
   sodipodi:docname="icon-calendar.svg"
   width="50"
   height="50"><metadata
     id="metadata25"><rdf:RDF><cc:Work
         rdf:about=""><dc:format>image/svg+xml</dc:format><dc:type
           rdf:resource="http://purl.org/dc/dcmitype/StillImage" /><dc:title></dc:title></cc:Work></rdf:RDF></metadata><defs
     id="defs23" /><sodipodi:namedview
     pagecolor="#ffffff"
     bordercolor="#666666"
     borderopacity="1"
     objecttolerance="10"
     gridtolerance="10"
     guidetolerance="10"
     inkscape:pageopacity="0"
     inkscape:pageshadow="2"
     inkscape:window-width="1472"
     inkscape:window-height="1115"
     id="namedview21"
     showgrid="false"
     fit-margin-top="11"
     fit-margin-left="12"
     fit-margin-right="12"
     fit-margin-bottom="11"
     inkscape:zoom="4.72"
     inkscape:cx="30.4"
     inkscape:cy="31.200008"
     inkscape:window-x="990"
     inkscape:window-y="494"
     inkscape:window-maximized="0"
     inkscape:current-layer="Layer_1" /><style
     type="text/css"
     id="style3">
	.st0{fill:#231F20;}
</style><g
     id="g5"
     transform="matrix(0.71232877,0,0,0.70707071,7.2986301,7.040404)"
     style="fill:#20bdbe"><path
       class="st0"
       d="m 33.7,8.9 0,-1.7 c 0,-0.9 -0.7,-1.6 -1.6,-1.6 -0.9,0 -1.6,0.7 -1.6,1.6 l 0,1.6 -11.4,0 0,-1.6 c 0,-0.9 -0.7,-1.6 -1.6,-1.6 -0.9,0 -1.6,0.7 -1.6,1.6 l 0,1.6 c -5.2,0.3 -9.3,4.6 -9.3,9.8 l 0,16.7 c 0,5.4 4.4,9.9 9.9,9.9 l 16.7,0 c 5.4,0 9.9,-4.4 9.9,-9.9 l 0,-16.6 C 43,13.4 38.9,9.2 33.7,8.9 Z m -17.9,3.3 0,1.5 c 0,0.9 0.7,1.6 1.6,1.6 0.9,0 1.6,-0.7 1.6,-1.6 l 0,-1.6 11.3,0 0,1.6 c 0,0.9 0.7,1.6 1.6,1.6 0.9,0 1.6,-0.7 1.6,-1.6 l 0,-1.5 c 3.2,0.3 5.7,2.8 6,6 l -29.6,0 c 0.3,-3.2 2.8,-5.8 5.9,-6 z M 33.1,42 16.4,42 C 12.8,42 9.8,39 9.8,35.4 l 0,-14 29.9,0 0,14 c 0,3.6 -2.9,6.6 -6.6,6.6 z"
       id="path7"
       inkscape:connector-curvature="0"
       style="fill:#20bdbe" /><circle
       class="st0"
       cx="33.599998"
       cy="26.9"
       r="2.7"
       id="circle9"
       style="fill:#20bdbe" /><circle
       class="st0"
       cx="16"
       cy="26.9"
       r="2.7"
       id="circle11"
       style="fill:#20bdbe" /><circle
       class="st0"
       cx="24.799999"
       cy="26.9"
       r="2.7"
       id="circle13"
       style="fill:#20bdbe" /><circle
       class="st0"
       cx="33.599998"
       cy="35.799999"
       r="2.7"
       id="circle15"
       style="fill:#20bdbe" /><circle
       class="st0"
       cx="16"
       cy="35.799999"
       r="2.7"
       id="circle17"
       style="fill:#20bdbe" /><circle
       class="st0"
       cx="24.799999"
       cy="35.799999"
       r="2.7"
       id="circle19"
       style="fill:#20bdbe" /></g></svg>