<?xml version="1.0" encoding="UTF-8" standalone="no"?>
<!-- Generator: Adobe Illustrator 21.0.2, SVG Export Plug-In . SVG Version: 6.00 Build 0)  -->

<svg
   xmlns:dc="http://purl.org/dc/elements/1.1/"
   xmlns:cc="http://creativecommons.org/ns#"
   xmlns:rdf="http://www.w3.org/1999/02/22-rdf-syntax-ns#"
   xmlns:svg="http://www.w3.org/2000/svg"
   xmlns="http://www.w3.org/2000/svg"
   xmlns:sodipodi="http://sodipodi.sourceforge.net/DTD/sodipodi-0.dtd"
   xmlns:inkscape="http://www.inkscape.org/namespaces/inkscape"
   version="1.1"
   id="Layer_1"
   x="0px"
   y="0px"
   viewBox="0 0 25.5 26.799999"
   xml:space="preserve"
   inkscape:version="0.91 r13725"
   sodipodi:docname="icon-login-.svg"
   width="25.5"
   height="26.799999"><metadata
     id="metadata15"><rdf:RDF><cc:Work
         rdf:about=""><dc:format>image/svg+xml</dc:format><dc:type
           rdf:resource="http://purl.org/dc/dcmitype/StillImage" /><dc:title></dc:title></cc:Work></rdf:RDF></metadata><defs
     id="defs13" /><sodipodi:namedview
     pagecolor="#ffffff"
     bordercolor="#666666"
     borderopacity="1"
     objecttolerance="10"
     gridtolerance="10"
     guidetolerance="10"
     inkscape:pageopacity="0"
     inkscape:pageshadow="2"
     inkscape:window-width="1517"
     inkscape:window-height="1184"
     id="namedview11"
     showgrid="false"
     fit-margin-top="0"
     fit-margin-left="0"
     fit-margin-right="0"
     fit-margin-bottom="0"
     inkscape:zoom="4.72"
     inkscape:cx="13.5"
     inkscape:cy="13.1"
     inkscape:window-x="0"
     inkscape:window-y="0"
     inkscape:window-maximized="0"
     inkscape:current-layer="Layer_1" /><style
     type="text/css"
     id="style3">
	.st0{fill:#1A1718;}
</style><g
     id="g5"
     transform="translate(-11.5,-11.3)"
     style="fill:#ffffff"><path
       class="st0"
       d="m 20.9,30.3 c -0.6,0.6 -0.6,1.5 0,2.1 0.3,0.3 0.7,0.4 1.1,0.4 0.4,0 0.8,-0.1 1.1,-0.4 L 30.8,24.7 23.1,17 c -0.6,-0.6 -1.5,-0.6 -2.1,0 -0.6,0.6 -0.6,1.5 0,2.1 l 4.1,4.1 -12.1,0 c -0.8,0 -1.5,0.7 -1.5,1.5 0,0.8 0.7,1.5 1.5,1.5 l 12.1,0 -4.2,4.1 z"
       id="path7"
       inkscape:connector-curvature="0"
       style="fill:#ffffff" /><path
       class="st0"
       d="m 31.5,11.3 -10.8,0 c -3,0 -5.5,2.2 -5.5,5 l 0,4.7 4,0 0,-4.7 c 0,-0.5 0.6,-1 1.5,-1 l 10.8,0 c 0.9,0 1.5,0.5 1.5,1 l 0,16.8 c 0,0.5 -0.6,1 -1.5,1 l -10.8,0 c -0.9,0 -1.5,-0.5 -1.5,-1 l 0,-4.6 -4,0 0,4.6 c 0,2.8 2.5,5 5.5,5 l 10.8,0 c 3,0 5.5,-2.2 5.5,-5 l 0,-16.8 c 0,-2.8 -2.5,-5 -5.5,-5 z"
       id="path9"
       inkscape:connector-curvature="0"
       style="fill:#ffffff" /></g></svg>