<?xml version="1.0" encoding="UTF-8" standalone="no"?>
<!-- Generator: Adobe Illustrator 17.0.0, SVG Export Plug-In . SVG Version: 6.00 Build 0)  -->

<svg
   xmlns:dc="http://purl.org/dc/elements/1.1/"
   xmlns:cc="http://creativecommons.org/ns#"
   xmlns:rdf="http://www.w3.org/1999/02/22-rdf-syntax-ns#"
   xmlns:svg="http://www.w3.org/2000/svg"
   xmlns="http://www.w3.org/2000/svg"
   xmlns:xlink="http://www.w3.org/1999/xlink"
   xmlns:sodipodi="http://sodipodi.sourceforge.net/DTD/sodipodi-0.dtd"
   xmlns:inkscape="http://www.inkscape.org/namespaces/inkscape"
   version="1.1"
   id="Layer_1"
   x="0px"
   y="0px"
   width="58.948944"
   height="31.431999"
   viewBox="0 0 58.948943 31.432"
   enable-background="new 0 0 58.949 31.432"
   xml:space="preserve"
   inkscape:version="0.91 r13725"
   sodipodi:docname="icon-swimming.svg"><metadata
     id="metadata21"><rdf:RDF><cc:Work
         rdf:about=""><dc:format>image/svg+xml</dc:format><dc:type
           rdf:resource="http://purl.org/dc/dcmitype/StillImage" /><dc:title></dc:title></cc:Work></rdf:RDF></metadata><defs
     id="defs19" /><sodipodi:namedview
     pagecolor="#ffffff"
     bordercolor="#666666"
     borderopacity="1"
     objecttolerance="10"
     gridtolerance="10"
     guidetolerance="10"
     inkscape:pageopacity="0"
     inkscape:pageshadow="2"
     inkscape:window-width="640"
     inkscape:window-height="480"
     id="namedview17"
     showgrid="false"
     fit-margin-top="0"
     fit-margin-left="0"
     fit-margin-right="0"
     fit-margin-bottom="0"
     inkscape:zoom="4.9704029"
     inkscape:cx="29.474413"
     inkscape:cy="15.715985"
     inkscape:window-x="0"
     inkscape:window-y="25"
     inkscape:window-maximized="0"
     inkscape:current-layer="Layer_1" /><g
     id="g3"
     transform="translate(-5.8589393e-5,0)"><defs
       id="defs5"><rect
         id="SVGID_1_"
         y="0"
         width="58.949001"
         height="31.431999"
         x="0" /></defs><clipPath
       id="SVGID_2_"><use
         xlink:href="#SVGID_1_"
         overflow="visible"
         id="use9"
         style="overflow:visible"
         x="0"
         y="0"
         width="100%"
         height="100%" /></clipPath><path
       clip-path="url(#SVGID_2_)"
       d="m 33.103,9.387 c 0,-3.852 3.118,-6.964 6.964,-6.964 3.845,0 6.963,3.112 6.963,6.964 0,3.839 -3.118,6.959 -6.963,6.959 -3.846,0 -6.964,-3.12 -6.964,-6.959"
       id="path11"
       inkscape:connector-curvature="0"
       style="clip-rule:evenodd;fill:#e5e5e5;fill-rule:evenodd" /><path
       clip-path="url(#SVGID_2_)"
       d="m 31.115,31.432 c -3.422,0 -7.246,-0.845 -11.501,-3.084 C 10.835,23.74 4.678,26.978 2.654,28.043 1.769,28.511 0.674,28.169 0.21,27.284 -0.257,26.398 0.081,25.305 0.967,24.838 c 6.547,-3.448 13.388,-3.342 20.335,0.306 8.899,4.675 15.416,2.329 20.616,-0.588 8.081,-4.533 14.71,-2.011 15.953,-1.466 0.915,0.406 1.325,1.474 0.926,2.387 -0.404,0.914 -1.472,1.333 -2.391,0.925 -0.593,-0.26 -6.002,-2.454 -12.713,1.312 -3.389,1.898 -7.55,3.718 -12.578,3.718"
       id="path13"
       inkscape:connector-curvature="0"
       style="clip-rule:evenodd;fill:#e5e5e5;fill-rule:evenodd" /><path
       clip-path="url(#SVGID_2_)"
       d="m 58.797,19.009 c -0.404,0.913 -1.471,1.328 -2.391,0.925 -0.592,-0.264 -6.001,-2.455 -12.712,1.306 -3.39,1.9 -7.55,3.714 -12.579,3.714 -3.422,0.008 -7.245,-0.836 -11.5,-3.073 C 10.835,17.269 4.679,20.509 2.654,21.569 1.769,22.041 0.674,21.7 0.211,20.81 -0.257,19.926 0.082,18.832 0.967,18.368 c 6.548,-3.447 13.388,-3.343 20.335,0.308 0.009,0.004 0.015,0.006 0.024,0.013 l 4.238,-4.041 -6.501,-8.305 -9.857,0 C 7.453,6.343 6.034,4.922 6.034,3.17 6.034,1.42 7.452,0 9.206,0 L 20.61,0 c 0.977,0 1.895,0.45 2.495,1.218 l 14.713,18.82 c 1.456,-0.554 2.819,-1.238 4.101,-1.956 8.08,-4.531 14.709,-2.014 15.952,-1.466 0.915,0.406 1.325,1.477 0.926,2.393"
       id="path15"
       inkscape:connector-curvature="0"
       style="clip-rule:evenodd;fill:#e5e5e5;fill-rule:evenodd" /></g></svg>