<?xml version="1.0" encoding="UTF-8" standalone="no"?>
<!-- Generator: Adobe Illustrator 17.0.0, SVG Export Plug-In . SVG Version: 6.00 Build 0)  -->

<svg
   xmlns:dc="http://purl.org/dc/elements/1.1/"
   xmlns:cc="http://creativecommons.org/ns#"
   xmlns:rdf="http://www.w3.org/1999/02/22-rdf-syntax-ns#"
   xmlns:svg="http://www.w3.org/2000/svg"
   xmlns="http://www.w3.org/2000/svg"
   xmlns:xlink="http://www.w3.org/1999/xlink"
   xmlns:sodipodi="http://sodipodi.sourceforge.net/DTD/sodipodi-0.dtd"
   xmlns:inkscape="http://www.inkscape.org/namespaces/inkscape"
   version="1.1"
   id="Layer_1"
   x="0px"
   y="0px"
   width="30.93066"
   height="21"
   viewBox="0 0 30.93066 21"
   enable-background="new 0 0 30.931 21"
   xml:space="preserve"
   inkscape:version="0.91 r13725"
   sodipodi:docname="icon-rock-press-active.svg"><metadata
     id="metadata23"><rdf:RDF><cc:Work
         rdf:about=""><dc:format>image/svg+xml</dc:format><dc:type
           rdf:resource="http://purl.org/dc/dcmitype/StillImage" /><dc:title></dc:title></cc:Work></rdf:RDF></metadata><defs
     id="defs21" /><sodipodi:namedview
     pagecolor="#ffffff"
     bordercolor="#666666"
     borderopacity="1"
     objecttolerance="10"
     gridtolerance="10"
     guidetolerance="10"
     inkscape:pageopacity="0"
     inkscape:pageshadow="2"
     inkscape:window-width="640"
     inkscape:window-height="480"
     id="namedview19"
     showgrid="false"
     fit-margin-top="0"
     fit-margin-left="0"
     fit-margin-right="0"
     fit-margin-bottom="0"
     inkscape:zoom="9.4726974"
     inkscape:cx="15.465161"
     inkscape:cy="10.5"
     inkscape:window-x="0"
     inkscape:window-y="25"
     inkscape:window-maximized="0"
     inkscape:current-layer="Layer_1" /><g
     id="g3"
     transform="translate(-3.3899648e-4,0)"><defs
       id="defs5"><rect
         id="SVGID_1_"
         width="30.931"
         height="21"
         x="0"
         y="0" /></defs><clipPath
       id="SVGID_2_"><use
         xlink:href="#SVGID_1_"
         overflow="visible"
         id="use9"
         style="overflow:visible"
         x="0"
         y="0"
         width="100%"
         height="100%" /></clipPath><path
       clip-path="url(#SVGID_2_)"
       d="m 14.91,3.761 c -0.121,-1.952 1.363,-3.633 3.315,-3.754 1.952,-0.122 3.633,1.362 3.754,3.315"
       id="path11"
       inkscape:connector-curvature="0"
       style="fill:#fcaf1b" /><path
       clip-path="url(#SVGID_2_)"
       d="M 22.971,8.067 C 23.882,8.037 24.597,7.274 24.567,6.363 24.537,5.451 23.766,4.733 22.863,4.767 L 14.474,5.042 C 14.44,5.044 14.409,5.053 14.375,5.056 14.319,5.061 14.263,5.067 14.208,5.078 14.154,5.089 14.102,5.103 14.05,5.119 14,5.134 13.951,5.15 13.903,5.17 c -0.051,0.021 -0.1,0.045 -0.148,0.071 -0.046,0.024 -0.091,0.05 -0.135,0.079 -0.046,0.03 -0.089,0.063 -0.131,0.098 -0.04,0.033 -0.079,0.066 -0.116,0.103 -0.042,0.041 -0.08,0.085 -0.117,0.131 -0.021,0.025 -0.045,0.045 -0.064,0.072 -0.011,0.014 -0.017,0.03 -0.027,0.045 -0.033,0.049 -0.061,0.101 -0.089,0.154 -0.024,0.045 -0.048,0.088 -0.067,0.134 -0.021,0.05 -0.036,0.101 -0.052,0.153 -0.016,0.053 -0.033,0.105 -0.044,0.158 -0.009,0.049 -0.014,0.098 -0.019,0.147 -0.006,0.06 -0.012,0.12 -0.012,0.18 0,0.017 -0.004,0.034 -0.004,0.052 0.002,0.033 0.01,0.064 0.013,0.097 0.006,0.056 0.011,0.112 0.022,0.167 0.011,0.054 0.025,0.104 0.041,0.156 0.015,0.049 0.03,0.098 0.05,0.146 0.02,0.051 0.045,0.099 0.07,0.148 0.024,0.045 0.048,0.089 0.076,0.132 0.031,0.047 0.065,0.09 0.1,0.133 0.031,0.039 0.062,0.078 0.097,0.114 0.043,0.044 0.09,0.083 0.137,0.122 0.027,0.022 0.048,0.047 0.076,0.067 l 3.765,2.729 -4.538,4.537 -4.395,-3.439 c -0.678,-0.53 -1.648,-0.452 -2.23,0.179 l -5.723,6.194 c -0.619,0.67 -0.578,1.714 0.092,2.333 C 0.848,20.855 1.25,21 1.651,21 2.095,21 2.538,20.822 2.864,20.47 l 4.691,-5.077 5.397,4.225 0.169,0.169 c 1.027,1.027 2.708,1.027 3.735,0 l 5.552,-5.552 c 0.955,-0.955 1.01,-2.47 0.188,-3.504 C 22.482,10.505 22.32,10.3 22.101,10.141 L 21.915,10.006 21.863,9.955 C 21.662,9.754 21.432,9.605 21.192,9.482 L 19.4,8.184 22.971,8.067 Z"
       id="path13"
       inkscape:connector-curvature="0"
       style="fill:#fcaf1b" /><path
       clip-path="url(#SVGID_2_)"
       d="m 23.067,18.737 c -0.439,0 -0.86,-0.246 -1.063,-0.668 -0.282,-0.587 -0.035,-1.292 0.552,-1.574 1.975,-0.949 2.81,-3.329 1.861,-5.305 -0.282,-0.587 -0.035,-1.291 0.552,-1.573 0.585,-0.283 1.291,-0.035 1.572,0.551 1.513,3.148 0.184,6.939 -2.964,8.452 -0.165,0.079 -0.339,0.117 -0.51,0.117"
       id="path15"
       inkscape:connector-curvature="0"
       style="fill:#fcaf1b" /><path
       clip-path="url(#SVGID_2_)"
       d="m 25.444,20.936 c -0.439,0 -0.86,-0.246 -1.063,-0.668 -0.282,-0.587 -0.035,-1.292 0.552,-1.574 1.544,-0.742 2.707,-2.042 3.275,-3.659 0.567,-1.617 0.47,-3.357 -0.272,-4.902 -0.283,-0.587 -0.035,-1.291 0.551,-1.573 0.588,-0.282 1.292,-0.036 1.573,0.552 1.016,2.112 1.148,4.493 0.372,6.704 -0.775,2.211 -2.366,3.988 -4.478,5.003 -0.165,0.079 -0.339,0.117 -0.51,0.117"
       id="path17"
       inkscape:connector-curvature="0"
       style="fill:#fcaf1b" /></g></svg>