<?xml version="1.0" encoding="UTF-8" standalone="no"?>
<!-- Generator: Adobe Illustrator 17.0.0, SVG Export Plug-In . SVG Version: 6.00 Build 0)  -->

<svg
   xmlns:dc="http://purl.org/dc/elements/1.1/"
   xmlns:cc="http://creativecommons.org/ns#"
   xmlns:rdf="http://www.w3.org/1999/02/22-rdf-syntax-ns#"
   xmlns:svg="http://www.w3.org/2000/svg"
   xmlns="http://www.w3.org/2000/svg"
   xmlns:xlink="http://www.w3.org/1999/xlink"
   xmlns:sodipodi="http://sodipodi.sourceforge.net/DTD/sodipodi-0.dtd"
   xmlns:inkscape="http://www.inkscape.org/namespaces/inkscape"
   version="1.1"
   id="Layer_1"
   x="0px"
   y="0px"
   width="495.39737"
   height="461.30399"
   viewBox="0 0 495.39736 461.304"
   enable-background="new 0 0 495.398 461.304"
   xml:space="preserve"
   inkscape:version="0.91 r13725"
   sodipodi:docname="icon-home-active.svg"><metadata
     id="metadata19"><rdf:RDF><cc:Work
         rdf:about=""><dc:format>image/svg+xml</dc:format><dc:type
           rdf:resource="http://purl.org/dc/dcmitype/StillImage" /><dc:title></dc:title></cc:Work></rdf:RDF></metadata><defs
     id="defs17" /><sodipodi:namedview
     pagecolor="#ffffff"
     bordercolor="#666666"
     borderopacity="1"
     objecttolerance="10"
     gridtolerance="10"
     guidetolerance="10"
     inkscape:pageopacity="0"
     inkscape:pageshadow="2"
     inkscape:window-width="640"
     inkscape:window-height="480"
     id="namedview15"
     showgrid="false"
     fit-margin-top="0"
     fit-margin-left="0"
     fit-margin-right="0"
     fit-margin-bottom="0"
     inkscape:zoom="0.51159324"
     inkscape:cx="247.69901"
     inkscape:cy="230.65199"
     inkscape:window-x="0"
     inkscape:window-y="25"
     inkscape:window-maximized="0"
     inkscape:current-layer="Layer_1" /><g
     id="g3"><defs
       id="defs5"><rect
         id="SVGID_1_"
         width="495.39801"
         height="461.30399"
         x="0"
         y="0" /></defs><clipPath
       id="SVGID_2_"><use
         xlink:href="#SVGID_1_"
         overflow="visible"
         id="use9"
         style="overflow:visible"
         x="0"
         y="0"
         width="100%"
         height="100%" /></clipPath><path
       clip-path="url(#SVGID_2_)"
       d="m 487.082,208.467 -75.08,-75.08 0,-86.73 c 0,-15.682 -12.708,-28.391 -28.413,-28.391 -15.669,0 -28.377,12.709 -28.377,28.391 l 0,29.941 -55.903,-55.905 C 271.67,-6.931 223.615,-6.882 196.039,20.743 L 8.311,208.467 c -11.082,11.104 -11.082,29.071 0,40.158 11.087,11.101 29.089,11.101 40.172,0 L 236.193,60.896 c 6.115,-6.083 16.893,-6.083 22.976,-0.018 l 187.742,187.747 c 5.567,5.551 12.825,8.312 20.081,8.312 7.271,0 14.541,-2.764 20.091,-8.312 11.086,-11.086 11.086,-29.053 -0.001,-40.158"
       id="path11"
       inkscape:connector-curvature="0"
       style="fill:#fcaf1b" /><path
       clip-path="url(#SVGID_2_)"
       d="m 257.56,114.789 c -5.454,-5.451 -14.285,-5.451 -19.723,0 L 72.711,279.866 c -2.607,2.606 -4.085,6.164 -4.085,9.877 l 0,120.401 c 0,28.253 22.908,51.16 51.16,51.16 l 81.754,0 0,-126.61 92.299,0 0,126.61 81.755,0 c 28.251,0 51.159,-22.907 51.159,-51.159 l 0,-120.402 c 0,-3.713 -1.465,-7.271 -4.085,-9.877 L 257.56,114.789 Z"
       id="path13"
       inkscape:connector-curvature="0"
       style="fill:#fcaf1b" /></g></svg>