<?xml version="1.0" encoding="UTF-8" standalone="no"?>
<!-- Generator: Adobe Illustrator 19.2.1, SVG Export Plug-In . SVG Version: 6.00 Build 0)  -->

<svg
   xmlns:dc="http://purl.org/dc/elements/1.1/"
   xmlns:cc="http://creativecommons.org/ns#"
   xmlns:rdf="http://www.w3.org/1999/02/22-rdf-syntax-ns#"
   xmlns:svg="http://www.w3.org/2000/svg"
   xmlns="http://www.w3.org/2000/svg"
   xmlns:sodipodi="http://sodipodi.sourceforge.net/DTD/sodipodi-0.dtd"
   xmlns:inkscape="http://www.inkscape.org/namespaces/inkscape"
   version="1.1"
   id="Layer_1"
   x="0px"
   y="0px"
   viewBox="0 0 100 100"
   xml:space="preserve"
   inkscape:version="0.91 r13725"
   sodipodi:docname="icon-sadface.svg"
   width="100"
   height="100"><metadata
     id="metadata17"><rdf:RDF><cc:Work
         rdf:about=""><dc:format>image/svg+xml</dc:format><dc:type
           rdf:resource="http://purl.org/dc/dcmitype/StillImage" /><dc:title></dc:title></cc:Work></rdf:RDF></metadata><defs
     id="defs15" /><sodipodi:namedview
     pagecolor="#ffffff"
     bordercolor="#666666"
     borderopacity="1"
     objecttolerance="10"
     gridtolerance="10"
     guidetolerance="10"
     inkscape:pageopacity="0"
     inkscape:pageshadow="2"
     inkscape:window-width="640"
     inkscape:window-height="480"
     id="namedview13"
     showgrid="false"
     fit-margin-top="0"
     fit-margin-left="0"
     fit-margin-right="0"
     fit-margin-bottom="0"
     inkscape:zoom="1.9666667"
     inkscape:cx="50"
     inkscape:cy="50"
     inkscape:window-x="0"
     inkscape:window-y="25"
     inkscape:window-maximized="0"
     inkscape:current-layer="Layer_1" /><g
     id="g3"
     transform="translate(-10,-10)"><path fill="rgba(255,255,255,0.3)"
       d="m 60,10 c -27.6,0 -50,22.4 -50,50 0,27.6 22.4,50 50,50 27.6,0 50,-22.4 50,-50 C 110,32.4 87.6,10 60,10 Z m 0,98.7 C 33.2,108.7 11.3,86.9 11.3,60 11.3,33.1 33.2,11.3 60,11.3 c 26.8,0 48.7,21.8 48.7,48.7 0,26.9 -21.9,48.7 -48.7,48.7 z"
       id="path5"
       inkscape:connector-curvature="0" /><path fill="rgba(255,255,255,0.3)"
       d="m 38.4,74.3 0.9,1 c 5.7,-5.2 13,-8 20.7,-8 7.7,0 15,2.9 20.7,8 l 0.9,-1 C 75.7,68.9 68,65.9 60,65.9 c -8,0 -15.7,3 -21.6,8.4 z"
       id="path7"
       inkscape:connector-curvature="0" /><path fill="rgba(255,255,255,0.3)"
       d="m 44.7,53.5 c 2,-2 2,-5.2 0,-7.2 l 0,0 c -2,-2 -5.2,-2 -7.2,0 -1,1 -1.5,2.2 -1.5,3.6 0,1.4 0.5,2.6 1.5,3.6 1,1 2.3,1.5 3.6,1.5 1.3,0 2.6,-0.5 3.6,-1.5 z m -7.3,-3.6 c 0,-1 0.4,-1.9 1.1,-2.7 0.7,-0.7 1.7,-1.1 2.7,-1.1 1,0 1.9,0.4 2.7,1.1 1.5,1.5 1.5,3.9 0,5.3 -1.5,1.5 -3.8,1.5 -5.3,0 -0.8,-0.6 -1.2,-1.6 -1.2,-2.6 z"
       id="path9"
       inkscape:connector-curvature="0" /><path fill="rgba(255,255,255,0.3)"
       d="m 82.5,46.3 c -2,-2 -5.2,-2 -7.2,0 -2,2 -2,5.2 0,7.2 1,1 2.3,1.5 3.6,1.5 1.3,0 2.6,-0.5 3.6,-1.5 2,-1.9 2,-5.2 0,-7.2 l 0,0 z m -1,6.3 c -1.5,1.5 -3.9,1.5 -5.3,0 -1.5,-1.5 -1.5,-3.9 0,-5.3 0.7,-0.7 1.7,-1.1 2.7,-1.1 1,0 1.9,0.4 2.7,1.1 l 0,0 c 1.4,1.4 1.4,3.8 -0.1,5.3 z"
       id="path11"
       inkscape:connector-curvature="0" /></g></svg>
