<?xml version="1.0" encoding="UTF-8" standalone="no"?>
<!-- Generator: Adobe Illustrator 17.0.0, SVG Export Plug-In . SVG Version: 6.00 Build 0)  -->

<svg
   xmlns:dc="http://purl.org/dc/elements/1.1/"
   xmlns:cc="http://creativecommons.org/ns#"
   xmlns:rdf="http://www.w3.org/1999/02/22-rdf-syntax-ns#"
   xmlns:svg="http://www.w3.org/2000/svg"
   xmlns="http://www.w3.org/2000/svg"
   xmlns:xlink="http://www.w3.org/1999/xlink"
   xmlns:sodipodi="http://sodipodi.sourceforge.net/DTD/sodipodi-0.dtd"
   xmlns:inkscape="http://www.inkscape.org/namespaces/inkscape"
   version="1.1"
   id="Layer_1"
   x="0px"
   y="0px"
   width="48.476002"
   height="38.043999"
   viewBox="0 0 48.476 38.044"
   enable-background="new 0 0 48.476 38.044"
   xml:space="preserve"
   inkscape:version="0.91 r13725"
   sodipodi:docname="icon-group.svg"><metadata
     id="metadata27"><rdf:RDF><cc:Work
         rdf:about=""><dc:format>image/svg+xml</dc:format><dc:type
           rdf:resource="http://purl.org/dc/dcmitype/StillImage" /><dc:title></dc:title></cc:Work></rdf:RDF></metadata><defs
     id="defs25" /><sodipodi:namedview
     pagecolor="#ffffff"
     bordercolor="#666666"
     borderopacity="1"
     objecttolerance="10"
     gridtolerance="10"
     guidetolerance="10"
     inkscape:pageopacity="0"
     inkscape:pageshadow="2"
     inkscape:window-width="640"
     inkscape:window-height="480"
     id="namedview23"
     showgrid="false"
     fit-margin-top="0"
     fit-margin-left="0"
     fit-margin-right="0"
     fit-margin-bottom="0"
     inkscape:zoom="6.0442279"
     inkscape:cx="24.238001"
     inkscape:cy="19.021999"
     inkscape:window-x="0"
     inkscape:window-y="25"
     inkscape:window-maximized="0"
     inkscape:current-layer="Layer_1" /><g
     id="g3"><defs
       id="defs5"><rect
         id="SVGID_1_"
         y="0"
         width="48.476002"
         height="38.043999"
         x="0" /></defs><clipPath
       id="SVGID_2_"><use
         xlink:href="#SVGID_1_"
         overflow="visible"
         id="use9"
         style="overflow:visible"
         x="0"
         y="0"
         width="100%"
         height="100%" /></clipPath><path
       clip-path="url(#SVGID_2_)"
       d="m 24.846,17.725 c -2.162,0 -3.92,-1.76 -3.92,-3.923 0,-2.16 1.758,-3.917 3.92,-3.917 2.159,0 3.916,1.757 3.916,3.917 0,2.163 -1.757,3.923 -3.916,3.923"
       id="path11"
       inkscape:connector-curvature="0"
       style="fill:#a7a7a7" /><path
       clip-path="url(#SVGID_2_)"
       d="M 47.345,0.604 C 46.437,0.259 45.423,0.714 45.077,1.62 43.759,5.082 40.384,7.407 36.679,7.407 32.935,7.407 29.549,5.049 28.25,1.538 27.913,0.628 26.902,0.164 25.992,0.5 c -0.909,0.337 -1.375,1.347 -1.038,2.257 1.341,3.626 4.285,6.367 7.845,7.539 0,0.004 -0.002,0.008 -0.002,0.012 l 0,0.464 c 0.532,-0.584 1.291,-0.945 2.106,-0.945 0.347,0 0.689,0.063 1.015,0.188 1.469,0.559 2.208,2.209 1.649,3.677 -0.942,2.472 -2.634,4.604 -4.77,6.15 l 0,5.903 c 0,0.971 0.787,1.757 1.757,1.757 0.971,0 1.758,-0.786 1.758,-1.757 l 0,-8.035 0.698,0 0,8.144 c 0,0.971 0.786,1.757 1.756,1.757 0.971,0 1.757,-0.786 1.757,-1.757 l 0,-9.324 10e-4,-0.002 0,-6.22 c 0,-10e-4 -10e-4,-10e-4 -10e-4,-10e-4 3.534,-1.156 6.476,-3.859 7.838,-7.436 0.345,-0.907 -0.11,-1.922 -1.016,-2.267"
       id="path13"
       inkscape:connector-curvature="0"
       style="fill:#a7a7a7" /><path
       clip-path="url(#SVGID_2_)"
       d="m 12.112,13.569 c -0.264,-0.714 -0.234,-1.488 0.084,-2.18 0.318,-0.692 0.887,-1.218 1.601,-1.482 0.318,-0.118 0.651,-0.177 0.989,-0.177 0.502,0 0.98,0.14 1.401,0.379 C 19.49,8.867 22.221,6.272 23.516,2.871 23.862,1.964 23.407,0.949 22.501,0.604 21.593,0.258 20.578,0.714 20.233,1.62 18.915,5.082 15.539,7.407 11.834,7.407 8.091,7.407 4.704,5.049 3.405,1.538 3.069,0.628 2.058,0.164 1.148,0.5 0.238,0.837 -0.227,1.847 0.109,2.757 c 1.342,3.626 4.285,6.367 7.846,7.539 0,0.004 -0.002,0.008 -0.002,0.012 l 0,5.622 0,0.598 0,9.217 c 0,0.971 0.787,1.757 1.757,1.757 0.971,0 1.758,-0.786 1.758,-1.757 l 0,-8.035 0.697,0 0,8.144 c 0,0.971 0.786,1.757 1.756,1.757 0.971,0 1.757,-0.786 1.757,-1.757 l 0,-7.029 C 14.106,17.38 12.859,15.588 12.112,13.569"
       id="path15"
       inkscape:connector-curvature="0"
       style="fill:#a7a7a7" /><path
       clip-path="url(#SVGID_2_)"
       d="m 36.544,13.303 c 0.345,-0.906 -0.11,-1.921 -1.016,-2.267 -0.206,-0.078 -0.417,-0.115 -0.625,-0.115 -0.709,0 -1.375,0.431 -1.643,1.132 -1.317,3.461 -4.693,5.786 -8.398,5.786 -3.744,0 -7.13,-2.358 -8.429,-5.868 -0.262,-0.71 -0.933,-1.148 -1.647,-1.148 -0.203,0 -0.409,0.035 -0.61,0.11 -0.91,0.336 -1.376,1.346 -1.039,2.256 1.341,3.626 4.285,6.367 7.846,7.539 0,0.005 -0.003,0.008 -0.003,0.013 l 0,5.621 0,0.599 0,9.216 c 0,0.971 0.787,1.757 1.758,1.757 0.97,0 1.758,-0.786 1.758,-1.757 l 0,-8.035 0.697,0 0,8.144 c 0,0.971 0.786,1.758 1.756,1.758 0.971,0 1.757,-0.787 1.757,-1.758 l 0,-9.324 c 0,-0.001 0.001,-0.001 0.001,-0.001 l 0,-6.22 c 0,-0.002 -0.001,-0.002 -0.001,-0.002 3.535,-1.156 6.476,-3.859 7.838,-7.436"
       id="path17"
       inkscape:connector-curvature="0"
       style="fill:#a7a7a7" /><path
       clip-path="url(#SVGID_2_)"
       d="m 33.289,3.37 c 0,-1.861 1.509,-3.37 3.373,-3.37 1.865,0 3.37,1.509 3.37,3.37 0,1.868 -1.505,3.376 -3.37,3.376 -1.864,0 -3.373,-1.508 -3.373,-3.376"
       id="path19"
       inkscape:connector-curvature="0"
       style="fill:#a7a7a7" /><path
       clip-path="url(#SVGID_2_)"
       d="M 8.445,3.37 C 8.445,1.509 9.954,0 11.818,0 c 1.865,0 3.37,1.509 3.37,3.37 0,1.868 -1.505,3.376 -3.37,3.376 -1.864,0 -3.373,-1.508 -3.373,-3.376"
       id="path21"
       inkscape:connector-curvature="0"
       style="fill:#a7a7a7" /></g></svg>
