<?xml version="1.0" encoding="UTF-8" standalone="no"?>
<!-- Generator: Adobe Illustrator 20.1.0, SVG Export Plug-In . SVG Version: 6.00 Build 0)  -->

<svg
   xmlns:dc="http://purl.org/dc/elements/1.1/"
   xmlns:cc="http://creativecommons.org/ns#"
   xmlns:rdf="http://www.w3.org/1999/02/22-rdf-syntax-ns#"
   xmlns:svg="http://www.w3.org/2000/svg"
   xmlns="http://www.w3.org/2000/svg"
   xmlns:sodipodi="http://sodipodi.sourceforge.net/DTD/sodipodi-0.dtd"
   xmlns:inkscape="http://www.inkscape.org/namespaces/inkscape"
   version="1.1"
   id="Layer_1"
   x="0px"
   y="0px"
   viewBox="0 0 239.8 239.89999"
   xml:space="preserve"
   inkscape:version="0.91 r13725"
   sodipodi:docname="circle-active.svg"
   width="239.8"
   height="239.89999"><metadata
     id="metadata39"><rdf:RDF><cc:Work
         rdf:about=""><dc:format>image/svg+xml</dc:format><dc:type
           rdf:resource="http://purl.org/dc/dcmitype/StillImage" /><dc:title></dc:title></cc:Work></rdf:RDF></metadata><defs
     id="defs37" /><sodipodi:namedview
     pagecolor="#ffffff"
     bordercolor="#666666"
     borderopacity="1"
     objecttolerance="10"
     gridtolerance="10"
     guidetolerance="10"
     inkscape:pageopacity="0"
     inkscape:pageshadow="2"
     inkscape:window-width="1920"
     inkscape:window-height="1031"
     id="namedview35"
     showgrid="false"
     fit-margin-top="0"
     fit-margin-left="0"
     fit-margin-right="0"
     fit-margin-bottom="0"
     inkscape:zoom="0.944"
     inkscape:cx="122.11864"
     inkscape:cy="119.9"
     inkscape:window-x="0"
     inkscape:window-y="25"
     inkscape:window-maximized="1"
     inkscape:current-layer="Layer_1" /><style
     type="text/css"
     id="style3">
	.st0{fill:#FCAF1A;}
	.st1{fill:#F47920;}
	.st2{fill:#E15927;}
	.st3{fill:#ED2127;}
	.st4{fill:#AA2A31;}
	.st5{opacity:0.3;}
	.st6{fill:#FFFFFF;}
</style><g
     id="g5"
     transform="translate(-5,-5)"><circle
       transform="matrix(0.9397,-0.342,0.342,0.9397,-4.2739,32.3426)"
       class="st0"
       cx="89.599998"
       cy="28.299999"
       id="ellipse7"
       r="5.5"
       style="fill:#fcaf1a" /><circle
       transform="matrix(0.766,-0.6428,0.6428,0.766,-16.0038,48.5075)"
       class="st1"
       cx="58.599998"
       cy="46.200001"
       id="ellipse9"
       r="5.5"
       style="fill:#f47920" /><circle
       transform="matrix(0.5,-0.866,0.866,0.5,-45.9651,67.7598)"
       class="st2"
       cx="35.700001"
       cy="73.699997"
       id="ellipse11"
       r="5.5"
       style="fill:#e15927" /><circle
       transform="matrix(0.1736,-0.9848,0.9848,0.1736,-86.2458,111.8645)"
       class="st3"
       cx="23.5"
       cy="107.3"
       id="ellipse13"
       r="5.5"
       style="fill:#ed2127" /><circle
       transform="matrix(0.9848,-0.1736,0.1736,0.9848,-24.4892,6.2734)"
       class="st4"
       cx="23.6"
       cy="143.10001"
       id="ellipse15"
       r="5.5"
       style="fill:#aa2a31" /><circle
       transform="matrix(0.9397,-0.342,0.342,0.9397,-66.1544,68.2393)"
       class="st0"
       cx="160.39999"
       cy="221.7"
       id="ellipse17"
       r="5.5"
       style="fill:#fcaf1a" /><circle
       transform="matrix(0.766,-0.6428,0.6428,0.766,-86.2043,170.6783)"
       class="st1"
       cx="191.39999"
       cy="203.8"
       id="ellipse19"
       r="5.5"
       style="fill:#f47920" /><circle
       transform="matrix(0.5,-0.866,0.866,0.5,-45.5413,273.7466)"
       class="st2"
       cx="214.3"
       cy="176.3"
       id="ellipse21"
       r="5.5"
       style="fill:#e15927" /><circle
       transform="matrix(0.1736,-0.9848,0.9848,0.1736,46.6318,340.9255)"
       class="st3"
       cx="226.5"
       cy="142.7"
       id="ellipse23"
       r="5.5"
       style="fill:#ed2127" /><circle
       transform="matrix(0.9848,-0.1736,0.1736,0.9848,-15.1248,40.9367)"
       class="st4"
       cx="226.39999"
       cy="106.9"
       id="ellipse25"
       r="5.5"
       style="fill:#aa2a31" /></g><g
     class="st5"
     id="g27"
     style="opacity:0.3"
     transform="translate(-5,-5)"><path
       class="st6"
       d="m 201.7,154.9 -35.7,-14.6 36.8,11.8 c 0.7,0.2 1.4,0.3 2.1,0.3 1.1,0 2.2,-0.3 3.2,-0.9 1.6,-0.9 2.6,-2.5 2.9,-4.4 l 2.2,-12.7 c 0.3,-1.9 -0.1,-3.7 -1.2,-5.1 -1.1,-1.4 -2.8,-2.2 -4.7,-2.3 l -38.5,-1.6 38.6,-1.6 c 1.9,-0.1 3.6,-0.9 4.7,-2.3 1.1,-1.4 1.6,-3.2 1.2,-5.1 l -2.2,-12.7 c -0.3,-1.9 -1.4,-3.5 -2.9,-4.4 -1.6,-0.9 -3.4,-1.1 -5.3,-0.6 L 166.2,110.4 202,95.7 c 1.8,-0.7 3.1,-2.1 3.7,-3.8 0.6,-1.7 0.4,-3.6 -0.6,-5.3 l -6.5,-11.2 c -1,-1.7 -2.5,-2.8 -4.3,-3.1 -1.8,-0.4 -3.6,0.1 -5.1,1.3 l -30.5,23.6 28.6,-26 c 1.4,-1.3 2.2,-3 2.1,-4.8 0,-1.8 -0.9,-3.5 -2.3,-4.7 l -9.9,-8.3 c -1.5,-1.2 -3.3,-1.8 -5.1,-1.5 -1.8,0.3 -3.4,1.3 -4.4,3 l -20.6,32.6 18,-34.2 c 0.9,-1.7 1,-3.6 0.4,-5.3 -0.7,-1.7 -2,-3 -3.8,-3.6 L 149.5,40 c -1.8,-0.7 -3.7,-0.5 -5.3,0.3 -1.6,0.9 -2.7,2.4 -3.1,4.3 l -8.2,37.4 5.2,-38.3 c 0.3,-1.9 -0.3,-3.7 -1.5,-5.1 -1.2,-1.4 -2.9,-2.1 -4.8,-2.1 l -12.9,0 c -1.9,0 -3.6,0.8 -4.8,2.1 -1.2,1.4 -1.7,3.2 -1.5,5.1 l 5.2,38.2 -8.2,-37.8 c -0.4,-1.9 -1.5,-3.4 -3.1,-4.3 -1.6,-0.9 -3.5,-1 -5.3,-0.3 L 89,43.9 c -1.8,0.7 -3.2,2 -3.8,3.6 -0.7,1.7 -0.5,3.6 0.4,5.3 L 103.4,87 82.8,54.3 c -1,-1.6 -2.6,-2.7 -4.4,-3 -1.8,-0.3 -3.6,0.2 -5.1,1.5 l -9.9,8.3 c -1.5,1.2 -2.3,2.9 -2.3,4.7 0,1.8 0.7,3.5 2.1,4.8 L 91.7,96.6 61.1,73 c -1.5,-1.2 -3.3,-1.6 -5.1,-1.3 -1.8,0.4 -3.3,1.5 -4.3,3.1 L 45.2,86 c -1,1.7 -1.2,3.5 -0.6,5.3 0.6,1.7 1.9,3.1 3.7,3.8 L 84,109.7 47.2,98 c -1.8,-0.6 -3.7,-0.4 -5.3,0.6 -1.6,0.9 -2.6,2.5 -2.9,4.4 l -2.2,12.7 c -0.3,1.9 0.1,3.7 1.2,5.1 1.1,1.4 2.8,2.2 4.7,2.3 l 38.5,1.6 -38.6,1.6 c -1.9,0.1 -3.6,0.9 -4.7,2.3 -1.1,1.4 -1.6,3.2 -1.3,5.1 l 2.2,12.7 c 0.3,1.9 1.4,3.5 2.9,4.4 1,0.6 2.1,0.9 3.2,0.9 0.7,0 1.4,-0.1 2.1,-0.3 L 83.7,139.7 48,154.3 c -1.8,0.7 -3.1,2.1 -3.7,3.8 -0.6,1.7 -0.4,3.6 0.6,5.3 l 6.5,11.2 c 1,1.7 2.5,2.8 4.3,3.1 0.4,0.1 0.8,0.1 1.2,0.1 1.4,0 2.8,-0.5 3.9,-1.4 l 30.5,-23.6 -28.6,26 c -1.4,1.3 -2.2,3 -2.1,4.8 0,1.8 0.9,3.5 2.3,4.7 l 9.9,8.3 c 1.2,1 2.7,1.6 4.1,1.6 0.3,0 0.6,0 0.9,-0.1 1.8,-0.3 3.4,-1.3 4.4,-3 l 20.6,-32.6 -18,34.2 c -0.9,1.7 -1,3.6 -0.4,5.3 0.7,1.7 2,3 3.8,3.6 l 12.2,4.4 c 0.8,0.3 1.5,0.4 2.3,0.4 1,0 2,-0.3 3,-0.8 1.6,-0.9 2.7,-2.4 3.1,-4.3 l 8.2,-37.7 -5.2,38.3 c -0.3,1.9 0.3,3.7 1.5,5.1 1.2,1.4 2.9,2.1 4.8,2.1 l 12.9,0 c 1.9,0 3.6,-0.8 4.8,-2.1 1.2,-1.3 1.7,-3.2 1.5,-5.1 l -5.2,-38.2 8.2,37.8 c 0.4,1.9 1.5,3.4 3.1,4.3 0.9,0.5 1.9,0.8 3,0.8 0.8,0 1.5,-0.1 2.3,-0.4 l 12.2,-4.4 c 1.8,-0.7 3.2,-2 3.8,-3.6 0.7,-1.7 0.5,-3.6 -0.4,-5.3 l -17.9,-34.1 20.7,32.7 c 1,1.6 2.6,2.7 4.4,3 0.3,0 0.6,0.1 0.9,0.1 1.5,0 2.9,-0.5 4.1,-1.6 l 9.9,-8.3 c 1.5,-1.2 2.3,-2.9 2.3,-4.7 0,-1.8 -0.7,-3.5 -2.1,-4.8 l -28.5,-26 30.6,23.6 c 1.2,0.9 2.6,1.4 3.9,1.4 0.4,0 0.8,0 1.2,-0.1 1.8,-0.4 3.3,-1.5 4.3,-3.1 l 6.5,-11.2 c 1,-1.7 1.2,-3.5 0.6,-5.3 -0.5,-1.5 -1.8,-2.9 -3.5,-3.6 z m 5.5,-26.4 c 1.5,0.1 2.7,0.7 3.6,1.7 0.8,1.1 1.2,2.4 0.9,3.9 l -2.2,12.7 c -0.3,1.4 -1,2.6 -2.2,3.3 -1.2,0.7 -2.6,0.8 -3.9,0.4 l -55.6,-17.7 -12.3,-5 c 0,-0.2 0.1,-0.4 0.1,-0.5 0,-0.2 0.1,-0.3 0.1,-0.5 l 13.4,-0.5 58.1,2.2 z m -75,2.2 c -0.5,0.6 -1,1.1 -1.5,1.5 -0.1,0.1 -0.3,0.2 -0.4,0.3 l -0.4,0.2 c -0.6,0.4 -1.3,0.7 -2,0.9 -0.2,0.1 -0.3,0.1 -0.5,0.2 l -0.5,0.1 c -0.9,0.2 -1.8,0.2 -2.7,0.2 l -0.5,-0.1 c -0.7,-0.1 -1.4,-0.3 -2.1,-0.6 -0.2,-0.1 -0.3,-0.1 -0.5,-0.2 l -0.4,-0.3 c -0.6,-0.4 -1.2,-0.8 -1.8,-1.2 -0.1,-0.1 -0.3,-0.2 -0.4,-0.3 l -0.3,-0.4 c -0.5,-0.6 -0.9,-1.2 -1.2,-1.8 -0.1,-0.2 -0.2,-0.3 -0.3,-0.5 l -0.2,-0.5 c -0.2,-0.7 -0.4,-1.4 -0.6,-2.1 0,-0.2 -0.1,-0.3 -0.1,-0.5 l 0,-0.5 c 0,-0.7 0.1,-1.5 0.2,-2.2 0,-0.2 0.1,-0.3 0.1,-0.5 l 0.2,-0.5 c 0.3,-0.7 0.6,-1.3 0.9,-2 0.1,-0.2 0.2,-0.3 0.3,-0.4 l 0.3,-0.4 c 0.5,-0.6 1,-1.1 1.5,-1.5 0.1,-0.1 0.3,-0.2 0.4,-0.3 l 0.4,-0.2 c 0.6,-0.4 1.3,-0.7 2,-0.9 0.2,-0.1 0.3,-0.1 0.5,-0.2 l 0.5,-0.1 c 0.9,-0.2 1.8,-0.2 2.7,-0.2 l 0.5,0.1 c 0.7,0.1 1.4,0.3 2.1,0.6 0.2,0.1 0.3,0.1 0.5,0.2 l 0.4,0.3 c 0.6,0.4 1.2,0.8 1.8,1.2 0.1,0.1 0.3,0.2 0.4,0.3 l 0.3,0.4 c 0.5,0.6 0.9,1.2 1.2,1.8 0.1,0.2 0.2,0.3 0.3,0.5 l 0.2,0.5 c 0.2,0.7 0.4,1.4 0.6,2.1 0,0.2 0.1,0.3 0.1,0.5 l 0,0.5 c 0,0.7 -0.1,1.5 -0.2,2.2 0,0.2 -0.1,0.3 -0.1,0.5 l -0.2,0.5 c -0.3,0.7 -0.6,1.3 -0.9,2 -0.1,0.2 -0.2,0.3 -0.3,0.5 l -0.3,0.3 z m 71.2,-30.5 c 1.4,-0.4 2.8,-0.3 3.9,0.4 1.2,0.7 1.9,1.9 2.2,3.3 l 2.2,12.7 c 0.3,1.4 -0.1,2.8 -0.9,3.9 -0.8,1.1 -2.1,1.7 -3.6,1.7 l -58.3,2.3 -13.3,-0.5 c 0,-0.2 0,-0.4 -0.1,-0.5 0,-0.2 -0.1,-0.3 -0.1,-0.5 l 12.4,-5.1 55.6,-17.7 z M 190.2,74.8 c 1.2,-0.9 2.5,-1.2 3.8,-1 1.3,0.3 2.5,1.1 3.2,2.4 l 6.5,11.2 c 0.7,1.3 0.9,2.7 0.5,3.9 -0.4,1.3 -1.4,2.3 -2.8,2.8 l -54,22.2 -12.7,4 c -0.1,-0.2 -0.2,-0.3 -0.3,-0.5 -0.1,-0.2 -0.2,-0.3 -0.3,-0.5 l 9.9,-9 46.2,-35.5 z M 169.1,55.5 c 0.8,-1.2 1.9,-2 3.3,-2.2 1.3,-0.2 2.7,0.2 3.8,1.1 l 9.9,8.3 c 1.1,0.9 1.7,2.2 1.8,3.6 0,1.4 -0.6,2.6 -1.6,3.6 l -43.2,39.3 -10.5,8.1 c -0.1,-0.1 -0.3,-0.2 -0.4,-0.4 -0.1,-0.1 -0.3,-0.2 -0.4,-0.3 L 138,104.7 169.1,55.5 Z M 142.7,44.6 c 0.3,-1.4 1.1,-2.6 2.3,-3.2 1.2,-0.7 2.6,-0.7 4,-0.2 l 12.2,4.4 c 1.4,0.5 2.4,1.5 2.9,2.7 0.5,1.3 0.4,2.7 -0.3,4 l -27.2,51.7 -7.1,11.2 c -0.2,-0.1 -0.3,-0.1 -0.5,-0.2 -0.2,-0.1 -0.3,-0.1 -0.5,-0.2 l 1.8,-13.3 12.4,-56.9 z m -28.6,-1.2 c -0.2,-1.4 0.2,-2.8 1.1,-3.8 0.9,-1 2.2,-1.6 3.6,-1.6 l 12.9,0 c 1.5,0 2.8,0.6 3.6,1.6 0.9,1 1.3,2.4 1.1,3.8 l -7.8,57.8 -2.8,13 c -0.2,0 -0.4,0 -0.5,0 -0.2,0 -0.4,0 -0.5,0 l -2.9,-13.1 -7.8,-57.7 z m -27.2,8.7 c -0.7,-1.3 -0.8,-2.7 -0.3,-4 0.5,-1.3 1.5,-2.2 2.9,-2.7 L 101.7,41 c 0.6,-0.2 1.2,-0.3 1.8,-0.3 0.8,0 1.5,0.2 2.2,0.6 1.2,0.7 2,1.8 2.3,3.2 l 12.4,57 1.8,13.2 c -0.2,0.1 -0.3,0.1 -0.5,0.2 -0.2,0.1 -0.3,0.1 -0.5,0.2 L 114,103.8 86.9,52.1 Z M 64.3,69.5 c -1.1,-1 -1.7,-2.3 -1.6,-3.6 0,-1.4 0.7,-2.6 1.8,-3.6 L 74.4,54 c 0.9,-0.8 2,-1.2 3.1,-1.2 0.2,0 0.5,0 0.7,0.1 1.3,0.2 2.5,1 3.3,2.2 l 31.2,49.3 6.2,11.8 c -0.1,0.1 -0.3,0.2 -0.4,0.3 -0.1,0.1 -0.3,0.2 -0.4,0.4 L 107.5,108.7 64.3,69.5 Z M 48.9,93.6 C 47.6,93 46.6,92 46.1,90.8 45.7,89.5 45.8,88.1 46.6,86.9 l 6.5,-11.2 c 0.7,-1.3 1.9,-2.1 3.2,-2.4 0.3,-0.1 0.6,-0.1 0.9,-0.1 1,0 2.1,0.4 3,1.1 l 46.2,35.7 9.8,9 c -0.1,0.2 -0.2,0.3 -0.3,0.5 -0.1,0.2 -0.2,0.3 -0.3,0.5 L 102.8,115.9 48.9,93.6 Z m -6.1,27.9 c -1.5,-0.1 -2.7,-0.7 -3.6,-1.7 -0.8,-1.1 -1.2,-2.4 -0.9,-3.9 l 2.2,-12.7 c 0.3,-1.4 1,-2.6 2.2,-3.3 0.7,-0.4 1.5,-0.7 2.4,-0.7 0.5,0 1.1,0.1 1.6,0.3 l 55.6,17.7 12.3,5.1 c 0,0.2 -0.1,0.4 -0.1,0.5 0,0.2 -0.1,0.3 -0.1,0.5 l -13.4,0.5 -58.2,-2.3 z m 3.8,28.3 c -1.4,0.4 -2.8,0.3 -3.9,-0.4 -1.2,-0.7 -1.9,-1.9 -2.2,-3.3 l -2.2,-12.7 c -0.3,-1.4 0.1,-2.8 0.9,-3.9 0.8,-1.1 2.1,-1.7 3.6,-1.7 l 58.3,-2.3 13.3,0.5 c 0,0.2 0,0.4 0.1,0.5 0,0.2 0.1,0.3 0.1,0.5 l -12.4,5.1 -55.6,17.7 z m 13.2,25.4 c -1.2,0.9 -2.5,1.2 -3.8,1 -1.3,-0.3 -2.5,-1.1 -3.2,-2.4 l -6.5,-11.2 c -0.7,-1.3 -0.9,-2.7 -0.5,-3.9 0.4,-1.3 1.4,-2.3 2.8,-2.8 l 54,-22.2 12.7,-4 c 0.1,0.2 0.2,0.3 0.3,0.5 0.1,0.2 0.2,0.3 0.3,0.5 l -9.9,9 -46.2,35.5 z m 21.1,19.3 c -0.8,1.2 -1.9,2 -3.3,2.2 -1.3,0.2 -2.7,-0.2 -3.8,-1.1 l -9.9,-8.3 c -1.1,-0.9 -1.7,-2.2 -1.8,-3.6 0,-1.4 0.6,-2.6 1.6,-3.6 l 43.2,-39.3 10.5,-8.1 c 0.1,0.1 0.3,0.2 0.4,0.4 0.1,0.1 0.3,0.2 0.4,0.3 l -6.2,11.9 -31.1,49.2 z m 26.4,10.9 c -0.3,1.4 -1.1,2.6 -2.3,3.2 -1.2,0.7 -2.6,0.7 -4,0.2 l -12.2,-4.4 c -1.4,-0.5 -2.4,-1.5 -2.9,-2.7 -0.5,-1.3 -0.4,-2.7 0.3,-4 l 27.1,-51.7 7.1,-11.2 c 0.2,0.1 0.3,0.1 0.5,0.2 0.2,0.1 0.3,0.1 0.5,0.2 l -1.8,13.3 -12.3,56.9 z m 28.6,1.2 c 0.2,1.4 -0.2,2.8 -1.1,3.8 -0.9,1 -2.2,1.6 -3.6,1.6 l -12.9,0 c -1.5,0 -2.8,-0.6 -3.6,-1.6 -0.9,-1 -1.3,-2.4 -1.1,-3.8 l 7.8,-57.8 2.8,-13 c 0.4,0 0.7,0 1.1,0 l 2.9,13.1 7.7,57.7 z m 27.2,-8.7 c 0.7,1.3 0.8,2.7 0.3,4 -0.5,1.3 -1.5,2.2 -2.9,2.7 l -12.2,4.4 c -1.4,0.5 -2.8,0.4 -4,-0.2 -1.2,-0.7 -2,-1.8 -2.3,-3.2 l -12.4,-57 -1.8,-13.2 c 0.2,-0.1 0.3,-0.1 0.5,-0.2 0.2,-0.1 0.3,-0.1 0.5,-0.2 l 7.2,11.3 27.1,51.6 z m 22.6,-17.4 c 1.1,1 1.7,2.3 1.6,3.6 0,1.4 -0.7,2.6 -1.8,3.6 l -9.9,8.3 c -1.1,0.9 -2.5,1.3 -3.8,1.1 -1.3,-0.2 -2.5,-1 -3.3,-2.2 l -31.2,-49.3 -6.2,-11.8 c 0.1,-0.1 0.3,-0.2 0.4,-0.3 0.1,-0.1 0.3,-0.2 0.4,-0.4 l 10.6,8.2 43.2,39.2 z m 17.7,-17.3 -6.5,11.2 c -0.7,1.3 -1.9,2.1 -3.2,2.4 -1.3,0.3 -2.7,-0.1 -3.8,-1 l -46.2,-35.7 -9.8,-9 c 0.1,-0.2 0.2,-0.3 0.3,-0.5 0.1,-0.2 0.2,-0.3 0.3,-0.5 l 12.8,4.1 53.9,22.1 c 1.3,0.6 2.3,1.6 2.8,2.8 0.3,1.4 0.1,2.8 -0.6,4.1 z"
       id="path29"
       inkscape:connector-curvature="0"
       style="fill:#ffffff" /><path
       class="st6"
       d="m 228.5,136.7 c 0.4,-3.9 0.7,-7.8 0.7,-11.7 0,-4.1 -0.2,-8.1 -0.7,-12.1 1.3,-0.4 2.4,-1.2 3.1,-2.4 1,-1.4 1.3,-3.1 1,-4.7 -0.3,-1.7 -1.2,-3.1 -2.6,-4.1 -1.1,-0.8 -2.4,-1.2 -3.8,-1.1 -1.9,-7.8 -4.6,-15.3 -8.2,-22.4 2.4,-1.9 3.1,-5.3 1.5,-8 -1.6,-2.7 -4.9,-3.8 -7.8,-2.7 -3.8,-5.7 -8.2,-11.1 -13.2,-16.1 -0.7,-0.7 -1.5,-1.4 -2.2,-2.1 1.6,-2.6 1.1,-6.1 -1.3,-8.1 -2.4,-2 -5.9,-1.9 -8.2,0.1 -6.4,-4.8 -13.4,-8.8 -20.7,-11.9 0.6,-3 -1.1,-6.1 -4,-7.1 -1.6,-0.6 -3.3,-0.5 -4.8,0.2 -1.2,0.6 -2.2,1.5 -2.9,2.7 -7.6,-2.2 -15.4,-3.6 -23.5,-4 -0.5,-3 -3.1,-5.4 -6.2,-5.4 -3.2,0 -5.8,2.3 -6.2,5.4 -8,0.5 -15.9,1.9 -23.5,4.1 -0.6,-1.2 -1.6,-2.1 -2.8,-2.7 -1.5,-0.7 -3.2,-0.8 -4.8,-0.2 -1.6,0.6 -2.8,1.7 -3.6,3.3 -0.6,1.2 -0.7,2.6 -0.5,3.9 -7.3,3.2 -14.2,7.2 -20.6,12 -1,-0.9 -2.3,-1.4 -3.6,-1.6 -1.7,-0.1 -3.3,0.4 -4.6,1.5 -2.4,2 -2.9,5.5 -1.3,8.1 -0.6,0.6 -1.3,1.2 -1.9,1.8 -5,5.1 -9.5,10.6 -13.3,16.4 -2.8,-1.1 -6.2,0 -7.7,2.7 -0.8,1.5 -1.1,3.2 -0.6,4.8 0.4,1.3 1.1,2.4 2.1,3.3 -3.6,7.1 -6.3,14.6 -8.1,22.4 -1.3,0 -2.6,0.4 -3.7,1.1 -1.4,1 -2.3,2.4 -2.6,4.1 -0.5,3.1 1.3,6.1 4.2,7.1 -0.4,3.9 -0.7,7.8 -0.7,11.7 0,4.1 0.2,8.1 0.7,12.1 -1.3,0.4 -2.4,1.2 -3.1,2.4 -1,1.4 -1.3,3.1 -1,4.7 0.3,1.7 1.2,3.1 2.6,4.1 1.1,0.8 2.3,1.1 3.6,1.1 0.1,0 0.1,0 0.2,0 1.9,7.8 4.6,15.3 8.2,22.4 -1,0.8 -1.8,2 -2.1,3.3 -0.4,1.6 -0.2,3.3 0.6,4.8 1.2,2 3.3,3.2 5.5,3.2 0.8,0 1.6,-0.1 2.3,-0.4 3.8,5.7 8.2,11.1 13.2,16.1 0.7,0.7 1.5,1.4 2.2,2.1 -0.7,1.1 -1,2.5 -0.9,3.8 0.1,1.7 0.9,3.2 2.2,4.3 1.2,1 2.6,1.5 4,1.5 1.5,0 3,-0.5 4.2,-1.6 6.4,4.8 13.4,8.8 20.7,11.9 -0.6,3 1.1,6.1 4,7.1 0.7,0.3 1.4,0.4 2.2,0.4 2.3,0 4.4,-1.2 5.5,-3.3 7.6,2.2 15.4,3.6 23.5,4 0.5,3 3.1,5.4 6.2,5.4 3.2,0 5.8,-2.3 6.2,-5.4 8,-0.5 15.9,-1.9 23.5,-4.1 0.6,1.2 1.6,2.1 2.8,2.7 0.8,0.4 1.8,0.6 2.7,0.6 0.7,0 1.5,-0.1 2.2,-0.4 3,-1.1 4.6,-4.2 4,-7.2 7.3,-3.2 14.2,-7.2 20.6,-12 1.2,1 2.7,1.6 4.2,1.6 1.4,0 2.9,-0.5 4,-1.5 2.4,-2 2.9,-5.5 1.3,-8.1 0.6,-0.6 1.3,-1.2 1.9,-1.8 5.1,-5.1 9.5,-10.6 13.4,-16.4 0.7,0.3 1.5,0.4 2.3,0.4 0.5,0 1.1,-0.1 1.6,-0.2 1.6,-0.4 3,-1.5 3.8,-2.9 0.8,-1.5 1.1,-3.2 0.6,-4.8 -0.4,-1.3 -1.1,-2.4 -2.1,-3.3 3.6,-7.1 6.3,-14.6 8.1,-22.4 0,0 0.1,0 0.1,0 3,0 5.7,-2.2 6.2,-5.2 0.4,-3.3 -1.4,-6.3 -4.3,-7.3 z m 0.6,-33.7 c 1,0.7 1.7,1.8 1.9,3 0.2,1.2 -0.1,2.5 -0.8,3.5 -0.7,1 -1.8,1.7 -3,1.9 l 0,0 c -2.6,0.5 -5,-1.3 -5.5,-3.8 -0.2,-1.2 0.1,-2.5 0.8,-3.5 0.7,-1 1.8,-1.7 3,-1.9 0.3,0 0.6,-0.1 0.8,-0.1 1.1,0.1 2,0.4 2.8,0.9 z m -15,-34.4 c 1.6,0 3.2,0.8 4.1,2.4 1.3,2.3 0.5,5.1 -1.7,6.4 -2.3,1.3 -5.1,0.5 -6.4,-1.7 -0.6,-1.1 -0.8,-2.4 -0.5,-3.6 0.3,-1.2 1.1,-2.2 2.2,-2.9 0.7,-0.4 1.5,-0.6 2.3,-0.6 z M 191,41.3 c 1.1,0 2.1,0.4 3,1.1 2,1.7 2.3,4.7 0.6,6.6 -0.8,1 -1.9,1.6 -3.2,1.7 -1.3,0.1 -2.5,-0.3 -3.4,-1.1 -1,-0.8 -1.6,-1.9 -1.7,-3.2 -0.1,-1.3 0.3,-2.5 1.1,-3.4 1,-1.2 2.3,-1.7 3.6,-1.7 z M 155.6,26.5 c 0.4,-1.2 1.3,-2.1 2.4,-2.7 0.6,-0.3 1.3,-0.4 2,-0.4 0.5,0 1.1,0.1 1.6,0.3 2.4,0.9 3.7,3.6 2.8,6 -0.9,2.4 -3.6,3.7 -6,2.8 -1.2,-0.4 -2.1,-1.3 -2.7,-2.4 -0.5,-1.1 -0.5,-2.4 -0.1,-3.6 z m -30.8,-9.2 c 2.6,0 4.7,2.1 4.7,4.7 0,2.6 -2.1,4.7 -4.7,4.7 -2.6,0 -4.7,-2.1 -4.7,-4.7 0,-2.6 2.1,-4.7 4.7,-4.7 z m -39.5,9 c 0.5,-1.1 1.5,-2 2.7,-2.4 0.5,-0.2 1.1,-0.3 1.6,-0.3 0.7,0 1.4,0.1 2,0.4 1.1,0.5 2,1.5 2.4,2.7 0.9,2.4 -0.4,5.2 -2.8,6 -1.2,0.4 -2.5,0.4 -3.6,-0.2 -1.1,-0.5 -2,-1.5 -2.4,-2.7 -0.5,-1.1 -0.4,-2.4 0.1,-3.5 z M 55.6,42.6 c 0.9,-0.7 1.9,-1.1 3,-1.1 0.1,0 0.3,0 0.4,0 1.3,0.1 2.4,0.7 3.2,1.7 0.8,1 1.2,2.2 1.1,3.4 -0.1,1.3 -0.7,2.4 -1.7,3.2 -2,1.7 -5,1.4 -6.6,-0.6 -1.6,-1.9 -1.4,-4.9 0.6,-6.6 z m -24,28.7 c 0.9,-1.5 2.5,-2.4 4.1,-2.4 0.8,0 1.6,0.2 2.3,0.6 1.1,0.6 1.9,1.6 2.2,2.9 0.3,1.2 0.2,2.5 -0.5,3.6 -0.7,1.1 -1.6,1.9 -2.9,2.2 -1.2,0.3 -2.5,0.2 -3.6,-0.5 -1.1,-0.6 -1.9,-1.6 -2.2,-2.9 -0.2,-1.1 0,-2.4 0.6,-3.5 z m -12.7,35.2 c 0.2,-1.2 0.9,-2.3 1.9,-3 0.8,-0.6 1.7,-0.9 2.7,-0.9 0.3,0 0.6,0 0.8,0.1 1.2,0.2 2.3,0.9 3,1.9 0.7,1 1,2.3 0.8,3.5 -0.2,1.2 -0.9,2.3 -1.9,3 -1,0.7 -2.3,1 -3.5,0.8 -2.5,-0.4 -4.3,-2.8 -3.8,-5.4 z m 2,40.5 c -1,-0.7 -1.7,-1.8 -1.9,-3 -0.2,-1.2 0.1,-2.5 0.8,-3.5 0.7,-1 1.8,-1.7 3,-1.9 0.3,0 0.6,-0.1 0.8,-0.1 1,0 1.9,0.3 2.7,0.9 1,0.7 1.7,1.8 1.9,3 0.2,1.2 -0.1,2.5 -0.8,3.5 -0.7,1 -1.8,1.7 -3,1.9 -1.2,0.2 -2.5,-0.1 -3.5,-0.8 z m 10.9,32 c -0.6,-1.1 -0.8,-2.4 -0.5,-3.6 0.3,-1.2 1.1,-2.2 2.2,-2.9 0.7,-0.4 1.5,-0.6 2.3,-0.6 0.4,0 0.8,0.1 1.2,0.2 1.2,0.3 2.2,1.1 2.9,2.2 1.3,2.3 0.5,5.1 -1.7,6.4 -2.2,1.4 -5.1,0.6 -6.4,-1.7 z m 24.1,28.6 c -1,-0.8 -1.6,-1.9 -1.7,-3.2 -0.1,-1.3 0.3,-2.5 1.1,-3.4 1.7,-2 4.7,-2.3 6.6,-0.6 1,0.8 1.6,1.9 1.7,3.2 0.1,1.3 -0.3,2.5 -1.1,3.4 -1.6,2.1 -4.6,2.3 -6.6,0.6 z m 38.5,15.9 c -0.9,2.4 -3.6,3.7 -6,2.8 -2.4,-0.9 -3.7,-3.6 -2.8,-6 l 0,0 c 0.9,-2.4 3.6,-3.7 6,-2.8 2.4,0.8 3.7,3.5 2.8,6 z m 30.8,9.2 c -2.6,0 -4.7,-2.1 -4.7,-4.7 0,-2.6 2.1,-4.7 4.7,-4.7 2.6,0 4.7,2.1 4.7,4.7 0,2.6 -2.1,4.7 -4.7,4.7 z m 36.8,-6.6 c -1.2,0.4 -2.5,0.4 -3.6,-0.2 -1.1,-0.5 -2,-1.5 -2.4,-2.7 l 0,0 c -0.4,-1.2 -0.4,-2.5 0.2,-3.6 0.5,-1.1 1.5,-2 2.7,-2.4 0.5,-0.2 1.1,-0.3 1.6,-0.3 1.9,0 3.7,1.2 4.4,3.1 0.8,2.5 -0.4,5.3 -2.9,6.1 z m 32.4,-18.7 c -2,1.7 -5,1.4 -6.6,-0.6 l 0,0 c -1.7,-2 -1.4,-5 0.6,-6.6 2,-1.7 5,-1.4 6.6,0.6 1.6,1.9 1.4,4.9 -0.6,6.6 z m 1.3,-8.2 c -2.3,-2.2 -5.9,-2.3 -8.4,-0.2 -2.5,2.1 -3,5.7 -1.2,8.3 -6.2,4.6 -12.9,8.5 -20,11.7 -0.6,-1.3 -1.7,-2.3 -3,-2.9 -1.5,-0.7 -3.2,-0.8 -4.8,-0.2 -3.1,1.1 -4.7,4.4 -4,7.5 -7.3,2.2 -14.9,3.6 -22.8,4.1 -0.3,-3.2 -3,-5.6 -6.3,-5.6 -3.3,0 -5.9,2.5 -6.3,5.6 -7.9,-0.5 -15.5,-1.8 -22.8,-4 0.8,-3.1 -0.9,-6.3 -4,-7.4 -3.1,-1.1 -6.4,0.3 -7.8,3.2 -7.2,-3.1 -13.9,-7 -20.1,-11.6 0.8,-1.2 1.1,-2.6 1,-4 -0.1,-1.7 -0.9,-3.2 -2.2,-4.3 -2.5,-2.1 -6.1,-1.9 -8.4,0.3 C 49,194.4 44,188.4 39.6,182 c 2.5,-1.9 3.3,-5.4 1.7,-8.2 -0.8,-1.5 -2.2,-2.5 -3.8,-2.9 -1.4,-0.4 -2.9,-0.3 -4.2,0.3 -3.4,-6.9 -6.1,-14.1 -8,-21.8 1.4,-0.4 2.6,-1.2 3.4,-2.4 1,-1.4 1.3,-3.1 1,-4.7 -0.3,-1.7 -1.2,-3.1 -2.6,-4.1 -1.2,-0.8 -2.6,-1.2 -4.1,-1.1 -0.4,-3.9 -0.7,-7.8 -0.7,-11.8 0,-3.8 0.2,-7.6 0.6,-11.4 0.1,0 0.3,0 0.4,0 1.3,0 2.5,-0.4 3.6,-1.1 1.4,-1 2.3,-2.4 2.6,-4.1 0.3,-1.7 -0.1,-3.3 -1,-4.7 -0.8,-1.2 -2,-2.1 -3.4,-2.4 1.8,-7.6 4.5,-14.9 7.9,-21.8 0.8,0.4 1.7,0.5 2.5,0.5 0.5,0 1.1,-0.1 1.6,-0.2 1.6,-0.4 3,-1.5 3.8,-2.9 C 41.7,75.7 42,74 41.5,72.4 41.1,71 40.3,69.8 39.1,69 43.4,62.5 48.4,56.6 54,51.2 c 1,1 2.3,1.6 3.8,1.7 0.2,0 0.4,0 0.6,0 1.5,0 2.9,-0.5 4,-1.5 1.3,-1.1 2.1,-2.6 2.2,-4.3 0.1,-1.4 -0.2,-2.9 -1,-4 6.2,-4.6 12.9,-8.5 20,-11.7 1.1,2.2 3.3,3.5 5.7,3.5 0.7,0 1.4,-0.1 2.2,-0.4 1.6,-0.6 2.8,-1.7 3.6,-3.3 0.6,-1.3 0.8,-2.8 0.4,-4.2 7.3,-2.2 14.9,-3.6 22.8,-4.1 0.3,3.2 3,5.6 6.3,5.6 3.3,0 5.9,-2.5 6.3,-5.6 7.9,0.5 15.5,1.8 22.8,4 -0.3,1.4 -0.2,2.8 0.4,4.2 0.7,1.5 2,2.7 3.6,3.3 0.7,0.3 1.4,0.4 2.2,0.4 2.4,0 4.6,-1.3 5.7,-3.5 7.2,3.1 13.9,7 20.1,11.6 -0.8,1.2 -1.1,2.6 -1,4 0.1,1.7 0.9,3.2 2.2,4.3 1.1,1 2.6,1.5 4,1.5 0.2,0 0.4,0 0.6,0 1.4,-0.1 2.8,-0.7 3.8,-1.7 5.6,5.3 10.6,11.3 15,17.7 -1.1,0.8 -2,2 -2.3,3.4 -0.4,1.6 -0.2,3.3 0.6,4.8 1.2,2 3.3,3.2 5.5,3.2 0.9,0 1.7,-0.2 2.5,-0.5 3.4,6.9 6.1,14.1 8,21.8 -1.4,0.4 -2.6,1.2 -3.4,2.4 -1,1.4 -1.3,3.1 -1,4.7 0.5,3.1 3.2,5.2 6.2,5.2 0.1,0 0.3,0 0.4,0 0.4,3.9 0.7,7.8 0.7,11.8 0,3.8 -0.2,7.6 -0.6,11.4 -1.4,-0.1 -2.8,0.3 -4,1.1 -1.4,1 -2.3,2.4 -2.6,4.1 -0.3,1.7 0.1,3.3 1,4.7 0.8,1.2 2,2.1 3.4,2.4 -1.8,7.6 -4.5,14.9 -7.9,21.8 -2.9,-1.3 -6.4,-0.2 -8,2.6 -1.6,2.8 -0.8,6.4 1.7,8.2 -4.2,6.1 -9.2,12 -14.8,17.4 z m 22.7,-20.5 c -0.6,1.1 -1.6,1.9 -2.9,2.2 -1.2,0.3 -2.5,0.2 -3.6,-0.5 -2.3,-1.3 -3,-4.2 -1.7,-6.4 0.9,-1.5 2.5,-2.4 4.1,-2.4 0.8,0 1.6,0.2 2.3,0.6 1.1,0.6 1.9,1.6 2.2,2.9 0.4,1.2 0.2,2.5 -0.4,3.6 z m 12.7,-35.2 c -0.2,1.2 -0.9,2.3 -1.9,3 -1,0.7 -2.3,1 -3.5,0.8 -1.2,-0.2 -2.3,-0.9 -3,-1.9 -0.7,-1 -1,-2.3 -0.8,-3.5 0.2,-1.2 0.9,-2.3 1.9,-3 0.8,-0.6 1.7,-0.9 2.7,-0.9 0.3,0 0.6,0 0.8,0.1 2.5,0.4 4.3,2.8 3.8,5.4 z"
       id="path31"
       inkscape:connector-curvature="0"
       style="fill:#ffffff" /><path
       class="st6"
       d="M 235.6,78.3 C 229.6,64 220.9,51.2 209.9,40.2 198.9,29.2 186,20.5 171.7,14.4 156.9,8.2 141.2,5 125,5 108.8,5 93.1,8.2 78.3,14.4 64,20.4 51.2,29.1 40.2,40.1 29.2,51.1 20.5,64 14.5,78.2 8.2,93.1 5,108.8 5,125 c 0,16.2 3.2,31.9 9.4,46.7 6,14.3 14.7,27.1 25.7,38.1 11,11 23.9,19.7 38.1,25.7 14.8,6.3 30.5,9.4 46.7,9.4 16.2,0 31.9,-3.2 46.7,-9.4 14.3,-6 27.1,-14.7 38.1,-25.7 11,-11 19.7,-23.9 25.7,-38.1 6.3,-14.8 9.4,-30.5 9.4,-46.7 0,-16.2 -3,-31.9 -9.2,-46.7 z M 125,243.4 C 59.7,243.4 6.6,190.3 6.6,125 6.6,59.7 59.7,6.6 125,6.6 c 65.3,0 118.4,53.1 118.4,118.4 0,65.3 -53.1,118.4 -118.4,118.4 z"
       id="path33"
       inkscape:connector-curvature="0"
       style="fill:#ffffff" /></g></svg>