<?xml version="1.0" encoding="utf-8"?>
<!-- Generator: Adobe Illustrator 19.2.1, SVG Export Plug-In . SVG Version: 6.00 Build 0)  -->
<svg version="1.1" id="Layer_1" xmlns="http://www.w3.org/2000/svg" xmlns:xlink="http://www.w3.org/1999/xlink" x="0px" y="0px"
	 viewBox="0 0 40 40" style="enable-background:new 0 0 40 40;" xml:space="preserve">
<g>
	<path d="M32.6,30.5l-3.3-3.3c1.3-2.2,1-5.1-1-7c-1.4-1.3-3.7-3.5-4-4.3c-0.2-0.4-0.3-1-0.4-1.6c-0.2-1.4-0.5-3.1-1.7-4.3
		c-3-3-8.2-2.5-11.7,1c-3.5,3.5-4,8.8-1,11.7c1.3,1.3,2.8,1.4,4.3,1.5c0.7,0.1,1.4,0.1,2.2,0.3c0.7,0.2,2.7,2.1,4.1,3.9
		c1.1,1.1,2.6,1.7,4.1,1.7c0.8,0,1.7-0.2,2.5-0.6l3.4,3.4L32.6,30.5z M20.4,25.7L19.9,24l1.6,0.4l0.4,1.8l-1.6-0.4
		C20.4,25.8,20.4,25.7,20.4,25.7z M9.6,16.8l1.3,0.3l0.4,1.6l-1.8-0.4C9.5,17.8,9.5,17.3,9.6,16.8z M13.5,11.1l0.5,0.1l0.4,1.6
		l-1.6-0.4l-0.2-0.8C12.9,11.5,13.2,11.3,13.5,11.1z M20.9,11.4l0.2,0.8l-1.8-0.4l-0.4-1.6C19.6,10.4,20.3,10.8,20.9,11.4
		C20.8,11.4,20.9,11.4,20.9,11.4z M27.3,25l-0.4-1.8l1,0.3c0.1,0.6,0.1,1.1,0,1.7L27.3,25z M27.7,25.8c0,0.1-0.1,0.2-0.1,0.3
		l-0.1-0.3L27.7,25.8z M25.5,20.6l0.4,1.6l-1.8-0.4l-0.4-1.6L25.5,20.6z M23.5,19.4L23.2,18l0.2,0c0.5,0.6,1.1,1.2,1.6,1.8
		L23.5,19.4z M18.2,16.8l1.6,0.4l0.4,1.5l-1.6-0.4L18.2,16.8z M17.8,18l-1.5-0.4L16,16.2l1.5,0.4L17.8,18z M20.6,17.3l1.8,0.4
		l0.4,1.5L21,18.8L20.6,17.3z M22.2,17l-1.8-0.4L20,14.9l1.8,0.4L22.2,17z M19.7,16.4L18,16l-0.4-1.6l1.6,0.4L19.7,16.4z M17.3,15.8
		l-1.5-0.4l-0.4-1.6l1.5,0.4L17.3,15.8z M15,15.3l-1.6-0.4L13,13.2l1.6,0.4L15,15.3z M15.2,16l0.4,1.5l-1.6-0.4l-0.4-1.5L15.2,16z
		 M13.2,16.9l-1.6-0.4l-0.4-1.5l1.6,0.4L13.2,16.9z M13.3,17.7l0.4,1.6l-1.6-0.4l-0.4-1.6L13.3,17.7z M13.9,20.1l0.4,1.8l-1.6-0.4
		l-0.4-1.8L13.9,20.1z M15.1,22.1l-0.4-1.8l1.6,0.4l0.4,1.8L15.1,22.1z M14.5,19.5l-0.4-1.6l1.6,0.4l0.4,1.6L14.5,19.5z M16.5,18.5
		l1.5,0.4l0.4,1.6l-1.5-0.4L16.5,18.5z M18.7,19l1.6,0.4l0.4,1.6l-1.6-0.4L18.7,19z M21.1,19.6L23,20l0.4,1.6l-1.8-0.4L21.1,19.6z
		 M23.5,22.4l0.4,1.8l-1.8-0.4L21.7,22L23.5,22.4z M24.3,22.6l1.8,0.4l0.4,1.8l-1.8-0.4L24.3,22.6z M26.7,22.5l-0.3-1.3
		c0.2,0.2,0.4,0.4,0.5,0.5c0.3,0.3,0.5,0.7,0.7,1.1L26.7,22.5z M21.3,13l0.4,1.6l-1.8-0.4l-0.4-1.6L21.3,13z M19.1,14l-1.6-0.4
		L17,12l1.6,0.4L19.1,14z M16.7,13.4l-1.5-0.4l-0.4-1.6l1.5,0.4L16.7,13.4z M14.6,10.7l0-0.1c0.4-0.2,0.9-0.3,1.3-0.4l0.2,0.9
		L14.6,10.7z M12,12.3L12,12.3C12,12.3,12,12.3,12,12.3L12,12.3z M12.2,13.1l0.4,1.6L11,14.3l-0.1-0.6c0.2-0.3,0.4-0.6,0.6-0.8
		L12.2,13.1z M10.4,14.9l0.4,1.5l-1-0.2c0.1-0.4,0.3-0.9,0.4-1.3L10.4,14.9z M11.5,19.5l0.4,1.8L10.7,21c-0.5-0.6-0.8-1.2-1-1.9
		L11.5,19.5z M17.1,20.9l1.5,0.4L19,23l-1.5-0.4L17.1,20.9z M19.3,21.4l1.6,0.4l0.4,1.8l-1.6-0.4L19.3,21.4z M22.3,24.5l1.8,0.4
		l0.4,1.8l-1.8-0.4L22.3,24.5z M24.9,25.2l1.8,0.4l0.3,1.3c0,0-0.1,0.1-0.1,0.2c-0.1,0.1-0.2,0.2-0.3,0.3L25.4,27L24.9,25.2z
		 M25.8,27.8c-0.1,0-0.1,0.1-0.2,0.1l0-0.1L25.8,27.8z M18.1,10l0.4,1.6l-1.6-0.4L16.6,10c0.2,0,0.5,0,0.7,0
		C17.6,10,17.9,10,18.1,10z M18.1,23.5l1.1,0.3l0.2,0.9C19,24.3,18.5,23.9,18.1,23.5z M21.3,26.7l0.9,0.2l0.2,0.7
		c-0.3-0.2-0.6-0.3-0.8-0.6C21.5,27,21.4,26.9,21.3,26.7z M23.2,28L23,27.1l1.8,0.4l0.1,0.5C24.3,28.2,23.7,28.1,23.2,28z"/>
	<circle cx="13.2" cy="30.2" r="3.9"/>
</g>
</svg>
