<?xml version="1.0" encoding="utf-8"?>
<!-- Generator: Adobe Illustrator 16.0.4, SVG Export Plug-In . SVG Version: 6.00 Build 0)  -->
<!DOCTYPE svg PUBLIC "-//W3C//DTD SVG 1.1//EN" "http://www.w3.org/Graphics/SVG/1.1/DTD/svg11.dtd">
<svg version="1.1" id="Layer_1" xmlns="http://www.w3.org/2000/svg" xmlns:xlink="http://www.w3.org/1999/xlink" x="0px" y="0px"
	 width="288px" height="221px" viewBox="0 0 288 221" enable-background="new 0 0 288 221" xml:space="preserve">
<path fill="#A31984" d="M258.829,0.94h-82.891c-6.134,0-11.106,4.972-11.106,11.105c0,1.912,0.42,3.702,1.326,5.272l41.607,72.061
	c1.914,3.326,5.506,5.57,9.617,5.57c4.117,0,7.701-2.244,9.619-5.57l41.604-72.061c0.908-1.57,1.328-3.36,1.328-5.272
	C269.934,5.912,264.967,0.94,258.829,0.94"/>
<path fill="#A31984" d="M275.863,6.957c0-3.349,2.715-6.068,6.074-6.068c3.352,0,6.062,2.719,6.062,6.068
	c0,3.352-2.711,6.071-6.062,6.071C278.578,13.028,275.863,10.309,275.863,6.957 M277.115,6.957c0.01,2.659,2.158,4.808,4.822,4.817
	c2.652-0.009,4.803-2.158,4.811-4.817c-0.008-2.657-2.158-4.808-4.811-4.81C279.273,2.149,277.125,4.3,277.115,6.957z"/>
<g>
	<defs>
		<rect id="SVGID_1_" width="288" height="221"/>
	</defs>
	<clipPath id="SVGID_2_">
		<use xlink:href="#SVGID_1_"  overflow="visible"/>
	</clipPath>
	<path clip-path="url(#SVGID_2_)" fill="#A31984" d="M284.217,10.003h-0.578c-0.225,0-0.344-0.027-0.51-0.221l-1.645-2.056h-0.438
		v1.948c0,0.248-0.102,0.329-0.314,0.329h-0.4c-0.273,0-0.367-0.053-0.367-0.329V4.221c0-0.296,0.174-0.307,0.367-0.307h1.754
		c1,0,1.209,0.059,1.566,0.413c0.312,0.326,0.463,0.892,0.463,1.703c0,1.025-0.412,1.601-1.344,1.67l1.562,1.866
		C284.514,9.782,284.482,10.003,284.217,10.003 M282.742,4.886c-0.244-0.12-1.385-0.065-1.695-0.065V6.82h1.162
		c0.412,0,0.607-0.067,0.719-0.207c0.064-0.107,0.131-0.218,0.131-0.665C283.059,5.276,282.951,4.999,282.742,4.886z"/>
	<path clip-path="url(#SVGID_2_)" fill="#00AEEF" d="M129.777,103.246c0,0.01,0.01,0.017,0.01,0.022v-0.009L129.777,103.246
		 M202.809,104.636l-0.457-0.79l-52.35-90.674C145.639,5.613,137.273,0.94,127.98,0.94H85.549c-4.733,0-8.571,3.84-8.571,8.57
		c0,1.471,0.34,2.881,1.024,4.06l51.785,89.698c2.369,4.031,3.728,8.722,3.728,13.735c0,4.864-1.281,9.424-3.517,13.371
		l-45.029,78.001c-0.683,1.172-1.021,2.584-1.021,4.057c0,4.734,3.836,8.568,8.57,8.568h43.537c9.289,0,17.658-4.67,22.021-12.228
		l0.896-1.56l43.299-74.998l0.807-1.395c2.207-3.827,3.227-8.203,3.227-12.854C206.305,113.119,205.063,108.542,202.809,104.636z"/>
</g>
<path fill="#00AEEF" d="M83.18,140.865c-0.793,0-1.584,0.327-2.309,0.457c-2.436,0.527-5.139,1.058-8.037,1.058
	c-1.582,0-3.035-0.332-3.957-0.726c-2.041-0.921-2.238-3.493-2.174-6.792h16.079c2.306,0,2.767-0.392,2.767-4.016
	c0-4.223-0.392-8.371-2.435-11.334c-1.911-2.703-5.208-4.089-10.677-4.089c-5.798,0-9.427,1.517-11.4,4.353
	c-2.047,2.896-2.641,6.785-2.641,12.582c0,6.53,0.924,10.817,3.695,13.385c2.173,2.042,5.735,3.09,10.68,3.09
	c2.831,0,6.717-0.261,9.942-0.856c2.047-0.327,2.375-1.378,2.375-2.898c0-0.726,0-1.518-0.127-2.173
	C84.76,142.048,84.166,140.865,83.18,140.865 M66.703,128.47c0-4.807,0.992-6.453,5.734-6.453c4.483,0,5.071,1.709,5.071,5.795
	c0,0,0,0.785,0,1.255H66.703V128.47z M43.155,115.424c-3.562,0-6.722,1.184-8.902,2.239v-12.191c0-1.251-0.524-2.838-2.566-2.838
	h-2.965c-1.91,0-2.899,0.594-2.899,2.838v39.875c0,1.578,0.526,2.629,2.375,2.629h3.489c2.042,0,2.566-1.119,2.566-2.964V129.91
	c0-4.726,0.978-6.338,5.633-6.338c4.406,0,4.988,1.679,4.988,5.688c0,0,0,0.779,0,1.232h-0.018c0.01,0.635,0.016,1.357,0.016,2.168
	v12.352c0,1.98,0.654,2.964,2.368,2.964h3.5c2.035,0,2.566-1.119,2.566-2.964v-20.227C53.306,120.495,51.261,115.424,43.155,115.424
	z"/>
<path fill="#00AEEF" d="M18.977,123.327h-7.115v13.25c0,3.095,0.133,4.283,0.396,4.808c0.198,0.335,0.532,0.529,0.987,0.529
	c1.849,0,3.884-0.987,5.406-0.987c1.451,0,1.783,1.12,1.783,1.841v2.373c0,2.439-0.664,3.103-2.769,3.298
	c-2.11,0.196-3.559,0.328-5.739,0.328c-6.989,0-8.5-2.57-8.5-10.413v-15.026H1.58c-1.248,0-1.58-0.855-1.58-1.908v-2.836
	c0-1.65,0.656-2.174,1.777-2.174h1.649v-5.34c0-2.24,0.922-2.902,2.834-2.902h2.967c2.041,0,2.635,1.648,2.635,2.902v5.34h6.461
	c1.447,0,2.24,0.198,2.24,2.109v2.304C20.563,123.062,20.165,123.327,18.977,123.327"/>
<path fill="#A31984" d="M174.128,200.225l5.053,8.552l4.775,2.756c0.662,0.384,0.797,0.88,0.422,1.517l-0.541,0.961
	c-0.43,0.733-0.824,0.945-1.598,0.496l-4.598-2.654l-10.481-0.123c-0.293,0.007-0.572-0.034-0.773-0.151
	c-0.549-0.317-0.414-0.92-0.205-1.278l0.689-1.195c0.383-0.665,0.756-0.745,1.287-0.737l7.179,0.144l-3.701-6.226
	c-0.268-0.45-0.364-0.806,0.021-1.471l0.566-0.976c0.334-0.582,0.795-0.668,1.219-0.422
	C173.708,199.569,173.981,199.967,174.128,200.225"/>
<path fill="#A31984" d="M196.514,192.042l-0.539,0.93c-0.383,0.664-0.857,0.715-1.508,0.402l-9.376-4.642
	c0.388,0.461,0.945,1.079,1.377,1.563c1.676,1.976,3.5,4.006,4.571,5.369c0.43,0.543,0.584,0.991,0.164,1.715l-0.332,0.582
	c-0.426,0.734-0.876,0.804-1.562,0.701c-1.713-0.25-4.413-0.767-6.963-1.234c-0.646-0.106-1.436-0.326-2.029-0.43l8.705,5.804
	c0.602,0.406,0.793,0.845,0.412,1.502l-0.541,0.937c-0.398,0.687-0.867,1.035-1.652,0.496l-12.277-8.604
	c-0.76-0.526-0.567-1.065-0.258-1.601l0.705-1.222c0.357-0.618,0.74-0.816,1.344-0.734c2.521,0.359,6.938,1.219,10.326,1.811
	c-2.209-2.633-5.166-6.028-6.736-8.032c-0.371-0.481-0.391-0.906-0.031-1.528l0.703-1.222c0.309-0.531,0.682-0.97,1.516-0.578
	l13.585,6.336C196.977,190.763,196.912,191.349,196.514,192.042"/>
<path fill="#A31984" d="M203.475,180.39c-0.486,0.998-0.758,1.57-1.35,2.595c-0.477,0.825-1.117,1.787-1.781,2.468
	c-2.541,2.655-5.602,1.803-9.447-0.416c-6.528-3.771-6.558-6.541-4.058-10.873c0.594-1.023,0.955-1.554,1.574-2.47
	c0.592-0.873,0.949-0.992,1.449-0.703l0.731,0.421c0.795,0.459,0.984,0.75,0.574,1.454c-0.475,0.828-0.818,1.164-1.497,2.341
	c-0.414,0.711-1.012,1.903-1.088,2.602c-0.178,1.642,1.554,2.699,4.108,4.168c2.512,1.453,4.541,2.453,6.01,0.727
	c0.299-0.361,0.705-0.957,1.102-1.645c0.68-1.178,0.803-1.645,1.273-2.469c0.408-0.709,0.752-0.687,1.555-0.224l0.734,0.421
	C203.852,179.068,203.936,179.443,203.475,180.39"/>
<path fill="#A31984" d="M211.623,165.868l-0.705,1.221c-0.398,0.688-0.844,0.697-1.381,0.594l-3.344-0.621
	c-0.529,0.97-0.936,1.679-1.505,2.654c-0.536,0.933-1.011,1.758-1.493,2.539l2.105,2.406c0.486,0.545,0.715,0.916,0.277,1.666
	l-0.588,1.028c-0.438,0.758-0.701,0.75-1.031,0.556c-0.135-0.072-0.365-0.296-0.588-0.576l-10.078-11.888
	c-0.547-0.648-0.719-1.07-0.242-1.889l0.523-0.909c0.473-0.826,0.93-0.892,1.736-0.75l15.719,2.678
	c0.139,0.019,0.273,0.041,0.391,0.106C211.969,165.002,211.828,165.511,211.623,165.868 M197.152,165.331l4.211,4.809
	c0.297-0.516,0.621-1.127,0.992-1.768c0.398-0.693,0.691-1.148,1.062-1.791L197.152,165.331z"/>
</svg>
